<?xml version="1.0" encoding="UTF-8" standalone="no"?>
<svg
   xmlns:dc="http://purl.org/dc/elements/1.1/"
   xmlns:cc="http://creativecommons.org/ns#"
   xmlns:rdf="http://www.w3.org/1999/02/22-rdf-syntax-ns#"
   xmlns:svg="http://www.w3.org/2000/svg"
   xmlns="http://www.w3.org/2000/svg"
   xmlns:xlink="http://www.w3.org/1999/xlink"
   xmlns:sodipodi="http://sodipodi.sourceforge.net/DTD/sodipodi-0.dtd"
   xmlns:inkscape="http://www.inkscape.org/namespaces/inkscape"
   style="fill-opacity:1; color-rendering:auto; color-interpolation:auto; stroke:black; text-rendering:auto; stroke-linecap:square; stroke-miterlimit:10; stroke-opacity:1; shape-rendering:auto; fill:black; stroke-dasharray:none; font-weight:normal; stroke-width:1; font-family:'Dialog'; font-style:normal; stroke-linejoin:miter; font-size:12; stroke-dashoffset:0; image-rendering:auto;"
   width="880"
   height="666"
   id="svg2"
   version="1.1"
   inkscape:version="0.91 r13725"
   sodipodi:docname="user_response.svg">
  <metadata
     id="metadata123">
    <rdf:RDF>
      <cc:Work
         rdf:about="">
        <dc:format>image/svg+xml</dc:format>
        <dc:type
           rdf:resource="http://purl.org/dc/dcmitype/StillImage" />
      </cc:Work>
    </rdf:RDF>
  </metadata>
  <sodipodi:namedview
     pagecolor="#ffffff"
     bordercolor="#666666"
     borderopacity="1"
     objecttolerance="10"
     gridtolerance="10"
     guidetolerance="10"
     inkscape:pageopacity="0"
     inkscape:pageshadow="2"
     inkscape:window-width="640"
     inkscape:window-height="434"
     id="namedview121"
     showgrid="false"
     inkscape:zoom="0.35435435"
     inkscape:cx="440"
     inkscape:cy="333"
     inkscape:window-x="284"
     inkscape:window-y="72"
     inkscape:window-maximized="0"
     inkscape:current-layer="svg2" />
  <!--Generated by the Batik Graphics2D SVG Generator-->
  <defs
     id="genericDefs">
    <linearGradient
       inkscape:collect="always"
       xlink:href="#linearGradient1"
       id="linearGradient3451"
       gradientUnits="userSpaceOnUse"
       spreadMethod="pad"
       x1="200"
       y1="117"
       x2="377"
       y2="258" />
    <linearGradient
       inkscape:collect="always"
       xlink:href="#linearGradient1"
       id="linearGradient3453"
       gradientUnits="userSpaceOnUse"
       spreadMethod="pad"
       x1="200"
       y1="117"
       x2="377"
       y2="258" />
    <linearGradient
       inkscape:collect="always"
       xlink:href="#linearGradient1"
       id="linearGradient3455"
       gradientUnits="userSpaceOnUse"
       spreadMethod="pad"
       x1="200"
       y1="117"
       x2="377"
       y2="258" />
    <defs
       id="defs1">
      <linearGradient
         spreadMethod="pad"
         id="linearGradient1"
         y2="258"
         y1="117"
         x2="377"
         gradientUnits="userSpaceOnUse"
         x1="200">
        <stop
           id="stop9"
           offset="0%"
           style="stop-opacity:1; stop-color:white;" />
        <stop
           id="stop11"
           offset="100%"
           style="stop-opacity:1; stop-color:rgb(255,255,204);" />
      </linearGradient>
      <clipPath
         id="clipPath1"
         clipPathUnits="userSpaceOnUse">
        <path
           id="path14"
           d="M0 0 L880 0 L880 666 L0 666 L0 0 Z" />
      </clipPath>
      <clipPath
         id="clipPath2"
         clipPathUnits="userSpaceOnUse">
        <path
           id="path17"
           d="M-5 -5 L655 -5 L655 494.5 L-5 494.5 L-5 -5 Z" />
      </clipPath>
      <clipPath
         id="clipPath3"
         clipPathUnits="userSpaceOnUse">
        <path
           id="path20"
           d="M0 0 L660 0 L660 499.5 L0 499.5 L0 0 Z" />
      </clipPath>
      <clipPath
         id="clipPath4"
         clipPathUnits="userSpaceOnUse">
        <path
           id="path23"
           d="M-20 -27 L640 -27 L640 472.5 L-20 472.5 L-20 -27 Z" />
      </clipPath>
      <clipPath
         id="clipPath5"
         clipPathUnits="userSpaceOnUse">
        <path
           id="path26"
           d="M-210 -239.9297 L450 -239.9297 L450 259.5703 L-210 259.5703 L-210 -239.9297 Z" />
      </clipPath>
      <clipPath
         id="clipPath6"
         clipPathUnits="userSpaceOnUse">
        <path
           id="path29"
           d="M-210 -225.7969 L450 -225.7969 L450 273.7031 L-210 273.7031 L-210 -225.7969 Z" />
      </clipPath>
      <clipPath
         id="clipPath7"
         clipPathUnits="userSpaceOnUse">
        <path
           id="path32"
           d="M-210 -211.6641 L450 -211.6641 L450 287.8359 L-210 287.8359 L-210 -211.6641 Z" />
      </clipPath>
      <clipPath
         id="clipPath8"
         clipPathUnits="userSpaceOnUse">
        <path
           id="path35"
           d="M-210 -197.5312 L450 -197.5312 L450 301.9688 L-210 301.9688 L-210 -197.5312 Z" />
      </clipPath>
      <clipPath
         id="clipPath9"
         clipPathUnits="userSpaceOnUse">
        <path
           id="path38"
           d="M-210 -183.3984 L450 -183.3984 L450 316.1016 L-210 316.1016 L-210 -183.3984 Z" />
      </clipPath>
      <clipPath
         id="clipPath10"
         clipPathUnits="userSpaceOnUse">
        <path
           id="path41"
           d="M-210 -169.2656 L450 -169.2656 L450 330.2344 L-210 330.2344 L-210 -169.2656 Z" />
      </clipPath>
      <clipPath
         id="clipPath11"
         clipPathUnits="userSpaceOnUse">
        <path
           id="path44"
           d="M-210 -155.1328 L450 -155.1328 L450 344.3672 L-210 344.3672 L-210 -155.1328 Z" />
      </clipPath>
      <clipPath
         id="clipPath12"
         clipPathUnits="userSpaceOnUse">
        <path
           id="path47"
           d="M-244.5 -133 L415.5 -133 L415.5 366.5 L-244.5 366.5 L-244.5 -133 Z" />
      </clipPath>
    </defs>
  </defs>
  <g
     id="g71"
     style="font-weight:bold;font-family:sans-serif;fill:#c0c0c0;fill-opacity:0.50199998;stroke:#c0c0c0;stroke-width:2;stroke-opacity:0.50199998;shape-rendering:crispEdges;text-rendering:geometricPrecision"
     transform="matrix(1.3333,0,0,1.3333,6.6665,6.6665)">
    <rect
       clip-path="url(#clipPath2)"
       id="rect73"
       height="140.0625"
       style="stroke:none"
       width="177"
       y="117"
       x="200" />
    <rect
       clip-path="url(#clipPath2)"
       id="rect75"
       height="140.0625"
       style="fill:none"
       width="177"
       y="117"
       x="200" />
  </g>
  <g
     id="g77"
     style="font-weight:bold;font-family:sans-serif;fill:url(#linearGradient3453);stroke:url(#linearGradient3455);stroke-width:2;shape-rendering:crispEdges;text-rendering:geometricPrecision"
     transform="scale(1.3333,1.3333)">
    <rect
       clip-path="url(#clipPath3)"
       id="rect79"
       height="140.0625"
       style="fill:url(#linearGradient3451);stroke:none"
       width="177"
       y="117"
       x="200" />
    <rect
       clip-path="url(#clipPath3)"
       id="rect81"
       height="140.0625"
       style="fill:none;stroke:#000000"
       width="177"
       y="117"
       x="200" />
  </g>
  <g
     id="g83"
     transform="matrix(1.3333,0,0,1.3333,279.993,319.89827)"
     style="font-family:sans-serif;stroke-width:2;text-rendering:optimizeLegibility">
    <path
       inkscape:connector-curvature="0"
       clip-path="url(#clipPath5)"
       id="path85"
       style="stroke:none"
       d="m 0.8672,-3.0352 0,-0.8671 5.2031,0 0,0.8671 z m 13.5176,3.1817 q -1.3653,0 -2.1797,-0.9053 -0.8145,-0.9053 -0.8145,-2.4228 0,-1.5352 0.8174,-2.4288 0.8174,-0.8935 2.2178,-0.8935 1.4004,0 2.2178,0.8935 0.8173,0.8936 0.8173,2.417 0,1.5586 -0.8203,2.4493 -0.8203,0.8906 -2.2558,0.8906 z m 0.0175,-0.8672 q 1.834,0 1.834,-2.4727 0,-2.4433 -1.8105,-2.4433 -1.8047,0 -1.8047,2.4551 0,2.4609 1.7812,2.4609 z m 8.1446,-0.0879 q -1.0371,0.9551 -1.9981,0.9551 -0.791,0 -1.3125,-0.4951 -0.5215,-0.4952 -0.5215,-1.251 0,-1.043 0.876,-1.6025 0.876,-0.5596 2.5108,-0.5596 l 0.2754,0 0,-0.7676 q 0,-1.1074 -1.1368,-1.1074 -0.914,0 -1.9746,0.5625 l 0,-0.9551 q 1.166,-0.4746 2.1856,-0.4746 1.0664,0 1.5732,0.4805 0.5068,0.4804 0.5068,1.4941 l 0,2.8828 q 0,0.9903 0.6094,0.9903 0.0762,0 0.2227,-0.0235 l 0.082,0.6387 q -0.3926,0.1875 -0.8672,0.1875 -0.8086,0 -1.0312,-0.9551 z m -0.1699,-0.6269 0,-1.6465 -0.3868,-0.0118 q -0.9492,0 -1.5351,0.3604 -0.586,0.3604 -0.586,0.9463 0,0.416 0.293,0.7031 0.293,0.2871 0.7149,0.2871 0.7207,0 1.5,-0.6386 z M 29.8711,0 l 0,-1.1953 q -0.9199,1.3418 -2.2324,1.3418 -0.8321,0 -1.3242,-0.5244 -0.4922,-0.5244 -0.4922,-1.4151 l 0,-4.5703 1.1543,0 0,4.1953 q 0,0.7149 0.208,1.0166 0.208,0.3018 0.6943,0.3018 1.0547,0 1.9922,-1.3887 l 0,-4.125 1.1543,0 0,6.3633 z M 35.25,0.1465 q -0.8789,0 -1.3711,-0.5039 -0.4922,-0.5039 -0.4922,-1.4004 l 0,-3.7383 -0.7969,0 0,-0.8672 0.7969,0 0,-1.1543 1.1543,-0.1113 0,1.2656 1.6641,0 0,0.8672 -1.6641,0 0,3.5273 q 0,1.2481 1.0781,1.2481 0.2286,0 0.5567,-0.0762 l 0,0.7969 Q 35.6426,0.1465 35.25,0.1465 Z M 37.8281,0 l 0,-9.252 1.1543,0 0,4.084 q 0.9141,-1.3359 2.2383,-1.3359 0.8262,0 1.3184,0.5244 0.4921,0.5244 0.4921,1.4092 l 0,4.5703 -1.1542,0 0,-4.1953 q 0,-0.709 -0.2081,-1.0108 -0.208,-0.3017 -0.6884,-0.3017 -1.0606,0 -1.9981,1.3887 l 0,4.1191 z m 6.293,2.0215 0,-0.8672 6,0 0,0.8672 z m 9.0644,-1.875 q -0.8789,0 -1.371,-0.5039 -0.4922,-0.5039 -0.4922,-1.4004 l 0,-3.7383 -0.7969,0 0,-0.8672 0.7969,0 0,-1.1543 1.1543,-0.1113 0,1.2656 1.664,0 0,0.8672 -1.664,0 0,3.5273 q 0,1.2481 1.0781,1.2481 0.2285,0 0.5566,-0.0762 l 0,0.7969 q -0.5332,0.1465 -0.9258,0.1465 z m 5.0684,0 q -1.3652,0 -2.1797,-0.9053 -0.8144,-0.9053 -0.8144,-2.4228 0,-1.5352 0.8173,-2.4288 0.8174,-0.8935 2.2178,-0.8935 1.4004,0 2.2178,0.8935 0.8174,0.8936 0.8174,2.417 0,1.5586 -0.8203,2.4493 -0.8203,0.8906 -2.2559,0.8906 z m 0.0176,-0.8672 q 1.834,0 1.834,-2.4727 0,-2.4433 -1.8106,-2.4433 -1.8047,0 -1.8047,2.4551 0,2.4609 1.7813,2.4609 z M 63.1348,0 l 0,-9.252 1.1543,0 0,5.9766 2.6953,-3.0879 1.2422,0 -2.5723,2.9707 L 68.7598,0 67.2832,0 64.2891,-3.2637 64.2891,0 Z m 11.6777,-0.2051 q -1.1602,0.3516 -1.9863,0.3516 -1.4063,0 -2.294,-0.9346 -0.8877,-0.9346 -0.8877,-2.4228 0,-1.4473 0.7823,-2.3731 0.7822,-0.9258 2.0009,-0.9258 1.1543,0 1.7842,0.8203 0.6299,0.8204 0.6299,2.3321 L 74.8359,-3 70.8223,-3 q 0.2519,2.2676 2.2207,2.2676 0.7207,0 1.7695,-0.3867 z m -3.9375,-3.6621 2.8066,0 q 0,-1.7754 -1.3242,-1.7754 -1.3301,0 -1.4824,1.7754 z M 76.834,0 l 0,-6.3633 1.1543,0 0,1.1953 q 0.914,-1.3359 2.2383,-1.3359 0.8261,0 1.3183,0.5244 0.4922,0.5244 0.4922,1.4092 l 0,4.5703 -1.1543,0 0,-4.1953 q 0,-0.709 -0.208,-1.0108 -0.208,-0.3017 -0.6885,-0.3017 -1.0605,0 -1.998,1.3887 l 0,4.1191 z m 11.4082,0 0,-1.1543 1.1543,0 0,1.1543 z m 0,-5.2031 0,-1.1602 1.1543,0 0,1.1602 z m 9.0937,5.4199 q -0.873,0 -2.2324,-0.3809 l 0,-1.2187 q 1.4649,0.6797 2.4082,0.6797 0.7266,0 1.169,-0.3809 0.4423,-0.3808 0.4423,-1.0019 0,-0.5098 -0.29,-0.8672 -0.29,-0.3574 -1.0693,-0.7969 L 97.166,-4.0957 q -1.1074,-0.6328 -1.5615,-1.1924 -0.4541,-0.5596 -0.4541,-1.3037 0,-1.002 0.7266,-1.6494 0.7265,-0.6475 1.8515,-0.6475 1.002,0 2.1153,0.334 l 0,1.125 q -1.3711,-0.5391 -2.045,-0.5391 -0.6386,0 -1.0547,0.3399 -0.416,0.3398 -0.416,0.8555 0,0.4336 0.3047,0.7675 0.3047,0.334 1.1133,0.7969 l 0.6211,0.3516 q 1.125,0.6386 1.5703,1.207 0.4453,0.5684 0.4453,1.3652 0,1.1309 -0.8349,1.8164 -0.835,0.6856 -2.212,0.6856 z m 6.709,-0.0703 q -0.8789,0 -1.3711,-0.5039 -0.4922,-0.5039 -0.4922,-1.4004 l 0,-3.7383 -0.7968,0 0,-0.8672 0.7968,0 0,-1.1543 1.1543,-0.1113 0,1.2656 1.6641,0 0,0.8672 -1.6641,0 0,3.5273 q 0,1.2481 1.0782,1.2481 0.2285,0 0.5566,-0.0762 l 0,0.7969 q -0.5332,0.1465 -0.9258,0.1465 z M 106.623,0 l 0,-6.3633 1.1543,0 0,1.1953 q 0.6856,-1.3359 1.9922,-1.3359 0.1758,0 0.3692,0.0293 l 0,1.0781 q -0.2989,-0.0996 -0.5274,-0.0996 -1.0957,0 -1.834,1.3008 l 0,4.1953 z m 4.9102,0 0,-6.3633 1.1543,0 0,6.3633 z m 0,-7.5176 0,-1.1543 1.1543,0 0,1.1543 z M 115.002,0 l 0,-6.3633 1.1542,0 0,1.1953 q 0.9141,-1.3359 2.2383,-1.3359 0.8262,0 1.3184,0.5244 0.4922,0.5244 0.4922,1.4092 l 0,4.5703 -1.1543,0 0,-4.1953 q 0,-0.709 -0.208,-1.0108 -0.208,-0.3017 -0.6885,-0.3017 -1.0605,0 -1.9981,1.3887 l 0,4.1191 z m 7.4707,2.1152 0.1347,-1.0019 q 1.002,0.4746 1.9746,0.4746 1.9512,0 1.9512,-2.0684 l 0,-1.0019 q -0.6387,1.3359 -2.0977,1.3359 -1.1425,0 -1.8164,-0.832 -0.6738,-0.832 -0.6738,-2.2442 0,-1.4531 0.7676,-2.3671 0.7676,-0.9141 1.9863,-0.9141 1.0664,0 1.834,0.8672 l 0,-0.7266 1.1602,0 0,4.6289 q 0,1.4942 -0.1553,2.2119 -0.1553,0.7178 -0.583,1.1748 -0.7559,0.8028 -2.3496,0.8028 -1.1133,0 -2.1328,-0.3399 z m 4.0605,-4.3183 0,-2.6426 q -0.7617,-0.791 -1.6582,-0.791 -0.7969,0 -1.248,0.6387 -0.4512,0.6386 -0.4512,1.7519 0,2.0918 1.4707,2.0918 1.0019,0 1.8867,-1.0488 z" />
  </g>
  <g
     id="g87"
     transform="matrix(1.3333,0,0,1.3333,279.993,301.05501)"
     style="font-family:sans-serif;stroke-width:2;text-rendering:optimizeLegibility">
    <path
       inkscape:connector-curvature="0"
       clip-path="url(#clipPath6)"
       id="path89"
       style="stroke:none"
       d="m 0.8672,-3.0352 0,-0.8671 5.2031,0 0,0.8671 z m 14.3086,2.2266 q -1.0371,0.9551 -1.9981,0.9551 -0.791,0 -1.3125,-0.4951 -0.5214,-0.4952 -0.5214,-1.251 0,-1.043 0.8759,-1.6025 0.876,-0.5596 2.5108,-0.5596 l 0.2754,0 0,-0.7676 q 0,-1.1074 -1.1368,-1.1074 -0.914,0 -1.9746,0.5625 l 0,-0.9551 q 1.166,-0.4746 2.1856,-0.4746 1.0664,0 1.5732,0.4805 0.5069,0.4804 0.5069,1.4941 l 0,2.8828 q 0,0.9903 0.6093,0.9903 0.0762,0 0.2227,-0.0235 l 0.082,0.6387 q -0.3926,0.1875 -0.8672,0.1875 -0.8086,0 -1.0312,-0.9551 z m -0.1699,-0.6269 0,-1.6465 -0.3868,-0.0118 q -0.9492,0 -1.5351,0.3604 -0.586,0.3604 -0.586,0.9463 0,0.416 0.293,0.7031 0.293,0.2871 0.7149,0.2871 0.7207,0 1.5,-0.6386 z m 6,1.582 q -1.2891,0 -2.1387,-0.9551 -0.8496,-0.9551 -0.8496,-2.4082 0,-1.5527 0.8408,-2.4199 0.8408,-0.8672 2.3467,-0.8672 0.7441,0 1.664,0.2051 l 0,0.9668 q -0.9785,-0.2871 -1.5937,-0.2871 -0.8848,0 -1.4209,0.665 -0.5361,0.665 -0.5361,1.7725 0,1.0722 0.5507,1.7343 0.5508,0.6621 1.4414,0.6621 0.7911,0 1.629,-0.4043 l 0,0.9961 q -1.1192,0.3399 -1.9336,0.3399 z m 5.5722,0 q -0.8789,0 -1.3711,-0.5039 -0.4922,-0.5039 -0.4922,-1.4004 l 0,-3.7383 -0.7968,0 0,-0.8672 0.7968,0 0,-1.1543 1.1543,-0.1113 0,1.2656 1.6641,0 0,0.8672 -1.6641,0 0,3.5273 q 0,1.2481 1.0782,1.2481 0.2285,0 0.5566,-0.0762 l 0,0.7969 Q 26.9707,0.1465 26.5781,0.1465 Z M 29.1562,0 l 0,-6.3633 1.1543,0 0,6.3633 z m 0,-7.5176 0,-1.1543 1.1543,0 0,1.1543 z M 33.9434,0 l -2.3672,-6.3633 1.1543,0 1.8515,4.9512 1.9512,-4.9512 1.0781,0 L 35.0977,0 Z M 43.5,-0.2051 q -1.1602,0.3516 -1.9863,0.3516 -1.4063,0 -2.294,-0.9346 -0.8877,-0.9346 -0.8877,-2.4228 0,-1.4473 0.7823,-2.3731 0.7822,-0.9258 2.0009,-0.9258 1.1543,0 1.7842,0.8203 0.6299,0.8204 0.6299,2.3321 L 43.5234,-3 39.5098,-3 q 0.2519,2.2676 2.2207,2.2676 0.7207,0 1.7695,-0.3867 z m -3.9375,-3.6621 2.8066,0 q 0,-1.7754 -1.3242,-1.7754 -1.3301,0 -1.4824,1.7754 z M 49.4824,0 l 0,-1.1543 1.1543,0 0,1.1543 z m 0,-5.2031 0,-1.1602 1.1543,0 0,1.1602 z m 7.4297,5.2734 0,-9.3223 1.1543,0 0,4.084 q 0.709,-1.3359 2.127,-1.3359 1.1484,0 1.8076,0.8379 0.6592,0.8379 0.6592,2.291 0,1.582 -0.7471,2.5518 -0.7471,0.9697 -1.9658,0.9697 -1.1309,0 -1.8809,-0.8672 l -0.1406,0.791 z m 1.1543,-1.5879 q 0.8906,0.7969 1.6992,0.7969 1.6641,0 1.6641,-2.5371 0,-2.2383 -1.4766,-2.2383 -0.9668,0 -1.8867,1.0488 z m 8.8887,1.6641 q -1.3653,0 -2.1797,-0.9053 -0.8145,-0.9053 -0.8145,-2.4228 0,-1.5352 0.8174,-2.4288 0.8174,-0.8935 2.2178,-0.8935 1.4004,0 2.2178,0.8935 0.8173,0.8936 0.8173,2.417 0,1.5586 -0.8203,2.4493 -0.8203,0.8906 -2.2558,0.8906 z m 0.0176,-0.8672 q 1.8339,0 1.8339,-2.4727 0,-2.4433 -1.8105,-2.4433 -1.8047,0 -1.8047,2.4551 0,2.4609 1.7813,2.4609 z m 7.3535,0.8672 q -1.3653,0 -2.1797,-0.9053 -0.8145,-0.9053 -0.8145,-2.4228 0,-1.5352 0.8174,-2.4288 0.8174,-0.8935 2.2178,-0.8935 1.4004,0 2.2178,0.8935 0.8173,0.8936 0.8173,2.417 0,1.5586 -0.8203,2.4493 -0.8203,0.8906 -2.2558,0.8906 z m 0.0176,-0.8672 q 1.8339,0 1.8339,-2.4727 0,-2.4433 -1.8105,-2.4433 -1.8047,0 -1.8047,2.4551 0,2.4609 1.7813,2.4609 z M 79.207,0 l 0,-9.252 1.1543,0 0,9.252 z m 8.1328,-0.2051 q -1.1601,0.3516 -1.9863,0.3516 -1.4062,0 -2.2939,-0.9346 -0.8877,-0.9346 -0.8877,-2.4228 0,-1.4473 0.7822,-2.3731 0.7822,-0.9258 2.001,-0.9258 1.1543,0 1.7842,0.8203 0.6298,0.8204 0.6298,2.3321 L 87.3633,-3 83.3496,-3 q 0.252,2.2676 2.2207,2.2676 0.7207,0 1.7695,-0.3867 z m -3.9375,-3.6621 2.8067,0 q 0,-1.7754 -1.3242,-1.7754 -1.3301,0 -1.4825,1.7754 z m 9.2403,3.0586 q -1.0371,0.9551 -1.9981,0.9551 -0.791,0 -1.3125,-0.4951 -0.5215,-0.4952 -0.5215,-1.251 0,-1.043 0.876,-1.6025 0.876,-0.5596 2.5108,-0.5596 l 0.2754,0 0,-0.7676 q 0,-1.1074 -1.1368,-1.1074 -0.914,0 -1.9746,0.5625 l 0,-0.9551 q 1.166,-0.4746 2.1856,-0.4746 1.0664,0 1.5732,0.4805 0.5069,0.4804 0.5069,1.4941 l 0,2.8828 q 0,0.9903 0.6093,0.9903 0.0762,0 0.2227,-0.0235 l 0.082,0.6387 q -0.3926,0.1875 -0.8672,0.1875 -0.8086,0 -1.0312,-0.9551 z m -0.1699,-0.6269 0,-1.6465 -0.3868,-0.0118 q -0.9492,0 -1.5351,0.3604 -0.586,0.3604 -0.586,0.9463 0,0.416 0.293,0.7031 0.293,0.2871 0.7149,0.2871 0.7207,0 1.5,-0.6386 z M 95.9883,0 l 0,-6.3633 1.1543,0 0,1.1953 q 0.914,-1.3359 2.2383,-1.3359 0.8261,0 1.3183,0.5244 0.4922,0.5244 0.4922,1.4092 l 0,4.5703 -1.1543,0 0,-4.1953 q 0,-0.709 -0.208,-1.0108 -0.208,-0.3017 -0.6885,-0.3017 -1.0605,0 -1.998,1.3887 l 0,4.1191 z" />
  </g>
  <g
     id="g91"
     transform="matrix(1.3333,0,0,1.3333,279.993,282.21174)"
     style="font-family:sans-serif;stroke-width:2;text-rendering:optimizeLegibility">
    <path
       inkscape:connector-curvature="0"
       clip-path="url(#clipPath7)"
       id="path93"
       style="stroke:none"
       d="m 0.8672,-3.0352 0,-0.8671 5.2031,0 0,0.8671 z m 14.3086,2.2266 q -1.0371,0.9551 -1.9981,0.9551 -0.791,0 -1.3125,-0.4951 -0.5214,-0.4952 -0.5214,-1.251 0,-1.043 0.8759,-1.6025 0.876,-0.5596 2.5108,-0.5596 l 0.2754,0 0,-0.7676 q 0,-1.1074 -1.1368,-1.1074 -0.914,0 -1.9746,0.5625 l 0,-0.9551 q 1.166,-0.4746 2.1856,-0.4746 1.0664,0 1.5732,0.4805 0.5069,0.4804 0.5069,1.4941 l 0,2.8828 q 0,0.9903 0.6093,0.9903 0.0762,0 0.2227,-0.0235 l 0.082,0.6387 q -0.3926,0.1875 -0.8672,0.1875 -0.8086,0 -1.0312,-0.9551 z m -0.1699,-0.6269 0,-1.6465 -0.3868,-0.0118 q -0.9492,0 -1.5351,0.3604 -0.586,0.3604 -0.586,0.9463 0,0.416 0.293,0.7031 0.293,0.2871 0.7149,0.2871 0.7207,0 1.5,-0.6386 z m 6,1.582 q -1.2891,0 -2.1387,-0.9551 -0.8496,-0.9551 -0.8496,-2.4082 0,-1.5527 0.8408,-2.4199 0.8408,-0.8672 2.3467,-0.8672 0.7441,0 1.664,0.2051 l 0,0.9668 q -0.9785,-0.2871 -1.5937,-0.2871 -0.8848,0 -1.4209,0.665 -0.5361,0.665 -0.5361,1.7725 0,1.0722 0.5507,1.7343 0.5508,0.6621 1.4414,0.6621 0.7911,0 1.629,-0.4043 l 0,0.9961 q -1.1192,0.3399 -1.9336,0.3399 z m 6.1464,0 q -1.289,0 -2.1386,-0.9551 -0.8496,-0.9551 -0.8496,-2.4082 0,-1.5527 0.8408,-2.4199 0.8408,-0.8672 2.3467,-0.8672 0.7441,0 1.664,0.2051 l 0,0.9668 q -0.9785,-0.2871 -1.5937,-0.2871 -0.8848,0 -1.4209,0.665 -0.5362,0.665 -0.5362,1.7725 0,1.0722 0.5508,1.7343 0.5508,0.6621 1.4414,0.6621 0.791,0 1.6289,-0.4043 l 0,0.9961 q -1.1191,0.3399 -1.9336,0.3399 z m 8.3262,-0.3516 q -1.1601,0.3516 -1.9863,0.3516 -1.4063,0 -2.294,-0.9346 -0.8877,-0.9346 -0.8877,-2.4228 0,-1.4473 0.7823,-2.3731 0.7822,-0.9258 2.001,-0.9258 1.1542,0 1.7841,0.8203 0.6299,0.8204 0.6299,2.3321 L 35.502,-3 31.4883,-3 q 0.2519,2.2676 2.2207,2.2676 0.7207,0 1.7695,-0.3867 z m -3.9375,-3.6621 2.8067,0 q 0,-1.7754 -1.3243,-1.7754 -1.33,0 -1.4824,1.7754 z m 7.6465,4.0137 q -0.791,0 -1.9219,-0.3692 l 0,-1.0605 q 1.1309,0.5625 1.9688,0.5625 0.498,0 0.8261,-0.2695 0.3282,-0.2696 0.3282,-0.6739 0,-0.5918 -0.9199,-0.9785 l -0.6739,-0.2871 q -1.4941,-0.6211 -1.4941,-1.7871 0,-0.832 0.5888,-1.3096 0.5889,-0.4775 1.6143,-0.4775 0.5332,0 1.3184,0.1465 l 0.2402,0.0469 0,0.9609 q -0.9668,-0.2871 -1.5352,-0.2871 -1.1132,0 -1.1132,0.8086 0,0.5215 0.8437,0.8789 l 0.5567,0.2344 q 0.9433,0.3984 1.3359,0.8408 0.3926,0.4424 0.3926,1.1045 0,0.8379 -0.6621,1.3769 -0.6621,0.5391 -1.6934,0.5391 z m 6.1172,0 q -0.791,0 -1.9219,-0.3692 l 0,-1.0605 q 1.1309,0.5625 1.9688,0.5625 0.498,0 0.8261,-0.2695 0.3282,-0.2696 0.3282,-0.6739 0,-0.5918 -0.92,-0.9785 l -0.6738,-0.2871 q -1.4941,-0.6211 -1.4941,-1.7871 0,-0.832 0.5888,-1.3096 0.5889,-0.4775 1.6143,-0.4775 0.5332,0 1.3184,0.1465 l 0.2402,0.0469 0,0.9609 q -0.9668,-0.2871 -1.5352,-0.2871 -1.1133,0 -1.1133,0.8086 0,0.5215 0.8438,0.8789 l 0.5566,0.2344 q 0.9434,0.3984 1.336,0.8408 0.3926,0.4424 0.3926,1.1045 0,0.8379 -0.6622,1.3769 -0.6621,0.5391 -1.6933,0.5391 z m 3.2754,1.875 0,-0.8672 6,0 0,0.8672 z m 9.0644,-1.875 q -0.8789,0 -1.3711,-0.5039 -0.4922,-0.5039 -0.4922,-1.4004 l 0,-3.7383 -0.7968,0 0,-0.8672 0.7968,0 0,-1.1543 1.1543,-0.1113 0,1.2656 1.6641,0 0,0.8672 -1.6641,0 0,3.5273 q 0,1.2481 1.0782,1.2481 0.2285,0 0.5566,-0.0762 l 0,0.7969 q -0.5332,0.1465 -0.9258,0.1465 z m 5.0684,0 q -1.3652,0 -2.1797,-0.9053 -0.8144,-0.9053 -0.8144,-2.4228 0,-1.5352 0.8173,-2.4288 0.8174,-0.8935 2.2178,-0.8935 1.4004,0 2.2178,0.8935 0.8174,0.8936 0.8174,2.417 0,1.5586 -0.8203,2.4493 -0.8204,0.8906 -2.2559,0.8906 z m 0.0176,-0.8672 q 1.834,0 1.834,-2.4727 0,-2.4433 -1.8106,-2.4433 -1.8047,0 -1.8047,2.4551 0,2.4609 1.7813,2.4609 z M 67.5938,0 l 0,-9.252 1.1542,0 0,5.9766 2.6954,-3.0879 1.2421,0 -2.5722,2.9707 L 73.2188,0 71.7422,0 68.748,-3.2637 68.748,0 Z m 11.6777,-0.2051 q -1.1602,0.3516 -1.9863,0.3516 -1.4063,0 -2.294,-0.9346 -0.8877,-0.9346 -0.8877,-2.4228 0,-1.4473 0.7822,-2.3731 0.7823,-0.9258 2.001,-0.9258 1.1543,0 1.7842,0.8203 0.6299,0.8204 0.6299,2.3321 L 79.2949,-3 75.2812,-3 q 0.252,2.2676 2.2208,2.2676 0.7207,0 1.7695,-0.3867 z m -3.9375,-3.6621 2.8066,0 q 0,-1.7754 -1.3242,-1.7754 -1.3301,0 -1.4824,1.7754 z M 81.293,0 l 0,-6.3633 1.1543,0 0,1.1953 q 0.914,-1.3359 2.2382,-1.3359 0.8262,0 1.3184,0.5244 0.4922,0.5244 0.4922,1.4092 l 0,4.5703 -1.1543,0 0,-4.1953 q 0,-0.709 -0.208,-1.0108 -0.208,-0.3017 -0.6885,-0.3017 -1.0605,0 -1.998,1.3887 l 0,4.1191 z m 11.4082,0 0,-1.1543 1.1543,0 0,1.1543 z m 0,-5.2031 0,-1.1602 1.1543,0 0,1.1602 z m 9.0937,5.4199 q -0.873,0 -2.2324,-0.3809 l 0,-1.2187 q 1.4648,0.6797 2.4082,0.6797 0.7266,0 1.1689,-0.3809 0.4424,-0.3808 0.4424,-1.0019 0,-0.5098 -0.29,-0.8672 -0.29,-0.3574 -1.0693,-0.7969 l -0.5977,-0.3457 q -1.1074,-0.6328 -1.5615,-1.1924 -0.4541,-0.5596 -0.4541,-1.3037 0,-1.002 0.7265,-1.6494 0.7266,-0.6475 1.8516,-0.6475 1.002,0 2.1152,0.334 l 0,1.125 q -1.3711,-0.5391 -2.0449,-0.5391 -0.6387,0 -1.0547,0.3399 -0.416,0.3398 -0.416,0.8555 0,0.4336 0.3047,0.7675 0.3047,0.334 1.1133,0.7969 l 0.6211,0.3516 q 1.125,0.6386 1.5703,1.207 0.4453,0.5684 0.4453,1.3652 0,1.1309 -0.835,1.8164 -0.8349,0.6856 -2.2119,0.6856 z m 6.709,-0.0703 q -0.8789,0 -1.3711,-0.5039 -0.4922,-0.5039 -0.4922,-1.4004 l 0,-3.7383 -0.7968,0 0,-0.8672 0.7968,0 0,-1.1543 1.1543,-0.1113 0,1.2656 1.6641,0 0,0.8672 -1.6641,0 0,3.5273 q 0,1.2481 1.0781,1.2481 0.2286,0 0.5567,-0.0762 l 0,0.7969 q -0.5332,0.1465 -0.9258,0.1465 z M 111.082,0 l 0,-6.3633 1.1543,0 0,1.1953 q 0.6856,-1.3359 1.9922,-1.3359 0.1758,0 0.3692,0.0293 l 0,1.0781 q -0.2989,-0.0996 -0.5274,-0.0996 -1.0957,0 -1.834,1.3008 l 0,4.1953 z m 4.9102,0 0,-6.3633 1.1543,0 0,6.3633 z m 0,-7.5176 0,-1.1543 1.1543,0 0,1.1543 z M 119.4609,0 l 0,-6.3633 1.1543,0 0,1.1953 q 0.9141,-1.3359 2.2383,-1.3359 0.8262,0 1.3184,0.5244 0.4922,0.5244 0.4922,1.4092 l 0,4.5703 -1.1543,0 0,-4.1953 q 0,-0.709 -0.208,-1.0108 -0.208,-0.3017 -0.6885,-0.3017 -1.0606,0 -1.9981,1.3887 l 0,4.1191 z m 7.4707,2.1152 0.1348,-1.0019 q 1.002,0.4746 1.9746,0.4746 1.9512,0 1.9512,-2.0684 l 0,-1.0019 q -0.6387,1.3359 -2.0977,1.3359 -1.1425,0 -1.8164,-0.832 -0.6738,-0.832 -0.6738,-2.2442 0,-1.4531 0.7676,-2.3671 0.7676,-0.9141 1.9863,-0.9141 1.0664,0 1.834,0.8672 l 0,-0.7266 1.1601,0 0,4.6289 q 0,1.4942 -0.1552,2.2119 -0.1553,0.7178 -0.583,1.1748 -0.7559,0.8028 -2.3496,0.8028 -1.1133,0 -2.1329,-0.3399 z m 4.0606,-4.3183 0,-2.6426 q -0.7617,-0.791 -1.6582,-0.791 -0.7969,0 -1.2481,0.6387 -0.4511,0.6386 -0.4511,1.7519 0,2.0918 1.4707,2.0918 1.0019,0 1.8867,-1.0488 z" />
  </g>
  <g
     id="g95"
     transform="matrix(1.3333,0,0,1.3333,279.993,263.36835)"
     style="font-family:sans-serif;stroke-width:2;text-rendering:optimizeLegibility">
    <path
       inkscape:connector-curvature="0"
       clip-path="url(#clipPath8)"
       id="path97"
       style="stroke:none"
       d="m 0.8672,-3.0352 0,-0.8671 5.2031,0 0,0.8671 z M 15.9785,0 l 0,-1.1953 q -0.7031,1.3418 -2.1211,1.3418 -1.1484,0 -1.8076,-0.8379 -0.6592,-0.8379 -0.6592,-2.291 0,-1.5879 0.7471,-2.5547 0.7471,-0.9668 1.9658,-0.9668 1.1309,0 1.875,0.8672 l 0,-3.6153 1.1602,0 0,9.252 z m 0,-4.8457 q -0.8965,-0.791 -1.6992,-0.791 -1.6582,0 -1.6582,2.5371 0,2.2324 1.4766,2.2324 0.9609,0 1.8808,-1.0488 z m 6.75,4.0371 q -1.0371,0.9551 -1.998,0.9551 -0.791,0 -1.3125,-0.4951 -0.5215,-0.4952 -0.5215,-1.251 0,-1.043 0.876,-1.6025 0.8759,-0.5596 2.5107,-0.5596 l 0.2754,0 0,-0.7676 q 0,-1.1074 -1.1367,-1.1074 -0.9141,0 -1.9746,0.5625 l 0,-0.9551 q 1.166,-0.4746 2.1855,-0.4746 1.0664,0 1.5733,0.4805 0.5068,0.4804 0.5068,1.4941 l 0,2.8828 q 0,0.9903 0.6094,0.9903 0.0761,0 0.2226,-0.0235 l 0.0821,0.6387 q -0.3926,0.1875 -0.8672,0.1875 -0.8086,0 -1.0313,-0.9551 z m -0.1699,-0.6269 0,-1.6465 -0.3867,-0.0118 q -0.9492,0 -1.5352,0.3604 -0.5859,0.3604 -0.5859,0.9463 0,0.416 0.293,0.7031 0.2929,0.2871 0.7148,0.2871 0.7207,0 1.5,-0.6386 z m 5.4258,1.582 q -0.8789,0 -1.3711,-0.5039 -0.4922,-0.5039 -0.4922,-1.4004 l 0,-3.7383 -0.7969,0 0,-0.8672 0.7969,0 0,-1.1543 1.1543,-0.1113 0,1.2656 1.6641,0 0,0.8672 -1.6641,0 0,3.5273 q 0,1.2481 1.0781,1.2481 0.2285,0 0.5567,-0.0762 l 0,0.7969 Q 28.377,0.1465 27.9844,0.1465 Z m 5.8594,-0.9551 q -1.0372,0.9551 -1.9981,0.9551 -0.791,0 -1.3125,-0.4951 -0.5215,-0.4952 -0.5215,-1.251 0,-1.043 0.876,-1.6025 0.876,-0.5596 2.5107,-0.5596 l 0.2754,0 0,-0.7676 q 0,-1.1074 -1.1367,-1.1074 -0.9141,0 -1.9746,0.5625 l 0,-0.9551 q 1.166,-0.4746 2.1855,-0.4746 1.0665,0 1.5733,0.4805 0.5068,0.4804 0.5068,1.4941 l 0,2.8828 q 0,0.9903 0.6094,0.9903 0.0762,0 0.2227,-0.0235 l 0.082,0.6387 q -0.3926,0.1875 -0.8672,0.1875 -0.8086,0 -1.0312,-0.9551 z m -0.17,-0.6269 0,-1.6465 -0.3867,-0.0118 q -0.9492,0 -1.5351,0.3604 -0.586,0.3604 -0.586,0.9463 0,0.416 0.293,0.7031 0.293,0.2871 0.7148,0.2871 0.7207,0 1.5,-0.6386 z m 2.3614,3.457 0,-0.8672 6,0 0,0.8672 z m 9.6386,-1.875 q -1.289,0 -2.1386,-0.9551 -0.8497,-0.9551 -0.8497,-2.4082 0,-1.5527 0.8409,-2.4199 0.8408,-0.8672 2.3466,-0.8672 0.7442,0 1.6641,0.2051 l 0,0.9668 q -0.9785,-0.2871 -1.5937,-0.2871 -0.8848,0 -1.4209,0.665 -0.5362,0.665 -0.5362,1.7725 0,1.0722 0.5508,1.7343 0.5508,0.6621 1.4414,0.6621 0.791,0 1.6289,-0.4043 l 0,0.9961 Q 46.4883,0.1465 45.6738,0.1465 Z M 49.3359,0 l 0,-6.3633 1.1543,0 0,1.1953 q 0.6856,-1.3359 1.9922,-1.3359 0.1758,0 0.3692,0.0293 l 0,1.0781 q -0.2989,-0.0996 -0.5274,-0.0996 -1.0957,0 -1.834,1.3008 l 0,4.1953 z m 9.5743,-0.2051 q -1.1602,0.3516 -1.9864,0.3516 -1.4062,0 -2.2939,-0.9346 -0.8877,-0.9346 -0.8877,-2.4228 0,-1.4473 0.7822,-2.3731 0.7822,-0.9258 2.001,-0.9258 1.1543,0 1.7842,0.8203 0.6299,0.8204 0.6299,2.3321 L 58.9336,-3 54.9199,-3 q 0.252,2.2676 2.2207,2.2676 0.7207,0 1.7696,-0.3867 z m -3.9375,-3.6621 2.8066,0 q 0,-1.7754 -1.3242,-1.7754 -1.3301,0 -1.4824,1.7754 z m 9.2402,3.0586 q -1.0371,0.9551 -1.9981,0.9551 -0.791,0 -1.3125,-0.4951 -0.5214,-0.4952 -0.5214,-1.251 0,-1.043 0.8759,-1.6025 0.876,-0.5596 2.5108,-0.5596 l 0.2754,0 0,-0.7676 q 0,-1.1074 -1.1368,-1.1074 -0.914,0 -1.9746,0.5625 l 0,-0.9551 q 1.1661,-0.4746 2.1856,-0.4746 1.0664,0 1.5732,0.4805 0.5069,0.4804 0.5069,1.4941 l 0,2.8828 q 0,0.9903 0.6093,0.9903 0.0762,0 0.2227,-0.0235 l 0.082,0.6387 q -0.3925,0.1875 -0.8672,0.1875 -0.8086,0 -1.0312,-0.9551 z m -0.1699,-0.6269 0,-1.6465 -0.3868,-0.0118 q -0.9492,0 -1.5351,0.3604 -0.5859,0.3604 -0.5859,0.9463 0,0.416 0.2929,0.7031 0.293,0.2871 0.7149,0.2871 0.7207,0 1.5,-0.6386 z m 5.4258,1.582 q -0.879,0 -1.3711,-0.5039 -0.4922,-0.5039 -0.4922,-1.4004 l 0,-3.7383 -0.7969,0 0,-0.8672 0.7969,0 0,-1.1543 1.1543,-0.1113 0,1.2656 1.664,0 0,0.8672 -1.664,0 0,3.5273 q 0,1.2481 1.0781,1.2481 0.2285,0 0.5566,-0.0762 l 0,0.7969 q -0.5332,0.1465 -0.9257,0.1465 z m 7.2421,-0.3516 q -1.1601,0.3516 -1.9863,0.3516 -1.4062,0 -2.2939,-0.9346 -0.8877,-0.9346 -0.8877,-2.4228 0,-1.4473 0.7822,-2.3731 0.7822,-0.9258 2.001,-0.9258 1.1543,0 1.7842,0.8203 0.6298,0.8204 0.6298,2.3321 L 76.7344,-3 72.7207,-3 q 0.252,2.2676 2.2207,2.2676 0.7207,0 1.7695,-0.3867 z m -3.9375,-3.6621 2.8067,0 q 0,-1.7754 -1.3242,-1.7754 -1.3301,0 -1.4825,1.7754 z m 9.92,3.8672 0,-1.1543 1.1543,0 0,1.1543 z m 0,-5.2031 0,-1.1602 1.1543,0 0,1.1602 z M 90.0879,0 l 0,-8.6719 2.8828,0 q 1.2891,0 2.083,0.2871 0.794,0.2871 1.374,0.9727 0.92,1.0898 0.92,2.8711 0,2.1621 -1.1426,3.3515 Q 95.0625,0 92.9883,0 Z m 1.2305,-0.9199 1.5761,0 q 1.6875,0 2.3907,-0.9082 0.7558,-0.9668 0.7558,-2.5957 0,-1.5293 -0.7441,-2.4024 -0.4512,-0.5332 -1.0781,-0.7295 -0.627,-0.1963 -1.8868,-0.1963 l -1.0136,0 z m 11.0742,0.1113 q -1.0371,0.9551 -1.9981,0.9551 -0.791,0 -1.3125,-0.4951 -0.5215,-0.4952 -0.5215,-1.251 0,-1.043 0.876,-1.6025 0.876,-0.5596 2.5108,-0.5596 l 0.2754,0 0,-0.7676 q 0,-1.1074 -1.1368,-1.1074 -0.914,0 -1.9746,0.5625 l 0,-0.9551 q 1.166,-0.4746 2.1856,-0.4746 1.0664,0 1.5732,0.4805 0.5069,0.4804 0.5069,1.4941 l 0,2.8828 q 0,0.9903 0.6093,0.9903 0.0762,0 0.2227,-0.0235 l 0.082,0.6387 q -0.3926,0.1875 -0.8672,0.1875 -0.8086,0 -1.0312,-0.9551 z m -0.1699,-0.6269 0,-1.6465 -0.3868,-0.0118 q -0.9492,0 -1.5351,0.3604 -0.586,0.3604 -0.586,0.9463 0,0.416 0.293,0.7031 0.293,0.2871 0.7149,0.2871 0.7207,0 1.5,-0.6386 z m 5.4257,1.582 q -0.8789,0 -1.3711,-0.5039 -0.4921,-0.5039 -0.4921,-1.4004 l 0,-3.7383 -0.7969,0 0,-0.8672 0.7969,0 0,-1.1543 1.1543,-0.1113 0,1.2656 1.664,0 0,0.8672 -1.664,0 0,3.5273 q 0,1.2481 1.0781,1.2481 0.2285,0 0.5566,-0.0762 l 0,0.7969 q -0.5332,0.1465 -0.9258,0.1465 z m 7.2422,-0.3516 q -1.1601,0.3516 -1.9863,0.3516 -1.4063,0 -2.2939,-0.9346 -0.8877,-0.9346 -0.8877,-2.4228 0,-1.4473 0.7822,-2.3731 0.7822,-0.9258 2.001,-0.9258 1.1543,0 1.7841,0.8203 0.6299,0.8204 0.6299,2.3321 l -0.006,0.3574 -4.0137,0 q 0.2519,2.2676 2.2207,2.2676 0.7207,0 1.7695,-0.3867 z m -3.9375,-3.6621 2.8067,0 q 0,-1.7754 -1.3243,-1.7754 -1.33,0 -1.4824,1.7754 z" />
  </g>
  <g
     id="g99"
     transform="matrix(1.3333,0,0,1.3333,279.993,244.52509)"
     style="font-family:sans-serif;stroke-width:2;text-rendering:optimizeLegibility">
    <path
       inkscape:connector-curvature="0"
       clip-path="url(#clipPath9)"
       id="path101"
       style="stroke:none"
       d="m 0.8672,-3.0352 0,-0.8671 5.2031,0 0,0.8671 z m 11.0273,5.3497 0,-8.6778 1.1543,0 0,1.1953 q 0.709,-1.3359 2.127,-1.3359 1.1484,0 1.8076,0.8379 0.6592,0.8379 0.6592,2.291 0,1.582 -0.7471,2.5518 -0.7471,0.9697 -1.9658,0.9697 -1.1309,0 -1.8809,-0.8672 l 0,3.0352 z m 1.1543,-3.8321 q 0.8907,0.7969 1.6992,0.7969 1.6641,0 1.6641,-2.5371 0,-2.2383 -1.4766,-2.2383 -0.9667,0 -1.8867,1.0488 z M 20.1855,0 l -1.8222,-6.3633 1.1308,0 1.3946,4.9278 1.5058,-4.9278 1.1543,0 1.3184,4.9278 1.5996,-4.9278 0.9902,0 L 25.3828,0 24.2227,0 22.875,-4.9277 21.3516,0 Z m 12.5918,0 0,-1.1953 q -0.7031,1.3418 -2.1211,1.3418 -1.1484,0 -1.8076,-0.8379 -0.6591,-0.8379 -0.6591,-2.291 0,-1.5879 0.747,-2.5547 0.7471,-0.9668 1.9658,-0.9668 1.1309,0 1.875,0.8672 l 0,-3.6153 1.1602,0 0,9.252 z m 0,-4.8457 q -0.8964,-0.791 -1.6992,-0.791 -1.6582,0 -1.6582,2.5371 0,2.2324 1.4766,2.2324 0.9609,0 1.8808,-1.0488 z M 40.207,0 l 0,-1.1543 1.1543,0 0,1.1543 z m 0,-5.2031 0,-1.1602 1.1543,0 0,1.1602 z m 9.0938,5.4199 q -0.8731,0 -2.2324,-0.3809 l 0,-1.2187 q 1.4648,0.6797 2.4082,0.6797 0.7265,0 1.1689,-0.3809 0.4424,-0.3808 0.4424,-1.0019 0,-0.5098 -0.29,-0.8672 -0.2901,-0.3574 -1.0694,-0.7969 l -0.5976,-0.3457 q -1.1075,-0.6328 -1.5616,-1.1924 -0.4541,-0.5596 -0.4541,-1.3037 0,-1.002 0.7266,-1.6494 0.7266,-0.6475 1.8516,-0.6475 1.0019,0 2.1152,0.334 l 0,1.125 q -1.3711,-0.5391 -2.0449,-0.5391 -0.6387,0 -1.0547,0.3399 -0.416,0.3398 -0.416,0.8555 0,0.4336 0.3047,0.7675 0.3046,0.334 1.1132,0.7969 l 0.6211,0.3516 q 1.125,0.6386 1.5703,1.207 0.4454,0.5684 0.4454,1.3652 0,1.1309 -0.835,1.8164 -0.835,0.6856 -2.2119,0.6856 z m 6.709,-0.0703 q -0.8789,0 -1.3711,-0.5039 -0.4922,-0.5039 -0.4922,-1.4004 l 0,-3.7383 -0.7969,0 0,-0.8672 0.7969,0 0,-1.1543 1.1543,-0.1113 0,1.2656 1.664,0 0,0.8672 -1.664,0 0,3.5273 q 0,1.2481 1.0781,1.2481 0.2285,0 0.5566,-0.0762 l 0,0.7969 Q 56.4023,0.1465 56.0098,0.1465 Z M 58.5879,0 l 0,-6.3633 1.1543,0 0,1.1953 q 0.6855,-1.3359 1.9922,-1.3359 0.1758,0 0.3691,0.0293 l 0,1.0781 q -0.2988,-0.0996 -0.5273,-0.0996 -1.0957,0 -1.834,1.3008 l 0,4.1953 z m 4.9101,0 0,-6.3633 1.1543,0 0,6.3633 z m 0,-7.5176 0,-1.1543 1.1543,0 0,1.1543 z M 66.9668,0 l 0,-6.3633 1.1543,0 0,1.1953 q 0.9141,-1.3359 2.2383,-1.3359 0.8261,0 1.3183,0.5244 0.4922,0.5244 0.4922,1.4092 l 0,4.5703 -1.1543,0 0,-4.1953 q 0,-0.709 -0.208,-1.0108 -0.208,-0.3017 -0.6885,-0.3017 -1.0605,0 -1.998,1.3887 l 0,4.1191 z m 7.4707,2.1152 0.1348,-1.0019 q 1.0019,0.4746 1.9746,0.4746 1.9511,0 1.9511,-2.0684 l 0,-1.0019 q -0.6386,1.3359 -2.0976,1.3359 -1.1426,0 -1.8164,-0.832 -0.6738,-0.832 -0.6738,-2.2442 0,-1.4531 0.7675,-2.3671 0.7676,-0.9141 1.9864,-0.9141 1.0664,0 1.8339,0.8672 l 0,-0.7266 1.1602,0 0,4.6289 q 0,1.4942 -0.1553,2.2119 -0.1552,0.7178 -0.583,1.1748 -0.7558,0.8028 -2.3496,0.8028 -1.1133,0 -2.1328,-0.3399 z m 4.0605,-4.3183 0,-2.6426 q -0.7617,-0.791 -1.6582,-0.791 -0.7968,0 -1.248,0.6387 -0.4512,0.6386 -0.4512,1.7519 0,2.0918 1.4707,2.0918 1.002,0 1.8867,-1.0488 z" />
  </g>
  <g
     id="g103"
     transform="matrix(1.3333,0,0,1.3333,279.993,225.68182)"
     style="font-family:sans-serif;stroke-width:2;text-rendering:optimizeLegibility">
    <path
       inkscape:connector-curvature="0"
       clip-path="url(#clipPath10)"
       id="path105"
       style="stroke:none"
       d="m 0.8672,-3.0352 0,-0.8671 5.2031,0 0,0.8671 z m 15.6914,2.8301 q -1.1602,0.3516 -1.9863,0.3516 -1.4063,0 -2.294,-0.9346 -0.8877,-0.9346 -0.8877,-2.4228 0,-1.4473 0.7823,-2.3731 0.7822,-0.9258 2.0009,-0.9258 1.1543,0 1.7842,0.8203 0.6299,0.8204 0.6299,2.3321 L 16.582,-3 12.5684,-3 q 0.2519,2.2676 2.2207,2.2676 0.7207,0 1.7695,-0.3867 z m -3.9375,-3.6621 2.8066,0 q 0,-1.7754 -1.3242,-1.7754 -1.3301,0 -1.4824,1.7754 z M 18.5801,0 l 0,-6.3633 1.1543,0 0,1.1953 q 0.8437,-1.3359 2.1679,-1.3359 1.2774,0 1.7403,1.3359 0.8203,-1.3418 2.1328,-1.3418 0.8437,0 1.3066,0.4952 0.4629,0.4951 0.4629,1.3857 l 0,4.6289 -1.1601,0 0,-4.4473 q 0,-1.0898 -0.8614,-1.0898 -0.8964,0 -1.8808,1.2715 l 0,4.2656 -1.1602,0 0,-4.4473 q 0,-1.0957 -0.8789,-1.0957 -0.873,0 -1.8691,1.2774 l 0,4.2656 z m 14.4844,-0.8086 q -1.0372,0.9551 -1.9981,0.9551 -0.791,0 -1.3125,-0.4951 -0.5215,-0.4952 -0.5215,-1.251 0,-1.043 0.876,-1.6025 0.876,-0.5596 2.5107,-0.5596 l 0.2754,0 0,-0.7676 q 0,-1.1074 -1.1367,-1.1074 -0.914,0 -1.9746,0.5625 l 0,-0.9551 q 1.166,-0.4746 2.1856,-0.4746 1.0664,0 1.5732,0.4805 0.5068,0.4804 0.5068,1.4941 l 0,2.8828 q 0,0.9903 0.6094,0.9903 0.0762,0 0.2227,-0.0235 l 0.082,0.6387 q -0.3926,0.1875 -0.8672,0.1875 -0.8086,0 -1.0312,-0.9551 z m -0.17,-0.6269 0,-1.6465 -0.3867,-0.0118 q -0.9492,0 -1.5351,0.3604 -0.586,0.3604 -0.586,0.9463 0,0.416 0.293,0.7031 0.293,0.2871 0.7148,0.2871 0.7207,0 1.5,-0.6386 z M 36.4102,0 l 0,-6.3633 1.1543,0 0,6.3633 z m 0,-7.5176 0,-1.1543 1.1543,0 0,1.1543 z M 39.8789,0 l 0,-9.252 1.1543,0 0,9.252 z m 7.4297,0 0,-1.1543 1.1543,0 0,1.1543 z m 0,-5.2031 0,-1.1602 1.1543,0 0,1.1602 z m 9.0937,5.4199 q -0.873,0 -2.2324,-0.3809 l 0,-1.2187 q 1.4649,0.6797 2.4082,0.6797 0.7266,0 1.169,-0.3809 0.4424,-0.3808 0.4424,-1.0019 0,-0.5098 -0.2901,-0.8672 -0.29,-0.3574 -1.0693,-0.7969 l -0.5977,-0.3457 q -1.1074,-0.6328 -1.5615,-1.1924 -0.4541,-0.5596 -0.4541,-1.3037 0,-1.002 0.7266,-1.6494 0.7265,-0.6475 1.8515,-0.6475 1.002,0 2.1153,0.334 l 0,1.125 q -1.3711,-0.5391 -2.045,-0.5391 -0.6386,0 -1.0547,0.3399 -0.416,0.3398 -0.416,0.8555 0,0.4336 0.3047,0.7675 0.3047,0.334 1.1133,0.7969 l 0.6211,0.3516 q 1.125,0.6386 1.5703,1.207 0.4453,0.5684 0.4453,1.3652 0,1.1309 -0.8349,1.8164 -0.835,0.6856 -2.212,0.6856 z m 6.709,-0.0703 q -0.8789,0 -1.3711,-0.5039 -0.4922,-0.5039 -0.4922,-1.4004 l 0,-3.7383 -0.7968,0 0,-0.8672 0.7968,0 0,-1.1543 1.1543,-0.1113 0,1.2656 1.6641,0 0,0.8672 -1.6641,0 0,3.5273 q 0,1.2481 1.0782,1.2481 0.2285,0 0.5566,-0.0762 l 0,0.7969 Q 63.5039,0.1465 63.1113,0.1465 Z M 65.6895,0 l 0,-6.3633 1.1543,0 0,1.1953 q 0.6855,-1.3359 1.9921,-1.3359 0.1758,0 0.3692,0.0293 l 0,1.0781 q -0.2989,-0.0996 -0.5274,-0.0996 -1.0957,0 -1.8339,1.3008 l 0,4.1953 z m 4.9101,0 0,-6.3633 1.1543,0 0,6.3633 z m 0,-7.5176 0,-1.1543 1.1543,0 0,1.1543 z M 74.0684,0 l 0,-6.3633 1.1543,0 0,1.1953 q 0.914,-1.3359 2.2382,-1.3359 0.8262,0 1.3184,0.5244 0.4922,0.5244 0.4922,1.4092 l 0,4.5703 -1.1543,0 0,-4.1953 q 0,-0.709 -0.208,-1.0108 -0.208,-0.3017 -0.6885,-0.3017 -1.0605,0 -1.998,1.3887 l 0,4.1191 z m 7.4707,2.1152 0.1347,-1.0019 q 1.002,0.4746 1.9746,0.4746 1.9512,0 1.9512,-2.0684 l 0,-1.0019 q -0.6387,1.3359 -2.0976,1.3359 -1.1426,0 -1.8165,-0.832 -0.6738,-0.832 -0.6738,-2.2442 0,-1.4531 0.7676,-2.3671 0.7676,-0.9141 1.9863,-0.9141 1.0664,0 1.834,0.8672 l 0,-0.7266 1.1602,0 0,4.6289 q 0,1.4942 -0.1553,2.2119 -0.1553,0.7178 -0.583,1.1748 -0.7559,0.8028 -2.3496,0.8028 -1.1133,0 -2.1328,-0.3399 z m 4.0605,-4.3183 0,-2.6426 q -0.7617,-0.791 -1.6582,-0.791 -0.7969,0 -1.248,0.6387 -0.4512,0.6386 -0.4512,1.7519 0,2.0918 1.4707,2.0918 1.0019,0 1.8867,-1.0488 z" />
  </g>
  <g
     id="g107"
     transform="matrix(1.3333,0,0,1.3333,279.993,206.83856)"
     style="font-family:sans-serif;stroke-width:2;text-rendering:optimizeLegibility">
    <path
       inkscape:connector-curvature="0"
       clip-path="url(#clipPath11)"
       id="path109"
       style="stroke:none"
       d="m 0.8672,-3.0352 0,-0.8671 5.2031,0 0,0.8671 z M 15.873,0 l 0,-1.1953 q -0.9199,1.3418 -2.2324,1.3418 -0.832,0 -1.3242,-0.5244 -0.4922,-0.5244 -0.4922,-1.4151 l 0,-4.5703 1.1543,0 0,4.1953 q 0,0.7149 0.208,1.0166 0.208,0.3018 0.6944,0.3018 1.0546,0 1.9921,-1.3887 l 0,-4.125 1.1543,0 0,6.3633 z m 5.1563,0.1465 q -0.791,0 -1.9219,-0.3692 l 0,-1.0605 q 1.1309,0.5625 1.9688,0.5625 0.498,0 0.8261,-0.2695 0.3282,-0.2696 0.3282,-0.6739 0,-0.5918 -0.92,-0.9785 l -0.6738,-0.2871 q -1.4941,-0.6211 -1.4941,-1.7871 0,-0.832 0.5888,-1.3096 0.5889,-0.4775 1.6143,-0.4775 0.5332,0 1.3184,0.1465 l 0.2402,0.0469 0,0.9609 q -0.9668,-0.2871 -1.5352,-0.2871 -1.1132,0 -1.1132,0.8086 0,0.5215 0.8437,0.8789 l 0.5566,0.2344 q 0.9434,0.3984 1.336,0.8408 0.3926,0.4424 0.3926,1.1045 0,0.8379 -0.6621,1.3769 -0.6622,0.5391 -1.6934,0.5391 z m 9.0937,-0.3516 q -1.1601,0.3516 -1.9863,0.3516 -1.4062,0 -2.2939,-0.9346 -0.8877,-0.9346 -0.8877,-2.4228 0,-1.4473 0.7822,-2.3731 0.7822,-0.9258 2.001,-0.9258 1.1543,0 1.7842,0.8203 0.6298,0.8204 0.6298,2.3321 L 30.1465,-3 26.1328,-3 q 0.252,2.2676 2.2207,2.2676 0.7207,0 1.7695,-0.3867 z m -3.9375,-3.6621 2.8067,0 q 0,-1.7754 -1.3242,-1.7754 -1.3301,0 -1.4825,1.7754 z M 32.1445,0 l 0,-6.3633 1.1543,0 0,1.1953 q 0.6856,-1.3359 1.9922,-1.3359 0.1758,0 0.3692,0.0293 l 0,1.0781 q -0.2989,-0.0996 -0.5274,-0.0996 -1.0957,0 -1.834,1.3008 l 0,4.1953 z m 4.9102,0 0,-6.3633 1.1543,0 0,1.1953 q 0.914,-1.3359 2.2383,-1.3359 0.8261,0 1.3183,0.5244 0.4922,0.5244 0.4922,1.4092 l 0,4.5703 -1.1543,0 0,-4.1953 q 0,-0.709 -0.208,-1.0108 -0.208,-0.3017 -0.6885,-0.3017 -1.0605,0 -1.998,1.3887 l 0,4.1191 z m 10.7285,-0.8086 q -1.0371,0.9551 -1.998,0.9551 -0.7911,0 -1.3125,-0.4951 -0.5215,-0.4952 -0.5215,-1.251 0,-1.043 0.8759,-1.6025 0.876,-0.5596 2.5108,-0.5596 l 0.2754,0 0,-0.7676 q 0,-1.1074 -1.1367,-1.1074 -0.9141,0 -1.9746,0.5625 l 0,-0.9551 q 1.166,-0.4746 2.1855,-0.4746 1.0664,0 1.5732,0.4805 0.5069,0.4804 0.5069,1.4941 l 0,2.8828 q 0,0.9903 0.6094,0.9903 0.0761,0 0.2226,-0.0235 l 0.082,0.6387 q -0.3925,0.1875 -0.8671,0.1875 -0.8086,0 -1.0313,-0.9551 z m -0.1699,-0.6269 0,-1.6465 -0.3867,-0.0118 q -0.9493,0 -1.5352,0.3604 -0.5859,0.3604 -0.5859,0.9463 0,0.416 0.2929,0.7031 0.293,0.2871 0.7149,0.2871 0.7207,0 1.5,-0.6386 z M 51.1289,0 l 0,-6.3633 1.1543,0 0,1.1953 q 0.8438,-1.3359 2.168,-1.3359 1.2773,0 1.7402,1.3359 0.8203,-1.3418 2.1328,-1.3418 0.8438,0 1.3067,0.4952 0.4629,0.4951 0.4629,1.3857 l 0,4.6289 -1.1602,0 0,-4.4473 q 0,-1.0898 -0.8613,-1.0898 -0.8965,0 -1.8809,1.2715 l 0,4.2656 -1.1602,0 0,-4.4473 q 0,-1.0957 -0.8789,-1.0957 -0.873,0 -1.8691,1.2774 l 0,4.2656 z m 15.8672,-0.2051 q -1.1602,0.3516 -1.9863,0.3516 -1.4063,0 -2.294,-0.9346 -0.8877,-0.9346 -0.8877,-2.4228 0,-1.4473 0.7823,-2.3731 0.7822,-0.9258 2.0009,-0.9258 1.1543,0 1.7842,0.8203 0.6299,0.8204 0.6299,2.3321 L 67.0195,-3 63.0059,-3 q 0.2519,2.2676 2.2207,2.2676 0.7207,0 1.7695,-0.3867 z m -3.9375,-3.6621 2.8066,0 q 0,-1.7754 -1.3242,-1.7754 -1.3301,0 -1.4824,1.7754 z M 72.9785,0 l 0,-1.1543 1.1543,0 0,1.1543 z m 0,-5.2031 0,-1.1602 1.1543,0 0,1.1602 z m 9.0938,5.4199 q -0.8731,0 -2.2325,-0.3809 l 0,-1.2187 q 1.4649,0.6797 2.4082,0.6797 0.7266,0 1.169,-0.3809 0.4424,-0.3808 0.4424,-1.0019 0,-0.5098 -0.2901,-0.8672 Q 83.2793,-3.3105 82.5,-3.75 l -0.5977,-0.3457 q -1.1074,-0.6328 -1.5615,-1.1924 -0.4541,-0.5596 -0.4541,-1.3037 0,-1.002 0.7266,-1.6494 0.7265,-0.6475 1.8515,-0.6475 1.002,0 2.1153,0.334 l 0,1.125 q -1.3711,-0.5391 -2.0449,-0.5391 -0.6387,0 -1.0547,0.3399 -0.416,0.3398 -0.416,0.8555 0,0.4336 0.3046,0.7675 0.3047,0.334 1.1133,0.7969 l 0.6211,0.3516 q 1.125,0.6386 1.5703,1.207 0.4453,0.5684 0.4453,1.3652 0,1.1309 -0.8349,1.8164 -0.835,0.6856 -2.2119,0.6856 z m 6.7089,-0.0703 q -0.8789,0 -1.371,-0.5039 -0.4922,-0.5039 -0.4922,-1.4004 l 0,-3.7383 -0.7969,0 0,-0.8672 0.7969,0 0,-1.1543 1.1543,-0.1113 0,1.2656 1.664,0 0,0.8672 -1.664,0 0,3.5273 q 0,1.2481 1.0781,1.2481 0.2285,0 0.5566,-0.0762 L 89.707,0 Q 89.1738,0.1465 88.7812,0.1465 Z M 91.3594,0 l 0,-6.3633 1.1543,0 0,1.1953 q 0.6855,-1.3359 1.9922,-1.3359 0.1757,0 0.3691,0.0293 l 0,1.0781 q -0.2988,-0.0996 -0.5273,-0.0996 -1.0957,0 -1.834,1.3008 l 0,4.1953 z m 4.9101,0 0,-6.3633 1.1543,0 0,6.3633 z m 0,-7.5176 0,-1.1543 1.1543,0 0,1.1543 z M 99.7383,0 l 0,-6.3633 1.1543,0 0,1.1953 q 0.914,-1.3359 2.2383,-1.3359 0.8261,0 1.3183,0.5244 0.4922,0.5244 0.4922,1.4092 l 0,4.5703 -1.1543,0 0,-4.1953 q 0,-0.709 -0.208,-1.0108 -0.208,-0.3017 -0.6885,-0.3017 -1.0605,0 -1.998,1.3887 l 0,4.1191 z m 7.4707,2.1152 0.1348,-1.0019 q 1.0019,0.4746 1.9746,0.4746 1.9511,0 1.9511,-2.0684 l 0,-1.0019 q -0.6386,1.3359 -2.0976,1.3359 -1.1426,0 -1.8164,-0.832 -0.6739,-0.832 -0.6739,-2.2442 0,-1.4531 0.7676,-2.3671 0.7676,-0.9141 1.9863,-0.9141 1.0665,0 1.834,0.8672 l 0,-0.7266 1.1602,0 0,4.6289 q 0,1.4942 -0.1553,2.2119 -0.1553,0.7178 -0.583,1.1748 -0.7559,0.8028 -2.3496,0.8028 -1.1133,0 -2.1328,-0.3399 z m 4.0605,-4.3183 0,-2.6426 q -0.7617,-0.791 -1.6582,-0.791 -0.7968,0 -1.248,0.6387 -0.4512,0.6386 -0.4512,1.7519 0,2.0918 1.4707,2.0918 1.002,0 1.8867,-1.0488 z" />
  </g>
  <g
     id="g111"
     transform="scale(1.3333,1.3333)"
     style="font-family:sans-serif;text-rendering:optimizeLegibility">
    <line
       clip-path="url(#clipPath3)"
       id="line113"
       y2="246.0625"
       style="fill:none"
       y1="246.0625"
       x2="377"
       x1="200" />
    <line
       clip-path="url(#clipPath3)"
       id="line115"
       y2="139.1328"
       style="fill:none"
       y1="139.1328"
       x2="377"
       x1="200" />
  </g>
  <g
     id="g117"
     transform="matrix(1.3333,0,0,1.3333,325.99185,177.3289)"
     style="font-weight:bold;font-family:sans-serif;text-rendering:optimizeLegibility">
    <path
       inkscape:connector-curvature="0"
       clip-path="url(#clipPath12)"
       id="path119"
       style="stroke:none"
       d="m 1.0137,-8.6719 1.8047,0 0,5.3145 q 0,1.2597 0.416,1.8193 0.416,0.5596 1.3418,0.5596 0.8847,0 1.2802,-0.5332 0.3956,-0.5332 0.3956,-1.7168 l 0,-5.4434 1.5703,0 0,5.3262 q 0,1.2012 -0.2285,1.8311 -0.2286,0.6298 -0.8321,1.0927 -0.8262,0.6387 -2.2207,0.6387 -1.4941,0 -2.4023,-0.6797 -0.627,-0.4687 -0.876,-1.1103 -0.249,-0.6416 -0.249,-1.7901 z m 8.7363,8.4668 0,-1.2715 q 1.2891,0.5391 2.2031,0.5391 1.0664,0 1.0664,-0.7266 0,-0.4687 -0.8789,-0.8203 l -0.5859,-0.2344 q -0.9551,-0.3867 -1.3652,-0.832 -0.4102,-0.4453 -0.4102,-1.1015 0,-0.9141 0.6973,-1.4209 0.6972,-0.5069 1.9511,-0.5069 0.7852,0 1.8692,0.2285 l 0,1.2188 q -1.043,-0.3633 -1.7285,-0.3633 -1.0782,0 -1.0782,0.668 0,0.4394 0.7969,0.7441 l 0.5039,0.1934 q 1.1309,0.4277 1.5733,0.8672 0.4423,0.4394 0.4423,1.1308 0,0.9082 -0.7529,1.4737 -0.7529,0.5654 -1.9599,0.5654 -1.1602,0 -2.3438,-0.3516 z m 12.1934,-0.0117 q -1.2364,0.3633 -2.3438,0.3633 -1.6113,0 -2.543,-0.9141 -0.9316,-0.914 -0.9316,-2.4961 0,-1.4941 0.8525,-2.4052 0.8526,-0.9112 2.253,-0.9112 1.4121,0 2.0625,0.8906 0.6504,0.8907 0.6504,2.8184 l -3.9903,0 q 0.1758,1.8399 2.0215,1.8399 0.8731,0 1.9688,-0.4043 z m -4.0137,-3.6328 2.3086,0 q 0,-1.6465 -1.0606,-1.6465 -1.0781,0 -1.248,1.6465 z M 23.7363,0 l 0,-6.4336 1.7344,0 0,1.2129 q 0.6738,-1.3594 2.0508,-1.3594 0.164,0 0.3223,0.0352 l 0,1.5469 q -0.3692,-0.1348 -0.6856,-0.1348 -1.0371,0 -1.6875,1.0488 l 0,4.084 z m 5.4551,0 0,-8.6719 3.2461,0 q 2.6426,0 2.6426,2.1504 0,0.8027 -0.4483,1.4619 -0.4482,0.6592 -1.2334,1.0108 L 36.2344,0 l -2.1973,0 -2.1504,-3.5449 -0.9961,0 0,3.5449 z m 1.6992,-4.7344 0.416,0 q 1.9629,0 1.9629,-1.5879 0,-1.1601 -1.7519,-1.1601 l -0.627,0 z m 11.8184,4.5176 q -1.2363,0.3633 -2.3438,0.3633 -1.6113,0 -2.5429,-0.9141 -0.9317,-0.914 -0.9317,-2.4961 0,-1.4941 0.8526,-2.4052 0.8525,-0.9112 2.2529,-0.9112 1.4121,0 2.0625,0.8906 0.6504,0.8907 0.6504,2.8184 l -3.9902,0 q 0.1757,1.8399 2.0214,1.8399 0.8731,0 1.9688,-0.4043 z m -4.0137,-3.6328 2.3086,0 q 0,-1.6465 -1.0605,-1.6465 -1.0782,0 -1.2481,1.6465 z m 5.6367,3.6445 0,-1.2715 q 1.2891,0.5391 2.2032,0.5391 1.0664,0 1.0664,-0.7266 0,-0.4687 -0.8789,-0.8203 l -0.586,-0.2344 q -0.9551,-0.3867 -1.3652,-0.832 -0.4102,-0.4453 -0.4102,-1.1015 0,-0.9141 0.6973,-1.4209 0.6973,-0.5069 1.9512,-0.5069 0.7851,0 1.8691,0.2285 l 0,1.2188 q -1.043,-0.3633 -1.7285,-0.3633 -1.0781,0 -1.0781,0.668 0,0.4394 0.7968,0.7441 l 0.5039,0.1934 q 1.1309,0.4277 1.5733,0.8672 0.4424,0.4394 0.4424,1.1308 0,0.9082 -0.753,1.4737 -0.7529,0.5654 -1.9599,0.5654 -1.1602,0 -2.3438,-0.3516 z m 6.9551,2.5196 0,-8.7481 1.7344,0 0,1.2129 q 0.668,-1.3594 2.1035,-1.3594 1.1602,0 1.8252,0.8496 0.665,0.8496 0.665,2.3379 0,1.6172 -0.75,2.5781 -0.75,0.961 -2.0097,0.961 -1.0137,0 -1.834,-0.7969 l 0,2.9649 z m 1.7344,-3.9961 q 0.6328,0.7031 1.3476,0.7031 0.6387,0 1.0196,-0.6182 0.3808,-0.6181 0.3808,-1.6494 0,-1.9746 -1.2715,-1.9746 -0.7675,0 -1.4765,0.9902 z m 8.918,1.8281 q -1.5059,0 -2.3936,-0.9111 -0.8877,-0.9112 -0.8877,-2.4522 0,-1.5586 0.8936,-2.4609 0.8935,-0.9024 2.4287,-0.9024 1.541,0 2.4345,0.9024 0.8936,0.9023 0.8936,2.4492 0,1.582 -0.8965,2.4785 -0.8965,0.8965 -2.4726,0.8965 z m 0.0293,-1.084 q 1.4941,0 1.4941,-2.291 0,-1.0488 -0.3955,-1.6582 -0.3955,-0.6094 -1.0869,-0.6094 -0.6856,0 -1.0811,0.6094 -0.3955,0.6094 -0.3955,1.6699 0,1.0488 0.3926,1.6641 0.3926,0.6152 1.0723,0.6152 z M 66.9023,0 l 0,-6.4336 1.7344,0 0,1.2129 q 0.8496,-1.3594 2.1914,-1.3594 0.8614,0 1.3594,0.5449 0.498,0.545 0.498,1.4883 l 0,4.5469 -1.7343,0 0,-4.1191 q 0,-1.0957 -0.7266,-1.0957 -0.8262,0 -1.5879,1.166 l 0,4.0488 z m 7.711,-0.2051 0,-1.2715 q 1.289,0.5391 2.2031,0.5391 1.0664,0 1.0664,-0.7266 0,-0.4687 -0.8789,-0.8203 L 76.418,-2.7188 q -0.9551,-0.3867 -1.3653,-0.832 -0.4101,-0.4453 -0.4101,-1.1015 0,-0.9141 0.6972,-1.4209 0.6973,-0.5069 1.9512,-0.5069 0.7852,0 1.8692,0.2285 l 0,1.2188 q -1.043,-0.3633 -1.7286,-0.3633 -1.0781,0 -1.0781,0.668 0,0.4394 0.7969,0.7441 l 0.5039,0.1934 q 1.1309,0.4277 1.5732,0.8672 0.4424,0.4394 0.4424,1.1308 0,0.9082 -0.7529,1.4737 -0.7529,0.5654 -1.96,0.5654 -1.1601,0 -2.3437,-0.3516 z m 12.1933,-0.0117 q -1.2363,0.3633 -2.3437,0.3633 -1.6113,0 -2.543,-0.9141 -0.9316,-0.914 -0.9316,-2.4961 0,-1.4941 0.8525,-2.4052 0.8526,-0.9112 2.253,-0.9112 1.4121,0 2.0624,0.8906 0.6504,0.8907 0.6504,2.8184 l -3.9902,0 q 0.1758,1.8399 2.0215,1.8399 0.873,0 1.9687,-0.4043 z m -4.0136,-3.6328 2.3086,0 q 0,-1.6465 -1.0606,-1.6465 -1.0781,0 -1.248,1.6465 z" />
  </g>
</svg>
