<?xml version="1.0" encoding="UTF-8" standalone="no"?>
<svg
   xmlns:dc="http://purl.org/dc/elements/1.1/"
   xmlns:cc="http://creativecommons.org/ns#"
   xmlns:rdf="http://www.w3.org/1999/02/22-rdf-syntax-ns#"
   xmlns:svg="http://www.w3.org/2000/svg"
   xmlns="http://www.w3.org/2000/svg"
   xmlns:xlink="http://www.w3.org/1999/xlink"
   xmlns:sodipodi="http://sodipodi.sourceforge.net/DTD/sodipodi-0.dtd"
   xmlns:inkscape="http://www.inkscape.org/namespaces/inkscape"
   style="fill-opacity:1; color-rendering:auto; color-interpolation:auto; stroke:black; text-rendering:auto; stroke-linecap:square; stroke-miterlimit:10; stroke-opacity:1; shape-rendering:auto; fill:black; stroke-dasharray:none; font-weight:normal; stroke-width:1; font-family:'Dialog'; font-style:normal; stroke-linejoin:miter; font-size:12; stroke-dashoffset:0; image-rendering:auto;"
   width="880"
   height="666"
   id="svg2"
   version="1.1"
   inkscape:version="0.48.5 r10040"
   sodipodi:docname="charts_ctrl.svg">
  <metadata
     id="metadata119">
    <rdf:RDF>
      <cc:Work
         rdf:about="">
        <dc:format>image/svg+xml</dc:format>
        <dc:type
           rdf:resource="http://purl.org/dc/dcmitype/StillImage" />
      </cc:Work>
    </rdf:RDF>
  </metadata>
  <sodipodi:namedview
     pagecolor="#ffffff"
     bordercolor="#666666"
     borderopacity="1"
     objecttolerance="10"
     gridtolerance="10"
     guidetolerance="10"
     inkscape:pageopacity="0"
     inkscape:pageshadow="2"
     inkscape:window-width="640"
     inkscape:window-height="480"
     id="namedview117"
     showgrid="false"
     inkscape:zoom="0.35435435"
     inkscape:cx="440"
     inkscape:cy="333"
     inkscape:window-x="0"
     inkscape:window-y="0"
     inkscape:window-maximized="0"
     inkscape:current-layer="svg2" />
  <!--Generated by the Batik Graphics2D SVG Generator-->
  <defs
     id="genericDefs">
    <linearGradient
       inkscape:collect="always"
       xlink:href="#linearGradient1"
       id="linearGradient3096"
       gradientUnits="userSpaceOnUse"
       spreadMethod="pad"
       x1="217"
       y1="171"
       x2="462"
       y2="319" />
    <linearGradient
       inkscape:collect="always"
       xlink:href="#linearGradient1"
       id="linearGradient3098"
       gradientUnits="userSpaceOnUse"
       spreadMethod="pad"
       x1="217"
       y1="171"
       x2="462"
       y2="319" />
    <linearGradient
       inkscape:collect="always"
       xlink:href="#linearGradient1"
       id="linearGradient3100"
       gradientUnits="userSpaceOnUse"
       spreadMethod="pad"
       x1="217"
       y1="171"
       x2="462"
       y2="319" />
    <defs
       id="defs1">
      <linearGradient
         spreadMethod="pad"
         id="linearGradient1"
         y2="319"
         y1="171"
         x2="462"
         gradientUnits="userSpaceOnUse"
         x1="217">
        <stop
           id="stop9"
           offset="0%"
           style="stop-opacity:1; stop-color:white;" />
        <stop
           id="stop11"
           offset="100%"
           style="stop-opacity:1; stop-color:rgb(255,255,204);" />
      </linearGradient>
      <clipPath
         id="clipPath1"
         clipPathUnits="userSpaceOnUse">
        <path
           id="path14"
           d="M0 0 L880 0 L880 666 L0 666 L0 0 Z" />
      </clipPath>
      <clipPath
         id="clipPath2"
         clipPathUnits="userSpaceOnUse">
        <path
           id="path17"
           d="M0 0 L660 0 L660 499.5 L0 499.5 L0 0 Z" />
      </clipPath>
      <clipPath
         id="clipPath3"
         clipPathUnits="userSpaceOnUse">
        <path
           id="path20"
           d="M-20 -27 L640 -27 L640 472.5 L-20 472.5 L-20 -27 Z" />
      </clipPath>
      <clipPath
         id="clipPath4"
         clipPathUnits="userSpaceOnUse">
        <path
           id="path23"
           d="M-5 -5 L655 -5 L655 494.5 L-5 494.5 L-5 -5 Z" />
      </clipPath>
      <clipPath
         id="clipPath5"
         clipPathUnits="userSpaceOnUse">
        <path
           id="path26"
           d="M-227 -300.7812 L433 -300.7812 L433 198.7188 L-227 198.7188 L-227 -300.7812 Z" />
      </clipPath>
      <clipPath
         id="clipPath6"
         clipPathUnits="userSpaceOnUse">
        <path
           id="path29"
           d="M-227 -278.8125 L433 -278.8125 L433 220.6875 L-227 220.6875 L-227 -278.8125 Z" />
      </clipPath>
      <clipPath
         id="clipPath7"
         clipPathUnits="userSpaceOnUse">
        <path
           id="path32"
           d="M-227 -264.8438 L433 -264.8438 L433 234.6562 L-227 234.6562 L-227 -264.8438 Z" />
      </clipPath>
      <clipPath
         id="clipPath8"
         clipPathUnits="userSpaceOnUse">
        <path
           id="path35"
           d="M-227 -250.875 L433 -250.875 L433 248.625 L-227 248.625 L-227 -250.875 Z" />
      </clipPath>
      <clipPath
         id="clipPath9"
         clipPathUnits="userSpaceOnUse">
        <path
           id="path38"
           d="M-227 -236.9062 L433 -236.9062 L433 262.5938 L-227 262.5938 L-227 -236.9062 Z" />
      </clipPath>
      <clipPath
         id="clipPath10"
         clipPathUnits="userSpaceOnUse">
        <path
           id="path41"
           d="M-227 -222.9375 L433 -222.9375 L433 276.5625 L-227 276.5625 L-227 -222.9375 Z" />
      </clipPath>
      <clipPath
         id="clipPath11"
         clipPathUnits="userSpaceOnUse">
        <path
           id="path44"
           d="M-227 -208.9688 L433 -208.9688 L433 290.5312 L-227 290.5312 L-227 -208.9688 Z" />
      </clipPath>
      <clipPath
         id="clipPath12"
         clipPathUnits="userSpaceOnUse">
        <path
           id="path47"
           d="M-303.5 -187 L356.5 -187 L356.5 312.5 L-303.5 312.5 L-303.5 -187 Z" />
      </clipPath>
    </defs>
  </defs>
  <g
     id="g67"
     style="font-weight:bold;fill:#c0c0c0;fill-opacity:0.50199998;stroke:#c0c0c0;stroke-width:2;stroke-opacity:0.50199998;font-family:sans-serif"
     transform="matrix(1.3333,0,0,1.3333,6.6665,6.6665)">
    <rect
       clip-path="url(#clipPath4)"
       id="rect69"
       height="147.75"
       style="stroke:none"
       width="245"
       y="171"
       x="217" />
    <rect
       clip-path="url(#clipPath4)"
       id="rect71"
       height="147.75"
       style="fill:none"
       width="245"
       y="171"
       x="217" />
  </g>
  <g
     id="g73"
     style="font-weight:bold;fill:url(#linearGradient3098);stroke:url(#linearGradient3100);stroke-width:2;font-family:sans-serif"
     transform="scale(1.3333,1.3333)">
    <rect
       clip-path="url(#clipPath2)"
       id="rect75"
       height="147.75"
       style="fill:url(#linearGradient3096);stroke:none"
       width="245"
       y="171"
       x="217" />
    <rect
       clip-path="url(#clipPath2)"
       id="rect77"
       height="147.75"
       style="fill:none;stroke:#000000"
       width="245"
       y="171"
       x="217" />
  </g>
  <g
     id="g79"
     transform="matrix(1.3333,0,0,1.3333,302.6591,401.03157)"
     style="stroke-width:2;font-family:sans-serif">
    <path
       inkscape:connector-curvature="0"
       clip-path="url(#clipPath5)"
       id="path81"
       style="stroke:none"
       d="m 0.5938,-3.7656 3.1562,0 0,0.9531 -3.1562,0 0,-0.9531 z m 13.0039,0.4062 q 0,-1.1718 -0.4844,-1.8125 -0.4844,-0.6406 -1.3594,-0.6406 -0.8594,0 -1.3437,0.6406 -0.4844,0.6407 -0.4844,1.8125 0,1.1719 0.4844,1.8125 0.4843,0.6407 1.3437,0.6407 0.875,0 1.3594,-0.6407 0.4844,-0.6406 0.4844,-1.8125 z m 1.0781,2.5469 q 0,1.6719 -0.7422,2.4922 Q 13.1914,2.5 11.6445,2.5 11.082,2.5 10.5742,2.4141 10.0664,2.3281 9.5977,2.1562 l 0,-1.0468 q 0.4687,0.25 0.9375,0.375 0.4687,0.125 0.9375,0.125 1.0625,0 1.5937,-0.5547 Q 13.5977,0.5 13.5977,-0.625 l 0,-0.5312 Q 13.2539,-0.5781 12.7383,-0.2891 12.2227,0 11.4883,0 10.2852,0 9.543,-0.9219 8.8008,-1.8438 8.8008,-3.3594 q 0,-1.5156 0.7422,-2.4375 0.7422,-0.9219 1.9453,-0.9219 0.7344,0 1.25,0.2891 0.5156,0.2891 0.8594,0.8672 l 0,-1 1.0781,0 0,5.75 z m 7.8359,-2.7344 0,0.5157 -4.9687,0 q 0.0781,1.125 0.6797,1.7031 0.6015,0.5781 1.664,0.5781 0.625,0 1.211,-0.1484 0.5859,-0.1485 1.164,-0.461 l 0,1.0313 q -0.5937,0.2343 -1.2031,0.3672 -0.6094,0.1328 -1.2344,0.1328 -1.5625,0 -2.4844,-0.9141 -0.9218,-0.914 -0.9218,-2.4766 0,-1.6093 0.875,-2.5546 0.875,-0.9454 2.3437,-0.9454 1.3281,0 2.1016,0.8516 0.7734,0.8516 0.7734,2.3203 z M 21.4336,-3.875 q -0.0156,-0.875 -0.5,-1.4062 -0.4844,-0.5313 -1.2813,-0.5313 -0.9062,0 -1.4453,0.5156 -0.539,0.5157 -0.6172,1.4375 l 3.8438,-0.0156 z m 3.9141,-4.5469 0,1.8594 2.2187,0 0,0.8437 -2.2187,0 0,3.5626 q 0,0.7968 0.2187,1.0234 0.2188,0.2266 0.8906,0.2266 l 1.1094,0 0,0.9062 -1.1094,0 q -1.25,0 -1.7265,-0.4688 -0.4766,-0.4687 -0.4766,-1.6874 l 0,-3.5626 -0.7812,0 0,-0.8437 0.7812,0 0,-1.8594 1.0938,0 z m 9.6425,7.1719 0,-2.3438 -1.9375,0 0,-0.9843 3.1094,0 0,3.7656 q -0.6875,0.4844 -1.5078,0.7344 -0.8203,0.25 -1.7578,0.25 -2.0625,0 -3.2188,-1.2031 -1.1562,-1.2032 -1.1562,-3.3282 0,-2.1562 1.1562,-3.3515 1.1563,-1.1953 3.2188,-1.1953 0.8437,0 1.6172,0.2109 0.7734,0.2109 1.4297,0.6172 l 0,1.2656 q -0.6563,-0.5625 -1.3985,-0.8437 -0.7422,-0.2813 -1.5547,-0.2813 -1.6093,0 -2.414,0.8984 -0.8047,0.8985 -0.8047,2.6797 0,1.7656 0.8047,2.6641 0.8047,0.8984 2.414,0.8984 0.625,0 1.1172,-0.1093 0.4922,-0.1094 0.8828,-0.3438 z m 7.0957,-4.3125 q -0.1875,-0.0937 -0.3984,-0.1484 -0.2109,-0.0547 -0.4766,-0.0547 -0.9062,0 -1.3984,0.5937 -0.4922,0.5938 -0.4922,1.7188 l 0,3.4531 -1.0781,0 0,-6.5625 1.0781,0 0,1.0156 q 0.3438,-0.5937 0.8906,-0.8828 0.5469,-0.2891 1.3282,-0.2891 0.1093,0 0.2421,0.0157 0.1329,0.0156 0.2891,0.0469 l 0.0156,1.0937 z m 4.1055,2.2656 q -1.2969,0 -1.8047,0.2969 -0.5078,0.2969 -0.5078,1.0156 0,0.5782 0.3828,0.9141 0.3828,0.3359 1.0235,0.3359 0.9062,0 1.4453,-0.6328 0.539,-0.6328 0.539,-1.6953 l 0,-0.2344 -1.0781,0 z m 2.1563,-0.4531 0,3.75 -1.0782,0 0,-1 q -0.375,0.5938 -0.9218,0.8828 -0.5469,0.2891 -1.3438,0.2891 -1.0156,0 -1.6094,-0.5703 -0.5937,-0.5704 -0.5937,-1.5078 0,-1.1094 0.7422,-1.6719 0.7422,-0.5625 2.2109,-0.5625 l 1.5156,0 0,-0.1094 q 0,-0.75 -0.4922,-1.1562 -0.4921,-0.4063 -1.3671,-0.4063 -0.5625,0 -1.1016,0.1406 -0.5391,0.1407 -1.0234,0.4063 l 0,-1 q 0.5937,-0.2344 1.1484,-0.3438 0.5547,-0.1094 1.0859,-0.1094 1.4219,0 2.125,0.7344 0.7032,0.7344 0.7032,2.2344 z m 3.2597,2.7656 0,3.4844 -1.0781,0 0,-9.0625 1.0781,0 0,1 q 0.3438,-0.5937 0.8594,-0.875 0.5156,-0.2813 1.2344,-0.2813 1.2031,0 1.9531,0.9454 0.75,0.9453 0.75,2.4922 0,1.5468 -0.75,2.5 -0.75,0.9531 -1.9531,0.9531 -0.7188,0 -1.2344,-0.2891 -0.5156,-0.289 -0.8594,-0.8672 z m 3.6719,-2.2968 q 0,-1.1876 -0.4922,-1.8594 -0.4922,-0.6719 -1.3359,-0.6719 -0.8594,0 -1.3516,0.6719 -0.4922,0.6718 -0.4922,1.8594 0,1.1874 0.4922,1.8671 0.4922,0.6797 1.3516,0.6797 0.8437,0 1.3359,-0.6797 0.4922,-0.6797 0.4922,-1.8671 z m 8.3672,-0.6876 0,3.9688 -1.0781,0 0,-3.9219 q 0,-0.9375 -0.3672,-1.3984 -0.3672,-0.4609 -1.086,-0.4609 -0.875,0 -1.3828,0.5546 -0.5078,0.5547 -0.5078,1.5235 l 0,3.7031 -1.0781,0 0,-9.125 1.0781,0 0,3.5781 q 0.3906,-0.5937 0.9141,-0.8828 0.5234,-0.2891 1.2109,-0.2891 1.125,0 1.7109,0.6954 0.586,0.6953 0.586,2.0546 z m 6.3242,-2.4062 0,1.0312 q -0.4531,-0.2343 -0.9453,-0.3515 -0.4922,-0.1172 -1.0234,-0.1172 -0.7969,0 -1.2032,0.2422 -0.4062,0.2422 -0.4062,0.7422 0,0.375 0.289,0.5859 0.2891,0.211 1.1641,0.3984 l 0.3594,0.0938 q 1.1562,0.2344 1.6406,0.6875 0.4844,0.4531 0.4844,1.25 0,0.9219 -0.7266,1.4531 -0.7265,0.5313 -1.9922,0.5313 -0.5312,0 -1.1015,-0.1016 -0.5703,-0.1015 -1.1953,-0.3047 l 0,-1.125 q 0.5937,0.3125 1.1718,0.4688 0.5782,0.1562 1.1563,0.1562 0.75,0 1.164,-0.2578 0.4141,-0.2578 0.4141,-0.7422 0,-0.4375 -0.2969,-0.6718 -0.2968,-0.2344 -1.2968,-0.4532 l -0.375,-0.0781 q -1,-0.2187 -1.4454,-0.6563 -0.4453,-0.4374 -0.4453,-1.1874 0,-0.9376 0.6563,-1.4376 0.6562,-0.5 1.8594,-0.5 0.5937,0 1.125,0.086 0.5312,0.0859 0.9687,0.2578 z m 4.6582,-2.7344 q -0.7812,1.3438 -1.1641,2.6641 -0.3828,1.3203 -0.3828,2.6797 0,1.3437 0.3828,2.6718 0.3829,1.3282 1.1641,2.6719 l -0.9375,0 q -0.875,-1.375 -1.3125,-2.7031 -0.4375,-1.3281 -0.4375,-2.6406 0,-1.3125 0.4375,-2.6328 0.4375,-1.3204 1.3125,-2.711 l 0.9375,0 z m 1.9316,0 0.9375,0 q 0.875,1.3906 1.3125,2.711 0.4375,1.3203 0.4375,2.6328 0,1.3125 -0.4375,2.6406 -0.4375,1.3281 -1.3125,2.7031 l -0.9375,0 q 0.7657,-1.3437 1.1563,-2.6719 0.3906,-1.3281 0.3906,-2.6718 0,-1.3594 -0.3906,-2.6797 -0.3906,-1.3203 -1.1563,-2.6641 z m 8.9336,7.625 1.2344,0 0,1.4844 -1.2344,0 0,-1.4844 z m 0,-4.7187 1.2344,0 0,1.4843 -1.2344,0 0,-1.4843 z m 10.5606,-1.375 -1.6094,4.3437 3.2188,0 -1.6094,-4.3437 z m -0.6719,-1.1719 1.3438,0 3.3281,8.75 -1.2344,0 -0.7969,-2.25 -3.9375,0 -0.7968,2.25 -1.25,0 3.3437,-8.75 z m 9.709,3.1875 q -0.1875,-0.0937 -0.3984,-0.1484 -0.211,-0.0547 -0.4766,-0.0547 -0.9063,0 -1.3984,0.5937 -0.4922,0.5938 -0.4922,1.7188 l 0,3.4531 -1.0782,0 0,-6.5625 1.0782,0 0,1.0156 q 0.3437,-0.5937 0.8906,-0.8828 0.5469,-0.2891 1.3281,-0.2891 0.1094,0 0.2422,0.0157 0.1328,0.0156 0.2891,0.0469 l 0.0156,1.0937 z m 4.9336,0 q -0.1875,-0.0937 -0.3984,-0.1484 -0.211,-0.0547 -0.4766,-0.0547 -0.9063,0 -1.3984,0.5937 -0.4922,0.5938 -0.4922,1.7188 l 0,3.4531 -1.0782,0 0,-6.5625 1.0782,0 0,1.0156 q 0.3437,-0.5937 0.8906,-0.8828 0.5469,-0.2891 1.3281,-0.2891 0.1094,0 0.2422,0.0157 0.1328,0.0156 0.2891,0.0469 l 0.0156,1.0937 z m 4.1055,2.2656 q -1.2969,0 -1.8047,0.2969 -0.5078,0.2969 -0.5078,1.0156 0,0.5782 0.3828,0.9141 0.3828,0.3359 1.0234,0.3359 0.9063,0 1.4453,-0.6328 Q 115.209,-2 115.209,-3.0625 l 0,-0.2344 -1.0781,0 z m 2.1562,-0.4531 0,3.75 -1.0781,0 0,-1 q -0.375,0.5938 -0.9219,0.8828 -0.5469,0.2891 -1.3437,0.2891 -1.0157,0 -1.6094,-0.5703 -0.5938,-0.5704 -0.5938,-1.5078 0,-1.1094 0.7422,-1.6719 0.7422,-0.5625 2.211,-0.5625 l 1.5156,0 0,-0.1094 q 0,-0.75 -0.4922,-1.1562 -0.4922,-0.4063 -1.3672,-0.4063 -0.5625,0 -1.1016,0.1406 -0.539,0.1407 -1.0234,0.4063 l 0,-1 q 0.5938,-0.2344 1.1484,-0.3438 0.5547,-0.1094 1.086,-0.1094 1.4219,0 2.125,0.7344 0.7031,0.7344 0.7031,2.2344 z m 4.9473,4.3594 Q 120.7812,1.7812 120.3438,2.1406 119.9062,2.5 119.1875,2.5 l -0.8594,0 0,-0.9062 0.625,0 q 0.4531,0 0.6953,-0.211 0.2422,-0.2109 0.5391,-0.9922 l 0.2031,-0.5 -2.6562,-6.4531 1.1406,0 2.0469,5.125 2.0625,-5.125 1.1406,0 -2.8906,7.1719 z m 12.5097,-6.1719 0,-3.5625 1.0782,0 0,9.125 -1.0782,0 0,-0.9844 q -0.3437,0.5782 -0.8593,0.8672 -0.5157,0.2891 -1.25,0.2891 -1.1875,0 -1.9375,-0.9531 -0.75,-0.9532 -0.75,-2.5 0,-1.5469 0.75,-2.4922 0.75,-0.9454 1.9375,-0.9454 0.7343,0 1.25,0.2813 0.5156,0.2813 0.8593,0.875 z m -3.6718,2.2813 q 0,1.1874 0.4843,1.8671 0.4844,0.6797 1.3438,0.6797 0.8594,0 1.3516,-0.6797 0.4921,-0.6797 0.4921,-1.8671 0,-1.1876 -0.4921,-1.8594 -0.4922,-0.6719 -1.3516,-0.6719 -0.8594,0 -1.3438,0.6719 -0.4843,0.6718 -0.4843,1.8594 z m 6.9609,-3.2813 1.0781,0 0,6.5625 -1.0781,0 0,-6.5625 z m 0,-2.5625 1.0781,0 0,1.375 -1.0781,0 0,-1.375 z m 9.6953,3.3125 q -0.8594,0 -1.3672,0.6797 -0.5078,0.6797 -0.5078,1.8516 0,1.1874 0.5,1.8593 0.5,0.6719 1.375,0.6719 0.8594,0 1.3672,-0.6797 0.5078,-0.6797 0.5078,-1.8515 0,-1.1563 -0.5078,-1.8438 -0.5078,-0.6875 -1.3672,-0.6875 z m 0,-0.9063 q 1.4063,0 2.211,0.9141 0.8046,0.9141 0.8046,2.5235 0,1.6093 -0.8046,2.5312 -0.8047,0.9219 -2.211,0.9219 -1.4062,0 -2.2109,-0.9219 -0.8047,-0.9219 -0.8047,-2.5312 0,-1.6094 0.8047,-2.5235 0.8047,-0.9141 2.2109,-0.9141 z m 9.1231,3.3594 q 0,-1.1718 -0.4844,-1.8125 -0.4844,-0.6406 -1.3594,-0.6406 -0.8594,0 -1.3437,0.6406 -0.4844,0.6407 -0.4844,1.8125 0,1.1719 0.4844,1.8125 0.4843,0.6407 1.3437,0.6407 0.875,0 1.3594,-0.6407 0.4844,-0.6406 0.4844,-1.8125 z m 1.0781,2.5469 q 0,1.6719 -0.7422,2.4922 -0.7422,0.8203 -2.2891,0.8203 -0.5625,0 -1.0703,-0.0859 -0.5078,-0.086 -0.9765,-0.2579 l 0,-1.0468 q 0.4687,0.25 0.9375,0.375 0.4687,0.125 0.9375,0.125 1.0625,0 1.5937,-0.5547 0.5313,-0.5547 0.5313,-1.6797 l 0,-0.5312 q -0.3438,0.5781 -0.8594,0.8671 Q 154.4766,0 153.7422,0 q -1.2031,0 -1.9453,-0.9219 -0.7422,-0.9219 -0.7422,-2.4375 0,-1.5156 0.7422,-2.4375 0.7422,-0.9219 1.9453,-0.9219 0.7344,0 1.25,0.2891 0.5156,0.2891 0.8594,0.8672 l 0,-1 1.0781,0 0,5.75 z m 6.5391,-2.5469 q 0,-1.1718 -0.4844,-1.8125 -0.4844,-0.6406 -1.3594,-0.6406 -0.8594,0 -1.3438,0.6406 -0.4843,0.6407 -0.4843,1.8125 0,1.1719 0.4843,1.8125 0.4844,0.6407 1.3438,0.6407 0.875,0 1.3594,-0.6407 0.4844,-0.6406 0.4844,-1.8125 z m 1.0781,2.5469 q 0,1.6719 -0.7422,2.4922 -0.7422,0.8203 -2.2891,0.8203 -0.5625,0 -1.0703,-0.0859 -0.5078,-0.086 -0.9765,-0.2579 l 0,-1.0468 q 0.4687,0.25 0.9374,0.375 0.4688,0.125 0.9376,0.125 1.0624,0 1.5937,-0.5547 0.5313,-0.5547 0.5313,-1.6797 l 0,-0.5312 q -0.3438,0.5781 -0.8594,0.8671 Q 162.0938,0 161.3594,0 q -1.2032,0 -1.9453,-0.9219 -0.7422,-0.9219 -0.7422,-2.4375 0,-1.5156 0.7422,-2.4375 0.7421,-0.9219 1.9453,-0.9219 0.7344,0 1.25,0.2891 0.5156,0.2891 0.8594,0.8672 l 0,-1 1.0781,0 0,5.75 z m 7.8359,-2.7344 0,0.5157 -4.9687,0 q 0.0781,1.125 0.6797,1.7031 0.6015,0.5781 1.664,0.5781 0.625,0 1.211,-0.1484 0.5859,-0.1485 1.164,-0.461 l 0,1.0313 q -0.5937,0.2343 -1.2031,0.3672 -0.6094,0.1328 -1.2344,0.1328 -1.5625,0 -2.4844,-0.9141 -0.9218,-0.914 -0.9218,-2.4766 0,-1.6093 0.875,-2.5546 0.875,-0.9454 2.3437,-0.9454 1.3281,0 2.1016,0.8516 0.7734,0.8516 0.7734,2.3203 z m -1.0781,-0.3281 q -0.0156,-0.875 -0.5,-1.4062 -0.4844,-0.5313 -1.2813,-0.5313 -0.9062,0 -1.4453,0.5156 -0.539,0.5157 -0.6172,1.4375 l 3.8438,-0.0156 z m 3.9141,-4.5469 0,1.8594 2.2187,0 0,0.8437 -2.2187,0 0,3.5626 q 0,0.7968 0.2187,1.0234 0.2187,0.2266 0.8906,0.2266 l 1.1094,0 0,0.9062 -1.1094,0 q -1.25,0 -1.7265,-0.4688 -0.4766,-0.4687 -0.4766,-1.6874 l 0,-3.5626 -0.7812,0 0,-0.8437 0.7812,0 0,-1.8594 1.0938,0 z m 4.705,0 0,1.8594 2.2188,0 0,0.8437 -2.2188,0 0,3.5626 q 0,0.7968 0.2188,1.0234 0.2187,0.2266 0.8906,0.2266 l 1.1094,0 0,0.9062 -1.1094,0 q -1.25,0 -1.7266,-0.4688 -0.4765,-0.4687 -0.4765,-1.6874 l 0,-3.5626 -0.7813,0 0,-0.8437 0.7813,0 0,-1.8594 1.0937,0 z m 3.627,1.8594 1.0781,0 0,6.5625 -1.0781,0 0,-6.5625 z m 0,-2.5625 1.0781,0 0,1.375 -1.0781,0 0,-1.375 z m 7.1953,0.375 1.1875,0 0,8.1406 q 0,1.5782 -0.6016,2.2969 -0.6015,0.7187 -1.9297,0.7187 l -0.4531,0 0,-1 0.375,0 q 0.7813,0 1.1016,-0.4374 0.3203,-0.4376 0.3203,-1.5782 l 0,-8.1406 z m 8.7891,0.2812 0,1.1563 q -0.6719,-0.3125 -1.2735,-0.4766 -0.6015,-0.164 -1.1484,-0.164 -0.9688,0 -1.4922,0.375 -0.5234,0.375 -0.5234,1.0781 0,0.5781 0.3437,0.875 0.3438,0.2969 1.3281,0.4688 L 197.4727,-5 q 1.3281,0.25 1.9609,0.8828 0.6328,0.6328 0.6328,1.6953 0,1.2813 -0.8516,1.9375 -0.8515,0.6563 -2.5078,0.6563 -0.6093,0 -1.3125,-0.1407 -0.7031,-0.1406 -1.4531,-0.4218 l 0,-1.2188 q 0.7188,0.4063 1.4141,0.6094 0.6953,0.2031 1.3515,0.2031 1.0157,0 1.5703,-0.3984 0.5547,-0.3985 0.5547,-1.1328 0,-0.6407 -0.3984,-1.0078 -0.3984,-0.3672 -1.3047,-0.5391 l -0.7187,-0.1406 q -1.3282,-0.2656 -1.9141,-0.8282 -0.5859,-0.5624 -0.5859,-1.5624 0,-1.1719 0.8125,-1.836 0.8125,-0.664 2.25,-0.664 0.625,0 1.2578,0.1093 0.6328,0.1094 1.3047,0.3281 z m 5.9296,0.5157 q -1.2968,0 -2.0546,0.9609 -0.7579,0.961 -0.7579,2.6328 0,1.6406 0.7579,2.6016 0.7578,0.9609 2.0546,0.9609 1.2813,0 2.0391,-0.9609 0.7578,-0.961 0.7578,-2.6016 0,-1.6718 -0.7578,-2.6328 -0.7578,-0.9609 -2.0391,-0.9609 z m 0,-0.9531 q 1.8282,0 2.9297,1.2343 1.1016,1.2344 1.1016,3.3125 0,2.0625 -1.1016,3.2969 -1.1015,1.2344 -2.9297,1.2344 -1.8437,0 -2.9531,-1.2344 -1.1094,-1.2344 -1.1094,-3.2969 0,-2.0781 1.1094,-3.3125 1.1094,-1.2343 2.9531,-1.2343 z m 5.8829,0.1562 1.5937,0 3.8906,7.3125 0,-7.3125 1.1407,0 0,8.75 -1.5938,0 -3.875,-7.3125 0,7.3125 -1.1562,0 0,-8.75 z" />
  </g>
  <g
     id="g83"
     transform="matrix(1.3333,0,0,1.3333,302.6591,371.74071)"
     style="stroke-width:2;font-family:sans-serif">
    <path
       inkscape:connector-curvature="0"
       clip-path="url(#clipPath6)"
       id="path85"
       style="stroke:none"
       d="m 5.5156,-7.5312 0,3.2656 3.2656,0 0,1 -3.2656,0 0,3.2656 -0.9844,0 0,-3.2656 -3.2656,0 0,-1 3.2656,0 0,-3.2656 0.9844,0 z m 13.8067,4.1718 q 0,-1.1718 -0.4844,-1.8125 -0.4844,-0.6406 -1.3594,-0.6406 -0.8594,0 -1.3437,0.6406 -0.4844,0.6407 -0.4844,1.8125 0,1.1719 0.4844,1.8125 0.4843,0.6407 1.3437,0.6407 0.875,0 1.3594,-0.6407 0.4844,-0.6406 0.4844,-1.8125 z m 1.0781,2.5469 q 0,1.6719 -0.7422,2.4922 Q 18.916,2.5 17.3691,2.5 16.8066,2.5 16.2988,2.4141 15.791,2.3281 15.3223,2.1562 l 0,-1.0468 q 0.4687,0.25 0.9375,0.375 0.4687,0.125 0.9375,0.125 1.0625,0 1.5937,-0.5547 Q 19.3223,0.5 19.3223,-0.625 l 0,-0.5312 Q 18.9785,-0.5781 18.4629,-0.2891 17.9473,0 17.2129,0 q -1.2031,0 -1.9453,-0.9219 -0.7422,-0.9219 -0.7422,-2.4375 0,-1.5156 0.7422,-2.4375 0.7422,-0.9219 1.9453,-0.9219 0.7344,0 1.25,0.2891 0.5156,0.2891 0.8594,0.8672 l 0,-1 1.0781,0 0,5.75 z m 6.0234,-4.75 q -0.1875,-0.0937 -0.3984,-0.1484 -0.2109,-0.0547 -0.4766,-0.0547 -0.9062,0 -1.3984,0.5937 -0.4922,0.5938 -0.4922,1.7188 l 0,3.4531 -1.0781,0 0,-6.5625 1.0781,0 0,1.0156 q 0.3438,-0.5937 0.8906,-0.8828 0.5469,-0.2891 1.3282,-0.2891 0.1093,0 0.2421,0.0157 0.1329,0.0156 0.2891,0.0469 l 0.0156,1.0937 z m 4.1055,2.2656 q -1.2969,0 -1.8047,0.2969 -0.5078,0.2969 -0.5078,1.0156 0,0.5782 0.3828,0.9141 0.3828,0.3359 1.0234,0.3359 0.9063,0 1.4454,-0.6328 0.539,-0.6328 0.539,-1.6953 l 0,-0.2344 -1.0781,0 z m 2.1562,-0.4531 0,3.75 -1.0781,0 0,-1 q -0.375,0.5938 -0.9219,0.8828 -0.5468,0.2891 -1.3437,0.2891 -1.0156,0 -1.6094,-0.5703 -0.5937,-0.5704 -0.5937,-1.5078 0,-1.1094 0.7422,-1.6719 0.7421,-0.5625 2.2109,-0.5625 l 1.5156,0 0,-0.1094 q 0,-0.75 -0.4922,-1.1562 -0.4922,-0.4063 -1.3672,-0.4063 -0.5625,0 -1.1015,0.1406 -0.5391,0.1407 -1.0235,0.4063 l 0,-1 q 0.5938,-0.2344 1.1485,-0.3438 0.5547,-0.1094 1.0859,-0.1094 1.4219,0 2.125,0.7344 0.7031,0.7344 0.7031,2.2344 z m 3.2598,2.7656 0,3.4844 -1.0781,0 0,-9.0625 1.0781,0 0,1 q 0.3438,-0.5937 0.8594,-0.875 0.5156,-0.2813 1.2344,-0.2813 1.2031,0 1.9531,0.9454 0.75,0.9453 0.75,2.4922 0,1.5468 -0.75,2.5 -0.75,0.9531 -1.9531,0.9531 -0.7188,0 -1.2344,-0.2891 -0.5156,-0.289 -0.8594,-0.8672 z m 3.6719,-2.2968 q 0,-1.1876 -0.4922,-1.8594 -0.4922,-0.6719 -1.3359,-0.6719 -0.8594,0 -1.3516,0.6719 -0.4922,0.6718 -0.4922,1.8594 0,1.1874 0.4922,1.8671 0.4922,0.6797 1.3516,0.6797 0.8437,0 1.3359,-0.6797 0.4922,-0.6797 0.4922,-1.8671 z m 8.3672,-0.6876 0,3.9688 -1.0782,0 0,-3.9219 q 0,-0.9375 -0.3671,-1.3984 -0.3672,-0.4609 -1.086,-0.4609 -0.875,0 -1.3828,0.5546 -0.5078,0.5547 -0.5078,1.5235 l 0,3.7031 -1.0781,0 0,-9.125 1.0781,0 0,3.5781 q 0.3906,-0.5937 0.9141,-0.8828 0.5234,-0.2891 1.2109,-0.2891 1.125,0 1.7109,0.6954 0.586,0.6953 0.586,2.0546 z m 6.3242,-2.4062 0,1.0312 q -0.4531,-0.2343 -0.9453,-0.3515 -0.4922,-0.1172 -1.0235,-0.1172 -0.7968,0 -1.2031,0.2422 -0.4062,0.2422 -0.4062,0.7422 0,0.375 0.289,0.5859 0.2891,0.211 1.1641,0.3984 L 52.543,-3.75 q 1.1562,0.2344 1.6406,0.6875 0.4844,0.4531 0.4844,1.25 0,0.9219 -0.7266,1.4531 -0.7266,0.5313 -1.9922,0.5313 -0.5312,0 -1.1015,-0.1016 -0.5704,-0.1015 -1.1954,-0.3047 l 0,-1.125 q 0.5938,0.3125 1.1719,0.4688 0.5781,0.1562 1.1563,0.1562 0.75,0 1.164,-0.2578 0.4141,-0.2578 0.4141,-0.7422 0,-0.4375 -0.2969,-0.6718 -0.2969,-0.2344 -1.2969,-0.4532 l -0.375,-0.0781 q -1,-0.2187 -1.4453,-0.6563 -0.4453,-0.4374 -0.4453,-1.1874 0,-0.9376 0.6563,-1.4376 0.6562,-0.5 1.8593,-0.5 0.5938,0 1.125,0.086 0.5313,0.0859 0.9688,0.2578 z m 6.1602,4.8906 1.2343,0 0,1.4844 -1.2343,0 0,-1.4844 z m 0,-4.7187 1.2343,0 0,1.4843 -1.2343,0 0,-1.4843 z m 10.5605,-1.375 -1.6094,4.3437 3.2188,0 -1.6094,-4.3437 z m -0.6719,-1.1719 1.3438,0 3.3281,8.75 -1.2344,0 -0.7969,-2.25 -3.9375,0 -0.7968,2.25 -1.25,0 3.3437,-8.75 z m 9.709,3.1875 q -0.1875,-0.0937 -0.3984,-0.1484 -0.211,-0.0547 -0.4766,-0.0547 -0.9062,0 -1.3984,0.5937 -0.4922,0.5938 -0.4922,1.7188 l 0,3.4531 -1.0781,0 0,-6.5625 1.0781,0 0,1.0156 q 0.3437,-0.5937 0.8906,-0.8828 0.5469,-0.2891 1.3281,-0.2891 0.1094,0 0.2422,0.0157 0.1328,0.0156 0.2891,0.0469 l 0.0156,1.0937 z m 4.9336,0 q -0.1875,-0.0937 -0.3984,-0.1484 -0.211,-0.0547 -0.4766,-0.0547 -0.9062,0 -1.3984,0.5937 -0.4922,0.5938 -0.4922,1.7188 l 0,3.4531 -1.0782,0 0,-6.5625 1.0782,0 0,1.0156 q 0.3437,-0.5937 0.8906,-0.8828 0.5469,-0.2891 1.3281,-0.2891 0.1094,0 0.2422,0.0157 0.1328,0.0156 0.2891,0.0469 L 85,-5.5625 z m 4.1055,2.2656 q -1.2969,0 -1.8047,0.2969 -0.5078,0.2969 -0.5078,1.0156 0,0.5782 0.3828,0.9141 0.3828,0.3359 1.0234,0.3359 0.9063,0 1.4453,-0.6328 Q 90.1836,-2 90.1836,-3.0625 l 0,-0.2344 -1.0781,0 z m 2.1562,-0.4531 0,3.75 -1.0781,0 0,-1 q -0.375,0.5938 -0.9219,0.8828 -0.5469,0.2891 -1.3437,0.2891 -1.0157,0 -1.6094,-0.5703 -0.5938,-0.5704 -0.5938,-1.5078 0,-1.1094 0.7422,-1.6719 0.7422,-0.5625 2.211,-0.5625 l 1.5156,0 0,-0.1094 q 0,-0.75 -0.4922,-1.1562 -0.4922,-0.4063 -1.3672,-0.4063 -0.5625,0 -1.1015,0.1406 -0.5391,0.1407 -1.0235,0.4063 l 0,-1 q 0.5938,-0.2344 1.1485,-0.3438 0.5546,-0.1094 1.0859,-0.1094 1.4219,0 2.125,0.7344 0.7031,0.7344 0.7031,2.2344 z M 96.209,0.6094 Q 95.7559,1.7812 95.3184,2.1406 94.8809,2.5 94.1621,2.5 l -0.8594,0 0,-0.9062 0.625,0 q 0.4532,0 0.6953,-0.211 0.2422,-0.2109 0.5391,-0.9922 l 0.2031,-0.5 -2.6562,-6.4531 1.1406,0 2.0469,5.125 2.0625,-5.125 1.1406,0 -2.8906,7.1719 z m 12.5098,-6.1719 0,-3.5625 1.0781,0 0,9.125 -1.0781,0 0,-0.9844 q -0.3438,0.5782 -0.8594,0.8672 -0.5156,0.2891 -1.25,0.2891 -1.1875,0 -1.9375,-0.9531 -0.75,-0.9532 -0.75,-2.5 0,-1.5469 0.75,-2.4922 0.75,-0.9454 1.9375,-0.9454 0.7344,0 1.25,0.2813 0.5156,0.2813 0.8594,0.875 z m -3.6719,2.2813 q 0,1.1874 0.4843,1.8671 0.4844,0.6797 1.3438,0.6797 0.8594,0 1.3516,-0.6797 0.4922,-0.6797 0.4922,-1.8671 0,-1.1876 -0.4922,-1.8594 -0.4922,-0.6719 -1.3516,-0.6719 -0.8594,0 -1.3438,0.6719 -0.4843,0.6718 -0.4843,1.8594 z m 6.9609,-3.2813 1.0781,0 0,6.5625 -1.0781,0 0,-6.5625 z m 0,-2.5625 1.0781,0 0,1.375 -1.0781,0 0,-1.375 z m 9.6953,3.3125 q -0.8593,0 -1.3672,0.6797 -0.5078,0.6797 -0.5078,1.8516 0,1.1874 0.5,1.8593 0.5,0.6719 1.375,0.6719 0.8594,0 1.3672,-0.6797 0.5078,-0.6797 0.5078,-1.8515 0,-1.1563 -0.5078,-1.8438 -0.5078,-0.6875 -1.3672,-0.6875 z m 0,-0.9063 q 1.4063,0 2.211,0.9141 0.8047,0.9141 0.8047,2.5235 0,1.6093 -0.8047,2.5312 -0.8047,0.9219 -2.211,0.9219 -1.4062,0 -2.2109,-0.9219 -0.8047,-0.9219 -0.8047,-2.5312 0,-1.6094 0.8047,-2.5235 0.8047,-0.9141 2.2109,-0.9141 z m 9.1231,3.3594 q 0,-1.1718 -0.4844,-1.8125 -0.4844,-0.6406 -1.3594,-0.6406 -0.8594,0 -1.3437,0.6406 -0.4844,0.6407 -0.4844,1.8125 0,1.1719 0.4844,1.8125 0.4843,0.6407 1.3437,0.6407 0.875,0 1.3594,-0.6407 0.4844,-0.6406 0.4844,-1.8125 z m 1.0781,2.5469 q 0,1.6719 -0.7422,2.4922 Q 130.4199,2.5 128.873,2.5 q -0.5625,0 -1.0703,-0.0859 -0.5078,-0.086 -0.9765,-0.2579 l 0,-1.0468 q 0.4687,0.25 0.9375,0.375 0.4687,0.125 0.9375,0.125 1.0625,0 1.5937,-0.5547 0.5313,-0.5547 0.5313,-1.6797 l 0,-0.5312 q -0.3438,0.5781 -0.8594,0.8671 Q 129.4512,0 128.7168,0 q -1.2031,0 -1.9453,-0.9219 -0.7422,-0.9219 -0.7422,-2.4375 0,-1.5156 0.7422,-2.4375 0.7422,-0.9219 1.9453,-0.9219 0.7344,0 1.25,0.2891 0.5156,0.2891 0.8594,0.8672 l 0,-1 1.0781,0 0,5.75 z m 6.5391,-2.5469 q 0,-1.1718 -0.4844,-1.8125 -0.4844,-0.6406 -1.3594,-0.6406 -0.8594,0 -1.3437,0.6406 -0.4844,0.6407 -0.4844,1.8125 0,1.1719 0.4844,1.8125 0.4843,0.6407 1.3437,0.6407 0.875,0 1.3594,-0.6407 0.4844,-0.6406 0.4844,-1.8125 z m 1.0781,2.5469 q 0,1.6719 -0.7422,2.4922 -0.7422,0.8203 -2.2891,0.8203 -0.5625,0 -1.0703,-0.0859 -0.5078,-0.086 -0.9765,-0.2579 l 0,-1.0468 q 0.4687,0.25 0.9375,0.375 0.4687,0.125 0.9375,0.125 1.0625,0 1.5937,-0.5547 0.5313,-0.5547 0.5313,-1.6797 l 0,-0.5312 q -0.3438,0.5781 -0.8594,0.8671 Q 137.0684,0 136.334,0 q -1.2031,0 -1.9453,-0.9219 -0.7422,-0.9219 -0.7422,-2.4375 0,-1.5156 0.7422,-2.4375 0.7422,-0.9219 1.9453,-0.9219 0.7344,0 1.25,0.2891 0.5156,0.2891 0.8594,0.8672 l 0,-1 1.0781,0 0,5.75 z m 7.8359,-2.7344 0,0.5157 -4.9687,0 q 0.0781,1.125 0.6797,1.7031 0.6015,0.5781 1.664,0.5781 0.625,0 1.211,-0.1484 0.5859,-0.1485 1.164,-0.461 l 0,1.0313 q -0.5937,0.2343 -1.2031,0.3672 -0.6094,0.1328 -1.2344,0.1328 -1.5625,0 -2.4844,-0.9141 -0.9218,-0.914 -0.9218,-2.4766 0,-1.6093 0.875,-2.5546 0.875,-0.9454 2.3437,-0.9454 1.3281,0 2.1016,0.8516 0.7734,0.8516 0.7734,2.3203 z m -1.0781,-0.3281 q -0.0156,-0.875 -0.5,-1.4062 -0.4844,-0.5313 -1.2813,-0.5313 -0.9062,0 -1.4453,0.5156 -0.539,0.5157 -0.6172,1.4375 l 3.8438,-0.0156 z m 3.9141,-4.5469 0,1.8594 2.2187,0 0,0.8437 -2.2187,0 0,3.5626 q 0,0.7968 0.2187,1.0234 0.2188,0.2266 0.8906,0.2266 l 1.1094,0 0,0.9062 -1.1094,0 q -1.25,0 -1.7265,-0.4688 -0.4766,-0.4687 -0.4766,-1.6874 l 0,-3.5626 -0.7812,0 0,-0.8437 0.7812,0 0,-1.8594 1.0938,0 z m 4.705,0 0,1.8594 2.2188,0 0,0.8437 -2.2188,0 0,3.5626 q 0,0.7968 0.2188,1.0234 0.2187,0.2266 0.8906,0.2266 l 1.1094,0 0,0.9062 -1.1094,0 q -1.25,0 -1.7266,-0.4688 -0.4765,-0.4687 -0.4765,-1.6874 l 0,-3.5626 -0.7813,0 0,-0.8437 0.7813,0 0,-1.8594 1.0937,0 z m 3.627,1.8594 1.0781,0 0,6.5625 -1.0781,0 0,-6.5625 z m 0,-2.5625 1.0781,0 0,1.375 -1.0781,0 0,-1.375 z m 7.1953,0.375 1.1875,0 0,8.1406 q 0,1.5782 -0.6016,2.2969 -0.6015,0.7187 -1.9296,0.7187 l -0.4532,0 0,-1 0.375,0 q 0.7813,0 1.1016,-0.4374 0.3203,-0.4376 0.3203,-1.5782 l 0,-8.1406 z m 8.7891,0.2812 0,1.1563 q -0.6719,-0.3125 -1.2735,-0.4766 -0.6015,-0.164 -1.1484,-0.164 -0.9688,0 -1.4922,0.375 -0.5234,0.375 -0.5234,1.0781 0,0.5781 0.3437,0.875 0.3438,0.2969 1.3281,0.4688 L 172.4473,-5 q 1.3281,0.25 1.9609,0.8828 0.6328,0.6328 0.6328,1.6953 0,1.2813 -0.8515,1.9375 -0.8516,0.6563 -2.5079,0.6563 -0.6093,0 -1.3125,-0.1407 -0.7031,-0.1406 -1.4531,-0.4218 l 0,-1.2188 q 0.7188,0.4063 1.4141,0.6094 0.6953,0.2031 1.3515,0.2031 1.0157,0 1.5704,-0.3984 0.5546,-0.3985 0.5546,-1.1328 0,-0.6407 -0.3984,-1.0078 -0.3984,-0.3672 -1.3047,-0.5391 l -0.7187,-0.1406 q -1.3282,-0.2656 -1.9141,-0.8282 -0.5859,-0.5624 -0.5859,-1.5624 0,-1.1719 0.8125,-1.836 0.8125,-0.664 2.25,-0.664 0.625,0 1.2578,0.1093 0.6328,0.1094 1.3047,0.3281 z m 5.9297,0.5157 q -1.2969,0 -2.0547,0.9609 -0.7578,0.961 -0.7578,2.6328 0,1.6406 0.7578,2.6016 0.7578,0.9609 2.0547,0.9609 1.2812,0 2.039,-0.9609 0.7578,-0.961 0.7578,-2.6016 0,-1.6718 -0.7578,-2.6328 -0.7578,-0.9609 -2.039,-0.9609 z m 0,-0.9531 q 1.8281,0 2.9296,1.2343 1.1016,1.2344 1.1016,3.3125 0,2.0625 -1.1016,3.2969 -1.1015,1.2344 -2.9296,1.2344 -1.8438,0 -2.9532,-1.2344 -1.1093,-1.2344 -1.1093,-3.2969 0,-2.0781 1.1093,-3.3125 1.1094,-1.2343 2.9532,-1.2343 z m 5.8828,0.1562 1.5937,0 3.8906,7.3125 0,-7.3125 1.1407,0 0,8.75 -1.5938,0 -3.875,-7.3125 0,7.3125 -1.1562,0 0,-8.75 z" />
  </g>
  <g
     id="g87"
     transform="matrix(1.3333,0,0,1.3333,302.6591,353.11624)"
     style="stroke-width:2;font-family:sans-serif">
    <path
       inkscape:connector-curvature="0"
       clip-path="url(#clipPath7)"
       id="path89"
       style="stroke:none"
       d="m 5.5156,-7.5312 0,3.2656 3.2656,0 0,1 -3.2656,0 0,3.2656 -0.9844,0 0,-3.2656 -3.2656,0 0,-1 3.2656,0 0,-3.2656 0.9844,0 z m 10.5567,-0.8907 0,1.8594 2.2187,0 0,0.8437 -2.2187,0 0,3.5626 q 0,0.7968 0.2187,1.0234 0.2188,0.2266 0.8906,0.2266 l 1.1094,0 0,0.9062 -1.1094,0 q -1.25,0 -1.7265,-0.4688 -0.4766,-0.4687 -0.4766,-1.6874 l 0,-3.5626 -0.7812,0 0,-0.8437 0.7812,0 0,-1.8594 1.0938,0 z m 6.3613,9.0313 Q 21.9805,1.7812 21.543,2.1406 21.1055,2.5 20.3867,2.5 l -0.8594,0 0,-0.9062 0.625,0 q 0.4532,0 0.6954,-0.211 0.2421,-0.2109 0.539,-0.9922 l 0.2031,-0.5 -2.6562,-6.4531 1.1406,0 2.0469,5.125 2.0625,-5.125 1.1406,0 -2.8906,7.1719 z m 5.4141,-1.5938 0,3.4844 -1.0782,0 0,-9.0625 1.0782,0 0,1 q 0.3437,-0.5937 0.8593,-0.875 0.5157,-0.2813 1.2344,-0.2813 1.2031,0 1.9531,0.9454 0.75,0.9453 0.75,2.4922 0,1.5468 -0.75,2.5 -0.75,0.9531 -1.9531,0.9531 -0.7187,0 -1.2344,-0.2891 -0.5156,-0.289 -0.8593,-0.8672 z m 3.6718,-2.2968 q 0,-1.1876 -0.4922,-1.8594 -0.4921,-0.6719 -1.3359,-0.6719 -0.8594,0 -1.3516,0.6719 -0.4921,0.6718 -0.4921,1.8594 0,1.1874 0.4921,1.8671 0.4922,0.6797 1.3516,0.6797 0.8438,0 1.3359,-0.6797 0.4922,-0.6797 0.4922,-1.8671 z m 8.5235,-0.2657 0,0.5157 -4.9688,0 q 0.0781,1.125 0.6797,1.7031 0.6016,0.5781 1.6641,0.5781 0.625,0 1.2109,-0.1484 0.5859,-0.1485 1.1641,-0.461 l 0,1.0313 q -0.5938,0.2343 -1.2032,0.3672 -0.6093,0.1328 -1.2343,0.1328 -1.5625,0 -2.4844,-0.9141 -0.9219,-0.914 -0.9219,-2.4766 0,-1.6093 0.875,-2.5546 0.875,-0.9454 2.3438,-0.9454 1.3281,0 2.1015,0.8516 0.7735,0.8516 0.7735,2.3203 z M 38.9648,-3.875 q -0.0156,-0.875 -0.5,-1.4062 -0.4843,-0.5313 -1.2812,-0.5313 -0.9063,0 -1.4453,0.5156 -0.5391,0.5157 -0.6172,1.4375 l 3.8437,-0.0156 z m 6.9317,2.3906 1.2344,0 0,1.4844 -1.2344,0 0,-1.4844 z m 0,-4.7187 1.2344,0 0,1.4843 -1.2344,0 0,-1.4843 z m 12.873,-2.2657 0,1.1563 q -0.6718,-0.3125 -1.2734,-0.4766 -0.6016,-0.164 -1.1484,-0.164 -0.9688,0 -1.4922,0.375 -0.5235,0.375 -0.5235,1.0781 0,0.5781 0.3438,0.875 0.3437,0.2969 1.3281,0.4688 L 56.707,-5 q 1.3282,0.25 1.961,0.8828 0.6328,0.6328 0.6328,1.6953 0,1.2813 -0.8516,1.9375 -0.8515,0.6563 -2.5078,0.6563 -0.6094,0 -1.3125,-0.1407 -0.7031,-0.1406 -1.4531,-0.4218 l 0,-1.2188 q 0.7187,0.4063 1.414,0.6094 0.6954,0.2031 1.3516,0.2031 1.0156,0 1.5703,-0.3984 0.5547,-0.3985 0.5547,-1.1328 0,-0.6407 -0.3984,-1.0078 -0.3985,-0.3672 -1.3047,-0.5391 l -0.7188,-0.1406 q -1.3281,-0.2656 -1.914,-0.8282 -0.586,-0.5624 -0.586,-1.5624 0,-1.1719 0.8125,-1.836 0.8125,-0.664 2.25,-0.664 0.625,0 1.2578,0.1093 0.6329,0.1094 1.3047,0.3281 z m 3.3985,0.0469 0,1.8594 2.2187,0 0,0.8437 -2.2187,0 0,3.5626 q 0,0.7968 0.2187,1.0234 0.2188,0.2266 0.8906,0.2266 l 1.1094,0 0,0.9062 -1.1094,0 q -1.25,0 -1.7265,-0.4688 -0.4766,-0.4687 -0.4766,-1.6874 l 0,-3.5626 -0.7812,0 0,-0.8437 0.7812,0 0,-1.8594 1.0938,0 z m 7.4394,2.8594 q -0.1875,-0.0937 -0.3984,-0.1484 -0.211,-0.0547 -0.4766,-0.0547 -0.9062,0 -1.3984,0.5937 -0.4922,0.5938 -0.4922,1.7188 l 0,3.4531 -1.0781,0 0,-6.5625 1.0781,0 0,1.0156 q 0.3437,-0.5937 0.8906,-0.8828 0.5469,-0.2891 1.3281,-0.2891 0.1094,0 0.2422,0.0157 0.1328,0.0156 0.2891,0.0469 l 0.0156,1.0937 z m 1.1211,-1 1.0781,0 0,6.5625 -1.0781,0 0,-6.5625 z m 0,-2.5625 1.0781,0 0,1.375 -1.0781,0 0,-1.375 z m 8.8027,5.1562 0,3.9688 -1.0781,0 0,-3.9219 q 0,-0.9375 -0.3672,-1.3984 Q 77.7188,-5.7812 77,-5.7812 q -0.875,0 -1.3828,0.5546 -0.5078,0.5547 -0.5078,1.5235 l 0,3.7031 -1.0782,0 0,-6.5625 1.0782,0 0,1.0156 q 0.3906,-0.5937 0.914,-0.8828 0.5235,-0.2891 1.211,-0.2891 1.125,0 1.7109,0.6954 0.5859,0.6953 0.5859,2.0546 z m 6.4649,0.6094 q 0,-1.1718 -0.4844,-1.8125 -0.4844,-0.6406 -1.3594,-0.6406 -0.8593,0 -1.3437,0.6406 -0.4844,0.6407 -0.4844,1.8125 0,1.1719 0.4844,1.8125 0.4844,0.6407 1.3437,0.6407 0.875,0 1.3594,-0.6407 0.4844,-0.6406 0.4844,-1.8125 z m 1.0781,2.5469 q 0,1.6719 -0.7422,2.4922 Q 85.5898,2.5 84.043,2.5 83.4805,2.5 82.9727,2.4141 82.4648,2.3281 81.9961,2.1562 l 0,-1.0468 q 0.4687,0.25 0.9375,0.375 0.4687,0.125 0.9375,0.125 1.0625,0 1.5937,-0.5547 Q 85.9961,0.5 85.9961,-0.625 l 0,-0.5312 Q 85.6523,-0.5781 85.1367,-0.2891 84.6211,0 83.8867,0 q -1.2031,0 -1.9453,-0.9219 -0.7422,-0.9219 -0.7422,-2.4375 0,-1.5156 0.7422,-2.4375 0.7422,-0.9219 1.9453,-0.9219 0.7344,0 1.25,0.2891 0.5156,0.2891 0.8594,0.8672 l 0,-1 1.0781,0 0,5.75 z" />
  </g>
  <g
     id="g91"
     transform="matrix(1.3333,0,0,1.3333,302.6591,334.49164)"
     style="stroke-width:2;font-family:sans-serif">
    <path
       inkscape:connector-curvature="0"
       clip-path="url(#clipPath8)"
       id="path93"
       style="stroke:none"
       d="m 5.5156,-7.5312 0,3.2656 3.2656,0 0,1 -3.2656,0 0,3.2656 -0.9844,0 0,-3.2656 -3.2656,0 0,-1 3.2656,0 0,-3.2656 0.9844,0 z m 14.2129,1.2187 0,1.0156 q -0.4687,-0.2656 -0.9219,-0.3906 -0.4531,-0.125 -0.9218,-0.125 -1.0625,0 -1.6407,0.6641 -0.5781,0.664 -0.5781,1.8672 0,1.2031 0.5781,1.8671 0.5782,0.6641 1.6407,0.6641 0.4687,0 0.9218,-0.125 Q 19.2598,-1 19.7285,-1.25 l 0,1 q -0.4531,0.2031 -0.9375,0.3125 -0.4844,0.1094 -1.0312,0.1094 -1.4844,0 -2.3594,-0.9297 -0.875,-0.9297 -0.875,-2.5234 0,-1.5938 0.8828,-2.5157 0.8828,-0.9219 2.4297,-0.9219 0.4844,0 0.9609,0.1016 0.4766,0.1016 0.9297,0.3047 z m 4.8477,3.0156 q -1.2969,0 -1.8047,0.2969 -0.5078,0.2969 -0.5078,1.0156 0,0.5782 0.3828,0.9141 0.3828,0.3359 1.0234,0.3359 0.9063,0 1.4453,-0.6328 Q 25.6543,-2 25.6543,-3.0625 l 0,-0.2344 -1.0781,0 z m 2.1562,-0.4531 0,3.75 -1.0781,0 0,-1 q -0.375,0.5938 -0.9219,0.8828 -0.5469,0.2891 -1.3437,0.2891 -1.0157,0 -1.6094,-0.5703 -0.5938,-0.5704 -0.5938,-1.5078 0,-1.1094 0.7422,-1.6719 0.7422,-0.5625 2.211,-0.5625 l 1.5156,0 0,-0.1094 q 0,-0.75 -0.4922,-1.1562 -0.4922,-0.4063 -1.3672,-0.4063 -0.5625,0 -1.1015,0.1406 -0.5391,0.1407 -1.0235,0.4063 l 0,-1 q 0.5938,-0.2344 1.1485,-0.3438 0.5546,-0.1094 1.0859,-0.1094 1.4219,0 2.125,0.7344 0.7031,0.7344 0.7031,2.2344 z m 3.291,-4.6719 0,1.8594 2.2188,0 0,0.8437 -2.2188,0 0,3.5626 q 0,0.7968 0.2188,1.0234 0.2187,0.2266 0.8906,0.2266 l 1.1094,0 0,0.9062 -1.1094,0 q -1.25,0 -1.7266,-0.4688 -0.4765,-0.4687 -0.4765,-1.6874 l 0,-3.5626 -0.7813,0 0,-0.8437 0.7813,0 0,-1.8594 1.0937,0 z m 7.7227,6.9375 1.2344,0 0,1.4844 -1.2344,0 0,-1.4844 z m 0,-4.7187 1.2344,0 0,1.4843 -1.2344,0 0,-1.4843 z m 12.873,-2.2657 0,1.1563 q -0.6718,-0.3125 -1.2734,-0.4766 -0.6016,-0.164 -1.1484,-0.164 -0.9688,0 -1.4922,0.375 -0.5235,0.375 -0.5235,1.0781 0,0.5781 0.3438,0.875 0.3437,0.2969 1.3281,0.4688 L 48.5566,-5 q 1.3282,0.25 1.961,0.8828 0.6328,0.6328 0.6328,1.6953 0,1.2813 -0.8516,1.9375 -0.8515,0.6563 -2.5078,0.6563 -0.6094,0 -1.3125,-0.1407 -0.7031,-0.1406 -1.4531,-0.4218 l 0,-1.2188 q 0.7187,0.4063 1.4141,0.6094 0.6953,0.2031 1.3515,0.2031 1.0156,0 1.5703,-0.3984 0.5547,-0.3985 0.5547,-1.1328 0,-0.6407 -0.3984,-1.0078 -0.3985,-0.3672 -1.3047,-0.5391 l -0.7188,-0.1406 q -1.3281,-0.2656 -1.914,-0.8282 -0.586,-0.5624 -0.586,-1.5624 0,-1.1719 0.8125,-1.836 0.8125,-0.664 2.25,-0.664 0.625,0 1.2579,0.1093 0.6328,0.1094 1.3046,0.3281 z m 3.3985,0.0469 0,1.8594 2.2187,0 0,0.8437 -2.2187,0 0,3.5626 q 0,0.7968 0.2187,1.0234 0.2188,0.2266 0.8907,0.2266 l 1.1093,0 0,0.9062 -1.1093,0 q -1.25,0 -1.7266,-0.4688 -0.4766,-0.4687 -0.4766,-1.6874 l 0,-3.5626 -0.7812,0 0,-0.8437 0.7812,0 0,-1.8594 1.0938,0 z m 7.4394,2.8594 q -0.1875,-0.0937 -0.3984,-0.1484 -0.2109,-0.0547 -0.4766,-0.0547 -0.9062,0 -1.3984,0.5937 -0.4922,0.5938 -0.4922,1.7188 l 0,3.4531 -1.0781,0 0,-6.5625 1.0781,0 0,1.0156 q 0.3438,-0.5937 0.8906,-0.8828 0.5469,-0.2891 1.3282,-0.2891 0.1093,0 0.2421,0.0157 0.1329,0.0156 0.2891,0.0469 l 0.0156,1.0937 z m 1.1211,-1 1.0781,0 0,6.5625 -1.0781,0 0,-6.5625 z m 0,-2.5625 1.0781,0 0,1.375 -1.0781,0 0,-1.375 z m 8.8028,5.1562 0,3.9688 -1.0782,0 0,-3.9219 q 0,-0.9375 -0.3672,-1.3984 -0.3671,-0.4609 -1.0859,-0.4609 -0.875,0 -1.3828,0.5546 -0.5078,0.5547 -0.5078,1.5235 l 0,3.7031 -1.0781,0 0,-6.5625 1.0781,0 0,1.0156 q 0.3906,-0.5937 0.914,-0.8828 0.5235,-0.2891 1.211,-0.2891 1.125,0 1.7109,0.6954 0.586,0.6953 0.586,2.0546 z m 6.4648,0.6094 q 0,-1.1718 -0.4844,-1.8125 -0.4843,-0.6406 -1.3593,-0.6406 -0.8594,0 -1.3438,0.6406 -0.4844,0.6407 -0.4844,1.8125 0,1.1719 0.4844,1.8125 0.4844,0.6407 1.3438,0.6407 0.875,0 1.3593,-0.6407 0.4844,-0.6406 0.4844,-1.8125 z m 1.0781,2.5469 q 0,1.6719 -0.7422,2.4922 Q 77.4395,2.5 75.8926,2.5 75.3301,2.5 74.8223,2.4141 74.3145,2.3281 73.8457,2.1562 l 0,-1.0468 q 0.4688,0.25 0.9375,0.375 0.4688,0.125 0.9375,0.125 1.0625,0 1.5938,-0.5547 Q 77.8457,0.5 77.8457,-0.625 l 0,-0.5312 Q 77.502,-0.5781 76.9863,-0.2891 76.4707,0 75.7363,0 74.5332,0 73.791,-0.9219 q -0.7422,-0.9219 -0.7422,-2.4375 0,-1.5156 0.7422,-2.4375 0.7422,-0.9219 1.9453,-0.9219 0.7344,0 1.25,0.2891 0.5157,0.2891 0.8594,0.8672 l 0,-1 1.0781,0 0,5.75 z" />
  </g>
  <g
     id="g95"
     transform="matrix(1.3333,0,0,1.3333,302.6591,315.86704)"
     style="stroke-width:2;font-family:sans-serif">
    <path
       inkscape:connector-curvature="0"
       clip-path="url(#clipPath9)"
       id="path97"
       style="stroke:none"
       d="m 5.5156,-7.5312 0,3.2656 3.2656,0 0,1 -3.2656,0 0,3.2656 -0.9844,0 0,-3.2656 -3.2656,0 0,-1 3.2656,0 0,-3.2656 0.9844,0 z m 14.5879,2.2343 q 0.4063,-0.7343 0.9688,-1.0781 0.5625,-0.3438 1.3281,-0.3438 1.0312,0 1.5859,0.7188 0.5547,0.7188 0.5547,2.0312 l 0,3.9688 -1.0781,0 0,-3.9219 q 0,-0.9531 -0.3359,-1.4062 -0.336,-0.4531 -1.0235,-0.4531 -0.8437,0 -1.3281,0.5546 -0.4844,0.5547 -0.4844,1.5235 l 0,3.7031 -1.0781,0 0,-3.9219 q 0,-0.9531 -0.3359,-1.4062 -0.336,-0.4531 -1.0391,-0.4531 -0.8281,0 -1.3125,0.5546 -0.4844,0.5547 -0.4844,1.5235 l 0,3.7031 -1.0781,0 0,-6.5625 1.0781,0 0,1.0156 q 0.375,-0.5937 0.8906,-0.8828 0.5157,-0.2891 1.2188,-0.2891 0.7187,0 1.2187,0.3594 0.5,0.3594 0.7344,1.0625 z m 12.2051,1.75 0,0.5157 -4.9688,0 q 0.0782,1.125 0.6797,1.7031 0.6016,0.5781 1.6641,0.5781 0.625,0 1.2109,-0.1484 0.586,-0.1485 1.1641,-0.461 l 0,1.0313 q -0.5938,0.2343 -1.2031,0.3672 -0.6094,0.1328 -1.2344,0.1328 -1.5625,0 -2.4844,-0.9141 -0.9219,-0.914 -0.9219,-2.4766 0,-1.6093 0.875,-2.5546 0.875,-0.9454 2.3438,-0.9454 1.3281,0 2.1016,0.8516 0.7734,0.8516 0.7734,2.3203 z M 31.2305,-3.875 q -0.0157,-0.875 -0.5,-1.4062 -0.4844,-0.5313 -1.2813,-0.5313 -0.9062,0 -1.4453,0.5156 -0.5391,0.5157 -0.6172,1.4375 l 3.8438,-0.0156 z m 3.914,-4.5469 0,1.8594 2.2188,0 0,0.8437 -2.2188,0 0,3.5626 q 0,0.7968 0.2188,1.0234 0.2187,0.2266 0.8906,0.2266 l 1.1094,0 0,0.9062 -1.1094,0 q -1.25,0 -1.7266,-0.4688 -0.4765,-0.4687 -0.4765,-1.6874 l 0,-3.5626 -0.7813,0 0,-0.8437 0.7813,0 0,-1.8594 1.0937,0 z m 7.4395,2.8594 q -0.1875,-0.0937 -0.3985,-0.1484 -0.2109,-0.0547 -0.4765,-0.0547 -0.9063,0 -1.3985,0.5937 -0.4921,0.5938 -0.4921,1.7188 l 0,3.4531 -1.0782,0 0,-6.5625 1.0782,0 0,1.0156 q 0.3437,-0.5937 0.8906,-0.8828 0.5469,-0.2891 1.3281,-0.2891 0.1094,0 0.2422,0.0157 0.1328,0.0156 0.2891,0.0469 l 0.0156,1.0937 z m 1.1211,-1 1.0781,0 0,6.5625 -1.0781,0 0,-6.5625 z m 0,-2.5625 1.0781,0 0,1.375 -1.0781,0 0,-1.375 z m 8.0683,2.8125 0,1.0156 q -0.4687,-0.2656 -0.9218,-0.3906 -0.4532,-0.125 -0.9219,-0.125 -1.0625,0 -1.6406,0.6641 -0.5782,0.664 -0.5782,1.8672 0,1.2031 0.5782,1.8671 0.5781,0.6641 1.6406,0.6641 0.4687,0 0.9219,-0.125 Q 51.3047,-1 51.7734,-1.25 l 0,1 q -0.4531,0.2031 -0.9375,0.3125 -0.4843,0.1094 -1.0312,0.1094 -1.4844,0 -2.3594,-0.9297 -0.875,-0.9297 -0.875,-2.5234 0,-1.5938 0.8828,-2.5157 0.8828,-0.9219 2.4297,-0.9219 0.4844,0 0.961,0.1016 0.4765,0.1016 0.9296,0.3047 z m 5.6133,1.5937 q 0.8438,0.1876 1.3203,0.7579 0.4766,0.5703 0.4766,1.414 0,1.2969 -0.8906,2.0078 -0.8907,0.711 -2.5313,0.711 -0.5469,0 -1.1328,-0.1094 -0.5859,-0.1094 -1.1953,-0.3281 l 0,-1.1406 q 0.4844,0.2812 1.0703,0.4296 0.5859,0.1485 1.2266,0.1485 1.1093,0 1.6953,-0.4375 0.5859,-0.4375 0.5859,-1.2813 0,-0.7656 -0.5469,-1.2031 -0.5468,-0.4375 -1.5,-0.4375 l -1.0312,0 0,-0.9687 1.0781,0 q 0.8594,0 1.3281,-0.3516 0.4688,-0.3516 0.4688,-1.0078 0,-0.6719 -0.4766,-1.0313 -0.4765,-0.3593 -1.3672,-0.3593 -0.5,0 -1.0546,0.1015 -0.5547,0.1016 -1.2266,0.3203 l 0,-1.0468 q 0.6875,-0.1876 1.2734,-0.2813 0.586,-0.0937 1.1016,-0.0937 1.3594,0 2.1406,0.6093 0.7813,0.6094 0.7813,1.6563 0,0.7344 -0.4141,1.2344 -0.4141,0.5 -1.1797,0.6874 z m 7.9805,3.2344 1.2344,0 0,1.4844 -1.2344,0 0,-1.4844 z m 0,-4.7187 1.2344,0 0,1.4843 -1.2344,0 0,-1.4843 z m 12.873,-2.2657 0,1.1563 q -0.6718,-0.3125 -1.2734,-0.4766 -0.6016,-0.164 -1.1484,-0.164 -0.9688,0 -1.4922,0.375 -0.5235,0.375 -0.5235,1.0781 0,0.5781 0.3438,0.875 0.3437,0.2969 1.3281,0.4688 L 76.1777,-5 q 1.3282,0.25 1.961,0.8828 0.6328,0.6328 0.6328,1.6953 0,1.2813 -0.8516,1.9375 -0.8515,0.6563 -2.5078,0.6563 -0.6094,0 -1.3125,-0.1407 -0.7031,-0.1406 -1.4531,-0.4218 l 0,-1.2188 q 0.7187,0.4063 1.414,0.6094 0.6954,0.2031 1.3516,0.2031 1.0156,0 1.5703,-0.3984 0.5547,-0.3985 0.5547,-1.1328 0,-0.6407 -0.3984,-1.0078 -0.3985,-0.3672 -1.3047,-0.5391 l -0.7188,-0.1406 q -1.3281,-0.2656 -1.914,-0.8282 -0.586,-0.5624 -0.586,-1.5624 0,-1.1719 0.8125,-1.836 0.8125,-0.664 2.25,-0.664 0.625,0 1.2578,0.1093 0.6329,0.1094 1.3047,0.3281 z m 3.3985,0.0469 0,1.8594 2.2187,0 0,0.8437 -2.2187,0 0,3.5626 q 0,0.7968 0.2187,1.0234 0.2188,0.2266 0.8906,0.2266 l 1.1094,0 0,0.9062 -1.1094,0 q -1.25,0 -1.7265,-0.4688 -0.4766,-0.4687 -0.4766,-1.6874 l 0,-3.5626 -0.7812,0 0,-0.8437 0.7812,0 0,-1.8594 1.0938,0 z m 7.4394,2.8594 q -0.1875,-0.0937 -0.3984,-0.1484 -0.2109,-0.0547 -0.4766,-0.0547 -0.9062,0 -1.3984,0.5937 -0.4922,0.5938 -0.4922,1.7188 l 0,3.4531 -1.0781,0 0,-6.5625 1.0781,0 0,1.0156 q 0.3437,-0.5937 0.8906,-0.8828 0.5469,-0.2891 1.3281,-0.2891 0.1094,0 0.2422,0.0157 0.1328,0.0156 0.2891,0.0469 l 0.0156,1.0937 z m 1.1211,-1 1.0781,0 0,6.5625 -1.0781,0 0,-6.5625 z m 0,-2.5625 1.0781,0 0,1.375 -1.0781,0 0,-1.375 z m 8.8028,5.1562 0,3.9688 -1.0782,0 0,-3.9219 q 0,-0.9375 -0.3672,-1.3984 -0.3671,-0.4609 -1.0859,-0.4609 -0.875,0 -1.3828,0.5546 -0.5078,0.5547 -0.5078,1.5235 l 0,3.7031 -1.0781,0 0,-6.5625 1.0781,0 0,1.0156 q 0.3906,-0.5937 0.914,-0.8828 0.5235,-0.2891 1.211,-0.2891 1.125,0 1.7109,0.6954 0.586,0.6953 0.586,2.0546 z m 6.4648,0.6094 q 0,-1.1718 -0.4844,-1.8125 -0.4844,-0.6406 -1.3594,-0.6406 -0.8593,0 -1.3437,0.6406 -0.4844,0.6407 -0.4844,1.8125 0,1.1719 0.4844,1.8125 0.4844,0.6407 1.3437,0.6407 0.875,0 1.3594,-0.6407 0.4844,-0.6406 0.4844,-1.8125 z m 1.0781,2.5469 q 0,1.6719 -0.7422,2.4922 -0.7422,0.8203 -2.289,0.8203 -0.5625,0 -1.0703,-0.0859 -0.5079,-0.086 -0.9766,-0.2579 l 0,-1.0468 q 0.4687,0.25 0.9375,0.375 0.4687,0.125 0.9375,0.125 1.0625,0 1.5937,-0.5547 0.5313,-0.5547 0.5313,-1.6797 l 0,-0.5312 q -0.3438,0.5781 -0.8594,0.8671 Q 104.0918,0 103.3574,0 q -1.2031,0 -1.9453,-0.9219 -0.7422,-0.9219 -0.7422,-2.4375 0,-1.5156 0.7422,-2.4375 0.7422,-0.9219 1.9453,-0.9219 0.7344,0 1.25,0.2891 0.5156,0.2891 0.8594,0.8672 l 0,-1 1.0781,0 0,5.75 z" />
  </g>
  <g
     id="g99"
     transform="matrix(1.3333,0,0,1.3333,302.6591,297.24257)"
     style="stroke-width:2;font-family:sans-serif">
    <path
       inkscape:connector-curvature="0"
       clip-path="url(#clipPath10)"
       id="path101"
       style="stroke:none"
       d="m 5.5156,-7.5312 0,3.2656 3.2656,0 0,1 -3.2656,0 0,3.2656 -0.9844,0 0,-3.2656 -3.2656,0 0,-1 3.2656,0 0,-3.2656 0.9844,0 z m 14.5879,2.2343 q 0.4063,-0.7343 0.9688,-1.0781 0.5625,-0.3438 1.3281,-0.3438 1.0312,0 1.5859,0.7188 0.5547,0.7188 0.5547,2.0312 l 0,3.9688 -1.0781,0 0,-3.9219 q 0,-0.9531 -0.3359,-1.4062 -0.336,-0.4531 -1.0235,-0.4531 -0.8437,0 -1.3281,0.5546 -0.4844,0.5547 -0.4844,1.5235 l 0,3.7031 -1.0781,0 0,-3.9219 q 0,-0.9531 -0.3359,-1.4062 -0.336,-0.4531 -1.0391,-0.4531 -0.8281,0 -1.3125,0.5546 -0.4844,0.5547 -0.4844,1.5235 l 0,3.7031 -1.0781,0 0,-6.5625 1.0781,0 0,1.0156 q 0.375,-0.5937 0.8906,-0.8828 0.5157,-0.2891 1.2188,-0.2891 0.7187,0 1.2187,0.3594 0.5,0.3594 0.7344,1.0625 z m 12.2051,1.75 0,0.5157 -4.9688,0 q 0.0782,1.125 0.6797,1.7031 0.6016,0.5781 1.6641,0.5781 0.625,0 1.2109,-0.1484 0.586,-0.1485 1.1641,-0.461 l 0,1.0313 q -0.5938,0.2343 -1.2031,0.3672 -0.6094,0.1328 -1.2344,0.1328 -1.5625,0 -2.4844,-0.9141 -0.9219,-0.914 -0.9219,-2.4766 0,-1.6093 0.875,-2.5546 0.875,-0.9454 2.3438,-0.9454 1.3281,0 2.1016,0.8516 0.7734,0.8516 0.7734,2.3203 z M 31.2305,-3.875 q -0.0157,-0.875 -0.5,-1.4062 -0.4844,-0.5313 -1.2813,-0.5313 -0.9062,0 -1.4453,0.5156 -0.5391,0.5157 -0.6172,1.4375 l 3.8438,-0.0156 z m 3.914,-4.5469 0,1.8594 2.2188,0 0,0.8437 -2.2188,0 0,3.5626 q 0,0.7968 0.2188,1.0234 0.2187,0.2266 0.8906,0.2266 l 1.1094,0 0,0.9062 -1.1094,0 q -1.25,0 -1.7266,-0.4688 -0.4765,-0.4687 -0.4765,-1.6874 l 0,-3.5626 -0.7813,0 0,-0.8437 0.7813,0 0,-1.8594 1.0937,0 z m 7.4395,2.8594 q -0.1875,-0.0937 -0.3985,-0.1484 -0.2109,-0.0547 -0.4765,-0.0547 -0.9063,0 -1.3985,0.5937 -0.4921,0.5938 -0.4921,1.7188 l 0,3.4531 -1.0782,0 0,-6.5625 1.0782,0 0,1.0156 q 0.3437,-0.5937 0.8906,-0.8828 0.5469,-0.2891 1.3281,-0.2891 0.1094,0 0.2422,0.0157 0.1328,0.0156 0.2891,0.0469 l 0.0156,1.0937 z m 1.1211,-1 1.0781,0 0,6.5625 -1.0781,0 0,-6.5625 z m 0,-2.5625 1.0781,0 0,1.375 -1.0781,0 0,-1.375 z m 8.0683,2.8125 0,1.0156 q -0.4687,-0.2656 -0.9218,-0.3906 -0.4532,-0.125 -0.9219,-0.125 -1.0625,0 -1.6406,0.6641 -0.5782,0.664 -0.5782,1.8672 0,1.2031 0.5782,1.8671 0.5781,0.6641 1.6406,0.6641 0.4687,0 0.9219,-0.125 Q 51.3047,-1 51.7734,-1.25 l 0,1 q -0.4531,0.2031 -0.9375,0.3125 -0.4843,0.1094 -1.0312,0.1094 -1.4844,0 -2.3594,-0.9297 -0.875,-0.9297 -0.875,-2.5234 0,-1.5938 0.8828,-2.5157 0.8828,-0.9219 2.4297,-0.9219 0.4844,0 0.961,0.1016 0.4765,0.1016 0.9296,0.3047 z M 54.8086,-1 l 4.1406,0 0,1 -5.5625,0 0,-1 q 0.6719,-0.6875 1.836,-1.8672 1.164,-1.1797 1.4609,-1.5234 0.5781,-0.625 0.8047,-1.0703 0.2265,-0.4453 0.2265,-0.8672 0,-0.7031 -0.4921,-1.1407 -0.4922,-0.4374 -1.2735,-0.4374 -0.5625,0 -1.1797,0.1874 -0.6172,0.1876 -1.3203,0.5938 l 0,-1.2031 q 0.7188,-0.2813 1.336,-0.4297 0.6171,-0.1484 1.1328,-0.1484 1.3593,0 2.1718,0.6796 0.8125,0.6797 0.8125,1.8204 0,0.5312 -0.2031,1.0156 -0.2031,0.4844 -0.7344,1.1406 -0.1562,0.1719 -0.9375,0.9844 Q 56.2461,-2.4531 54.8086,-1 z m 10.5586,-0.4844 1.2344,0 0,1.4844 -1.2344,0 0,-1.4844 z m 0,-4.7187 1.2344,0 0,1.4843 -1.2344,0 0,-1.4843 z m 12.873,-2.2657 0,1.1563 q -0.6718,-0.3125 -1.2734,-0.4766 -0.6016,-0.164 -1.1484,-0.164 -0.9688,0 -1.4922,0.375 -0.5235,0.375 -0.5235,1.0781 0,0.5781 0.3438,0.875 0.3437,0.2969 1.3281,0.4688 L 76.1777,-5 q 1.3282,0.25 1.961,0.8828 0.6328,0.6328 0.6328,1.6953 0,1.2813 -0.8516,1.9375 -0.8515,0.6563 -2.5078,0.6563 -0.6094,0 -1.3125,-0.1407 -0.7031,-0.1406 -1.4531,-0.4218 l 0,-1.2188 q 0.7187,0.4063 1.414,0.6094 0.6954,0.2031 1.3516,0.2031 1.0156,0 1.5703,-0.3984 0.5547,-0.3985 0.5547,-1.1328 0,-0.6407 -0.3984,-1.0078 -0.3985,-0.3672 -1.3047,-0.5391 l -0.7188,-0.1406 q -1.3281,-0.2656 -1.914,-0.8282 -0.586,-0.5624 -0.586,-1.5624 0,-1.1719 0.8125,-1.836 0.8125,-0.664 2.25,-0.664 0.625,0 1.2578,0.1093 0.6329,0.1094 1.3047,0.3281 z m 3.3985,0.0469 0,1.8594 2.2187,0 0,0.8437 -2.2187,0 0,3.5626 q 0,0.7968 0.2187,1.0234 0.2188,0.2266 0.8906,0.2266 l 1.1094,0 0,0.9062 -1.1094,0 q -1.25,0 -1.7265,-0.4688 -0.4766,-0.4687 -0.4766,-1.6874 l 0,-3.5626 -0.7812,0 0,-0.8437 0.7812,0 0,-1.8594 1.0938,0 z m 7.4394,2.8594 q -0.1875,-0.0937 -0.3984,-0.1484 -0.2109,-0.0547 -0.4766,-0.0547 -0.9062,0 -1.3984,0.5937 -0.4922,0.5938 -0.4922,1.7188 l 0,3.4531 -1.0781,0 0,-6.5625 1.0781,0 0,1.0156 q 0.3437,-0.5937 0.8906,-0.8828 0.5469,-0.2891 1.3281,-0.2891 0.1094,0 0.2422,0.0157 0.1328,0.0156 0.2891,0.0469 l 0.0156,1.0937 z m 1.1211,-1 1.0781,0 0,6.5625 -1.0781,0 0,-6.5625 z m 0,-2.5625 1.0781,0 0,1.375 -1.0781,0 0,-1.375 z m 8.8028,5.1562 0,3.9688 -1.0782,0 0,-3.9219 q 0,-0.9375 -0.3672,-1.3984 -0.3671,-0.4609 -1.0859,-0.4609 -0.875,0 -1.3828,0.5546 -0.5078,0.5547 -0.5078,1.5235 l 0,3.7031 -1.0781,0 0,-6.5625 1.0781,0 0,1.0156 q 0.3906,-0.5937 0.914,-0.8828 0.5235,-0.2891 1.211,-0.2891 1.125,0 1.7109,0.6954 0.586,0.6953 0.586,2.0546 z m 6.4648,0.6094 q 0,-1.1718 -0.4844,-1.8125 -0.4844,-0.6406 -1.3594,-0.6406 -0.8593,0 -1.3437,0.6406 -0.4844,0.6407 -0.4844,1.8125 0,1.1719 0.4844,1.8125 0.4844,0.6407 1.3437,0.6407 0.875,0 1.3594,-0.6407 0.4844,-0.6406 0.4844,-1.8125 z m 1.0781,2.5469 q 0,1.6719 -0.7422,2.4922 -0.7422,0.8203 -2.289,0.8203 -0.5625,0 -1.0703,-0.0859 -0.5079,-0.086 -0.9766,-0.2579 l 0,-1.0468 q 0.4687,0.25 0.9375,0.375 0.4687,0.125 0.9375,0.125 1.0625,0 1.5937,-0.5547 0.5313,-0.5547 0.5313,-1.6797 l 0,-0.5312 q -0.3438,0.5781 -0.8594,0.8671 Q 104.0918,0 103.3574,0 q -1.2031,0 -1.9453,-0.9219 -0.7422,-0.9219 -0.7422,-2.4375 0,-1.5156 0.7422,-2.4375 0.7422,-0.9219 1.9453,-0.9219 0.7344,0 1.25,0.2891 0.5156,0.2891 0.8594,0.8672 l 0,-1 1.0781,0 0,5.75 z" />
  </g>
  <g
     id="g103"
     transform="matrix(1.3333,0,0,1.3333,302.6591,278.6181)"
     style="stroke-width:2;font-family:sans-serif">
    <path
       inkscape:connector-curvature="0"
       clip-path="url(#clipPath11)"
       id="path105"
       style="stroke:none"
       d="m 5.5156,-7.5312 0,3.2656 3.2656,0 0,1 -3.2656,0 0,3.2656 -0.9844,0 0,-3.2656 -3.2656,0 0,-1 3.2656,0 0,-3.2656 0.9844,0 z m 14.5879,2.2343 q 0.4063,-0.7343 0.9688,-1.0781 0.5625,-0.3438 1.3281,-0.3438 1.0312,0 1.5859,0.7188 0.5547,0.7188 0.5547,2.0312 l 0,3.9688 -1.0781,0 0,-3.9219 q 0,-0.9531 -0.3359,-1.4062 -0.336,-0.4531 -1.0235,-0.4531 -0.8437,0 -1.3281,0.5546 -0.4844,0.5547 -0.4844,1.5235 l 0,3.7031 -1.0781,0 0,-3.9219 q 0,-0.9531 -0.3359,-1.4062 -0.336,-0.4531 -1.0391,-0.4531 -0.8281,0 -1.3125,0.5546 -0.4844,0.5547 -0.4844,1.5235 l 0,3.7031 -1.0781,0 0,-6.5625 1.0781,0 0,1.0156 q 0.375,-0.5937 0.8906,-0.8828 0.5157,-0.2891 1.2188,-0.2891 0.7187,0 1.2187,0.3594 0.5,0.3594 0.7344,1.0625 z m 12.2051,1.75 0,0.5157 -4.9688,0 q 0.0782,1.125 0.6797,1.7031 0.6016,0.5781 1.6641,0.5781 0.625,0 1.2109,-0.1484 0.586,-0.1485 1.1641,-0.461 l 0,1.0313 q -0.5938,0.2343 -1.2031,0.3672 -0.6094,0.1328 -1.2344,0.1328 -1.5625,0 -2.4844,-0.9141 -0.9219,-0.914 -0.9219,-2.4766 0,-1.6093 0.875,-2.5546 0.875,-0.9454 2.3438,-0.9454 1.3281,0 2.1016,0.8516 0.7734,0.8516 0.7734,2.3203 z M 31.2305,-3.875 q -0.0157,-0.875 -0.5,-1.4062 -0.4844,-0.5313 -1.2813,-0.5313 -0.9062,0 -1.4453,0.5156 -0.5391,0.5157 -0.6172,1.4375 l 3.8438,-0.0156 z m 3.914,-4.5469 0,1.8594 2.2188,0 0,0.8437 -2.2188,0 0,3.5626 q 0,0.7968 0.2188,1.0234 0.2187,0.2266 0.8906,0.2266 l 1.1094,0 0,0.9062 -1.1094,0 q -1.25,0 -1.7266,-0.4688 -0.4765,-0.4687 -0.4765,-1.6874 l 0,-3.5626 -0.7813,0 0,-0.8437 0.7813,0 0,-1.8594 1.0937,0 z m 7.4395,2.8594 q -0.1875,-0.0937 -0.3985,-0.1484 -0.2109,-0.0547 -0.4765,-0.0547 -0.9063,0 -1.3985,0.5937 -0.4921,0.5938 -0.4921,1.7188 l 0,3.4531 -1.0782,0 0,-6.5625 1.0782,0 0,1.0156 q 0.3437,-0.5937 0.8906,-0.8828 0.5469,-0.2891 1.3281,-0.2891 0.1094,0 0.2422,0.0157 0.1328,0.0156 0.2891,0.0469 l 0.0156,1.0937 z m 1.1211,-1 1.0781,0 0,6.5625 -1.0781,0 0,-6.5625 z m 0,-2.5625 1.0781,0 0,1.375 -1.0781,0 0,-1.375 z m 8.0683,2.8125 0,1.0156 q -0.4687,-0.2656 -0.9218,-0.3906 -0.4532,-0.125 -0.9219,-0.125 -1.0625,0 -1.6406,0.6641 -0.5782,0.664 -0.5782,1.8672 0,1.2031 0.5782,1.8671 0.5781,0.6641 1.6406,0.6641 0.4687,0 0.9219,-0.125 Q 51.3047,-1 51.7734,-1.25 l 0,1 q -0.4531,0.2031 -0.9375,0.3125 -0.4843,0.1094 -1.0312,0.1094 -1.4844,0 -2.3594,-0.9297 -0.875,-0.9297 -0.875,-2.5234 0,-1.5938 0.8828,-2.5157 0.8828,-0.9219 2.4297,-0.9219 0.4844,0 0.961,0.1016 0.4765,0.1016 0.9296,0.3047 z m 5.959,4.8281 1.2344,0 0,1.4844 -1.2344,0 0,-1.4844 z m 0,-4.7187 1.2344,0 0,1.4843 -1.2344,0 0,-1.4843 z m 12.8731,-2.2657 0,1.1563 q -0.6719,-0.3125 -1.2735,-0.4766 -0.6015,-0.164 -1.1484,-0.164 -0.9688,0 -1.4922,0.375 -0.5234,0.375 -0.5234,1.0781 0,0.5781 0.3437,0.875 0.3438,0.2969 1.3281,0.4688 L 68.543,-5 q 1.3281,0.25 1.9609,0.8828 0.6328,0.6328 0.6328,1.6953 0,1.2813 -0.8515,1.9375 -0.8516,0.6563 -2.5079,0.6563 -0.6093,0 -1.3125,-0.1407 -0.7031,-0.1406 -1.4531,-0.4218 l 0,-1.2188 q 0.7188,0.4063 1.4141,0.6094 0.6953,0.2031 1.3515,0.2031 1.0157,0 1.5704,-0.3984 0.5546,-0.3985 0.5546,-1.1328 0,-0.6407 -0.3984,-1.0078 -0.3984,-0.3672 -1.3047,-0.5391 l -0.7187,-0.1406 q -1.3282,-0.2656 -1.9141,-0.8282 -0.5859,-0.5624 -0.5859,-1.5624 0,-1.1719 0.8125,-1.836 0.8125,-0.664 2.25,-0.664 0.625,0 1.2578,0.1093 0.6328,0.1094 1.3047,0.3281 z m 3.3984,0.0469 0,1.8594 2.2188,0 0,0.8437 -2.2188,0 0,3.5626 q 0,0.7968 0.2188,1.0234 0.2187,0.2266 0.8906,0.2266 l 1.1094,0 0,0.9062 -1.1094,0 q -1.25,0 -1.7266,-0.4688 -0.4765,-0.4687 -0.4765,-1.6874 l 0,-3.5626 -0.7813,0 0,-0.8437 0.7813,0 0,-1.8594 1.0937,0 z m 7.4395,2.8594 q -0.1875,-0.0937 -0.3985,-0.1484 -0.2109,-0.0547 -0.4765,-0.0547 -0.9063,0 -1.3985,0.5937 -0.4922,0.5938 -0.4922,1.7188 l 0,3.4531 -1.0781,0 0,-6.5625 1.0781,0 0,1.0156 q 0.3438,-0.5937 0.8907,-0.8828 0.5468,-0.2891 1.3281,-0.2891 0.1094,0 0.2422,0.0157 0.1328,0.0156 0.289,0.0469 l 0.0157,1.0937 z m 1.1211,-1 1.0781,0 0,6.5625 -1.0781,0 0,-6.5625 z m 0,-2.5625 1.0781,0 0,1.375 -1.0781,0 0,-1.375 z m 8.8027,5.1562 0,3.9688 -1.0781,0 0,-3.9219 q 0,-0.9375 -0.3672,-1.3984 -0.3672,-0.4609 -1.086,-0.4609 -0.875,0 -1.3828,0.5546 -0.5078,0.5547 -0.5078,1.5235 l 0,3.7031 -1.0781,0 0,-6.5625 1.0781,0 0,1.0156 q 0.3906,-0.5937 0.9141,-0.8828 0.5234,-0.2891 1.2109,-0.2891 1.125,0 1.7109,0.6954 0.586,0.6953 0.586,2.0546 z m 6.4648,0.6094 q 0,-1.1718 -0.4843,-1.8125 -0.4844,-0.6406 -1.3594,-0.6406 -0.8594,0 -1.3438,0.6406 -0.4843,0.6407 -0.4843,1.8125 0,1.1719 0.4843,1.8125 0.4844,0.6407 1.3438,0.6407 0.875,0 1.3594,-0.6407 0.4843,-0.6406 0.4843,-1.8125 z m 1.0782,2.5469 q 0,1.6719 -0.7422,2.4922 Q 97.4258,2.5 95.8789,2.5 95.3164,2.5 94.8086,2.4141 94.3008,2.3281 93.832,2.1562 l 0,-1.0468 q 0.4688,0.25 0.9375,0.375 0.4688,0.125 0.9375,0.125 1.0625,0 1.5938,-0.5547 Q 97.832,0.5 97.832,-0.625 l 0,-0.5312 Q 97.4883,-0.5781 96.9727,-0.2891 96.457,0 95.7227,0 q -1.2032,0 -1.9454,-0.9219 -0.7421,-0.9219 -0.7421,-2.4375 0,-1.5156 0.7421,-2.4375 0.7422,-0.9219 1.9454,-0.9219 0.7343,0 1.25,0.2891 0.5156,0.2891 0.8593,0.8672 l 0,-1 1.0782,0 0,5.75 z" />
  </g>
  <g
     id="g107"
     transform="scale(1.3333,1.3333)"
     style="font-family:sans-serif">
    <line
       clip-path="url(#clipPath2)"
       id="line109"
       y2="284.78119"
       style="fill:none"
       y1="284.78119"
       x2="462"
       x1="217" />
    <line
       clip-path="url(#clipPath2)"
       id="line111"
       y2="192.9688"
       style="fill:none"
       y1="192.9688"
       x2="462"
       x1="217" />
  </g>
  <g
     id="g113"
     transform="matrix(1.3333,0,0,1.3333,404.65655,249.3271)"
     style="font-weight:bold;font-family:sans-serif">
    <path
       inkscape:connector-curvature="0"
       clip-path="url(#clipPath12)"
       id="path115"
       style="stroke:none"
       d="M 8.0469,-0.4844 Q 7.4219,-0.1562 6.75,0.0078 6.0781,0.1719 5.3438,0.1719 q -2.1876,0 -3.4688,-1.2266 -1.2812,-1.2265 -1.2812,-3.3047 0,-2.1094 1.2812,-3.3281 1.2812,-1.2187 3.4688,-1.2187 0.7343,0 1.4062,0.164 0.6719,0.1641 1.2969,0.4922 l 0,1.7969 Q 7.4062,-6.875 6.7969,-7.0703 6.1875,-7.2656 5.5156,-7.2656 q -1.2031,0 -1.8906,0.7734 -0.6875,0.7734 -0.6875,2.1328 0,1.3438 0.6875,2.1172 0.6875,0.7734 1.8906,0.7734 0.6719,0 1.2813,-0.1953 0.6093,-0.1953 1.25,-0.6328 l 0,1.8125 z M 16.416,-4 l 0,4 -2.1094,0 0,-0.6562 0,-2.3907 q 0,-0.8593 -0.039,-1.1797 -0.0391,-0.3203 -0.1328,-0.4765 -0.125,-0.2031 -0.336,-0.3203 -0.2109,-0.1172 -0.4765,-0.1172 -0.6563,0 -1.0313,0.5078 -0.375,0.5078 -0.375,1.3984 l 0,3.2344 -2.0937,0 0,-9.125 2.0937,0 0,3.5156 q 0.4688,-0.5625 1,-0.8359 0.5313,-0.2735 1.1875,-0.2735 1.125,0 1.7188,0.6954 Q 16.416,-5.3281 16.416,-4 z m 4.8867,1.0469 q -0.6562,0 -0.9922,0.2187 -0.3359,0.2188 -0.3359,0.6563 0,0.4062 0.2734,0.6328 0.2735,0.2265 0.7422,0.2265 0.5938,0 1,-0.4296 0.4063,-0.4297 0.4063,-1.0704 l 0,-0.2343 -1.0938,0 z m 3.2032,-0.7969 0,3.75 -2.1094,0 0,-0.9688 q -0.4219,0.5938 -0.9531,0.8672 -0.5313,0.2735 -1.2813,0.2735 -1.0312,0 -1.6641,-0.5938 -0.6328,-0.5937 -0.6328,-1.5469 0,-1.1562 0.7969,-1.6953 0.7969,-0.539 2.4844,-0.539 l 1.25,0 0,-0.1563 q 0,-0.5 -0.3985,-0.7344 -0.3984,-0.2343 -1.2265,-0.2343 -0.6719,0 -1.25,0.1328 -0.5781,0.1328 -1.0781,0.4141 l 0,-1.6094 q 0.6718,-0.1563 1.3515,-0.2422 0.6797,-0.086 1.3516,-0.086 1.7812,0 2.5703,0.6954 0.7891,0.6953 0.7891,2.2734 z m 6.832,-1.0312 q -0.2813,-0.125 -0.5547,-0.1876 -0.2734,-0.0624 -0.5547,-0.0624 -0.7969,0 -1.2344,0.5234 -0.4375,0.5234 -0.4375,1.4766 l 0,3.0312 -2.0937,0 0,-6.5625 2.0937,0 0,1.0781 q 0.4063,-0.6406 0.9297,-0.9375 0.5235,-0.2969 1.2578,-0.2969 0.0938,0 0.2188,0.0079 0.125,0.0078 0.3594,0.039 l 0.0156,1.8907 z m 3.3242,-3.6407 0,1.8594 2.1719,0 0,1.5 -2.1719,0 0,2.7813 q 0,0.4531 0.1797,0.6171 0.1797,0.1641 0.7266,0.1641 l 1.0781,0 0,1.5 -1.7969,0 q -1.25,0 -1.7656,-0.5156 -0.5156,-0.5156 -0.5156,-1.7656 l 0,-2.7813 -1.0469,0 0,-1.5 1.0469,0 0,-1.8594 2.0937,0 z m 8.5801,2.0625 0,1.5938 q -0.6719,-0.2813 -1.3047,-0.4219 -0.6328,-0.1406 -1.1797,-0.1406 -0.6094,0 -0.8984,0.1484 -0.2891,0.1485 -0.2891,0.4609 0,0.25 0.2188,0.3829 0.2187,0.1328 0.7968,0.2109 l 0.3594,0.0469 q 1.625,0.2031 2.1797,0.6719 0.5547,0.4687 0.5547,1.4687 0,1.0469 -0.7735,1.5781 -0.7734,0.5313 -2.3046,0.5313 -0.6563,0 -1.3516,-0.1016 -0.6953,-0.1015 -1.4297,-0.3047 l 0,-1.5937 q 0.625,0.2969 1.2891,0.4531 0.664,0.1562 1.3359,0.1562 0.625,0 0.9297,-0.1718 0.3047,-0.1719 0.3047,-0.5156 0,-0.2813 -0.2109,-0.4141 -0.211,-0.1328 -0.8516,-0.2109 l -0.375,-0.0469 q -1.3906,-0.1719 -1.9531,-0.6485 -0.5625,-0.4765 -0.5625,-1.4453 0,-1.0469 0.7109,-1.5469 0.7109,-0.5 2.1953,-0.5 0.5781,0 1.2188,0.086 0.6406,0.0859 1.3906,0.2734 z m 9.0488,5.875 q -0.625,0.3282 -1.2969,0.4922 -0.6718,0.1641 -1.4062,0.1641 -2.1875,0 -3.4688,-1.2266 -1.2812,-1.2265 -1.2812,-3.3047 0,-2.1094 1.2812,-3.3281 1.2813,-1.2187 3.4688,-1.2187 0.7344,0 1.4062,0.164 0.6719,0.1641 1.2969,0.4922 l 0,1.7969 q -0.6406,-0.4219 -1.25,-0.6172 -0.6094,-0.1953 -1.2812,-0.1953 -1.2032,0 -1.8907,0.7734 -0.6875,0.7734 -0.6875,2.1328 0,1.3438 0.6875,2.1172 0.6875,0.7734 1.8907,0.7734 0.6718,0 1.2812,-0.1953 0.6094,-0.1953 1.25,-0.6328 l 0,1.8125 z m 4.0567,-7.9375 0,1.8594 2.1718,0 0,1.5 -2.1718,0 0,2.7813 q 0,0.4531 0.1796,0.6171 Q 56.707,-1.5 57.2539,-1.5 l 1.0781,0 0,1.5 -1.7968,0 q -1.25,0 -1.7657,-0.5156 -0.5156,-0.5156 -0.5156,-1.7656 l 0,-2.7813 -1.0469,0 0,-1.5 1.0469,0 0,-1.8594 2.0938,0 z m 8.33,3.6407 q -0.2812,-0.125 -0.5547,-0.1876 -0.2734,-0.0624 -0.5546,-0.0624 -0.7969,0 -1.2344,0.5234 -0.4375,0.5234 -0.4375,1.4766 l 0,3.0312 -2.0938,0 0,-6.5625 2.0938,0 0,1.0781 q 0.4062,-0.6406 0.9297,-0.9375 0.5234,-0.2969 1.2578,-0.2969 0.0937,0 0.2187,0.0079 0.125,0.0078 0.3594,0.039 l 0.0156,1.8907 z m 1.043,-4.3438 2.0938,0 0,9.125 -2.0938,0 0,-9.125 z" />
  </g>
</svg>
