<?xml version="1.0" encoding="UTF-8" standalone="no"?>
<svg
   xmlns:dc="http://purl.org/dc/elements/1.1/"
   xmlns:cc="http://creativecommons.org/ns#"
   xmlns:rdf="http://www.w3.org/1999/02/22-rdf-syntax-ns#"
   xmlns:svg="http://www.w3.org/2000/svg"
   xmlns="http://www.w3.org/2000/svg"
   xmlns:xlink="http://www.w3.org/1999/xlink"
   xmlns:sodipodi="http://sodipodi.sourceforge.net/DTD/sodipodi-0.dtd"
   xmlns:inkscape="http://www.inkscape.org/namespaces/inkscape"
   style="fill-opacity:1; color-rendering:auto; color-interpolation:auto; stroke:black; text-rendering:auto; stroke-linecap:square; stroke-miterlimit:10; stroke-opacity:1; shape-rendering:auto; fill:black; stroke-dasharray:none; font-weight:normal; stroke-width:1; font-family:'Dialog'; font-style:normal; stroke-linejoin:miter; font-size:12; stroke-dashoffset:0; image-rendering:auto;"
   width="880"
   height="666"
   id="svg2"
   version="1.1"
   inkscape:version="0.48.5 r10040"
   sodipodi:docname="login_ctrl.svg">
  <metadata
     id="metadata84">
    <rdf:RDF>
      <cc:Work
         rdf:about="">
        <dc:format>image/svg+xml</dc:format>
        <dc:type
           rdf:resource="http://purl.org/dc/dcmitype/StillImage" />
      </cc:Work>
    </rdf:RDF>
  </metadata>
  <sodipodi:namedview
     pagecolor="#ffffff"
     bordercolor="#666666"
     borderopacity="1"
     objecttolerance="10"
     gridtolerance="10"
     guidetolerance="10"
     inkscape:pageopacity="0"
     inkscape:pageshadow="2"
     inkscape:window-width="1218"
     inkscape:window-height="780"
     id="namedview82"
     showgrid="false"
     inkscape:zoom="0.35435435"
     inkscape:cx="440"
     inkscape:cy="333"
     inkscape:window-x="54"
     inkscape:window-y="-8"
     inkscape:window-maximized="1"
     inkscape:current-layer="svg2" />
  <!--Generated by the Batik Graphics2D SVG Generator-->
  <defs
     id="genericDefs">
    <linearGradient
       inkscape:collect="always"
       xlink:href="#linearGradient1"
       id="linearGradient3061"
       gradientUnits="userSpaceOnUse"
       spreadMethod="pad"
       x1="239"
       y1="191"
       x2="423"
       y2="264" />
    <linearGradient
       inkscape:collect="always"
       xlink:href="#linearGradient1"
       id="linearGradient3063"
       gradientUnits="userSpaceOnUse"
       spreadMethod="pad"
       x1="239"
       y1="191"
       x2="423"
       y2="264" />
    <linearGradient
       inkscape:collect="always"
       xlink:href="#linearGradient1"
       id="linearGradient3065"
       gradientUnits="userSpaceOnUse"
       spreadMethod="pad"
       x1="239"
       y1="191"
       x2="423"
       y2="264" />
    <defs
       id="defs1">
      <linearGradient
         spreadMethod="pad"
         id="linearGradient1"
         y2="264"
         y1="191"
         x2="423"
         gradientUnits="userSpaceOnUse"
         x1="239">
        <stop
           id="stop9"
           offset="0%"
           style="stop-opacity:1; stop-color:white;" />
        <stop
           id="stop11"
           offset="100%"
           style="stop-opacity:1; stop-color:rgb(255,255,204);" />
      </linearGradient>
      <clipPath
         id="clipPath1"
         clipPathUnits="userSpaceOnUse">
        <path
           id="path14"
           d="M0 0 L880 0 L880 666 L0 666 L0 0 Z" />
      </clipPath>
      <clipPath
         id="clipPath2"
         clipPathUnits="userSpaceOnUse">
        <path
           id="path17"
           d="M0 0 L660 0 L660 499.5 L0 499.5 L0 0 Z" />
      </clipPath>
      <clipPath
         id="clipPath3"
         clipPathUnits="userSpaceOnUse">
        <path
           id="path20"
           d="M-20 -27 L640 -27 L640 472.5 L-20 472.5 L-20 -27 Z" />
      </clipPath>
      <clipPath
         id="clipPath4"
         clipPathUnits="userSpaceOnUse">
        <path
           id="path23"
           d="M-5 -5 L655 -5 L655 494.5 L-5 494.5 L-5 -5 Z" />
      </clipPath>
      <clipPath
         id="clipPath5"
         clipPathUnits="userSpaceOnUse">
        <path
           id="path26"
           d="M-249 -251.2656 L411 -251.2656 L411 248.2344 L-249 248.2344 L-249 -251.2656 Z" />
      </clipPath>
      <clipPath
         id="clipPath6"
         clipPathUnits="userSpaceOnUse">
        <path
           id="path29"
           d="M-249 -229.1328 L411 -229.1328 L411 270.3672 L-249 270.3672 L-249 -229.1328 Z" />
      </clipPath>
      <clipPath
         id="clipPath7"
         clipPathUnits="userSpaceOnUse">
        <path
           id="path32"
           d="M-302 -207 L358 -207 L358 292.5 L-302 292.5 L-302 -207 Z" />
      </clipPath>
    </defs>
  </defs>
  <g
     id="g52"
     style="font-weight:bold;fill:#c0c0c0;fill-opacity:0.50199998;stroke:#c0c0c0;stroke-width:2;stroke-opacity:0.50199998;font-family:sans-serif"
     transform="matrix(1.3333,0,0,1.3333,6.6665,6.6665)">
    <rect
       clip-path="url(#clipPath4)"
       id="rect54"
       height="72.281197"
       style="stroke:none"
       width="184"
       y="191"
       x="239" />
    <rect
       clip-path="url(#clipPath4)"
       id="rect56"
       height="72.281197"
       style="fill:none"
       width="184"
       y="191"
       x="239" />
  </g>
  <g
     id="g58"
     style="font-weight:bold;fill:url(#linearGradient3063);stroke:url(#linearGradient3065);stroke-width:2;font-family:sans-serif"
     transform="scale(1.3333,1.3333)">
    <rect
       clip-path="url(#clipPath2)"
       id="rect60"
       height="72.281197"
       style="fill:url(#linearGradient3061);stroke:none"
       width="184"
       y="191"
       x="239" />
    <rect
       clip-path="url(#clipPath2)"
       id="rect62"
       height="72.281197"
       style="fill:none;stroke:#000000"
       width="184"
       y="191"
       x="239" />
  </g>
  <g
     id="g64"
     transform="matrix(1.3333,0,0,1.3333,331.9917,335.01242)"
     style="stroke-width:2;font-family:sans-serif">
    <path
       inkscape:connector-curvature="0"
       clip-path="url(#clipPath5)"
       id="path66"
       style="stroke:none"
       d="m 4.3359,0 0,-3.0352 -3.0351,0 0,-0.8671 3.0351,0 0,-3.0352 0.8672,0 0,3.0352 3.0352,0 0,0.8671 -3.0352,0 0,3.0352 z m 10.1543,0 0,-9.252 1.1543,0 0,9.252 z m 5.959,0.1465 q -1.3652,0 -2.1797,-0.9053 -0.8144,-0.9053 -0.8144,-2.4228 0,-1.5352 0.8174,-2.4288 0.8173,-0.8935 2.2177,-0.8935 1.4004,0 2.2178,0.8935 0.8174,0.8936 0.8174,2.417 0,1.5586 -0.8203,2.4493 -0.8203,0.8906 -2.2559,0.8906 z m 0.0176,-0.8672 q 1.834,0 1.834,-2.4727 0,-2.4433 -1.8106,-2.4433 -1.8047,0 -1.8047,2.4551 0,2.4609 1.7813,2.4609 z m 4.8867,2.8359 0.1348,-1.0019 q 1.0019,0.4746 1.9746,0.4746 1.9512,0 1.9512,-2.0684 l 0,-1.0019 q -0.6387,1.3359 -2.0977,1.3359 -1.1426,0 -1.8164,-0.832 -0.6738,-0.832 -0.6738,-2.2442 0,-1.4531 0.7676,-2.3671 0.7675,-0.9141 1.9863,-0.9141 1.0664,0 1.834,0.8672 l 0,-0.7266 1.1601,0 0,4.6289 q 0,1.4942 -0.1553,2.2119 -0.1552,0.7178 -0.583,1.1748 -0.7558,0.8028 -2.3496,0.8028 -1.1133,0 -2.1328,-0.3399 z m 4.0606,-4.3183 0,-2.6426 q -0.7618,-0.791 -1.6582,-0.791 -0.7969,0 -1.2481,0.6387 -0.4512,0.6386 -0.4512,1.7519 0,2.0918 1.4707,2.0918 1.002,0 1.8868,-1.0488 z M 32.8125,0 l 0,-6.3633 1.1543,0 0,6.3633 z m 0,-7.5176 0,-1.1543 1.1543,0 0,1.1543 z M 36.2812,0 l 0,-6.3633 1.1543,0 0,1.1953 q 0.9141,-1.3359 2.2383,-1.3359 0.8262,0 1.3184,0.5244 0.4922,0.5244 0.4922,1.4092 l 0,4.5703 -1.1543,0 0,-4.1953 q 0,-0.709 -0.208,-1.0108 -0.208,-0.3017 -0.6885,-0.3017 -1.0606,0 -1.9981,1.3887 l 0,4.1191 z m 9.7618,0.9375 0,0.7969 q -1.2657,-0.8614 -2.0069,-2.3408 -0.7412,-1.4795 -0.7412,-3.1553 0,-1.6699 0.7412,-3.1494 0.7412,-1.4795 2.0069,-2.3409 l 0,0.7969 q -0.8614,0.9375 -1.2276,2.0156 -0.3662,1.0782 -0.3662,2.6778 0,1.6055 0.3662,2.6836 Q 45.1816,0 46.043,0.9375 z m 4.0722,-0.791 q -1.289,0 -2.1386,-0.9551 -0.8496,-0.9551 -0.8496,-2.4082 0,-1.5527 0.8408,-2.4199 0.8408,-0.8672 2.3467,-0.8672 0.7441,0 1.664,0.2051 l 0,0.9668 Q 51,-5.6191 50.3848,-5.6191 q -0.8848,0 -1.4209,0.665 -0.5362,0.665 -0.5362,1.7725 0,1.0722 0.5508,1.7343 0.5508,0.6621 1.4414,0.6621 0.791,0 1.6289,-0.4043 l 0,0.9961 Q 50.9297,0.1465 50.1152,0.1465 z M 53.7773,0 l 0,-6.3633 1.1543,0 0,1.1953 q 0.6856,-1.3359 1.9922,-1.3359 0.1758,0 0.3692,0.0293 l 0,1.0781 q -0.2989,-0.0996 -0.5274,-0.0996 -1.0957,0 -1.834,1.3008 l 0,4.1953 z m 9.5743,-0.2051 q -1.1602,0.3516 -1.9864,0.3516 -1.4062,0 -2.2939,-0.9346 -0.8877,-0.9346 -0.8877,-2.4228 0,-1.4473 0.7822,-2.3731 0.7822,-0.9258 2.001,-0.9258 1.1543,0 1.7842,0.8203 0.6299,0.8204 0.6299,2.3321 L 63.375,-3 59.3613,-3 q 0.252,2.2676 2.2207,2.2676 0.7207,0 1.7696,-0.3867 z m -3.9375,-3.6621 2.8066,0 q 0,-1.7754 -1.3242,-1.7754 -1.3301,0 -1.4824,1.7754 z M 69.457,0 l 0,-1.1953 q -0.7031,1.3418 -2.1211,1.3418 -1.1484,0 -1.8076,-0.8379 -0.6592,-0.8379 -0.6592,-2.291 0,-1.5879 0.7471,-2.5547 0.7471,-0.9668 1.9658,-0.9668 1.1309,0 1.875,0.8672 l 0,-3.6153 1.1602,0 0,9.252 z m 0,-4.8457 q -0.8965,-0.791 -1.6992,-0.791 -1.6582,0 -1.6582,2.5371 0,2.2324 1.4766,2.2324 0.9609,0 1.8808,-1.0488 z M 76.8867,0 l 0,-1.1543 1.1543,0 0,1.1543 z m 0,-5.2031 0,-1.1602 1.1543,0 0,1.1602 z M 84.3164,0 l 0,-6.3633 1.1543,0 0,6.3633 z m 0,-7.5176 0,-1.1543 1.1543,0 0,1.1543 z M 87.7852,0 l 0,-6.3633 1.1543,0 0,1.1953 q 0.914,-1.3359 2.2382,-1.3359 0.8262,0 1.3184,0.5244 0.4922,0.5244 0.4922,1.4092 l 0,4.5703 -1.1543,0 0,-4.1953 q 0,-0.709 -0.208,-1.0108 -0.208,-0.3017 -0.6885,-0.3017 -1.0605,0 -1.998,1.3887 l 0,4.1191 z m 9.3574,0.1465 q -0.8789,0 -1.3711,-0.5039 -0.4922,-0.5039 -0.4922,-1.4004 l 0,-3.7383 -0.7969,0 0,-0.8672 0.7969,0 0,-1.1543 1.1543,-0.1113 0,1.2656 1.6641,0 0,0.8672 -1.6641,0 0,3.5273 q 0,1.2481 1.0781,1.2481 0.2285,0 0.5567,-0.0762 l 0,0.7969 Q 97.5352,0.1465 97.1426,0.1465 z M 99,0.9375 99,1.7344 q 1.2656,-0.8614 2.0068,-2.3408 0.7412,-1.4795 0.7412,-3.1553 0,-1.6699 -0.7412,-3.1494 Q 100.2656,-8.3906 99,-9.252 l 0,0.7969 q 0.8613,0.9375 1.2275,2.0156 0.3663,1.0782 0.3663,2.6778 0,1.6055 -0.3663,2.6836 Q 99.8613,0 99,0.9375 z M 107.584,0 l 0,-1.1543 1.1543,0 0,1.1543 z m 0,-5.2031 0,-1.1602 1.1543,0 0,1.1602 z M 116.332,0 l -2.3672,-6.3633 1.1543,0 1.8516,4.9512 1.9512,-4.9512 1.0781,0 L 117.4863,0 z m 7.3828,0.1465 q -1.3652,0 -2.1796,-0.9053 -0.8145,-0.9053 -0.8145,-2.4228 0,-1.5352 0.8174,-2.4288 0.8174,-0.8935 2.2178,-0.8935 1.4003,0 2.2177,0.8935 0.8174,0.8936 0.8174,2.417 0,1.5586 -0.8203,2.4493 -0.8203,0.8906 -2.2559,0.8906 z m 0.0176,-0.8672 q 1.834,0 1.834,-2.4727 0,-2.4433 -1.8105,-2.4433 -1.8047,0 -1.8047,2.4551 0,2.4609 1.7812,2.4609 z M 128.5957,0 l 0,-6.3633 1.1543,0 0,6.3633 z m 0,-7.5176 0,-1.1543 1.1543,0 0,1.1543 z M 136.1484,0 l 0,-1.1953 q -0.7031,1.3418 -2.1211,1.3418 -1.1484,0 -1.8076,-0.8379 -0.6592,-0.8379 -0.6592,-2.291 0,-1.5879 0.7471,-2.5547 0.7471,-0.9668 1.9658,-0.9668 1.1309,0 1.875,0.8672 l 0,-3.6153 1.1602,0 0,9.252 z m 0,-4.8457 q -0.8964,-0.791 -1.6992,-0.791 -1.6582,0 -1.6582,2.5371 0,2.2324 1.4766,2.2324 0.9609,0 1.8808,-1.0488 z" />
  </g>
  <g
     id="g68"
     transform="matrix(1.3333,0,0,1.3333,331.9917,305.50276)"
     style="stroke-width:2;font-family:sans-serif">
    <path
       inkscape:connector-curvature="0"
       clip-path="url(#clipPath6)"
       id="path70"
       style="stroke:none"
       d="m 4.3359,0 0,-3.0352 -3.0351,0 0,-0.8671 3.0351,0 0,-3.0352 0.8672,0 0,3.0352 3.0352,0 0,0.8671 -3.0352,0 0,3.0352 z m 12.6387,0.1465 q -1.2891,0 -2.1387,-0.9551 -0.8496,-0.9551 -0.8496,-2.4082 0,-1.5527 0.8408,-2.4199 0.8409,-0.8672 2.3467,-0.8672 0.7442,0 1.6641,0.2051 l 0,0.9668 q -0.9785,-0.2871 -1.5938,-0.2871 -0.8847,0 -1.4209,0.665 -0.5361,0.665 -0.5361,1.7725 0,1.0722 0.5508,1.7343 0.5508,0.6621 1.4414,0.6621 0.791,0 1.6289,-0.4043 l 0,0.9961 Q 17.7891,0.1465 16.9746,0.1465 z M 20.6367,0 l 0,-6.3633 1.1543,0 0,1.1953 q 0.6856,-1.3359 1.9922,-1.3359 0.1758,0 0.3691,0.0293 l 0,1.0781 q -0.2988,-0.0996 -0.5273,-0.0996 -1.0957,0 -1.834,1.3008 l 0,4.1953 z m 9.5742,-0.2051 q -1.1601,0.3516 -1.9863,0.3516 -1.4062,0 -2.2939,-0.9346 -0.8877,-0.9346 -0.8877,-2.4228 0,-1.4473 0.7822,-2.3731 0.7822,-0.9258 2.001,-0.9258 1.1543,0 1.7842,0.8203 0.6298,0.8204 0.6298,2.3321 L 30.2344,-3 26.2207,-3 q 0.252,2.2676 2.2207,2.2676 0.7207,0 1.7695,-0.3867 z m -3.9375,-3.6621 2.8067,0 q 0,-1.7754 -1.3242,-1.7754 -1.3301,0 -1.4825,1.7754 z M 36.3164,0 l 0,-1.1953 q -0.7031,1.3418 -2.1211,1.3418 -1.1484,0 -1.8076,-0.8379 -0.6592,-0.8379 -0.6592,-2.291 0,-1.5879 0.7471,-2.5547 0.7471,-0.9668 1.9658,-0.9668 1.1309,0 1.875,0.8672 l 0,-3.6153 1.1602,0 0,9.252 z m 0,-4.8457 q -0.8965,-0.791 -1.6992,-0.791 -1.6582,0 -1.6582,2.5371 0,2.2324 1.4765,2.2324 0.961,0 1.8809,-1.0488 z m 8.1328,4.6406 q -1.1601,0.3516 -1.9863,0.3516 -1.4063,0 -2.294,-0.9346 -0.8877,-0.9346 -0.8877,-2.4228 0,-1.4473 0.7823,-2.3731 0.7822,-0.9258 2.001,-0.9258 1.1543,0 1.7841,0.8203 0.6299,0.8204 0.6299,2.3321 L 44.4727,-3 40.459,-3 q 0.2519,2.2676 2.2207,2.2676 0.7207,0 1.7695,-0.3867 z m -3.9375,-3.6621 2.8067,0 q 0,-1.7754 -1.3243,-1.7754 -1.33,0 -1.4824,1.7754 z M 46.4707,0 l 0,-6.3633 1.1543,0 0,1.1953 q 0.9141,-1.3359 2.2383,-1.3359 0.8262,0 1.3183,0.5244 0.4922,0.5244 0.4922,1.4092 l 0,4.5703 -1.1543,0 0,-4.1953 q 0,-0.709 -0.208,-1.0108 -0.208,-0.3017 -0.6885,-0.3017 -1.0605,0 -1.998,1.3887 l 0,4.1191 z m 9.3574,0.1465 q -0.8789,0 -1.3711,-0.5039 -0.4922,-0.5039 -0.4922,-1.4004 l 0,-3.7383 -0.7968,0 0,-0.8672 0.7968,0 0,-1.1543 1.1543,-0.1113 0,1.2656 1.6641,0 0,0.8672 -1.6641,0 0,3.5273 q 0,1.2481 1.0782,1.2481 0.2285,0 0.5566,-0.0762 l 0,0.7969 Q 56.2207,0.1465 55.8281,0.1465 z M 58.4062,0 l 0,-6.3633 1.1543,0 0,6.3633 z m 0,-7.5176 0,-1.1543 1.1543,0 0,1.1543 z m 6.75,6.709 q -1.0371,0.9551 -1.998,0.9551 -0.791,0 -1.3125,-0.4951 -0.5215,-0.4952 -0.5215,-1.251 0,-1.043 0.876,-1.6025 0.876,-0.5596 2.5107,-0.5596 l 0.2754,0 0,-0.7676 q 0,-1.1074 -1.1367,-1.1074 -0.9141,0 -1.9746,0.5625 l 0,-0.9551 q 1.166,-0.4746 2.1855,-0.4746 1.0665,0 1.5733,0.4805 0.5068,0.4804 0.5068,1.4941 l 0,2.8828 q 0,0.9903 0.6094,0.9903 0.0762,0 0.2227,-0.0235 l 0.082,0.6387 q -0.3926,0.1875 -0.8672,0.1875 -0.8086,0 -1.0313,-0.9551 z m -0.1699,-0.6269 0,-1.6465 -0.3867,-0.0118 q -0.9492,0 -1.5351,0.3604 -0.586,0.3604 -0.586,0.9463 0,0.416 0.293,0.7031 0.293,0.2871 0.7148,0.2871 0.7207,0 1.5,-0.6386 z M 68.502,0 l 0,-9.252 1.1542,0 0,9.252 z m 5.1562,0.1465 q -0.791,0 -1.9219,-0.3692 l 0,-1.0605 q 1.1309,0.5625 1.9688,0.5625 0.498,0 0.8261,-0.2695 0.3282,-0.2696 0.3282,-0.6739 0,-0.5918 -0.9199,-0.9785 l -0.6739,-0.2871 q -1.4941,-0.6211 -1.4941,-1.7871 0,-0.832 0.5889,-1.3096 0.5888,-0.4775 1.6142,-0.4775 0.5332,0 1.3184,0.1465 l 0.2402,0.0469 0,0.9609 q -0.9668,-0.2871 -1.5352,-0.2871 -1.1132,0 -1.1132,0.8086 0,0.5215 0.8437,0.8789 l 0.5567,0.2344 q 0.9433,0.3984 1.3359,0.8408 0.3926,0.4424 0.3926,1.1045 0,0.8379 -0.6621,1.3769 -0.6621,0.5391 -1.6934,0.5391 z M 82.0488,0 l 0,-1.1543 1.1543,0 0,1.1543 z m 0,-5.2031 0,-1.1602 1.1543,0 0,1.1602 z m 9.92,5.3496 q -1.3653,0 -2.1797,-0.9053 -0.8145,-0.9053 -0.8145,-2.4228 0,-1.5352 0.8174,-2.4288 0.8174,-0.8935 2.2178,-0.8935 1.4004,0 2.2177,0.8935 0.8174,0.8936 0.8174,2.417 0,1.5586 -0.8203,2.4493 -0.8203,0.8906 -2.2558,0.8906 z m 0.0175,-0.8672 q 1.834,0 1.834,-2.4727 0,-2.4433 -1.8105,-2.4433 -1.8047,0 -1.8047,2.4551 0,2.4609 1.7812,2.4609 z m 4.8867,2.8359 0.1348,-1.0019 q 1.002,0.4746 1.9746,0.4746 1.9512,0 1.9512,-2.0684 l 0,-1.0019 q -0.6387,1.3359 -2.0977,1.3359 -1.1425,0 -1.8164,-0.832 -0.6738,-0.832 -0.6738,-2.2442 0,-1.4531 0.7676,-2.3671 0.7676,-0.9141 1.9863,-0.9141 1.0664,0 1.834,0.8672 l 0,-0.7266 1.1602,0 0,4.6289 q 0,1.4942 -0.1553,2.2119 -0.1553,0.7178 -0.583,1.1748 -0.7559,0.8028 -2.3496,0.8028 -1.1133,0 -2.1329,-0.3399 z m 4.0606,-4.3183 0,-2.6426 q -0.7617,-0.791 -1.6582,-0.791 -0.7969,0 -1.2481,0.6387 -0.4511,0.6386 -0.4511,1.7519 0,2.0918 1.4707,2.0918 1.0019,0 1.8867,-1.0488 z m 3.4219,4.3183 0.1347,-1.0019 q 1.002,0.4746 1.9746,0.4746 1.9512,0 1.9512,-2.0684 l 0,-1.0019 q -0.6387,1.3359 -2.0976,1.3359 -1.1426,0 -1.8164,-0.832 -0.6739,-0.832 -0.6739,-2.2442 0,-1.4531 0.7676,-2.3671 0.7676,-0.9141 1.9863,-0.9141 1.0664,0 1.834,0.8672 l 0,-0.7266 1.1602,0 0,4.6289 q 0,1.4942 -0.1553,2.2119 -0.1553,0.7178 -0.583,1.1748 -0.7559,0.8028 -2.3496,0.8028 -1.1133,0 -2.1328,-0.3399 z m 4.0605,-4.3183 0,-2.6426 q -0.7617,-0.791 -1.6582,-0.791 -0.7969,0 -1.248,0.6387 -0.4512,0.6386 -0.4512,1.7519 0,2.0918 1.4707,2.0918 1.0019,0 1.8867,-1.0488 z m 8.0625,1.998 q -1.1601,0.3516 -1.9863,0.3516 -1.4063,0 -2.294,-0.9346 -0.8877,-0.9346 -0.8877,-2.4228 0,-1.4473 0.7823,-2.3731 0.7822,-0.9258 2.001,-0.9258 1.1542,0 1.7841,0.8203 0.6299,0.8204 0.6299,2.3321 L 116.502,-3 l -4.0137,0 q 0.2519,2.2676 2.2207,2.2676 0.7207,0 1.7695,-0.3867 z m -3.9375,-3.6621 2.8067,0 q 0,-1.7754 -1.3243,-1.7754 -1.33,0 -1.4824,1.7754 z m 7.8692,4.0137 q -0.879,0 -1.3711,-0.5039 -0.4922,-0.5039 -0.4922,-1.4004 l 0,-3.7383 -0.7969,0 0,-0.8672 0.7969,0 0,-1.1543 1.1543,-0.1113 0,1.2656 1.664,0 0,0.8672 -1.664,0 0,3.5273 q 0,1.2481 1.0781,1.2481 0.2285,0 0.5566,-0.0762 l 0,0.7969 q -0.5332,0.1465 -0.9257,0.1465 z m 4.4882,0 q -0.8789,0 -1.3711,-0.5039 -0.4921,-0.5039 -0.4921,-1.4004 l 0,-3.7383 -0.7969,0 0,-0.8672 0.7969,0 0,-1.1543 1.1543,-0.1113 0,1.2656 1.664,0 0,0.8672 -1.664,0 0,3.5273 q 0,1.2481 1.0781,1.2481 0.2285,0 0.5566,-0.0762 l 0,0.7969 q -0.5332,0.1465 -0.9258,0.1465 z m 5.0684,0 q -1.3652,0 -2.1797,-0.9053 -0.8144,-0.9053 -0.8144,-2.4228 0,-1.5352 0.8173,-2.4288 0.8174,-0.8935 2.2178,-0.8935 1.4004,0 2.2178,0.8935 0.8174,0.8936 0.8174,2.417 0,1.5586 -0.8203,2.4493 -0.8204,0.8906 -2.2559,0.8906 z m 0.0176,-0.8672 q 1.834,0 1.834,-2.4727 0,-2.4433 -1.8106,-2.4433 -1.8047,0 -1.8047,2.4551 0,2.4609 1.7813,2.4609 z m 6.4277,2.332 0,-1.0898 q 0.7031,0.2285 1.2422,0.2285 0.7031,0 0.9814,-0.4014 0.2784,-0.4013 0.2784,-1.4033 l 0,-7.6172 1.2304,0 0,7.5762 q 0,2.8301 -2.6777,2.8301 -0.4102,0 -1.0547,-0.1231 z m 7.6289,-1.3945 q -0.873,0 -2.2324,-0.3809 l 0,-1.2187 q 1.4648,0.6797 2.4082,0.6797 0.7266,0 1.1689,-0.3809 0.4424,-0.3808 0.4424,-1.0019 0,-0.5098 -0.29,-0.8672 -0.2901,-0.3574 -1.0693,-0.7969 l -0.5977,-0.3457 q -1.1074,-0.6328 -1.5615,-1.1924 -0.4541,-0.5596 -0.4541,-1.3037 0,-1.002 0.7265,-1.6494 0.7266,-0.6475 1.8516,-0.6475 1.0019,0 2.1152,0.334 l 0,1.125 q -1.3711,-0.5391 -2.0449,-0.5391 -0.6387,0 -1.0547,0.3399 -0.416,0.3398 -0.416,0.8555 0,0.4336 0.3047,0.7675 0.3047,0.334 1.1133,0.7969 l 0.6211,0.3516 q 1.125,0.6386 1.5703,1.207 0.4453,0.5684 0.4453,1.3652 0,1.1309 -0.835,1.8164 -0.8349,0.6856 -2.2119,0.6856 z m 8.2559,0 q -1.8047,0 -2.9033,-1.251 -1.0987,-1.251 -1.0987,-3.3076 0,-2.0684 1.1045,-3.3076 1.1045,-1.2393 2.9502,-1.2393 1.8399,0 2.9473,1.2364 1.1074,1.2363 1.1074,3.2988 0,2.1035 -1.1074,3.3369 -1.1074,1.2334 -3,1.2334 z m 0.0176,-0.9199 q 1.33,0 2.0566,-0.958 0.7266,-0.958 0.7266,-2.7041 0,-1.6934 -0.7295,-2.6485 -0.7295,-0.9551 -2.0186,-0.9551 -1.2949,0 -2.0215,0.9581 -0.7265,0.958 -0.7265,2.663 0,1.6993 0.7207,2.6719 0.7207,0.9727 1.9922,0.9727 z M 158.127,0 l 0,-8.6719 1.207,0 4.3652,6.6973 0,-6.6973 1.0547,0 0,8.6719 -1.2012,0 -4.3711,-6.6973 0,6.6973 z" />
  </g>
  <g
     id="g72"
     transform="scale(1.3333,1.3333)"
     style="font-family:sans-serif">
    <line
       clip-path="url(#clipPath2)"
       id="line74"
       y2="235.26559"
       style="fill:none"
       y1="235.26559"
       x2="423"
       x1="239" />
    <line
       clip-path="url(#clipPath2)"
       id="line76"
       y2="213.1328"
       style="fill:none"
       y1="213.1328"
       x2="423"
       x1="239" />
  </g>
  <g
     id="g78"
     transform="matrix(1.3333,0,0,1.3333,402.6566,275.9931)"
     style="font-weight:bold;font-family:sans-serif">
    <path
       inkscape:connector-curvature="0"
       clip-path="url(#clipPath7)"
       id="path80"
       style="stroke:none"
       d="m 1.084,0 0,-8.6719 1.8047,0 0,7.4414 3.9082,0 0,1.2305 z m 9.6797,0.1465 q -1.5059,0 -2.3936,-0.9111 -0.8877,-0.9112 -0.8877,-2.4522 0,-1.5586 0.8936,-2.4609 0.8935,-0.9024 2.4287,-0.9024 1.541,0 2.4346,0.9024 0.8935,0.9023 0.8935,2.4492 0,1.582 -0.8965,2.4785 -0.8965,0.8965 -2.4726,0.8965 z m 0.0293,-1.084 q 1.4941,0 1.4941,-2.291 0,-1.0488 -0.3955,-1.6582 -0.3955,-0.6094 -1.0869,-0.6094 -0.6856,0 -1.0811,0.6094 -0.3955,0.6094 -0.3955,1.6699 0,1.0488 0.3926,1.6641 0.3926,0.6152 1.0723,0.6152 z m 4.9804,2.9355 0.1407,-1.2597 q 1.0722,0.4922 2.0449,0.4922 0.9609,0 1.3887,-0.4102 0.4277,-0.4101 0.4277,-1.3301 l 0,-0.8789 Q 19.1426,0 17.6836,0 q -1.1484,0 -1.8223,-0.8584 -0.6738,-0.8584 -0.6738,-2.3232 0,-1.5411 0.7559,-2.4698 0.7558,-0.9287 2.0097,-0.9287 0.9844,0 1.8223,0.7969 l 0.1816,-0.6504 1.5586,0 0,4.9102 q 0,1.4707 -0.1787,2.1211 -0.1787,0.6503 -0.6943,1.1074 -0.8672,0.75 -2.4434,0.75 -1.1191,0 -2.4258,-0.4571 z m 4.002,-4.3945 0,-2.373 q -0.627,-0.709 -1.3125,-0.709 -0.6563,0 -1.043,0.5976 -0.3867,0.5977 -0.3867,1.6055 0,1.8867 1.2129,1.8867 0.8379,0 1.5293,-1.0078 z M 23.6426,0 l 0,-6.4336 1.7344,0 0,6.4336 z m 0,-7.5176 0,-1.4472 1.7344,0 0,1.4472 z M 27.5449,0 l 0,-6.4336 1.7344,0 0,1.2129 q 0.8496,-1.3594 2.1914,-1.3594 0.8613,0 1.3594,0.5449 0.498,0.545 0.498,1.4883 l 0,4.5469 -1.7343,0 0,-4.1191 q 0,-1.0957 -0.7266,-1.0957 -0.8262,0 -1.5879,1.166 l 0,4.0488 z m 14.8594,-0.3457 q -1.2598,0.5625 -3.0059,0.5625 -2.1328,0 -3.3222,-1.2012 -1.1895,-1.2011 -1.1895,-3.3515 0,-2.1914 1.1983,-3.3721 1.1982,-1.1807 3.4189,-1.1807 1.418,0 2.8184,0.334 l 0,1.4121 q -1.5879,-0.5566 -2.6602,-0.5566 -1.3711,0 -2.1152,0.8701 -0.7442,0.8701 -0.7442,2.4697 0,1.5703 0.7998,2.4492 0.7998,0.879 2.2237,0.879 1.2773,0 2.5781,-0.6446 z m 4.8867,0.3105 q -0.6211,0.1817 -0.9785,0.1817 -2.2559,0 -2.2559,-2.1094 l 0,-3.3867 -0.7207,0 0,-1.084 0.7207,0 0,-1.084 1.7344,-0.1992 0,1.2832 1.377,0 0,1.084 -1.377,0 0,3.1582 q 0,1.1836 0.9668,1.1836 0.2227,0 0.5332,-0.082 z M 48.8379,0 l 0,-6.4336 1.7344,0 0,1.2129 q 0.6738,-1.3594 2.0507,-1.3594 0.1641,0 0.3223,0.0352 l 0,1.5469 q -0.3691,-0.1348 -0.6855,-0.1348 -1.0371,0 -1.6875,1.0488 l 0,4.084 z m 5.4551,0 0,-9.252 1.7343,0 0,9.252 z" />
  </g>
</svg>
