<?xml version="1.0" encoding="UTF-8" standalone="no"?>
<svg
   xmlns:dc="http://purl.org/dc/elements/1.1/"
   xmlns:cc="http://creativecommons.org/ns#"
   xmlns:rdf="http://www.w3.org/1999/02/22-rdf-syntax-ns#"
   xmlns:svg="http://www.w3.org/2000/svg"
   xmlns="http://www.w3.org/2000/svg"
   xmlns:xlink="http://www.w3.org/1999/xlink"
   xmlns:sodipodi="http://sodipodi.sourceforge.net/DTD/sodipodi-0.dtd"
   xmlns:inkscape="http://www.inkscape.org/namespaces/inkscape"
   style="fill-opacity:1; color-rendering:auto; color-interpolation:auto; stroke:black; text-rendering:auto; stroke-linecap:square; stroke-miterlimit:10; stroke-opacity:1; shape-rendering:auto; fill:black; stroke-dasharray:none; font-weight:normal; stroke-width:1; font-family:'Dialog'; font-style:normal; stroke-linejoin:miter; font-size:12; stroke-dashoffset:0; image-rendering:auto;"
   width="880"
   height="666"
   id="svg2"
   version="1.1"
   inkscape:version="0.48.5 r10040"
   sodipodi:docname="logout_ctrl.svg">
  <metadata
     id="metadata77">
    <rdf:RDF>
      <cc:Work
         rdf:about="">
        <dc:format>image/svg+xml</dc:format>
        <dc:type
           rdf:resource="http://purl.org/dc/dcmitype/StillImage" />
      </cc:Work>
    </rdf:RDF>
  </metadata>
  <sodipodi:namedview
     pagecolor="#ffffff"
     bordercolor="#666666"
     borderopacity="1"
     objecttolerance="10"
     gridtolerance="10"
     guidetolerance="10"
     inkscape:pageopacity="0"
     inkscape:pageshadow="2"
     inkscape:window-width="1218"
     inkscape:window-height="780"
     id="namedview75"
     showgrid="false"
     inkscape:zoom="0.35435435"
     inkscape:cx="440"
     inkscape:cy="333"
     inkscape:window-x="54"
     inkscape:window-y="-8"
     inkscape:window-maximized="1"
     inkscape:current-layer="svg2" />
  <!--Generated by the Batik Graphics2D SVG Generator-->
  <defs
     id="genericDefs">
    <linearGradient
       inkscape:collect="always"
       xlink:href="#linearGradient1"
       id="linearGradient3054"
       gradientUnits="userSpaceOnUse"
       spreadMethod="pad"
       x1="239"
       y1="191"
       x2="416"
       y2="249" />
    <linearGradient
       inkscape:collect="always"
       xlink:href="#linearGradient1"
       id="linearGradient3056"
       gradientUnits="userSpaceOnUse"
       spreadMethod="pad"
       x1="239"
       y1="191"
       x2="416"
       y2="249" />
    <linearGradient
       inkscape:collect="always"
       xlink:href="#linearGradient1"
       id="linearGradient3058"
       gradientUnits="userSpaceOnUse"
       spreadMethod="pad"
       x1="239"
       y1="191"
       x2="416"
       y2="249" />
    <defs
       id="defs1">
      <linearGradient
         spreadMethod="pad"
         id="linearGradient1"
         y2="249"
         y1="191"
         x2="416"
         gradientUnits="userSpaceOnUse"
         x1="239">
        <stop
           id="stop9"
           offset="0%"
           style="stop-opacity:1; stop-color:white;" />
        <stop
           id="stop11"
           offset="100%"
           style="stop-opacity:1; stop-color:rgb(255,255,204);" />
      </linearGradient>
      <clipPath
         id="clipPath1"
         clipPathUnits="userSpaceOnUse">
        <path
           id="path14"
           d="M0 0 L880 0 L880 666 L0 666 L0 0 Z" />
      </clipPath>
      <clipPath
         id="clipPath2"
         clipPathUnits="userSpaceOnUse">
        <path
           id="path17"
           d="M0 0 L660 0 L660 499.5 L0 499.5 L0 0 Z" />
      </clipPath>
      <clipPath
         id="clipPath3"
         clipPathUnits="userSpaceOnUse">
        <path
           id="path20"
           d="M-20 -27 L640 -27 L640 472.5 L-20 472.5 L-20 -27 Z" />
      </clipPath>
      <clipPath
         id="clipPath4"
         clipPathUnits="userSpaceOnUse">
        <path
           id="path23"
           d="M-5 -5 L655 -5 L655 494.5 L-5 494.5 L-5 -5 Z" />
      </clipPath>
      <clipPath
         id="clipPath5"
         clipPathUnits="userSpaceOnUse">
        <path
           id="path26"
           d="M-249 -237.1328 L411 -237.1328 L411 262.3672 L-249 262.3672 L-249 -237.1328 Z" />
      </clipPath>
      <clipPath
         id="clipPath6"
         clipPathUnits="userSpaceOnUse">
        <path
           id="path29"
           d="M-294 -207 L366 -207 L366 292.5 L-294 292.5 L-294 -207 Z" />
      </clipPath>
    </defs>
  </defs>
  <g
     id="g49"
     style="font-weight:bold;fill:#c0c0c0;fill-opacity:0.50199998;stroke:#c0c0c0;stroke-width:2;stroke-opacity:0.50199998;font-family:sans-serif"
     transform="matrix(1.3333,0,0,1.3333,6.6665,6.6665)">
    <rect
       clip-path="url(#clipPath4)"
       id="rect51"
       height="57.1875"
       style="stroke:none"
       width="177"
       y="191"
       x="239" />
    <rect
       clip-path="url(#clipPath4)"
       id="rect53"
       height="57.1875"
       style="fill:none"
       width="177"
       y="191"
       x="239" />
  </g>
  <g
     id="g55"
     style="font-weight:bold;fill:url(#linearGradient3056);stroke:url(#linearGradient3058);stroke-width:2;font-family:sans-serif"
     transform="scale(1.3333,1.3333)">
    <rect
       clip-path="url(#clipPath2)"
       id="rect57"
       height="57.1875"
       style="fill:url(#linearGradient3054);stroke:none"
       width="177"
       y="191"
       x="239" />
    <rect
       clip-path="url(#clipPath2)"
       id="rect59"
       height="57.1875"
       style="fill:none;stroke:#000000"
       width="177"
       y="191"
       x="239" />
  </g>
  <g
     id="g61"
     transform="matrix(1.3333,0,0,1.3333,331.9917,316.16916)"
     style="stroke-width:2;font-family:sans-serif">
    <path
       inkscape:connector-curvature="0"
       clip-path="url(#clipPath5)"
       id="path63"
       style="stroke:none"
       d="m 4.3359,0 0,-3.0352 -3.0351,0 0,-0.8671 3.0351,0 0,-3.0352 0.8672,0 0,3.0352 3.0352,0 0,0.8671 -3.0352,0 0,3.0352 z m 10.1543,0 0,-9.252 1.1543,0 0,9.252 z m 5.959,0.1465 q -1.3652,0 -2.1797,-0.9053 -0.8144,-0.9053 -0.8144,-2.4228 0,-1.5352 0.8174,-2.4288 0.8173,-0.8935 2.2177,-0.8935 1.4004,0 2.2178,0.8935 0.8174,0.8936 0.8174,2.417 0,1.5586 -0.8203,2.4493 -0.8203,0.8906 -2.2559,0.8906 z m 0.0176,-0.8672 q 1.834,0 1.834,-2.4727 0,-2.4433 -1.8106,-2.4433 -1.8047,0 -1.8047,2.4551 0,2.4609 1.7813,2.4609 z m 4.8867,2.8359 0.1348,-1.0019 q 1.0019,0.4746 1.9746,0.4746 1.9512,0 1.9512,-2.0684 l 0,-1.0019 q -0.6387,1.3359 -2.0977,1.3359 -1.1426,0 -1.8164,-0.832 -0.6738,-0.832 -0.6738,-2.2442 0,-1.4531 0.7676,-2.3671 0.7675,-0.9141 1.9863,-0.9141 1.0664,0 1.834,0.8672 l 0,-0.7266 1.1601,0 0,4.6289 q 0,1.4942 -0.1553,2.2119 -0.1552,0.7178 -0.583,1.1748 -0.7558,0.8028 -2.3496,0.8028 -1.1133,0 -2.1328,-0.3399 z m 4.0606,-4.3183 0,-2.6426 q -0.7618,-0.791 -1.6582,-0.791 -0.7969,0 -1.2481,0.6387 -0.4512,0.6386 -0.4512,1.7519 0,2.0918 1.4707,2.0918 1.002,0 1.8868,-1.0488 z m 5.8886,2.3496 q -1.3652,0 -2.1797,-0.9053 -0.8144,-0.9053 -0.8144,-2.4228 0,-1.5352 0.8174,-2.4288 0.8174,-0.8935 2.2178,-0.8935 1.4003,0 2.2177,0.8935 0.8174,0.8936 0.8174,2.417 0,1.5586 -0.8203,2.4493 -0.8203,0.8906 -2.2559,0.8906 z m 0.0176,-0.8672 q 1.834,0 1.834,-2.4727 0,-2.4433 -1.8105,-2.4433 -1.8047,0 -1.8047,2.4551 0,2.4609 1.7812,2.4609 z M 44.1621,0 l 0,-1.1953 q -0.9199,1.3418 -2.2324,1.3418 -0.832,0 -1.3242,-0.5244 -0.4922,-0.5244 -0.4922,-1.4151 l 0,-4.5703 1.1543,0 0,4.1953 q 0,0.7149 0.208,1.0166 0.208,0.3018 0.6943,0.3018 1.0547,0 1.9922,-1.3887 l 0,-4.125 1.1543,0 0,6.3633 z m 5.3789,0.1465 q -0.8789,0 -1.3711,-0.5039 -0.4922,-0.5039 -0.4922,-1.4004 l 0,-3.7383 -0.7968,0 0,-0.8672 0.7968,0 0,-1.1543 1.1543,-0.1113 0,1.2656 1.6641,0 0,0.8672 -1.6641,0 0,3.5273 q 0,1.2481 1.0782,1.2481 0.2285,0 0.5566,-0.0762 l 0,0.7969 Q 49.9336,0.1465 49.541,0.1465 z m 4.8926,0.791 0,0.7969 Q 53.168,0.873 52.4268,-0.6064 q -0.7413,-1.4795 -0.7413,-3.1553 0,-1.6699 0.7413,-3.1494 0.7412,-1.4795 2.0068,-2.3409 l 0,0.7969 q -0.8613,0.9375 -1.2275,2.0156 -0.3663,1.0782 -0.3663,2.6778 0,1.6055 0.3663,2.6836 Q 53.5723,0 54.4336,0.9375 z m 0.8672,0 0,0.7969 q 1.2656,-0.8614 2.0068,-2.3408 0.7412,-1.4795 0.7412,-3.1553 0,-1.6699 -0.7412,-3.1494 -0.7412,-1.4795 -2.0068,-2.3409 l 0,0.7969 q 0.8613,0.9375 1.2275,2.0156 0.3662,1.0782 0.3662,2.6778 0,1.6055 -0.3662,2.6836 Q 56.1621,0 55.3008,0.9375 z M 63.8848,0 l 0,-1.1543 1.1543,0 0,1.1543 z m 0,-5.2031 0,-1.1602 1.1543,0 0,1.1602 z M 72.6328,0 l -2.3672,-6.3633 1.1543,0 1.8516,4.9512 1.9512,-4.9512 1.0781,0 L 73.7871,0 z m 7.3828,0.1465 q -1.3652,0 -2.1797,-0.9053 -0.8144,-0.9053 -0.8144,-2.4228 0,-1.5352 0.8174,-2.4288 0.8173,-0.8935 2.2177,-0.8935 1.4004,0 2.2178,0.8935 0.8174,0.8936 0.8174,2.417 0,1.5586 -0.8203,2.4493 -0.8203,0.8906 -2.2559,0.8906 z m 0.0176,-0.8672 q 1.834,0 1.834,-2.4727 0,-2.4433 -1.8106,-2.4433 -1.8046,0 -1.8046,2.4551 0,2.4609 1.7812,2.4609 z M 84.8965,0 l 0,-6.3633 1.1543,0 0,6.3633 z m 0,-7.5176 0,-1.1543 1.1543,0 0,1.1543 z M 92.4492,0 l 0,-1.1953 q -0.7031,1.3418 -2.1211,1.3418 -1.1484,0 -1.8076,-0.8379 -0.6592,-0.8379 -0.6592,-2.291 0,-1.5879 0.7471,-2.5547 0.7471,-0.9668 1.9658,-0.9668 1.1309,0 1.875,0.8672 l 0,-3.6153 1.1602,0 0,9.252 z m 0,-4.8457 q -0.8965,-0.791 -1.6992,-0.791 -1.6582,0 -1.6582,2.5371 0,2.2324 1.4766,2.2324 0.9609,0 1.8808,-1.0488 z" />
  </g>
  <g
     id="g65"
     transform="scale(1.3333,1.3333)"
     style="font-family:sans-serif">
    <line
       clip-path="url(#clipPath2)"
       id="line67"
       y2="221.1328"
       style="fill:none"
       y1="221.1328"
       x2="416"
       x1="239" />
    <line
       clip-path="url(#clipPath2)"
       id="line69"
       y2="213.1328"
       style="fill:none"
       y1="213.1328"
       x2="416"
       x1="239" />
  </g>
  <g
     id="g71"
     transform="matrix(1.3333,0,0,1.3333,391.9902,275.9931)"
     style="font-weight:bold;font-family:sans-serif">
    <path
       inkscape:connector-curvature="0"
       clip-path="url(#clipPath6)"
       id="path73"
       style="stroke:none"
       d="m 1.084,0 0,-8.6719 1.8047,0 0,7.4414 3.9082,0 0,1.2305 z m 9.6797,0.1465 q -1.5059,0 -2.3936,-0.9111 -0.8877,-0.9112 -0.8877,-2.4522 0,-1.5586 0.8936,-2.4609 0.8935,-0.9024 2.4287,-0.9024 1.541,0 2.4346,0.9024 0.8935,0.9023 0.8935,2.4492 0,1.582 -0.8965,2.4785 -0.8965,0.8965 -2.4726,0.8965 z m 0.0293,-1.084 q 1.4941,0 1.4941,-2.291 0,-1.0488 -0.3955,-1.6582 -0.3955,-0.6094 -1.0869,-0.6094 -0.6856,0 -1.0811,0.6094 -0.3955,0.6094 -0.3955,1.6699 0,1.0488 0.3926,1.6641 0.3926,0.6152 1.0723,0.6152 z m 4.9804,2.9355 0.1407,-1.2597 q 1.0722,0.4922 2.0449,0.4922 0.9609,0 1.3887,-0.4102 0.4277,-0.4101 0.4277,-1.3301 l 0,-0.8789 Q 19.1426,0 17.6836,0 q -1.1484,0 -1.8223,-0.8584 -0.6738,-0.8584 -0.6738,-2.3232 0,-1.5411 0.7559,-2.4698 0.7558,-0.9287 2.0097,-0.9287 0.9844,0 1.8223,0.7969 l 0.1816,-0.6504 1.5586,0 0,4.9102 q 0,1.4707 -0.1787,2.1211 -0.1787,0.6503 -0.6943,1.1074 -0.8672,0.75 -2.4434,0.75 -1.1191,0 -2.4258,-0.4571 z m 4.002,-4.3945 0,-2.373 q -0.627,-0.709 -1.3125,-0.709 -0.6563,0 -1.043,0.5976 -0.3867,0.5977 -0.3867,1.6055 0,1.8867 1.2129,1.8867 0.8379,0 1.5293,-1.0078 z m 6.5684,2.543 q -1.5059,0 -2.3936,-0.9111 -0.8877,-0.9112 -0.8877,-2.4522 0,-1.5586 0.8936,-2.4609 0.8935,-0.9024 2.4287,-0.9024 1.541,0 2.4345,0.9024 0.8936,0.9023 0.8936,2.4492 0,1.582 -0.8965,2.4785 -0.8965,0.8965 -2.4726,0.8965 z m 0.0292,-1.084 q 1.4942,0 1.4942,-2.291 0,-1.0488 -0.3955,-1.6582 -0.3955,-0.6094 -1.0869,-0.6094 -0.6856,0 -1.0811,0.6094 -0.3955,0.6094 -0.3955,1.6699 0,1.0488 0.3926,1.6641 0.3926,0.6152 1.0722,0.6152 z M 35.2852,0 l 0,-1.2129 q -0.8438,1.3594 -2.1914,1.3594 -0.8614,0 -1.3594,-0.5449 -0.4981,-0.545 -0.4981,-1.4883 l 0,-4.5469 1.7344,0 0,4.1191 q 0,1.0957 0.7324,1.0957 0.8203,0 1.5821,-1.166 l 0,-4.0488 1.7343,0 0,6.4336 z m 7.2187,-0.0352 q -0.6211,0.1817 -0.9785,0.1817 -2.2559,0 -2.2559,-2.1094 l 0,-3.3867 -0.7207,0 0,-1.084 0.7207,0 0,-1.084 1.7344,-0.1992 0,1.2832 1.377,0 0,1.084 -1.377,0 0,3.1582 q 0,1.1836 0.9668,1.1836 0.2227,0 0.5332,-0.082 z m 8.5254,-0.3105 q -1.2598,0.5625 -3.0059,0.5625 -2.1328,0 -3.3222,-1.2012 -1.1895,-1.2011 -1.1895,-3.3515 0,-2.1914 1.1983,-3.3721 1.1982,-1.1807 3.4189,-1.1807 1.418,0 2.8184,0.334 l 0,1.4121 q -1.5879,-0.5566 -2.6602,-0.5566 -1.3711,0 -2.1152,0.8701 -0.7442,0.8701 -0.7442,2.4697 0,1.5703 0.7998,2.4492 0.7998,0.879 2.2237,0.879 1.2773,0 2.5781,-0.6446 z m 4.8867,0.3105 q -0.6211,0.1817 -0.9785,0.1817 -2.2559,0 -2.2559,-2.1094 l 0,-3.3867 -0.7207,0 0,-1.084 0.7207,0 0,-1.084 1.7344,-0.1992 0,1.2832 1.377,0 0,1.084 -1.377,0 0,3.1582 q 0,1.1836 0.9668,1.1836 0.2227,0 0.5332,-0.082 z M 57.4629,0 l 0,-6.4336 1.7344,0 0,1.2129 q 0.6738,-1.3594 2.0507,-1.3594 0.1641,0 0.3223,0.0352 l 0,1.5469 q -0.3691,-0.1348 -0.6855,-0.1348 -1.0371,0 -1.6875,1.0488 l 0,4.084 z m 5.4551,0 0,-9.252 1.7343,0 0,9.252 z" />
  </g>
</svg>
