<?xml version="1.0" encoding="UTF-8" standalone="no"?>
<svg
   xmlns:dc="http://purl.org/dc/elements/1.1/"
   xmlns:cc="http://creativecommons.org/ns#"
   xmlns:rdf="http://www.w3.org/1999/02/22-rdf-syntax-ns#"
   xmlns:svg="http://www.w3.org/2000/svg"
   xmlns="http://www.w3.org/2000/svg"
   xmlns:xlink="http://www.w3.org/1999/xlink"
   xmlns:sodipodi="http://sodipodi.sourceforge.net/DTD/sodipodi-0.dtd"
   xmlns:inkscape="http://www.inkscape.org/namespaces/inkscape"
   style="fill-opacity:1; color-rendering:auto; color-interpolation:auto; stroke:black; text-rendering:auto; stroke-linecap:square; stroke-miterlimit:10; stroke-opacity:1; shape-rendering:auto; fill:black; stroke-dasharray:none; font-weight:normal; stroke-width:1; font-family:'Dialog'; font-style:normal; stroke-linejoin:miter; font-size:12; stroke-dashoffset:0; image-rendering:auto;"
   width="880"
   height="666"
   id="svg2"
   version="1.1"
   inkscape:version="0.48.5 r10040"
   sodipodi:docname="register_ctrl.svg">
  <metadata
     id="metadata98">
    <rdf:RDF>
      <cc:Work
         rdf:about="">
        <dc:format>image/svg+xml</dc:format>
        <dc:type
           rdf:resource="http://purl.org/dc/dcmitype/StillImage" />
      </cc:Work>
    </rdf:RDF>
  </metadata>
  <sodipodi:namedview
     pagecolor="#ffffff"
     bordercolor="#666666"
     borderopacity="1"
     objecttolerance="10"
     gridtolerance="10"
     guidetolerance="10"
     inkscape:pageopacity="0"
     inkscape:pageshadow="2"
     inkscape:window-width="1218"
     inkscape:window-height="780"
     id="namedview96"
     showgrid="false"
     inkscape:zoom="0.35435435"
     inkscape:cx="440"
     inkscape:cy="333"
     inkscape:window-x="54"
     inkscape:window-y="-8"
     inkscape:window-maximized="1"
     inkscape:current-layer="svg2" />
  <!--Generated by the Batik Graphics2D SVG Generator-->
  <defs
     id="genericDefs">
    <linearGradient
       inkscape:collect="always"
       xlink:href="#linearGradient1"
       id="linearGradient3075"
       gradientUnits="userSpaceOnUse"
       spreadMethod="pad"
       x1="169"
       y1="184"
       x2="534"
       y2="287" />
    <linearGradient
       inkscape:collect="always"
       xlink:href="#linearGradient1"
       id="linearGradient3077"
       gradientUnits="userSpaceOnUse"
       spreadMethod="pad"
       x1="169"
       y1="184"
       x2="534"
       y2="287" />
    <linearGradient
       inkscape:collect="always"
       xlink:href="#linearGradient1"
       id="linearGradient3079"
       gradientUnits="userSpaceOnUse"
       spreadMethod="pad"
       x1="169"
       y1="184"
       x2="534"
       y2="287" />
    <defs
       id="defs1">
      <linearGradient
         spreadMethod="pad"
         id="linearGradient1"
         y2="287"
         y1="184"
         x2="534"
         gradientUnits="userSpaceOnUse"
         x1="169">
        <stop
           id="stop9"
           offset="0%"
           style="stop-opacity:1; stop-color:white;" />
        <stop
           id="stop11"
           offset="100%"
           style="stop-opacity:1; stop-color:rgb(255,255,204);" />
      </linearGradient>
      <clipPath
         id="clipPath1"
         clipPathUnits="userSpaceOnUse">
        <path
           id="path14"
           d="M0 0 L880 0 L880 666 L0 666 L0 0 Z" />
      </clipPath>
      <clipPath
         id="clipPath2"
         clipPathUnits="userSpaceOnUse">
        <path
           id="path17"
           d="M0 0 L660 0 L660 499.5 L0 499.5 L0 0 Z" />
      </clipPath>
      <clipPath
         id="clipPath3"
         clipPathUnits="userSpaceOnUse">
        <path
           id="path20"
           d="M-20 -27 L640 -27 L640 472.5 L-20 472.5 L-20 -27 Z" />
      </clipPath>
      <clipPath
         id="clipPath4"
         clipPathUnits="userSpaceOnUse">
        <path
           id="path23"
           d="M-5 -5 L655 -5 L655 494.5 L-5 494.5 L-5 -5 Z" />
      </clipPath>
      <clipPath
         id="clipPath5"
         clipPathUnits="userSpaceOnUse">
        <path
           id="path26"
           d="M-179 -272.5312 L481 -272.5312 L481 226.9688 L-179 226.9688 L-179 -272.5312 Z" />
      </clipPath>
      <clipPath
         id="clipPath6"
         clipPathUnits="userSpaceOnUse">
        <path
           id="path29"
           d="M-179 -258.3984 L481 -258.3984 L481 241.1016 L-179 241.1016 L-179 -258.3984 Z" />
      </clipPath>
      <clipPath
         id="clipPath7"
         clipPathUnits="userSpaceOnUse">
        <path
           id="path32"
           d="M-179 -236.2656 L481 -236.2656 L481 263.2344 L-179 263.2344 L-179 -236.2656 Z" />
      </clipPath>
      <clipPath
         id="clipPath8"
         clipPathUnits="userSpaceOnUse">
        <path
           id="path35"
           d="M-179 -222.1328 L481 -222.1328 L481 277.3672 L-179 277.3672 L-179 -222.1328 Z" />
      </clipPath>
      <clipPath
         id="clipPath9"
         clipPathUnits="userSpaceOnUse">
        <path
           id="path38"
           d="M-314.5 -200 L345.5 -200 L345.5 299.5 L-314.5 299.5 L-314.5 -200 Z" />
      </clipPath>
    </defs>
  </defs>
  <g
     id="g58"
     style="font-weight:bold;fill:#c0c0c0;fill-opacity:0.50199998;stroke:#c0c0c0;stroke-width:2;stroke-opacity:0.50199998;font-family:sans-serif"
     transform="matrix(1.3333,0,0,1.3333,6.6665,6.6665)">
    <rect
       clip-path="url(#clipPath4)"
       id="rect60"
       height="102.4688"
       style="stroke:none"
       width="365"
       y="184"
       x="169" />
    <rect
       clip-path="url(#clipPath4)"
       id="rect62"
       height="102.4688"
       style="fill:none"
       width="365"
       y="184"
       x="169" />
  </g>
  <g
     id="g64"
     style="font-weight:bold;fill:url(#linearGradient3077);stroke:url(#linearGradient3079);stroke-width:2;font-family:sans-serif"
     transform="scale(1.3333,1.3333)">
    <rect
       clip-path="url(#clipPath2)"
       id="rect66"
       height="102.4688"
       style="fill:url(#linearGradient3075);stroke:none"
       width="365"
       y="184"
       x="169" />
    <rect
       clip-path="url(#clipPath2)"
       id="rect68"
       height="102.4688"
       style="fill:none;stroke:#000000"
       width="365"
       y="184"
       x="169" />
  </g>
  <g
     id="g70"
     transform="matrix(1.3333,0,0,1.3333,238.6607,363.36585)"
     style="stroke-width:2;font-family:sans-serif">
    <path
       inkscape:connector-curvature="0"
       clip-path="url(#clipPath5)"
       id="path72"
       style="stroke:none"
       d="m 0.8672,-3.0352 0,-0.8671 5.2031,0 0,0.8671 z m 13.5117,3.1817 q -1.2891,0 -2.1387,-0.9551 -0.8496,-0.9551 -0.8496,-2.4082 0,-1.5527 0.8408,-2.4199 0.8409,-0.8672 2.3467,-0.8672 0.7442,0 1.6641,0.2051 l 0,0.9668 q -0.9785,-0.2871 -1.5938,-0.2871 -0.8847,0 -1.4209,0.665 -0.5361,0.665 -0.5361,1.7725 0,1.0722 0.5508,1.7343 0.5508,0.6621 1.4414,0.6621 0.791,0 1.6289,-0.4043 l 0,0.9961 Q 15.1934,0.1465 14.3789,0.1465 z M 18.041,0 l 0,-9.252 1.1543,0 0,4.084 q 0.9141,-1.3359 2.2383,-1.3359 0.8262,0 1.3184,0.5244 0.4921,0.5244 0.4921,1.4092 l 0,4.5703 -1.1543,0 0,-4.1953 q 0,-0.709 -0.208,-1.0108 -0.208,-0.3017 -0.6884,-0.3017 -1.0606,0 -1.9981,1.3887 l 0,4.1191 z m 12.1113,-0.2051 q -1.1601,0.3516 -1.9863,0.3516 -1.4062,0 -2.2939,-0.9346 -0.8877,-0.9346 -0.8877,-2.4228 0,-1.4473 0.7822,-2.3731 0.7822,-0.9258 2.001,-0.9258 1.1543,0 1.7842,0.8203 0.6298,0.8204 0.6298,2.3321 L 30.1758,-3 26.1621,-3 q 0.252,2.2676 2.2207,2.2676 0.7207,0 1.7695,-0.3867 z m -3.9375,-3.6621 2.8067,0 q 0,-1.7754 -1.3242,-1.7754 -1.3301,0 -1.4825,1.7754 z m 8.4434,4.0137 q -1.2891,0 -2.1387,-0.9551 -0.8496,-0.9551 -0.8496,-2.4082 0,-1.5527 0.8408,-2.4199 0.8409,-0.8672 2.3467,-0.8672 0.7442,0 1.6641,0.2051 l 0,0.9668 q -0.9785,-0.2871 -1.5938,-0.2871 -0.8847,0 -1.4209,0.665 -0.5361,0.665 -0.5361,1.7725 0,1.0722 0.5508,1.7343 0.5508,0.6621 1.4414,0.6621 0.791,0 1.6289,-0.4043 l 0,0.9961 Q 35.4727,0.1465 34.6582,0.1465 z M 38.3203,0 l 0,-9.252 1.1543,0 0,5.9766 2.6953,-3.0879 1.2422,0 -2.5723,2.9707 L 43.9453,0 42.4688,0 39.4746,-3.2637 39.4746,0 z m 6.9785,0 0,-8.6719 1.7051,0 2.4023,6.709 2.4727,-6.709 1.5234,0 0,8.6719 -1.1484,0 0,-7.0547 -2.3906,6.4746 -1.1895,0 -2.3203,-6.4922 0,7.0723 z m 13.6524,-0.8086 q -1.0371,0.9551 -1.9981,0.9551 -0.791,0 -1.3125,-0.4951 -0.5215,-0.4952 -0.5215,-1.251 0,-1.043 0.876,-1.6025 0.876,-0.5596 2.5108,-0.5596 l 0.2753,0 0,-0.7676 q 0,-1.1074 -1.1367,-1.1074 -0.914,0 -1.9746,0.5625 l 0,-0.9551 q 1.166,-0.4746 2.1856,-0.4746 1.0664,0 1.5732,0.4805 0.5068,0.4804 0.5068,1.4941 l 0,2.8828 q 0,0.9903 0.6094,0.9903 0.0762,0 0.2227,-0.0235 l 0.082,0.6387 q -0.3926,0.1875 -0.8672,0.1875 -0.8086,0 -1.0312,-0.9551 z m -0.17,-0.6269 0,-1.6465 -0.3867,-0.0118 q -0.9492,0 -1.5351,0.3604 -0.586,0.3604 -0.586,0.9463 0,0.416 0.293,0.7031 0.293,0.2871 0.7148,0.2871 0.7208,0 1.5,-0.6386 z m 5.4258,1.582 q -0.8789,0 -1.3711,-0.5039 -0.4921,-0.5039 -0.4921,-1.4004 l 0,-3.7383 -0.7969,0 0,-0.8672 0.7969,0 0,-1.1543 1.1542,-0.1113 0,1.2656 1.6641,0 0,0.8672 -1.6641,0 0,3.5273 q 0,1.2481 1.0782,1.2481 0.2285,0 0.5566,-0.0762 l 0,0.7969 Q 64.5996,0.1465 64.207,0.1465 z m 5.0625,0 q -1.289,0 -2.1386,-0.9551 -0.8497,-0.9551 -0.8497,-2.4082 0,-1.5527 0.8409,-2.4199 0.8408,-0.8672 2.3467,-0.8672 0.7441,0 1.664,0.2051 l 0,0.9668 q -0.9785,-0.2871 -1.5937,-0.2871 -0.8848,0 -1.4209,0.665 -0.5362,0.665 -0.5362,1.7725 0,1.0722 0.5508,1.7343 0.5508,0.6621 1.4414,0.6621 0.791,0 1.6289,-0.4043 l 0,0.9961 Q 70.084,0.1465 69.2695,0.1465 z M 72.9316,0 l 0,-9.252 1.1543,0 0,4.084 Q 75,-6.5039 76.3242,-6.5039 q 0.8262,0 1.3184,0.5244 0.4922,0.5244 0.4922,1.4092 l 0,4.5703 -1.1543,0 0,-4.1953 q 0,-0.709 -0.208,-1.0108 -0.208,-0.3017 -0.6885,-0.3017 -1.0606,0 -1.9981,1.3887 l 0,4.1191 z m 7.4122,0 0,-8.6719 2.3613,0 q 1.5703,0 2.2558,0.5303 0.6856,0.5303 0.6856,1.7432 0,1.3828 -0.9375,2.1679 -0.9375,0.7852 -2.6016,0.7852 l -0.5449,0 0,3.4453 z m 1.2187,-4.377 0.498,0 q 1.0957,0 1.6934,-0.5039 0.5977,-0.5039 0.5977,-1.4238 0,-0.7793 -0.4688,-1.1133 -0.4687,-0.334 -1.5644,-0.334 l -0.7559,0 z M 87.75,0 l -1.8223,-6.3633 1.1309,0 1.3945,4.9278 1.5059,-4.9278 1.1543,0 1.3183,4.9278 1.5996,-4.9278 0.9903,0 L 92.9473,0 91.7871,0 90.4395,-4.9277 88.916,0 z m 12.5918,0 0,-1.1953 q -0.7031,1.3418 -2.1211,1.3418 -1.1484,0 -1.8076,-0.8379 -0.6592,-0.8379 -0.6592,-2.291 0,-1.5879 0.7471,-2.5547 0.747,-0.9668 1.9658,-0.9668 1.1309,0 1.875,0.8672 l 0,-3.6153 1.1602,0 0,9.252 z m 0,-4.8457 q -0.8965,-0.791 -1.6992,-0.791 -1.6582,0 -1.6582,2.5371 0,2.2324 1.4765,2.2324 0.961,0 1.8809,-1.0488 z m 5.7832,5.7832 0,0.7969 q -1.2656,-0.8614 -2.0068,-2.3408 -0.7412,-1.4795 -0.7412,-3.1553 0,-1.6699 0.7412,-3.1494 0.7412,-1.4795 2.0068,-2.3409 l 0,0.7969 q -0.8613,0.9375 -1.2275,2.0156 -0.3663,1.0782 -0.3663,2.6778 0,1.6055 0.3663,2.6836 Q 105.2637,0 106.125,0.9375 z M 107.7129,0 l 0,-6.3633 1.1543,0 0,1.1953 q 0.914,-1.3359 2.2383,-1.3359 0.8261,0 1.3183,0.5244 0.4922,0.5244 0.4922,1.4092 l 0,4.5703 -1.1543,0 0,-4.1953 q 0,-0.709 -0.208,-1.0108 -0.208,-0.3017 -0.6885,-0.3017 -1.0605,0 -1.998,1.3887 l 0,4.1191 z m 12.1113,-0.2051 q -1.1601,0.3516 -1.9863,0.3516 -1.4063,0 -2.294,-0.9346 -0.8877,-0.9346 -0.8877,-2.4228 0,-1.4473 0.7823,-2.3731 0.7822,-0.9258 2.001,-0.9258 1.1543,0 1.7841,0.8203 0.6299,0.8204 0.6299,2.3321 L 119.8477,-3 115.834,-3 q 0.2519,2.2676 2.2207,2.2676 0.7207,0 1.7695,-0.3867 z m -3.9375,-3.6621 2.8067,0 q 0,-1.7754 -1.3243,-1.7754 -1.33,0 -1.4824,1.7754 z M 122.584,0 l -1.8223,-6.3633 1.1309,0 1.3945,4.9278 1.5059,-4.9278 1.1543,0 1.3183,4.9278 1.5996,-4.9278 0.9903,0 L 127.7812,0 126.6211,0 125.2734,-4.9277 123.75,0 z m 8.4726,0 0,-8.6719 2.3614,0 q 1.5703,0 2.2558,0.5303 0.6856,0.5303 0.6856,1.7432 0,1.3828 -0.9375,2.1679 -0.9375,0.7852 -2.6016,0.7852 l -0.5449,0 0,3.4453 z m 1.2188,-4.377 0.498,0 q 1.0957,0 1.6934,-0.5039 0.5977,-0.5039 0.5977,-1.4238 0,-0.7793 -0.4688,-1.1133 -0.4687,-0.334 -1.5645,-0.334 l -0.7558,0 z m 6.1875,4.377 -1.8223,-6.3633 1.1309,0 1.3945,4.9278 1.5059,-4.9278 1.1543,0 1.3183,4.9278 1.5996,-4.9278 0.9903,0 L 143.6602,0 142.5,0 141.1523,-4.9277 139.6289,0 z m 12.5918,0 0,-1.1953 q -0.7031,1.3418 -2.1211,1.3418 -1.1484,0 -1.8076,-0.8379 -0.6592,-0.8379 -0.6592,-2.291 0,-1.5879 0.7471,-2.5547 0.747,-0.9668 1.9658,-0.9668 1.1308,0 1.875,0.8672 l 0,-3.6153 1.1601,0 0,9.252 z m 0,-4.8457 q -0.8965,-0.791 -1.6992,-0.791 -1.6582,0 -1.6582,2.5371 0,2.2324 1.4765,2.2324 0.961,0 1.8809,-1.0488 z M 158.4844,0 l 0,-1.1543 1.1543,0 0,1.1543 z m 0,-5.2031 0,-1.1602 1.1543,0 0,1.1602 z M 165.9141,0 l 0,-6.3633 1.1543,0 0,6.3633 z m 0,-7.5176 0,-1.1543 1.1543,0 0,1.1543 z M 169.3828,0 l 0,-6.3633 1.1543,0 0,1.1953 q 0.9141,-1.3359 2.2383,-1.3359 0.8262,0 1.3184,0.5244 0.4921,0.5244 0.4921,1.4092 l 0,4.5703 -1.1543,0 0,-4.1953 q 0,-0.709 -0.208,-1.0108 -0.208,-0.3017 -0.6884,-0.3017 -1.0606,0 -1.9981,1.3887 l 0,4.1191 z m 9.3574,0.1465 q -0.8789,0 -1.3711,-0.5039 -0.4921,-0.5039 -0.4921,-1.4004 l 0,-3.7383 -0.7969,0 0,-0.8672 0.7969,0 0,-1.1543 1.1542,-0.1113 0,1.2656 1.6641,0 0,0.8672 -1.6641,0 0,3.5273 q 0,1.2481 1.0782,1.2481 0.2285,0 0.5566,-0.0762 l 0,0.7969 q -0.5332,0.1465 -0.9258,0.1465 z m 2.5957,1.7344 0,-0.4336 q 0.5625,-0.1582 0.5625,-1.3301 l 0,-0.1172 -0.5625,0 0,-1.4473 1.4473,0 0,1.2539 q 0,1.9278 -1.4473,2.0743 z m 10.0606,-1.7344 q -1.2891,0 -2.1387,-0.9551 -0.8496,-0.9551 -0.8496,-2.4082 0,-1.5527 0.8408,-2.4199 0.8408,-0.8672 2.3467,-0.8672 0.7441,0 1.6641,0.2051 l 0,0.9668 q -0.9786,-0.2871 -1.5938,-0.2871 -0.8848,0 -1.4209,0.665 -0.5361,0.665 -0.5361,1.7725 0,1.0722 0.5508,1.7343 0.5507,0.6621 1.4414,0.6621 0.791,0 1.6289,-0.4043 l 0,0.9961 q -1.1192,0.3399 -1.9336,0.3399 z m 6.1523,0 q -1.3652,0 -2.1797,-0.9053 -0.8144,-0.9053 -0.8144,-2.4228 0,-1.5352 0.8174,-2.4288 0.8174,-0.8935 2.2177,-0.8935 1.4004,0 2.2178,0.8935 0.8174,0.8936 0.8174,2.417 0,1.5586 -0.8203,2.4493 -0.8203,0.8906 -2.2559,0.8906 z m 0.0176,-0.8672 q 1.834,0 1.834,-2.4727 0,-2.4433 -1.8106,-2.4433 -1.8046,0 -1.8046,2.4551 0,2.4609 1.7812,2.4609 z M 202.4297,0 l 0,-6.3633 1.1543,0 0,1.1953 q 0.914,-1.3359 2.2383,-1.3359 0.8261,0 1.3183,0.5244 0.4922,0.5244 0.4922,1.4092 l 0,4.5703 -1.1543,0 0,-4.1953 q 0,-0.709 -0.208,-1.0108 -0.208,-0.3017 -0.6885,-0.3017 -1.0605,0 -1.998,1.3887 l 0,4.1191 z m 8.8242,-5.4961 0,5.4961 -1.1601,0 0,-5.4961 -0.9024,0 0,-0.8672 0.9024,0 0,-0.7617 q 0,-2.2734 2.0742,-2.2734 0.58,0 1.3183,0.1933 l 0,0.9141 q -0.7793,-0.2402 -1.248,-0.2402 -0.5684,0 -0.7764,0.2724 -0.208,0.2725 -0.208,1.0108 l 0,0.8847 1.5879,0 0,0.8672 z M 214.2891,0 l 0,-6.3633 1.1543,0 0,6.3633 z m 0,-7.5176 0,-1.1543 1.1543,0 0,1.1543 z M 217.7578,0 l 0,-6.3633 1.1543,0 0,1.1953 q 0.6856,-1.3359 1.9922,-1.3359 0.1758,0 0.3691,0.0293 l 0,1.0781 q -0.2988,-0.0996 -0.5273,-0.0996 -1.0957,0 -1.834,1.3008 l 0,4.1953 z m 4.9102,0 0,-6.3633 1.1543,0 0,1.1953 q 0.8437,-1.3359 2.1679,-1.3359 1.2774,0 1.7403,1.3359 0.8203,-1.3418 2.1328,-1.3418 0.8437,0 1.3066,0.4952 0.4629,0.4951 0.4629,1.3857 l 0,4.6289 -1.1601,0 0,-4.4473 q 0,-1.0898 -0.8614,-1.0898 -0.8965,0 -1.8808,1.2715 l 0,4.2656 -1.1602,0 0,-4.4473 q 0,-1.0957 -0.8789,-1.0957 -0.873,0 -1.8691,1.2774 l 0,4.2656 z m 11.1679,0 0,-8.6719 1.2071,0 4.3652,6.6973 0,-6.6973 1.0547,0 0,8.6719 -1.2012,0 -4.3711,-6.6973 0,6.6973 z m 13.5645,-0.2051 q -1.1602,0.3516 -1.9863,0.3516 -1.4063,0 -2.294,-0.9346 -0.8877,-0.9346 -0.8877,-2.4228 0,-1.4473 0.7822,-2.3731 0.7823,-0.9258 2.001,-0.9258 1.1543,0 1.7842,0.8203 0.6299,0.8204 0.6299,2.3321 l -0.006,0.3574 -4.0136,0 q 0.2519,2.2676 2.2207,2.2676 0.7207,0 1.7695,-0.3867 z m -3.9375,-3.6621 2.8066,0 q 0,-1.7754 -1.3242,-1.7754 -1.3301,0 -1.4824,1.7754 z M 250.1602,0 l -1.8223,-6.3633 1.1309,0 1.3945,4.9278 1.5058,-4.9278 1.1543,0 1.3184,4.9278 1.5996,-4.9278 0.9902,0 L 255.3574,0 254.1973,0 252.8496,-4.9277 251.3262,0 z m 8.4726,0 0,-8.6719 2.3613,0 q 1.5704,0 2.2559,0.5303 0.6855,0.5303 0.6855,1.7432 0,1.3828 -0.9375,2.1679 -0.9375,0.7852 -2.6015,0.7852 l -0.5449,0 0,3.4453 z m 1.2188,-4.377 0.498,0 q 1.0957,0 1.6934,-0.5039 0.5976,-0.5039 0.5976,-1.4238 0,-0.7793 -0.4687,-1.1133 -0.4688,-0.334 -1.5645,-0.334 l -0.7558,0 z m 6.1875,4.377 -1.8223,-6.3633 1.1309,0 1.3945,4.9278 1.5058,-4.9278 1.1543,0 1.3184,4.9278 1.5996,-4.9278 0.9902,0 L 271.2363,0 270.0762,0 268.7285,-4.9277 267.2051,0 z m 12.5918,0 0,-1.1953 q -0.7032,1.3418 -2.1211,1.3418 -1.1485,0 -1.8077,-0.8379 -0.6591,-0.8379 -0.6591,-2.291 0,-1.5879 0.747,-2.5547 0.7471,-0.9668 1.9659,-0.9668 1.1308,0 1.875,0.8672 l 0,-3.6153 1.1601,0 0,9.252 z m 0,-4.8457 q -0.8965,-0.791 -1.6993,-0.791 -1.6582,0 -1.6582,2.5371 0,2.2324 1.4766,2.2324 0.9609,0 1.8809,-1.0488 z M 286.0605,0 l 0,-1.1543 1.1543,0 0,1.1543 z m 0,-5.2031 0,-1.1602 1.1543,0 0,1.1602 z M 293.4902,0 l 0,-6.3633 1.1543,0 0,6.3633 z m 0,-7.5176 0,-1.1543 1.1543,0 0,1.1543 z M 296.959,0 l 0,-6.3633 1.1543,0 0,1.1953 q 0.914,-1.3359 2.2383,-1.3359 0.8261,0 1.3183,0.5244 0.4922,0.5244 0.4922,1.4092 l 0,4.5703 -1.1543,0 0,-4.1953 q 0,-0.709 -0.208,-1.0108 -0.208,-0.3017 -0.6885,-0.3017 -1.0605,0 -1.998,1.3887 l 0,4.1191 z m 9.3574,0.1465 q -0.8789,0 -1.3711,-0.5039 -0.4922,-0.5039 -0.4922,-1.4004 l 0,-3.7383 -0.7969,0 0,-0.8672 0.7969,0 0,-1.1543 1.1543,-0.1113 0,1.2656 1.6641,0 0,0.8672 -1.6641,0 0,3.5273 q 0,1.2481 1.0781,1.2481 0.2286,0 0.5567,-0.0762 l 0,0.7969 q -0.5332,0.1465 -0.9258,0.1465 z m 1.8574,0.791 0,0.7969 q 1.2657,-0.8614 2.0069,-2.3408 0.7412,-1.4795 0.7412,-3.1553 0,-1.6699 -0.7412,-3.1494 -0.7412,-1.4795 -2.0069,-2.3409 l 0,0.7969 q 0.8614,0.9375 1.2276,2.0156 0.3662,1.0782 0.3662,2.6778 0,1.6055 -0.3662,2.6836 Q 309.0352,0 308.1738,0.9375 z M 316.7578,0 l 0,-1.1543 1.1543,0 0,1.1543 z m 0,-5.2031 0,-1.1602 1.1543,0 0,1.1602 z M 325.5059,0 l -2.3672,-6.3633 1.1543,0 1.8515,4.9512 1.9512,-4.9512 1.0781,0 L 326.6602,0 z m 7.3828,0.1465 q -1.3653,0 -2.1797,-0.9053 -0.8145,-0.9053 -0.8145,-2.4228 0,-1.5352 0.8174,-2.4288 0.8174,-0.8935 2.2178,-0.8935 1.4004,0 2.2178,0.8935 0.8173,0.8936 0.8173,2.417 0,1.5586 -0.8203,2.4493 -0.8203,0.8906 -2.2558,0.8906 z m 0.0175,-0.8672 q 1.834,0 1.834,-2.4727 0,-2.4433 -1.8105,-2.4433 -1.8047,0 -1.8047,2.4551 0,2.4609 1.7812,2.4609 z M 337.7695,0 l 0,-6.3633 1.1543,0 0,6.3633 z m 0,-7.5176 0,-1.1543 1.1543,0 0,1.1543 z M 345.3223,0 l 0,-1.1953 q -0.7032,1.3418 -2.1211,1.3418 -1.1485,0 -1.8076,-0.8379 -0.6592,-0.8379 -0.6592,-2.291 0,-1.5879 0.747,-2.5547 0.7471,-0.9668 1.9659,-0.9668 1.1308,0 1.875,0.8672 l 0,-3.6153 1.1601,0 0,9.252 z m 0,-4.8457 q -0.8965,-0.791 -1.6993,-0.791 -1.6582,0 -1.6582,2.5371 0,2.2324 1.4766,2.2324 0.9609,0 1.8809,-1.0488 z" />
  </g>
  <g
     id="g74"
     transform="matrix(1.3333,0,0,1.3333,238.6607,344.52259)"
     style="stroke-width:2;font-family:sans-serif">
    <path
       inkscape:connector-curvature="0"
       clip-path="url(#clipPath6)"
       id="path76"
       style="stroke:none"
       d="m 4.3359,0 0,-3.0352 -3.0351,0 0,-0.8671 3.0351,0 0,-3.0352 0.8672,0 0,3.0352 3.0352,0 0,0.8671 -3.0352,0 0,3.0352 z m 10.1543,0 0,-6.3633 1.1543,0 0,1.1953 q 0.6856,-1.3359 1.9922,-1.3359 0.1758,0 0.3692,0.0293 l 0,1.0781 q -0.2989,-0.0996 -0.5274,-0.0996 -1.0957,0 -1.834,1.3008 l 0,4.1953 z m 9.5743,-0.2051 q -1.1602,0.3516 -1.9864,0.3516 -1.4062,0 -2.2939,-0.9346 -0.8877,-0.9346 -0.8877,-2.4228 0,-1.4473 0.7822,-2.3731 0.7822,-0.9258 2.001,-0.9258 1.1543,0 1.7842,0.8203 0.6299,0.8204 0.6299,2.3321 L 24.0879,-3 20.0742,-3 q 0.252,2.2676 2.2207,2.2676 0.7207,0 1.7696,-0.3867 z m -3.9375,-3.6621 2.8066,0 q 0,-1.7754 -1.3242,-1.7754 -1.3301,0 -1.4824,1.7754 z m 5.9824,5.9824 0.1347,-1.0019 q 1.002,0.4746 1.9747,0.4746 1.9511,0 1.9511,-2.0684 l 0,-1.0019 q -0.6387,1.3359 -2.0976,1.3359 -1.1426,0 -1.8164,-0.832 -0.6739,-0.832 -0.6739,-2.2442 0,-1.4531 0.7676,-2.3671 0.7676,-0.9141 1.9863,-0.9141 1.0664,0 1.834,0.8672 l 0,-0.7266 1.1602,0 0,4.6289 q 0,1.4942 -0.1553,2.2119 -0.1553,0.7178 -0.583,1.1748 -0.7559,0.8028 -2.3496,0.8028 -1.1133,0 -2.1328,-0.3399 z m 4.0605,-4.3183 0,-2.6426 q -0.7617,-0.791 -1.6582,-0.791 -0.7969,0 -1.248,0.6387 -0.4512,0.6386 -0.4512,1.7519 0,2.0918 1.4707,2.0918 1.002,0 1.8867,-1.0488 z M 33.5684,0 l 0,-6.3633 1.1543,0 0,6.3633 z m 0,-7.5176 0,-1.1543 1.1543,0 0,1.1543 z m 5.1562,7.6641 q -0.791,0 -1.9219,-0.3692 l 0,-1.0605 q 1.1309,0.5625 1.9688,0.5625 0.498,0 0.8262,-0.2695 0.3281,-0.2696 0.3281,-0.6739 0,-0.5918 -0.9199,-0.9785 L 38.332,-2.9297 q -1.4941,-0.6211 -1.4941,-1.7871 0,-0.832 0.5889,-1.3096 0.5888,-0.4775 1.6142,-0.4775 0.5332,0 1.3184,0.1465 l 0.2402,0.0469 0,0.9609 q -0.9668,-0.2871 -1.5351,-0.2871 -1.1133,0 -1.1133,0.8086 0,0.5215 0.8437,0.8789 l 0.5567,0.2344 q 0.9433,0.3984 1.3359,0.8408 0.3926,0.4424 0.3926,1.1045 0,0.8379 -0.6621,1.3769 -0.6621,0.5391 -1.6934,0.5391 z m 6.3399,0 q -0.879,0 -1.3711,-0.5039 -0.4922,-0.5039 -0.4922,-1.4004 l 0,-3.7383 -0.7969,0 0,-0.8672 0.7969,0 0,-1.1543 1.1543,-0.1113 0,1.2656 1.664,0 0,0.8672 -1.664,0 0,3.5273 q 0,1.2481 1.0781,1.2481 0.2285,0 0.5566,-0.0762 l 0,0.7969 Q 45.457,0.1465 45.0645,0.1465 z m 7.2421,-0.3516 q -1.1601,0.3516 -1.9863,0.3516 -1.4062,0 -2.2939,-0.9346 -0.8877,-0.9346 -0.8877,-2.4228 0,-1.4473 0.7822,-2.3731 0.7822,-0.9258 2.001,-0.9258 1.1543,0 1.7842,0.8203 0.6298,0.8204 0.6298,2.3321 L 52.3301,-3 48.3164,-3 q 0.252,2.2676 2.2207,2.2676 0.7207,0 1.7695,-0.3867 z m -3.9375,-3.6621 2.8067,0 q 0,-1.7754 -1.3242,-1.7754 -1.3301,0 -1.4825,1.7754 z M 54.3281,0 l 0,-6.3633 1.1543,0 0,1.1953 q 0.6856,-1.3359 1.9922,-1.3359 0.1758,0 0.3692,0.0293 l 0,1.0781 q -0.2989,-0.0996 -0.5274,-0.0996 -1.0957,0 -1.834,1.3008 l 0,4.1953 z m 7.2246,0.9375 0,0.7969 q -1.2656,-0.8614 -2.0068,-2.3408 -0.7412,-1.4795 -0.7412,-3.1553 0,-1.6699 0.7412,-3.1494 0.7412,-1.4795 2.0068,-2.3409 l 0,0.7969 q -0.8613,0.9375 -1.2275,2.0156 -0.3662,1.0782 -0.3662,2.6778 0,1.6055 0.3662,2.6836 Q 60.6914,0 61.5527,0.9375 z m 4.0723,-0.791 q -1.2891,0 -2.1387,-0.9551 -0.8496,-0.9551 -0.8496,-2.4082 0,-1.5527 0.8408,-2.4199 0.8409,-0.8672 2.3467,-0.8672 0.7442,0 1.6641,0.2051 l 0,0.9668 q -0.9785,-0.2871 -1.5938,-0.2871 -0.8847,0 -1.4209,0.665 -0.5361,0.665 -0.5361,1.7725 0,1.0722 0.5508,1.7343 0.5508,0.6621 1.4414,0.6621 0.791,0 1.6289,-0.4043 l 0,0.9961 Q 66.4395,0.1465 65.625,0.1465 z M 69.2871,0 l 0,-6.3633 1.1543,0 0,1.1953 q 0.6856,-1.3359 1.9922,-1.3359 0.1758,0 0.3691,0.0293 l 0,1.0781 q -0.2988,-0.0996 -0.5273,-0.0996 -1.0957,0 -1.834,1.3008 l 0,4.1953 z m 9.5742,-0.2051 q -1.1601,0.3516 -1.9863,0.3516 -1.4062,0 -2.2939,-0.9346 -0.8877,-0.9346 -0.8877,-2.4228 0,-1.4473 0.7822,-2.3731 0.7822,-0.9258 2.001,-0.9258 1.1543,0 1.7841,0.8203 0.6299,0.8204 0.6299,2.3321 L 78.8848,-3 74.8711,-3 q 0.2519,2.2676 2.2207,2.2676 0.7207,0 1.7695,-0.3867 z m -3.9375,-3.6621 2.8067,0 q 0,-1.7754 -1.3243,-1.7754 -1.33,0 -1.4824,1.7754 z M 84.9668,0 l 0,-1.1953 q -0.7031,1.3418 -2.1211,1.3418 -1.1484,0 -1.8076,-0.8379 -0.6592,-0.8379 -0.6592,-2.291 0,-1.5879 0.7471,-2.5547 0.747,-0.9668 1.9658,-0.9668 1.1309,0 1.875,0.8672 l 0,-3.6153 1.1602,0 0,9.252 z m 0,-4.8457 q -0.8965,-0.791 -1.6992,-0.791 -1.6582,0 -1.6582,2.5371 0,2.2324 1.4765,2.2324 0.961,0 1.8809,-1.0488 z M 92.3965,0 l 0,-1.1543 1.1543,0 0,1.1543 z m 0,-5.2031 0,-1.1602 1.1543,0 0,1.1602 z M 99.8262,0 l 0,-6.3633 1.1543,0 0,6.3633 z m 0,-7.5176 0,-1.1543 1.1543,0 0,1.1543 z M 103.2949,0 l 0,-6.3633 1.1543,0 0,1.1953 q 0.9141,-1.3359 2.2383,-1.3359 0.8262,0 1.3184,0.5244 0.4921,0.5244 0.4921,1.4092 l 0,4.5703 -1.1542,0 0,-4.1953 q 0,-0.709 -0.2081,-1.0108 -0.208,-0.3017 -0.6884,-0.3017 -1.0606,0 -1.9981,1.3887 l 0,4.1191 z m 9.3574,0.1465 q -0.8789,0 -1.3711,-0.5039 -0.4921,-0.5039 -0.4921,-1.4004 l 0,-3.7383 -0.7969,0 0,-0.8672 0.7969,0 0,-1.1543 1.1543,-0.1113 0,1.2656 1.664,0 0,0.8672 -1.664,0 0,3.5273 q 0,1.2481 1.0781,1.2481 0.2285,0 0.5566,-0.0762 l 0,0.7969 q -0.5332,0.1465 -0.9258,0.1465 z m 1.8575,0.791 0,0.7969 q 1.2656,-0.8614 2.0068,-2.3408 0.7412,-1.4795 0.7412,-3.1553 0,-1.6699 -0.7412,-3.1494 -0.7412,-1.4795 -2.0068,-2.3409 l 0,0.7969 q 0.8613,0.9375 1.2275,2.0156 0.3662,1.0782 0.3662,2.6778 0,1.6055 -0.3662,2.6836 Q 115.3711,0 114.5098,0.9375 z M 123.0938,0 l 0,-1.1543 1.1542,0 0,1.1543 z m 0,-5.2031 0,-1.1602 1.1542,0 0,1.1602 z m 8.748,5.2031 -2.3672,-6.3633 1.1543,0 1.8516,4.9512 1.9511,-4.9512 1.0782,0 L 132.9961,0 z m 7.3828,0.1465 q -1.3652,0 -2.1797,-0.9053 -0.8144,-0.9053 -0.8144,-2.4228 0,-1.5352 0.8174,-2.4288 0.8173,-0.8935 2.2177,-0.8935 1.4004,0 2.2178,0.8935 0.8174,0.8936 0.8174,2.417 0,1.5586 -0.8203,2.4493 -0.8203,0.8906 -2.2559,0.8906 z m 0.0176,-0.8672 q 1.834,0 1.834,-2.4727 0,-2.4433 -1.8106,-2.4433 -1.8047,0 -1.8047,2.4551 0,2.4609 1.7813,2.4609 z M 144.1055,0 l 0,-6.3633 1.1543,0 0,6.3633 z m 0,-7.5176 0,-1.1543 1.1543,0 0,1.1543 z M 151.6582,0 l 0,-1.1953 q -0.7031,1.3418 -2.1211,1.3418 -1.1484,0 -1.8076,-0.8379 -0.6592,-0.8379 -0.6592,-2.291 0,-1.5879 0.7471,-2.5547 0.7471,-0.9668 1.9658,-0.9668 1.1309,0 1.875,0.8672 l 0,-3.6153 1.1602,0 0,9.252 z m 0,-4.8457 q -0.8965,-0.791 -1.6992,-0.791 -1.6582,0 -1.6582,2.5371 0,2.2324 1.4765,2.2324 0.961,0 1.8809,-1.0488 z" />
  </g>
  <g
     id="g78"
     transform="matrix(1.3333,0,0,1.3333,238.6607,315.01292)"
     style="stroke-width:2;font-family:sans-serif">
    <path
       inkscape:connector-curvature="0"
       clip-path="url(#clipPath7)"
       id="path80"
       style="stroke:none"
       d="m 0.8672,-3.0352 0,-0.8671 5.2031,0 0,0.8671 z M 15.0762,0 l 0,-3.0352 -3.0352,0 0,-0.8671 3.0352,0 0,-3.0352 0.8672,0 0,3.0352 3.0351,0 0,0.8671 -3.0351,0 0,3.0352 z m 10.1543,0 0,-6.3633 1.1543,0 0,1.1953 q 0.8437,-1.3359 2.1679,-1.3359 1.2774,0 1.7403,1.3359 0.8203,-1.3418 2.1328,-1.3418 0.8437,0 1.3066,0.4952 0.4629,0.4951 0.4629,1.3857 l 0,4.6289 -1.1601,0 0,-4.4473 q 0,-1.0898 -0.8614,-1.0898 -0.8965,0 -1.8808,1.2715 l 0,4.2656 -1.1602,0 0,-4.4473 q 0,-1.0957 -0.8789,-1.0957 -0.873,0 -1.8691,1.2774 l 0,4.2656 z m 14.4843,-0.8086 q -1.0371,0.9551 -1.998,0.9551 -0.791,0 -1.3125,-0.4951 -0.5215,-0.4952 -0.5215,-1.251 0,-1.043 0.876,-1.6025 0.876,-0.5596 2.5107,-0.5596 l 0.2754,0 0,-0.7676 q 0,-1.1074 -1.1367,-1.1074 -0.9141,0 -1.9746,0.5625 l 0,-0.9551 q 1.166,-0.4746 2.1855,-0.4746 1.0664,0 1.5733,0.4805 0.5068,0.4804 0.5068,1.4941 l 0,2.8828 q 0,0.9903 0.6094,0.9903 0.0762,0 0.2226,-0.0235 l 0.0821,0.6387 q -0.3926,0.1875 -0.8672,0.1875 -0.8086,0 -1.0313,-0.9551 z m -0.1699,-0.6269 0,-1.6465 -0.3867,-0.0118 q -0.9492,0 -1.5352,0.3604 -0.5859,0.3604 -0.5859,0.9463 0,0.416 0.293,0.7031 0.2929,0.2871 0.7148,0.2871 0.7207,0 1.5,-0.6386 z m 5.4258,1.582 q -0.8789,0 -1.3711,-0.5039 -0.4922,-0.5039 -0.4922,-1.4004 l 0,-3.7383 -0.7969,0 0,-0.8672 0.7969,0 0,-1.1543 1.1543,-0.1113 0,1.2656 1.6641,0 0,0.8672 -1.6641,0 0,3.5273 q 0,1.2481 1.0781,1.2481 0.2286,0 0.5567,-0.0762 l 0,0.7969 q -0.5332,0.1465 -0.9258,0.1465 z m 5.0625,0 q -1.2891,0 -2.1387,-0.9551 -0.8496,-0.9551 -0.8496,-2.4082 0,-1.5527 0.8408,-2.4199 0.8409,-0.8672 2.3467,-0.8672 0.7442,0 1.6641,0.2051 l 0,0.9668 q -0.9785,-0.2871 -1.5938,-0.2871 -0.8847,0 -1.4209,0.665 -0.5361,0.665 -0.5361,1.7725 0,1.0722 0.5508,1.7343 0.5508,0.6621 1.4414,0.6621 0.791,0 1.6289,-0.4043 l 0,0.9961 Q 50.8477,0.1465 50.0332,0.1465 z M 53.6953,0 l 0,-9.252 1.1543,0 0,4.084 q 0.9141,-1.3359 2.2383,-1.3359 0.8262,0 1.3183,0.5244 0.4922,0.5244 0.4922,1.4092 l 0,4.5703 -1.1543,0 0,-4.1953 q 0,-0.709 -0.208,-1.0108 -0.208,-0.3017 -0.6884,-0.3017 -1.0606,0 -1.9981,1.3887 l 0,4.1191 z m 7.4121,0 0,-8.6719 2.3614,0 q 1.5703,0 2.2558,0.5303 0.6856,0.5303 0.6856,1.7432 0,1.3828 -0.9375,2.1679 -0.9375,0.7852 -2.6016,0.7852 l -0.5449,0 0,3.4453 z m 1.2188,-4.377 0.498,0 q 1.0957,0 1.6934,-0.5039 0.5976,-0.5039 0.5976,-1.4238 0,-0.7793 -0.4687,-1.1133 -0.4688,-0.334 -1.5645,-0.334 l -0.7558,0 z M 68.5137,0 l -1.8223,-6.3633 1.1309,0 1.3945,4.9278 1.5059,-4.9278 1.1543,0 1.3183,4.9278 1.5996,-4.9278 0.9903,0 L 73.7109,0 72.5508,0 71.2031,-4.9277 69.6797,0 z m 12.5918,0 0,-1.1953 q -0.7032,1.3418 -2.1211,1.3418 -1.1485,0 -1.8076,-0.8379 -0.6592,-0.8379 -0.6592,-2.291 0,-1.5879 0.747,-2.5547 0.7471,-0.9668 1.9659,-0.9668 1.1308,0 1.875,0.8672 l 0,-3.6153 1.1601,0 0,9.252 z m 0,-4.8457 q -0.8965,-0.791 -1.6993,-0.791 -1.6582,0 -1.6582,2.5371 0,2.2324 1.4766,2.2324 0.9609,0 1.8809,-1.0488 z M 88.5352,0 l 0,-1.1543 1.1543,0 0,1.1543 z m 0,-5.2031 0,-1.1602 1.1543,0 0,1.1602 z m 7.4296,5.2734 0,-9.3223 1.1543,0 0,4.084 q 0.709,-1.3359 2.127,-1.3359 1.1484,0 1.8076,0.8379 0.6592,0.8379 0.6592,2.291 0,1.582 -0.7471,2.5518 -0.747,0.9697 -1.9658,0.9697 -1.1309,0 -1.8809,-0.8672 l -0.1406,0.791 z m 1.1543,-1.5879 q 0.8907,0.7969 1.6993,0.7969 1.664,0 1.664,-2.5371 0,-2.2383 -1.4765,-2.2383 -0.9668,0 -1.8868,1.0488 z m 8.8887,1.6641 q -1.3652,0 -2.1797,-0.9053 -0.8144,-0.9053 -0.8144,-2.4228 0,-1.5352 0.8174,-2.4288 0.8173,-0.8935 2.2177,-0.8935 1.4004,0 2.2178,0.8935 0.8174,0.8936 0.8174,2.417 0,1.5586 -0.8203,2.4493 -0.8203,0.8906 -2.2559,0.8906 z m 0.0176,-0.8672 q 1.834,0 1.834,-2.4727 0,-2.4433 -1.8106,-2.4433 -1.8047,0 -1.8047,2.4551 0,2.4609 1.7813,2.4609 z m 7.3535,0.8672 q -1.3652,0 -2.1797,-0.9053 -0.8144,-0.9053 -0.8144,-2.4228 0,-1.5352 0.8173,-2.4288 0.8174,-0.8935 2.2178,-0.8935 1.4004,0 2.2178,0.8935 0.8174,0.8936 0.8174,2.417 0,1.5586 -0.8203,2.4493 -0.8203,0.8906 -2.2559,0.8906 z m 0.0176,-0.8672 q 1.834,0 1.834,-2.4727 0,-2.4433 -1.8106,-2.4433 -1.8047,0 -1.8047,2.4551 0,2.4609 1.7813,2.4609 z M 118.2598,0 l 0,-9.252 1.1543,0 0,9.252 z m 8.1328,-0.2051 q -1.1602,0.3516 -1.9864,0.3516 -1.4062,0 -2.2939,-0.9346 -0.8877,-0.9346 -0.8877,-2.4228 0,-1.4473 0.7822,-2.3731 0.7823,-0.9258 2.001,-0.9258 1.1543,0 1.7842,0.8203 0.6299,0.8204 0.6299,2.3321 L 126.416,-3 l -4.0137,0 q 0.252,2.2676 2.2207,2.2676 0.7208,0 1.7696,-0.3867 z m -3.9375,-3.6621 2.8066,0 q 0,-1.7754 -1.3242,-1.7754 -1.3301,0 -1.4824,1.7754 z m 9.2402,3.0586 q -1.0371,0.9551 -1.998,0.9551 -0.7911,0 -1.3125,-0.4951 -0.5215,-0.4952 -0.5215,-1.251 0,-1.043 0.876,-1.6025 0.8759,-0.5596 2.5107,-0.5596 l 0.2754,0 0,-0.7676 q 0,-1.1074 -1.1367,-1.1074 -0.9141,0 -1.9746,0.5625 l 0,-0.9551 q 1.166,-0.4746 2.1855,-0.4746 1.0664,0 1.5733,0.4805 0.5068,0.4804 0.5068,1.4941 l 0,2.8828 q 0,0.9903 0.6094,0.9903 0.0761,0 0.2226,-0.0235 l 0.0821,0.6387 q -0.3926,0.1875 -0.8672,0.1875 -0.8086,0 -1.0313,-0.9551 z m -0.1699,-0.6269 0,-1.6465 -0.3867,-0.0118 q -0.9492,0 -1.5352,0.3604 -0.5859,0.3604 -0.5859,0.9463 0,0.416 0.2929,0.7031 0.293,0.2871 0.7149,0.2871 0.7207,0 1.5,-0.6386 z M 135.041,0 l 0,-6.3633 1.1543,0 0,1.1953 q 0.9141,-1.3359 2.2383,-1.3359 0.8262,0 1.3184,0.5244 0.4921,0.5244 0.4921,1.4092 l 0,4.5703 -1.1543,0 0,-4.1953 q 0,-0.709 -0.208,-1.0108 -0.208,-0.3017 -0.6884,-0.3017 -1.0606,0 -1.9981,1.3887 l 0,4.1191 z" />
  </g>
  <g
     id="g82"
     transform="matrix(1.3333,0,0,1.3333,238.6607,296.16966)"
     style="stroke-width:2;font-family:sans-serif">
    <path
       inkscape:connector-curvature="0"
       clip-path="url(#clipPath8)"
       id="path84"
       style="stroke:none"
       d="m 0.8672,-3.0352 0,-0.8671 5.2031,0 0,0.8671 z M 15.0762,0 l 0,-3.0352 -3.0352,0 0,-0.8671 3.0352,0 0,-3.0352 0.8672,0 0,3.0352 3.0351,0 0,0.8671 -3.0351,0 0,3.0352 z m 12.6386,0.1465 q -1.289,0 -2.1386,-0.9551 -0.8496,-0.9551 -0.8496,-2.4082 0,-1.5527 0.8408,-2.4199 0.8408,-0.8672 2.3467,-0.8672 0.7441,0 1.664,0.2051 l 0,0.9668 q -0.9785,-0.2871 -1.5937,-0.2871 -0.8848,0 -1.4209,0.665 -0.5362,0.665 -0.5362,1.7725 0,1.0722 0.5508,1.7343 0.5508,0.6621 1.4414,0.6621 0.791,0 1.6289,-0.4043 l 0,0.9961 Q 28.5293,0.1465 27.7148,0.1465 z M 31.377,0 l 0,-6.3633 1.1542,0 0,1.1953 q 0.6856,-1.3359 1.9922,-1.3359 0.1758,0 0.3692,0.0293 l 0,1.0781 q -0.2988,-0.0996 -0.5274,-0.0996 -1.0957,0 -1.834,1.3008 l 0,4.1953 z m 9.5742,-0.2051 q -1.1602,0.3516 -1.9864,0.3516 -1.4062,0 -2.2939,-0.9346 -0.8877,-0.9346 -0.8877,-2.4228 0,-1.4473 0.7822,-2.3731 0.7823,-0.9258 2.001,-0.9258 1.1543,0 1.7842,0.8203 0.6299,0.8204 0.6299,2.3321 L 40.9746,-3 36.9609,-3 q 0.252,2.2676 2.2207,2.2676 0.7207,0 1.7696,-0.3867 z m -3.9375,-3.6621 2.8066,0 q 0,-1.7754 -1.3242,-1.7754 -1.3301,0 -1.4824,1.7754 z M 47.0566,0 l 0,-1.1953 q -0.7031,1.3418 -2.1211,1.3418 -1.1484,0 -1.8076,-0.8379 -0.6591,-0.8379 -0.6591,-2.291 0,-1.5879 0.747,-2.5547 0.7471,-0.9668 1.9658,-0.9668 1.1309,0 1.875,0.8672 l 0,-3.6153 1.1602,0 0,9.252 z m 0,-4.8457 q -0.8964,-0.791 -1.6992,-0.791 -1.6582,0 -1.6582,2.5371 0,2.2324 1.4766,2.2324 0.9609,0 1.8808,-1.0488 z m 8.1329,4.6406 q -1.1602,0.3516 -1.9864,0.3516 -1.4062,0 -2.2939,-0.9346 -0.8877,-0.9346 -0.8877,-2.4228 0,-1.4473 0.7822,-2.3731 0.7822,-0.9258 2.001,-0.9258 1.1543,0 1.7842,0.8203 0.6299,0.8204 0.6299,2.3321 L 55.2129,-3 51.1992,-3 q 0.252,2.2676 2.2207,2.2676 0.7207,0 1.7696,-0.3867 z m -3.9375,-3.6621 2.8066,0 q 0,-1.7754 -1.3242,-1.7754 -1.3301,0 -1.4824,1.7754 z M 57.2109,0 l 0,-6.3633 1.1543,0 0,1.1953 q 0.9141,-1.3359 2.2383,-1.3359 0.8262,0 1.3184,0.5244 0.4922,0.5244 0.4922,1.4092 l 0,4.5703 -1.1543,0 0,-4.1953 q 0,-0.709 -0.208,-1.0108 -0.208,-0.3017 -0.6885,-0.3017 -1.0606,0 -1.9981,1.3887 l 0,4.1191 z m 9.3575,0.1465 q -0.8789,0 -1.3711,-0.5039 -0.4922,-0.5039 -0.4922,-1.4004 l 0,-3.7383 -0.7969,0 0,-0.8672 0.7969,0 0,-1.1543 1.1543,-0.1113 0,1.2656 1.664,0 0,0.8672 -1.664,0 0,3.5273 q 0,1.2481 1.0781,1.2481 0.2285,0 0.5566,-0.0762 l 0,0.7969 Q 66.9609,0.1465 66.5684,0.1465 z M 69.1465,0 l 0,-6.3633 1.1543,0 0,6.3633 z m 0,-7.5176 0,-1.1543 1.1543,0 0,1.1543 z m 6.75,6.709 q -1.0371,0.9551 -1.9981,0.9551 -0.791,0 -1.3125,-0.4951 -0.5214,-0.4952 -0.5214,-1.251 0,-1.043 0.8759,-1.6025 0.876,-0.5596 2.5108,-0.5596 l 0.2754,0 0,-0.7676 q 0,-1.1074 -1.1368,-1.1074 -0.914,0 -1.9746,0.5625 l 0,-0.9551 q 1.166,-0.4746 2.1856,-0.4746 1.0664,0 1.5732,0.4805 0.5069,0.4804 0.5069,1.4941 l 0,2.8828 q 0,0.9903 0.6093,0.9903 0.0762,0 0.2227,-0.0235 l 0.082,0.6387 q -0.3926,0.1875 -0.8672,0.1875 -0.8086,0 -1.0312,-0.9551 z m -0.1699,-0.6269 0,-1.6465 -0.3868,-0.0118 q -0.9492,0 -1.5351,0.3604 -0.5859,0.3604 -0.5859,0.9463 0,0.416 0.2929,0.7031 0.293,0.2871 0.7149,0.2871 0.7207,0 1.5,-0.6386 z M 79.2422,0 l 0,-9.252 1.1543,0 0,9.252 z m 5.1562,0.1465 q -0.791,0 -1.9218,-0.3692 l 0,-1.0605 q 1.1308,0.5625 1.9687,0.5625 0.4981,0 0.8262,-0.2695 0.3281,-0.2696 0.3281,-0.6739 0,-0.5918 -0.9199,-0.9785 l -0.6738,-0.2871 q -1.4942,-0.6211 -1.4942,-1.7871 0,-0.832 0.5889,-1.3096 0.5889,-0.4775 1.6142,-0.4775 0.5332,0 1.3184,0.1465 l 0.2402,0.0469 0,0.9609 q -0.9668,-0.2871 -1.5351,-0.2871 -1.1133,0 -1.1133,0.8086 0,0.5215 0.8438,0.8789 l 0.5566,0.2344 q 0.9434,0.3984 1.3359,0.8408 0.3926,0.4424 0.3926,1.1045 0,0.8379 -0.6621,1.3769 -0.6621,0.5391 -1.6934,0.5391 z M 92.7891,0 l 0,-1.1543 1.1543,0 0,1.1543 z m 0,-5.2031 0,-1.1602 1.1543,0 0,1.1602 z m 9.9199,5.3496 q -1.3652,0 -2.1797,-0.9053 -0.8145,-0.9053 -0.8145,-2.4228 0,-1.5352 0.8174,-2.4288 0.8174,-0.8935 2.2178,-0.8935 1.4004,0 2.2178,0.8935 0.8174,0.8936 0.8174,2.417 0,1.5586 -0.8204,2.4493 -0.8203,0.8906 -2.2558,0.8906 z m 0.0176,-0.8672 q 1.8339,0 1.8339,-2.4727 0,-2.4433 -1.8105,-2.4433 -1.8047,0 -1.8047,2.4551 0,2.4609 1.7813,2.4609 z m 4.8867,2.8359 0.1347,-1.0019 q 1.002,0.4746 1.9747,0.4746 1.9511,0 1.9511,-2.0684 l 0,-1.0019 q -0.6386,1.3359 -2.0976,1.3359 -1.1426,0 -1.8164,-0.832 -0.6739,-0.832 -0.6739,-2.2442 0,-1.4531 0.7676,-2.3671 0.7676,-0.9141 1.9863,-0.9141 1.0664,0 1.834,0.8672 l 0,-0.7266 1.1602,0 0,4.6289 q 0,1.4942 -0.1553,2.2119 -0.1553,0.7178 -0.583,1.1748 -0.7559,0.8028 -2.3496,0.8028 -1.1133,0 -2.1328,-0.3399 z m 4.0605,-4.3183 0,-2.6426 q -0.7617,-0.791 -1.6582,-0.791 -0.7968,0 -1.248,0.6387 -0.4512,0.6386 -0.4512,1.7519 0,2.0918 1.4707,2.0918 1.002,0 1.8867,-1.0488 z m 3.4219,4.3183 0.1348,-1.0019 q 1.0019,0.4746 1.9746,0.4746 1.9511,0 1.9511,-2.0684 l 0,-1.0019 q -0.6386,1.3359 -2.0976,1.3359 -1.1426,0 -1.8164,-0.832 -0.6738,-0.832 -0.6738,-2.2442 0,-1.4531 0.7675,-2.3671 0.7676,-0.9141 1.9864,-0.9141 1.0664,0 1.8339,0.8672 l 0,-0.7266 1.1602,0 0,4.6289 q 0,1.4942 -0.1553,2.2119 -0.1552,0.7178 -0.583,1.1748 -0.7558,0.8028 -2.3496,0.8028 -1.1133,0 -2.1328,-0.3399 z m 4.0605,-4.3183 0,-2.6426 q -0.7617,-0.791 -1.6582,-0.791 -0.7968,0 -1.248,0.6387 -0.4512,0.6386 -0.4512,1.7519 0,2.0918 1.4707,2.0918 1.002,0 1.8867,-1.0488 z m 8.0626,1.998 q -1.1602,0.3516 -1.9864,0.3516 -1.4062,0 -2.2939,-0.9346 -0.8877,-0.9346 -0.8877,-2.4228 0,-1.4473 0.7822,-2.3731 0.7822,-0.9258 2.001,-0.9258 1.1543,0 1.7842,0.8203 0.6298,0.8204 0.6298,2.3321 L 127.242,-3 l -4.0137,0 q 0.252,2.2676 2.2207,2.2676 0.7207,0 1.7696,-0.3867 z m -3.9376,-3.6621 2.8067,0 q 0,-1.7754 -1.3242,-1.7754 -1.3301,0 -1.4825,1.7754 z m 7.8692,4.0137 q -0.8789,0 -1.3711,-0.5039 -0.4922,-0.5039 -0.4922,-1.4004 l 0,-3.7383 -0.7969,0 0,-0.8672 0.7969,0 0,-1.1543 1.1543,-0.1113 0,1.2656 1.6641,0 0,0.8672 -1.6641,0 0,3.5273 q 0,1.2481 1.0781,1.2481 0.2285,0 0.5567,-0.0762 l 0,0.7969 q -0.5332,0.1465 -0.9258,0.1465 z m 4.4883,0 q -0.8789,0 -1.3711,-0.5039 -0.4922,-0.5039 -0.4922,-1.4004 l 0,-3.7383 -0.7969,0 0,-0.8672 0.7969,0 0,-1.1543 1.1543,-0.1113 0,1.2656 1.6641,0 0,0.8672 -1.6641,0 0,3.5273 q 0,1.2481 1.0781,1.2481 0.2285,0 0.5567,-0.0762 l 0,0.7969 q -0.5333,0.1465 -0.9258,0.1465 z m 5.0683,0 q -1.3652,0 -2.1797,-0.9053 -0.8144,-0.9053 -0.8144,-2.4228 0,-1.5352 0.8174,-2.4288 0.8174,-0.8935 2.2177,-0.8935 1.4004,0 2.2178,0.8935 0.8174,0.8936 0.8174,2.417 0,1.5586 -0.8203,2.4493 -0.8203,0.8906 -2.2559,0.8906 z m 0.0176,-0.8672 q 1.834,0 1.834,-2.4727 0,-2.4433 -1.8106,-2.4433 -1.8046,0 -1.8046,2.4551 0,2.4609 1.7812,2.4609 z m 6.4277,2.332 0,-1.0898 q 0.7032,0.2285 1.2422,0.2285 0.7032,0 0.9815,-0.4014 0.2783,-0.4013 0.2783,-1.4033 l 0,-7.6172 1.2305,0 0,7.5762 q 0,2.8301 -2.6778,2.8301 -0.4101,0 -1.0547,-0.1231 z m 7.6289,-1.3945 q -0.873,0 -2.2324,-0.3809 l 0,-1.2187 q 1.4649,0.6797 2.4082,0.6797 0.7266,0 1.169,-0.3809 0.4424,-0.3808 0.4424,-1.0019 0,-0.5098 -0.2901,-0.8672 -0.29,-0.3574 -1.0693,-0.7969 l -0.5977,-0.3457 q -1.1074,-0.6328 -1.5615,-1.1924 -0.4541,-0.5596 -0.4541,-1.3037 0,-1.002 0.7266,-1.6494 0.7265,-0.6475 1.8515,-0.6475 1.002,0 2.1153,0.334 l 0,1.125 q -1.3711,-0.5391 -2.045,-0.5391 -0.6386,0 -1.0546,0.3399 -0.4161,0.3398 -0.4161,0.8555 0,0.4336 0.3047,0.7675 0.3047,0.334 1.1133,0.7969 l 0.6211,0.3516 q 1.125,0.6386 1.5703,1.207 0.4453,0.5684 0.4453,1.3652 0,1.1309 -0.8349,1.8164 -0.835,0.6856 -2.212,0.6856 z m 8.2559,0 q -1.8047,0 -2.9033,-1.251 -1.0986,-1.251 -1.0986,-3.3076 0,-2.0684 1.1044,-3.3076 1.1045,-1.2393 2.9502,-1.2393 1.8399,0 2.9473,1.2364 1.1074,1.2363 1.1074,3.2988 0,2.1035 -1.1074,3.3369 -1.1074,1.2334 -3,1.2334 z m 0.0176,-0.9199 q 1.3301,0 2.0566,-0.958 0.7266,-0.958 0.7266,-2.7041 0,-1.6934 -0.7295,-2.6485 -0.7295,-0.9551 -2.0186,-0.9551 -1.2949,0 -2.0214,0.9581 -0.7266,0.958 -0.7266,2.663 0,1.6993 0.7207,2.6719 0.7207,0.9727 1.9922,0.9727 z M 168.8672,0 l 0,-8.6719 1.207,0 4.3653,6.6973 0,-6.6973 1.0546,0 0,8.6719 -1.2011,0 -4.3711,-6.6973 0,6.6973 z" />
  </g>
  <g
     id="g86"
     transform="scale(1.3333,1.3333)"
     style="font-family:sans-serif">
    <line
       clip-path="url(#clipPath2)"
       id="line88"
       y2="242.39841"
       style="fill:none"
       y1="242.39841"
       x2="534"
       x1="169" />
    <line
       clip-path="url(#clipPath2)"
       id="line90"
       y2="206.1328"
       style="fill:none"
       y1="206.1328"
       x2="534"
       x1="169" />
  </g>
  <g
     id="g92"
     transform="matrix(1.3333,0,0,1.3333,419.32285,266.66)"
     style="font-weight:bold;font-family:sans-serif">
    <path
       inkscape:connector-curvature="0"
       clip-path="url(#clipPath9)"
       id="path94"
       style="stroke:none"
       d="m 1.084,0 0,-8.6719 3.2461,0 q 2.6426,0 2.6426,2.1504 0,0.8027 -0.4483,1.4619 -0.4482,0.6592 -1.2334,1.0108 L 8.127,0 5.9297,0 3.7793,-3.5449 l -0.9961,0 0,3.5449 z m 1.6992,-4.7344 0.416,0 q 1.9629,0 1.9629,-1.5879 0,-1.1601 -1.7519,-1.1601 l -0.627,0 z m 11.8184,4.5176 q -1.2364,0.3633 -2.3438,0.3633 -1.6113,0 -2.543,-0.9141 -0.9316,-0.914 -0.9316,-2.4961 0,-1.4941 0.8525,-2.4052 0.8526,-0.9112 2.253,-0.9112 1.4121,0 2.0625,0.8906 0.6504,0.8907 0.6504,2.8184 l -3.9903,0 q 0.1758,1.8399 2.0215,1.8399 0.8731,0 1.9688,-0.4043 z m -4.0137,-3.6328 2.3086,0 q 0,-1.6465 -1.0606,-1.6465 -1.0781,0 -1.248,1.6465 z M 16.4414,1.998 16.582,0.7383 q 1.0723,0.4922 2.045,0.4922 0.9609,0 1.3886,-0.4102 0.4278,-0.4101 0.4278,-1.3301 l 0,-0.8789 Q 19.8105,0 18.3516,0 q -1.1485,0 -1.8223,-0.8584 -0.6738,-0.8584 -0.6738,-2.3232 0,-1.5411 0.7558,-2.4698 0.7559,-0.9287 2.0098,-0.9287 0.9844,0 1.8223,0.7969 l 0.1816,-0.6504 1.5586,0 0,4.9102 q 0,1.4707 -0.1787,2.1211 -0.1787,0.6503 -0.6944,1.1074 -0.8671,0.75 -2.4433,0.75 -1.1192,0 -2.4258,-0.4571 z m 4.002,-4.3945 0,-2.373 q -0.627,-0.709 -1.3125,-0.709 -0.6563,0 -1.043,0.5976 -0.3867,0.5977 -0.3867,1.6055 0,1.8867 1.2129,1.8867 0.8379,0 1.5293,-1.0078 z M 24.3105,0 l 0,-6.4336 1.7344,0 0,6.4336 z m 0,-7.5176 0,-1.4472 1.7344,0 0,1.4472 z m 3.7325,7.3125 0,-1.2715 q 1.289,0.5391 2.2031,0.5391 1.0664,0 1.0664,-0.7266 0,-0.4687 -0.8789,-0.8203 l -0.5859,-0.2344 q -0.9551,-0.3867 -1.3653,-0.832 -0.4101,-0.4453 -0.4101,-1.1015 0,-0.9141 0.6972,-1.4209 0.6973,-0.5069 1.9512,-0.5069 0.7852,0 1.8691,0.2285 l 0,1.2188 q -1.0429,-0.3633 -1.7285,-0.3633 -1.0781,0 -1.0781,0.668 0,0.4394 0.7969,0.7441 l 0.5039,0.1934 q 1.1308,0.4277 1.5732,0.8672 0.4424,0.4394 0.4424,1.1308 0,0.9082 -0.7529,1.4737 -0.7529,0.5654 -1.96,0.5654 -1.1601,0 -2.3437,-0.3516 z m 10.2715,0.1699 q -0.6211,0.1817 -0.9786,0.1817 -2.2558,0 -2.2558,-2.1094 l 0,-3.3867 -0.7207,0 0,-1.084 0.7207,0 0,-1.084 1.7344,-0.1992 0,1.2832 1.3769,0 0,1.084 -1.3769,0 0,3.1582 q 0,1.1836 0.9667,1.1836 0.2227,0 0.5333,-0.082 z m 6.7851,-0.1816 q -1.2363,0.3633 -2.3437,0.3633 -1.6114,0 -2.543,-0.9141 -0.9317,-0.914 -0.9317,-2.4961 0,-1.4941 0.8526,-2.4052 0.8525,-0.9112 2.2529,-0.9112 1.4121,0 2.0625,0.8906 0.6504,0.8907 0.6504,2.8184 l -3.9902,0 q 0.1758,1.8399 2.0215,1.8399 0.873,0 1.9687,-0.4043 z m -4.0137,-3.6328 2.3086,0 q 0,-1.6465 -1.0605,-1.6465 -1.0781,0 -1.2481,1.6465 z M 46.8926,0 l 0,-6.4336 1.7344,0 0,1.2129 q 0.6738,-1.3594 2.0507,-1.3594 0.1641,0 0.3223,0.0352 l 0,1.5469 q -0.3691,-0.1348 -0.6855,-0.1348 -1.0372,0 -1.6875,1.0488 l 0,4.084 z m 12.4336,-0.3457 q -1.2598,0.5625 -3.0059,0.5625 -2.1328,0 -3.3223,-1.2012 -1.1894,-1.2011 -1.1894,-3.3515 0,-2.1914 1.1982,-3.3721 1.1983,-1.1807 3.419,-1.1807 1.418,0 2.8183,0.334 l 0,1.4121 q -1.5879,-0.5566 -2.6601,-0.5566 -1.3711,0 -2.1152,0.8701 -0.7442,0.8701 -0.7442,2.4697 0,1.5703 0.7998,2.4492 0.7998,0.879 2.2236,0.879 1.2774,0 2.5782,-0.6446 z m 4.8867,0.3105 q -0.6211,0.1817 -0.9785,0.1817 -2.2559,0 -2.2559,-2.1094 l 0,-3.3867 -0.7207,0 0,-1.084 0.7207,0 0,-1.084 1.7344,-0.1992 0,1.2832 1.3769,0 0,1.084 -1.3769,0 0,3.1582 q 0,1.1836 0.9668,1.1836 0.2226,0 0.5332,-0.082 z M 65.7598,0 l 0,-6.4336 1.7343,0 0,1.2129 q 0.6739,-1.3594 2.0508,-1.3594 0.1641,0 0.3223,0.0352 l 0,1.5469 q -0.3692,-0.1348 -0.6856,-0.1348 -1.0371,0 -1.6875,1.0488 l 0,4.084 z m 5.455,0 0,-9.252 1.7344,0 0,9.252 z" />
  </g>
</svg>
