<?xml version="1.0" encoding="UTF-8" standalone="no"?>
<svg
   xmlns:dc="http://purl.org/dc/elements/1.1/"
   xmlns:cc="http://creativecommons.org/ns#"
   xmlns:rdf="http://www.w3.org/1999/02/22-rdf-syntax-ns#"
   xmlns:svg="http://www.w3.org/2000/svg"
   xmlns="http://www.w3.org/2000/svg"
   xmlns:xlink="http://www.w3.org/1999/xlink"
   xmlns:sodipodi="http://sodipodi.sourceforge.net/DTD/sodipodi-0.dtd"
   xmlns:inkscape="http://www.inkscape.org/namespaces/inkscape"
   style="fill-opacity:1; color-rendering:auto; color-interpolation:auto; stroke:black; text-rendering:auto; stroke-linecap:square; stroke-miterlimit:10; stroke-opacity:1; shape-rendering:auto; fill:black; stroke-dasharray:none; font-weight:normal; stroke-width:1; font-family:'Dialog'; font-style:normal; stroke-linejoin:miter; font-size:12; stroke-dashoffset:0; image-rendering:auto;"
   width="880"
   height="666"
   id="svg2"
   version="1.1"
   inkscape:version="0.48.5 r10040"
   sodipodi:docname="request_list_ctrl.svg">
  <metadata
     id="metadata98">
    <rdf:RDF>
      <cc:Work
         rdf:about="">
        <dc:format>image/svg+xml</dc:format>
        <dc:type
           rdf:resource="http://purl.org/dc/dcmitype/StillImage" />
      </cc:Work>
    </rdf:RDF>
  </metadata>
  <sodipodi:namedview
     pagecolor="#ffffff"
     bordercolor="#666666"
     borderopacity="1"
     objecttolerance="10"
     gridtolerance="10"
     guidetolerance="10"
     inkscape:pageopacity="0"
     inkscape:pageshadow="2"
     inkscape:window-width="1218"
     inkscape:window-height="780"
     id="namedview96"
     showgrid="false"
     inkscape:zoom="0.35435435"
     inkscape:cx="440"
     inkscape:cy="333"
     inkscape:window-x="54"
     inkscape:window-y="-8"
     inkscape:window-maximized="1"
     inkscape:current-layer="svg2" />
  <!--Generated by the Batik Graphics2D SVG Generator-->
  <defs
     id="genericDefs">
    <linearGradient
       inkscape:collect="always"
       xlink:href="#linearGradient1"
       id="linearGradient3075"
       gradientUnits="userSpaceOnUse"
       spreadMethod="pad"
       x1="213"
       y1="189"
       x2="485"
       y2="292" />
    <linearGradient
       inkscape:collect="always"
       xlink:href="#linearGradient1"
       id="linearGradient3077"
       gradientUnits="userSpaceOnUse"
       spreadMethod="pad"
       x1="213"
       y1="189"
       x2="485"
       y2="292" />
    <linearGradient
       inkscape:collect="always"
       xlink:href="#linearGradient1"
       id="linearGradient3079"
       gradientUnits="userSpaceOnUse"
       spreadMethod="pad"
       x1="213"
       y1="189"
       x2="485"
       y2="292" />
    <defs
       id="defs1">
      <linearGradient
         spreadMethod="pad"
         id="linearGradient1"
         y2="292"
         y1="189"
         x2="485"
         gradientUnits="userSpaceOnUse"
         x1="213">
        <stop
           id="stop9"
           offset="0%"
           style="stop-opacity:1; stop-color:white;" />
        <stop
           id="stop11"
           offset="100%"
           style="stop-opacity:1; stop-color:rgb(255,255,204);" />
      </linearGradient>
      <clipPath
         id="clipPath1"
         clipPathUnits="userSpaceOnUse">
        <path
           id="path14"
           d="M0 0 L880 0 L880 666 L0 666 L0 0 Z" />
      </clipPath>
      <clipPath
         id="clipPath2"
         clipPathUnits="userSpaceOnUse">
        <path
           id="path17"
           d="M0 0 L660 0 L660 499.5 L0 499.5 L0 0 Z" />
      </clipPath>
      <clipPath
         id="clipPath3"
         clipPathUnits="userSpaceOnUse">
        <path
           id="path20"
           d="M-20 -27 L640 -27 L640 472.5 L-20 472.5 L-20 -27 Z" />
      </clipPath>
      <clipPath
         id="clipPath4"
         clipPathUnits="userSpaceOnUse">
        <path
           id="path23"
           d="M-5 -5 L655 -5 L655 494.5 L-5 494.5 L-5 -5 Z" />
      </clipPath>
      <clipPath
         id="clipPath5"
         clipPathUnits="userSpaceOnUse">
        <path
           id="path26"
           d="M-223 -277.5312 L437 -277.5312 L437 221.9688 L-223 221.9688 L-223 -277.5312 Z" />
      </clipPath>
      <clipPath
         id="clipPath6"
         clipPathUnits="userSpaceOnUse">
        <path
           id="path29"
           d="M-223 -263.3984 L437 -263.3984 L437 236.1016 L-223 236.1016 L-223 -263.3984 Z" />
      </clipPath>
      <clipPath
         id="clipPath7"
         clipPathUnits="userSpaceOnUse">
        <path
           id="path32"
           d="M-223 -249.2656 L437 -249.2656 L437 250.2344 L-223 250.2344 L-223 -249.2656 Z" />
      </clipPath>
      <clipPath
         id="clipPath8"
         clipPathUnits="userSpaceOnUse">
        <path
           id="path35"
           d="M-223 -227.1328 L437 -227.1328 L437 272.3672 L-223 272.3672 L-223 -227.1328 Z" />
      </clipPath>
      <clipPath
         id="clipPath9"
         clipPathUnits="userSpaceOnUse">
        <path
           id="path38"
           d="M-301 -205 L359 -205 L359 294.5 L-301 294.5 L-301 -205 Z" />
      </clipPath>
    </defs>
  </defs>
  <g
     id="g58"
     style="font-weight:bold;fill:#c0c0c0;fill-opacity:0.50199998;stroke:#c0c0c0;stroke-width:2;stroke-opacity:0.50199998;font-family:sans-serif"
     transform="matrix(1.3333,0,0,1.3333,6.6665,6.6665)">
    <rect
       clip-path="url(#clipPath4)"
       id="rect60"
       height="102.4688"
       style="stroke:none"
       width="272"
       y="189"
       x="213" />
    <rect
       clip-path="url(#clipPath4)"
       id="rect62"
       height="102.4688"
       style="fill:none"
       width="272"
       y="189"
       x="213" />
  </g>
  <g
     id="g64"
     style="font-weight:bold;fill:url(#linearGradient3077);stroke:url(#linearGradient3079);stroke-width:2;font-family:sans-serif"
     transform="scale(1.3333,1.3333)">
    <rect
       clip-path="url(#clipPath2)"
       id="rect66"
       height="102.4688"
       style="fill:url(#linearGradient3075);stroke:none"
       width="272"
       y="189"
       x="213" />
    <rect
       clip-path="url(#clipPath2)"
       id="rect68"
       height="102.4688"
       style="fill:none;stroke:#000000"
       width="272"
       y="189"
       x="213" />
  </g>
  <g
     id="g70"
     transform="matrix(1.3333,0,0,1.3333,297.3259,370.03235)"
     style="stroke-width:2;font-family:sans-serif">
    <path
       inkscape:connector-curvature="0"
       clip-path="url(#clipPath5)"
       id="path72"
       style="stroke:none"
       d="m 4.3359,0 0,-3.0352 -3.0351,0 0,-0.8671 3.0351,0 0,-3.0352 0.8672,0 0,3.0352 3.0352,0 0,0.8671 -3.0352,0 0,3.0352 z m 13.4356,-0.8086 q -1.0371,0.9551 -1.9981,0.9551 -0.791,0 -1.3125,-0.4951 -0.5214,-0.4952 -0.5214,-1.251 0,-1.043 0.8759,-1.6025 0.876,-0.5596 2.5108,-0.5596 l 0.2754,0 0,-0.7676 q 0,-1.1074 -1.1368,-1.1074 -0.914,0 -1.9746,0.5625 l 0,-0.9551 q 1.166,-0.4746 2.1856,-0.4746 1.0664,0 1.5732,0.4805 0.5069,0.4804 0.5069,1.4941 l 0,2.8828 q 0,0.9903 0.6093,0.9903 0.0762,0 0.2227,-0.0235 l 0.082,0.6387 q -0.3926,0.1875 -0.8672,0.1875 -0.8086,0 -1.0312,-0.9551 z m -0.1699,-0.6269 0,-1.6465 -0.3868,-0.0118 q -0.9492,0 -1.5351,0.3604 -0.5859,0.3604 -0.5859,0.9463 0,0.416 0.2929,0.7031 0.293,0.2871 0.7149,0.2871 0.7207,0 1.5,-0.6386 z m 3.5156,3.75 0,-8.6778 1.1543,0 0,1.1953 q 0.709,-1.3359 2.1269,-1.3359 1.1485,0 1.8077,0.8379 0.6591,0.8379 0.6591,2.291 0,1.582 -0.747,2.5518 -0.7471,0.9697 -1.9659,0.9697 -1.1308,0 -1.8808,-0.8672 l 0,3.0352 z m 1.1543,-3.8321 q 0.8906,0.7969 1.6992,0.7969 1.6641,0 1.6641,-2.5371 0,-2.2383 -1.4766,-2.2383 -0.9668,0 -1.8867,1.0488 z m 6.3984,3.8321 0,-8.6778 1.1543,0 0,1.1953 q 0.709,-1.3359 2.127,-1.3359 1.1484,0 1.8076,0.8379 0.6592,0.8379 0.6592,2.291 0,1.582 -0.7471,2.5518 -0.7471,0.9697 -1.9658,0.9697 -1.1309,0 -1.8809,-0.8672 l 0,3.0352 z m 1.1543,-3.8321 q 0.8906,0.7969 1.6992,0.7969 1.6641,0 1.6641,-2.5371 0,-2.2383 -1.4766,-2.2383 -0.9668,0 -1.8867,1.0488 z M 36.2227,0 l 0,-6.3633 1.1543,0 0,1.1953 q 0.6855,-1.3359 1.9921,-1.3359 0.1758,0 0.3692,0.0293 l 0,1.0781 q -0.2988,-0.0996 -0.5274,-0.0996 -1.0957,0 -1.8339,1.3008 l 0,4.1953 z m 7.4003,0.1465 q -1.3652,0 -2.1796,-0.9053 -0.8145,-0.9053 -0.8145,-2.4228 0,-1.5352 0.8174,-2.4288 0.8174,-0.8935 2.2178,-0.8935 1.4004,0 2.2177,0.8935 0.8174,0.8936 0.8174,2.417 0,1.5586 -0.8203,2.4493 -0.8203,0.8906 -2.2559,0.8906 z m 0.0176,-0.8672 q 1.834,0 1.834,-2.4727 0,-2.4433 -1.8105,-2.4433 -1.8047,0 -1.8047,2.4551 0,2.4609 1.7812,2.4609 z M 49.8223,0 l -2.3672,-6.3633 1.1543,0 1.8515,4.9512 1.9512,-4.9512 1.0781,0 L 50.9766,0 z m 9.5566,-0.2051 q -1.1601,0.3516 -1.9863,0.3516 -1.4063,0 -2.294,-0.9346 -0.8877,-0.9346 -0.8877,-2.4228 0,-1.4473 0.7823,-2.3731 0.7822,-0.9258 2.0009,-0.9258 1.1543,0 1.7842,0.8203 0.6299,0.8204 0.6299,2.3321 L 59.4023,-3 55.3887,-3 q 0.2519,2.2676 2.2207,2.2676 0.7207,0 1.7695,-0.3867 z m -3.9375,-3.6621 2.8066,0 q 0,-1.7754 -1.3242,-1.7754 -1.33,0 -1.4824,1.7754 z M 61.3652,0 l 0,-8.6719 2.625,0 q 1.2481,0 1.9131,0.5508 0.6651,0.5508 0.6651,1.5996 0,1.7344 -1.752,2.461 L 67.7109,0 l -1.5117,0 -2.4668,-3.668 -1.1484,0 0,3.668 z m 1.2188,-4.5879 0.3984,0 q 2.3203,0 2.3203,-1.8223 0,-1.3418 -1.9453,-1.3418 l -0.7734,0 z m 11.0683,4.3828 q -1.1601,0.3516 -1.9863,0.3516 -1.4062,0 -2.2939,-0.9346 -0.8877,-0.9346 -0.8877,-2.4228 0,-1.4473 0.7822,-2.3731 0.7822,-0.9258 2.001,-0.9258 1.1543,0 1.7842,0.8203 0.6298,0.8204 0.6298,2.3321 L 73.6758,-3 69.6621,-3 q 0.252,2.2676 2.2207,2.2676 0.7207,0 1.7695,-0.3867 z m -3.9375,-3.6621 2.8067,0 q 0,-1.7754 -1.3242,-1.7754 -1.3301,0 -1.4825,1.7754 z m 10.043,6.1817 0,-3.5098 q -0.7031,1.3418 -2.1211,1.3418 -1.1484,0 -1.8076,-0.8379 -0.6592,-0.8379 -0.6592,-2.291 0,-1.5879 0.7471,-2.5547 0.7471,-0.9668 1.9658,-0.9668 1.1309,0 1.875,0.8672 l 0,-0.7266 1.1602,0 0,8.6778 z m 0,-7.1602 q -0.8965,-0.791 -1.6992,-0.791 -1.6582,0 -1.6582,2.5371 0,2.2324 1.4766,2.2324 0.9609,0 1.8808,-1.0488 z M 87.2051,0 l 0,-1.1953 q -0.9199,1.3418 -2.2324,1.3418 -0.8321,0 -1.3243,-0.5244 -0.4922,-0.5244 -0.4922,-1.4151 l 0,-4.5703 1.1543,0 0,4.1953 q 0,0.7149 0.2081,1.0166 0.208,0.3018 0.6943,0.3018 1.0547,0 1.9922,-1.3887 l 0,-4.125 1.1543,0 0,6.3633 z m 8.1328,-0.2051 q -1.1602,0.3516 -1.9863,0.3516 -1.4063,0 -2.294,-0.9346 -0.8877,-0.9346 -0.8877,-2.4228 0,-1.4473 0.7822,-2.3731 0.7823,-0.9258 2.001,-0.9258 1.1543,0 1.7842,0.8203 0.6299,0.8204 0.6299,2.3321 L 95.3613,-3 91.3477,-3 q 0.2519,2.2676 2.2207,2.2676 0.7207,0 1.7695,-0.3867 z m -3.9375,-3.6621 2.8066,0 q 0,-1.7754 -1.3242,-1.7754 -1.3301,0 -1.4824,1.7754 z m 7.6465,4.0137 q -0.791,0 -1.9219,-0.3692 l 0,-1.0605 q 1.1309,0.5625 1.9688,0.5625 0.498,0 0.8261,-0.2695 0.3281,-0.2696 0.3281,-0.6739 0,-0.5918 -0.9199,-0.9785 l -0.6738,-0.2871 q -1.4941,-0.6211 -1.4941,-1.7871 0,-0.832 0.5888,-1.3096 0.5889,-0.4775 1.6143,-0.4775 0.5332,0 1.3183,0.1465 l 0.2403,0.0469 0,0.9609 q -0.9668,-0.2871 -1.5352,-0.2871 -1.1133,0 -1.1133,0.8086 0,0.5215 0.8438,0.8789 l 0.5566,0.2344 q 0.9434,0.3984 1.336,0.8408 0.3925,0.4424 0.3925,1.1045 0,0.8379 -0.6621,1.3769 -0.6621,0.5391 -1.6933,0.5391 z m 6.3398,0 q -0.8789,0 -1.3711,-0.5039 -0.4922,-0.5039 -0.4922,-1.4004 l 0,-3.7383 -0.7968,0 0,-0.8672 0.7968,0 0,-1.1543 1.1543,-0.1113 0,1.2656 1.6641,0 0,0.8672 -1.6641,0 0,3.5273 q 0,1.2481 1.0782,1.2481 0.2285,0 0.5566,-0.0762 l 0,0.7969 q -0.5332,0.1465 -0.9258,0.1465 z m 4.8926,0.791 0,0.7969 q -1.2656,-0.8614 -2.0068,-2.3408 -0.7413,-1.4795 -0.7413,-3.1553 0,-1.6699 0.7413,-3.1494 0.7412,-1.4795 2.0068,-2.3409 l 0,0.7969 q -0.8613,0.9375 -1.2275,2.0156 -0.3663,1.0782 -0.3663,2.6778 0,1.6055 0.3663,2.6836 Q 109.418,0 110.2793,0.9375 z M 111.8672,0 l 0,-6.3633 1.1543,0 0,6.3633 z m 0,-7.5176 0,-1.1543 1.1543,0 0,1.1543 z M 119.4199,0 l 0,-1.1953 q -0.7031,1.3418 -2.1211,1.3418 -1.1484,0 -1.8076,-0.8379 -0.6592,-0.8379 -0.6592,-2.291 0,-1.5879 0.7471,-2.5547 0.7471,-0.9668 1.9658,-0.9668 1.1309,0 1.875,0.8672 l 0,-3.6153 1.1602,0 0,9.252 z m 0,-4.8457 q -0.8965,-0.791 -1.6992,-0.791 -1.6582,0 -1.6582,2.5371 0,2.2324 1.4766,2.2324 0.9609,0 1.8808,-1.0488 z M 122.8535,0 l 0,-8.6719 2.625,0 q 1.2481,0 1.9131,0.5508 0.665,0.5508 0.665,1.5996 0,1.7344 -1.7519,2.461 L 129.1992,0 l -1.5117,0 -2.4668,-3.668 -1.1484,0 0,3.668 z m 1.2188,-4.5879 0.3984,0 q 2.3203,0 2.3203,-1.8223 0,-1.3418 -1.9453,-1.3418 l -0.7734,0 z m 11.0683,4.3828 q -1.1601,0.3516 -1.9863,0.3516 -1.4063,0 -2.2939,-0.9346 -0.8877,-0.9346 -0.8877,-2.4228 0,-1.4473 0.7822,-2.3731 0.7822,-0.9258 2.001,-0.9258 1.1543,0 1.7841,0.8203 0.6299,0.8204 0.6299,2.3321 l -0.006,0.3574 -4.0137,0 q 0.2519,2.2676 2.2207,2.2676 0.7207,0 1.7695,-0.3867 z m -3.9375,-3.6621 2.8067,0 q 0,-1.7754 -1.3243,-1.7754 -1.33,0 -1.4824,1.7754 z m 10.043,6.1817 0,-3.5098 q -0.7031,1.3418 -2.1211,1.3418 -1.1484,0 -1.8076,-0.8379 -0.6592,-0.8379 -0.6592,-2.291 0,-1.5879 0.7471,-2.5547 0.747,-0.9668 1.9658,-0.9668 1.1309,0 1.875,0.8672 l 0,-0.7266 1.1601,0 0,8.6778 z m 0,-7.1602 q -0.8965,-0.791 -1.6992,-0.791 -1.6582,0 -1.6582,2.5371 0,2.2324 1.4765,2.2324 0.961,0 1.8809,-1.0488 z M 144.6797,0 l 0,-8.6719 2.625,0 q 1.248,0 1.9131,0.5508 0.665,0.5508 0.665,1.5996 0,1.7344 -1.7519,2.461 L 151.0254,0 l -1.5117,0 -2.4668,-3.668 -1.1485,0 0,3.668 z m 1.2187,-4.5879 0.3985,0 q 2.3203,0 2.3203,-1.8223 0,-1.3418 -1.9453,-1.3418 l -0.7735,0 z m 11.0684,4.3828 q -1.1602,0.3516 -1.9863,0.3516 -1.4063,0 -2.294,-0.9346 -0.8877,-0.9346 -0.8877,-2.4228 0,-1.4473 0.7823,-2.3731 0.7822,-0.9258 2.0009,-0.9258 1.1543,0 1.7842,0.8203 0.6299,0.8204 0.6299,2.3321 l -0.006,0.3574 -4.0136,0 q 0.2519,2.2676 2.2207,2.2676 0.7207,0 1.7695,-0.3867 z m -3.9375,-3.6621 2.8066,0 q 0,-1.7754 -1.3242,-1.7754 -1.3301,0 -1.4824,1.7754 z m 8.4434,4.0137 q -1.2891,0 -2.1387,-0.9551 -0.8496,-0.9551 -0.8496,-2.4082 0,-1.5527 0.8408,-2.4199 0.8408,-0.8672 2.3467,-0.8672 0.7441,0 1.664,0.2051 l 0,0.9668 q -0.9785,-0.2871 -1.5937,-0.2871 -0.8848,0 -1.4209,0.665 -0.5361,0.665 -0.5361,1.7725 0,1.0722 0.5507,1.7343 0.5508,0.6621 1.4414,0.6621 0.7911,0 1.6289,-0.4043 l 0,0.9961 q -1.1191,0.3399 -1.9335,0.3399 z M 165.1348,0 l 0,-6.3633 1.1543,0 0,6.3633 z m 0,-7.5176 0,-1.1543 1.1543,0 0,1.1543 z m 3.4687,9.8321 0,-8.6778 1.1543,0 0,1.1953 q 0.709,-1.3359 2.127,-1.3359 1.1484,0 1.8076,0.8379 0.6592,0.8379 0.6592,2.291 0,1.582 -0.7471,2.5518 -0.7471,0.9697 -1.9658,0.9697 -1.1309,0 -1.8809,-0.8672 l 0,3.0352 z m 1.1543,-3.8321 q 0.8906,0.7969 1.6992,0.7969 1.6641,0 1.6641,-2.5371 0,-2.2383 -1.4766,-2.2383 -0.9668,0 -1.8867,1.0488 z m 11.0625,1.3125 q -1.1601,0.3516 -1.9863,0.3516 -1.4063,0 -2.294,-0.9346 -0.8877,-0.9346 -0.8877,-2.4228 0,-1.4473 0.7823,-2.3731 0.7822,-0.9258 2.0009,-0.9258 1.1543,0 1.7842,0.8203 0.6299,0.8204 0.6299,2.3321 l -0.006,0.3574 -4.0137,0 q 0.2519,2.2676 2.2207,2.2676 0.7207,0 1.7695,-0.3867 z m -3.9375,-3.6621 2.8067,0 q 0,-1.7754 -1.3243,-1.7754 -1.33,0 -1.4824,1.7754 z M 186.8027,0 l 0,-1.1543 1.1543,0 0,1.1543 z m 0,-5.2031 0,-1.1602 1.1543,0 0,1.1602 z M 194.2324,0 l 0,-6.3633 1.1543,0 0,6.3633 z m 0,-7.5176 0,-1.1543 1.1543,0 0,1.1543 z M 197.7012,0 l 0,-6.3633 1.1543,0 0,1.1953 q 0.914,-1.3359 2.2383,-1.3359 0.8261,0 1.3183,0.5244 0.4922,0.5244 0.4922,1.4092 l 0,4.5703 -1.1543,0 0,-4.1953 q 0,-0.709 -0.208,-1.0108 -0.208,-0.3017 -0.6885,-0.3017 -1.0605,0 -1.998,1.3887 l 0,4.1191 z m 9.3574,0.1465 q -0.8789,0 -1.3711,-0.5039 -0.4922,-0.5039 -0.4922,-1.4004 l 0,-3.7383 -0.7969,0 0,-0.8672 0.7969,0 0,-1.1543 1.1543,-0.1113 0,1.2656 1.6641,0 0,0.8672 -1.6641,0 0,3.5273 q 0,1.2481 1.0781,1.2481 0.2285,0 0.5567,-0.0762 l 0,0.7969 q -0.5332,0.1465 -0.9258,0.1465 z m 1.8574,0.791 0,0.7969 q 1.2656,-0.8614 2.0069,-2.3408 0.7412,-1.4795 0.7412,-3.1553 0,-1.6699 -0.7412,-3.1494 -0.7413,-1.4795 -2.0069,-2.3409 l 0,0.7969 q 0.8613,0.9375 1.2276,2.0156 0.3662,1.0782 0.3662,2.6778 0,1.6055 -0.3662,2.6836 Q 209.7773,0 208.916,0.9375 z M 217.5,0 l 0,-1.1543 1.1543,0 0,1.1543 z m 0,-5.2031 0,-1.1602 1.1543,0 0,1.1602 z M 226.248,0 l -2.3671,-6.3633 1.1543,0 1.8515,4.9512 1.9512,-4.9512 1.0781,0 L 227.4023,0 z m 7.3829,0.1465 q -1.3653,0 -2.1797,-0.9053 -0.8145,-0.9053 -0.8145,-2.4228 0,-1.5352 0.8174,-2.4288 0.8174,-0.8935 2.2178,-0.8935 1.4004,0 2.2177,0.8935 0.8174,0.8936 0.8174,2.417 0,1.5586 -0.8203,2.4493 -0.8203,0.8906 -2.2558,0.8906 z m 0.0175,-0.8672 q 1.834,0 1.834,-2.4727 0,-2.4433 -1.8105,-2.4433 -1.8047,0 -1.8047,2.4551 0,2.4609 1.7812,2.4609 z M 238.5117,0 l 0,-6.3633 1.1543,0 0,6.3633 z m 0,-7.5176 0,-1.1543 1.1543,0 0,1.1543 z M 246.0645,0 l 0,-1.1953 q -0.7032,1.3418 -2.1211,1.3418 -1.1485,0 -1.8077,-0.8379 -0.6591,-0.8379 -0.6591,-2.291 0,-1.5879 0.747,-2.5547 0.7471,-0.9668 1.9659,-0.9668 1.1308,0 1.875,0.8672 l 0,-3.6153 1.1601,0 0,9.252 z m 0,-4.8457 q -0.8965,-0.791 -1.6993,-0.791 -1.6582,0 -1.6582,2.5371 0,2.2324 1.4766,2.2324 0.9609,0 1.8809,-1.0488 z" />
  </g>
  <g
     id="g74"
     transform="matrix(1.3333,0,0,1.3333,297.3259,351.18909)"
     style="stroke-width:2;font-family:sans-serif">
    <path
       inkscape:connector-curvature="0"
       clip-path="url(#clipPath6)"
       id="path76"
       style="stroke:none"
       d="m 4.3359,0 0,-3.0352 -3.0351,0 0,-0.8671 3.0351,0 0,-3.0352 0.8672,0 0,3.0352 3.0352,0 0,0.8671 -3.0352,0 0,3.0352 z m 14.2383,0 0,-1.1953 q -0.7031,1.3418 -2.1211,1.3418 -1.1484,0 -1.8076,-0.8379 -0.6592,-0.8379 -0.6592,-2.291 0,-1.5879 0.7471,-2.5547 0.7471,-0.9668 1.9658,-0.9668 1.1309,0 1.875,0.8672 l 0,-3.6153 1.1602,0 0,9.252 z m 0,-4.8457 q -0.8965,-0.791 -1.6992,-0.791 -1.6582,0 -1.6582,2.5371 0,2.2324 1.4766,2.2324 0.9609,0 1.8808,-1.0488 z M 22.043,0 l 0,-6.3633 1.1543,0 0,6.3633 z m 0,-7.5176 0,-1.1543 1.1543,0 0,1.1543 z m 5.1562,7.6641 q -0.791,0 -1.9219,-0.3692 l 0,-1.0605 q 1.1309,0.5625 1.9688,0.5625 0.498,0 0.8262,-0.2695 0.3281,-0.2696 0.3281,-0.6739 0,-0.5918 -0.9199,-0.9785 l -0.6739,-0.2871 q -1.4941,-0.6211 -1.4941,-1.7871 0,-0.832 0.5889,-1.3096 0.5888,-0.4775 1.6142,-0.4775 0.5332,0 1.3184,0.1465 l 0.2402,0.0469 0,0.9609 q -0.9668,-0.2871 -1.5351,-0.2871 -1.1133,0 -1.1133,0.8086 0,0.5215 0.8437,0.8789 l 0.5567,0.2344 q 0.9433,0.3984 1.3359,0.8408 0.3926,0.4424 0.3926,1.1045 0,0.8379 -0.6621,1.3769 -0.6621,0.5391 -1.6934,0.5391 z m 6.9141,0 q -1.2891,0 -2.1387,-0.9551 -0.8496,-0.9551 -0.8496,-2.4082 0,-1.5527 0.8408,-2.4199 0.8408,-0.8672 2.3467,-0.8672 0.7441,0 1.6641,0.2051 l 0,0.9668 q -0.9786,-0.2871 -1.5938,-0.2871 -0.8848,0 -1.4209,0.665 -0.5361,0.665 -0.5361,1.7725 0,1.0722 0.5508,1.7343 0.5507,0.6621 1.4414,0.6621 0.791,0 1.6289,-0.4043 l 0,0.9961 q -1.1192,0.3399 -1.9336,0.3399 z m 6.9433,-0.9551 q -1.0371,0.9551 -1.998,0.9551 -0.791,0 -1.3125,-0.4951 -0.5215,-0.4952 -0.5215,-1.251 0,-1.043 0.876,-1.6025 0.876,-0.5596 2.5107,-0.5596 l 0.2754,0 0,-0.7676 q 0,-1.1074 -1.1367,-1.1074 -0.9141,0 -1.9746,0.5625 l 0,-0.9551 q 1.166,-0.4746 2.1855,-0.4746 1.0664,0 1.5733,0.4805 0.5068,0.4804 0.5068,1.4941 l 0,2.8828 q 0,0.9903 0.6094,0.9903 0.0762,0 0.2226,-0.0235 l 0.0821,0.6387 q -0.3926,0.1875 -0.8672,0.1875 -0.8086,0 -1.0313,-0.9551 z m -0.1699,-0.6269 0,-1.6465 L 40.5,-3.0938 q -0.9492,0 -1.5352,0.3604 -0.5859,0.3604 -0.5859,0.9463 0,0.416 0.293,0.7031 0.2929,0.2871 0.7148,0.2871 0.7207,0 1.5,-0.6386 z M 44.4023,0 l 0,-6.3633 1.1543,0 0,1.1953 q 0.6856,-1.3359 1.9922,-1.3359 0.1758,0 0.3692,0.0293 l 0,1.0781 q -0.2989,-0.0996 -0.5274,-0.0996 -1.0957,0 -1.834,1.3008 l 0,4.1953 z m 8.9942,0 0,-1.1953 q -0.7031,1.3418 -2.1211,1.3418 -1.1484,0 -1.8076,-0.8379 -0.6592,-0.8379 -0.6592,-2.291 0,-1.5879 0.7471,-2.5547 0.747,-0.9668 1.9658,-0.9668 1.1308,0 1.875,0.8672 l 0,-3.6153 1.1601,0 0,9.252 z m 0,-4.8457 q -0.8965,-0.791 -1.6992,-0.791 -1.6582,0 -1.6582,2.5371 0,2.2324 1.4765,2.2324 0.961,0 1.8809,-1.0488 z M 56.8301,0 l 0,-8.6719 2.625,0 q 1.248,0 1.9131,0.5508 0.665,0.5508 0.665,1.5996 0,1.7344 -1.752,2.461 L 63.1758,0 l -1.5117,0 -2.4668,-3.668 -1.1485,0 0,3.668 z m 1.2187,-4.5879 0.3985,0 q 2.3203,0 2.3203,-1.8223 0,-1.3418 -1.9453,-1.3418 l -0.7735,0 z m 11.0684,4.3828 q -1.1602,0.3516 -1.9863,0.3516 -1.4063,0 -2.294,-0.9346 -0.8877,-0.9346 -0.8877,-2.4228 0,-1.4473 0.7822,-2.3731 0.7823,-0.9258 2.001,-0.9258 1.1543,0 1.7842,0.8203 0.6299,0.8204 0.6299,2.3321 L 69.1406,-3 65.127,-3 q 0.2519,2.2676 2.2207,2.2676 0.7207,0 1.7695,-0.3867 z m -3.9375,-3.6621 2.8066,0 q 0,-1.7754 -1.3242,-1.7754 -1.3301,0 -1.4824,1.7754 z m 10.043,6.1817 0,-3.5098 q -0.7032,1.3418 -2.1211,1.3418 -1.1485,0 -1.8077,-0.8379 -0.6591,-0.8379 -0.6591,-2.291 0,-1.5879 0.747,-2.5547 0.7471,-0.9668 1.9659,-0.9668 1.1308,0 1.875,0.8672 l 0,-0.7266 1.1601,0 0,8.6778 z m 0,-7.1602 q -0.8965,-0.791 -1.6993,-0.791 -1.6582,0 -1.6582,2.5371 0,2.2324 1.4766,2.2324 0.9609,0 1.8809,-1.0488 z M 82.6699,0 l 0,-1.1953 q -0.9199,1.3418 -2.2324,1.3418 -0.832,0 -1.3242,-0.5244 -0.4922,-0.5244 -0.4922,-1.4151 l 0,-4.5703 1.1543,0 0,4.1953 q 0,0.7149 0.208,1.0166 0.208,0.3018 0.6943,0.3018 1.0547,0 1.9922,-1.3887 l 0,-4.125 1.1543,0 0,6.3633 z m 8.1328,-0.2051 q -1.1601,0.3516 -1.9863,0.3516 -1.4062,0 -2.2939,-0.9346 -0.8877,-0.9346 -0.8877,-2.4228 0,-1.4473 0.7822,-2.3731 0.7822,-0.9258 2.001,-0.9258 1.1543,0 1.7841,0.8203 0.6299,0.8204 0.6299,2.3321 L 90.8262,-3 86.8125,-3 q 0.252,2.2676 2.2207,2.2676 0.7207,0 1.7695,-0.3867 z m -3.9375,-3.6621 2.8067,0 q 0,-1.7754 -1.3242,-1.7754 -1.3301,0 -1.4825,1.7754 z m 7.6465,4.0137 q -0.791,0 -1.9219,-0.3692 l 0,-1.0605 q 1.1309,0.5625 1.9688,0.5625 0.498,0 0.8262,-0.2695 0.3281,-0.2696 0.3281,-0.6739 0,-0.5918 -0.9199,-0.9785 l -0.6739,-0.2871 q -1.4941,-0.6211 -1.4941,-1.7871 0,-0.832 0.5889,-1.3096 0.5888,-0.4775 1.6142,-0.4775 0.5332,0 1.3184,0.1465 l 0.2402,0.0469 0,0.9609 q -0.9668,-0.2871 -1.5351,-0.2871 -1.1133,0 -1.1133,0.8086 0,0.5215 0.8437,0.8789 l 0.5567,0.2344 q 0.9433,0.3984 1.3359,0.8408 0.3926,0.4424 0.3926,1.1045 0,0.8379 -0.6621,1.3769 -0.6621,0.5391 -1.6934,0.5391 z m 6.3399,0 q -0.8789,0 -1.3711,-0.5039 -0.4922,-0.5039 -0.4922,-1.4004 l 0,-3.7383 -0.7969,0 0,-0.8672 0.7969,0 0,-1.1543 1.1543,-0.1113 0,1.2656 1.664,0 0,0.8672 -1.664,0 0,3.5273 q 0,1.2481 1.0781,1.2481 0.2285,0 0.5566,-0.0762 l 0,0.7969 q -0.5332,0.1465 -0.9257,0.1465 z m 4.8925,0.791 0,0.7969 q -1.2656,-0.8614 -2.0068,-2.3408 -0.7412,-1.4795 -0.7412,-3.1553 0,-1.6699 0.7412,-3.1494 0.7412,-1.4795 2.0068,-2.3409 l 0,0.7969 q -0.8613,0.9375 -1.2275,2.0156 -0.3662,1.0782 -0.3662,2.6778 0,1.6055 0.3662,2.6836 0.3662,1.0781 1.2275,2.0156 z M 107.332,0 l 0,-6.3633 1.1543,0 0,6.3633 z m 0,-7.5176 0,-1.1543 1.1543,0 0,1.1543 z M 114.8848,0 l 0,-1.1953 q -0.7032,1.3418 -2.1211,1.3418 -1.1485,0 -1.8076,-0.8379 -0.6592,-0.8379 -0.6592,-2.291 0,-1.5879 0.747,-2.5547 0.7471,-0.9668 1.9659,-0.9668 1.1308,0 1.875,0.8672 l 0,-3.6153 1.1601,0 0,9.252 z m 0,-4.8457 q -0.8965,-0.791 -1.6993,-0.791 -1.6582,0 -1.6582,2.5371 0,2.2324 1.4766,2.2324 0.9609,0 1.8809,-1.0488 z M 118.3184,0 l 0,-8.6719 2.625,0 q 1.248,0 1.913,0.5508 0.6651,0.5508 0.6651,1.5996 0,1.7344 -1.752,2.461 L 124.6641,0 l -1.5118,0 -2.4668,-3.668 -1.1484,0 0,3.668 z m 1.2187,-4.5879 0.3984,0 q 2.3204,0 2.3204,-1.8223 0,-1.3418 -1.9454,-1.3418 l -0.7734,0 z m 11.0684,4.3828 q -1.1602,0.3516 -1.9864,0.3516 -1.4062,0 -2.2939,-0.9346 -0.8877,-0.9346 -0.8877,-2.4228 0,-1.4473 0.7822,-2.3731 0.7823,-0.9258 2.001,-0.9258 1.1543,0 1.7842,0.8203 0.6299,0.8204 0.6299,2.3321 l -0.006,0.3574 -4.0137,0 q 0.252,2.2676 2.2207,2.2676 0.7207,0 1.7696,-0.3867 z m -3.9375,-3.6621 2.8066,0 q 0,-1.7754 -1.3242,-1.7754 -1.3301,0 -1.4824,1.7754 z m 10.0429,6.1817 0,-3.5098 q -0.7031,1.3418 -2.1211,1.3418 -1.1484,0 -1.8076,-0.8379 -0.6592,-0.8379 -0.6592,-2.291 0,-1.5879 0.7471,-2.5547 0.7471,-0.9668 1.9658,-0.9668 1.1309,0 1.875,0.8672 l 0,-0.7266 1.1602,0 0,8.6778 z m 0,-7.1602 q -0.8964,-0.791 -1.6992,-0.791 -1.6582,0 -1.6582,2.5371 0,2.2324 1.4766,2.2324 0.9609,0 1.8808,-1.0488 z M 140.1445,0 l 0,-8.6719 2.625,0 q 1.2481,0 1.9131,0.5508 0.6651,0.5508 0.6651,1.5996 0,1.7344 -1.752,2.461 L 146.4902,0 l -1.5117,0 -2.4668,-3.668 -1.1484,0 0,3.668 z m 1.2188,-4.5879 0.3984,0 q 2.3203,0 2.3203,-1.8223 0,-1.3418 -1.9453,-1.3418 l -0.7734,0 z m 11.0683,4.3828 q -1.1601,0.3516 -1.9863,0.3516 -1.4062,0 -2.2939,-0.9346 -0.8877,-0.9346 -0.8877,-2.4228 0,-1.4473 0.7822,-2.3731 0.7822,-0.9258 2.001,-0.9258 1.1543,0 1.7842,0.8203 0.6298,0.8204 0.6298,2.3321 l -0.006,0.3574 -4.0137,0 q 0.252,2.2676 2.2207,2.2676 0.7207,0 1.7695,-0.3867 z m -3.9375,-3.6621 2.8067,0 q 0,-1.7754 -1.3242,-1.7754 -1.3301,0 -1.4825,1.7754 z m 8.4434,4.0137 q -1.2891,0 -2.1387,-0.9551 -0.8496,-0.9551 -0.8496,-2.4082 0,-1.5527 0.8408,-2.4199 0.8409,-0.8672 2.3467,-0.8672 0.7442,0 1.6641,0.2051 l 0,0.9668 q -0.9785,-0.2871 -1.5938,-0.2871 -0.8847,0 -1.4209,0.665 -0.5361,0.665 -0.5361,1.7725 0,1.0722 0.5508,1.7343 0.5508,0.6621 1.4414,0.6621 0.791,0 1.6289,-0.4043 l 0,0.9961 q -1.1191,0.3399 -1.9336,0.3399 z M 160.5996,0 l 0,-6.3633 1.1543,0 0,6.3633 z m 0,-7.5176 0,-1.1543 1.1543,0 0,1.1543 z m 3.4688,9.8321 0,-8.6778 1.1543,0 0,1.1953 q 0.7089,-1.3359 2.1269,-1.3359 1.1484,0 1.8076,0.8379 0.6592,0.8379 0.6592,2.291 0,1.582 -0.7471,2.5518 -0.747,0.9697 -1.9658,0.9697 -1.1308,0 -1.8808,-0.8672 l 0,3.0352 z m 1.1543,-3.8321 q 0.8906,0.7969 1.6992,0.7969 1.664,0 1.664,-2.5371 0,-2.2383 -1.4765,-2.2383 -0.9668,0 -1.8867,1.0488 z m 11.0625,1.3125 q -1.1602,0.3516 -1.9864,0.3516 -1.4062,0 -2.2939,-0.9346 -0.8877,-0.9346 -0.8877,-2.4228 0,-1.4473 0.7822,-2.3731 0.7822,-0.9258 2.001,-0.9258 1.1543,0 1.7842,0.8203 0.6299,0.8204 0.6299,2.3321 l -0.006,0.3574 -4.0137,0 q 0.252,2.2676 2.2207,2.2676 0.7207,0 1.7696,-0.3867 z m -3.9375,-3.6621 2.8066,0 q 0,-1.7754 -1.3242,-1.7754 -1.3301,0 -1.4824,1.7754 z M 182.2676,0 l 0,-1.1543 1.1543,0 0,1.1543 z m 0,-5.2031 0,-1.1602 1.1543,0 0,1.1602 z M 189.6973,0 l 0,-6.3633 1.1543,0 0,6.3633 z m 0,-7.5176 0,-1.1543 1.1543,0 0,1.1543 z M 193.166,0 l 0,-6.3633 1.1543,0 0,1.1953 q 0.9141,-1.3359 2.2383,-1.3359 0.8262,0 1.3184,0.5244 0.4921,0.5244 0.4921,1.4092 l 0,4.5703 -1.1543,0 0,-4.1953 q 0,-0.709 -0.208,-1.0108 -0.208,-0.3017 -0.6884,-0.3017 -1.0606,0 -1.9981,1.3887 l 0,4.1191 z m 9.3574,0.1465 q -0.8789,0 -1.3711,-0.5039 -0.4921,-0.5039 -0.4921,-1.4004 l 0,-3.7383 -0.7969,0 0,-0.8672 0.7969,0 0,-1.1543 1.1543,-0.1113 0,1.2656 1.664,0 0,0.8672 -1.664,0 0,3.5273 q 0,1.2481 1.0781,1.2481 0.2285,0 0.5566,-0.0762 l 0,0.7969 q -0.5332,0.1465 -0.9258,0.1465 z m 1.8575,0.791 0,0.7969 q 1.2656,-0.8614 2.0068,-2.3408 0.7412,-1.4795 0.7412,-3.1553 0,-1.6699 -0.7412,-3.1494 -0.7412,-1.4795 -2.0068,-2.3409 l 0,0.7969 q 0.8613,0.9375 1.2275,2.0156 0.3662,1.0782 0.3662,2.6778 0,1.6055 -0.3662,2.6836 Q 205.2422,0 204.3809,0.9375 z M 212.9648,0 l 0,-1.1543 1.1543,0 0,1.1543 z m 0,-5.2031 0,-1.1602 1.1543,0 0,1.1602 z M 221.7129,0 l -2.3672,-6.3633 1.1543,0 1.8516,4.9512 1.9511,-4.9512 1.0782,0 L 222.8672,0 z m 7.3828,0.1465 q -1.3652,0 -2.1797,-0.9053 -0.8144,-0.9053 -0.8144,-2.4228 0,-1.5352 0.8173,-2.4288 0.8174,-0.8935 2.2178,-0.8935 1.4004,0 2.2178,0.8935 0.8174,0.8936 0.8174,2.417 0,1.5586 -0.8203,2.4493 -0.8204,0.8906 -2.2559,0.8906 z m 0.0176,-0.8672 q 1.834,0 1.834,-2.4727 0,-2.4433 -1.8106,-2.4433 -1.8047,0 -1.8047,2.4551 0,2.4609 1.7813,2.4609 z M 233.9766,0 l 0,-6.3633 1.1543,0 0,6.3633 z m 0,-7.5176 0,-1.1543 1.1543,0 0,1.1543 z M 241.5293,0 l 0,-1.1953 q -0.7031,1.3418 -2.1211,1.3418 -1.1484,0 -1.8076,-0.8379 -0.6592,-0.8379 -0.6592,-2.291 0,-1.5879 0.7471,-2.5547 0.747,-0.9668 1.9658,-0.9668 1.1309,0 1.875,0.8672 l 0,-3.6153 1.1602,0 0,9.252 z m 0,-4.8457 q -0.8965,-0.791 -1.6992,-0.791 -1.6582,0 -1.6582,2.5371 0,2.2324 1.4765,2.2324 0.961,0 1.8809,-1.0488 z" />
  </g>
  <g
     id="g78"
     transform="matrix(1.3333,0,0,1.3333,297.3259,332.34582)"
     style="stroke-width:2;font-family:sans-serif">
    <path
       inkscape:connector-curvature="0"
       clip-path="url(#clipPath7)"
       id="path80"
       style="stroke:none"
       d="m 0.8672,-3.0352 0,-0.8671 5.2031,0 0,0.8671 z M 11.918,2.1152 12.0527,1.1133 q 1.002,0.4746 1.9746,0.4746 1.9512,0 1.9512,-2.0684 l 0,-1.0019 q -0.6387,1.3359 -2.0976,1.3359 -1.1426,0 -1.8164,-0.832 -0.6739,-0.832 -0.6739,-2.2442 0,-1.4531 0.7676,-2.3671 0.7676,-0.9141 1.9863,-0.9141 1.0664,0 1.834,0.8672 l 0,-0.7266 1.1602,0 0,4.6289 q 0,1.4942 -0.1553,2.2119 -0.1553,0.7178 -0.583,1.1748 -0.7559,0.8028 -2.3496,0.8028 -1.1133,0 -2.1328,-0.3399 z m 4.0605,-4.3183 0,-2.6426 q -0.7617,-0.791 -1.6582,-0.791 -0.7969,0 -1.248,0.6387 -0.4512,0.6386 -0.4512,1.7519 0,2.0918 1.4707,2.0918 1.002,0 1.8867,-1.0488 z m 8.0625,1.998 q -1.1601,0.3516 -1.9863,0.3516 -1.4063,0 -2.294,-0.9346 -0.8877,-0.9346 -0.8877,-2.4228 0,-1.4473 0.7823,-2.3731 0.7822,-0.9258 2.0009,-0.9258 1.1543,0 1.7842,0.8203 0.6299,0.8204 0.6299,2.3321 L 24.0645,-3 20.0508,-3 q 0.2519,2.2676 2.2207,2.2676 0.7207,0 1.7695,-0.3867 z m -3.9375,-3.6621 2.8067,0 q 0,-1.7754 -1.3243,-1.7754 -1.33,0 -1.4824,1.7754 z m 7.8692,4.0137 q -0.8789,0 -1.3711,-0.5039 -0.4922,-0.5039 -0.4922,-1.4004 l 0,-3.7383 -0.7969,0 0,-0.8672 0.7969,0 0,-1.1543 1.1543,-0.1113 0,1.2656 1.664,0 0,0.8672 -1.664,0 0,3.5273 q 0,1.2481 1.0781,1.2481 0.2285,0 0.5566,-0.0762 l 0,0.7969 Q 28.3652,0.1465 27.9727,0.1465 z M 30.5156,0 l 0,-8.6719 2.625,0 q 1.2481,0 1.9131,0.5508 0.6651,0.5508 0.6651,1.5996 0,1.7344 -1.752,2.461 L 36.8613,0 l -1.5117,0 -2.4668,-3.668 -1.1484,0 0,3.668 z m 1.2188,-4.5879 0.3984,0 q 2.3203,0 2.3203,-1.8223 0,-1.3418 -1.9453,-1.3418 l -0.7734,0 z m 11.0683,4.3828 q -1.1601,0.3516 -1.9863,0.3516 -1.4062,0 -2.2939,-0.9346 -0.8877,-0.9346 -0.8877,-2.4228 0,-1.4473 0.7822,-2.3731 0.7822,-0.9258 2.001,-0.9258 1.1543,0 1.7841,0.8203 0.6299,0.8204 0.6299,2.3321 L 42.8262,-3 38.8125,-3 q 0.252,2.2676 2.2207,2.2676 0.7207,0 1.7695,-0.3867 z m -3.9375,-3.6621 2.8067,0 q 0,-1.7754 -1.3242,-1.7754 -1.3301,0 -1.4825,1.7754 z m 10.043,6.1817 0,-3.5098 q -0.7031,1.3418 -2.1211,1.3418 -1.1484,0 -1.8076,-0.8379 -0.6592,-0.8379 -0.6592,-2.291 0,-1.5879 0.7471,-2.5547 0.7471,-0.9668 1.9658,-0.9668 1.1309,0 1.875,0.8672 l 0,-0.7266 1.1602,0 0,8.6778 z m 0,-7.1602 q -0.8965,-0.791 -1.6992,-0.791 -1.6582,0 -1.6582,2.5371 0,2.2324 1.4765,2.2324 0.961,0 1.8809,-1.0488 z M 56.3555,0 l 0,-1.1953 q -0.92,1.3418 -2.2325,1.3418 -0.832,0 -1.3242,-0.5244 -0.4922,-0.5244 -0.4922,-1.4151 l 0,-4.5703 1.1543,0 0,4.1953 q 0,0.7149 0.208,1.0166 0.2081,0.3018 0.6944,0.3018 1.0547,0 1.9922,-1.3887 l 0,-4.125 1.1543,0 0,6.3633 z m 8.1328,-0.2051 q -1.1602,0.3516 -1.9863,0.3516 -1.4063,0 -2.294,-0.9346 -0.8877,-0.9346 -0.8877,-2.4228 0,-1.4473 0.7822,-2.3731 0.7823,-0.9258 2.001,-0.9258 1.1543,0 1.7842,0.8203 0.6299,0.8204 0.6299,2.3321 L 64.5117,-3 60.498,-3 q 0.252,2.2676 2.2208,2.2676 0.7207,0 1.7695,-0.3867 z m -3.9375,-3.6621 2.8066,0 q 0,-1.7754 -1.3242,-1.7754 -1.3301,0 -1.4824,1.7754 z m 7.6465,4.0137 q -0.7911,0 -1.9219,-0.3692 l 0,-1.0605 q 1.1308,0.5625 1.9687,0.5625 0.4981,0 0.8262,-0.2695 0.3281,-0.2696 0.3281,-0.6739 0,-0.5918 -0.9199,-0.9785 l -0.6738,-0.2871 q -1.4942,-0.6211 -1.4942,-1.7871 0,-0.832 0.5889,-1.3096 0.5889,-0.4775 1.6143,-0.4775 0.5332,0 1.3183,0.1465 l 0.2403,0.0469 0,0.9609 q -0.9668,-0.2871 -1.5352,-0.2871 -1.1133,0 -1.1133,0.8086 0,0.5215 0.8438,0.8789 l 0.5566,0.2344 q 0.9434,0.3984 1.336,0.8408 0.3925,0.4424 0.3925,1.1045 0,0.8379 -0.6621,1.3769 -0.6621,0.5391 -1.6933,0.5391 z m 6.3398,0 q -0.8789,0 -1.3711,-0.5039 -0.4922,-0.5039 -0.4922,-1.4004 l 0,-3.7383 -0.7968,0 0,-0.8672 0.7968,0 0,-1.1543 1.1543,-0.1113 0,1.2656 1.6641,0 0,0.8672 -1.6641,0 0,3.5273 q 0,1.2481 1.0781,1.2481 0.2286,0 0.5567,-0.0762 l 0,0.7969 Q 74.9297,0.1465 74.5371,0.1465 z M 77.0801,0 l 0,-8.6719 1.2304,0 0,7.752 3.9024,0 0,0.9199 z m 6.4336,0 0,-6.3633 1.1543,0 0,6.3633 z m 0,-7.5176 0,-1.1543 1.1543,0 0,1.1543 z m 5.1562,7.6641 q -0.791,0 -1.9219,-0.3692 l 0,-1.0605 q 1.1309,0.5625 1.9688,0.5625 0.498,0 0.8262,-0.2695 0.3281,-0.2696 0.3281,-0.6739 0,-0.5918 -0.9199,-0.9785 l -0.6739,-0.2871 q -1.4941,-0.6211 -1.4941,-1.7871 0,-0.832 0.5889,-1.3096 0.5888,-0.4775 1.6142,-0.4775 0.5332,0 1.3184,0.1465 l 0.2402,0.0469 0,0.9609 q -0.9668,-0.2871 -1.5351,-0.2871 -1.1133,0 -1.1133,0.8086 0,0.5215 0.8437,0.8789 l 0.5567,0.2344 q 0.9433,0.3984 1.3359,0.8408 0.3926,0.4424 0.3926,1.1045 0,0.8379 -0.6621,1.3769 -0.6621,0.5391 -1.6934,0.5391 z m 6.3399,0 q -0.8789,0 -1.3711,-0.5039 -0.4922,-0.5039 -0.4922,-1.4004 l 0,-3.7383 -0.7969,0 0,-0.8672 0.7969,0 0,-1.1543 1.1543,-0.1113 0,1.2656 1.664,0 0,0.8672 -1.664,0 0,3.5273 q 0,1.2481 1.0781,1.2481 0.2285,0 0.5566,-0.0762 l 0,0.7969 q -0.5332,0.1465 -0.9257,0.1465 z m 4.8925,0.791 0,0.7969 q -1.2656,-0.8614 -2.0068,-2.3408 -0.7412,-1.4795 -0.7412,-3.1553 0,-1.6699 0.7412,-3.1494 0.7412,-1.4795 2.0068,-2.3409 l 0,0.7969 q -0.8613,0.9375 -1.2275,2.0156 -0.3662,1.0782 -0.3662,2.6778 0,1.6055 0.3662,2.6836 Q 99.041,0 99.9023,0.9375 z m 0.8672,0 0,0.7969 q 1.2657,-0.8614 2.0069,-2.3408 0.7412,-1.4795 0.7412,-3.1553 0,-1.6699 -0.7412,-3.1494 -0.7412,-1.4795 -2.0069,-2.3409 l 0,0.7969 q 0.8614,0.9375 1.2276,2.0156 0.3662,1.0782 0.3662,2.6778 0,1.6055 -0.3662,2.6836 Q 101.6309,0 100.7695,0.9375 z M 109.3535,0 l 0,-1.1543 1.1543,0 0,1.1543 z m 0,-5.2031 0,-1.1602 1.1543,0 0,1.1602 z m 10.711,4.3945 q -1.0372,0.9551 -1.9981,0.9551 -0.791,0 -1.3125,-0.4951 -0.5215,-0.4952 -0.5215,-1.251 0,-1.043 0.876,-1.6025 0.876,-0.5596 2.5107,-0.5596 l 0.2754,0 0,-0.7676 q 0,-1.1074 -1.1367,-1.1074 -0.914,0 -1.9746,0.5625 l 0,-0.9551 q 1.166,-0.4746 2.1856,-0.4746 1.0664,0 1.5732,0.4805 0.5068,0.4804 0.5068,1.4941 l 0,2.8828 q 0,0.9903 0.6094,0.9903 0.0762,0 0.2227,-0.0235 l 0.082,0.6387 q -0.3926,0.1875 -0.8672,0.1875 -0.8086,0 -1.0312,-0.9551 z m -0.17,-0.6269 0,-1.6465 -0.3867,-0.0118 q -0.9492,0 -1.5351,0.3604 -0.586,0.3604 -0.586,0.9463 0,0.416 0.293,0.7031 0.293,0.2871 0.7148,0.2871 0.7207,0 1.5,-0.6386 z M 123.4102,0 l 0,-6.3633 1.1543,0 0,1.1953 q 0.6855,-1.3359 1.9921,-1.3359 0.1758,0 0.3692,0.0293 l 0,1.0781 q -0.2988,-0.0996 -0.5274,-0.0996 -1.0957,0 -1.8339,1.3008 l 0,4.1953 z m 4.9101,0 0,-6.3633 1.1543,0 0,1.1953 q 0.6856,-1.3359 1.9922,-1.3359 0.1758,0 0.3691,0.0293 l 0,1.0781 q -0.2988,-0.0996 -0.5273,-0.0996 -1.0957,0 -1.834,1.3008 l 0,4.1953 z m 8.1914,-0.8086 q -1.0371,0.9551 -1.998,0.9551 -0.791,0 -1.3125,-0.4951 -0.5215,-0.4952 -0.5215,-1.251 0,-1.043 0.876,-1.6025 0.8759,-0.5596 2.5107,-0.5596 l 0.2754,0 0,-0.7676 q 0,-1.1074 -1.1367,-1.1074 -0.9141,0 -1.9746,0.5625 l 0,-0.9551 q 1.166,-0.4746 2.1855,-0.4746 1.0664,0 1.5733,0.4805 0.5068,0.4804 0.5068,1.4941 l 0,2.8828 q 0,0.9903 0.6094,0.9903 0.0761,0 0.2226,-0.0235 l 0.0821,0.6387 q -0.3926,0.1875 -0.8672,0.1875 -0.8086,0 -1.0313,-0.9551 z m -0.1699,-0.6269 0,-1.6465 -0.3867,-0.0118 q -0.9492,0 -1.5352,0.3604 -0.5859,0.3604 -0.5859,0.9463 0,0.416 0.293,0.7031 0.2929,0.2871 0.7148,0.2871 0.7207,0 1.5,-0.6386 z m 3.8848,3.75 1.0312,-2.3145 -2.4609,-6.3633 1.248,0 1.8223,4.793 1.9453,-4.793 1.0898,0 -3.4746,8.6778 z m 7.4648,-0.7032 0,-1.0898 q 0.7031,0.2285 1.2422,0.2285 0.7031,0 0.9814,-0.4014 0.2784,-0.4013 0.2784,-1.4033 l 0,-7.6172 1.2304,0 0,7.5762 q 0,2.8301 -2.6777,2.8301 -0.4102,0 -1.0547,-0.1231 z m 7.6289,-1.3945 q -0.873,0 -2.2324,-0.3809 l 0,-1.2187 q 1.4648,0.6797 2.4082,0.6797 0.7266,0 1.1689,-0.3809 0.4424,-0.3808 0.4424,-1.0019 0,-0.5098 -0.29,-0.8672 -0.2901,-0.3574 -1.0694,-0.7969 l -0.5976,-0.3457 q -1.1074,-0.6328 -1.5615,-1.1924 -0.4541,-0.5596 -0.4541,-1.3037 0,-1.002 0.7265,-1.6494 0.7266,-0.6475 1.8516,-0.6475 1.0019,0 2.1152,0.334 l 0,1.125 q -1.3711,-0.5391 -2.0449,-0.5391 -0.6387,0 -1.0547,0.3399 -0.416,0.3398 -0.416,0.8555 0,0.4336 0.3047,0.7675 0.3047,0.334 1.1133,0.7969 l 0.6211,0.3516 q 1.125,0.6386 1.5703,1.207 0.4453,0.5684 0.4453,1.3652 0,1.1309 -0.835,1.8164 -0.8349,0.6856 -2.2119,0.6856 z m 8.2559,0 q -1.8047,0 -2.9033,-1.251 -1.0987,-1.251 -1.0987,-3.3076 0,-2.0684 1.1045,-3.3076 1.1045,-1.2393 2.9502,-1.2393 1.8399,0 2.9473,1.2364 1.1074,1.2363 1.1074,3.2988 0,2.1035 -1.1074,3.3369 -1.1074,1.2334 -3,1.2334 z m 0.0176,-0.9199 q 1.33,0 2.0566,-0.958 0.7266,-0.958 0.7266,-2.7041 0,-1.6934 -0.7295,-2.6485 -0.7295,-0.9551 -2.0186,-0.9551 -1.2949,0 -2.0215,0.9581 -0.7265,0.958 -0.7265,2.663 0,1.6993 0.7207,2.6719 0.7207,0.9727 1.9922,0.9727 z M 169.4062,0 l 0,-8.6719 1.2071,0 4.3652,6.6973 0,-6.6973 1.0547,0 0,8.6719 -1.2012,0 -4.3711,-6.6973 0,6.6973 z" />
  </g>
  <g
     id="g82"
     transform="matrix(1.3333,0,0,1.3333,297.3259,302.83616)"
     style="stroke-width:2;font-family:sans-serif">
    <path
       inkscape:connector-curvature="0"
       clip-path="url(#clipPath8)"
       id="path84"
       style="stroke:none"
       d="m 4.3359,0 0,-3.0352 -3.0351,0 0,-0.8671 3.0351,0 0,-3.0352 0.8672,0 0,3.0352 3.0352,0 0,0.8671 -3.0352,0 0,3.0352 z m 10.1543,0 0,-6.3633 1.1543,0 0,1.1953 q 0.6856,-1.3359 1.9922,-1.3359 0.1758,0 0.3692,0.0293 l 0,1.0781 q -0.2989,-0.0996 -0.5274,-0.0996 -1.0957,0 -1.834,1.3008 l 0,4.1953 z m 9.5743,-0.2051 q -1.1602,0.3516 -1.9864,0.3516 -1.4062,0 -2.2939,-0.9346 -0.8877,-0.9346 -0.8877,-2.4228 0,-1.4473 0.7822,-2.3731 0.7822,-0.9258 2.001,-0.9258 1.1543,0 1.7842,0.8203 0.6299,0.8204 0.6299,2.3321 L 24.0879,-3 20.0742,-3 q 0.252,2.2676 2.2207,2.2676 0.7207,0 1.7696,-0.3867 z m -3.9375,-3.6621 2.8066,0 q 0,-1.7754 -1.3242,-1.7754 -1.3301,0 -1.4824,1.7754 z m 10.0429,6.1817 0,-3.5098 q -0.7031,1.3418 -2.1211,1.3418 -1.1484,0 -1.8076,-0.8379 -0.6592,-0.8379 -0.6592,-2.291 0,-1.5879 0.7471,-2.5547 0.7471,-0.9668 1.9658,-0.9668 1.1309,0 1.875,0.8672 l 0,-0.7266 1.1602,0 0,8.6778 z m 0,-7.1602 q -0.8965,-0.791 -1.6992,-0.791 -1.6582,0 -1.6582,2.5371 0,2.2324 1.4766,2.2324 0.9609,0 1.8808,-1.0488 z M 37.6172,0 l 0,-1.1953 q -0.9199,1.3418 -2.2324,1.3418 -0.8321,0 -1.3243,-0.5244 -0.4921,-0.5244 -0.4921,-1.4151 l 0,-4.5703 1.1543,0 0,4.1953 q 0,0.7149 0.208,1.0166 0.208,0.3018 0.6943,0.3018 1.0547,0 1.9922,-1.3887 l 0,-4.125 1.1543,0 0,6.3633 z M 45.75,-0.2051 q -1.1602,0.3516 -1.9863,0.3516 -1.4063,0 -2.294,-0.9346 -0.8877,-0.9346 -0.8877,-2.4228 0,-1.4473 0.7823,-2.3731 0.7822,-0.9258 2.0009,-0.9258 1.1543,0 1.7842,0.8203 0.6299,0.8204 0.6299,2.3321 L 45.7734,-3 41.7598,-3 q 0.2519,2.2676 2.2207,2.2676 0.7207,0 1.7695,-0.3867 z m -3.9375,-3.6621 2.8066,0 q 0,-1.7754 -1.3242,-1.7754 -1.3301,0 -1.4824,1.7754 z m 7.6465,4.0137 q -0.791,0 -1.9219,-0.3692 l 0,-1.0605 q 1.1309,0.5625 1.9688,0.5625 0.498,0 0.8261,-0.2695 0.3282,-0.2696 0.3282,-0.6739 0,-0.5918 -0.92,-0.9785 l -0.6738,-0.2871 q -1.4941,-0.6211 -1.4941,-1.7871 0,-0.832 0.5888,-1.3096 0.5889,-0.4775 1.6143,-0.4775 0.5332,0 1.3184,0.1465 l 0.2402,0.0469 0,0.9609 q -0.9668,-0.2871 -1.5352,-0.2871 -1.1133,0 -1.1133,0.8086 0,0.5215 0.8438,0.8789 l 0.5566,0.2344 q 0.9434,0.3984 1.336,0.8408 0.3926,0.4424 0.3926,1.1045 0,0.8379 -0.6622,1.3769 -0.6621,0.5391 -1.6933,0.5391 z m 6.3398,0 q -0.8789,0 -1.3711,-0.5039 -0.4922,-0.5039 -0.4922,-1.4004 l 0,-3.7383 -0.7968,0 0,-0.8672 0.7968,0 0,-1.1543 1.1543,-0.1113 0,1.2656 1.6641,0 0,0.8672 -1.6641,0 0,3.5273 q 0,1.2481 1.0782,1.2481 0.2285,0 0.5566,-0.0762 l 0,0.7969 Q 56.1914,0.1465 55.7988,0.1465 z M 58.3418,0 l 0,-8.6719 1.2305,0 0,7.752 3.9023,0 0,0.9199 z m 6.4336,0 0,-6.3633 1.1543,0 0,6.3633 z m 0,-7.5176 0,-1.1543 1.1543,0 0,1.1543 z m 5.1562,7.6641 q -0.791,0 -1.9218,-0.3692 l 0,-1.0605 q 1.1308,0.5625 1.9687,0.5625 0.4981,0 0.8262,-0.2695 0.3281,-0.2696 0.3281,-0.6739 0,-0.5918 -0.9199,-0.9785 l -0.6738,-0.2871 q -1.4942,-0.6211 -1.4942,-1.7871 0,-0.832 0.5889,-1.3096 0.5889,-0.4775 1.6142,-0.4775 0.5332,0 1.3184,0.1465 l 0.2402,0.0469 0,0.9609 q -0.9668,-0.2871 -1.5351,-0.2871 -1.1133,0 -1.1133,0.8086 0,0.5215 0.8438,0.8789 l 0.5566,0.2344 q 0.9434,0.3984 1.3359,0.8408 0.3926,0.4424 0.3926,1.1045 0,0.8379 -0.6621,1.3769 -0.6621,0.5391 -1.6934,0.5391 z m 6.3399,0 q -0.8789,0 -1.3711,-0.5039 -0.4922,-0.5039 -0.4922,-1.4004 l 0,-3.7383 -0.7969,0 0,-0.8672 0.7969,0 0,-1.1543 1.1543,-0.1113 0,1.2656 1.6641,0 0,0.8672 -1.6641,0 0,3.5273 q 0,1.2481 1.0781,1.2481 0.2285,0 0.5567,-0.0762 l 0,0.7969 Q 76.6641,0.1465 76.2715,0.1465 z M 82.8105,0 l 0,-1.1543 1.1543,0 0,1.1543 z m 0,-5.2031 0,-1.1602 1.1543,0 0,1.1602 z m 10.711,4.3945 q -1.0371,0.9551 -1.9981,0.9551 -0.791,0 -1.3125,-0.4951 -0.5214,-0.4952 -0.5214,-1.251 0,-1.043 0.8759,-1.6025 0.876,-0.5596 2.5108,-0.5596 l 0.2754,0 0,-0.7676 q 0,-1.1074 -1.1368,-1.1074 -0.914,0 -1.9746,0.5625 l 0,-0.9551 q 1.166,-0.4746 2.1856,-0.4746 1.0664,0 1.5732,0.4805 0.5069,0.4804 0.5069,1.4941 l 0,2.8828 q 0,0.9903 0.6093,0.9903 0.0762,0 0.2227,-0.0235 l 0.082,0.6387 q -0.3926,0.1875 -0.8672,0.1875 -0.8086,0 -1.0312,-0.9551 z m -0.1699,-0.6269 0,-1.6465 -0.3868,-0.0118 q -0.9492,0 -1.5351,0.3604 -0.5859,0.3604 -0.5859,0.9463 0,0.416 0.2929,0.7031 0.293,0.2871 0.7149,0.2871 0.7207,0 1.5,-0.6386 z M 96.8672,0 l 0,-6.3633 1.1543,0 0,1.1953 q 0.6855,-1.3359 1.9922,-1.3359 0.1758,0 0.3691,0.0293 l 0,1.0781 q -0.2988,-0.0996 -0.5273,-0.0996 -1.0957,0 -1.834,1.3008 l 0,4.1953 z m 4.9101,0 0,-6.3633 1.1543,0 0,1.1953 q 0.6856,-1.3359 1.9922,-1.3359 0.1758,0 0.3692,0.0293 l 0,1.0781 q -0.2989,-0.0996 -0.5274,-0.0996 -1.0957,0 -1.834,1.3008 l 0,4.1953 z m 8.1915,-0.8086 q -1.0372,0.9551 -1.9981,0.9551 -0.791,0 -1.3125,-0.4951 -0.5215,-0.4952 -0.5215,-1.251 0,-1.043 0.876,-1.6025 0.876,-0.5596 2.5107,-0.5596 l 0.2754,0 0,-0.7676 q 0,-1.1074 -1.1367,-1.1074 -0.9141,0 -1.9746,0.5625 l 0,-0.9551 q 1.166,-0.4746 2.1855,-0.4746 1.0665,0 1.5733,0.4805 0.5068,0.4804 0.5068,1.4941 l 0,2.8828 q 0,0.9903 0.6094,0.9903 0.0762,0 0.2227,-0.0235 l 0.082,0.6387 Q 111.4746,0.1465 111,0.1465 q -0.8086,0 -1.0312,-0.9551 z m -0.17,-0.6269 0,-1.6465 -0.3867,-0.0118 q -0.9492,0 -1.5351,0.3604 -0.586,0.3604 -0.586,0.9463 0,0.416 0.293,0.7031 0.293,0.2871 0.7148,0.2871 0.7207,0 1.5,-0.6386 z m 3.8848,3.75 1.0312,-2.3145 -2.4609,-6.3633 1.2481,0 1.8222,4.793 1.9453,-4.793 1.0899,0 -3.4746,8.6778 z M 127.4648,0 l 0,-1.1953 q -0.7031,1.3418 -2.121,1.3418 -1.1485,0 -1.8077,-0.8379 -0.6591,-0.8379 -0.6591,-2.291 0,-1.5879 0.747,-2.5547 0.7471,-0.9668 1.9658,-0.9668 1.1309,0 1.875,0.8672 l 0,-3.6153 1.1602,0 0,9.252 z m 0,-4.8457 q -0.8964,-0.791 -1.6992,-0.791 -1.6582,0 -1.6582,2.5371 0,2.2324 1.4766,2.2324 0.9609,0 1.8808,-1.0488 z M 130.9336,0 l 0,-6.3633 1.1543,0 0,6.3633 z m 0,-7.5176 0,-1.1543 1.1543,0 0,1.1543 z m 9.7559,7.6641 q -1.3653,0 -2.1797,-0.9053 -0.8145,-0.9053 -0.8145,-2.4228 0,-1.5352 0.8174,-2.4288 0.8174,-0.8935 2.2178,-0.8935 1.4004,0 2.2177,0.8935 0.8174,0.8936 0.8174,2.417 0,1.5586 -0.8203,2.4493 -0.8203,0.8906 -2.2558,0.8906 z m 0.0175,-0.8672 q 1.834,0 1.834,-2.4727 0,-2.4433 -1.8105,-2.4433 -1.8047,0 -1.8047,2.4551 0,2.4609 1.7812,2.4609 z m 4.8868,2.8359 0.1347,-1.0019 q 1.002,0.4746 1.9746,0.4746 1.9512,0 1.9512,-2.0684 l 0,-1.0019 q -0.6387,1.3359 -2.0977,1.3359 -1.1425,0 -1.8164,-0.832 -0.6738,-0.832 -0.6738,-2.2442 0,-1.4531 0.7676,-2.3671 0.7676,-0.9141 1.9863,-0.9141 1.0664,0 1.834,0.8672 l 0,-0.7266 1.1602,0 0,4.6289 q 0,1.4942 -0.1553,2.2119 -0.1553,0.7178 -0.583,1.1748 -0.7559,0.8028 -2.3496,0.8028 -1.1133,0 -2.1328,-0.3399 z m 4.0605,-4.3183 0,-2.6426 q -0.7617,-0.791 -1.6582,-0.791 -0.7969,0 -1.2481,0.6387 -0.4511,0.6386 -0.4511,1.7519 0,2.0918 1.4707,2.0918 1.0019,0 1.8867,-1.0488 z m 3.4219,4.3183 0.1347,-1.0019 q 1.002,0.4746 1.9746,0.4746 1.9512,0 1.9512,-2.0684 l 0,-1.0019 q -0.6387,1.3359 -2.0976,1.3359 -1.1426,0 -1.8164,-0.832 -0.6739,-0.832 -0.6739,-2.2442 0,-1.4531 0.7676,-2.3671 0.7676,-0.9141 1.9863,-0.9141 1.0664,0 1.834,0.8672 l 0,-0.7266 1.1602,0 0,4.6289 q 0,1.4942 -0.1553,2.2119 -0.1553,0.7178 -0.583,1.1748 -0.7559,0.8028 -2.3496,0.8028 -1.1133,0 -2.1328,-0.3399 z m 4.0605,-4.3183 0,-2.6426 q -0.7617,-0.791 -1.6582,-0.791 -0.7969,0 -1.248,0.6387 -0.4512,0.6386 -0.4512,1.7519 0,2.0918 1.4707,2.0918 1.002,0 1.8867,-1.0488 z m 8.0625,1.998 q -1.1601,0.3516 -1.9863,0.3516 -1.4063,0 -2.294,-0.9346 -0.8877,-0.9346 -0.8877,-2.4228 0,-1.4473 0.7823,-2.3731 0.7822,-0.9258 2.001,-0.9258 1.1543,0 1.7841,0.8203 0.6299,0.8204 0.6299,2.3321 L 165.2227,-3 161.209,-3 q 0.2519,2.2676 2.2207,2.2676 0.7207,0 1.7695,-0.3867 z m -3.9375,-3.6621 2.8067,0 q 0,-1.7754 -1.3243,-1.7754 -1.33,0 -1.4824,1.7754 z m 7.8692,4.0137 q -0.8789,0 -1.3711,-0.5039 -0.4922,-0.5039 -0.4922,-1.4004 l 0,-3.7383 -0.7969,0 0,-0.8672 0.7969,0 0,-1.1543 1.1543,-0.1113 0,1.2656 1.664,0 0,0.8672 -1.664,0 0,3.5273 q 0,1.2481 1.0781,1.2481 0.2285,0 0.5566,-0.0762 l 0,0.7969 q -0.5332,0.1465 -0.9257,0.1465 z m 4.4882,0 q -0.8789,0 -1.3711,-0.5039 -0.4921,-0.5039 -0.4921,-1.4004 l 0,-3.7383 -0.7969,0 0,-0.8672 0.7969,0 0,-1.1543 1.1543,-0.1113 0,1.2656 1.664,0 0,0.8672 -1.664,0 0,3.5273 q 0,1.2481 1.0781,1.2481 0.2285,0 0.5566,-0.0762 l 0,0.7969 q -0.5332,0.1465 -0.9258,0.1465 z M 176.1973,0 l 0,-6.3633 1.1543,0 0,6.3633 z m 0,-7.5176 0,-1.1543 1.1543,0 0,1.1543 z m 5.0332,9.1289 0,-1.0898 q 0.7031,0.2285 1.2422,0.2285 0.7031,0 0.9814,-0.4014 0.2783,-0.4013 0.2783,-1.4033 l 0,-7.6172 1.2305,0 0,7.5762 q 0,2.8301 -2.6777,2.8301 -0.4102,0 -1.0547,-0.1231 z m 7.6289,-1.3945 q -0.8731,0 -2.2324,-0.3809 l 0,-1.2187 q 1.4648,0.6797 2.4082,0.6797 0.7265,0 1.1689,-0.3809 0.4424,-0.3808 0.4424,-1.0019 0,-0.5098 -0.2901,-0.8672 -0.29,-0.3574 -1.0693,-0.7969 l -0.5976,-0.3457 q -1.1075,-0.6328 -1.5616,-1.1924 -0.4541,-0.5596 -0.4541,-1.3037 0,-1.002 0.7266,-1.6494 0.7266,-0.6475 1.8516,-0.6475 1.0019,0 2.1152,0.334 l 0,1.125 q -1.3711,-0.5391 -2.0449,-0.5391 -0.6387,0 -1.0547,0.3399 -0.416,0.3398 -0.416,0.8555 0,0.4336 0.3046,0.7675 0.3047,0.334 1.1133,0.7969 l 0.6211,0.3516 q 1.125,0.6386 1.5703,1.207 0.4453,0.5684 0.4453,1.3652 0,1.1309 -0.8349,1.8164 -0.835,0.6856 -2.2119,0.6856 z m 8.2558,0 q -1.8047,0 -2.9033,-1.251 -1.0986,-1.251 -1.0986,-3.3076 0,-2.0684 1.1045,-3.3076 1.1045,-1.2393 2.9502,-1.2393 1.8398,0 2.9472,1.2364 1.1075,1.2363 1.1075,3.2988 0,2.1035 -1.1075,3.3369 -1.1074,1.2334 -3,1.2334 z m 0.0176,-0.9199 q 1.3301,0 2.0567,-0.958 0.7265,-0.958 0.7265,-2.7041 0,-1.6934 -0.7295,-2.6485 -0.7295,-0.9551 -2.0185,-0.9551 -1.295,0 -2.0215,0.9581 -0.7266,0.958 -0.7266,2.663 0,1.6993 0.7207,2.6719 0.7207,0.9727 1.9922,0.9727 z M 202.9453,0 l 0,-8.6719 1.207,0 4.3653,6.6973 0,-6.6973 1.0547,0 0,8.6719 -1.2012,0 L 204,-6.6973 204,0 z" />
  </g>
  <g
     id="g86"
     transform="scale(1.3333,1.3333)"
     style="font-family:sans-serif">
    <line
       clip-path="url(#clipPath2)"
       id="line88"
       y2="233.26559"
       style="fill:none"
       y1="233.26559"
       x2="485"
       x1="213" />
    <line
       clip-path="url(#clipPath2)"
       id="line90"
       y2="211.1328"
       style="fill:none"
       y1="211.1328"
       x2="485"
       x1="213" />
  </g>
  <g
     id="g92"
     transform="matrix(1.3333,0,0,1.3333,401.3233,273.3265)"
     style="font-weight:bold;font-family:sans-serif">
    <path
       inkscape:connector-curvature="0"
       clip-path="url(#clipPath9)"
       id="path94"
       style="stroke:none"
       d="m 1.084,0 0,-8.6719 3.2461,0 q 2.6426,0 2.6426,2.1504 0,0.8027 -0.4483,1.4619 -0.4482,0.6592 -1.2334,1.0108 L 8.127,0 5.9297,0 3.7793,-3.5449 l -0.9961,0 0,3.5449 z m 1.6992,-4.7344 0.416,0 q 1.9629,0 1.9629,-1.5879 0,-1.1601 -1.7519,-1.1601 l -0.627,0 z m 11.8184,4.5176 q -1.2364,0.3633 -2.3438,0.3633 -1.6113,0 -2.543,-0.9141 -0.9316,-0.914 -0.9316,-2.4961 0,-1.4941 0.8525,-2.4052 0.8526,-0.9112 2.253,-0.9112 1.4121,0 2.0625,0.8906 0.6504,0.8907 0.6504,2.8184 l -3.9903,0 q 0.1758,1.8399 2.0215,1.8399 0.8731,0 1.9688,-0.4043 z m -4.0137,-3.6328 2.3086,0 q 0,-1.6465 -1.0606,-1.6465 -1.0781,0 -1.248,1.6465 z m 9.8555,6.1641 0,-3.5274 q -0.668,1.3594 -2.1036,1.3594 -1.1601,0 -1.8222,-0.8496 -0.6621,-0.8496 -0.6621,-2.3379 0,-1.6172 0.747,-2.5781 0.7471,-0.961 2.0069,-0.961 1.0078,0 1.834,0.7969 l 0.2168,-0.6504 1.5234,0 0,8.7481 z m 0,-7.0665 q -0.627,-0.7031 -1.3418,-0.7031 -0.6387,0 -1.0196,0.6153 -0.3808,0.6152 -0.3808,1.6523 0,1.9746 1.2656,1.9746 0.7734,0 1.4766,-0.9902 z M 28.3242,0 l 0,-1.2129 q -0.8437,1.3594 -2.1914,1.3594 -0.8613,0 -1.3594,-0.5449 -0.498,-0.545 -0.498,-1.4883 l 0,-4.5469 1.7344,0 0,4.1191 q 0,1.0957 0.7324,1.0957 0.8203,0 1.582,-1.166 l 0,-4.0488 1.7344,0 0,6.4336 z m 9.1406,-0.2168 q -1.2363,0.3633 -2.3437,0.3633 -1.6113,0 -2.543,-0.9141 -0.9316,-0.914 -0.9316,-2.4961 0,-1.4941 0.8525,-2.4052 0.8526,-0.9112 2.253,-0.9112 1.4121,0 2.0625,0.8906 0.6503,0.8907 0.6503,2.8184 l -3.9902,0 q 0.1758,1.8399 2.0215,1.8399 0.873,0 1.9687,-0.4043 z m -4.0136,-3.6328 2.3086,0 q 0,-1.6465 -1.0606,-1.6465 -1.0781,0 -1.248,1.6465 z m 5.6367,3.6445 0,-1.2715 q 1.2891,0.5391 2.2031,0.5391 1.0664,0 1.0664,-0.7266 0,-0.4687 -0.8789,-0.8203 l -0.5859,-0.2344 q -0.9551,-0.3867 -1.3653,-0.832 -0.4101,-0.4453 -0.4101,-1.1015 0,-0.9141 0.6973,-1.4209 0.6972,-0.5069 1.9511,-0.5069 0.7852,0 1.8692,0.2285 l 0,1.2188 q -1.043,-0.3633 -1.7286,-0.3633 -1.0781,0 -1.0781,0.668 0,0.4394 0.7969,0.7441 l 0.5039,0.1934 q 1.1309,0.4277 1.5732,0.8672 0.4424,0.4394 0.4424,1.1308 0,0.9082 -0.7529,1.4737 -0.7529,0.5654 -1.96,0.5654 -1.1601,0 -2.3437,-0.3516 z m 10.2715,0.1699 q -0.6211,0.1817 -0.9785,0.1817 -2.2559,0 -2.2559,-2.1094 l 0,-3.3867 -0.7207,0 0,-1.084 0.7207,0 0,-1.084 1.7344,-0.1992 0,1.2832 1.3769,0 0,1.084 -1.3769,0 0,3.1582 q 0,1.1836 0.9668,1.1836 0.2226,0 0.5332,-0.082 z M 50.9062,0 l 0,-8.6719 1.8047,0 0,7.4414 3.9082,0 0,1.2305 z m 6.9786,0 0,-6.4336 1.7343,0 0,6.4336 z m 0,-7.5176 0,-1.4472 1.7343,0 0,1.4472 z m 3.7324,7.3125 0,-1.2715 q 1.289,0.5391 2.2031,0.5391 1.0664,0 1.0664,-0.7266 0,-0.4687 -0.8789,-0.8203 l -0.5859,-0.2344 q -0.9551,-0.3867 -1.3653,-0.832 -0.4101,-0.4453 -0.4101,-1.1015 0,-0.9141 0.6973,-1.4209 0.6972,-0.5069 1.9511,-0.5069 0.7852,0 1.8692,0.2285 l 0,1.2188 q -1.043,-0.3633 -1.7286,-0.3633 -1.0781,0 -1.0781,0.668 0,0.4394 0.7969,0.7441 l 0.5039,0.1934 q 1.1309,0.4277 1.5732,0.8672 0.4424,0.4394 0.4424,1.1308 0,0.9082 -0.7529,1.4737 -0.7529,0.5654 -1.96,0.5654 -1.1601,0 -2.3437,-0.3516 z m 10.2715,0.1699 q -0.6211,0.1817 -0.9785,0.1817 -2.2559,0 -2.2559,-2.1094 l 0,-3.3867 -0.7207,0 0,-1.084 0.7207,0 0,-1.084 1.7344,-0.1992 0,1.2832 1.3769,0 0,1.084 -1.3769,0 0,3.1582 q 0,1.1836 0.9668,1.1836 0.2226,0 0.5332,-0.082 z m 8.5254,-0.3105 q -1.2598,0.5625 -3.0059,0.5625 -2.1328,0 -3.3223,-1.2012 -1.1894,-1.2011 -1.1894,-3.3515 0,-2.1914 1.1982,-3.3721 1.1983,-1.1807 3.419,-1.1807 1.4179,0 2.8183,0.334 l 0,1.4121 q -1.5879,-0.5566 -2.6601,-0.5566 -1.3711,0 -2.1153,0.8701 -0.7441,0.8701 -0.7441,2.4697 0,1.5703 0.7998,2.4492 0.7998,0.879 2.2236,0.879 1.2774,0 2.5782,-0.6446 z m 4.8867,0.3105 q -0.6211,0.1817 -0.9785,0.1817 -2.2559,0 -2.2559,-2.1094 l 0,-3.3867 -0.7207,0 0,-1.084 0.7207,0 0,-1.084 1.7344,-0.1992 0,1.2832 1.3769,0 0,1.084 -1.3769,0 0,3.1582 q 0,1.1836 0.9668,1.1836 0.2226,0 0.5332,-0.082 z M 86.8477,0 l 0,-6.4336 1.7343,0 0,1.2129 q 0.6739,-1.3594 2.0508,-1.3594 0.1641,0 0.3223,0.0352 l 0,1.5469 q -0.3692,-0.1348 -0.6856,-0.1348 -1.0371,0 -1.6875,1.0488 l 0,4.084 z m 5.455,0 0,-9.252 1.7344,0 0,9.252 z" />
  </g>
</svg>
