<?xml version="1.0" encoding="UTF-8" standalone="no"?>
<svg
   xmlns:dc="http://purl.org/dc/elements/1.1/"
   xmlns:cc="http://creativecommons.org/ns#"
   xmlns:rdf="http://www.w3.org/1999/02/22-rdf-syntax-ns#"
   xmlns:svg="http://www.w3.org/2000/svg"
   xmlns="http://www.w3.org/2000/svg"
   xmlns:xlink="http://www.w3.org/1999/xlink"
   xmlns:sodipodi="http://sodipodi.sourceforge.net/DTD/sodipodi-0.dtd"
   xmlns:inkscape="http://www.inkscape.org/namespaces/inkscape"
   style="fill-opacity:1; color-rendering:auto; color-interpolation:auto; stroke:black; text-rendering:auto; stroke-linecap:square; stroke-miterlimit:10; stroke-opacity:1; shape-rendering:auto; fill:black; stroke-dasharray:none; font-weight:normal; stroke-width:1; font-family:'Dialog'; font-style:normal; stroke-linejoin:miter; font-size:12; stroke-dashoffset:0; image-rendering:auto;"
   width="880"
   height="666"
   id="svg2"
   version="1.1"
   inkscape:version="0.91 r13725"
   sodipodi:docname="hashtag_trend_response.svg">
  <metadata
     id="metadata77">
    <rdf:RDF>
      <cc:Work
         rdf:about="">
        <dc:format>image/svg+xml</dc:format>
        <dc:type
           rdf:resource="http://purl.org/dc/dcmitype/StillImage" />
      </cc:Work>
    </rdf:RDF>
  </metadata>
  <sodipodi:namedview
     pagecolor="#ffffff"
     bordercolor="#666666"
     borderopacity="1"
     objecttolerance="10"
     gridtolerance="10"
     guidetolerance="10"
     inkscape:pageopacity="0"
     inkscape:pageshadow="2"
     inkscape:window-width="640"
     inkscape:window-height="480"
     id="namedview75"
     showgrid="false"
     inkscape:zoom="0.35435435"
     inkscape:cx="440"
     inkscape:cy="333"
     inkscape:window-x="306"
     inkscape:window-y="159"
     inkscape:window-maximized="0"
     inkscape:current-layer="svg2" />
  <!--Generated by the Batik Graphics2D SVG Generator-->
  <defs
     id="genericDefs">
    <linearGradient
       inkscape:collect="always"
       xlink:href="#linearGradient1"
       id="linearGradient3405"
       gradientUnits="userSpaceOnUse"
       spreadMethod="pad"
       x1="224"
       y1="192"
       x2="415"
       y2="250" />
    <linearGradient
       inkscape:collect="always"
       xlink:href="#linearGradient1"
       id="linearGradient3407"
       gradientUnits="userSpaceOnUse"
       spreadMethod="pad"
       x1="224"
       y1="192"
       x2="415"
       y2="250" />
    <linearGradient
       inkscape:collect="always"
       xlink:href="#linearGradient1"
       id="linearGradient3409"
       gradientUnits="userSpaceOnUse"
       spreadMethod="pad"
       x1="224"
       y1="192"
       x2="415"
       y2="250" />
    <defs
       id="defs1">
      <linearGradient
         spreadMethod="pad"
         id="linearGradient1"
         y2="250"
         y1="192"
         x2="415"
         gradientUnits="userSpaceOnUse"
         x1="224">
        <stop
           id="stop9"
           offset="0%"
           style="stop-opacity:1; stop-color:white;" />
        <stop
           id="stop11"
           offset="100%"
           style="stop-opacity:1; stop-color:rgb(255,255,204);" />
      </linearGradient>
      <clipPath
         id="clipPath1"
         clipPathUnits="userSpaceOnUse">
        <path
           id="path14"
           d="M0 0 L880 0 L880 666 L0 666 L0 0 Z" />
      </clipPath>
      <clipPath
         id="clipPath2"
         clipPathUnits="userSpaceOnUse">
        <path
           id="path17"
           d="M0 0 L660 0 L660 499.5 L0 499.5 L0 0 Z" />
      </clipPath>
      <clipPath
         id="clipPath3"
         clipPathUnits="userSpaceOnUse">
        <path
           id="path20"
           d="M-20 -27 L640 -27 L640 472.5 L-20 472.5 L-20 -27 Z" />
      </clipPath>
      <clipPath
         id="clipPath4"
         clipPathUnits="userSpaceOnUse">
        <path
           id="path23"
           d="M-5 -5 L655 -5 L655 494.5 L-5 494.5 L-5 -5 Z" />
      </clipPath>
      <clipPath
         id="clipPath5"
         clipPathUnits="userSpaceOnUse">
        <path
           id="path26"
           d="M-234 -229.9688 L426 -229.9688 L426 269.5312 L-234 269.5312 L-234 -229.9688 Z" />
      </clipPath>
      <clipPath
         id="clipPath6"
         clipPathUnits="userSpaceOnUse">
        <path
           id="path29"
           d="M-234 -208 L426 -208 L426 291.5 L-234 291.5 L-234 -208 Z" />
      </clipPath>
    </defs>
  </defs>
  <g
     id="g49"
     style="font-weight:bold;font-family:sans-serif;fill:#c0c0c0;fill-opacity:0.50199998;stroke:#c0c0c0;stroke-width:2;stroke-opacity:0.50199998;shape-rendering:crispEdges;text-rendering:geometricPrecision"
     transform="matrix(1.3333,0,0,1.3333,6.6665,6.6665)">
    <rect
       clip-path="url(#clipPath4)"
       id="rect51"
       height="57.1875"
       style="stroke:none"
       width="191"
       y="192"
       x="224" />
    <rect
       clip-path="url(#clipPath4)"
       id="rect53"
       height="57.1875"
       style="fill:none"
       width="191"
       y="192"
       x="224" />
  </g>
  <g
     id="g55"
     style="font-weight:bold;font-family:sans-serif;fill:url(#linearGradient3407);stroke:url(#linearGradient3409);stroke-width:2;shape-rendering:crispEdges;text-rendering:geometricPrecision"
     transform="scale(1.3333,1.3333)">
    <rect
       clip-path="url(#clipPath2)"
       id="rect57"
       height="57.1875"
       style="fill:url(#linearGradient3405);stroke:none"
       width="191"
       y="192"
       x="224" />
    <rect
       clip-path="url(#clipPath2)"
       id="rect59"
       height="57.1875"
       style="fill:none;stroke:#000000"
       width="191"
       y="192"
       x="224" />
  </g>
  <g
     id="g61"
     transform="matrix(1.3333,0,0,1.3333,311.9922,306.6174)"
     style="font-family:sans-serif;stroke-width:2;text-rendering:optimizeLegibility">
    <path
       inkscape:connector-curvature="0"
       clip-path="url(#clipPath5)"
       id="path63"
       style="stroke:none"
       d="m 0.5938,-3.7656 3.1562,0 0,0.9531 -3.1562,0 0,-0.9531 z m 13.7851,-1.5313 q 0.4063,-0.7343 0.9688,-1.0781 0.5625,-0.3438 1.3281,-0.3438 1.0312,0 1.5859,0.7188 0.5547,0.7188 0.5547,2.0312 l 0,3.9688 -1.0781,0 0,-3.9219 q 0,-0.9531 -0.336,-1.4062 -0.3359,-0.4531 -1.0234,-0.4531 -0.8437,0 -1.3281,0.5546 -0.4844,0.5547 -0.4844,1.5235 l 0,3.7031 -1.0781,0 0,-3.9219 q 0,-0.9531 -0.336,-1.4062 -0.3359,-0.4531 -1.039,-0.4531 -0.8281,0 -1.3125,0.5546 -0.4844,0.5547 -0.4844,1.5235 l 0,3.7031 -1.0781,0 0,-6.5625 1.0781,0 0,1.0156 q 0.375,-0.5937 0.8906,-0.8828 0.5157,-0.2891 1.2188,-0.2891 0.7187,0 1.2187,0.3594 0.5,0.3594 0.7344,1.0625 z m 12.2051,1.75 0,0.5157 -4.9688,0 q 0.0782,1.125 0.6797,1.7031 0.6016,0.5781 1.6641,0.5781 0.625,0 1.2109,-0.1484 0.586,-0.1485 1.1641,-0.461 l 0,1.0313 q -0.5938,0.2343 -1.2031,0.3672 -0.6094,0.1328 -1.2344,0.1328 -1.5625,0 -2.4844,-0.9141 -0.9219,-0.914 -0.9219,-2.4766 0,-1.6093 0.875,-2.5546 0.875,-0.9454 2.3438,-0.9454 1.3281,0 2.1015,0.8516 0.7735,0.8516 0.7735,2.3203 z M 25.5059,-3.875 q -0.0157,-0.875 -0.5,-1.4062 -0.4844,-0.5313 -1.2813,-0.5313 -0.9062,0 -1.4453,0.5156 -0.5391,0.5157 -0.6172,1.4375 l 3.8438,-0.0156 z m 7.164,-1.6875 0,-3.5625 1.0781,0 0,9.125 -1.0781,0 0,-0.9844 q -0.3437,0.5782 -0.8594,0.8672 -0.5156,0.2891 -1.25,0.2891 -1.1875,0 -1.9375,-0.9531 -0.75,-0.9532 -0.75,-2.5 0,-1.5469 0.75,-2.4922 0.75,-0.9454 1.9375,-0.9454 0.7344,0 1.25,0.2813 0.5157,0.2813 0.8594,0.875 z m -3.6719,2.2813 q 0,1.1874 0.4844,1.8671 0.4844,0.6797 1.3438,0.6797 0.8593,0 1.3515,-0.6797 0.4922,-0.6797 0.4922,-1.8671 0,-1.1876 -0.4922,-1.8594 -0.4922,-0.6719 -1.3515,-0.6719 -0.8594,0 -1.3438,0.6719 -0.4844,0.6718 -0.4844,1.8594 z m 6.961,-3.2813 1.0781,0 0,6.5625 -1.0781,0 0,-6.5625 z m 0,-2.5625 1.0781,0 0,1.375 -1.0781,0 0,-1.375 z m 6.3183,5.8281 q -1.2968,0 -1.8046,0.2969 -0.5079,0.2969 -0.5079,1.0156 0,0.5782 0.3829,0.9141 0.3828,0.3359 1.0234,0.3359 0.9062,0 1.4453,-0.6328 Q 43.3555,-2 43.3555,-3.0625 l 0,-0.2344 -1.0782,0 z m 2.1563,-0.4531 0,3.75 -1.0781,0 0,-1 q -0.375,0.5938 -0.9219,0.8828 -0.5469,0.2891 -1.3438,0.2891 -1.0156,0 -1.6093,-0.5703 -0.5938,-0.5704 -0.5938,-1.5078 0,-1.1094 0.7422,-1.6719 0.7422,-0.5625 2.2109,-0.5625 l 1.5157,0 0,-0.1094 q 0,-0.75 -0.4922,-1.1562 -0.4922,-0.4063 -1.3672,-0.4063 -0.5625,0 -1.1016,0.1406 -0.539,0.1407 -1.0234,0.4063 l 0,-1 q 0.5937,-0.2344 1.1484,-0.3438 0.5547,-0.1094 1.086,-0.1094 1.4218,0 2.125,0.7344 0.7031,0.7344 0.7031,2.2344 z m 7.2129,5.75 0,0.8281 -6.25,0 0,-0.8281 6.25,0 z m 5.7344,-8.3125 0,1.0156 q -0.4688,-0.2656 -0.9219,-0.3906 -0.4531,-0.125 -0.9219,-0.125 -1.0625,0 -1.6406,0.6641 -0.5781,0.664 -0.5781,1.8672 0,1.2031 0.5781,1.8671 0.5781,0.6641 1.6406,0.6641 0.4688,0 0.9219,-0.125 Q 56.9121,-1 57.3809,-1.25 l 0,1 q -0.4532,0.2031 -0.9375,0.3125 -0.4844,0.1094 -1.0313,0.1094 -1.4844,0 -2.3594,-0.9297 -0.875,-0.9297 -0.875,-2.5234 0,-1.5938 0.8828,-2.5157 0.8829,-0.9219 2.4297,-0.9219 0.4844,0 0.961,0.1016 0.4765,0.1016 0.9297,0.3047 z m 4.4101,0.5 q -0.8594,0 -1.3672,0.6797 -0.5078,0.6797 -0.5078,1.8516 0,1.1874 0.5,1.8593 0.5,0.6719 1.375,0.6719 0.8594,0 1.3672,-0.6797 0.5078,-0.6797 0.5078,-1.8515 0,-1.1563 -0.5078,-1.8438 -0.5078,-0.6875 -1.3672,-0.6875 z m 0,-0.9063 q 1.4063,0 2.211,0.9141 0.8046,0.9141 0.8046,2.5235 0,1.6093 -0.8046,2.5312 -0.8047,0.9219 -2.211,0.9219 -1.4062,0 -2.2109,-0.9219 -0.8047,-0.9219 -0.8047,-2.5312 0,-1.6094 0.8047,-2.5235 0.8047,-0.9141 2.2109,-0.9141 z m 4.6856,4.125 0,-3.9687 1.0781,0 0,3.9375 q 0,0.9219 0.3672,1.3906 0.3672,0.4688 1.0859,0.4688 0.875,0 1.3828,-0.5547 0.5078,-0.5547 0.5078,-1.5235 l 0,-3.7187 1.0782,0 0,6.5625 -1.0782,0 0,-1.0156 q -0.3906,0.6094 -0.9062,0.8984 -0.5156,0.2891 -1.2031,0.2891 -1.1407,0 -1.7266,-0.7031 -0.5859,-0.7032 -0.5859,-2.0626 z m 13.1836,-1.375 0,3.9688 -1.0782,0 0,-3.9219 q 0,-0.9375 -0.3672,-1.3984 -0.3671,-0.4609 -1.0859,-0.4609 -0.875,0 -1.3828,0.5546 -0.5078,0.5547 -0.5078,1.5235 l 0,3.7031 -1.0781,0 0,-6.5625 1.0781,0 0,1.0156 q 0.3906,-0.5937 0.914,-0.8828 0.5235,-0.2891 1.211,-0.2891 1.125,0 1.7109,0.6954 0.586,0.6953 0.586,2.0546 z m 3.2148,-4.4531 0,1.8594 2.2188,0 0,0.8437 -2.2188,0 0,3.5626 q 0,0.7968 0.2188,1.0234 0.2187,0.2266 0.8906,0.2266 l 1.1094,0 0,0.9062 -1.1094,0 q -1.25,0 -1.7266,-0.4688 -0.4766,-0.4687 -0.4766,-1.6874 l 0,-3.5626 -0.7812,0 0,-0.8437 0.7812,0 0,-1.8594 1.0938,0 z m 7.7227,6.9375 1.2343,0 0,1.4844 -1.2343,0 0,-1.4844 z m 0,-4.7187 1.2343,0 0,1.4843 -1.2343,0 0,-1.4843 z m 7.5761,-0.3594 1.0782,0 0,6.5625 -1.0782,0 0,-6.5625 z m 0,-2.5625 1.0782,0 0,1.375 -1.0782,0 0,-1.375 z m 8.8028,5.1562 0,3.9688 -1.0782,0 0,-3.9219 q 0,-0.9375 -0.3672,-1.3984 -0.3671,-0.4609 -1.0859,-0.4609 -0.875,0 -1.3828,0.5546 -0.5078,0.5547 -0.5078,1.5235 l 0,3.7031 -1.0781,0 0,-6.5625 1.0781,0 0,1.0156 q 0.3906,-0.5937 0.9141,-0.8828 0.5234,-0.2891 1.2109,-0.2891 1.125,0 1.7109,0.6954 0.586,0.6953 0.586,2.0546 z m 3.2148,-4.4531 0,1.8594 2.2188,0 0,0.8437 -2.2188,0 0,3.5626 q 0,0.7968 0.2188,1.0234 0.2187,0.2266 0.8906,0.2266 l 1.1094,0 0,0.9062 -1.1094,0 q -1.25,0 -1.7266,-0.4688 -0.4765,-0.4687 -0.4765,-1.6874 l 0,-3.5626 -0.7813,0 0,-0.8437 0.7813,0 0,-1.8594 1.0937,0 z" />
  </g>
  <g
     id="g65"
     transform="scale(1.3333,1.3333)"
     style="font-family:sans-serif;text-rendering:optimizeLegibility">
    <line
       clip-path="url(#clipPath2)"
       id="line67"
       y2="235.9375"
       style="fill:none"
       y1="235.9375"
       x2="415"
       x1="224" />
    <line
       clip-path="url(#clipPath2)"
       id="line69"
       y2="213.9688"
       style="fill:none"
       y1="213.9688"
       x2="415"
       x1="224" />
  </g>
  <g
     id="g71"
     transform="matrix(1.3333,0,0,1.3333,311.9922,277.3264)"
     style="font-weight:bold;font-family:sans-serif;text-rendering:optimizeLegibility">
    <path
       inkscape:connector-curvature="0"
       clip-path="url(#clipPath6)"
       id="path73"
       style="stroke:none"
       d="m 1.1094,-8.75 2.25,0 0,3.3281 3.3281,0 0,-3.3281 2.25,0 0,8.75 -2.25,0 0,-3.7031 -3.3281,0 0,3.7031 -2.25,0 0,-8.75 z m 12.8867,5.7969 q -0.6563,0 -0.9922,0.2187 -0.3359,0.2188 -0.3359,0.6563 0,0.4062 0.2734,0.6328 0.2734,0.2265 0.7422,0.2265 0.5937,0 1,-0.4296 0.4062,-0.4297 0.4062,-1.0704 l 0,-0.2343 -1.0937,0 z m 3.2031,-0.7969 0,3.75 -2.1094,0 0,-0.9688 q -0.4218,0.5938 -0.9531,0.8672 -0.5312,0.2735 -1.2812,0.2735 -1.0313,0 -1.6641,-0.5938 -0.6328,-0.5937 -0.6328,-1.5469 0,-1.1562 0.7969,-1.6953 0.7968,-0.539 2.4843,-0.539 l 1.25,0 0,-0.1563 q 0,-0.5 -0.3984,-0.7344 -0.3984,-0.2343 -1.2266,-0.2343 -0.6718,0 -1.25,0.1328 -0.5781,0.1328 -1.0781,0.4141 l 0,-1.6094 q 0.6719,-0.1563 1.3516,-0.2422 0.6797,-0.086 1.3515,-0.086 1.7813,0 2.5704,0.6954 0.789,0.6953 0.789,2.2734 z m 7.082,-2.6094 0,1.5938 q -0.6718,-0.2813 -1.3046,-0.4219 -0.6328,-0.1406 -1.1797,-0.1406 -0.6094,0 -0.8985,0.1484 -0.289,0.1485 -0.289,0.4609 0,0.25 0.2187,0.3829 0.2188,0.1328 0.7969,0.2109 l 0.3594,0.0469 q 1.625,0.2031 2.1797,0.6719 0.5547,0.4687 0.5547,1.4687 0,1.0469 -0.7735,1.5781 -0.7734,0.5313 -2.3047,0.5313 -0.6562,0 -1.3515,-0.1016 -0.6953,-0.1015 -1.4297,-0.3047 l 0,-1.5937 q 0.625,0.2969 1.289,0.4531 0.6641,0.1562 1.336,0.1562 0.625,0 0.9297,-0.1718 0.3047,-0.1719 0.3047,-0.5156 0,-0.2813 -0.211,-0.4141 -0.2109,-0.1328 -0.8516,-0.2109 l -0.375,-0.0469 q -1.3906,-0.1719 -1.9531,-0.6485 -0.5625,-0.4765 -0.5625,-1.4453 0,-1.0469 0.711,-1.5469 0.7109,-0.5 2.1953,-0.5 0.5781,0 1.2187,0.086 0.6406,0.0859 1.3906,0.2734 z M 32.8926,-4 l 0,4 -2.1094,0 0,-0.6562 0,-2.3907 q 0,-0.8593 -0.0391,-1.1797 -0.039,-0.3203 -0.1328,-0.4765 -0.125,-0.2031 -0.3359,-0.3203 -0.2109,-0.1172 -0.4766,-0.1172 -0.6562,0 -1.0312,0.5078 -0.375,0.5078 -0.375,1.3984 l 0,3.2344 -2.0938,0 0,-9.125 2.0938,0 0,3.5156 q 0.4687,-0.5625 1,-0.8359 0.5312,-0.2735 1.1875,-0.2735 1.125,0 1.7187,0.6954 0.5938,0.6953 0.5938,2.0234 z m 4.2304,-4.4219 0,1.8594 2.1719,0 0,1.5 -2.1719,0 0,2.7813 q 0,0.4531 0.1797,0.6171 0.1797,0.1641 0.7266,0.1641 l 1.0781,0 0,1.5 -1.7969,0 q -1.25,0 -1.7656,-0.5156 -0.5156,-0.5156 -0.5156,-1.7656 l 0,-2.7813 -1.0469,0 0,-1.5 1.0469,0 0,-1.8594 2.0937,0 z m 6.3926,5.4688 q -0.6562,0 -0.9922,0.2187 -0.3359,0.2188 -0.3359,0.6563 0,0.4062 0.2734,0.6328 0.2735,0.2265 0.7422,0.2265 0.5938,0 1,-0.4296 0.4063,-0.4297 0.4063,-1.0704 l 0,-0.2343 -1.0938,0 z m 3.2032,-0.7969 0,3.75 -2.1094,0 0,-0.9688 q -0.4219,0.5938 -0.9532,0.8672 -0.5312,0.2735 -1.2812,0.2735 -1.0312,0 -1.6641,-0.5938 -0.6328,-0.5937 -0.6328,-1.5469 0,-1.1562 0.7969,-1.6953 0.7969,-0.539 2.4844,-0.539 l 1.25,0 0,-0.1563 q 0,-0.5 -0.3985,-0.7344 -0.3984,-0.2343 -1.2265,-0.2343 -0.6719,0 -1.25,0.1328 -0.5782,0.1328 -1.0782,0.4141 l 0,-1.6094 q 0.6719,-0.1563 1.3516,-0.2422 0.6797,-0.086 1.3516,-0.086 1.7812,0 2.5703,0.6954 0.7891,0.6953 0.7891,2.2734 z m 6.4101,2.6406 Q 52.707,-0.5469 52.1836,-0.2734 51.6602,0 50.9727,0 49.7695,0 48.9883,-0.9453 48.207,-1.8906 48.207,-3.3594 q 0,-1.4687 0.7813,-2.4062 0.7812,-0.9375 1.9844,-0.9375 0.6875,0 1.2109,0.2656 0.5234,0.2656 0.9453,0.8437 l 0,-0.9687 2.1094,0 0,5.9063 q 0,1.5781 -1,2.414 -1,0.836 -2.8906,0.836 -0.6094,0 -1.1875,-0.0938 Q 49.582,2.4062 49.0039,2.2031 l 0,-1.625 q 0.5469,0.3125 1.0781,0.4688 0.5313,0.1562 1.0625,0.1562 1.0313,0 1.5078,-0.4531 0.4766,-0.4531 0.4766,-1.4062 l 0,-0.4532 z m -1.375,-4.0937 q -0.6562,0 -1.0156,0.4843 -0.3594,0.4844 -0.3594,1.3594 0,0.9063 0.3516,1.3672 0.3515,0.461 1.0234,0.461 0.6563,0 1.0156,-0.4766 0.3594,-0.4766 0.3594,-1.3516 0,-0.875 -0.3594,-1.3594 -0.3593,-0.4843 -1.0156,-0.4843 z m 4.5586,-3.5469 8.0625,0 0,1.7031 -2.9062,0 0,7.0469 -2.25,0 0,-7.0469 -2.9063,0 0,-1.7031 z m 14.0137,3.9688 q -0.2813,-0.125 -0.5547,-0.1876 -0.2735,-0.0624 -0.5547,-0.0624 -0.7969,0 -1.2344,0.5234 -0.4375,0.5234 -0.4375,1.4766 l 0,3.0312 -2.0937,0 0,-6.5625 2.0937,0 0,1.0781 q 0.4063,-0.6406 0.9297,-0.9375 0.5234,-0.2969 1.2578,-0.2969 0.0938,0 0.2188,0.0079 0.125,0.0078 0.3593,0.039 l 0.0157,1.8907 z m 7.5898,1.4843 0,0.5938 -4.9062,0 q 0.0781,0.7343 0.5312,1.1093 0.4531,0.375 1.2813,0.375 0.6562,0 1.3515,-0.2031 0.6953,-0.2031 1.4297,-0.5937 l 0,1.6094 q -0.75,0.2812 -1.4922,0.4296 -0.7422,0.1485 -1.4922,0.1485 -1.7812,0 -2.7656,-0.9063 -0.9844,-0.9062 -0.9844,-2.5468 0,-1.5938 0.9688,-2.5157 0.9687,-0.9219 2.6719,-0.9219 1.5468,0 2.4765,0.9297 0.9297,0.9297 0.9297,2.4922 z M 75.7598,-4 q 0,-0.5938 -0.3516,-0.9609 -0.3516,-0.3672 -0.9141,-0.3672 -0.6093,0 -0.9921,0.3437 Q 73.1191,-4.6406 73.0254,-4 l 2.7344,0 z m 10.3418,0 0,4 -2.1094,0 0,-0.6562 0,-2.4063 q 0,-0.8437 -0.0391,-1.1641 -0.039,-0.3203 -0.1328,-0.4765 -0.125,-0.2031 -0.3359,-0.3203 -0.211,-0.1172 -0.4766,-0.1172 -0.6562,0 -1.0312,0.5078 -0.375,0.5078 -0.375,1.3984 l 0,3.2344 -2.0938,0 0,-6.5625 2.0938,0 0,0.9531 q 0.4687,-0.5625 1,-0.8359 0.5312,-0.2735 1.1875,-0.2735 1.125,0 1.7187,0.6954 0.5938,0.6953 0.5938,2.0234 z m 6.4023,-1.6094 0,-3.5156 2.1094,0 0,9.125 -2.1094,0 0,-0.9531 q -0.4219,0.5781 -0.9453,0.8515 -0.5234,0.2735 -1.2109,0.2735 -1.2188,0 -1.9922,-0.9688 -0.7735,-0.9687 -0.7735,-2.4843 0,-1.5157 0.7735,-2.4766 0.7734,-0.961 1.9922,-0.961 0.6718,0 1.2031,0.2735 0.5312,0.2734 0.9531,0.8359 z m -1.375,4.25 q 0.6719,0 1.0234,-0.4922 0.3516,-0.4922 0.3516,-1.4296 0,-0.9376 -0.3516,-1.4297 -0.3515,-0.4922 -1.0234,-0.4922 -0.6719,0 -1.0234,0.4922 -0.3516,0.4921 -0.3516,1.4297 0,0.9374 0.3516,1.4296 0.3515,0.4922 1.0234,0.4922 z m 8.8086,-3.5156 q 0.7031,0 1.0078,-0.2578 Q 101.25,-5.3906 101.25,-6 q 0,-0.5938 -0.3047,-0.8516 -0.3047,-0.2578 -1.0078,-0.2578 l -0.9531,0 0,2.2344 0.9531,0 z m -0.9531,1.5625 0,3.3125 -2.25,0 0,-8.75 3.4375,0 q 1.7343,0 2.539,0.5781 0.8047,0.5781 0.8047,1.8438 0,0.8593 -0.4218,1.414 -0.4219,0.5547 -1.2657,0.8203 0.4688,0.1094 0.836,0.4844 0.3671,0.375 0.7421,1.125 L 104.625,0 l -2.4062,0 -1.0626,-2.1719 q -0.3281,-0.6562 -0.6562,-0.8984 -0.3281,-0.2422 -0.875,-0.2422 l -0.6406,0 z m 13.4433,0.0156 0,0.5938 -4.9062,0 q 0.0781,0.7343 0.5312,1.1093 0.4532,0.375 1.2813,0.375 0.6562,0 1.3515,-0.2031 0.6954,-0.2031 1.4297,-0.5937 l 0,1.6094 q -0.75,0.2812 -1.4922,0.4296 -0.7421,0.1485 -1.4921,0.1485 -1.7813,0 -2.7657,-0.9063 -0.9843,-0.9062 -0.9843,-2.5468 0,-1.5938 0.9687,-2.5157 0.9688,-0.9219 2.6719,-0.9219 1.5469,0 2.4765,0.9297 0.9297,0.9297 0.9297,2.4922 z M 110.2715,-4 q 0,-0.5938 -0.3516,-0.9609 -0.3515,-0.3672 -0.914,-0.3672 -0.6094,0 -0.9922,0.3437 -0.3828,0.3438 -0.4766,0.9844 l 2.7344,0 z m 8.873,-2.3594 0,1.5938 q -0.6718,-0.2813 -1.3047,-0.4219 -0.6328,-0.1406 -1.1796,-0.1406 -0.6094,0 -0.8985,0.1484 -0.289,0.1485 -0.289,0.4609 0,0.25 0.2187,0.3829 0.2188,0.1328 0.7969,0.2109 l 0.3594,0.0469 q 1.625,0.2031 2.1796,0.6719 0.5547,0.4687 0.5547,1.4687 0,1.0469 -0.7734,1.5781 -0.7734,0.5313 -2.3047,0.5313 -0.6562,0 -1.3516,-0.1016 -0.6953,-0.1015 -1.4296,-0.3047 l 0,-1.5937 q 0.625,0.2969 1.289,0.4531 0.6641,0.1562 1.336,0.1562 0.625,0 0.9296,-0.1718 0.3047,-0.1719 0.3047,-0.5156 0,-0.2813 -0.2109,-0.4141 -0.2109,-0.1328 -0.8516,-0.2109 l -0.375,-0.0469 q -1.3906,-0.1719 -1.9531,-0.6485 -0.5625,-0.4765 -0.5625,-1.4453 0,-1.0469 0.7109,-1.5469 0.711,-0.5 2.1954,-0.5 0.5781,0 1.2187,0.086 0.6406,0.0859 1.3906,0.2734 z m 4.1114,5.4063 0,3.4531 -2.0938,0 0,-9.0625 2.0938,0 0,0.9531 q 0.4375,-0.5625 0.9609,-0.8359 0.5234,-0.2735 1.2109,-0.2735 1.2188,0 1.9922,0.961 0.7735,0.9609 0.7735,2.4766 0,1.5156 -0.7735,2.4843 -0.7734,0.9688 -1.9922,0.9688 -0.6875,0 -1.2109,-0.2735 -0.5234,-0.2734 -0.9609,-0.8515 z m 1.3906,-4.25 q -0.6719,0 -1.0313,0.5 -0.3593,0.5 -0.3593,1.4219 0,0.9374 0.3593,1.4296 0.3594,0.4922 1.0313,0.4922 0.6719,0 1.0312,-0.4922 0.3594,-0.4922 0.3594,-1.4296 0,-0.9376 -0.3594,-1.4297 -0.3593,-0.4922 -1.0312,-0.4922 z m 8.2148,-0.0157 q -0.6875,0 -1.0547,0.5 -0.3671,0.5 -0.3671,1.4376 0,0.9531 0.3671,1.4531 0.3672,0.5 1.0547,0.5 0.6875,0 1.0547,-0.5 0.3672,-0.5 0.3672,-1.4531 0,-0.9376 -0.3672,-1.4376 -0.3672,-0.5 -1.0547,-0.5 z m 0,-1.5 q 1.7032,0 2.6563,0.9141 0.9531,0.9141 0.9531,2.5235 0,1.625 -0.9531,2.539 -0.9531,0.9141 -2.6563,0.9141 -1.6875,0 -2.6484,-0.9141 -0.9609,-0.914 -0.9609,-2.539 0,-1.6094 0.9609,-2.5235 0.9609,-0.9141 2.6484,-0.9141 z M 144.5898,-4 l 0,4 -2.1093,0 0,-0.6562 0,-2.4063 q 0,-0.8437 -0.0391,-1.1641 -0.0391,-0.3203 -0.1328,-0.4765 -0.125,-0.2031 -0.3359,-0.3203 -0.211,-0.1172 -0.4766,-0.1172 -0.6563,0 -1.0313,0.5078 -0.375,0.5078 -0.375,1.3984 l 0,3.2344 -2.0937,0 0,-6.5625 2.0937,0 0,0.9531 q 0.4688,-0.5625 1,-0.8359 0.5313,-0.2735 1.1875,-0.2735 1.125,0 1.7188,0.6954 0.5937,0.6953 0.5937,2.0234 z m 7.0743,-2.3594 0,1.5938 q -0.6719,-0.2813 -1.3047,-0.4219 -0.6328,-0.1406 -1.1797,-0.1406 -0.6094,0 -0.8985,0.1484 -0.289,0.1485 -0.289,0.4609 0,0.25 0.2187,0.3829 0.2188,0.1328 0.7969,0.2109 l 0.3594,0.0469 q 1.625,0.2031 2.1797,0.6719 0.5547,0.4687 0.5547,1.4687 0,1.0469 -0.7735,1.5781 -0.7734,0.5313 -2.3047,0.5313 -0.6562,0 -1.3515,-0.1016 -0.6953,-0.1015 -1.4297,-0.3047 l 0,-1.5937 q 0.625,0.2969 1.289,0.4531 0.6641,0.1562 1.336,0.1562 0.625,0 0.9297,-0.1718 0.3047,-0.1719 0.3047,-0.5156 0,-0.2813 -0.211,-0.4141 -0.2109,-0.1328 -0.8515,-0.2109 l -0.375,-0.0469 q -1.3907,-0.1719 -1.9532,-0.6485 -0.5625,-0.4765 -0.5625,-1.4453 0,-1.0469 0.711,-1.5469 0.7109,-0.5 2.1953,-0.5 0.5781,0 1.2187,0.086 0.6407,0.0859 1.3907,0.2734 z m 8.5644,3.0625 0,0.5938 -4.9062,0 q 0.0781,0.7343 0.5312,1.1093 0.4531,0.375 1.2813,0.375 0.6562,0 1.3515,-0.2031 0.6953,-0.2031 1.4297,-0.5937 l 0,1.6094 q -0.75,0.2812 -1.4922,0.4296 -0.7422,0.1485 -1.4922,0.1485 -1.7812,0 -2.7656,-0.9063 -0.9844,-0.9062 -0.9844,-2.5468 0,-1.5938 0.9688,-2.5157 0.9687,-0.9219 2.6719,-0.9219 1.5468,0 2.4765,0.9297 0.9297,0.9297 0.9297,2.4922 z M 158.0723,-4 q 0,-0.5938 -0.3516,-0.9609 -0.3516,-0.3672 -0.9141,-0.3672 -0.6093,0 -0.9921,0.3437 -0.3829,0.3438 -0.4766,0.9844 l 2.7344,0 z" />
  </g>
</svg>
