<?xml version="1.0" encoding="UTF-8" standalone="no"?>
<svg
   xmlns:dc="http://purl.org/dc/elements/1.1/"
   xmlns:cc="http://creativecommons.org/ns#"
   xmlns:rdf="http://www.w3.org/1999/02/22-rdf-syntax-ns#"
   xmlns:svg="http://www.w3.org/2000/svg"
   xmlns="http://www.w3.org/2000/svg"
   xmlns:xlink="http://www.w3.org/1999/xlink"
   xmlns:sodipodi="http://sodipodi.sourceforge.net/DTD/sodipodi-0.dtd"
   xmlns:inkscape="http://www.inkscape.org/namespaces/inkscape"
   style="fill-opacity:1; color-rendering:auto; color-interpolation:auto; stroke:black; text-rendering:auto; stroke-linecap:square; stroke-miterlimit:10; stroke-opacity:1; shape-rendering:auto; fill:black; stroke-dasharray:none; font-weight:normal; stroke-width:1; font-family:'Dialog'; font-style:normal; stroke-linejoin:miter; font-size:12; stroke-dashoffset:0; image-rendering:auto;"
   width="880"
   height="666"
   id="svg2"
   version="1.1"
   inkscape:version="0.91 r13725"
   sodipodi:docname="i_command.svg">
  <metadata
     id="metadata77">
    <rdf:RDF>
      <cc:Work
         rdf:about="">
        <dc:format>image/svg+xml</dc:format>
        <dc:type
           rdf:resource="http://purl.org/dc/dcmitype/StillImage" />
      </cc:Work>
    </rdf:RDF>
  </metadata>
  <sodipodi:namedview
     pagecolor="#ffffff"
     bordercolor="#666666"
     borderopacity="1"
     objecttolerance="10"
     gridtolerance="10"
     guidetolerance="10"
     inkscape:pageopacity="0"
     inkscape:pageshadow="2"
     inkscape:window-width="640"
     inkscape:window-height="480"
     id="namedview75"
     showgrid="false"
     inkscape:zoom="0.35435435"
     inkscape:cx="440"
     inkscape:cy="333"
     inkscape:window-x="370"
     inkscape:window-y="213"
     inkscape:window-maximized="0"
     inkscape:current-layer="svg2" />
  <!--Generated by the Batik Graphics2D SVG Generator-->
  <defs
     id="genericDefs">
    <linearGradient
       inkscape:collect="always"
       xlink:href="#linearGradient1"
       id="linearGradient3405"
       gradientUnits="userSpaceOnUse"
       spreadMethod="pad"
       x1="200"
       y1="117"
       x2="368"
       y2="188" />
    <linearGradient
       inkscape:collect="always"
       xlink:href="#linearGradient1"
       id="linearGradient3407"
       gradientUnits="userSpaceOnUse"
       spreadMethod="pad"
       x1="200"
       y1="117"
       x2="368"
       y2="188" />
    <linearGradient
       inkscape:collect="always"
       xlink:href="#linearGradient1"
       id="linearGradient3409"
       gradientUnits="userSpaceOnUse"
       spreadMethod="pad"
       x1="200"
       y1="117"
       x2="368"
       y2="188" />
    <defs
       id="defs1">
      <linearGradient
         spreadMethod="pad"
         id="linearGradient1"
         y2="188"
         y1="117"
         x2="368"
         gradientUnits="userSpaceOnUse"
         x1="200">
        <stop
           id="stop9"
           offset="0%"
           style="stop-opacity:1; stop-color:white;" />
        <stop
           id="stop11"
           offset="100%"
           style="stop-opacity:1; stop-color:rgb(255,255,204);" />
      </linearGradient>
      <clipPath
         id="clipPath1"
         clipPathUnits="userSpaceOnUse">
        <path
           id="path14"
           d="M0 0 L880 0 L880 666 L0 666 L0 0 Z" />
      </clipPath>
      <clipPath
         id="clipPath2"
         clipPathUnits="userSpaceOnUse">
        <path
           id="path17"
           d="M0 0 L660 0 L660 499.5 L0 499.5 L0 0 Z" />
      </clipPath>
      <clipPath
         id="clipPath3"
         clipPathUnits="userSpaceOnUse">
        <path
           id="path20"
           d="M-20 -27 L640 -27 L640 472.5 L-20 472.5 L-20 -27 Z" />
      </clipPath>
      <clipPath
         id="clipPath4"
         clipPathUnits="userSpaceOnUse">
        <path
           id="path23"
           d="M-5 -5 L655 -5 L655 494.5 L-5 494.5 L-5 -5 Z" />
      </clipPath>
      <clipPath
         id="clipPath5"
         clipPathUnits="userSpaceOnUse">
        <path
           id="path26"
           d="M-210 -162.9688 L450 -162.9688 L450 336.5312 L-210 336.5312 L-210 -162.9688 Z" />
      </clipPath>
      <clipPath
         id="clipPath6"
         clipPathUnits="userSpaceOnUse">
        <path
           id="path29"
           d="M-247.5 -133 L412.5 -133 L412.5 366.5 L-247.5 366.5 L-247.5 -133 Z" />
      </clipPath>
    </defs>
  </defs>
  <g
     id="g49"
     style="font-weight:bold;font-family:sans-serif;fill:#c0c0c0;fill-opacity:0.50199998;stroke:#c0c0c0;stroke-width:2;stroke-opacity:0.50199998;shape-rendering:crispEdges;text-rendering:geometricPrecision"
     transform="matrix(1.3333,0,0,1.3333,6.6665,6.6665)">
    <rect
       clip-path="url(#clipPath4)"
       id="rect51"
       height="71"
       style="stroke:none"
       width="168"
       y="117"
       x="200" />
    <rect
       clip-path="url(#clipPath4)"
       id="rect53"
       height="71"
       style="fill:none"
       width="168"
       y="117"
       x="200" />
  </g>
  <g
     id="g55"
     style="font-weight:bold;font-family:sans-serif;fill:url(#linearGradient3407);stroke:url(#linearGradient3409);stroke-width:2;shape-rendering:crispEdges;text-rendering:geometricPrecision"
     transform="scale(1.3333,1.3333)">
    <rect
       clip-path="url(#clipPath2)"
       id="rect57"
       height="71"
       style="fill:url(#linearGradient3405);stroke:none"
       width="168"
       y="117"
       x="200" />
    <rect
       clip-path="url(#clipPath2)"
       id="rect59"
       height="71"
       style="fill:none;stroke:#000000"
       width="168"
       y="117"
       x="200" />
  </g>
  <g
     id="g61"
     transform="matrix(1.3333,0,0,1.3333,279.993,217.2863)"
     style="font-family:sans-serif;stroke-width:2;text-rendering:optimizeLegibility">
    <path
       inkscape:connector-curvature="0"
       clip-path="url(#clipPath5)"
       id="path63"
       style="stroke:none"
       d="m 5.5156,-7.5312 0,3.2656 3.2656,0 0,1 -3.2656,0 0,3.2656 -0.9844,0 0,-3.2656 -3.2656,0 0,-1 3.2656,0 0,-3.2656 0.9844,0 z m 15.1035,3.9843 0,0.5157 -4.9687,0 q 0.0781,1.125 0.6797,1.7031 0.6015,0.5781 1.664,0.5781 0.625,0 1.211,-0.1484 0.5859,-0.1485 1.164,-0.461 l 0,1.0313 q -0.5937,0.2343 -1.2031,0.3672 -0.6094,0.1328 -1.2344,0.1328 -1.5625,0 -2.4843,-0.9141 -0.9219,-0.914 -0.9219,-2.4766 0,-1.6093 0.875,-2.5546 0.875,-0.9454 2.3437,-0.9454 1.3282,0 2.1016,0.8516 0.7734,0.8516 0.7734,2.3203 z M 19.541,-3.875 q -0.0156,-0.875 -0.5,-1.4062 -0.4844,-0.5313 -1.2812,-0.5313 -0.9063,0 -1.4453,0.5156 -0.5391,0.5157 -0.6172,1.4375 L 19.541,-3.875 Z M 27.8457,-6.5625 25.4707,-3.375 27.9551,0 26.6895,0 24.7832,-2.5781 22.877,0 l -1.2813,0 2.5469,-3.4375 -2.3281,-3.125 1.2656,0 1.75,2.3437 1.7344,-2.3437 1.2812,0 z m 7.2578,3.0156 0,0.5157 -4.9687,0 q 0.0781,1.125 0.6797,1.7031 0.6015,0.5781 1.664,0.5781 0.625,0 1.211,-0.1484 0.5859,-0.1485 1.164,-0.461 l 0,1.0313 q -0.5937,0.2343 -1.2031,0.3672 -0.6094,0.1328 -1.2344,0.1328 -1.5625,0 -2.4844,-0.9141 -0.9218,-0.914 -0.9218,-2.4766 0,-1.6093 0.875,-2.5546 0.875,-0.9454 2.3437,-0.9454 1.3281,0 2.1016,0.8516 0.7734,0.8516 0.7734,2.3203 z M 34.0254,-3.875 q -0.0156,-0.875 -0.5,-1.4062 -0.4844,-0.5313 -1.2813,-0.5313 -0.9062,0 -1.4453,0.5156 -0.539,0.5157 -0.6172,1.4375 l 3.8438,-0.0156 z m 7.5703,-2.4375 0,1.0156 q -0.4687,-0.2656 -0.9219,-0.3906 -0.4531,-0.125 -0.9218,-0.125 -1.0625,0 -1.6407,0.6641 -0.5781,0.664 -0.5781,1.8672 0,1.2031 0.5781,1.8671 0.5782,0.6641 1.6407,0.6641 0.4687,0 0.9218,-0.125 Q 41.127,-1 41.5957,-1.25 l 0,1 q -0.4531,0.2031 -0.9375,0.3125 -0.4844,0.1094 -1.0312,0.1094 -1.4844,0 -2.3594,-0.9297 -0.875,-0.9297 -0.875,-2.5234 0,-1.5938 0.8828,-2.5157 0.8828,-0.9219 2.4297,-0.9219 0.4844,0 0.9609,0.1016 0.4766,0.1016 0.9297,0.3047 z m 1.7539,3.7187 0,-3.9687 1.0781,0 0,3.9375 q 0,0.9219 0.3672,1.3906 0.3672,0.4688 1.086,0.4688 0.875,0 1.3828,-0.5547 0.5078,-0.5547 0.5078,-1.5235 l 0,-3.7187 1.0781,0 0,6.5625 -1.0781,0 0,-1.0156 q -0.3906,0.6094 -0.9063,0.8984 -0.5156,0.2891 -1.2031,0.2891 -1.1406,0 -1.7266,-0.7031 -0.5859,-0.7032 -0.5859,-2.0626 z m 8.793,-5.8281 0,1.8594 2.2187,0 0,0.8437 -2.2187,0 0,3.5626 q 0,0.7968 0.2187,1.0234 0.2188,0.2266 0.8907,0.2266 l 1.1093,0 0,0.9062 -1.1093,0 q -1.25,0 -1.7266,-0.4688 -0.4766,-0.4687 -0.4766,-1.6874 l 0,-3.5626 -0.7812,0 0,-0.8437 0.7812,0 0,-1.8594 1.0938,0 z m 9.2519,4.875 0,0.5157 -4.9687,0 q 0.0781,1.125 0.6797,1.7031 0.6015,0.5781 1.664,0.5781 0.625,0 1.211,-0.1484 0.5859,-0.1485 1.164,-0.461 l 0,1.0313 q -0.5937,0.2343 -1.2031,0.3672 -0.6094,0.1328 -1.2344,0.1328 -1.5625,0 -2.4843,-0.9141 -0.9219,-0.914 -0.9219,-2.4766 0,-1.6093 0.875,-2.5546 0.875,-0.9454 2.3437,-0.9454 1.3282,0 2.1016,0.8516 0.7734,0.8516 0.7734,2.3203 z M 60.3164,-3.875 q -0.0156,-0.875 -0.5,-1.4062 -0.4844,-0.5313 -1.2812,-0.5313 -0.9063,0 -1.4454,0.5156 -0.539,0.5157 -0.6171,1.4375 l 3.8437,-0.0156 z m 5.4297,-5.2344 q -0.7813,1.3438 -1.1641,2.6641 -0.3828,1.3203 -0.3828,2.6797 0,1.3437 0.3828,2.6718 0.3828,1.3282 1.1641,2.6719 l -0.9375,0 q -0.875,-1.375 -1.3125,-2.7031 -0.4375,-1.3281 -0.4375,-2.6406 0,-1.3125 0.4375,-2.6328 0.4375,-1.3204 1.3125,-2.711 l 0.9375,0 z m 1.9316,0 0.9375,0 q 0.875,1.3906 1.3125,2.711 0.4375,1.3203 0.4375,2.6328 0,1.3125 -0.4375,2.6406 -0.4375,1.3281 -1.3125,2.7031 l -0.9375,0 q 0.7657,-1.3437 1.1563,-2.6719 0.3906,-1.3281 0.3906,-2.6718 0,-1.3594 -0.3906,-2.6797 -0.3906,-1.3203 -1.1563,-2.6641 z m 8.9336,7.625 1.2344,0 0,1.4844 -1.2344,0 0,-1.4844 z m 0,-4.7187 1.2344,0 0,1.4843 -1.2344,0 0,-1.4843 z m 8.8106,-1.5781 0,6.8124 1.4375,0 q 1.8125,0 2.6484,-0.8203 0.836,-0.8203 0.836,-2.6015 0,-1.75 -0.836,-2.5703 -0.8359,-0.8203 -2.6484,-0.8203 l -1.4375,0 z m -1.1875,-0.9688 2.4375,0 q 2.5469,0 3.7343,1.0547 1.1876,1.0547 1.1876,3.3047 0,2.2656 -1.1954,3.3281 Q 89.2031,0 86.6719,0 l -2.4375,0 0,-8.75 z m 9.1933,2.1875 1.0782,0 0,6.5625 -1.0782,0 0,-6.5625 z m 0,-2.5625 1.0782,0 0,1.375 -1.0782,0 0,-1.375 z m 8.0684,2.8125 0,1.0156 q -0.4688,-0.2656 -0.9219,-0.3906 -0.4531,-0.125 -0.9219,-0.125 -1.0625,0 -1.6406,0.6641 -0.5781,0.664 -0.5781,1.8672 0,1.2031 0.5781,1.8671 0.5781,0.6641 1.6406,0.6641 0.4688,0 0.9219,-0.125 0.4531,-0.125 0.9219,-0.375 l 0,1 q -0.4531,0.2031 -0.9375,0.3125 -0.4844,0.1094 -1.0313,0.1094 -1.4843,0 -2.3593,-0.9297 -0.875,-0.9297 -0.875,-2.5234 0,-1.5938 0.8828,-2.5157 0.8828,-0.9219 2.4297,-0.9219 0.4843,0 0.9609,0.1016 0.4766,0.1016 0.9297,0.3047 z m 2.9414,-2.1094 0,1.8594 2.2187,0 0,0.8437 -2.2187,0 0,3.5626 q 0,0.7968 0.2187,1.0234 0.2188,0.2266 0.8907,0.2266 l 1.1093,0 0,0.9062 -1.1093,0 q -1.25,0 -1.7266,-0.4688 -0.4765,-0.4687 -0.4765,-1.6874 l 0,-3.5626 -0.7813,0 0,-0.8437 0.7813,0 0,-1.8594 1.0937,0 z m 3.627,1.8594 1.0781,0 0,6.5625 -1.0781,0 0,-6.5625 z m 0,-2.5625 1.0781,0 0,1.375 -1.0781,0 0,-1.375 z m 5.8808,3.3125 q -0.8594,0 -1.3672,0.6797 -0.5078,0.6797 -0.5078,1.8516 0,1.1874 0.5,1.8593 0.5,0.6719 1.375,0.6719 0.8594,0 1.3672,-0.6797 0.5078,-0.6797 0.5078,-1.8515 0,-1.1563 -0.5078,-1.8438 -0.5078,-0.6875 -1.3672,-0.6875 z m 0,-0.9063 q 1.4063,0 2.2109,0.9141 0.8047,0.9141 0.8047,2.5235 0,1.6093 -0.8047,2.5312 -0.8046,0.9219 -2.2109,0.9219 -1.4062,0 -2.2109,-0.9219 -0.8047,-0.9219 -0.8047,-2.5312 0,-1.6094 0.8047,-2.5235 0.8047,-0.9141 2.2109,-0.9141 z m 10.2637,2.75 0,3.9688 -1.0781,0 0,-3.9219 q 0,-0.9375 -0.3672,-1.3984 -0.3672,-0.4609 -1.086,-0.4609 -0.875,0 -1.3828,0.5546 -0.5078,0.5547 -0.5078,1.5235 l 0,3.7031 -1.0781,0 0,-6.5625 1.0781,0 0,1.0156 q 0.3906,-0.5937 0.9141,-0.8828 0.5234,-0.2891 1.2109,-0.2891 1.125,0 1.7109,0.6954 0.586,0.6953 0.586,2.0546 z m 5.1211,0.6719 q -1.2969,0 -1.8047,0.2969 -0.5078,0.2969 -0.5078,1.0156 0,0.5782 0.3828,0.9141 0.3828,0.3359 1.0234,0.3359 0.9063,0 1.4453,-0.6328 0.5391,-0.6328 0.5391,-1.6953 l 0,-0.2344 -1.0781,0 z m 2.1562,-0.4531 0,3.75 -1.0781,0 0,-1 q -0.375,0.5938 -0.9219,0.8828 -0.5468,0.2891 -1.3437,0.2891 -1.0156,0 -1.6094,-0.5703 -0.5937,-0.5704 -0.5937,-1.5078 0,-1.1094 0.7421,-1.6719 0.7422,-0.5625 2.211,-0.5625 l 1.5156,0 0,-0.1094 q 0,-0.75 -0.4922,-1.1562 -0.4922,-0.4063 -1.3672,-0.4063 -0.5625,0 -1.1015,0.1406 -0.5391,0.1407 -1.0235,0.4063 l 0,-1 q 0.5938,-0.2344 1.1485,-0.3438 0.5547,-0.1094 1.0859,-0.1094 1.4219,0 2.125,0.7344 0.7031,0.7344 0.7031,2.2344 z m 6.0254,-1.8125 q -0.1875,-0.0937 -0.3984,-0.1484 -0.211,-0.0547 -0.4766,-0.0547 -0.9062,0 -1.3984,0.5937 -0.4922,0.5938 -0.4922,1.7188 l 0,3.4531 -1.0781,0 0,-6.5625 1.0781,0 0,1.0156 q 0.3437,-0.5937 0.8906,-0.8828 0.5469,-0.2891 1.3281,-0.2891 0.1094,0 0.2422,0.0157 0.1328,0.0156 0.2891,0.0469 l 0.0156,1.0937 z m 3.8555,6.1719 Q 140.9141,1.7812 140.4766,2.1406 140.0391,2.5 139.3203,2.5 l -0.8594,0 0,-0.9062 0.625,0 q 0.4532,0 0.6953,-0.211 0.2422,-0.2109 0.5391,-0.9922 l 0.2031,-0.5 -2.6562,-6.4531 1.1406,0 2.0469,5.125 2.0625,-5.125 1.1406,0 -2.8906,7.1719 z" />
  </g>
  <g
     id="g65"
     transform="scale(1.3333,1.3333)"
     style="font-family:sans-serif;text-rendering:optimizeLegibility">
    <line
       clip-path="url(#clipPath2)"
       id="line67"
       y2="146.9688"
       style="fill:none"
       y1="146.9688"
       x2="368"
       x1="200" />
    <line
       clip-path="url(#clipPath2)"
       id="line69"
       y2="138.9688"
       style="fill:none"
       y1="138.9688"
       x2="368"
       x1="200" />
  </g>
  <g
     id="g71"
     transform="matrix(1.3333,0,0,1.3333,329.99175,177.3289)"
     style="font-weight:bold;font-family:sans-serif;text-rendering:optimizeLegibility">
    <path
       inkscape:connector-curvature="0"
       clip-path="url(#clipPath6)"
       id="path73"
       style="stroke:none"
       d="m 1.1094,-8.75 2.25,0 0,8.75 -2.25,0 0,-8.75 z m 11.4023,8.2656 q -0.625,0.3282 -1.2969,0.4922 -0.6718,0.1641 -1.4062,0.1641 -2.1875,0 -3.4688,-1.2266 -1.2812,-1.2265 -1.2812,-3.3047 0,-2.1094 1.2812,-3.3281 1.2813,-1.2187 3.4688,-1.2187 0.7344,0 1.4062,0.164 0.6719,0.1641 1.2969,0.4922 l 0,1.7969 q -0.6406,-0.4219 -1.25,-0.6172 -0.6094,-0.1953 -1.2812,-0.1953 -1.2032,0 -1.8907,0.7734 -0.6875,0.7734 -0.6875,2.1328 0,1.3438 0.6875,2.1172 0.6875,0.7734 1.8907,0.7734 0.6718,0 1.2812,-0.1953 0.6094,-0.1953 1.25,-0.6328 l 0,1.8125 z m 4.8848,-4.7344 q -0.6875,0 -1.0547,0.5 -0.3672,0.5 -0.3672,1.4376 0,0.9531 0.3672,1.4531 0.3672,0.5 1.0547,0.5 0.6875,0 1.0547,-0.5 0.3672,-0.5 0.3672,-1.4531 0,-0.9376 -0.3672,-1.4376 -0.3672,-0.5 -1.0547,-0.5 z m 0,-1.5 q 1.7031,0 2.6562,0.9141 0.9532,0.9141 0.9532,2.5235 0,1.625 -0.9532,2.539 -0.9531,0.9141 -2.6562,0.9141 -1.6875,0 -2.6485,-0.9141 -0.9609,-0.914 -0.9609,-2.539 0,-1.6094 0.9609,-2.5235 0.961,-0.9141 2.6485,-0.9141 z m 11.2129,1.25 Q 29,-6.0781 29.5469,-6.3984 q 0.5469,-0.3204 1.2031,-0.3204 1.1406,0 1.7344,0.6954 0.5937,0.6953 0.5937,2.0234 l 0,4 -2.1093,0 0,-3.4219 q 0,-0.0781 0,-0.1562 0,-0.0781 0,-0.2344 0,-0.7031 -0.2032,-1.0156 -0.2031,-0.3125 -0.6562,-0.3125 -0.5938,0 -0.9219,0.4922 -0.3281,0.4922 -0.3437,1.4296 l 0,3.2188 -2.1094,0 0,-3.4219 q 0,-1.0937 -0.1875,-1.4062 -0.1875,-0.3125 -0.6719,-0.3125 -0.5938,0 -0.9219,0.4922 -0.3281,0.4922 -0.3281,1.414 l 0,3.2344 -2.1094,0 0,-6.5625 2.1094,0 0,0.9531 q 0.3906,-0.5468 0.8906,-0.8281 0.5,-0.2813 1.0938,-0.2813 0.6875,0 1.2109,0.3282 0.5235,0.3281 0.7891,0.9218 z m 12.5039,0 q 0.3906,-0.6093 0.9375,-0.9296 0.5469,-0.3204 1.2031,-0.3204 1.1406,0 1.7344,0.6954 Q 45.582,-5.3281 45.582,-4 l 0,4 -2.1093,0 0,-3.4219 q 0,-0.0781 0,-0.1562 0,-0.0781 0,-0.2344 0,-0.7031 -0.2032,-1.0156 -0.2031,-0.3125 -0.6562,-0.3125 -0.5938,0 -0.9219,0.4922 -0.3281,0.4922 -0.3437,1.4296 l 0,3.2188 -2.1094,0 0,-3.4219 q 0,-1.0937 -0.1875,-1.4062 -0.1875,-0.3125 -0.6719,-0.3125 -0.5937,0 -0.9219,0.4922 -0.3281,0.4922 -0.3281,1.414 l 0,3.2344 -2.1094,0 0,-6.5625 2.1094,0 0,0.9531 q 0.3906,-0.5468 0.8906,-0.8281 0.5,-0.2813 1.0938,-0.2813 0.6875,0 1.2109,0.3282 0.5235,0.3281 0.7891,0.9218 z m 9.3633,2.5157 q -0.6563,0 -0.9922,0.2187 -0.336,0.2188 -0.336,0.6563 0,0.4062 0.2735,0.6328 0.2734,0.2265 0.7422,0.2265 0.5937,0 1,-0.4296 0.4062,-0.4297 0.4062,-1.0704 l 0,-0.2343 -1.0937,0 z m 3.2031,-0.7969 0,3.75 -2.1094,0 0,-0.9688 q -0.4219,0.5938 -0.9531,0.8672 -0.5313,0.2735 -1.2813,0.2735 -1.0312,0 -1.664,-0.5938 -0.6328,-0.5937 -0.6328,-1.5469 0,-1.1562 0.7968,-1.6953 0.7969,-0.539 2.4844,-0.539 l 1.25,0 0,-0.1563 q 0,-0.5 -0.3984,-0.7344 -0.3985,-0.2343 -1.2266,-0.2343 -0.6719,0 -1.25,0.1328 -0.5781,0.1328 -1.0781,0.4141 l 0,-1.6094 q 0.6719,-0.1563 1.3516,-0.2422 0.6796,-0.086 1.3515,-0.086 1.7813,0 2.5703,0.6954 0.7891,0.6953 0.7891,2.2734 z m 8.5508,-0.25 0,4 -2.1094,0 0,-0.6562 0,-2.4063 q 0,-0.8437 -0.0391,-1.1641 -0.039,-0.3203 -0.1328,-0.4765 -0.125,-0.2031 -0.3359,-0.3203 -0.211,-0.1172 -0.4766,-0.1172 -0.6562,0 -1.0312,0.5078 -0.375,0.5078 -0.375,1.3984 l 0,3.2344 -2.0938,0 0,-6.5625 2.0938,0 0,0.9531 q 0.4687,-0.5625 1,-0.8359 0.5312,-0.2735 1.1875,-0.2735 1.125,0 1.7187,0.6954 0.5938,0.6953 0.5938,2.0234 z m 6.4023,-1.6094 0,-3.5156 2.1094,0 0,9.125 -2.1094,0 0,-0.9531 q -0.4219,0.5781 -0.9453,0.8515 -0.5234,0.2735 -1.2109,0.2735 -1.2188,0 -1.9922,-0.9688 -0.7735,-0.9687 -0.7735,-2.4843 0,-1.5157 0.7735,-2.4766 0.7734,-0.961 1.9922,-0.961 0.6718,0 1.2031,0.2735 0.5312,0.2734 0.9531,0.8359 z m -1.375,4.25 q 0.6719,0 1.0234,-0.4922 0.3516,-0.4922 0.3516,-1.4296 0,-0.9376 -0.3516,-1.4297 -0.3515,-0.4922 -1.0234,-0.4922 -0.6719,0 -1.0234,0.4922 -0.3516,0.4921 -0.3516,1.4297 0,0.9374 0.3516,1.4296 0.3515,0.4922 1.0234,0.4922 z" />
  </g>
</svg>
