<?xml version="1.0" encoding="UTF-8" standalone="no"?>
<svg
   xmlns:dc="http://purl.org/dc/elements/1.1/"
   xmlns:cc="http://creativecommons.org/ns#"
   xmlns:rdf="http://www.w3.org/1999/02/22-rdf-syntax-ns#"
   xmlns:svg="http://www.w3.org/2000/svg"
   xmlns="http://www.w3.org/2000/svg"
   xmlns:xlink="http://www.w3.org/1999/xlink"
   xmlns:sodipodi="http://sodipodi.sourceforge.net/DTD/sodipodi-0.dtd"
   xmlns:inkscape="http://www.inkscape.org/namespaces/inkscape"
   style="fill-opacity:1; color-rendering:auto; color-interpolation:auto; stroke:black; text-rendering:auto; stroke-linecap:square; stroke-miterlimit:10; stroke-opacity:1; shape-rendering:auto; fill:black; stroke-dasharray:none; font-weight:normal; stroke-width:1; font-family:'Dialog'; font-style:normal; stroke-linejoin:miter; font-size:12; stroke-dashoffset:0; image-rendering:auto;"
   width="880"
   height="666"
   id="svg2"
   version="1.1"
   inkscape:version="0.91 r13725"
   sodipodi:docname="abs_ig_fetcher.svg">
  <metadata
     id="metadata91">
    <rdf:RDF>
      <cc:Work
         rdf:about="">
        <dc:format>image/svg+xml</dc:format>
        <dc:type
           rdf:resource="http://purl.org/dc/dcmitype/StillImage" />
      </cc:Work>
    </rdf:RDF>
  </metadata>
  <sodipodi:namedview
     pagecolor="#ffffff"
     bordercolor="#666666"
     borderopacity="1"
     objecttolerance="10"
     gridtolerance="10"
     guidetolerance="10"
     inkscape:pageopacity="0"
     inkscape:pageshadow="2"
     inkscape:window-width="640"
     inkscape:window-height="480"
     id="namedview89"
     showgrid="false"
     inkscape:zoom="0.35435435"
     inkscape:cx="440"
     inkscape:cy="333"
     inkscape:window-x="342"
     inkscape:window-y="320"
     inkscape:window-maximized="0"
     inkscape:current-layer="svg2" />
  <!--Generated by the Batik Graphics2D SVG Generator-->
  <defs
     id="genericDefs">
    <linearGradient
       inkscape:collect="always"
       xlink:href="#linearGradient1"
       id="linearGradient3419"
       gradientUnits="userSpaceOnUse"
       spreadMethod="pad"
       x1="200"
       y1="117"
       x2="390"
       y2="210" />
    <linearGradient
       inkscape:collect="always"
       xlink:href="#linearGradient1"
       id="linearGradient3421"
       gradientUnits="userSpaceOnUse"
       spreadMethod="pad"
       x1="200"
       y1="117"
       x2="390"
       y2="210" />
    <linearGradient
       inkscape:collect="always"
       xlink:href="#linearGradient1"
       id="linearGradient3423"
       gradientUnits="userSpaceOnUse"
       spreadMethod="pad"
       x1="200"
       y1="117"
       x2="390"
       y2="210" />
    <defs
       id="defs1">
      <linearGradient
         spreadMethod="pad"
         id="linearGradient1"
         y2="210"
         y1="117"
         x2="390"
         gradientUnits="userSpaceOnUse"
         x1="200">
        <stop
           id="stop9"
           offset="0%"
           style="stop-opacity:1; stop-color:white;" />
        <stop
           id="stop11"
           offset="100%"
           style="stop-opacity:1; stop-color:rgb(255,255,204);" />
      </linearGradient>
      <clipPath
         id="clipPath1"
         clipPathUnits="userSpaceOnUse">
        <path
           id="path14"
           d="M0 0 L880 0 L880 666 L0 666 L0 0 Z" />
      </clipPath>
      <clipPath
         id="clipPath2"
         clipPathUnits="userSpaceOnUse">
        <path
           id="path17"
           d="M0 0 L660 0 L660 499.5 L0 499.5 L0 0 Z" />
      </clipPath>
      <clipPath
         id="clipPath3"
         clipPathUnits="userSpaceOnUse">
        <path
           id="path20"
           d="M-20 -27 L640 -27 L640 472.5 L-20 472.5 L-20 -27 Z" />
      </clipPath>
      <clipPath
         id="clipPath4"
         clipPathUnits="userSpaceOnUse">
        <path
           id="path23"
           d="M-5 -5 L655 -5 L655 494.5 L-5 494.5 L-5 -5 Z" />
      </clipPath>
      <clipPath
         id="clipPath5"
         clipPathUnits="userSpaceOnUse">
        <path
           id="path26"
           d="M-210 -190.9062 L450 -190.9062 L450 308.5938 L-210 308.5938 L-210 -190.9062 Z" />
      </clipPath>
      <clipPath
         id="clipPath6"
         clipPathUnits="userSpaceOnUse">
        <path
           id="path29"
           d="M-210 -176.9375 L450 -176.9375 L450 322.5625 L-210 322.5625 L-210 -176.9375 Z" />
      </clipPath>
      <clipPath
         id="clipPath7"
         clipPathUnits="userSpaceOnUse">
        <path
           id="path32"
           d="M-210 -154.9688 L450 -154.9688 L450 344.5312 L-210 344.5312 L-210 -154.9688 Z" />
      </clipPath>
      <clipPath
         id="clipPath8"
         clipPathUnits="userSpaceOnUse">
        <path
           id="path35"
           d="M-248.5 -133 L411.5 -133 L411.5 366.5 L-248.5 366.5 L-248.5 -133 Z" />
      </clipPath>
    </defs>
  </defs>
  <g
     id="g55"
     style="font-weight:bold;font-family:sans-serif;fill:#c0c0c0;fill-opacity:0.50199998;stroke:#c0c0c0;stroke-width:2;stroke-opacity:0.50199998;shape-rendering:crispEdges;text-rendering:geometricPrecision"
     transform="matrix(1.3333,0,0,1.3333,6.6665,6.6665)">
    <rect
       clip-path="url(#clipPath4)"
       id="rect57"
       height="93"
       style="stroke:none"
       width="190"
       y="117"
       x="200" />
    <rect
       clip-path="url(#clipPath4)"
       id="rect59"
       height="93"
       style="fill:none"
       width="190"
       y="117"
       x="200" />
  </g>
  <g
     id="g61"
     style="font-weight:bold;font-family:sans-serif;fill:url(#linearGradient3421);stroke:url(#linearGradient3423);stroke-width:2;shape-rendering:crispEdges;text-rendering:geometricPrecision"
     transform="scale(1.3333,1.3333)">
    <rect
       clip-path="url(#clipPath2)"
       id="rect63"
       height="93"
       style="fill:url(#linearGradient3419);stroke:none"
       width="190"
       y="117"
       x="200" />
    <rect
       clip-path="url(#clipPath2)"
       id="rect65"
       height="93"
       style="fill:none;stroke:#000000"
       width="190"
       y="117"
       x="200" />
  </g>
  <g
     id="g67"
     transform="matrix(1.3333,0,0,1.3333,279.993,254.53524)"
     style="font-family:sans-serif;stroke-width:2;text-rendering:optimizeLegibility">
    <path
       inkscape:connector-curvature="0"
       clip-path="url(#clipPath5)"
       id="path69"
       style="stroke:none"
       d="m 5.5156,-7.5312 0,3.2656 3.2656,0 0,1 -3.2656,0 0,3.2656 -0.9844,0 0,-3.2656 -3.2656,0 0,-1 3.2656,0 0,-3.2656 0.9844,0 z m 13.8067,4.1718 q 0,-1.1718 -0.4844,-1.8125 -0.4844,-0.6406 -1.3594,-0.6406 -0.8594,0 -1.3437,0.6406 -0.4844,0.6407 -0.4844,1.8125 0,1.1719 0.4844,1.8125 0.4843,0.6407 1.3437,0.6407 0.875,0 1.3594,-0.6407 0.4844,-0.6406 0.4844,-1.8125 z m 1.0781,2.5469 q 0,1.6719 -0.7422,2.4922 Q 18.916,2.5 17.3691,2.5 16.8066,2.5 16.2988,2.4141 15.791,2.3281 15.3223,2.1562 l 0,-1.0468 q 0.4687,0.25 0.9375,0.375 0.4687,0.125 0.9375,0.125 1.0625,0 1.5937,-0.5547 Q 19.3223,0.5 19.3223,-0.625 l 0,-0.5312 Q 18.9785,-0.5781 18.4629,-0.2891 17.9473,0 17.2129,0 q -1.2031,0 -1.9453,-0.9219 -0.7422,-0.9219 -0.7422,-2.4375 0,-1.5156 0.7422,-2.4375 0.7422,-0.9219 1.9453,-0.9219 0.7344,0 1.25,0.2891 0.5156,0.2891 0.8594,0.8672 l 0,-1 1.0781,0 0,5.75 z m 7.8359,-2.7344 0,0.5157 -4.9687,0 q 0.0781,1.125 0.6797,1.7031 0.6015,0.5781 1.664,0.5781 0.625,0 1.211,-0.1484 0.5859,-0.1485 1.164,-0.461 l 0,1.0313 q -0.5937,0.2343 -1.2031,0.3672 -0.6094,0.1328 -1.2344,0.1328 -1.5625,0 -2.4843,-0.9141 -0.9219,-0.914 -0.9219,-2.4766 0,-1.6093 0.875,-2.5546 0.875,-0.9454 2.3437,-0.9454 1.3282,0 2.1016,0.8516 0.7734,0.8516 0.7734,2.3203 z M 27.1582,-3.875 q -0.0156,-0.875 -0.5,-1.4062 -0.4844,-0.5313 -1.2812,-0.5313 -0.9063,0 -1.4454,0.5156 -0.539,0.5157 -0.6171,1.4375 l 3.8437,-0.0156 z m 3.9141,-4.5469 0,1.8594 2.2187,0 0,0.8437 -2.2187,0 0,3.5626 q 0,0.7968 0.2187,1.0234 0.2188,0.2266 0.8906,0.2266 l 1.1094,0 0,0.9062 -1.1094,0 q -1.25,0 -1.7265,-0.4688 -0.4766,-0.4687 -0.4766,-1.6874 l 0,-3.5626 -0.7812,0 0,-0.8437 0.7812,0 0,-1.8594 1.0938,0 z M 39.6992,2 l 0,0.8281 -6.25,0 0,-0.8281 6.25,0 z m 2.0781,-10.4219 0,1.8594 2.2188,0 0,0.8437 -2.2188,0 0,3.5626 q 0,0.7968 0.2188,1.0234 0.2187,0.2266 0.8906,0.2266 l 1.1094,0 0,0.9062 -1.1094,0 q -1.25,0 -1.7265,-0.4688 -0.4766,-0.4687 -0.4766,-1.6874 l 0,-3.5626 -0.7813,0 0,-0.8437 0.7813,0 0,-1.8594 1.0937,0 z m 7.4395,2.8594 q -0.1875,-0.0937 -0.3984,-0.1484 -0.211,-0.0547 -0.4766,-0.0547 -0.9063,0 -1.3984,0.5937 -0.4922,0.5938 -0.4922,1.7188 l 0,3.4531 -1.0782,0 0,-6.5625 1.0782,0 0,1.0156 q 0.3437,-0.5937 0.8906,-0.8828 0.5469,-0.2891 1.3281,-0.2891 0.1094,0 0.2422,0.0157 0.1328,0.0156 0.2891,0.0469 l 0.0156,1.0937 z m 6.7461,2.0156 0,0.5157 -4.9688,0 q 0.0782,1.125 0.6797,1.7031 0.6016,0.5781 1.6641,0.5781 0.625,0 1.2109,-0.1484 0.586,-0.1485 1.1641,-0.461 l 0,1.0313 q -0.5938,0.2343 -1.2031,0.3672 -0.6094,0.1328 -1.2344,0.1328 -1.5625,0 -2.4844,-0.9141 -0.9219,-0.914 -0.9219,-2.4766 0,-1.6093 0.875,-2.5546 0.875,-0.9454 2.3438,-0.9454 1.3281,0 2.1016,0.8516 0.7734,0.8516 0.7734,2.3203 z M 54.8848,-3.875 q -0.0157,-0.875 -0.5,-1.4062 -0.4844,-0.5313 -1.2813,-0.5313 -0.9062,0 -1.4453,0.5156 -0.5391,0.5157 -0.6172,1.4375 l 3.8438,-0.0156 z m 8.3047,-0.0938 0,3.9688 -1.0782,0 0,-3.9219 q 0,-0.9375 -0.3672,-1.3984 -0.3671,-0.4609 -1.0859,-0.4609 -0.875,0 -1.3828,0.5546 -0.5078,0.5547 -0.5078,1.5235 l 0,3.7031 -1.0781,0 0,-6.5625 1.0781,0 0,1.0156 q 0.3906,-0.5937 0.914,-0.8828 0.5235,-0.2891 1.211,-0.2891 1.125,0 1.7109,0.6954 0.586,0.6953 0.586,2.0546 z m 6.4648,-1.5937 0,-3.5625 1.0781,0 0,9.125 -1.0781,0 0,-0.9844 q -0.3438,0.5782 -0.8594,0.8672 -0.5156,0.2891 -1.25,0.2891 -1.1875,0 -1.9375,-0.9531 -0.75,-0.9532 -0.75,-2.5 0,-1.5469 0.75,-2.4922 0.75,-0.9454 1.9375,-0.9454 0.7344,0 1.25,0.2813 0.5156,0.2813 0.8594,0.875 z m -3.6719,2.2813 q 0,1.1874 0.4844,1.8671 0.4844,0.6797 1.3437,0.6797 0.8594,0 1.3516,-0.6797 0.4922,-0.6797 0.4922,-1.8671 0,-1.1876 -0.4922,-1.8594 -0.4922,-0.6719 -1.3516,-0.6719 -0.8593,0 -1.3437,0.6719 -0.4844,0.6718 -0.4844,1.8594 z M 77.9434,2 l 0,0.8281 -6.25,0 0,-0.8281 6.25,0 z m 5.3281,-7.5625 0,-3.5625 1.0781,0 0,9.125 -1.0781,0 0,-0.9844 q -0.3438,0.5782 -0.8594,0.8672 -0.5156,0.2891 -1.25,0.2891 -1.1875,0 -1.9375,-0.9531 -0.75,-0.9532 -0.75,-2.5 0,-1.5469 0.75,-2.4922 0.75,-0.9454 1.9375,-0.9454 0.7344,0 1.25,0.2813 0.5156,0.2813 0.8594,0.875 z m -3.6719,2.2813 q 0,1.1874 0.4844,1.8671 0.4844,0.6797 1.3437,0.6797 0.8594,0 1.3516,-0.6797 0.4922,-0.6797 0.4922,-1.8671 0,-1.1876 -0.4922,-1.8594 -0.4922,-0.6719 -1.3516,-0.6719 -0.8593,0 -1.3437,0.6719 -0.4844,0.6718 -0.4844,1.8594 z m 9.9453,-0.0157 q -1.2969,0 -1.8047,0.2969 -0.5078,0.2969 -0.5078,1.0156 0,0.5782 0.3828,0.9141 0.3828,0.3359 1.0235,0.3359 0.9062,0 1.4453,-0.6328 Q 90.623,-2 90.623,-3.0625 l 0,-0.2344 -1.0781,0 z m 2.1563,-0.4531 0,3.75 -1.0782,0 0,-1 q -0.375,0.5938 -0.9218,0.8828 -0.5469,0.2891 -1.3438,0.2891 -1.0156,0 -1.6094,-0.5703 -0.5937,-0.5704 -0.5937,-1.5078 0,-1.1094 0.7422,-1.6719 0.7422,-0.5625 2.2109,-0.5625 l 1.5156,0 0,-0.1094 q 0,-0.75 -0.4921,-1.1562 -0.4922,-0.4063 -1.3672,-0.4063 -0.5625,0 -1.1016,0.1406 -0.5391,0.1407 -1.0234,0.4063 l 0,-1 q 0.5937,-0.2344 1.1484,-0.3438 0.5547,-0.1094 1.0859,-0.1094 1.4219,0 2.125,0.7344 0.7032,0.7344 0.7032,2.2344 z m 3.291,-4.6719 0,1.8594 2.2187,0 0,0.8437 -2.2187,0 0,3.5626 q 0,0.7968 0.2187,1.0234 0.2188,0.2266 0.8907,0.2266 l 1.1093,0 0,0.9062 -1.1093,0 q -1.25,0 -1.7266,-0.4688 -0.4766,-0.4687 -0.4766,-1.6874 l 0,-3.5626 -0.7812,0 0,-0.8437 0.7812,0 0,-1.8594 1.0938,0 z m 6.6113,5.125 q -1.2969,0 -1.8047,0.2969 -0.5078,0.2969 -0.5078,1.0156 0,0.5782 0.3828,0.9141 0.3828,0.3359 1.0235,0.3359 0.9062,0 1.4453,-0.6328 0.539,-0.6328 0.539,-1.6953 l 0,-0.2344 -1.0781,0 z m 2.1563,-0.4531 0,3.75 -1.0782,0 0,-1 q -0.375,0.5938 -0.9218,0.8828 -0.5469,0.2891 -1.3438,0.2891 -1.0156,0 -1.6094,-0.5703 -0.5937,-0.5704 -0.5937,-1.5078 0,-1.1094 0.7422,-1.6719 0.7422,-0.5625 2.2109,-0.5625 l 1.5156,0 0,-0.1094 q 0,-0.75 -0.4921,-1.1562 -0.4922,-0.4063 -1.3672,-0.4063 -0.5625,0 -1.1016,0.1406 -0.5391,0.1407 -1.0234,0.4063 l 0,-1 q 0.5937,-0.2344 1.1484,-0.3438 0.5547,-0.1094 1.0859,-0.1094 1.4219,0 2.125,0.7344 0.7032,0.7344 0.7032,2.2344 z m 4.8066,-5.3594 q -0.7812,1.3438 -1.1641,2.6641 -0.3828,1.3203 -0.3828,2.6797 0,1.3437 0.3828,2.6718 0.3829,1.3282 1.1641,2.6719 l -0.9375,0 q -0.875,-1.375 -1.3125,-2.7031 -0.4375,-1.3281 -0.4375,-2.6406 0,-1.3125 0.4375,-2.6328 0.4375,-1.3204 1.3125,-2.711 l 0.9375,0 z m 1.9316,0 0.9375,0 q 0.875,1.3906 1.3125,2.711 0.4375,1.3203 0.4375,2.6328 0,1.3125 -0.4375,2.6406 -0.4375,1.3281 -1.3125,2.7031 l -0.9375,0 q 0.7657,-1.3437 1.1563,-2.6719 0.3906,-1.3281 0.3906,-2.6718 0,-1.3594 -0.3906,-2.6797 -0.3906,-1.3203 -1.1563,-2.6641 z m 8.9336,7.625 1.2344,0 0,1.4844 -1.2344,0 0,-1.4844 z m 0,-4.7187 1.2344,0 0,1.4843 -1.2344,0 0,-1.4843 z m 6.8106,-0.3594 1.1406,0 2.0469,5.5 2.0625,-5.5 1.1406,0 -2.4687,6.5625 -1.4688,0 -2.4531,-6.5625 z m 10.414,0.75 q -0.8593,0 -1.3671,0.6797 -0.5079,0.6797 -0.5079,1.8516 0,1.1874 0.5,1.8593 0.5,0.6719 1.375,0.6719 0.8594,0 1.3672,-0.6797 0.5078,-0.6797 0.5078,-1.8515 0,-1.1563 -0.5078,-1.8438 -0.5078,-0.6875 -1.3672,-0.6875 z m 0,-0.9063 q 1.4063,0 2.211,0.9141 0.8047,0.9141 0.8047,2.5235 0,1.6093 -0.8047,2.5312 -0.8047,0.9219 -2.211,0.9219 -1.4062,0 -2.2109,-0.9219 -0.8047,-0.9219 -0.8047,-2.5312 0,-1.6094 0.8047,-2.5235 0.8047,-0.9141 2.2109,-0.9141 z m 4.795,0.1563 1.0781,0 0,6.5625 -1.0781,0 0,-6.5625 z m 0,-2.5625 1.0781,0 0,1.375 -1.0781,0 0,-1.375 z m 7.6621,3.5625 0,-3.5625 1.0781,0 0,9.125 -1.0781,0 0,-0.9844 q -0.3438,0.5782 -0.8594,0.8672 -0.5156,0.2891 -1.25,0.2891 -1.1875,0 -1.9375,-0.9531 -0.75,-0.9532 -0.75,-2.5 0,-1.5469 0.75,-2.4922 0.75,-0.9454 1.9375,-0.9454 0.7344,0 1.25,0.2813 0.5156,0.2813 0.8594,0.875 z m -3.6719,2.2813 q 0,1.1874 0.4844,1.8671 0.4844,0.6797 1.3437,0.6797 0.8594,0 1.3516,-0.6797 0.4922,-0.6797 0.4922,-1.8671 0,-1.1876 -0.4922,-1.8594 -0.4922,-0.6719 -1.3516,-0.6719 -0.8593,0 -1.3437,0.6719 -0.4844,0.6718 -0.4844,1.8594 z" />
  </g>
  <g
     id="g71"
     transform="matrix(1.3333,0,0,1.3333,279.993,235.91077)"
     style="font-family:sans-serif;stroke-width:2;text-rendering:optimizeLegibility">
    <path
       inkscape:connector-curvature="0"
       clip-path="url(#clipPath6)"
       id="path73"
       style="stroke:none"
       d="m 5.5156,-7.5312 0,3.2656 3.2656,0 0,1 -3.2656,0 0,3.2656 -0.9844,0 0,-3.2656 -3.2656,0 0,-1 3.2656,0 0,-3.2656 0.9844,0 z m 13.8067,4.1718 q 0,-1.1718 -0.4844,-1.8125 -0.4844,-0.6406 -1.3594,-0.6406 -0.8594,0 -1.3437,0.6406 -0.4844,0.6407 -0.4844,1.8125 0,1.1719 0.4844,1.8125 0.4843,0.6407 1.3437,0.6407 0.875,0 1.3594,-0.6407 0.4844,-0.6406 0.4844,-1.8125 z m 1.0781,2.5469 q 0,1.6719 -0.7422,2.4922 Q 18.916,2.5 17.3691,2.5 16.8066,2.5 16.2988,2.4141 15.791,2.3281 15.3223,2.1562 l 0,-1.0468 q 0.4687,0.25 0.9375,0.375 0.4687,0.125 0.9375,0.125 1.0625,0 1.5937,-0.5547 Q 19.3223,0.5 19.3223,-0.625 l 0,-0.5312 Q 18.9785,-0.5781 18.4629,-0.2891 17.9473,0 17.2129,0 q -1.2031,0 -1.9453,-0.9219 -0.7422,-0.9219 -0.7422,-2.4375 0,-1.5156 0.7422,-2.4375 0.7422,-0.9219 1.9453,-0.9219 0.7344,0 1.25,0.2891 0.5156,0.2891 0.8594,0.8672 l 0,-1 1.0781,0 0,5.75 z m 7.8359,-2.7344 0,0.5157 -4.9687,0 q 0.0781,1.125 0.6797,1.7031 0.6015,0.5781 1.664,0.5781 0.625,0 1.211,-0.1484 0.5859,-0.1485 1.164,-0.461 l 0,1.0313 q -0.5937,0.2343 -1.2031,0.3672 -0.6094,0.1328 -1.2344,0.1328 -1.5625,0 -2.4843,-0.9141 -0.9219,-0.914 -0.9219,-2.4766 0,-1.6093 0.875,-2.5546 0.875,-0.9454 2.3437,-0.9454 1.3282,0 2.1016,0.8516 0.7734,0.8516 0.7734,2.3203 z M 27.1582,-3.875 q -0.0156,-0.875 -0.5,-1.4062 -0.4844,-0.5313 -1.2812,-0.5313 -0.9063,0 -1.4454,0.5156 -0.539,0.5157 -0.6171,1.4375 l 3.8437,-0.0156 z m 3.9141,-4.5469 0,1.8594 2.2187,0 0,0.8437 -2.2187,0 0,3.5626 q 0,0.7968 0.2187,1.0234 0.2188,0.2266 0.8906,0.2266 l 1.1094,0 0,0.9062 -1.1094,0 q -1.25,0 -1.7265,-0.4688 -0.4766,-0.4687 -0.4766,-1.6874 l 0,-3.5626 -0.7812,0 0,-0.8437 0.7812,0 0,-1.8594 1.0938,0 z M 39.6992,2 l 0,0.8281 -6.25,0 0,-0.8281 6.25,0 z m 5.1875,-8.375 0,1.0312 q -0.4531,-0.2343 -0.9453,-0.3515 -0.4922,-0.1172 -1.0234,-0.1172 -0.7969,0 -1.2032,0.2422 -0.4062,0.2422 -0.4062,0.7422 0,0.375 0.2891,0.5859 0.289,0.211 1.164,0.3984 l 0.3594,0.0938 q 1.1562,0.2344 1.6406,0.6875 0.4844,0.4531 0.4844,1.25 0,0.9219 -0.7266,1.4531 -0.7265,0.5313 -1.9922,0.5313 -0.5312,0 -1.1015,-0.1016 -0.5703,-0.1015 -1.1953,-0.3047 l 0,-1.125 q 0.5937,0.3125 1.1718,0.4688 0.5782,0.1562 1.1563,0.1562 0.75,0 1.1641,-0.2578 0.414,-0.2578 0.414,-0.7422 0,-0.4375 -0.2969,-0.6718 -0.2968,-0.2344 -1.2968,-0.4532 l -0.375,-0.0781 q -1,-0.2187 -1.4453,-0.6563 -0.4454,-0.4374 -0.4454,-1.1874 0,-0.9376 0.6563,-1.4376 0.6562,-0.5 1.8594,-0.5 0.5937,0 1.125,0.086 0.5312,0.0859 0.9687,0.2578 z m 3.1426,-2.0469 0,1.8594 2.2187,0 0,0.8437 -2.2187,0 0,3.5626 q 0,0.7968 0.2187,1.0234 0.2188,0.2266 0.8907,0.2266 l 1.1093,0 0,0.9062 -1.1093,0 q -1.25,0 -1.7266,-0.4688 -0.4766,-0.4687 -0.4766,-1.6874 l 0,-3.5626 -0.7812,0 0,-0.8437 0.7812,0 0,-1.8594 1.0938,0 z m 6.6113,5.125 q -1.2968,0 -1.8047,0.2969 -0.5078,0.2969 -0.5078,1.0156 0,0.5782 0.3828,0.9141 0.3829,0.3359 1.0235,0.3359 0.9062,0 1.4453,-0.6328 Q 55.7188,-2 55.7188,-3.0625 l 0,-0.2344 -1.0782,0 z m 2.1563,-0.4531 0,3.75 -1.0781,0 0,-1 q -0.375,0.5938 -0.9219,0.8828 -0.5469,0.2891 -1.3438,0.2891 -1.0156,0 -1.6093,-0.5703 -0.5938,-0.5704 -0.5938,-1.5078 0,-1.1094 0.7422,-1.6719 0.7422,-0.5625 2.2109,-0.5625 l 1.5157,0 0,-0.1094 q 0,-0.75 -0.4922,-1.1562 -0.4922,-0.4063 -1.3672,-0.4063 -0.5625,0 -1.1016,0.1406 -0.539,0.1407 -1.0234,0.4063 l 0,-1 q 0.5937,-0.2344 1.1484,-0.3438 0.5547,-0.1094 1.086,-0.1094 1.4218,0 2.125,0.7344 0.7031,0.7344 0.7031,2.2344 z m 3.291,-4.6719 0,1.8594 2.2187,0 0,0.8437 -2.2187,0 0,3.5626 q 0,0.7968 0.2187,1.0234 0.2188,0.2266 0.8907,0.2266 l 1.1093,0 0,0.9062 -1.1093,0 q -1.25,0 -1.7266,-0.4688 -0.4766,-0.4687 -0.4766,-1.6874 l 0,-3.5626 -0.7812,0 0,-0.8437 0.7812,0 0,-1.8594 1.0938,0 z m 3.6269,1.8594 1.0782,0 0,6.5625 -1.0782,0 0,-6.5625 z m 0,-2.5625 1.0782,0 0,1.375 -1.0782,0 0,-1.375 z m 8.0684,2.8125 0,1.0156 q -0.4687,-0.2656 -0.9219,-0.3906 -0.4531,-0.125 -0.9218,-0.125 -1.0625,0 -1.6407,0.6641 -0.5781,0.664 -0.5781,1.8672 0,1.2031 0.5781,1.8671 0.5782,0.6641 1.6407,0.6641 0.4687,0 0.9218,-0.125 Q 71.3145,-1 71.7832,-1.25 l 0,1 q -0.4531,0.2031 -0.9375,0.3125 -0.4844,0.1094 -1.0312,0.1094 -1.4844,0 -2.3594,-0.9297 -0.875,-0.9297 -0.875,-2.5234 0,-1.5938 0.8828,-2.5157 0.8828,-0.9219 2.4297,-0.9219 0.4844,0 0.9609,0.1016 0.4766,0.1016 0.9297,0.3047 z M 78.6465,2 l 0,0.8281 -6.25,0 0,-0.8281 6.25,0 z m 5.3281,-7.5625 0,-3.5625 1.0781,0 0,9.125 -1.0781,0 0,-0.9844 q -0.3437,0.5782 -0.8594,0.8672 -0.5156,0.2891 -1.25,0.2891 -1.1875,0 -1.9375,-0.9531 -0.75,-0.9532 -0.75,-2.5 0,-1.5469 0.75,-2.4922 0.75,-0.9454 1.9375,-0.9454 0.7344,0 1.25,0.2813 0.5157,0.2813 0.8594,0.875 z m -3.6719,2.2813 q 0,1.1874 0.4844,1.8671 0.4844,0.6797 1.3438,0.6797 0.8593,0 1.3515,-0.6797 0.4922,-0.6797 0.4922,-1.8671 0,-1.1876 -0.4922,-1.8594 -0.4922,-0.6719 -1.3515,-0.6719 -0.8594,0 -1.3438,0.6719 -0.4844,0.6718 -0.4844,1.8594 z m 9.9453,-0.0157 q -1.2968,0 -1.8046,0.2969 -0.5079,0.2969 -0.5079,1.0156 0,0.5782 0.3829,0.9141 0.3828,0.3359 1.0234,0.3359 0.9062,0 1.4453,-0.6328 Q 91.3262,-2 91.3262,-3.0625 l 0,-0.2344 -1.0782,0 z m 2.1563,-0.4531 0,3.75 -1.0781,0 0,-1 q -0.375,0.5938 -0.9219,0.8828 -0.5469,0.2891 -1.3438,0.2891 -1.0156,0 -1.6093,-0.5703 -0.5938,-0.5704 -0.5938,-1.5078 0,-1.1094 0.7422,-1.6719 0.7422,-0.5625 2.2109,-0.5625 l 1.5157,0 0,-0.1094 q 0,-0.75 -0.4922,-1.1562 -0.4922,-0.4063 -1.3672,-0.4063 -0.5625,0 -1.1016,0.1406 -0.539,0.1407 -1.0234,0.4063 l 0,-1 q 0.5937,-0.2344 1.1484,-0.3438 0.5547,-0.1094 1.086,-0.1094 1.4218,0 2.125,0.7344 0.7031,0.7344 0.7031,2.2344 z m 3.291,-4.6719 0,1.8594 2.2188,0 0,0.8437 -2.2188,0 0,3.5626 q 0,0.7968 0.2188,1.0234 0.2187,0.2266 0.8906,0.2266 l 1.1094,0 0,0.9062 -1.1094,0 q -1.25,0 -1.7266,-0.4688 -0.4765,-0.4687 -0.4765,-1.6874 l 0,-3.5626 -0.7813,0 0,-0.8437 0.7813,0 0,-1.8594 1.0937,0 z m 6.6113,5.125 q -1.2968,0 -1.8046,0.2969 -0.5079,0.2969 -0.5079,1.0156 0,0.5782 0.3829,0.9141 0.3828,0.3359 1.0234,0.3359 0.9062,0 1.4453,-0.6328 0.5391,-0.6328 0.5391,-1.6953 l 0,-0.2344 -1.0782,0 z m 2.1563,-0.4531 0,3.75 -1.0781,0 0,-1 q -0.375,0.5938 -0.9219,0.8828 -0.5469,0.2891 -1.3438,0.2891 -1.0156,0 -1.6093,-0.5703 -0.5938,-0.5704 -0.5938,-1.5078 0,-1.1094 0.7422,-1.6719 0.7422,-0.5625 2.2109,-0.5625 l 1.5157,0 0,-0.1094 q 0,-0.75 -0.4922,-1.1562 -0.4922,-0.4063 -1.3672,-0.4063 -0.5625,0 -1.1016,0.1406 -0.539,0.1407 -1.0234,0.4063 l 0,-1 q 0.5937,-0.2344 1.1484,-0.3438 0.5547,-0.1094 1.086,-0.1094 1.4218,0 2.125,0.7344 0.7031,0.7344 0.7031,2.2344 z m 4.8066,-5.3594 q -0.7812,1.3438 -1.164,2.6641 -0.3828,1.3203 -0.3828,2.6797 0,1.3437 0.3828,2.6718 0.3828,1.3282 1.164,2.6719 l -0.9375,0 q -0.875,-1.375 -1.3125,-2.7031 -0.4375,-1.3281 -0.4375,-2.6406 0,-1.3125 0.4375,-2.6328 0.4375,-1.3204 1.3125,-2.711 l 0.9375,0 z m 1.9317,0 0.9375,0 q 0.875,1.3906 1.3125,2.711 0.4375,1.3203 0.4375,2.6328 0,1.3125 -0.4375,2.6406 -0.4375,1.3281 -1.3125,2.7031 l -0.9375,0 q 0.7656,-1.3437 1.1562,-2.6719 0.3906,-1.3281 0.3906,-2.6718 0,-1.3594 -0.3906,-2.6797 -0.3906,-1.3203 -1.1562,-2.6641 z m 8.9336,7.625 1.2343,0 0,1.4844 -1.2343,0 0,-1.4844 z m 0,-4.7187 1.2343,0 0,1.4843 -1.2343,0 0,-1.4843 z m 12.873,-2.2657 0,1.1563 q -0.6719,-0.3125 -1.2734,-0.4766 -0.6016,-0.164 -1.1485,-0.164 -0.9687,0 -1.4921,0.375 -0.5235,0.375 -0.5235,1.0781 0,0.5781 0.3438,0.875 0.3437,0.2969 1.3281,0.4688 L 130.9453,-5 q 1.3281,0.25 1.9609,0.8828 0.6329,0.6328 0.6329,1.6953 0,1.2813 -0.8516,1.9375 -0.8516,0.6563 -2.5078,0.6563 -0.6094,0 -1.3125,-0.1407 -0.7031,-0.1406 -1.4531,-0.4218 l 0,-1.2188 q 0.7187,0.4063 1.414,0.6094 0.6953,0.2031 1.3516,0.2031 1.0156,0 1.5703,-0.3984 0.5547,-0.3985 0.5547,-1.1328 0,-0.6407 -0.3985,-1.0078 -0.3984,-0.3672 -1.3046,-0.5391 l -0.7188,-0.1406 q -1.3281,-0.2656 -1.914,-0.8282 -0.586,-0.5624 -0.586,-1.5624 0,-1.1719 0.8125,-1.836 0.8125,-0.664 2.25,-0.664 0.625,0 1.2578,0.1093 0.6328,0.1094 1.3047,0.3281 z m 3.3984,0.0469 0,1.8594 2.2188,0 0,0.8437 -2.2188,0 0,3.5626 q 0,0.7968 0.2188,1.0234 0.2188,0.2266 0.8906,0.2266 l 1.1094,0 0,0.9062 -1.1094,0 q -1.25,0 -1.7265,-0.4688 -0.4766,-0.4687 -0.4766,-1.6874 l 0,-3.5626 -0.7813,0 0,-0.8437 0.7813,0 0,-1.8594 1.0937,0 z m 7.4395,2.8594 q -0.1875,-0.0937 -0.3984,-0.1484 -0.211,-0.0547 -0.4766,-0.0547 -0.9062,0 -1.3984,0.5937 -0.4922,0.5938 -0.4922,1.7188 l 0,3.4531 -1.0781,0 0,-6.5625 1.0781,0 0,1.0156 q 0.3437,-0.5937 0.8906,-0.8828 0.5469,-0.2891 1.3281,-0.2891 0.1094,0 0.2422,0.0157 0.1328,0.0156 0.2891,0.0469 l 0.0156,1.0937 z m 1.1211,-1 1.0781,0 0,6.5625 -1.0781,0 0,-6.5625 z m 0,-2.5625 1.0781,0 0,1.375 -1.0781,0 0,-1.375 z m 8.8027,5.1562 0,3.9688 -1.0781,0 0,-3.9219 q 0,-0.9375 -0.3672,-1.3984 -0.3672,-0.4609 -1.0859,-0.4609 -0.875,0 -1.3828,0.5546 -0.5078,0.5547 -0.5078,1.5235 l 0,3.7031 -1.0782,0 0,-6.5625 1.0782,0 0,1.0156 q 0.3906,-0.5937 0.914,-0.8828 0.5235,-0.2891 1.211,-0.2891 1.125,0 1.7109,0.6954 0.5859,0.6953 0.5859,2.0546 z m 6.4649,0.6094 q 0,-1.1718 -0.4844,-1.8125 -0.4844,-0.6406 -1.3594,-0.6406 -0.8594,0 -1.3437,0.6406 -0.4844,0.6407 -0.4844,1.8125 0,1.1719 0.4844,1.8125 0.4843,0.6407 1.3437,0.6407 0.875,0 1.3594,-0.6407 0.4844,-0.6406 0.4844,-1.8125 z m 1.0781,2.5469 q 0,1.6719 -0.7422,2.4922 -0.7422,0.8203 -2.2891,0.8203 -0.5624,0 -1.0703,-0.0859 -0.5078,-0.086 -0.9765,-0.2579 l 0,-1.0468 q 0.4687,0.25 0.9375,0.375 0.4687,0.125 0.9375,0.125 1.0625,0 1.5937,-0.5547 0.5313,-0.5547 0.5313,-1.6797 l 0,-0.5312 q -0.3438,0.5781 -0.8594,0.8671 Q 158.8594,0 158.125,0 q -1.2031,0 -1.9453,-0.9219 -0.7422,-0.9219 -0.7422,-2.4375 0,-1.5156 0.7422,-2.4375 0.7422,-0.9219 1.9453,-0.9219 0.7344,0 1.25,0.2891 0.5156,0.2891 0.8594,0.8672 l 0,-1 1.0781,0 0,5.75 z" />
  </g>
  <g
     id="g75"
     transform="matrix(1.3333,0,0,1.3333,279.993,206.6199)"
     style="font-family:sans-serif;stroke-width:2;text-rendering:optimizeLegibility">
    <path
       inkscape:connector-curvature="0"
       clip-path="url(#clipPath7)"
       id="path77"
       style="stroke:none"
       d="m 0.5938,-3.7656 3.1562,0 0,0.9531 -3.1562,0 0,-0.9531 z m 8.6757,-2.7969 1.0782,0 0,6.5625 -1.0782,0 0,-6.5625 z m 0,-2.5625 1.0782,0 0,1.375 -1.0782,0 0,-1.375 z m 4.4121,0.7031 0,1.8594 2.2188,0 0,0.8437 -2.2188,0 0,3.5626 q 0,0.7968 0.2188,1.0234 0.2187,0.2266 0.8906,0.2266 l 1.1094,0 0,0.9062 -1.1094,0 q -1.25,0 -1.7265,-0.4688 -0.4766,-0.4687 -0.4766,-1.6874 l 0,-3.5626 -0.7813,0 0,-0.8437 0.7813,0 0,-1.8594 1.0937,0 z m 9.252,4.875 0,0.5157 -4.9688,0 q 0.0782,1.125 0.6797,1.7031 0.6016,0.5781 1.6641,0.5781 0.625,0 1.2109,-0.1484 0.586,-0.1485 1.1641,-0.461 l 0,1.0313 q -0.5938,0.2343 -1.2031,0.3672 -0.6094,0.1328 -1.2344,0.1328 -1.5625,0 -2.4844,-0.9141 -0.9219,-0.914 -0.9219,-2.4766 0,-1.6093 0.875,-2.5546 0.875,-0.9454 2.3438,-0.9454 1.3281,0 2.1016,0.8516 0.7734,0.8516 0.7734,2.3203 z M 21.8555,-3.875 q -0.0157,-0.875 -0.5,-1.4062 -0.4844,-0.5313 -1.2813,-0.5313 -0.9062,0 -1.4453,0.5156 -0.5391,0.5157 -0.6172,1.4375 l 3.8438,-0.0156 z m 7.9453,-1.4219 q 0.4062,-0.7343 0.9687,-1.0781 0.5625,-0.3438 1.3282,-0.3438 1.0312,0 1.5859,0.7188 0.5547,0.7188 0.5547,2.0312 l 0,3.9688 -1.0781,0 0,-3.9219 q 0,-0.9531 -0.336,-1.4062 -0.3359,-0.4531 -1.0234,-0.4531 -0.8438,0 -1.3281,0.5546 -0.4844,0.5547 -0.4844,1.5235 l 0,3.7031 -1.0781,0 0,-3.9219 q 0,-0.9531 -0.336,-1.4062 -0.3359,-0.4531 -1.039,-0.4531 -0.8282,0 -1.3125,0.5546 -0.4844,0.5547 -0.4844,1.5235 l 0,3.7031 -1.0781,0 0,-6.5625 1.0781,0 0,1.0156 q 0.375,-0.5937 0.8906,-0.8828 0.5156,-0.2891 1.2188,-0.2891 0.7187,0 1.2187,0.3594 0.5,0.3594 0.7344,1.0625 z M 41.3809,2 l 0,0.8281 -6.25,0 0,-0.8281 6.25,0 z m 1,-8.5625 1.0781,0 0,6.5625 -1.0781,0 0,-6.5625 z m 0,-2.5625 1.0781,0 0,1.375 -1.0781,0 0,-1.375 z m 7.6621,3.5625 0,-3.5625 1.0781,0 0,9.125 -1.0781,0 0,-0.9844 q -0.3438,0.5782 -0.8594,0.8672 -0.5156,0.2891 -1.25,0.2891 -1.1875,0 -1.9375,-0.9531 -0.75,-0.9532 -0.75,-2.5 0,-1.5469 0.75,-2.4922 0.75,-0.9454 1.9375,-0.9454 0.7344,0 1.25,0.2813 0.5156,0.2813 0.8594,0.875 z m -3.6719,2.2813 q 0,1.1874 0.4844,1.8671 0.4843,0.6797 1.3437,0.6797 0.8594,0 1.3516,-0.6797 0.4922,-0.6797 0.4922,-1.8671 0,-1.1876 -0.4922,-1.8594 -0.4922,-0.6719 -1.3516,-0.6719 -0.8594,0 -1.3437,0.6719 -0.4844,0.6718 -0.4844,1.8594 z M 58.332,2 l 0,0.8281 -6.25,0 0,-0.8281 6.25,0 z m 1,-8.5625 1.0782,0 0,6.5625 -1.0782,0 0,-6.5625 z m 0,-2.5625 1.0782,0 0,1.375 -1.0782,0 0,-1.375 z m 8.8028,5.1562 0,3.9688 -1.0782,0 0,-3.9219 q 0,-0.9375 -0.3671,-1.3984 -0.3672,-0.4609 -1.086,-0.4609 -0.875,0 -1.3828,0.5546 -0.5078,0.5547 -0.5078,1.5235 l 0,3.7031 -1.0781,0 0,-6.5625 1.0781,0 0,1.0156 q 0.3906,-0.5937 0.9141,-0.8828 0.5234,-0.2891 1.2109,-0.2891 1.125,0 1.7109,0.6954 0.586,0.6953 0.586,2.0546 z m 3.2148,-4.4531 0,1.8594 2.2188,0 0,0.8437 -2.2188,0 0,3.5626 q 0,0.7968 0.2188,1.0234 0.2187,0.2266 0.8906,0.2266 l 1.1094,0 0,0.9062 -1.1094,0 q -1.25,0 -1.7266,-0.4688 -0.4765,-0.4687 -0.4765,-1.6874 l 0,-3.5626 -0.7813,0 0,-0.8437 0.7813,0 0,-1.8594 1.0937,0 z m 7.7227,6.9375 1.2343,0 0,1.4844 -1.2343,0 0,-1.4844 z m 0,-4.7187 1.2343,0 0,1.4843 -1.2343,0 0,-1.4843 z m 7.5761,-0.3594 1.0782,0 0,6.5625 -1.0782,0 0,-6.5625 z m 0,-2.5625 1.0782,0 0,1.375 -1.0782,0 0,-1.375 z m 8.8028,5.1562 0,3.9688 -1.0782,0 0,-3.9219 q 0,-0.9375 -0.3671,-1.3984 -0.3672,-0.4609 -1.086,-0.4609 -0.875,0 -1.3828,0.5546 -0.5078,0.5547 -0.5078,1.5235 l 0,3.7031 -1.0781,0 0,-6.5625 1.0781,0 0,1.0156 q 0.3906,-0.5937 0.9141,-0.8828 0.5234,-0.2891 1.2109,-0.2891 1.125,0 1.7109,0.6954 0.586,0.6953 0.586,2.0546 z m 3.2148,-4.4531 0,1.8594 2.2188,0 0,0.8437 -2.2188,0 0,3.5626 q 0,0.7968 0.2188,1.0234 0.2187,0.2266 0.8906,0.2266 l 1.1094,0 0,0.9062 -1.1094,0 q -1.25,0 -1.7266,-0.4688 -0.4765,-0.4687 -0.4765,-1.6874 l 0,-3.5626 -0.7813,0 0,-0.8437 0.7813,0 0,-1.8594 1.0937,0 z" />
  </g>
  <g
     id="g79"
     transform="scale(1.3333,1.3333)"
     style="font-family:sans-serif;text-rendering:optimizeLegibility">
    <line
       clip-path="url(#clipPath2)"
       id="line81"
       y2="160.9375"
       style="fill:none"
       y1="160.9375"
       x2="390"
       x1="200" />
    <line
       clip-path="url(#clipPath2)"
       id="line83"
       y2="138.9688"
       style="fill:none"
       y1="138.9688"
       x2="390"
       x1="200" />
  </g>
  <g
     id="g85"
     transform="matrix(1.3333,0,0,1.3333,331.32505,177.3289)"
     style="font-weight:bold;font-family:sans-serif;text-rendering:optimizeLegibility">
    <path
       inkscape:connector-curvature="0"
       clip-path="url(#clipPath8)"
       id="path87"
       style="stroke:none"
       d="m 6.4062,-1.5938 -3.5156,0 L 2.3281,0 0.0625,0 3.2969,-8.75 5.9844,-8.75 9.2344,0 6.9688,0 6.4062,-1.5938 Z m -2.9531,-1.625 2.3907,0 -1.2032,-3.4843 -1.1875,3.4843 z m 10.334,1.8594 q 0.6719,0 1.0313,-0.4922 0.3593,-0.4922 0.3593,-1.4296 0,-0.9376 -0.3593,-1.4297 -0.3594,-0.4922 -1.0313,-0.4922 -0.6719,0 -1.0312,0.5 -0.3594,0.5 -0.3594,1.4219 0,0.9374 0.3594,1.4296 0.3593,0.4922 1.0312,0.4922 z m -1.3906,-4.25 q 0.4375,-0.5625 0.9609,-0.8359 0.5235,-0.2735 1.211,-0.2735 1.2187,0 1.9921,0.961 0.7735,0.9609 0.7735,2.4766 0,1.5156 -0.7735,2.4843 -0.7734,0.9688 -1.9921,0.9688 -0.6875,0 -1.211,-0.2735 -0.5234,-0.2734 -0.9609,-0.8515 l 0,0.9531 -2.0938,0 0,-9.125 2.0938,0 0,3.5156 z m 11.6211,-0.75 0,1.5938 q -0.6719,-0.2813 -1.3047,-0.4219 -0.6328,-0.1406 -1.1797,-0.1406 -0.6094,0 -0.8984,0.1484 -0.2891,0.1485 -0.2891,0.4609 0,0.25 0.2188,0.3829 0.2187,0.1328 0.7968,0.2109 l 0.3594,0.0469 q 1.625,0.2031 2.1797,0.6719 0.5547,0.4687 0.5547,1.4687 0,1.0469 -0.7735,1.5781 -0.7734,0.5313 -2.3046,0.5313 -0.6563,0 -1.3516,-0.1016 -0.6953,-0.1015 -1.4297,-0.3047 l 0,-1.5937 q 0.625,0.2969 1.2891,0.4531 0.664,0.1562 1.3359,0.1562 0.625,0 0.9297,-0.1718 0.3047,-0.1719 0.3047,-0.5156 0,-0.2813 -0.211,-0.4141 -0.2109,-0.1328 -0.8515,-0.2109 l -0.375,-0.0469 Q 19.627,-2.75 19.0645,-3.2266 18.502,-3.7031 18.502,-4.6719 q 0,-1.0469 0.7109,-1.5469 0.7109,-0.5 2.1953,-0.5 0.5781,0 1.2188,0.086 0.6406,0.0859 1.3906,0.2734 z m 2.1113,-2.3906 2.25,0 0,8.75 -2.25,0 0,-8.75 z m 8.8242,7.6406 q -0.4219,0.5625 -0.9453,0.836 Q 33.4844,0 32.7969,0 q -1.2031,0 -1.9844,-0.9453 -0.7813,-0.9453 -0.7813,-2.4141 0,-1.4687 0.7813,-2.4062 0.7813,-0.9375 1.9844,-0.9375 0.6875,0 1.2109,0.2656 0.5234,0.2656 0.9453,0.8437 l 0,-0.9687 2.1094,0 0,5.9063 q 0,1.5781 -1,2.414 -1,0.836 -2.8906,0.836 -0.6094,0 -1.1875,-0.0938 -0.5782,-0.0938 -1.1563,-0.2969 l 0,-1.625 q 0.5469,0.3125 1.0781,0.4688 0.5313,0.1562 1.0626,0.1562 1.0312,0 1.5078,-0.4531 0.4765,-0.4531 0.4765,-1.4062 l 0,-0.4532 z m -1.375,-4.0937 q -0.6562,0 -1.0156,0.4843 -0.3594,0.4844 -0.3594,1.3594 0,0.9063 0.3516,1.3672 0.3515,0.461 1.0234,0.461 0.6563,0 1.0157,-0.4766 0.3593,-0.4766 0.3593,-1.3516 0,-0.875 -0.3593,-1.3594 -0.3594,-0.4843 -1.0157,-0.4843 z m 5.6055,-3.5469 6.0781,0 0,1.7031 -3.8281,0 0,1.625 3.6094,0 0,1.7188 -3.6094,0 0,3.7031 -2.25,0 0,-8.75 z m 14.6504,5.4531 0,0.5938 -4.9063,0 q 0.0782,0.7343 0.5313,1.1093 0.4531,0.375 1.2812,0.375 0.6563,0 1.3516,-0.2031 0.6953,-0.2031 1.4297,-0.5937 l 0,1.6094 q -0.75,0.2812 -1.4922,0.4296 -0.7422,0.1485 -1.4922,0.1485 -1.7812,0 -2.7656,-0.9063 -0.9844,-0.9062 -0.9844,-2.5468 0,-1.5938 0.9688,-2.5157 0.9687,-0.9219 2.6718,-0.9219 1.5469,0 2.4766,0.9297 0.9297,0.9297 0.9297,2.4922 z M 51.6777,-4 q 0,-0.5938 -0.3515,-0.9609 -0.3516,-0.3672 -0.9141,-0.3672 -0.6094,0 -0.9922,0.3437 Q 49.0371,-4.6406 48.9434,-4 l 2.7343,0 z m 6.0293,-4.4219 0,1.8594 2.1719,0 0,1.5 -2.1719,0 0,2.7813 q 0,0.4531 0.1797,0.6171 0.1797,0.1641 0.7266,0.1641 l 1.0781,0 0,1.5 -1.7969,0 q -1.25,0 -1.7656,-0.5156 -0.5156,-0.5156 -0.5156,-1.7656 l 0,-2.7813 -1.0469,0 0,-1.5 1.0469,0 0,-1.8594 2.0937,0 z m 8.752,2.0625 0,1.7188 q -0.4219,-0.2969 -0.8594,-0.4375 -0.4375,-0.1407 -0.8906,-0.1407 -0.875,0 -1.3672,0.5079 -0.4922,0.5078 -0.4922,1.4297 0,0.9218 0.4922,1.4374 0.4922,0.5157 1.3672,0.5157 0.4844,0 0.9297,-0.1485 0.4453,-0.1484 0.8203,-0.4296 l 0,1.7187 q -0.5,0.1719 -1,0.2656 -0.5,0.0938 -1.0156,0.0938 -1.7813,0 -2.7813,-0.9141 -1,-0.914 -1,-2.539 0,-1.625 1,-2.5313 1,-0.9063 2.7813,-0.9063 0.5156,0 1.0156,0.086 0.5,0.0859 1,0.2734 z M 74.8691,-4 l 0,4 -2.1093,0 0,-0.6562 0,-2.3907 q 0,-0.8593 -0.0391,-1.1797 -0.0391,-0.3203 -0.1328,-0.4765 -0.125,-0.2031 -0.3359,-0.3203 -0.211,-0.1172 -0.4766,-0.1172 -0.6563,0 -1.0313,0.5078 -0.375,0.5078 -0.375,1.3984 l 0,3.2344 -2.0937,0 0,-9.125 2.0937,0 0,3.5156 q 0.4688,-0.5625 1,-0.8359 0.5313,-0.2735 1.1875,-0.2735 1.125,0 1.7188,0.6954 0.5937,0.6953 0.5937,2.0234 z m 8.4961,0.7031 0,0.5938 -4.9062,0 q 0.0781,0.7343 0.5312,1.1093 0.4532,0.375 1.2813,0.375 0.6562,0 1.3515,-0.2031 0.6954,-0.2031 1.4297,-0.5937 l 0,1.6094 q -0.75,0.2812 -1.4922,0.4296 -0.7421,0.1485 -1.4921,0.1485 -1.7813,0 -2.7657,-0.9063 -0.9843,-0.9062 -0.9843,-2.5468 0,-1.5938 0.9687,-2.5157 0.9688,-0.9219 2.6719,-0.9219 1.5469,0 2.4765,0.9297 0.9297,0.9297 0.9297,2.4922 z M 81.209,-4 q 0,-0.5938 -0.3516,-0.9609 -0.3515,-0.3672 -0.914,-0.3672 -0.6094,0 -0.9922,0.3437 Q 78.5684,-4.6406 78.4746,-4 l 2.7344,0 z m 8.623,-0.7812 q -0.2812,-0.125 -0.5547,-0.1876 -0.2734,-0.0624 -0.5546,-0.0624 -0.7969,0 -1.2344,0.5234 -0.4375,0.5234 -0.4375,1.4766 l 0,3.0312 -2.0938,0 0,-6.5625 2.0938,0 0,1.0781 q 0.4062,-0.6406 0.9297,-0.9375 0.5234,-0.2969 1.2578,-0.2969 0.0937,0 0.2187,0.0079 0.125,0.0078 0.3594,0.039 l 0.0156,1.8907 z" />
  </g>
</svg>
