<?xml version="1.0" encoding="UTF-8" standalone="no"?>
<svg
   xmlns:dc="http://purl.org/dc/elements/1.1/"
   xmlns:cc="http://creativecommons.org/ns#"
   xmlns:rdf="http://www.w3.org/1999/02/22-rdf-syntax-ns#"
   xmlns:svg="http://www.w3.org/2000/svg"
   xmlns="http://www.w3.org/2000/svg"
   xmlns:xlink="http://www.w3.org/1999/xlink"
   xmlns:sodipodi="http://sodipodi.sourceforge.net/DTD/sodipodi-0.dtd"
   xmlns:inkscape="http://www.inkscape.org/namespaces/inkscape"
   style="fill-opacity:1; color-rendering:auto; color-interpolation:auto; stroke:black; text-rendering:auto; stroke-linecap:square; stroke-miterlimit:10; stroke-opacity:1; shape-rendering:auto; fill:black; stroke-dasharray:none; font-weight:normal; stroke-width:1; font-family:'Dialog'; font-style:normal; stroke-linejoin:miter; font-size:12; stroke-dashoffset:0; image-rendering:auto;"
   width="880"
   height="666"
   id="svg2"
   version="1.1"
   inkscape:version="0.48.5 r10040"
   sodipodi:docname="abs_fetcher.svg">
  <metadata
     id="metadata91">
    <rdf:RDF>
      <cc:Work
         rdf:about="">
        <dc:format>image/svg+xml</dc:format>
        <dc:type
           rdf:resource="http://purl.org/dc/dcmitype/StillImage" />
      </cc:Work>
    </rdf:RDF>
  </metadata>
  <sodipodi:namedview
     pagecolor="#ffffff"
     bordercolor="#666666"
     borderopacity="1"
     objecttolerance="10"
     gridtolerance="10"
     guidetolerance="10"
     inkscape:pageopacity="0"
     inkscape:pageshadow="2"
     inkscape:window-width="640"
     inkscape:window-height="521"
     id="namedview89"
     showgrid="false"
     inkscape:zoom="0.35435435"
     inkscape:cx="440"
     inkscape:cy="333"
     inkscape:window-x="330"
     inkscape:window-y="51"
     inkscape:window-maximized="0"
     inkscape:current-layer="svg2" />
  <!--Generated by the Batik Graphics2D SVG Generator-->
  <defs
     id="genericDefs">
    <linearGradient
       inkscape:collect="always"
       xlink:href="#linearGradient1"
       id="linearGradient3068"
       gradientUnits="userSpaceOnUse"
       spreadMethod="pad"
       x1="200"
       y1="117"
       x2="416"
       y2="205" />
    <linearGradient
       inkscape:collect="always"
       xlink:href="#linearGradient1"
       id="linearGradient3070"
       gradientUnits="userSpaceOnUse"
       spreadMethod="pad"
       x1="200"
       y1="117"
       x2="416"
       y2="205" />
    <linearGradient
       inkscape:collect="always"
       xlink:href="#linearGradient1"
       id="linearGradient3072"
       gradientUnits="userSpaceOnUse"
       spreadMethod="pad"
       x1="200"
       y1="117"
       x2="416"
       y2="205" />
    <defs
       id="defs1">
      <linearGradient
         spreadMethod="pad"
         id="linearGradient1"
         y2="205"
         y1="117"
         x2="416"
         gradientUnits="userSpaceOnUse"
         x1="200">
        <stop
           id="stop9"
           offset="0%"
           style="stop-opacity:1; stop-color:white;" />
        <stop
           id="stop11"
           offset="100%"
           style="stop-opacity:1; stop-color:rgb(255,255,204);" />
      </linearGradient>
      <clipPath
         id="clipPath1"
         clipPathUnits="userSpaceOnUse">
        <path
           id="path14"
           d="M0 0 L880 0 L880 666 L0 666 L0 0 Z" />
      </clipPath>
      <clipPath
         id="clipPath2"
         clipPathUnits="userSpaceOnUse">
        <path
           id="path17"
           d="M0 0 L660 0 L660 499.5 L0 499.5 L0 0 Z" />
      </clipPath>
      <clipPath
         id="clipPath3"
         clipPathUnits="userSpaceOnUse">
        <path
           id="path20"
           d="M-20 -27 L640 -27 L640 472.5 L-20 472.5 L-20 -27 Z" />
      </clipPath>
      <clipPath
         id="clipPath4"
         clipPathUnits="userSpaceOnUse">
        <path
           id="path23"
           d="M-5 -5 L655 -5 L655 494.5 L-5 494.5 L-5 -5 Z" />
      </clipPath>
      <clipPath
         id="clipPath5"
         clipPathUnits="userSpaceOnUse">
        <path
           id="path26"
           d="M-210 -191.3984 L450 -191.3984 L450 308.1016 L-210 308.1016 L-210 -191.3984 Z" />
      </clipPath>
      <clipPath
         id="clipPath6"
         clipPathUnits="userSpaceOnUse">
        <path
           id="path29"
           d="M-210 -177.2656 L450 -177.2656 L450 322.2344 L-210 322.2344 L-210 -177.2656 Z" />
      </clipPath>
      <clipPath
         id="clipPath7"
         clipPathUnits="userSpaceOnUse">
        <path
           id="path32"
           d="M-210 -163.1328 L450 -163.1328 L450 336.3672 L-210 336.3672 L-210 -163.1328 Z" />
      </clipPath>
      <clipPath
         id="clipPath8"
         clipPathUnits="userSpaceOnUse">
        <path
           id="path35"
           d="M-273.5 -133 L386.5 -133 L386.5 366.5 L-273.5 366.5 L-273.5 -133 Z" />
      </clipPath>
    </defs>
  </defs>
  <g
     id="g55"
     style="font-weight:bold;fill:#c0c0c0;fill-opacity:0.50199998;stroke:#c0c0c0;stroke-width:2;stroke-opacity:0.50199998;font-family:sans-serif"
     transform="matrix(1.3333,0,0,1.3333,6.6665,6.6665)">
    <rect
       clip-path="url(#clipPath4)"
       id="rect57"
       height="87.375"
       style="stroke:none"
       width="216"
       y="117"
       x="200" />
    <rect
       clip-path="url(#clipPath4)"
       id="rect59"
       height="87.375"
       style="fill:none"
       width="216"
       y="117"
       x="200" />
  </g>
  <g
     id="g61"
     style="font-weight:bold;fill:url(#linearGradient3070);stroke:url(#linearGradient3072);stroke-width:2;font-family:sans-serif"
     transform="scale(1.3333,1.3333)">
    <rect
       clip-path="url(#clipPath2)"
       id="rect63"
       height="87.375"
       style="fill:url(#linearGradient3068);stroke:none"
       width="216"
       y="117"
       x="200" />
    <rect
       clip-path="url(#clipPath2)"
       id="rect65"
       height="87.375"
       style="fill:none;stroke:#000000"
       width="216"
       y="117"
       x="200" />
  </g>
  <g
     id="g67"
     transform="matrix(1.3333,0,0,1.3333,279.993,255.19149)"
     style="stroke-width:2;font-family:sans-serif">
    <path
       inkscape:connector-curvature="0"
       clip-path="url(#clipPath5)"
       id="path69"
       style="stroke:none"
       d="m 4.3359,0 0,-3.0352 -3.0351,0 0,-0.8671 3.0351,0 0,-3.0352 0.8672,0 0,3.0352 3.0352,0 0,0.8671 -3.0352,0 0,3.0352 z m 10.1543,0 0,-6.3633 1.1543,0 0,1.1953 q 0.6856,-1.3359 1.9922,-1.3359 0.1758,0 0.3692,0.0293 l 0,1.0781 q -0.2989,-0.0996 -0.5274,-0.0996 -1.0957,0 -1.834,1.3008 l 0,4.1953 z m 8.8887,0 0,-1.1953 q -0.9199,1.3418 -2.2324,1.3418 -0.832,0 -1.3242,-0.5244 -0.4922,-0.5244 -0.4922,-1.4151 l 0,-4.5703 1.1543,0 0,4.1953 q 0,0.7149 0.208,1.0166 0.208,0.3018 0.6943,0.3018 1.0547,0 1.9922,-1.3887 l 0,-4.125 1.1543,0 0,6.3633 z m 3.4688,0 0,-6.3633 1.1543,0 0,1.1953 q 0.914,-1.3359 2.2382,-1.3359 0.8262,0 1.3184,0.5244 0.4922,0.5244 0.4922,1.4092 l 0,4.5703 -1.1543,0 0,-4.1953 q 0,-0.709 -0.208,-1.0108 -0.208,-0.3017 -0.6885,-0.3017 -1.0605,0 -1.998,1.3887 l 0,4.1191 z m 9.7617,0.9375 0,0.7969 q -1.2656,-0.8614 -2.0069,-2.3408 -0.7412,-1.4795 -0.7412,-3.1553 0,-1.6699 0.7412,-3.1494 0.7413,-1.4795 2.0069,-2.3409 l 0,0.7969 q -0.8614,0.9375 -1.2276,2.0156 -0.3662,1.0782 -0.3662,2.6778 0,1.6055 0.3662,2.6836 Q 35.748,0 36.6094,0.9375 z m 0.8672,0 0,0.7969 q 1.2656,-0.8614 2.0068,-2.3408 0.7412,-1.4795 0.7412,-3.1553 0,-1.6699 -0.7412,-3.1494 -0.7412,-1.4795 -2.0068,-2.3409 l 0,0.7969 q 0.8613,0.9375 1.2275,2.0156 0.3662,1.0782 0.3662,2.6778 0,1.6055 -0.3662,2.6836 Q 38.3379,0 37.4766,0.9375 z M 46.0605,0 l 0,-1.1543 1.1543,0 0,1.1543 z m 0,-5.2031 0,-1.1602 1.1543,0 0,1.1602 z M 54.8086,0 l -2.3672,-6.3633 1.1543,0 1.8516,4.9512 1.9511,-4.9512 1.0782,0 L 55.9629,0 z m 7.3828,0.1465 q -1.3652,0 -2.1797,-0.9053 -0.8144,-0.9053 -0.8144,-2.4228 0,-1.5352 0.8173,-2.4288 0.8174,-0.8935 2.2178,-0.8935 1.4004,0 2.2178,0.8935 0.8174,0.8936 0.8174,2.417 0,1.5586 -0.8203,2.4493 -0.8203,0.8906 -2.2559,0.8906 z m 0.0176,-0.8672 q 1.834,0 1.834,-2.4727 0,-2.4433 -1.8106,-2.4433 -1.8047,0 -1.8047,2.4551 0,2.4609 1.7813,2.4609 z M 67.0723,0 l 0,-6.3633 1.1543,0 0,6.3633 z m 0,-7.5176 0,-1.1543 1.1543,0 0,1.1543 z M 74.625,0 l 0,-1.1953 q -0.7031,1.3418 -2.1211,1.3418 -1.1484,0 -1.8076,-0.8379 -0.6592,-0.8379 -0.6592,-2.291 0,-1.5879 0.7471,-2.5547 0.747,-0.9668 1.9658,-0.9668 1.1309,0 1.875,0.8672 l 0,-3.6153 1.1602,0 0,9.252 z m 0,-4.8457 q -0.8965,-0.791 -1.6992,-0.791 -1.6582,0 -1.6582,2.5371 0,2.2324 1.4765,2.2324 0.961,0 1.8809,-1.0488 z" />
  </g>
  <g
     id="g71"
     transform="matrix(1.3333,0,0,1.3333,279.993,236.34822)"
     style="stroke-width:2;font-family:sans-serif">
    <path
       inkscape:connector-curvature="0"
       clip-path="url(#clipPath6)"
       id="path73"
       style="stroke:none"
       d="m 4.3359,0 0,-3.0352 -3.0351,0 0,-0.8671 3.0351,0 0,-3.0352 0.8672,0 0,3.0352 3.0352,0 0,0.8671 -3.0352,0 0,3.0352 z m 13.4356,-0.8086 q -1.0371,0.9551 -1.9981,0.9551 -0.791,0 -1.3125,-0.4951 -0.5214,-0.4952 -0.5214,-1.251 0,-1.043 0.8759,-1.6025 0.876,-0.5596 2.5108,-0.5596 l 0.2754,0 0,-0.7676 q 0,-1.1074 -1.1368,-1.1074 -0.914,0 -1.9746,0.5625 l 0,-0.9551 q 1.166,-0.4746 2.1856,-0.4746 1.0664,0 1.5732,0.4805 0.5069,0.4804 0.5069,1.4941 l 0,2.8828 q 0,0.9903 0.6093,0.9903 0.0762,0 0.2227,-0.0235 l 0.082,0.6387 q -0.3926,0.1875 -0.8672,0.1875 -0.8086,0 -1.0312,-0.9551 z m -0.1699,-0.6269 0,-1.6465 -0.3868,-0.0118 q -0.9492,0 -1.5351,0.3604 -0.5859,0.3604 -0.5859,0.9463 0,0.416 0.2929,0.7031 0.293,0.2871 0.7149,0.2871 0.7207,0 1.5,-0.6386 z m 3.5156,1.5058 0,-9.3223 1.1543,0 0,4.084 q 0.709,-1.3359 2.1269,-1.3359 1.1485,0 1.8077,0.8379 0.6591,0.8379 0.6591,2.291 0,1.582 -0.747,2.5518 -0.7471,0.9697 -1.9659,0.9697 -1.1308,0 -1.8808,-0.8672 l -0.1406,0.791 z m 1.1543,-1.5879 q 0.8906,0.7969 1.6992,0.7969 1.6641,0 1.6641,-2.5371 0,-2.2383 -1.4766,-2.2383 -0.9668,0 -1.8867,1.0488 z m 8.0859,1.6641 q -0.791,0 -1.9219,-0.3692 l 0,-1.0605 q 1.1309,0.5625 1.9688,0.5625 0.498,0 0.8262,-0.2695 0.3281,-0.2696 0.3281,-0.6739 0,-0.5918 -0.9199,-0.9785 l -0.6739,-0.2871 q -1.4941,-0.6211 -1.4941,-1.7871 0,-0.832 0.5889,-1.3096 0.5888,-0.4775 1.6142,-0.4775 0.5332,0 1.3184,0.1465 l 0.2402,0.0469 0,0.9609 q -0.9668,-0.2871 -1.5351,-0.2871 -1.1133,0 -1.1133,0.8086 0,0.5215 0.8437,0.8789 l 0.5567,0.2344 q 0.9433,0.3984 1.3359,0.8408 0.3926,0.4424 0.3926,1.1045 0,0.8379 -0.6621,1.3769 -0.6621,0.5391 -1.6934,0.5391 z m 6.3399,0 q -0.8789,0 -1.3711,-0.5039 -0.4922,-0.5039 -0.4922,-1.4004 l 0,-3.7383 -0.7969,0 0,-0.8672 0.7969,0 0,-1.1543 1.1543,-0.1113 0,1.2656 1.664,0 0,0.8672 -1.664,0 0,3.5273 q 0,1.2481 1.0781,1.2481 0.2285,0 0.5566,-0.0762 L 37.623,0 Q 37.0898,0.1465 36.6973,0.1465 z M 39.2754,0 l 0,-6.3633 1.1543,0 0,1.1953 q 0.6855,-1.3359 1.9922,-1.3359 0.1758,0 0.3691,0.0293 l 0,1.0781 q -0.2988,-0.0996 -0.5273,-0.0996 -1.0957,0 -1.834,1.3008 l 0,4.1953 z m 8.1914,-0.8086 q -1.0371,0.9551 -1.998,0.9551 -0.7911,0 -1.3126,-0.4951 -0.5214,-0.4952 -0.5214,-1.251 0,-1.043 0.8759,-1.6025 0.876,-0.5596 2.5108,-0.5596 l 0.2754,0 0,-0.7676 q 0,-1.1074 -1.1367,-1.1074 -0.9141,0 -1.9747,0.5625 l 0,-0.9551 q 1.1661,-0.4746 2.1856,-0.4746 1.0664,0 1.5732,0.4805 0.5069,0.4804 0.5069,1.4941 l 0,2.8828 q 0,0.9903 0.6093,0.9903 0.0762,0 0.2227,-0.0235 l 0.082,0.6387 q -0.3925,0.1875 -0.8672,0.1875 -0.8085,0 -1.0312,-0.9551 z m -0.1699,-0.6269 0,-1.6465 -0.3867,-0.0118 q -0.9493,0 -1.5352,0.3604 -0.5859,0.3604 -0.5859,0.9463 0,0.416 0.2929,0.7031 0.293,0.2871 0.7149,0.2871 0.7207,0 1.5,-0.6386 z m 6,1.582 q -1.2891,0 -2.1387,-0.9551 -0.8496,-0.9551 -0.8496,-2.4082 0,-1.5527 0.8408,-2.4199 0.8408,-0.8672 2.3467,-0.8672 0.7441,0 1.6641,0.2051 l 0,0.9668 q -0.9786,-0.2871 -1.5938,-0.2871 -0.8848,0 -1.4209,0.665 -0.5361,0.665 -0.5361,1.7725 0,1.0722 0.5508,1.7343 0.5507,0.6621 1.4414,0.6621 0.791,0 1.6289,-0.4043 l 0,0.9961 q -1.1192,0.3399 -1.9336,0.3399 z m 5.5722,0 q -0.8789,0 -1.3711,-0.5039 -0.4921,-0.5039 -0.4921,-1.4004 l 0,-3.7383 -0.7969,0 0,-0.8672 0.7969,0 0,-1.1543 1.1543,-0.1113 0,1.2656 1.664,0 0,0.8672 -1.664,0 0,3.5273 q 0,1.2481 1.0781,1.2481 0.2285,0 0.5566,-0.0762 l 0,0.7969 q -0.5332,0.1465 -0.9258,0.1465 z m 6.3985,1.9687 0.1347,-1.0019 q 1.002,0.4746 1.9747,0.4746 1.9511,0 1.9511,-2.0684 l 0,-1.0019 q -0.6386,1.3359 -2.0976,1.3359 -1.1426,0 -1.8164,-0.832 -0.6739,-0.832 -0.6739,-2.2442 0,-1.4531 0.7676,-2.3671 0.7676,-0.9141 1.9863,-0.9141 1.0664,0 1.834,0.8672 l 0,-0.7266 1.1602,0 0,4.6289 q 0,1.4942 -0.1553,2.2119 -0.1553,0.7178 -0.583,1.1748 -0.7559,0.8028 -2.3496,0.8028 -1.1133,0 -2.1328,-0.3399 z m 4.0605,-4.3183 0,-2.6426 q -0.7617,-0.791 -1.6582,-0.791 -0.7969,0 -1.248,0.6387 -0.4512,0.6386 -0.4512,1.7519 0,2.0918 1.4707,2.0918 1.002,0 1.8867,-1.0488 z m 8.0625,1.998 q -1.1601,0.3516 -1.9863,0.3516 -1.4063,0 -2.2939,-0.9346 -0.8877,-0.9346 -0.8877,-2.4228 0,-1.4473 0.7822,-2.3731 0.7822,-0.9258 2.001,-0.9258 1.1543,0 1.7841,0.8203 0.6299,0.8204 0.6299,2.3321 L 77.4141,-3 73.4004,-3 q 0.2519,2.2676 2.2207,2.2676 0.7207,0 1.7695,-0.3867 z m -3.9375,-3.6621 2.8067,0 q 0,-1.7754 -1.3243,-1.7754 -1.33,0 -1.4824,1.7754 z m 7.8692,4.0137 q -0.8789,0 -1.3711,-0.5039 -0.4922,-0.5039 -0.4922,-1.4004 l 0,-3.7383 -0.7969,0 0,-0.8672 0.7969,0 0,-1.1543 1.1543,-0.1113 0,1.2656 1.664,0 0,0.8672 -1.664,0 0,3.5273 q 0,1.2481 1.0781,1.2481 0.2285,0 0.5566,-0.0762 l 0,0.7969 q -0.5332,0.1465 -0.9257,0.1465 z m 1.4238,1.875 0,-0.8672 6,0 0,0.8672 z m 9.0644,-1.875 q -0.8789,0 -1.371,-0.5039 -0.4922,-0.5039 -0.4922,-1.4004 l 0,-3.7383 -0.7969,0 0,-0.8672 0.7969,0 0,-1.1543 1.1543,-0.1113 0,1.2656 1.664,0 0,0.8672 -1.664,0 0,3.5273 q 0,1.2481 1.0781,1.2481 0.2285,0 0.5566,-0.0762 l 0,0.7969 Q 92.2031,0.1465 91.8105,0.1465 z M 94.3887,0 l 0,-6.3633 1.1543,0 0,1.1953 q 0.6855,-1.3359 1.9922,-1.3359 0.1757,0 0.3691,0.0293 l 0,1.0781 q -0.2988,-0.0996 -0.5273,-0.0996 -1.0958,0 -1.834,1.3008 l 0,4.1953 z m 9.5742,-0.2051 q -1.1602,0.3516 -1.9863,0.3516 -1.4063,0 -2.294,-0.9346 -0.8877,-0.9346 -0.8877,-2.4228 0,-1.4473 0.7822,-2.3731 0.7823,-0.9258 2.001,-0.9258 1.1543,0 1.7842,0.8203 0.6299,0.8204 0.6299,2.3321 L 103.9863,-3 99.9727,-3 q 0.2519,2.2676 2.2207,2.2676 0.7207,0 1.7695,-0.3867 z m -3.9375,-3.6621 2.8066,0 q 0,-1.7754 -1.3242,-1.7754 -1.3301,0 -1.4824,1.7754 z m 5.959,3.8672 0,-6.3633 1.1543,0 0,1.1953 q 0.914,-1.3359 2.2383,-1.3359 0.8261,0 1.3183,0.5244 0.4922,0.5244 0.4922,1.4092 l 0,4.5703 -1.1543,0 0,-4.1953 q 0,-0.709 -0.208,-1.0108 -0.208,-0.3017 -0.6885,-0.3017 -1.0605,0 -1.998,1.3887 l 0,4.1191 z m 11.5312,0 0,-1.1953 q -0.7031,1.3418 -2.1211,1.3418 -1.1484,0 -1.8076,-0.8379 -0.6592,-0.8379 -0.6592,-2.291 0,-1.5879 0.7471,-2.5547 0.7471,-0.9668 1.9658,-0.9668 1.1309,0 1.875,0.8672 l 0,-3.6153 1.1602,0 0,9.252 z m 0,-4.8457 q -0.8965,-0.791 -1.6992,-0.791 -1.6582,0 -1.6582,2.5371 0,2.2324 1.4766,2.2324 0.9609,0 1.8808,-1.0488 z m 2.3145,6.8672 0,-0.8672 6,0 0,0.8672 z M 131.0684,0 l 0,-1.1953 q -0.7032,1.3418 -2.1211,1.3418 -1.1485,0 -1.8077,-0.8379 -0.6591,-0.8379 -0.6591,-2.291 0,-1.5879 0.747,-2.5547 0.7471,-0.9668 1.9659,-0.9668 1.1308,0 1.875,0.8672 l 0,-3.6153 1.1601,0 0,9.252 z m 0,-4.8457 q -0.8965,-0.791 -1.6993,-0.791 -1.6582,0 -1.6582,2.5371 0,2.2324 1.4766,2.2324 0.9609,0 1.8809,-1.0488 z m 6.75,4.0371 q -1.0372,0.9551 -1.9981,0.9551 -0.791,0 -1.3125,-0.4951 -0.5215,-0.4952 -0.5215,-1.251 0,-1.043 0.876,-1.6025 0.876,-0.5596 2.5107,-0.5596 l 0.2754,0 0,-0.7676 q 0,-1.1074 -1.1367,-1.1074 -0.914,0 -1.9746,0.5625 l 0,-0.9551 q 1.166,-0.4746 2.1856,-0.4746 1.0664,0 1.5732,0.4805 0.5068,0.4804 0.5068,1.4941 l 0,2.8828 q 0,0.9903 0.6094,0.9903 0.0762,0 0.2227,-0.0235 l 0.082,0.6387 q -0.3926,0.1875 -0.8672,0.1875 -0.8086,0 -1.0312,-0.9551 z m -0.17,-0.6269 0,-1.6465 -0.3867,-0.0118 q -0.9492,0 -1.5351,0.3604 -0.586,0.3604 -0.586,0.9463 0,0.416 0.293,0.7031 0.293,0.2871 0.7148,0.2871 0.7207,0 1.5,-0.6386 z m 5.4258,1.582 q -0.8789,0 -1.3711,-0.5039 -0.4922,-0.5039 -0.4922,-1.4004 l 0,-3.7383 -0.7968,0 0,-0.8672 0.7968,0 0,-1.1543 1.1543,-0.1113 0,1.2656 1.6641,0 0,0.8672 -1.6641,0 0,3.5273 q 0,1.2481 1.0782,1.2481 0.2285,0 0.5566,-0.0762 L 144,0 q -0.5332,0.1465 -0.9258,0.1465 z m 5.8594,-0.9551 q -1.0371,0.9551 -1.9981,0.9551 -0.791,0 -1.3125,-0.4951 -0.5214,-0.4952 -0.5214,-1.251 0,-1.043 0.8759,-1.6025 0.876,-0.5596 2.5108,-0.5596 l 0.2754,0 0,-0.7676 q 0,-1.1074 -1.1367,-1.1074 -0.9141,0 -1.9747,0.5625 l 0,-0.9551 q 1.1661,-0.4746 2.1856,-0.4746 1.0664,0 1.5732,0.4805 0.5069,0.4804 0.5069,1.4941 l 0,2.8828 q 0,0.9903 0.6093,0.9903 0.0762,0 0.2227,-0.0235 l 0.082,0.6387 q -0.3925,0.1875 -0.8672,0.1875 -0.8086,0 -1.0312,-0.9551 z m -0.1699,-0.6269 0,-1.6465 -0.3867,-0.0118 q -0.9493,0 -1.5352,0.3604 -0.5859,0.3604 -0.5859,0.9463 0,0.416 0.2929,0.7031 0.293,0.2871 0.7149,0.2871 0.7207,0 1.5,-0.6386 z m 5.8301,2.373 0,0.7969 q -1.2657,-0.8614 -2.0069,-2.3408 -0.7412,-1.4795 -0.7412,-3.1553 0,-1.6699 0.7412,-3.1494 0.7412,-1.4795 2.0069,-2.3409 l 0,0.7969 q -0.8614,0.9375 -1.2276,2.0156 Q 153,-5.3613 153,-3.7617 q 0,1.6055 0.3662,2.6836 0.3662,1.0781 1.2276,2.0156 z m 0.8671,0 0,0.7969 q 1.2657,-0.8614 2.0069,-2.3408 0.7412,-1.4795 0.7412,-3.1553 0,-1.6699 -0.7412,-3.1494 -0.7412,-1.4795 -2.0069,-2.3409 l 0,0.7969 q 0.8614,0.9375 1.2276,2.0156 0.3662,1.0782 0.3662,2.6778 0,1.6055 -0.3662,2.6836 Q 156.3223,0 155.4609,0.9375 z M 164.0449,0 l 0,-1.1543 1.1543,0 0,1.1543 z m 0,-5.2031 0,-1.1602 1.1543,0 0,1.1602 z M 172.793,0 l -2.3672,-6.3633 1.1543,0 1.8515,4.9512 1.9512,-4.9512 1.0781,0 L 173.9473,0 z m 7.3828,0.1465 q -1.3653,0 -2.1797,-0.9053 -0.8145,-0.9053 -0.8145,-2.4228 0,-1.5352 0.8174,-2.4288 0.8174,-0.8935 2.2178,-0.8935 1.4004,0 2.2178,0.8935 0.8174,0.8936 0.8174,2.417 0,1.5586 -0.8204,2.4493 -0.8203,0.8906 -2.2558,0.8906 z m 0.0176,-0.8672 q 1.8339,0 1.8339,-2.4727 0,-2.4433 -1.8105,-2.4433 -1.8047,0 -1.8047,2.4551 0,2.4609 1.7813,2.4609 z M 185.0566,0 l 0,-6.3633 1.1543,0 0,6.3633 z m 0,-7.5176 0,-1.1543 1.1543,0 0,1.1543 z M 192.6094,0 l 0,-1.1953 q -0.7032,1.3418 -2.1211,1.3418 -1.1485,0 -1.8076,-0.8379 -0.6592,-0.8379 -0.6592,-2.291 0,-1.5879 0.7471,-2.5547 0.747,-0.9668 1.9658,-0.9668 1.1308,0 1.875,0.8672 l 0,-3.6153 1.1601,0 0,9.252 z m 0,-4.8457 q -0.8965,-0.791 -1.6992,-0.791 -1.6582,0 -1.6582,2.5371 0,2.2324 1.4765,2.2324 0.961,0 1.8809,-1.0488 z" />
  </g>
  <g
     id="g75"
     transform="matrix(1.3333,0,0,1.3333,279.993,217.50496)"
     style="stroke-width:2;font-family:sans-serif">
    <path
       inkscape:connector-curvature="0"
       clip-path="url(#clipPath7)"
       id="path77"
       style="stroke:none"
       d="m 4.3359,0 0,-3.0352 -3.0351,0 0,-0.8671 3.0351,0 0,-3.0352 0.8672,0 0,3.0352 3.0352,0 0,0.8671 -3.0352,0 0,3.0352 z m 13.4356,-0.8086 q -1.0371,0.9551 -1.9981,0.9551 -0.791,0 -1.3125,-0.4951 -0.5214,-0.4952 -0.5214,-1.251 0,-1.043 0.8759,-1.6025 0.876,-0.5596 2.5108,-0.5596 l 0.2754,0 0,-0.7676 q 0,-1.1074 -1.1368,-1.1074 -0.914,0 -1.9746,0.5625 l 0,-0.9551 q 1.166,-0.4746 2.1856,-0.4746 1.0664,0 1.5732,0.4805 0.5069,0.4804 0.5069,1.4941 l 0,2.8828 q 0,0.9903 0.6093,0.9903 0.0762,0 0.2227,-0.0235 l 0.082,0.6387 q -0.3926,0.1875 -0.8672,0.1875 -0.8086,0 -1.0312,-0.9551 z m -0.1699,-0.6269 0,-1.6465 -0.3868,-0.0118 q -0.9492,0 -1.5351,0.3604 -0.5859,0.3604 -0.5859,0.9463 0,0.416 0.2929,0.7031 0.293,0.2871 0.7149,0.2871 0.7207,0 1.5,-0.6386 z m 3.5156,1.5058 0,-9.3223 1.1543,0 0,4.084 q 0.709,-1.3359 2.1269,-1.3359 1.1485,0 1.8077,0.8379 0.6591,0.8379 0.6591,2.291 0,1.582 -0.747,2.5518 -0.7471,0.9697 -1.9659,0.9697 -1.1308,0 -1.8808,-0.8672 l -0.1406,0.791 z m 1.1543,-1.5879 q 0.8906,0.7969 1.6992,0.7969 1.6641,0 1.6641,-2.5371 0,-2.2383 -1.4766,-2.2383 -0.9668,0 -1.8867,1.0488 z m 8.0859,1.6641 q -0.791,0 -1.9219,-0.3692 l 0,-1.0605 q 1.1309,0.5625 1.9688,0.5625 0.498,0 0.8262,-0.2695 0.3281,-0.2696 0.3281,-0.6739 0,-0.5918 -0.9199,-0.9785 l -0.6739,-0.2871 q -1.4941,-0.6211 -1.4941,-1.7871 0,-0.832 0.5889,-1.3096 0.5888,-0.4775 1.6142,-0.4775 0.5332,0 1.3184,0.1465 l 0.2402,0.0469 0,0.9609 q -0.9668,-0.2871 -1.5351,-0.2871 -1.1133,0 -1.1133,0.8086 0,0.5215 0.8437,0.8789 l 0.5567,0.2344 q 0.9433,0.3984 1.3359,0.8408 0.3926,0.4424 0.3926,1.1045 0,0.8379 -0.6621,1.3769 -0.6621,0.5391 -1.6934,0.5391 z m 6.3399,0 q -0.8789,0 -1.3711,-0.5039 -0.4922,-0.5039 -0.4922,-1.4004 l 0,-3.7383 -0.7969,0 0,-0.8672 0.7969,0 0,-1.1543 1.1543,-0.1113 0,1.2656 1.664,0 0,0.8672 -1.664,0 0,3.5273 q 0,1.2481 1.0781,1.2481 0.2285,0 0.5566,-0.0762 L 37.623,0 Q 37.0898,0.1465 36.6973,0.1465 z M 39.2754,0 l 0,-6.3633 1.1543,0 0,1.1953 q 0.6855,-1.3359 1.9922,-1.3359 0.1758,0 0.3691,0.0293 l 0,1.0781 q -0.2988,-0.0996 -0.5273,-0.0996 -1.0957,0 -1.834,1.3008 l 0,4.1953 z m 8.1914,-0.8086 q -1.0371,0.9551 -1.998,0.9551 -0.7911,0 -1.3126,-0.4951 -0.5214,-0.4952 -0.5214,-1.251 0,-1.043 0.8759,-1.6025 0.876,-0.5596 2.5108,-0.5596 l 0.2754,0 0,-0.7676 q 0,-1.1074 -1.1367,-1.1074 -0.9141,0 -1.9747,0.5625 l 0,-0.9551 q 1.1661,-0.4746 2.1856,-0.4746 1.0664,0 1.5732,0.4805 0.5069,0.4804 0.5069,1.4941 l 0,2.8828 q 0,0.9903 0.6093,0.9903 0.0762,0 0.2227,-0.0235 l 0.082,0.6387 q -0.3925,0.1875 -0.8672,0.1875 -0.8085,0 -1.0312,-0.9551 z m -0.1699,-0.6269 0,-1.6465 -0.3867,-0.0118 q -0.9493,0 -1.5352,0.3604 -0.5859,0.3604 -0.5859,0.9463 0,0.416 0.2929,0.7031 0.293,0.2871 0.7149,0.2871 0.7207,0 1.5,-0.6386 z m 6,1.582 q -1.2891,0 -2.1387,-0.9551 -0.8496,-0.9551 -0.8496,-2.4082 0,-1.5527 0.8408,-2.4199 0.8408,-0.8672 2.3467,-0.8672 0.7441,0 1.6641,0.2051 l 0,0.9668 q -0.9786,-0.2871 -1.5938,-0.2871 -0.8848,0 -1.4209,0.665 -0.5361,0.665 -0.5361,1.7725 0,1.0722 0.5508,1.7343 0.5507,0.6621 1.4414,0.6621 0.791,0 1.6289,-0.4043 l 0,0.9961 q -1.1192,0.3399 -1.9336,0.3399 z m 5.5722,0 q -0.8789,0 -1.3711,-0.5039 -0.4921,-0.5039 -0.4921,-1.4004 l 0,-3.7383 -0.7969,0 0,-0.8672 0.7969,0 0,-1.1543 1.1543,-0.1113 0,1.2656 1.664,0 0,0.8672 -1.664,0 0,3.5273 q 0,1.2481 1.0781,1.2481 0.2285,0 0.5566,-0.0762 l 0,0.7969 q -0.5332,0.1465 -0.9258,0.1465 z m 6.3985,1.9687 0.1347,-1.0019 q 1.002,0.4746 1.9747,0.4746 1.9511,0 1.9511,-2.0684 l 0,-1.0019 q -0.6386,1.3359 -2.0976,1.3359 -1.1426,0 -1.8164,-0.832 -0.6739,-0.832 -0.6739,-2.2442 0,-1.4531 0.7676,-2.3671 0.7676,-0.9141 1.9863,-0.9141 1.0664,0 1.834,0.8672 l 0,-0.7266 1.1602,0 0,4.6289 q 0,1.4942 -0.1553,2.2119 -0.1553,0.7178 -0.583,1.1748 -0.7559,0.8028 -2.3496,0.8028 -1.1133,0 -2.1328,-0.3399 z m 4.0605,-4.3183 0,-2.6426 q -0.7617,-0.791 -1.6582,-0.791 -0.7969,0 -1.248,0.6387 -0.4512,0.6386 -0.4512,1.7519 0,2.0918 1.4707,2.0918 1.002,0 1.8867,-1.0488 z m 8.0625,1.998 q -1.1601,0.3516 -1.9863,0.3516 -1.4063,0 -2.2939,-0.9346 -0.8877,-0.9346 -0.8877,-2.4228 0,-1.4473 0.7822,-2.3731 0.7822,-0.9258 2.001,-0.9258 1.1543,0 1.7841,0.8203 0.6299,0.8204 0.6299,2.3321 L 77.4141,-3 73.4004,-3 q 0.2519,2.2676 2.2207,2.2676 0.7207,0 1.7695,-0.3867 z m -3.9375,-3.6621 2.8067,0 q 0,-1.7754 -1.3243,-1.7754 -1.33,0 -1.4824,1.7754 z m 7.8692,4.0137 q -0.8789,0 -1.3711,-0.5039 -0.4922,-0.5039 -0.4922,-1.4004 l 0,-3.7383 -0.7969,0 0,-0.8672 0.7969,0 0,-1.1543 1.1543,-0.1113 0,1.2656 1.664,0 0,0.8672 -1.664,0 0,3.5273 q 0,1.2481 1.0781,1.2481 0.2285,0 0.5566,-0.0762 l 0,0.7969 q -0.5332,0.1465 -0.9257,0.1465 z m 1.4238,1.875 0,-0.8672 6,0 0,0.8672 z M 93.9844,0 l 0,-1.1953 q -0.7032,1.3418 -2.1211,1.3418 -1.1485,0 -1.8076,-0.8379 -0.6592,-0.8379 -0.6592,-2.291 0,-1.5879 0.7471,-2.5547 0.747,-0.9668 1.9658,-0.9668 1.1308,0 1.875,0.8672 l 0,-3.6153 1.1601,0 0,9.252 z m 0,-4.8457 q -0.8965,-0.791 -1.6992,-0.791 -1.6582,0 -1.6582,2.5371 0,2.2324 1.4765,2.2324 0.961,0 1.8809,-1.0488 z m 6.75,4.0371 q -1.0371,0.9551 -1.9981,0.9551 -0.791,0 -1.3125,-0.4951 -0.5215,-0.4952 -0.5215,-1.251 0,-1.043 0.876,-1.6025 0.876,-0.5596 2.5108,-0.5596 l 0.2754,0 0,-0.7676 q 0,-1.1074 -1.1368,-1.1074 -0.914,0 -1.9746,0.5625 l 0,-0.9551 q 1.166,-0.4746 2.1856,-0.4746 1.0664,0 1.5732,0.4805 0.5069,0.4804 0.5069,1.4941 l 0,2.8828 q 0,0.9903 0.6093,0.9903 0.0762,0 0.2227,-0.0235 l 0.082,0.6387 q -0.3926,0.1875 -0.8672,0.1875 -0.8086,0 -1.0312,-0.9551 z m -0.1699,-0.6269 0,-1.6465 -0.3868,-0.0118 q -0.9492,0 -1.5351,0.3604 -0.586,0.3604 -0.586,0.9463 0,0.416 0.293,0.7031 0.293,0.2871 0.7149,0.2871 0.7207,0 1.5,-0.6386 z m 5.4257,1.582 q -0.8789,0 -1.3711,-0.5039 -0.4921,-0.5039 -0.4921,-1.4004 l 0,-3.7383 -0.7969,0 0,-0.8672 0.7969,0 0,-1.1543 1.1542,-0.1113 0,1.2656 1.6641,0 0,0.8672 -1.6641,0 0,3.5273 q 0,1.2481 1.0782,1.2481 0.2285,0 0.5566,-0.0762 l 0,0.7969 q -0.5332,0.1465 -0.9258,0.1465 z m 5.8594,-0.9551 q -1.0371,0.9551 -1.998,0.9551 -0.7911,0 -1.3125,-0.4951 -0.5215,-0.4952 -0.5215,-1.251 0,-1.043 0.876,-1.6025 0.8759,-0.5596 2.5107,-0.5596 l 0.2754,0 0,-0.7676 q 0,-1.1074 -1.1367,-1.1074 -0.9141,0 -1.9746,0.5625 l 0,-0.9551 q 1.166,-0.4746 2.1855,-0.4746 1.0664,0 1.5732,0.4805 0.5069,0.4804 0.5069,1.4941 l 0,2.8828 q 0,0.9903 0.6094,0.9903 0.0761,0 0.2226,-0.0235 l 0.082,0.6387 q -0.3925,0.1875 -0.8671,0.1875 -0.8086,0 -1.0313,-0.9551 z m -0.1699,-0.6269 0,-1.6465 -0.3867,-0.0118 q -0.9492,0 -1.5352,0.3604 -0.5859,0.3604 -0.5859,0.9463 0,0.416 0.2929,0.7031 0.293,0.2871 0.7149,0.2871 0.7207,0 1.5,-0.6386 z m 5.8301,2.373 0,0.7969 q -1.2657,-0.8614 -2.0069,-2.3408 -0.7412,-1.4795 -0.7412,-3.1553 0,-1.6699 0.7412,-3.1494 0.7412,-1.4795 2.0069,-2.3409 l 0,0.7969 q -0.8614,0.9375 -1.2276,2.0156 -0.3662,1.0782 -0.3662,2.6778 0,1.6055 0.3662,2.6836 0.3662,1.0781 1.2276,2.0156 z m 0.8672,0 0,0.7969 q 1.2656,-0.8614 2.0068,-2.3408 0.7412,-1.4795 0.7412,-3.1553 0,-1.6699 -0.7412,-3.1494 -0.7412,-1.4795 -2.0068,-2.3409 l 0,0.7969 q 0.8613,0.9375 1.2275,2.0156 0.3662,1.0782 0.3662,2.6778 0,1.6055 -0.3662,2.6836 Q 119.2383,0 118.377,0.9375 z M 126.9609,0 l 0,-1.1543 1.1543,0 0,1.1543 z m 0,-5.2031 0,-1.1602 1.1543,0 0,1.1602 z M 135.709,0 l -2.3672,-6.3633 1.1543,0 1.8516,4.9512 1.9511,-4.9512 1.0782,0 L 136.8633,0 z m 7.3828,0.1465 q -1.3652,0 -2.1797,-0.9053 -0.8144,-0.9053 -0.8144,-2.4228 0,-1.5352 0.8173,-2.4288 0.8174,-0.8935 2.2178,-0.8935 1.4004,0 2.2178,0.8935 0.8174,0.8936 0.8174,2.417 0,1.5586 -0.8203,2.4493 -0.8204,0.8906 -2.2559,0.8906 z m 0.0176,-0.8672 q 1.834,0 1.834,-2.4727 0,-2.4433 -1.8106,-2.4433 -1.8047,0 -1.8047,2.4551 0,2.4609 1.7813,2.4609 z M 147.9727,0 l 0,-6.3633 1.1543,0 0,6.3633 z m 0,-7.5176 0,-1.1543 1.1543,0 0,1.1543 z M 155.5254,0 l 0,-1.1953 q -0.7031,1.3418 -2.1211,1.3418 -1.1484,0 -1.8076,-0.8379 -0.6592,-0.8379 -0.6592,-2.291 0,-1.5879 0.7471,-2.5547 0.747,-0.9668 1.9658,-0.9668 1.1308,0 1.875,0.8672 l 0,-3.6153 1.1601,0 0,9.252 z m 0,-4.8457 q -0.8965,-0.791 -1.6992,-0.791 -1.6582,0 -1.6582,2.5371 0,2.2324 1.4765,2.2324 0.961,0 1.8809,-1.0488 z" />
  </g>
  <g
     id="g79"
     transform="scale(1.3333,1.3333)"
     style="font-family:sans-serif">
    <line
       clip-path="url(#clipPath2)"
       id="line81"
       y2="147.1328"
       style="fill:none"
       y1="147.1328"
       x2="416"
       x1="200" />
    <line
       clip-path="url(#clipPath2)"
       id="line83"
       y2="139.1328"
       style="fill:none"
       y1="139.1328"
       x2="416"
       x1="200" />
  </g>
  <g
     id="g85"
     transform="matrix(1.3333,0,0,1.3333,364.65755,177.3289)"
     style="font-weight:bold;font-family:sans-serif">
    <path
       inkscape:connector-curvature="0"
       clip-path="url(#clipPath8)"
       id="path87"
       style="stroke:none"
       d="m 0.1348,0 3.375,-8.6719 1.8047,0 L 8.6895,0 6.8379,0 5.9355,-2.3145 l -3.5859,0 L 1.4473,0 z m 2.6601,-3.4688 2.6953,0 -1.3476,-3.457 z M 9.9199,0 l 0,-9.252 1.7344,0 0,4.0313 q 0.668,-1.3594 2.1035,-1.3594 1.1602,0 1.8252,0.8496 0.665,0.8496 0.665,2.3379 0,1.6114 -0.75,2.5752 -0.75,0.9639 -2.0039,0.9639 -1.0781,0 -1.8398,-0.7969 L 11.332,0 z m 1.7344,-1.6816 q 0.6328,0.7031 1.3477,0.7031 0.6386,0 1.0195,-0.6182 0.3808,-0.6181 0.3808,-1.6494 0,-1.9746 -1.2714,-1.9746 -0.7676,0 -1.4766,0.9902 z m 6.0469,1.4765 0,-1.2715 q 1.289,0.5391 2.2031,0.5391 1.0664,0 1.0664,-0.7266 0,-0.4687 -0.8789,-0.8203 l -0.5859,-0.2344 q -0.9551,-0.3867 -1.3653,-0.832 -0.4101,-0.4453 -0.4101,-1.1015 0,-0.9141 0.6972,-1.4209 0.6973,-0.5069 1.9512,-0.5069 0.7852,0 1.8691,0.2285 l 0,1.2188 q -1.0429,-0.3633 -1.7285,-0.3633 -1.0781,0 -1.0781,0.668 0,0.4394 0.7969,0.7441 l 0.5039,0.1934 q 1.1308,0.4277 1.5732,0.8672 0.4424,0.4394 0.4424,1.1308 0,0.9082 -0.7529,1.4737 -0.7529,0.5654 -1.96,0.5654 -1.1601,0 -2.3437,-0.3516 z M 24.6562,0 l 0,-8.6719 5.4551,0 0,1.1895 -3.6504,0 0,2.6367 3,0 0,1.1953 -3,0 0,3.6504 z m 12.129,-0.2168 q -1.2364,0.3633 -2.3438,0.3633 -1.6113,0 -2.543,-0.9141 -0.9316,-0.914 -0.9316,-2.4961 0,-1.4941 0.8525,-2.4052 0.8526,-0.9112 2.253,-0.9112 1.4121,0 2.0625,0.8906 0.6504,0.8907 0.6504,2.8184 l -3.9903,0 q 0.1758,1.8399 2.0215,1.8399 0.8731,0 1.9688,-0.4043 z m -4.0137,-3.6328 2.3086,0 q 0,-1.6465 -1.0606,-1.6465 -1.0781,0 -1.248,1.6465 z m 9.123,3.8144 q -0.6211,0.1817 -0.9785,0.1817 -2.2558,0 -2.2558,-2.1094 l 0,-3.3867 -0.7207,0 0,-1.084 0.7207,0 0,-1.084 1.7343,-0.1992 0,1.2832 1.377,0 0,1.084 -1.377,0 0,3.1582 q 0,1.1836 0.9668,1.1836 0.2227,0 0.5332,-0.082 z m 6.293,-0.1054 q -1.0781,0.2871 -1.998,0.2871 -1.5411,0 -2.4346,-0.9053 -0.8936,-0.9053 -0.8936,-2.4639 0,-1.5761 0.9199,-2.4668 0.92,-0.8906 2.543,-0.8906 0.7852,0 1.8106,0.252 l 0,1.2539 q -1.0664,-0.3457 -1.7051,-0.3457 -0.7793,0 -1.2539,0.5976 -0.4746,0.5977 -0.4746,1.5879 0,1.0137 0.5127,1.6231 0.5127,0.6093 1.3681,0.6093 0.7793,0 1.6055,-0.3398 z M 49.8281,0 l 0,-9.252 1.7344,0 0,4.0313 q 0.8496,-1.3594 2.1914,-1.3594 0.8613,0 1.3594,0.5449 0.498,0.545 0.498,1.4883 l 0,4.5469 -1.7343,0 0,-4.1191 q 0,-1.0957 -0.7266,-1.0957 -0.8262,0 -1.5879,1.166 l 0,4.0488 z m 13.1192,-0.2168 q -1.2364,0.3633 -2.3438,0.3633 -1.6113,0 -2.543,-0.9141 -0.9316,-0.914 -0.9316,-2.4961 0,-1.4941 0.8525,-2.4052 0.8526,-0.9112 2.253,-0.9112 1.4121,0 2.0625,0.8906 0.6504,0.8907 0.6504,2.8184 l -3.9903,0 q 0.1758,1.8399 2.0215,1.8399 0.8731,0 1.9688,-0.4043 z m -4.0137,-3.6328 2.3086,0 q 0,-1.6465 -1.0606,-1.6465 -1.0781,0 -1.248,1.6465 z M 64.7402,0 l 0,-6.4336 1.7344,0 0,1.2129 q 0.6738,-1.3594 2.0508,-1.3594 0.1641,0 0.3223,0.0352 l 0,1.5469 q -0.3692,-0.1348 -0.6856,-0.1348 -1.0371,0 -1.6875,1.0488 l 0,4.084 z" />
  </g>
</svg>
