<?xml version="1.0" encoding="UTF-8" standalone="no"?>
<svg
   xmlns:dc="http://purl.org/dc/elements/1.1/"
   xmlns:cc="http://creativecommons.org/ns#"
   xmlns:rdf="http://www.w3.org/1999/02/22-rdf-syntax-ns#"
   xmlns:svg="http://www.w3.org/2000/svg"
   xmlns="http://www.w3.org/2000/svg"
   xmlns:xlink="http://www.w3.org/1999/xlink"
   xmlns:sodipodi="http://sodipodi.sourceforge.net/DTD/sodipodi-0.dtd"
   xmlns:inkscape="http://www.inkscape.org/namespaces/inkscape"
   style="fill-opacity:1; color-rendering:auto; color-interpolation:auto; stroke:black; text-rendering:auto; stroke-linecap:square; stroke-miterlimit:10; stroke-opacity:1; shape-rendering:auto; fill:black; stroke-dasharray:none; font-weight:normal; stroke-width:1; font-family:'Dialog'; font-style:normal; stroke-linejoin:miter; font-size:12; stroke-dashoffset:0; image-rendering:auto;"
   width="908"
   height="666"
   id="svg2"
   version="1.1"
   inkscape:version="0.91 r13725"
   sodipodi:docname="comments_counter.svg">
  <metadata
     id="metadata105">
    <rdf:RDF>
      <cc:Work
         rdf:about="">
        <dc:format>image/svg+xml</dc:format>
        <dc:type
           rdf:resource="http://purl.org/dc/dcmitype/StillImage" />
      </cc:Work>
    </rdf:RDF>
  </metadata>
  <sodipodi:namedview
     pagecolor="#ffffff"
     bordercolor="#666666"
     borderopacity="1"
     objecttolerance="10"
     gridtolerance="10"
     guidetolerance="10"
     inkscape:pageopacity="0"
     inkscape:pageshadow="2"
     inkscape:window-width="640"
     inkscape:window-height="480"
     id="namedview103"
     showgrid="false"
     inkscape:zoom="0.35435435"
     inkscape:cx="454"
     inkscape:cy="333"
     inkscape:window-x="214"
     inkscape:window-y="212"
     inkscape:window-maximized="0"
     inkscape:current-layer="svg2" />
  <!--Generated by the Batik Graphics2D SVG Generator-->
  <defs
     id="genericDefs">
    <linearGradient
       inkscape:collect="always"
       xlink:href="#linearGradient1"
       id="linearGradient3433"
       gradientUnits="userSpaceOnUse"
       spreadMethod="pad"
       x1="123"
       y1="182"
       x2="637"
       y2="300" />
    <linearGradient
       inkscape:collect="always"
       xlink:href="#linearGradient1"
       id="linearGradient3435"
       gradientUnits="userSpaceOnUse"
       spreadMethod="pad"
       x1="123"
       y1="182"
       x2="637"
       y2="300" />
    <linearGradient
       inkscape:collect="always"
       xlink:href="#linearGradient1"
       id="linearGradient3437"
       gradientUnits="userSpaceOnUse"
       spreadMethod="pad"
       x1="123"
       y1="182"
       x2="637"
       y2="300" />
    <defs
       id="defs1">
      <linearGradient
         spreadMethod="pad"
         id="linearGradient1"
         y2="300"
         y1="182"
         x2="637"
         gradientUnits="userSpaceOnUse"
         x1="123">
        <stop
           id="stop9"
           offset="0%"
           style="stop-opacity:1; stop-color:white;" />
        <stop
           id="stop11"
           offset="100%"
           style="stop-opacity:1; stop-color:rgb(255,255,204);" />
      </linearGradient>
      <clipPath
         id="clipPath1"
         clipPathUnits="userSpaceOnUse">
        <path
           id="path14"
           d="M0 0 L908 0 L908 666 L0 666 L0 0 Z" />
      </clipPath>
      <clipPath
         id="clipPath2"
         clipPathUnits="userSpaceOnUse">
        <path
           id="path17"
           d="M0 0 L681 0 L681 499.5 L0 499.5 L0 0 Z" />
      </clipPath>
      <clipPath
         id="clipPath3"
         clipPathUnits="userSpaceOnUse">
        <path
           id="path20"
           d="M-20 -27 L661 -27 L661 472.5 L-20 472.5 L-20 -27 Z" />
      </clipPath>
      <clipPath
         id="clipPath4"
         clipPathUnits="userSpaceOnUse">
        <path
           id="path23"
           d="M-5 -5 L676 -5 L676 494.5 L-5 494.5 L-5 -5 Z" />
      </clipPath>
      <clipPath
         id="clipPath5"
         clipPathUnits="userSpaceOnUse">
        <path
           id="path26"
           d="M-133 -283.8438 L548 -283.8438 L548 215.6562 L-133 215.6562 L-133 -283.8438 Z" />
      </clipPath>
      <clipPath
         id="clipPath6"
         clipPathUnits="userSpaceOnUse">
        <path
           id="path29"
           d="M-133 -269.875 L548 -269.875 L548 229.625 L-133 229.625 L-133 -269.875 Z" />
      </clipPath>
      <clipPath
         id="clipPath7"
         clipPathUnits="userSpaceOnUse">
        <path
           id="path32"
           d="M-133 -255.9062 L548 -255.9062 L548 243.5938 L-133 243.5938 L-133 -255.9062 Z" />
      </clipPath>
      <clipPath
         id="clipPath8"
         clipPathUnits="userSpaceOnUse">
        <path
           id="path35"
           d="M-133 -233.9375 L548 -233.9375 L548 265.5625 L-133 265.5625 L-133 -233.9375 Z" />
      </clipPath>
      <clipPath
         id="clipPath9"
         clipPathUnits="userSpaceOnUse">
        <path
           id="path38"
           d="M-133 -219.9688 L548 -219.9688 L548 279.5312 L-133 279.5312 L-133 -219.9688 Z" />
      </clipPath>
      <clipPath
         id="clipPath10"
         clipPathUnits="userSpaceOnUse">
        <path
           id="path41"
           d="M-314.5 -198 L366.5 -198 L366.5 301.5 L-314.5 301.5 L-314.5 -198 Z" />
      </clipPath>
    </defs>
  </defs>
  <g
     id="g61"
     style="font-weight:bold;font-family:sans-serif;fill:#c0c0c0;fill-opacity:0.50199998;stroke:#c0c0c0;stroke-width:2;stroke-opacity:0.50199998;shape-rendering:crispEdges;text-rendering:geometricPrecision"
     transform="matrix(1.3333,0,0,1.3333,6.6665,6.6665)">
    <rect
       clip-path="url(#clipPath4)"
       id="rect63"
       height="117.5625"
       style="stroke:none"
       width="514"
       y="182"
       x="123" />
    <rect
       clip-path="url(#clipPath4)"
       id="rect65"
       height="117.5625"
       style="fill:none"
       width="514"
       y="182"
       x="123" />
  </g>
  <g
     id="g67"
     style="font-weight:bold;font-family:sans-serif;fill:url(#linearGradient3435);stroke:url(#linearGradient3437);stroke-width:2;shape-rendering:crispEdges;text-rendering:geometricPrecision"
     transform="scale(1.3333,1.3333)">
    <rect
       clip-path="url(#clipPath2)"
       id="rect69"
       height="117.5625"
       style="fill:url(#linearGradient3433);stroke:none"
       width="514"
       y="182"
       x="123" />
    <rect
       clip-path="url(#clipPath2)"
       id="rect71"
       height="117.5625"
       style="fill:none;stroke:#000000"
       width="514"
       y="182"
       x="123" />
  </g>
  <g
     id="g73"
     transform="matrix(1.3333,0,0,1.3333,177.3289,378.44894)"
     style="font-family:sans-serif;stroke-width:2;text-rendering:optimizeLegibility">
    <path
       inkscape:connector-curvature="0"
       clip-path="url(#clipPath5)"
       id="path75"
       style="stroke:none"
       d="m 5.5156,-7.5312 0,3.2656 3.2656,0 0,1 -3.2656,0 0,3.2656 -0.9844,0 0,-3.2656 -3.2656,0 0,-1 3.2656,0 0,-3.2656 0.9844,0 z m 14.1973,4.25 q 0,-1.1876 -0.4922,-1.8594 -0.4922,-0.6719 -1.3359,-0.6719 -0.8594,0 -1.3516,0.6719 -0.4922,0.6718 -0.4922,1.8594 0,1.1874 0.4922,1.8671 0.4922,0.6797 1.3516,0.6797 0.8437,0 1.3359,-0.6797 0.4922,-0.6797 0.4922,-1.8671 z M 16.041,-5.5625 q 0.3438,-0.5937 0.8594,-0.875 0.5156,-0.2813 1.2344,-0.2813 1.2031,0 1.9531,0.9454 0.75,0.9453 0.75,2.4922 0,1.5468 -0.75,2.5 -0.75,0.9531 -1.9531,0.9531 -0.7188,0 -1.2344,-0.2891 -0.5156,-0.289 -0.8594,-0.8672 l 0,0.9844 -1.0781,0 0,-9.125 1.0781,0 0,3.5625 z m 10.3828,0 q -0.1875,-0.0937 -0.3984,-0.1484 -0.2109,-0.0547 -0.4766,-0.0547 -0.9062,0 -1.3984,0.5937 -0.4922,0.5938 -0.4922,1.7188 l 0,3.4531 -1.0781,0 0,-6.5625 1.0781,0 0,1.0156 q 0.3438,-0.5937 0.8906,-0.8828 0.5469,-0.2891 1.3282,-0.2891 0.1093,0 0.2421,0.0157 0.1329,0.0156 0.2891,0.0469 l 0.0156,1.0937 z m 6.7461,2.0156 0,0.5157 -4.9687,0 q 0.0781,1.125 0.6797,1.7031 0.6015,0.5781 1.664,0.5781 0.625,0 1.211,-0.1484 0.5859,-0.1485 1.164,-0.461 l 0,1.0313 q -0.5937,0.2343 -1.2031,0.3672 -0.6094,0.1328 -1.2344,0.1328 -1.5625,0 -2.4844,-0.9141 -0.9218,-0.914 -0.9218,-2.4766 0,-1.6093 0.875,-2.5546 0.875,-0.9454 2.3437,-0.9454 1.3281,0 2.1016,0.8516 0.7734,0.8516 0.7734,2.3203 z M 32.0918,-3.875 q -0.0156,-0.875 -0.5,-1.4062 -0.4844,-0.5313 -1.2813,-0.5313 -0.9062,0 -1.4453,0.5156 -0.539,0.5157 -0.6172,1.4375 l 3.8438,-0.0156 z m 5.8203,0.5781 q -1.2969,0 -1.8047,0.2969 -0.5078,0.2969 -0.5078,1.0156 0,0.5782 0.3828,0.9141 0.3828,0.3359 1.0235,0.3359 0.9062,0 1.4453,-0.6328 0.539,-0.6328 0.539,-1.6953 l 0,-0.2344 -1.0781,0 z m 2.1563,-0.4531 0,3.75 -1.0782,0 0,-1 q -0.375,0.5938 -0.9218,0.8828 -0.5469,0.2891 -1.3438,0.2891 -1.0156,0 -1.6094,-0.5703 -0.5937,-0.5704 -0.5937,-1.5078 0,-1.1094 0.7422,-1.6719 0.7422,-0.5625 2.2109,-0.5625 l 1.5156,0 0,-0.1094 q 0,-0.75 -0.4922,-1.1562 -0.4921,-0.4063 -1.3671,-0.4063 -0.5625,0 -1.1016,0.1406 -0.5391,0.1407 -1.0234,0.4063 l 0,-1 q 0.5937,-0.2344 1.1484,-0.3438 0.5547,-0.1094 1.0859,-0.1094 1.4219,0 2.125,0.7344 0.7032,0.7344 0.7032,2.2344 z m 2.1816,-5.375 1.0781,0 0,5.3906 3.2188,-2.8281 1.375,0 -3.4844,3.0625 3.6406,3.5 -1.4062,0 -3.3438,-3.2031 0,3.2031 -1.0781,0 0,-9.125 z M 54.2305,2 l 0,0.8281 -6.25,0 0,-0.8281 6.25,0 z m 5.7343,-8.3125 0,1.0156 q -0.4687,-0.2656 -0.9218,-0.3906 -0.4532,-0.125 -0.9219,-0.125 -1.0625,0 -1.6406,0.6641 -0.5782,0.664 -0.5782,1.8672 0,1.2031 0.5782,1.8671 0.5781,0.6641 1.6406,0.6641 0.4687,0 0.9219,-0.125 Q 59.4961,-1 59.9648,-1.25 l 0,1 q -0.4531,0.2031 -0.9375,0.3125 -0.4843,0.1094 -1.0312,0.1094 -1.4844,0 -2.3594,-0.9297 -0.875,-0.9297 -0.875,-2.5234 0,-1.5938 0.8828,-2.5157 0.8828,-0.9219 2.4297,-0.9219 0.4844,0 0.961,0.1016 0.4765,0.1016 0.9296,0.3047 z m 4.4102,0.5 q -0.8594,0 -1.3672,0.6797 -0.5078,0.6797 -0.5078,1.8516 0,1.1874 0.5,1.8593 0.5,0.6719 1.375,0.6719 0.8594,0 1.3672,-0.6797 0.5078,-0.6797 0.5078,-1.8515 0,-1.1563 -0.5078,-1.8438 -0.5078,-0.6875 -1.3672,-0.6875 z m 0,-0.9063 q 1.4062,0 2.2109,0.9141 0.8047,0.9141 0.8047,2.5235 0,1.6093 -0.8047,2.5312 -0.8047,0.9219 -2.2109,0.9219 -1.4062,0 -2.2109,-0.9219 -0.8047,-0.9219 -0.8047,-2.5312 0,-1.6094 0.8047,-2.5235 0.8047,-0.9141 2.2109,-0.9141 z m 10.2637,2.75 0,3.9688 -1.0782,0 0,-3.9219 q 0,-0.9375 -0.3671,-1.3984 -0.3672,-0.4609 -1.086,-0.4609 -0.875,0 -1.3828,0.5546 -0.5078,0.5547 -0.5078,1.5235 l 0,3.7031 -1.0781,0 0,-6.5625 1.0781,0 0,1.0156 q 0.3906,-0.5937 0.9141,-0.8828 0.5234,-0.2891 1.2109,-0.2891 1.125,0 1.7109,0.6954 0.586,0.6953 0.586,2.0546 z m 6.4648,-1.5937 0,-3.5625 1.0781,0 0,9.125 -1.0781,0 0,-0.9844 q -0.3437,0.5782 -0.8594,0.8672 -0.5156,0.2891 -1.25,0.2891 -1.1875,0 -1.9375,-0.9531 -0.75,-0.9532 -0.75,-2.5 0,-1.5469 0.75,-2.4922 0.75,-0.9454 1.9375,-0.9454 0.7344,0 1.25,0.2813 0.5157,0.2813 0.8594,0.875 z m -3.6719,2.2813 q 0,1.1874 0.4844,1.8671 0.4844,0.6797 1.3438,0.6797 0.8593,0 1.3515,-0.6797 0.4922,-0.6797 0.4922,-1.8671 0,-1.1876 -0.4922,-1.8594 -0.4922,-0.6719 -1.3515,-0.6719 -0.8594,0 -1.3438,0.6719 -0.4844,0.6718 -0.4844,1.8594 z m 6.961,-3.2813 1.0781,0 0,6.5625 -1.0781,0 0,-6.5625 z m 0,-2.5625 1.0781,0 0,1.375 -1.0781,0 0,-1.375 z m 4.4121,0.7031 0,1.8594 2.2187,0 0,0.8437 -2.2187,0 0,3.5626 q 0,0.7968 0.2187,1.0234 0.2188,0.2266 0.8907,0.2266 l 1.1093,0 0,0.9062 -1.1093,0 q -1.25,0 -1.7266,-0.4688 -0.4766,-0.4687 -0.4766,-1.6874 l 0,-3.5626 -0.7812,0 0,-0.8437 0.7812,0 0,-1.8594 1.0938,0 z m 3.6269,1.8594 1.0782,0 0,6.5625 -1.0782,0 0,-6.5625 z m 0,-2.5625 1.0782,0 0,1.375 -1.0782,0 0,-1.375 z m 5.8809,3.3125 q -0.8594,0 -1.3672,0.6797 -0.5078,0.6797 -0.5078,1.8516 0,1.1874 0.5,1.8593 0.5,0.6719 1.375,0.6719 0.8594,0 1.3672,-0.6797 0.5078,-0.6797 0.5078,-1.8515 0,-1.1563 -0.5078,-1.8438 -0.5078,-0.6875 -1.3672,-0.6875 z m 0,-0.9063 q 1.4063,0 2.2109,0.9141 0.8047,0.9141 0.8047,2.5235 0,1.6093 -0.8047,2.5312 -0.8046,0.9219 -2.2109,0.9219 -1.4063,0 -2.2109,-0.9219 -0.8047,-0.9219 -0.8047,-2.5312 0,-1.6094 0.8047,-2.5235 0.8046,-0.9141 2.2109,-0.9141 z m 10.2637,2.75 0,3.9688 -1.0782,0 0,-3.9219 q 0,-0.9375 -0.3671,-1.3984 -0.3672,-0.4609 -1.086,-0.4609 -0.875,0 -1.3828,0.5546 -0.5078,0.5547 -0.5078,1.5235 l 0,3.7031 -1.0781,0 0,-6.5625 1.0781,0 0,1.0156 q 0.3906,-0.5937 0.9141,-0.8828 0.5234,-0.2891 1.2109,-0.2891 1.125,0 1.7109,0.6954 0.586,0.6953 0.586,2.0546 z m 4.7304,-5.1406 q -0.7812,1.3438 -1.164,2.6641 -0.3828,1.3203 -0.3828,2.6797 0,1.3437 0.3828,2.6718 0.3828,1.3282 1.164,2.6719 l -0.9375,0 q -0.875,-1.375 -1.3125,-2.7031 -0.4375,-1.3281 -0.4375,-2.6406 0,-1.3125 0.4375,-2.6328 0.4375,-1.3204 1.3125,-2.711 l 0.9375,0 z m 1.9317,0 0.9375,0 q 0.875,1.3906 1.3125,2.711 0.4375,1.3203 0.4375,2.6328 0,1.3125 -0.4375,2.6406 -0.4375,1.3281 -1.3125,2.7031 l -0.9375,0 q 0.7656,-1.3437 1.1562,-2.6719 0.3907,-1.3281 0.3907,-2.6718 0,-1.3594 -0.3907,-2.6797 -0.3906,-1.3203 -1.1562,-2.6641 z m 8.9336,7.625 1.2343,0 0,1.4844 -1.2343,0 0,-1.4844 z m 0,-4.7187 1.2343,0 0,1.4843 -1.2343,0 0,-1.4843 z m 6.8105,-0.3594 1.1406,0 2.0469,5.5 2.0625,-5.5 1.1406,0 -2.4687,6.5625 -1.4688,0 -2.4531,-6.5625 z m 10.4141,0.75 q -0.8594,0 -1.3672,0.6797 -0.5078,0.6797 -0.5078,1.8516 0,1.1874 0.5,1.8593 0.5,0.6719 1.375,0.6719 0.8594,0 1.3672,-0.6797 0.5078,-0.6797 0.5078,-1.8515 0,-1.1563 -0.5078,-1.8438 -0.5078,-0.6875 -1.3672,-0.6875 z m 0,-0.9063 q 1.4062,0 2.2109,0.9141 0.8047,0.9141 0.8047,2.5235 0,1.6093 -0.8047,2.5312 -0.8047,0.9219 -2.2109,0.9219 -1.4063,0 -2.211,-0.9219 -0.8046,-0.9219 -0.8046,-2.5312 0,-1.6094 0.8046,-2.5235 0.8047,-0.9141 2.211,-0.9141 z m 4.7949,0.1563 1.0781,0 0,6.5625 -1.0781,0 0,-6.5625 z m 0,-2.5625 1.0781,0 0,1.375 -1.0781,0 0,-1.375 z m 7.6621,3.5625 0,-3.5625 1.0781,0 0,9.125 -1.0781,0 0,-0.9844 q -0.3437,0.5782 -0.8594,0.8672 -0.5156,0.2891 -1.25,0.2891 -1.1875,0 -1.9375,-0.9531 -0.75,-0.9532 -0.75,-2.5 0,-1.5469 0.75,-2.4922 0.75,-0.9454 1.9375,-0.9454 0.7344,0 1.25,0.2813 0.5157,0.2813 0.8594,0.875 z m -3.6719,2.2813 q 0,1.1874 0.4844,1.8671 0.4844,0.6797 1.3438,0.6797 0.8593,0 1.3515,-0.6797 0.4922,-0.6797 0.4922,-1.8671 0,-1.1876 -0.4922,-1.8594 -0.4922,-0.6719 -1.3515,-0.6719 -0.8594,0 -1.3438,0.6719 -0.4844,0.6718 -0.4844,1.8594 z" />
  </g>
  <g
     id="g77"
     transform="matrix(1.3333,0,0,1.3333,177.3289,359.82434)"
     style="font-family:sans-serif;stroke-width:2;text-rendering:optimizeLegibility">
    <path
       inkscape:connector-curvature="0"
       clip-path="url(#clipPath6)"
       id="path79"
       style="stroke:none"
       d="m 5.5156,-7.5312 0,3.2656 3.2656,0 0,1 -3.2656,0 0,3.2656 -0.9844,0 0,-3.2656 -3.2656,0 0,-1 3.2656,0 0,-3.2656 0.9844,0 z m 12.4629,4.2343 q -1.2969,0 -1.8047,0.2969 -0.5078,0.2969 -0.5078,1.0156 0,0.5782 0.3828,0.9141 0.3828,0.3359 1.0235,0.3359 0.9062,0 1.4453,-0.6328 0.539,-0.6328 0.539,-1.6953 l 0,-0.2344 -1.0781,0 z m 2.1563,-0.4531 0,3.75 -1.0782,0 0,-1 q -0.375,0.5938 -0.9218,0.8828 -0.5469,0.2891 -1.3438,0.2891 -1.0156,0 -1.6094,-0.5703 -0.5937,-0.5704 -0.5937,-1.5078 0,-1.1094 0.7422,-1.6719 0.7422,-0.5625 2.2109,-0.5625 l 1.5156,0 0,-0.1094 q 0,-0.75 -0.4921,-1.1562 -0.4922,-0.4063 -1.3672,-0.4063 -0.5625,0 -1.1016,0.1406 -0.5391,0.1407 -1.0234,0.4063 l 0,-1 q 0.5937,-0.2344 1.1484,-0.3438 0.5547,-0.1094 1.0859,-0.1094 1.4219,0 2.125,0.7344 0.7032,0.7344 0.7032,2.2344 z m 6.9472,-2.5625 0,1.0156 q -0.4687,-0.2656 -0.9218,-0.3906 -0.4532,-0.125 -0.9219,-0.125 -1.0625,0 -1.6406,0.6641 -0.5782,0.664 -0.5782,1.8672 0,1.2031 0.5782,1.8671 0.5781,0.6641 1.6406,0.6641 0.4687,0 0.9219,-0.125 Q 26.6133,-1 27.082,-1.25 l 0,1 q -0.4531,0.2031 -0.9375,0.3125 -0.4843,0.1094 -1.0312,0.1094 -1.4844,0 -2.3594,-0.9297 -0.875,-0.9297 -0.875,-2.5234 0,-1.5938 0.8828,-2.5157 0.8828,-0.9219 2.4297,-0.9219 0.4844,0 0.9609,0.1016 0.4766,0.1016 0.9297,0.3047 z m 2.9414,-2.1094 0,1.8594 2.2188,0 0,0.8437 -2.2188,0 0,3.5626 q 0,0.7968 0.2188,1.0234 0.2187,0.2266 0.8906,0.2266 l 1.1094,0 0,0.9062 -1.1094,0 q -1.25,0 -1.7266,-0.4688 -0.4765,-0.4687 -0.4765,-1.6874 l 0,-3.5626 -0.7813,0 0,-0.8437 0.7813,0 0,-1.8594 1.0937,0 z m 3.627,1.8594 1.0781,0 0,6.5625 -1.0781,0 0,-6.5625 z m 0,-2.5625 1.0781,0 0,1.375 -1.0781,0 0,-1.375 z m 5.8808,3.3125 q -0.8593,0 -1.3671,0.6797 -0.5079,0.6797 -0.5079,1.8516 0,1.1874 0.5,1.8593 0.5,0.6719 1.375,0.6719 0.8594,0 1.3672,-0.6797 0.5078,-0.6797 0.5078,-1.8515 0,-1.1563 -0.5078,-1.8438 -0.5078,-0.6875 -1.3672,-0.6875 z m 0,-0.9063 q 1.4063,0 2.211,0.9141 0.8047,0.9141 0.8047,2.5235 0,1.6093 -0.8047,2.5312 -0.8047,0.9219 -2.211,0.9219 -1.4062,0 -2.2109,-0.9219 -0.8047,-0.9219 -0.8047,-2.5312 0,-1.6094 0.8047,-2.5235 0.8047,-0.9141 2.2109,-0.9141 z m 10.2637,2.75 0,3.9688 -1.0781,0 0,-3.9219 q 0,-0.9375 -0.3672,-1.3984 -0.3672,-0.4609 -1.0859,-0.4609 -0.875,0 -1.3828,0.5546 -0.5079,0.5547 -0.5079,1.5235 l 0,3.7031 -1.0781,0 0,-6.5625 1.0781,0 0,1.0156 q 0.3907,-0.5937 0.9141,-0.8828 0.5234,-0.2891 1.2109,-0.2891 1.125,0 1.711,0.6954 0.5859,0.6953 0.5859,2.0546 z m 4.7305,-5.1406 q -0.7813,1.3438 -1.1641,2.6641 -0.3828,1.3203 -0.3828,2.6797 0,1.3437 0.3828,2.6718 0.3828,1.3282 1.1641,2.6719 l -0.9375,0 q -0.875,-1.375 -1.3125,-2.7031 -0.4375,-1.3281 -0.4375,-2.6406 0,-1.3125 0.4375,-2.6328 0.4375,-1.3204 1.3125,-2.711 l 0.9375,0 z m 1.9316,0 0.9375,0 q 0.875,1.3906 1.3125,2.711 0.4375,1.3203 0.4375,2.6328 0,1.3125 -0.4375,2.6406 -0.4375,1.3281 -1.3125,2.7031 l -0.9375,0 q 0.7657,-1.3437 1.1563,-2.6719 0.3906,-1.3281 0.3906,-2.6718 0,-1.3594 -0.3906,-2.6797 -0.3906,-1.3203 -1.1563,-2.6641 z m 8.9336,7.625 1.2344,0 0,1.4844 -1.2344,0 0,-1.4844 z m 0,-4.7187 1.2344,0 0,1.4843 -1.2344,0 0,-1.4843 z m 12.2949,2.9219 q 0,-1.1876 -0.4921,-1.8594 -0.4922,-0.6719 -1.336,-0.6719 -0.8594,0 -1.3515,0.6719 -0.4922,0.6718 -0.4922,1.8594 0,1.1874 0.4922,1.8671 0.4921,0.6797 1.3515,0.6797 0.8438,0 1.336,-0.6797 0.4921,-0.6797 0.4921,-1.8671 z m -3.6718,-2.2813 q 0.3437,-0.5937 0.8593,-0.875 0.5157,-0.2813 1.2344,-0.2813 1.2031,0 1.9531,0.9454 0.75,0.9453 0.75,2.4922 0,1.5468 -0.75,2.5 -0.75,0.9531 -1.9531,0.9531 -0.7187,0 -1.2344,-0.2891 -0.5156,-0.289 -0.8593,-0.8672 l 0,0.9844 -1.0782,0 0,-9.125 1.0782,0 0,3.5625 z m 9.1172,-0.25 q -0.8594,0 -1.3672,0.6797 -0.5078,0.6797 -0.5078,1.8516 0,1.1874 0.5,1.8593 0.5,0.6719 1.375,0.6719 0.8593,0 1.3671,-0.6797 0.5079,-0.6797 0.5079,-1.8515 0,-1.1563 -0.5079,-1.8438 -0.5078,-0.6875 -1.3671,-0.6875 z m 0,-0.9063 q 1.4062,0 2.2109,0.9141 0.8047,0.9141 0.8047,2.5235 0,1.6093 -0.8047,2.5312 -0.8047,0.9219 -2.2109,0.9219 -1.4063,0 -2.211,-0.9219 -0.8047,-0.9219 -0.8047,-2.5312 0,-1.6094 0.8047,-2.5235 0.8047,-0.9141 2.211,-0.9141 z m 7.3418,0.9063 q -0.8594,0 -1.3672,0.6797 -0.5078,0.6797 -0.5078,1.8516 0,1.1874 0.5,1.8593 0.5,0.6719 1.375,0.6719 0.8593,0 1.3671,-0.6797 0.5079,-0.6797 0.5079,-1.8515 0,-1.1563 -0.5079,-1.8438 -0.5078,-0.6875 -1.3671,-0.6875 z m 0,-0.9063 q 1.4062,0 2.2109,0.9141 0.8047,0.9141 0.8047,2.5235 0,1.6093 -0.8047,2.5312 -0.8047,0.9219 -2.2109,0.9219 -1.4063,0 -2.211,-0.9219 -0.8047,-0.9219 -0.8047,-2.5312 0,-1.6094 0.8047,-2.5235 0.8047,-0.9141 2.211,-0.9141 z m 4.7949,-2.4062 1.0781,0 0,9.125 -1.0781,0 0,-9.125 z m 8.959,5.5781 0,0.5157 -4.9688,0 q 0.0781,1.125 0.6797,1.7031 0.6016,0.5781 1.6641,0.5781 0.625,0 1.2109,-0.1484 0.5859,-0.1485 1.1641,-0.461 l 0,1.0313 q -0.5938,0.2343 -1.2032,0.3672 -0.6093,0.1328 -1.2343,0.1328 -1.5625,0 -2.4844,-0.9141 -0.9219,-0.914 -0.9219,-2.4766 0,-1.6093 0.875,-2.5546 0.875,-0.9454 2.3438,-0.9454 1.3281,0 2.1015,0.8516 0.7735,0.8516 0.7735,2.3203 z m -1.0782,-0.3281 q -0.0156,-0.875 -0.5,-1.4062 -0.4843,-0.5313 -1.2812,-0.5313 -0.9063,0 -1.4453,0.5156 -0.5391,0.5157 -0.6172,1.4375 l 3.8437,-0.0156 z m 5.8204,0.5781 q -1.2969,0 -1.8047,0.2969 -0.5079,0.2969 -0.5079,1.0156 0,0.5782 0.3829,0.9141 0.3828,0.3359 1.0234,0.3359 0.9063,0 1.4453,-0.6328 0.5391,-0.6328 0.5391,-1.6953 l 0,-0.2344 -1.0781,0 z m 2.1562,-0.4531 0,3.75 -1.0781,0 0,-1 q -0.375,0.5938 -0.9219,0.8828 -0.5469,0.2891 -1.3438,0.2891 -1.0156,0 -1.6093,-0.5703 -0.5938,-0.5704 -0.5938,-1.5078 0,-1.1094 0.7422,-1.6719 0.7422,-0.5625 2.2109,-0.5625 l 1.5157,0 0,-0.1094 q 0,-0.75 -0.4922,-1.1562 -0.4922,-0.4063 -1.3672,-0.4063 -0.5625,0 -1.1016,0.1406 -0.539,0.1407 -1.0234,0.4063 l 0,-1 q 0.5937,-0.2344 1.1484,-0.3438 0.5547,-0.1094 1.086,-0.1094 1.4219,0 2.125,0.7344 0.7031,0.7344 0.7031,2.2344 z m 7.6816,-0.2188 0,3.9688 -1.0781,0 0,-3.9219 q 0,-0.9375 -0.3672,-1.3984 -0.3672,-0.4609 -1.0859,-0.4609 -0.875,0 -1.3828,0.5546 -0.5078,0.5547 -0.5078,1.5235 l 0,3.7031 -1.0782,0 0,-6.5625 1.0782,0 0,1.0156 q 0.3906,-0.5937 0.914,-0.8828 0.5235,-0.2891 1.211,-0.2891 1.125,0 1.7109,0.6954 0.5859,0.6953 0.5859,2.0546 z" />
  </g>
  <g
     id="g81"
     transform="matrix(1.3333,0,0,1.3333,177.3289,341.19974)"
     style="font-family:sans-serif;stroke-width:2;text-rendering:optimizeLegibility">
    <path
       inkscape:connector-curvature="0"
       clip-path="url(#clipPath7)"
       id="path83"
       style="stroke:none"
       d="m 5.5156,-7.5312 0,3.2656 3.2656,0 0,1 -3.2656,0 0,3.2656 -0.9844,0 0,-3.2656 -3.2656,0 0,-1 3.2656,0 0,-3.2656 0.9844,0 z M 19.9941,2 l 0,0.8281 -6.25,0 0,-0.8281 6.25,0 z m 6,0 0,0.8281 -6.25,0 0,-0.8281 6.25,0 z m 1,-8.5625 1.0782,0 0,6.5625 -1.0782,0 0,-6.5625 z m 0,-2.5625 1.0782,0 0,1.375 -1.0782,0 0,-1.375 z m 8.8028,5.1562 0,3.9688 -1.0781,0 0,-3.9219 q 0,-0.9375 -0.3672,-1.3984 -0.3672,-0.4609 -1.086,-0.4609 -0.875,0 -1.3828,0.5546 -0.5078,0.5547 -0.5078,1.5235 l 0,3.7031 -1.0781,0 0,-6.5625 1.0781,0 0,1.0156 q 0.3906,-0.5937 0.9141,-0.8828 0.5234,-0.2891 1.2109,-0.2891 1.125,0 1.7109,0.6954 0.586,0.6953 0.586,2.0546 z m 2.1367,-2.5937 1.0781,0 0,6.5625 -1.0781,0 0,-6.5625 z m 0,-2.5625 1.0781,0 0,1.375 -1.0781,0 0,-1.375 z m 4.4121,0.7031 0,1.8594 2.2188,0 0,0.8437 -2.2188,0 0,3.5626 q 0,0.7968 0.2188,1.0234 0.2187,0.2266 0.8906,0.2266 l 1.1094,0 0,0.9062 -1.1094,0 q -1.25,0 -1.7266,-0.4688 -0.4765,-0.4687 -0.4765,-1.6874 l 0,-3.5626 -0.7813,0 0,-0.8437 0.7813,0 0,-1.8594 1.0937,0 z M 50.9727,2 l 0,0.8281 -6.25,0 0,-0.8281 6.25,0 z m 6,0 0,0.8281 -6.25,0 0,-0.8281 6.25,0 z m 3.5937,-11.1094 q -0.7812,1.3438 -1.1641,2.6641 -0.3828,1.3203 -0.3828,2.6797 0,1.3437 0.3828,2.6718 0.3829,1.3282 1.1641,2.6719 l -0.9375,0 q -0.875,-1.375 -1.3125,-2.7031 -0.4375,-1.3281 -0.4375,-2.6406 0,-1.3125 0.4375,-2.6328 0.4375,-1.3204 1.3125,-2.711 l 0.9375,0 z m 7.5566,5.1406 0,3.9688 -1.0781,0 0,-3.9219 q 0,-0.9375 -0.3672,-1.3984 -0.3672,-0.4609 -1.0859,-0.4609 -0.875,0 -1.3828,0.5546 -0.5078,0.5547 -0.5078,1.5235 l 0,3.7031 -1.0782,0 0,-6.5625 1.0782,0 0,1.0156 q 0.3906,-0.5937 0.914,-0.8828 0.5235,-0.2891 1.211,-0.2891 1.125,0 1.7109,0.6954 0.5859,0.6953 0.5859,2.0546 z m 4.6836,-1.8437 q -0.8593,0 -1.3671,0.6797 -0.5079,0.6797 -0.5079,1.8516 0,1.1874 0.5,1.8593 0.5,0.6719 1.375,0.6719 0.8594,0 1.3672,-0.6797 0.5078,-0.6797 0.5078,-1.8515 0,-1.1563 -0.5078,-1.8438 -0.5078,-0.6875 -1.3672,-0.6875 z m 0,-0.9063 q 1.4063,0 2.211,0.9141 0.8047,0.9141 0.8047,2.5235 0,1.6093 -0.8047,2.5312 -0.8047,0.9219 -2.211,0.9219 -1.4062,0 -2.2109,-0.9219 -0.8047,-0.9219 -0.8047,-2.5312 0,-1.6094 0.8047,-2.5235 0.8047,-0.9141 2.2109,-0.9141 z m 9.1231,1.1563 0,-3.5625 1.0781,0 0,9.125 -1.0781,0 0,-0.9844 q -0.3438,0.5782 -0.8594,0.8672 -0.5156,0.2891 -1.25,0.2891 -1.1875,0 -1.9375,-0.9531 -0.75,-0.9532 -0.75,-2.5 0,-1.5469 0.75,-2.4922 0.75,-0.9454 1.9375,-0.9454 0.7344,0 1.25,0.2813 0.5156,0.2813 0.8594,0.875 z m -3.6719,2.2813 q 0,1.1874 0.4844,1.8671 0.4844,0.6797 1.3437,0.6797 0.8594,0 1.3516,-0.6797 0.4922,-0.6797 0.4922,-1.8671 0,-1.1876 -0.4922,-1.8594 -0.4922,-0.6719 -1.3516,-0.6719 -0.8593,0 -1.3437,0.6719 -0.4844,0.6718 -0.4844,1.8594 z m 12.586,-0.2657 0,0.5157 -4.9688,0 q 0.0781,1.125 0.6797,1.7031 0.6015,0.5781 1.6641,0.5781 0.625,0 1.2109,-0.1484 0.5859,-0.1485 1.1641,-0.461 l 0,1.0313 Q 90,-0.0938 89.3906,0.0391 q -0.6094,0.1328 -1.2344,0.1328 -1.5624,0 -2.4843,-0.9141 -0.9219,-0.914 -0.9219,-2.4766 0,-1.6093 0.875,-2.5546 0.875,-0.9454 2.3438,-0.9454 1.3281,0 2.1015,0.8516 0.7735,0.8516 0.7735,2.3203 z M 89.7656,-3.875 q -0.0156,-0.875 -0.5,-1.4062 -0.4844,-0.5313 -1.2812,-0.5313 -0.9063,0 -1.4453,0.5156 Q 86,-4.7812 85.9219,-3.8594 l 3.8437,-0.0156 z m 7.836,5.875 0,0.8281 -6.25,0 0,-0.8281 6.25,0 z m 1,-8.5625 1.0781,0 0,6.5625 -1.0781,0 0,-6.5625 z m 0,-2.5625 1.0781,0 0,1.375 -1.0781,0 0,-1.375 z m 7.6621,3.5625 0,-3.5625 1.0781,0 0,9.125 -1.0781,0 0,-0.9844 q -0.3438,0.5782 -0.8594,0.8672 -0.5156,0.2891 -1.25,0.2891 -1.1875,0 -1.9375,-0.9531 -0.75,-0.9532 -0.75,-2.5 0,-1.5469 0.75,-2.4922 0.75,-0.9454 1.9375,-0.9454 0.7344,0 1.25,0.2813 0.5156,0.2813 0.8594,0.875 z m -3.6719,2.2813 q 0,1.1874 0.4844,1.8671 0.4843,0.6797 1.3437,0.6797 0.8594,0 1.3516,-0.6797 0.4922,-0.6797 0.4922,-1.8671 0,-1.1876 -0.4922,-1.8594 -0.4922,-0.6719 -1.3516,-0.6719 -0.8594,0 -1.3437,0.6719 -0.4844,0.6718 -0.4844,1.8594 z M 114.5527,2 l 0,0.8281 -6.25,0 0,-0.8281 6.25,0 z m 5.1875,-8.375 0,1.0312 q -0.4531,-0.2343 -0.9453,-0.3515 -0.4922,-0.1172 -1.0234,-0.1172 -0.7969,0 -1.2031,0.2422 -0.4063,0.2422 -0.4063,0.7422 0,0.375 0.2891,0.5859 0.289,0.211 1.164,0.3984 l 0.3594,0.0938 q 1.1563,0.2344 1.6406,0.6875 0.4844,0.4531 0.4844,1.25 0,0.9219 -0.7266,1.4531 -0.7265,0.5313 -1.9921,0.5313 -0.5313,0 -1.1016,-0.1016 -0.5703,-0.1015 -1.1953,-0.3047 l 0,-1.125 q 0.5937,0.3125 1.1719,0.4688 0.5781,0.1562 1.1562,0.1562 0.75,0 1.1641,-0.2578 0.414,-0.2578 0.414,-0.7422 0,-0.4375 -0.2968,-0.6718 -0.2969,-0.2344 -1.2969,-0.4532 l -0.375,-0.0781 q -1,-0.2187 -1.4453,-0.6563 -0.4453,-0.4374 -0.4453,-1.1874 0,-0.9376 0.6562,-1.4376 0.6563,-0.5 1.8594,-0.5 0.5937,0 1.125,0.086 0.5312,0.0859 0.9687,0.2578 z m 3.1426,-2.0469 0,1.8594 2.2188,0 0,0.8437 -2.2188,0 0,3.5626 q 0,0.7968 0.2188,1.0234 0.2187,0.2266 0.8906,0.2266 l 1.1094,0 0,0.9062 -1.1094,0 q -1.25,0 -1.7266,-0.4688 -0.4765,-0.4687 -0.4765,-1.6874 l 0,-3.5626 -0.7813,0 0,-0.8437 0.7813,0 0,-1.8594 1.0937,0 z m 7.4395,2.8594 q -0.1875,-0.0937 -0.3985,-0.1484 -0.2109,-0.0547 -0.4765,-0.0547 -0.9063,0 -1.3985,0.5937 -0.4922,0.5938 -0.4922,1.7188 l 0,3.4531 -1.0781,0 0,-6.5625 1.0781,0 0,1.0156 q 0.3438,-0.5937 0.8907,-0.8828 0.5468,-0.2891 1.3281,-0.2891 0.1094,0 0.2422,0.0157 0.1328,0.0156 0.289,0.0469 l 0.0157,1.0937 z m 5.2168,4.0781 1.2343,0 0,1.4844 -1.2343,0 0,-1.4844 z m 0,-4.7187 1.2343,0 0,1.4843 -1.2343,0 0,-1.4843 z m 7.5761,-0.3594 1.0782,0 0,6.5625 -1.0782,0 0,-6.5625 z m 0,-2.5625 1.0782,0 0,1.375 -1.0782,0 0,-1.375 z m 8.8028,5.1562 0,3.9688 -1.0782,0 0,-3.9219 q 0,-0.9375 -0.3671,-1.3984 -0.3672,-0.4609 -1.086,-0.4609 -0.875,0 -1.3828,0.5546 -0.5078,0.5547 -0.5078,1.5235 l 0,3.7031 -1.0781,0 0,-6.5625 1.0781,0 0,1.0156 q 0.3906,-0.5937 0.9141,-0.8828 0.5234,-0.2891 1.2109,-0.2891 1.125,0 1.7109,0.6954 0.586,0.6953 0.586,2.0546 z m 3.2148,-4.4531 0,1.8594 2.2188,0 0,0.8437 -2.2188,0 0,3.5626 q 0,0.7968 0.2188,1.0234 0.2187,0.2266 0.8906,0.2266 l 1.1094,0 0,0.9062 -1.1094,0 q -1.25,0 -1.7266,-0.4688 -0.4765,-0.4687 -0.4765,-1.6874 l 0,-3.5626 -0.7813,0 0,-0.8437 0.7813,0 0,-1.8594 1.0937,0 z m 3.9082,6.9375 1.2344,0 0,1 -0.9531,1.875 -0.7657,0 0.4844,-1.875 0,-1 z m 12.457,-3.8125 q 0.4063,-0.7343 0.9688,-1.0781 0.5625,-0.3438 1.3281,-0.3438 1.0313,0 1.586,0.7188 0.5546,0.7188 0.5546,2.0312 l 0,3.9688 -1.0781,0 0,-3.9219 q 0,-0.9531 -0.3359,-1.4062 -0.336,-0.4531 -1.0235,-0.4531 -0.8437,0 -1.3281,0.5546 -0.4844,0.5547 -0.4844,1.5235 l 0,3.7031 -1.0781,0 0,-3.9219 q 0,-0.9531 -0.3359,-1.4062 -0.336,-0.4531 -1.0391,-0.4531 -0.8281,0 -1.3125,0.5546 -0.4844,0.5547 -0.4844,1.5235 l 0,3.7031 -1.0781,0 0,-6.5625 1.0781,0 0,1.0156 q 0.375,-0.5937 0.8907,-0.8828 0.5156,-0.2891 1.2187,-0.2891 0.7188,0 1.2188,0.3594 0.5,0.3594 0.7343,1.0625 z m 12.2051,1.75 0,0.5157 -4.9687,0 q 0.0781,1.125 0.6797,1.7031 0.6015,0.5781 1.664,0.5781 0.625,0 1.211,-0.1484 0.5859,-0.1485 1.164,-0.461 l 0,1.0313 q -0.5937,0.2343 -1.2031,0.3672 -0.6094,0.1328 -1.2344,0.1328 -1.5625,0 -2.4844,-0.9141 -0.9218,-0.914 -0.9218,-2.4766 0,-1.6093 0.875,-2.5546 0.875,-0.9454 2.3437,-0.9454 1.3281,0 2.1016,0.8516 0.7734,0.8516 0.7734,2.3203 z M 182.625,-3.875 q -0.0156,-0.875 -0.5,-1.4062 -0.4844,-0.5313 -1.2812,-0.5313 -0.9063,0 -1.4454,0.5156 -0.539,0.5157 -0.6172,1.4375 l 3.8438,-0.0156 z m 3.9141,-4.5469 0,1.8594 2.2187,0 0,0.8437 -2.2187,0 0,3.5626 q 0,0.7968 0.2187,1.0234 0.2188,0.2266 0.8906,0.2266 l 1.1094,0 0,0.9062 -1.1094,0 q -1.25,0 -1.7265,-0.4688 -0.4766,-0.4687 -0.4766,-1.6874 l 0,-3.5626 -0.7812,0 0,-0.8437 0.7812,0 0,-1.8594 1.0938,0 z m 7.4394,2.8594 q -0.1875,-0.0937 -0.3984,-0.1484 -0.211,-0.0547 -0.4766,-0.0547 -0.9062,0 -1.3984,0.5937 -0.4922,0.5938 -0.4922,1.7188 l 0,3.4531 -1.0781,0 0,-6.5625 1.0781,0 0,1.0156 q 0.3437,-0.5937 0.8906,-0.8828 0.5469,-0.2891 1.3281,-0.2891 0.1094,0 0.2422,0.0157 0.1328,0.0156 0.2891,0.0469 l 0.0156,1.0937 z m 1.1211,-1 1.0781,0 0,6.5625 -1.0781,0 0,-6.5625 z m 0,-2.5625 1.0781,0 0,1.375 -1.0781,0 0,-1.375 z m 8.0684,2.8125 0,1.0156 q -0.4688,-0.2656 -0.9219,-0.3906 -0.4531,-0.125 -0.9219,-0.125 -1.0625,0 -1.6406,0.6641 -0.5781,0.664 -0.5781,1.8672 0,1.2031 0.5781,1.8671 0.5781,0.6641 1.6406,0.6641 0.4688,0 0.9219,-0.125 0.4531,-0.125 0.9219,-0.375 l 0,1 q -0.4532,0.2031 -0.9375,0.3125 -0.4844,0.1094 -1.0313,0.1094 -1.4844,0 -2.3594,-0.9297 -0.875,-0.9297 -0.875,-2.5234 0,-1.5938 0.8829,-2.5157 0.8828,-0.9219 2.4296,-0.9219 0.4844,0 0.961,0.1016 0.4765,0.1016 0.9297,0.3047 z M 210.0312,2 l 0,0.8281 -6.25,0 0,-0.8281 6.25,0 z m 6.4688,-5.9688 0,3.9688 -1.0781,0 0,-3.9219 q 0,-0.9375 -0.3672,-1.3984 -0.3672,-0.4609 -1.0859,-0.4609 -0.875,0 -1.3829,0.5546 -0.5078,0.5547 -0.5078,1.5235 l 0,3.7031 -1.0781,0 0,-6.5625 1.0781,0 0,1.0156 q 0.3907,-0.5937 0.9141,-0.8828 0.5234,-0.2891 1.2109,-0.2891 1.125,0 1.711,0.6954 0.5859,0.6953 0.5859,2.0546 z m 5.1211,0.6719 q -1.2969,0 -1.8047,0.2969 -0.5078,0.2969 -0.5078,1.0156 0,0.5782 0.3828,0.9141 0.3828,0.3359 1.0234,0.3359 0.9063,0 1.4454,-0.6328 0.539,-0.6328 0.539,-1.6953 l 0,-0.2344 -1.0781,0 z m 2.1562,-0.4531 0,3.75 -1.0781,0 0,-1 q -0.375,0.5938 -0.9219,0.8828 -0.5468,0.2891 -1.3437,0.2891 -1.0156,0 -1.6094,-0.5703 -0.5937,-0.5704 -0.5937,-1.5078 0,-1.1094 0.7422,-1.6719 0.7421,-0.5625 2.2109,-0.5625 l 1.5156,0 0,-0.1094 q 0,-0.75 -0.4922,-1.1562 -0.4922,-0.4063 -1.3672,-0.4063 -0.5625,0 -1.1015,0.1406 -0.5391,0.1407 -1.0235,0.4063 l 0,-1 q 0.5938,-0.2344 1.1485,-0.3438 0.5547,-0.1094 1.0859,-0.1094 1.4219,0 2.125,0.7344 0.7031,0.7344 0.7031,2.2344 z m 7.3223,-1.5469 q 0.4063,-0.7343 0.9688,-1.0781 0.5625,-0.3438 1.3281,-0.3438 1.0312,0 1.5859,0.7188 0.5547,0.7188 0.5547,2.0312 l 0,3.9688 -1.0781,0 0,-3.9219 q 0,-0.9531 -0.336,-1.4062 -0.3359,-0.4531 -1.0234,-0.4531 -0.8437,0 -1.3281,0.5546 -0.4844,0.5547 -0.4844,1.5235 l 0,3.7031 -1.0781,0 0,-3.9219 q 0,-0.9531 -0.336,-1.4062 -0.3359,-0.4531 -1.039,-0.4531 -0.8281,0 -1.3125,0.5546 -0.4844,0.5547 -0.4844,1.5235 l 0,3.7031 -1.0781,0 0,-6.5625 1.0781,0 0,1.0156 q 0.375,-0.5937 0.8906,-0.8828 0.5157,-0.2891 1.2188,-0.2891 0.7187,0 1.2187,0.3594 0.5,0.3594 0.7344,1.0625 z m 12.2051,1.75 0,0.5157 -4.9688,0 q 0.0782,1.125 0.6797,1.7031 0.6016,0.5781 1.6641,0.5781 0.625,0 1.2109,-0.1484 0.586,-0.1485 1.1641,-0.461 l 0,1.0313 q -0.5938,0.2343 -1.2031,0.3672 -0.6094,0.1328 -1.2344,0.1328 -1.5625,0 -2.4844,-0.9141 -0.9219,-0.914 -0.9219,-2.4766 0,-1.6093 0.875,-2.5546 0.875,-0.9454 2.3438,-0.9454 1.3281,0 2.1015,0.8516 0.7735,0.8516 0.7735,2.3203 z m -1.0781,-0.3281 q -0.0157,-0.875 -0.5,-1.4062 -0.4844,-0.5313 -1.2813,-0.5313 -0.9062,0 -1.4453,0.5156 -0.5391,0.5157 -0.6172,1.4375 l 3.8438,-0.0156 z m 7.8359,5.875 0,0.8281 -6.25,0 0,-0.8281 6.25,0 z m 5.1875,-8.375 0,1.0312 q -0.4531,-0.2343 -0.9453,-0.3515 -0.4922,-0.1172 -1.0235,-0.1172 -0.7968,0 -1.2031,0.2422 -0.4062,0.2422 -0.4062,0.7422 0,0.375 0.289,0.5859 0.2891,0.211 1.1641,0.3984 l 0.3594,0.0938 q 1.1562,0.2344 1.6406,0.6875 0.4844,0.4531 0.4844,1.25 0,0.9219 -0.7266,1.4531 -0.7266,0.5313 -1.9922,0.5313 -0.5312,0 -1.1015,-0.1016 -0.5703,-0.1015 -1.1953,-0.3047 l 0,-1.125 q 0.5937,0.3125 1.1718,0.4688 0.5782,0.1562 1.1563,0.1562 0.75,0 1.164,-0.2578 0.4141,-0.2578 0.4141,-0.7422 0,-0.4375 -0.2969,-0.6718 -0.2969,-0.2344 -1.2969,-0.4532 l -0.375,-0.0781 q -1,-0.2187 -1.4453,-0.6563 -0.4453,-0.4374 -0.4453,-1.1874 0,-0.9376 0.6563,-1.4376 0.6562,-0.5 1.8593,-0.5 0.5938,0 1.125,0.086 0.5313,0.0859 0.9688,0.2578 z m 3.1426,-2.0469 0,1.8594 2.2187,0 0,0.8437 -2.2187,0 0,3.5626 q 0,0.7968 0.2187,1.0234 0.2188,0.2266 0.8907,0.2266 l 1.1093,0 0,0.9062 -1.1093,0 q -1.25,0 -1.7266,-0.4688 -0.4766,-0.4687 -0.4766,-1.6874 l 0,-3.5626 -0.7812,0 0,-0.8437 0.7812,0 0,-1.8594 1.0938,0 z m 7.4394,2.8594 q -0.1875,-0.0937 -0.3984,-0.1484 -0.2109,-0.0547 -0.4766,-0.0547 -0.9062,0 -1.3984,0.5937 -0.4922,0.5938 -0.4922,1.7188 l 0,3.4531 -1.0781,0 0,-6.5625 1.0781,0 0,1.0156 q 0.3438,-0.5937 0.8906,-0.8828 0.5469,-0.2891 1.3282,-0.2891 0.1093,0 0.2421,0.0157 0.1329,0.0156 0.2891,0.0469 l 0.0156,1.0937 z m 5.2168,4.0781 1.2344,0 0,1.4844 -1.2344,0 0,-1.4844 z m 0,-4.7187 1.2344,0 0,1.4843 -1.2344,0 0,-1.4843 z m 12.8731,-2.2657 0,1.1563 q -0.6719,-0.3125 -1.2735,-0.4766 -0.6015,-0.164 -1.1484,-0.164 -0.9688,0 -1.4922,0.375 -0.5234,0.375 -0.5234,1.0781 0,0.5781 0.3437,0.875 0.3438,0.2969 1.3281,0.4688 L 281.8594,-5 q 1.3281,0.25 1.9609,0.8828 0.6328,0.6328 0.6328,1.6953 0,1.2813 -0.8515,1.9375 -0.8516,0.6563 -2.5078,0.6563 -0.6094,0 -1.3126,-0.1407 -0.7031,-0.1406 -1.4531,-0.4218 l 0,-1.2188 q 0.7188,0.4063 1.4141,0.6094 0.6953,0.2031 1.3516,0.2031 1.0156,0 1.5703,-0.3984 0.5547,-0.3985 0.5547,-1.1328 0,-0.6407 -0.3985,-1.0078 -0.3984,-0.3672 -1.3047,-0.5391 l -0.7187,-0.1406 q -1.3281,-0.2656 -1.9141,-0.8282 -0.5859,-0.5624 -0.5859,-1.5624 0,-1.1719 0.8125,-1.836 0.8125,-0.664 2.25,-0.664 0.625,0 1.2578,0.1093 0.6328,0.1094 1.3047,0.3281 z m 3.3984,0.0469 0,1.8594 2.2188,0 0,0.8437 -2.2188,0 0,3.5626 q 0,0.7968 0.2188,1.0234 0.2187,0.2266 0.8906,0.2266 l 1.1094,0 0,0.9062 -1.1094,0 q -1.25,0 -1.7266,-0.4688 -0.4765,-0.4687 -0.4765,-1.6874 l 0,-3.5626 -0.7813,0 0,-0.8437 0.7813,0 0,-1.8594 1.0937,0 z m 7.4395,2.8594 q -0.1875,-0.0937 -0.3985,-0.1484 -0.2109,-0.0547 -0.4765,-0.0547 -0.9063,0 -1.3985,0.5937 -0.4922,0.5938 -0.4922,1.7188 l 0,3.4531 -1.0781,0 0,-6.5625 1.0781,0 0,1.0156 q 0.3438,-0.5937 0.8907,-0.8828 0.5468,-0.2891 1.3281,-0.2891 0.1094,0 0.2422,0.0157 0.1328,0.0156 0.289,0.0469 l 0.0157,1.0937 z m 1.1211,-1 1.0781,0 0,6.5625 -1.0781,0 0,-6.5625 z m 0,-2.5625 1.0781,0 0,1.375 -1.0781,0 0,-1.375 z m 8.8027,5.1562 0,3.9688 -1.0781,0 0,-3.9219 q 0,-0.9375 -0.3672,-1.3984 -0.3672,-0.4609 -1.086,-0.4609 -0.875,0 -1.3828,0.5546 -0.5078,0.5547 -0.5078,1.5235 l 0,3.7031 -1.0781,0 0,-6.5625 1.0781,0 0,1.0156 q 0.3906,-0.5937 0.9141,-0.8828 0.5234,-0.2891 1.2109,-0.2891 1.125,0 1.711,0.6954 0.5859,0.6953 0.5859,2.0546 z m 6.4648,0.6094 q 0,-1.1718 -0.4843,-1.8125 -0.4844,-0.6406 -1.3594,-0.6406 -0.8594,0 -1.3438,0.6406 -0.4843,0.6407 -0.4843,1.8125 0,1.1719 0.4843,1.8125 0.4844,0.6407 1.3438,0.6407 0.875,0 1.3594,-0.6407 0.4843,-0.6406 0.4843,-1.8125 z m 1.0782,2.5469 q 0,1.6719 -0.7422,2.4922 -0.7422,0.8203 -2.2891,0.8203 -0.5625,0 -1.0703,-0.0859 -0.5078,-0.086 -0.9766,-0.2579 l 0,-1.0468 q 0.4688,0.25 0.9375,0.375 0.4688,0.125 0.9375,0.125 1.0625,0 1.5938,-0.5547 0.5312,-0.5547 0.5312,-1.6797 l 0,-0.5312 q -0.3437,0.5781 -0.8593,0.8671 Q 309.7734,0 309.0391,0 q -1.2032,0 -1.9453,-0.9219 -0.7422,-0.9219 -0.7422,-2.4375 0,-1.5156 0.7422,-2.4375 0.7421,-0.9219 1.9453,-0.9219 0.7343,0 1.25,0.2891 0.5156,0.2891 0.8593,0.8672 l 0,-1 1.0782,0 0,5.75 z m 2.4922,-0.6719 1.2343,0 0,1 -0.9531,1.875 -0.7656,0 0.4844,-1.875 0,-1 z m 10.6757,-7.6406 0,0.9062 -1.0312,0 q -0.5781,0 -0.8047,0.2344 -0.2266,0.2344 -0.2266,0.8438 l 0,0.5781 1.7813,0 0,0.8437 -1.7813,0 0,5.7188 -1.0781,0 0,-5.7188 -1.0312,0 0,-0.8437 1.0312,0 0,-0.4531 q 0,-1.0938 0.5078,-1.6016 0.5078,-0.5078 1.6172,-0.5078 l 1.0156,0 z m 5.6153,5.8438 q 0,-1.1876 -0.4922,-1.8594 -0.4922,-0.6719 -1.336,-0.6719 -0.8593,0 -1.3515,0.6719 -0.4922,0.6718 -0.4922,1.8594 0,1.1874 0.4922,1.8671 0.4922,0.6797 1.3515,0.6797 0.8438,0 1.336,-0.6797 0.4922,-0.6797 0.4922,-1.8671 z m -3.6719,-2.2813 q 0.3437,-0.5937 0.8594,-0.875 0.5156,-0.2813 1.2343,-0.2813 1.2032,0 1.9532,0.9454 0.75,0.9453 0.75,2.4922 0,1.5468 -0.75,2.5 -0.75,0.9531 -1.9532,0.9531 -0.7187,0 -1.2343,-0.2891 -0.5157,-0.289 -0.8594,-0.8672 l 0,0.9844 -1.0781,0 0,-9.125 1.0781,0 0,3.5625 z M 338.9082,2 l 0,0.8281 -6.25,0 0,-0.8281 6.25,0 z m 6.625,-5.5469 0,0.5157 -4.9687,0 q 0.0781,1.125 0.6796,1.7031 0.6016,0.5781 1.6641,0.5781 0.625,0 1.2109,-0.1484 0.586,-0.1485 1.1641,-0.461 l 0,1.0313 q -0.5937,0.2343 -1.2031,0.3672 -0.6094,0.1328 -1.2344,0.1328 -1.5625,0 -2.4844,-0.9141 -0.9218,-0.914 -0.9218,-2.4766 0,-1.6093 0.875,-2.5546 0.875,-0.9454 2.3437,-0.9454 1.3281,0 2.1016,0.8516 0.7734,0.8516 0.7734,2.3203 z m -1.0781,-0.3281 q -0.0156,-0.875 -0.5,-1.4062 -0.4844,-0.5313 -1.2813,-0.5313 -0.9062,0 -1.4453,0.5156 -0.539,0.5157 -0.6172,1.4375 l 3.8438,-0.0156 z m 7.164,-1.6875 0,-3.5625 1.0782,0 0,9.125 -1.0782,0 0,-0.9844 q -0.3437,0.5782 -0.8593,0.8672 -0.5157,0.2891 -1.25,0.2891 -1.1875,0 -1.9375,-0.9531 -0.75,-0.9532 -0.75,-2.5 0,-1.5469 0.75,-2.4922 0.75,-0.9454 1.9375,-0.9454 0.7343,0 1.25,0.2813 0.5156,0.2813 0.8593,0.875 z m -3.6718,2.2813 q 0,1.1874 0.4843,1.8671 0.4844,0.6797 1.3438,0.6797 0.8594,0 1.3516,-0.6797 0.4921,-0.6797 0.4921,-1.8671 0,-1.1876 -0.4921,-1.8594 -0.4922,-0.6719 -1.3516,-0.6719 -0.8594,0 -1.3438,0.6719 -0.4843,0.6718 -0.4843,1.8594 z m 11.289,-0.0782 q 0,-1.1718 -0.4843,-1.8125 -0.4844,-0.6406 -1.3594,-0.6406 -0.8594,0 -1.3438,0.6406 -0.4843,0.6407 -0.4843,1.8125 0,1.1719 0.4843,1.8125 0.4844,0.6407 1.3438,0.6407 0.875,0 1.3594,-0.6407 0.4843,-0.6406 0.4843,-1.8125 z m 1.0782,2.5469 q 0,1.6719 -0.7422,2.4922 -0.7422,0.8203 -2.2891,0.8203 -0.5625,0 -1.0703,-0.0859 -0.5078,-0.086 -0.9766,-0.2579 l 0,-1.0468 q 0.4688,0.25 0.9375,0.375 0.4688,0.125 0.9375,0.125 1.0625,0 1.5938,-0.5547 0.5312,-0.5547 0.5312,-1.6797 l 0,-0.5312 q -0.3437,0.5781 -0.8593,0.8671 Q 357.8613,0 357.127,0 q -1.2032,0 -1.9454,-0.9219 -0.7421,-0.9219 -0.7421,-2.4375 0,-1.5156 0.7421,-2.4375 0.7422,-0.9219 1.9454,-0.9219 0.7343,0 1.25,0.2891 0.5156,0.2891 0.8593,0.8672 l 0,-1 1.0782,0 0,5.75 z m 7.8359,-2.7344 0,0.5157 -4.9688,0 q 0.0782,1.125 0.6797,1.7031 0.6016,0.5781 1.6641,0.5781 0.625,0 1.2109,-0.1484 0.586,-0.1485 1.1641,-0.461 l 0,1.0313 q -0.5938,0.2343 -1.2031,0.3672 -0.6094,0.1328 -1.2344,0.1328 -1.5625,0 -2.4844,-0.9141 -0.9219,-0.914 -0.9219,-2.4766 0,-1.6093 0.875,-2.5546 0.875,-0.9454 2.3438,-0.9454 1.3281,0 2.1016,0.8516 0.7734,0.8516 0.7734,2.3203 z m -1.0781,-0.3281 q -0.0157,-0.875 -0.5,-1.4062 -0.4844,-0.5313 -1.2813,-0.5313 -0.9062,0 -1.4453,0.5156 -0.5391,0.5157 -0.6172,1.4375 l 3.8438,-0.0156 z m 7.8359,5.875 0,0.8281 -6.25,0 0,-0.8281 6.25,0 z m 5.1875,-8.375 0,1.0312 q -0.4531,-0.2343 -0.9453,-0.3515 -0.4922,-0.1172 -1.0234,-0.1172 -0.7969,0 -1.2032,0.2422 -0.4062,0.2422 -0.4062,0.7422 0,0.375 0.289,0.5859 0.2891,0.211 1.1641,0.3984 l 0.3594,0.0938 q 1.1562,0.2344 1.6406,0.6875 0.4844,0.4531 0.4844,1.25 0,0.9219 -0.7266,1.4531 -0.7265,0.5313 -1.9922,0.5313 -0.5312,0 -1.1015,-0.1016 -0.5703,-0.1015 -1.1953,-0.3047 l 0,-1.125 q 0.5937,0.3125 1.1718,0.4688 0.5782,0.1562 1.1563,0.1562 0.75,0 1.164,-0.2578 0.4141,-0.2578 0.4141,-0.7422 0,-0.4375 -0.2969,-0.6718 -0.2968,-0.2344 -1.2968,-0.4532 l -0.375,-0.0781 q -1,-0.2187 -1.4454,-0.6563 -0.4453,-0.4374 -0.4453,-1.1874 0,-0.9376 0.6563,-1.4376 0.6562,-0.5 1.8594,-0.5 0.5937,0 1.125,0.086 0.5312,0.0859 0.9687,0.2578 z m 3.1426,-2.0469 0,1.8594 2.2187,0 0,0.8437 -2.2187,0 0,3.5626 q 0,0.7968 0.2187,1.0234 0.2188,0.2266 0.8907,0.2266 l 1.1093,0 0,0.9062 -1.1093,0 q -1.25,0 -1.7266,-0.4688 -0.4766,-0.4687 -0.4766,-1.6874 l 0,-3.5626 -0.7812,0 0,-0.8437 0.7812,0 0,-1.8594 1.0938,0 z m 7.4394,2.8594 q -0.1875,-0.0937 -0.3984,-0.1484 -0.2109,-0.0547 -0.4766,-0.0547 -0.9062,0 -1.3984,0.5937 -0.4922,0.5938 -0.4922,1.7188 l 0,3.4531 -1.0781,0 0,-6.5625 1.0781,0 0,1.0156 q 0.3438,-0.5937 0.8906,-0.8828 0.5469,-0.2891 1.3282,-0.2891 0.1093,0 0.2421,0.0157 0.1329,0.0156 0.2891,0.0469 l 0.0156,1.0937 z m 5.2168,4.0781 1.2344,0 0,1.4844 -1.2344,0 0,-1.4844 z m 0,-4.7187 1.2344,0 0,1.4843 -1.2344,0 0,-1.4843 z m 12.8731,-2.2657 0,1.1563 q -0.6719,-0.3125 -1.2735,-0.4766 -0.6015,-0.164 -1.1484,-0.164 -0.9687,0 -1.4922,0.375 -0.5234,0.375 -0.5234,1.0781 0,0.5781 0.3437,0.875 0.3438,0.2969 1.3282,0.4688 L 406.7051,-5 q 1.3281,0.25 1.9609,0.8828 0.6328,0.6328 0.6328,1.6953 0,1.2813 -0.8515,1.9375 -0.8516,0.6563 -2.5078,0.6563 -0.6094,0 -1.3125,-0.1407 -0.7032,-0.1406 -1.4532,-0.4218 l 0,-1.2188 q 0.7188,0.4063 1.4141,0.6094 0.6953,0.2031 1.3516,0.2031 1.0156,0 1.5703,-0.3984 0.5547,-0.3985 0.5547,-1.1328 0,-0.6407 -0.3985,-1.0078 -0.3984,-0.3672 -1.3047,-0.5391 l -0.7187,-0.1406 q -1.3281,-0.2656 -1.9141,-0.8282 -0.5859,-0.5624 -0.5859,-1.5624 0,-1.1719 0.8125,-1.836 0.8125,-0.664 2.25,-0.664 0.625,0 1.2578,0.1093 0.6328,0.1094 1.3047,0.3281 z m 3.3984,0.0469 0,1.8594 2.2188,0 0,0.8437 -2.2188,0 0,3.5626 q 0,0.7968 0.2188,1.0234 0.2187,0.2266 0.8906,0.2266 l 1.1094,0 0,0.9062 -1.1094,0 q -1.25,0 -1.7266,-0.4688 -0.4765,-0.4687 -0.4765,-1.6874 l 0,-3.5626 -0.7813,0 0,-0.8437 0.7813,0 0,-1.8594 1.0937,0 z m 7.4395,2.8594 q -0.1875,-0.0937 -0.3985,-0.1484 -0.2109,-0.0547 -0.4765,-0.0547 -0.9063,0 -1.3985,0.5937 -0.4922,0.5938 -0.4922,1.7188 l 0,3.4531 -1.0781,0 0,-6.5625 1.0781,0 0,1.0156 q 0.3438,-0.5937 0.8907,-0.8828 0.5468,-0.2891 1.3281,-0.2891 0.1094,0 0.2422,0.0157 0.1328,0.0156 0.289,0.0469 l 0.0157,1.0937 z m 1.1211,-1 1.0781,0 0,6.5625 -1.0781,0 0,-6.5625 z m 0,-2.5625 1.0781,0 0,1.375 -1.0781,0 0,-1.375 z m 8.8027,5.1562 0,3.9688 -1.0781,0 0,-3.9219 q 0,-0.9375 -0.3672,-1.3984 -0.3672,-0.4609 -1.086,-0.4609 -0.875,0 -1.3828,0.5546 -0.5078,0.5547 -0.5078,1.5235 l 0,3.7031 -1.0781,0 0,-6.5625 1.0781,0 0,1.0156 q 0.3906,-0.5937 0.9141,-0.8828 0.5234,-0.2891 1.2109,-0.2891 1.125,0 1.711,0.6954 0.5859,0.6953 0.5859,2.0546 z m 6.4648,0.6094 q 0,-1.1718 -0.4843,-1.8125 -0.4844,-0.6406 -1.3594,-0.6406 -0.8594,0 -1.3438,0.6406 -0.4843,0.6407 -0.4843,1.8125 0,1.1719 0.4843,1.8125 0.4844,0.6407 1.3438,0.6407 0.875,0 1.3594,-0.6407 0.4843,-0.6406 0.4843,-1.8125 z m 1.0782,2.5469 q 0,1.6719 -0.7422,2.4922 Q 435.5879,2.5 434.041,2.5 q -0.5625,0 -1.0703,-0.0859 -0.5078,-0.086 -0.9766,-0.2579 l 0,-1.0468 q 0.4688,0.25 0.9375,0.375 0.4688,0.125 0.9375,0.125 1.0625,0 1.5938,-0.5547 0.5312,-0.5547 0.5312,-1.6797 l 0,-0.5312 q -0.3437,0.5781 -0.8593,0.8671 Q 434.6191,0 433.8848,0 q -1.2032,0 -1.9453,-0.9219 -0.7422,-0.9219 -0.7422,-2.4375 0,-1.5156 0.7422,-2.4375 0.7421,-0.9219 1.9453,-0.9219 0.7343,0 1.25,0.2891 0.5156,0.2891 0.8593,0.8672 l 0,-1 1.0782,0 0,5.75 z m 2.0547,-8.2969 0.9375,0 q 0.875,1.3906 1.3125,2.711 0.4375,1.3203 0.4375,2.6328 0,1.3125 -0.4375,2.6406 -0.4375,1.3281 -1.3125,2.7031 l -0.9375,0 q 0.7656,-1.3437 1.1562,-2.6719 0.3906,-1.3281 0.3906,-2.6718 0,-1.3594 -0.3906,-2.6797 -0.3906,-1.3203 -1.1562,-2.6641 z m 8.9335,7.625 1.2344,0 0,1.4844 -1.2344,0 0,-1.4844 z m 0,-4.7187 1.2344,0 0,1.4843 -1.2344,0 0,-1.4843 z m 6.8106,-0.3594 1.1406,0 2.0469,5.5 2.0625,-5.5 1.1406,0 L 458.793,0 l -1.4688,0 -2.4531,-6.5625 z m 10.4141,0.75 q -0.8594,0 -1.3672,0.6797 -0.5078,0.6797 -0.5078,1.8516 0,1.1874 0.5,1.8593 0.5,0.6719 1.375,0.6719 0.8593,0 1.3671,-0.6797 0.5079,-0.6797 0.5079,-1.8515 0,-1.1563 -0.5079,-1.8438 -0.5078,-0.6875 -1.3671,-0.6875 z m 0,-0.9063 q 1.4062,0 2.2109,0.9141 0.8047,0.9141 0.8047,2.5235 0,1.6093 -0.8047,2.5312 -0.8047,0.9219 -2.2109,0.9219 -1.4063,0 -2.211,-0.9219 -0.8047,-0.9219 -0.8047,-2.5312 0,-1.6094 0.8047,-2.5235 0.8047,-0.9141 2.211,-0.9141 z m 4.7949,0.1563 1.0781,0 0,6.5625 -1.0781,0 0,-6.5625 z m 0,-2.5625 1.0781,0 0,1.375 -1.0781,0 0,-1.375 z m 7.6621,3.5625 0,-3.5625 1.0781,0 0,9.125 -1.0781,0 0,-0.9844 q -0.3438,0.5782 -0.8594,0.8672 -0.5156,0.2891 -1.25,0.2891 -1.1875,0 -1.9375,-0.9531 -0.75,-0.9532 -0.75,-2.5 0,-1.5469 0.75,-2.4922 0.75,-0.9454 1.9375,-0.9454 0.7344,0 1.25,0.2813 0.5156,0.2813 0.8594,0.875 z m -3.6719,2.2813 q 0,1.1874 0.4844,1.8671 0.4844,0.6797 1.3437,0.6797 0.8594,0 1.3516,-0.6797 0.4922,-0.6797 0.4922,-1.8671 0,-1.1876 -0.4922,-1.8594 -0.4922,-0.6719 -1.3516,-0.6719 -0.8593,0 -1.3437,0.6719 -0.4844,0.6718 -0.4844,1.8594 z" />
  </g>
  <g
     id="g85"
     transform="matrix(1.3333,0,0,1.3333,177.3289,311.90887)"
     style="font-family:sans-serif;stroke-width:2;text-rendering:optimizeLegibility">
    <path
       inkscape:connector-curvature="0"
       clip-path="url(#clipPath8)"
       id="path87"
       style="stroke:none"
       d="m 5.5156,-7.5312 0,3.2656 3.2656,0 0,1 -3.2656,0 0,3.2656 -0.9844,0 0,-3.2656 -3.2656,0 0,-1 3.2656,0 0,-3.2656 0.9844,0 z m 14.5879,2.2343 q 0.4063,-0.7343 0.9688,-1.0781 0.5625,-0.3438 1.3281,-0.3438 1.0312,0 1.5859,0.7188 0.5547,0.7188 0.5547,2.0312 l 0,3.9688 -1.0781,0 0,-3.9219 q 0,-0.9531 -0.3359,-1.4062 -0.336,-0.4531 -1.0235,-0.4531 -0.8437,0 -1.3281,0.5546 -0.4844,0.5547 -0.4844,1.5235 l 0,3.7031 -1.0781,0 0,-3.9219 q 0,-0.9531 -0.3359,-1.4062 -0.336,-0.4531 -1.0391,-0.4531 -0.8281,0 -1.3125,0.5546 -0.4844,0.5547 -0.4844,1.5235 l 0,3.7031 -1.0781,0 0,-6.5625 1.0781,0 0,1.0156 q 0.375,-0.5937 0.8906,-0.8828 0.5157,-0.2891 1.2188,-0.2891 0.7187,0 1.2187,0.3594 0.5,0.3594 0.7344,1.0625 z m 12.2051,1.75 0,0.5157 -4.9688,0 q 0.0782,1.125 0.6797,1.7031 0.6016,0.5781 1.6641,0.5781 0.625,0 1.2109,-0.1484 0.586,-0.1485 1.1641,-0.461 l 0,1.0313 q -0.5938,0.2343 -1.2031,0.3672 -0.6094,0.1328 -1.2344,0.1328 -1.5625,0 -2.4844,-0.9141 -0.9219,-0.914 -0.9219,-2.4766 0,-1.6093 0.875,-2.5546 0.875,-0.9454 2.3438,-0.9454 1.3281,0 2.1016,0.8516 0.7734,0.8516 0.7734,2.3203 z M 31.2305,-3.875 q -0.0157,-0.875 -0.5,-1.4062 -0.4844,-0.5313 -1.2813,-0.5313 -0.9062,0 -1.4453,0.5156 -0.5391,0.5157 -0.6172,1.4375 l 3.8438,-0.0156 z m 3.914,-4.5469 0,1.8594 2.2188,0 0,0.8437 -2.2188,0 0,3.5626 q 0,0.7968 0.2188,1.0234 0.2187,0.2266 0.8906,0.2266 l 1.1094,0 0,0.9062 -1.1094,0 q -1.25,0 -1.7266,-0.4688 -0.4765,-0.4687 -0.4765,-1.6874 l 0,-3.5626 -0.7813,0 0,-0.8437 0.7813,0 0,-1.8594 1.0937,0 z m 7.4395,2.8594 q -0.1875,-0.0937 -0.3985,-0.1484 -0.2109,-0.0547 -0.4765,-0.0547 -0.9063,0 -1.3985,0.5937 -0.4921,0.5938 -0.4921,1.7188 l 0,3.4531 -1.0782,0 0,-6.5625 1.0782,0 0,1.0156 q 0.3437,-0.5937 0.8906,-0.8828 0.5469,-0.2891 1.3281,-0.2891 0.1094,0 0.2422,0.0157 0.1328,0.0156 0.2891,0.0469 l 0.0156,1.0937 z m 1.1211,-1 1.0781,0 0,6.5625 -1.0781,0 0,-6.5625 z m 0,-2.5625 1.0781,0 0,1.375 -1.0781,0 0,-1.375 z m 8.0683,2.8125 0,1.0156 q -0.4687,-0.2656 -0.9218,-0.3906 -0.4532,-0.125 -0.9219,-0.125 -1.0625,0 -1.6406,0.6641 -0.5782,0.664 -0.5782,1.8672 0,1.2031 0.5782,1.8671 0.5781,0.6641 1.6406,0.6641 0.4687,0 0.9219,-0.125 Q 51.3047,-1 51.7734,-1.25 l 0,1 q -0.4531,0.2031 -0.9375,0.3125 -0.4843,0.1094 -1.0312,0.1094 -1.4844,0 -2.3594,-0.9297 -0.875,-0.9297 -0.875,-2.5234 0,-1.5938 0.8828,-2.5157 0.8828,-0.9219 2.4297,-0.9219 0.4844,0 0.961,0.1016 0.4765,0.1016 0.9296,0.3047 z M 58.6367,2 l 0,0.8281 -6.25,0 0,-0.8281 6.25,0 z m 6.4688,-5.9688 0,3.9688 -1.0782,0 0,-3.9219 q 0,-0.9375 -0.3671,-1.3984 -0.3672,-0.4609 -1.086,-0.4609 -0.875,0 -1.3828,0.5546 -0.5078,0.5547 -0.5078,1.5235 l 0,3.7031 -1.0781,0 0,-6.5625 1.0781,0 0,1.0156 q 0.3906,-0.5937 0.9141,-0.8828 0.5234,-0.2891 1.2109,-0.2891 1.125,0 1.7109,0.6954 0.586,0.6953 0.586,2.0546 z m 5.1211,0.6719 q -1.2969,0 -1.8047,0.2969 -0.5078,0.2969 -0.5078,1.0156 0,0.5782 0.3828,0.9141 0.3828,0.3359 1.0234,0.3359 0.9063,0 1.4453,-0.6328 Q 71.3047,-2 71.3047,-3.0625 l 0,-0.2344 -1.0781,0 z m 2.1562,-0.4531 0,3.75 -1.0781,0 0,-1 q -0.375,0.5938 -0.9219,0.8828 -0.5469,0.2891 -1.3437,0.2891 -1.0157,0 -1.6094,-0.5703 -0.5938,-0.5704 -0.5938,-1.5078 0,-1.1094 0.7422,-1.6719 0.7422,-0.5625 2.211,-0.5625 l 1.5156,0 0,-0.1094 q 0,-0.75 -0.4922,-1.1562 -0.4922,-0.4063 -1.3672,-0.4063 -0.5625,0 -1.1015,0.1406 -0.5391,0.1407 -1.0235,0.4063 l 0,-1 q 0.5938,-0.2344 1.1485,-0.3438 0.5546,-0.1094 1.0859,-0.1094 1.4219,0 2.125,0.7344 0.7031,0.7344 0.7031,2.2344 z m 7.3223,-1.5469 q 0.4062,-0.7343 0.9687,-1.0781 0.5625,-0.3438 1.3282,-0.3438 1.0312,0 1.5859,0.7188 0.5547,0.7188 0.5547,2.0312 l 0,3.9688 -1.0781,0 0,-3.9219 q 0,-0.9531 -0.336,-1.4062 -0.3359,-0.4531 -1.0234,-0.4531 -0.8438,0 -1.3281,0.5546 -0.4844,0.5547 -0.4844,1.5235 l 0,3.7031 -1.0781,0 0,-3.9219 q 0,-0.9531 -0.336,-1.4062 -0.3359,-0.4531 -1.039,-0.4531 -0.8282,0 -1.3125,0.5546 -0.4844,0.5547 -0.4844,1.5235 l 0,3.7031 -1.0781,0 0,-6.5625 1.0781,0 0,1.0156 q 0.375,-0.5937 0.8906,-0.8828 0.5156,-0.2891 1.2188,-0.2891 0.7187,0 1.2187,0.3594 0.5,0.3594 0.7344,1.0625 z m 12.2051,1.75 0,0.5157 -4.9688,0 q 0.0781,1.125 0.6797,1.7031 0.6016,0.5781 1.6641,0.5781 0.625,0 1.2109,-0.1484 0.5859,-0.1485 1.1641,-0.461 l 0,1.0313 q -0.5938,0.2343 -1.2032,0.3672 -0.6093,0.1328 -1.2343,0.1328 -1.5625,0 -2.4844,-0.9141 -0.9219,-0.914 -0.9219,-2.4766 0,-1.6093 0.875,-2.5546 0.875,-0.9454 2.3438,-0.9454 1.3281,0 2.1015,0.8516 0.7735,0.8516 0.7735,2.3203 z M 90.832,-3.875 q -0.0156,-0.875 -0.5,-1.4062 -0.4843,-0.5313 -1.2812,-0.5313 -0.9063,0 -1.4453,0.5156 -0.5391,0.5157 -0.6172,1.4375 L 90.832,-3.875 Z M 98.668,2 l 0,0.8281 -6.25,0 0,-0.8281 6.25,0 z m 5.1875,-8.375 0,1.0312 q -0.4532,-0.2343 -0.9453,-0.3515 -0.4922,-0.1172 -1.0235,-0.1172 -0.7969,0 -1.2031,0.2422 -0.4063,0.2422 -0.4063,0.7422 0,0.375 0.2891,0.5859 0.2891,0.211 1.1641,0.3984 l 0.3593,0.0938 q 1.1563,0.2344 1.6407,0.6875 0.4843,0.4531 0.4843,1.25 0,0.9219 -0.7265,1.4531 -0.7266,0.5313 -1.9922,0.5313 -0.5313,0 -1.1016,-0.1016 -0.5703,-0.1015 -1.1953,-0.3047 l 0,-1.125 q 0.5938,0.3125 1.1719,0.4688 0.5781,0.1562 1.1562,0.1562 0.75,0 1.1641,-0.2578 0.4141,-0.2578 0.4141,-0.7422 0,-0.4375 -0.2969,-0.6718 -0.2969,-0.2344 -1.2969,-0.4532 l -0.375,-0.0781 q -1,-0.2187 -1.4453,-0.6563 -0.4453,-0.4374 -0.4453,-1.1874 0,-0.9376 0.6562,-1.4376 0.6563,-0.5 1.8594,-0.5 0.5938,0 1.125,0.086 0.5313,0.0859 0.9688,0.2578 z m 3.1425,-2.0469 0,1.8594 2.2188,0 0,0.8437 -2.2188,0 0,3.5626 q 0,0.7968 0.2188,1.0234 0.2187,0.2266 0.8906,0.2266 l 1.1094,0 0,0.9062 -1.1094,0 q -1.25,0 -1.7265,-0.4688 -0.4766,-0.4687 -0.4766,-1.6874 l 0,-3.5626 -0.7813,0 0,-0.8437 0.7813,0 0,-1.8594 1.0937,0 z m 7.4395,2.8594 q -0.1875,-0.0937 -0.3984,-0.1484 -0.211,-0.0547 -0.4766,-0.0547 -0.9063,0 -1.3984,0.5937 -0.4922,0.5938 -0.4922,1.7188 l 0,3.4531 -1.0781,0 0,-6.5625 1.0781,0 0,1.0156 q 0.3437,-0.5937 0.8906,-0.8828 0.5469,-0.2891 1.3281,-0.2891 0.1094,0 0.2422,0.0157 0.1328,0.0156 0.2891,0.0469 l 0.0156,1.0937 z m 5.2168,4.0781 1.2344,0 0,1.4844 -1.2344,0 0,-1.4844 z m 0,-4.7187 1.2344,0 0,1.4843 -1.2344,0 0,-1.4843 z m 12.873,-2.2657 0,1.1563 q -0.6718,-0.3125 -1.2734,-0.4766 -0.6016,-0.164 -1.1484,-0.164 -0.9688,0 -1.4922,0.375 -0.5235,0.375 -0.5235,1.0781 0,0.5781 0.3438,0.875 0.3437,0.2969 1.3281,0.4688 L 130.4648,-5 q 1.3282,0.25 1.961,0.8828 0.6328,0.6328 0.6328,1.6953 0,1.2813 -0.8516,1.9375 -0.8515,0.6563 -2.5078,0.6563 -0.6094,0 -1.3125,-0.1407 -0.7031,-0.1406 -1.4531,-0.4218 l 0,-1.2188 q 0.7187,0.4063 1.4141,0.6094 0.6953,0.2031 1.3515,0.2031 1.0156,0 1.5703,-0.3984 0.5547,-0.3985 0.5547,-1.1328 0,-0.6407 -0.3984,-1.0078 -0.3985,-0.3672 -1.3047,-0.5391 l -0.7188,-0.1406 q -1.3281,-0.2656 -1.914,-0.8282 -0.586,-0.5624 -0.586,-1.5624 0,-1.1719 0.8125,-1.836 0.8125,-0.664 2.25,-0.664 0.625,0 1.2579,0.1093 0.6328,0.1094 1.3046,0.3281 z m 3.3985,0.0469 0,1.8594 2.2187,0 0,0.8437 -2.2187,0 0,3.5626 q 0,0.7968 0.2187,1.0234 0.2188,0.2266 0.8907,0.2266 l 1.1093,0 0,0.9062 -1.1093,0 q -1.25,0 -1.7266,-0.4688 -0.4766,-0.4687 -0.4766,-1.6874 l 0,-3.5626 -0.7812,0 0,-0.8437 0.7812,0 0,-1.8594 1.0938,0 z m 7.4394,2.8594 q -0.1875,-0.0937 -0.3984,-0.1484 -0.2109,-0.0547 -0.4766,-0.0547 -0.9062,0 -1.3984,0.5937 -0.4922,0.5938 -0.4922,1.7188 l 0,3.4531 -1.0781,0 0,-6.5625 1.0781,0 0,1.0156 q 0.3438,-0.5937 0.8906,-0.8828 0.5469,-0.2891 1.3282,-0.2891 0.1093,0 0.2421,0.0157 0.1329,0.0156 0.2891,0.0469 l 0.0156,1.0937 z m 1.1211,-1 1.0782,0 0,6.5625 -1.0782,0 0,-6.5625 z m 0,-2.5625 1.0782,0 0,1.375 -1.0782,0 0,-1.375 z m 8.8028,5.1562 0,3.9688 -1.0782,0 0,-3.9219 q 0,-0.9375 -0.3671,-1.3984 -0.3672,-0.4609 -1.086,-0.4609 -0.875,0 -1.3828,0.5546 -0.5078,0.5547 -0.5078,1.5235 l 0,3.7031 -1.0781,0 0,-6.5625 1.0781,0 0,1.0156 q 0.3906,-0.5937 0.914,-0.8828 0.5235,-0.2891 1.211,-0.2891 1.125,0 1.7109,0.6954 0.586,0.6953 0.586,2.0546 z m 6.4648,0.6094 q 0,-1.1718 -0.4844,-1.8125 -0.4843,-0.6406 -1.3593,-0.6406 -0.8594,0 -1.3438,0.6406 -0.4844,0.6407 -0.4844,1.8125 0,1.1719 0.4844,1.8125 0.4844,0.6407 1.3438,0.6407 0.875,0 1.3593,-0.6407 0.4844,-0.6406 0.4844,-1.8125 z m 1.0781,2.5469 q 0,1.6719 -0.7422,2.4922 -0.7421,0.8203 -2.289,0.8203 -0.5625,0 -1.0703,-0.0859 -0.5078,-0.086 -0.9766,-0.2579 l 0,-1.0468 q 0.4688,0.25 0.9375,0.375 0.4688,0.125 0.9375,0.125 1.0625,0 1.5938,-0.5547 0.5312,-0.5547 0.5312,-1.6797 l 0,-0.5312 q -0.3437,0.5781 -0.8594,0.8671 Q 158.3789,0 157.6445,0 q -1.2031,0 -1.9453,-0.9219 -0.7422,-0.9219 -0.7422,-2.4375 0,-1.5156 0.7422,-2.4375 0.7422,-0.9219 1.9453,-0.9219 0.7344,0 1.25,0.2891 0.5157,0.2891 0.8594,0.8672 l 0,-1 1.0781,0 0,5.75 z" />
  </g>
  <g
     id="g89"
     transform="matrix(1.3333,0,0,1.3333,177.3289,293.2844)"
     style="font-family:sans-serif;stroke-width:2;text-rendering:optimizeLegibility">
    <path
       inkscape:connector-curvature="0"
       clip-path="url(#clipPath9)"
       id="path91"
       style="stroke:none"
       d="m 5.5156,-7.5312 0,3.2656 3.2656,0 0,1 -3.2656,0 0,3.2656 -0.9844,0 0,-3.2656 -3.2656,0 0,-1 3.2656,0 0,-3.2656 0.9844,0 z m 12.4629,4.2343 q -1.2969,0 -1.8047,0.2969 -0.5078,0.2969 -0.5078,1.0156 0,0.5782 0.3828,0.9141 0.3828,0.3359 1.0235,0.3359 0.9062,0 1.4453,-0.6328 0.539,-0.6328 0.539,-1.6953 l 0,-0.2344 -1.0781,0 z m 2.1563,-0.4531 0,3.75 -1.0782,0 0,-1 q -0.375,0.5938 -0.9218,0.8828 -0.5469,0.2891 -1.3438,0.2891 -1.0156,0 -1.6094,-0.5703 -0.5937,-0.5704 -0.5937,-1.5078 0,-1.1094 0.7422,-1.6719 0.7422,-0.5625 2.2109,-0.5625 l 1.5156,0 0,-0.1094 q 0,-0.75 -0.4921,-1.1562 -0.4922,-0.4063 -1.3672,-0.4063 -0.5625,0 -1.1016,0.1406 -0.5391,0.1407 -1.0234,0.4063 l 0,-1 q 0.5937,-0.2344 1.1484,-0.3438 0.5547,-0.1094 1.0859,-0.1094 1.4219,0 2.125,0.7344 0.7032,0.7344 0.7032,2.2344 z m 6.541,-1.8125 0,-3.5625 1.0781,0 0,9.125 -1.0781,0 0,-0.9844 q -0.3438,0.5782 -0.8594,0.8672 -0.5156,0.2891 -1.25,0.2891 -1.1875,0 -1.9375,-0.9531 -0.75,-0.9532 -0.75,-2.5 0,-1.5469 0.75,-2.4922 0.75,-0.9454 1.9375,-0.9454 0.7344,0 1.25,0.2813 0.5156,0.2813 0.8594,0.875 z m -3.6719,2.2813 q 0,1.1874 0.4844,1.8671 0.4844,0.6797 1.3437,0.6797 0.8594,0 1.3516,-0.6797 0.4922,-0.6797 0.4922,-1.8671 0,-1.1876 -0.4922,-1.8594 -0.4922,-0.6719 -1.3516,-0.6719 -0.8593,0 -1.3437,0.6719 -0.4844,0.6718 -0.4844,1.8594 z m 12.0703,-2.0157 q 0.4063,-0.7343 0.9688,-1.0781 0.5625,-0.3438 1.3281,-0.3438 1.0312,0 1.5859,0.7188 0.5547,0.7188 0.5547,2.0312 l 0,3.9688 -1.0781,0 0,-3.9219 q 0,-0.9531 -0.3359,-1.4062 -0.336,-0.4531 -1.0235,-0.4531 -0.8437,0 -1.3281,0.5546 -0.4844,0.5547 -0.4844,1.5235 l 0,3.7031 -1.0781,0 0,-3.9219 q 0,-0.9531 -0.3359,-1.4062 -0.336,-0.4531 -1.0391,-0.4531 -0.8281,0 -1.3125,0.5546 -0.4844,0.5547 -0.4844,1.5235 l 0,3.7031 -1.0781,0 0,-6.5625 1.0781,0 0,1.0156 q 0.375,-0.5937 0.8906,-0.8828 0.5157,-0.2891 1.2188,-0.2891 0.7187,0 1.2187,0.3594 0.5,0.3594 0.7344,1.0625 z m 6.5801,-1.2656 1.0781,0 0,6.5625 -1.0781,0 0,-6.5625 z m 0,-2.5625 1.0781,0 0,1.375 -1.0781,0 0,-1.375 z m 8.8027,5.1562 0,3.9688 -1.0781,0 0,-3.9219 q 0,-0.9375 -0.3672,-1.3984 -0.3672,-0.4609 -1.0859,-0.4609 -0.875,0 -1.3828,0.5546 -0.5078,0.5547 -0.5078,1.5235 l 0,3.7031 -1.0782,0 0,-6.5625 1.0782,0 0,1.0156 q 0.3906,-0.5937 0.914,-0.8828 0.5235,-0.2891 1.211,-0.2891 1.125,0 1.7109,0.6954 0.5859,0.6953 0.5859,2.0546 z M 57.5938,2 l 0,0.8281 -6.25,0 0,-0.8281 6.25,0 z m 5.7343,-8.3125 0,1.0156 q -0.4687,-0.2656 -0.9219,-0.3906 -0.4531,-0.125 -0.9218,-0.125 -1.0625,0 -1.6406,0.6641 -0.5782,0.664 -0.5782,1.8672 0,1.2031 0.5782,1.8671 0.5781,0.6641 1.6406,0.6641 0.4687,0 0.9218,-0.125 Q 62.8594,-1 63.3281,-1.25 l 0,1 q -0.4531,0.2031 -0.9375,0.3125 -0.4844,0.1094 -1.0312,0.1094 -1.4844,0 -2.3594,-0.9297 -0.875,-0.9297 -0.875,-2.5234 0,-1.5938 0.8828,-2.5157 0.8828,-0.9219 2.4297,-0.9219 0.4844,0 0.9609,0.1016 0.4766,0.1016 0.9297,0.3047 z m 4.4102,0.5 q -0.8594,0 -1.3672,0.6797 -0.5078,0.6797 -0.5078,1.8516 0,1.1874 0.5,1.8593 0.5,0.6719 1.375,0.6719 0.8594,0 1.3672,-0.6797 0.5078,-0.6797 0.5078,-1.8515 0,-1.1563 -0.5078,-1.8438 -0.5078,-0.6875 -1.3672,-0.6875 z m 0,-0.9063 q 1.4062,0 2.2109,0.9141 0.8047,0.9141 0.8047,2.5235 0,1.6093 -0.8047,2.5312 -0.8047,0.9219 -2.2109,0.9219 -1.4063,0 -2.211,-0.9219 -0.8046,-0.9219 -0.8046,-2.5312 0,-1.6094 0.8046,-2.5235 0.8047,-0.9141 2.211,-0.9141 z m 9.9043,1.4219 q 0.4062,-0.7343 0.9687,-1.0781 0.5625,-0.3438 1.3282,-0.3438 1.0312,0 1.5859,0.7188 0.5547,0.7188 0.5547,2.0312 l 0,3.9688 -1.0781,0 0,-3.9219 q 0,-0.9531 -0.336,-1.4062 -0.3359,-0.4531 -1.0234,-0.4531 -0.8438,0 -1.3281,0.5546 -0.4844,0.5547 -0.4844,1.5235 l 0,3.7031 -1.0781,0 0,-3.9219 q 0,-0.9531 -0.336,-1.4062 -0.3359,-0.4531 -1.039,-0.4531 -0.8282,0 -1.3125,0.5546 -0.4844,0.5547 -0.4844,1.5235 l 0,3.7031 -1.0781,0 0,-6.5625 1.0781,0 0,1.0156 q 0.375,-0.5937 0.8906,-0.8828 0.5156,-0.2891 1.2188,-0.2891 0.7187,0 1.2187,0.3594 0.5,0.3594 0.7344,1.0625 z m 11.6894,0 q 0.4063,-0.7343 0.9688,-1.0781 0.5625,-0.3438 1.3281,-0.3438 1.0313,0 1.5859,0.7188 0.5547,0.7188 0.5547,2.0312 l 0,3.9688 -1.0781,0 0,-3.9219 q 0,-0.9531 -0.3359,-1.4062 -0.336,-0.4531 -1.0235,-0.4531 -0.8437,0 -1.3281,0.5546 -0.4844,0.5547 -0.4844,1.5235 l 0,3.7031 -1.0781,0 0,-3.9219 q 0,-0.9531 -0.3359,-1.4062 -0.336,-0.4531 -1.0391,-0.4531 -0.8281,0 -1.3125,0.5546 -0.4844,0.5547 -0.4844,1.5235 l 0,3.7031 -1.0781,0 0,-6.5625 1.0781,0 0,1.0156 q 0.375,-0.5937 0.8907,-0.8828 0.5156,-0.2891 1.2187,-0.2891 0.7188,0 1.2188,0.3594 0.5,0.3594 0.7343,1.0625 z m 12.2051,1.75 0,0.5157 -4.9687,0 q 0.0781,1.125 0.6796,1.7031 0.6016,0.5781 1.6641,0.5781 0.625,0 1.2109,-0.1484 0.586,-0.1485 1.1641,-0.461 l 0,1.0313 q -0.5937,0.2343 -1.2031,0.3672 -0.6094,0.1328 -1.2344,0.1328 -1.5625,0 -2.4844,-0.9141 -0.9218,-0.914 -0.9218,-2.4766 0,-1.6093 0.875,-2.5546 0.875,-0.9454 2.3437,-0.9454 1.3281,0 2.1016,0.8516 0.7734,0.8516 0.7734,2.3203 z M 100.459,-3.875 q -0.0156,-0.875 -0.5,-1.4062 -0.4844,-0.5313 -1.2813,-0.5313 -0.9062,0 -1.4453,0.5156 -0.539,0.5157 -0.6172,1.4375 l 3.8438,-0.0156 z m 8.3047,-0.0938 0,3.9688 -1.0782,0 0,-3.9219 q 0,-0.9375 -0.3671,-1.3984 -0.3672,-0.4609 -1.086,-0.4609 -0.875,0 -1.3828,0.5546 -0.5078,0.5547 -0.5078,1.5235 l 0,3.7031 -1.0781,0 0,-6.5625 1.0781,0 0,1.0156 q 0.3906,-0.5937 0.9141,-0.8828 0.5234,-0.2891 1.2109,-0.2891 1.125,0 1.7109,0.6954 0.586,0.6953 0.586,2.0546 z m 3.2148,-4.4531 0,1.8594 2.2188,0 0,0.8437 -2.2188,0 0,3.5626 q 0,0.7968 0.2188,1.0234 0.2187,0.2266 0.8906,0.2266 l 1.1094,0 0,0.9062 -1.1094,0 q -1.25,0 -1.7266,-0.4688 -0.4765,-0.4687 -0.4765,-1.6874 l 0,-3.5626 -0.7813,0 0,-0.8437 0.7813,0 0,-1.8594 1.0937,0 z m 7.8145,2.0469 0,1.0312 q -0.4532,-0.2343 -0.9453,-0.3515 -0.4922,-0.1172 -1.0235,-0.1172 -0.7969,0 -1.2031,0.2422 -0.4063,0.2422 -0.4063,0.7422 0,0.375 0.2891,0.5859 0.2891,0.211 1.1641,0.3984 l 0.3593,0.0938 q 1.1563,0.2344 1.6407,0.6875 0.4843,0.4531 0.4843,1.25 0,0.9219 -0.7265,1.4531 -0.7266,0.5313 -1.9922,0.5313 -0.5313,0 -1.1016,-0.1016 -0.5703,-0.1015 -1.1953,-0.3047 l 0,-1.125 q 0.5938,0.3125 1.1719,0.4688 0.5781,0.1562 1.1562,0.1562 0.75,0 1.1641,-0.2578 0.4141,-0.2578 0.4141,-0.7422 0,-0.4375 -0.2969,-0.6718 -0.2969,-0.2344 -1.2969,-0.4532 l -0.375,-0.0781 q -1,-0.2187 -1.4453,-0.6563 -0.4453,-0.4374 -0.4453,-1.1874 0,-0.9376 0.6562,-1.4376 0.6563,-0.5 1.8594,-0.5 0.5938,0 1.125,0.086 0.5313,0.0859 0.9688,0.2578 z m 7.0644,8.375 0,0.8281 -6.25,0 0,-0.8281 6.25,0 z m 5.7344,-8.3125 0,1.0156 q -0.4688,-0.2656 -0.9219,-0.3906 -0.4531,-0.125 -0.9219,-0.125 -1.0625,0 -1.6406,0.6641 -0.5781,0.664 -0.5781,1.8672 0,1.2031 0.5781,1.8671 0.5781,0.6641 1.6406,0.6641 0.4688,0 0.9219,-0.125 0.4531,-0.125 0.9219,-0.375 l 0,1 q -0.4531,0.2031 -0.9375,0.3125 -0.4844,0.1094 -1.0313,0.1094 -1.4843,0 -2.3593,-0.9297 -0.875,-0.9297 -0.875,-2.5234 0,-1.5938 0.8828,-2.5157 0.8828,-0.9219 2.4297,-0.9219 0.4843,0 0.9609,0.1016 0.4766,0.1016 0.9297,0.3047 z m 4.4102,0.5 q -0.8594,0 -1.3672,0.6797 -0.5078,0.6797 -0.5078,1.8516 0,1.1874 0.5,1.8593 0.5,0.6719 1.375,0.6719 0.8593,0 1.3671,-0.6797 0.5079,-0.6797 0.5079,-1.8515 0,-1.1563 -0.5079,-1.8438 -0.5078,-0.6875 -1.3671,-0.6875 z m 0,-0.9063 q 1.4062,0 2.2109,0.9141 0.8047,0.9141 0.8047,2.5235 0,1.6093 -0.8047,2.5312 -0.8047,0.9219 -2.2109,0.9219 -1.4063,0 -2.211,-0.9219 -0.8047,-0.9219 -0.8047,-2.5312 0,-1.6094 0.8047,-2.5235 0.8047,-0.9141 2.211,-0.9141 z m 4.6855,4.125 0,-3.9687 1.0781,0 0,3.9375 q 0,0.9219 0.3672,1.3906 0.3672,0.4688 1.086,0.4688 0.875,0 1.3828,-0.5547 0.5078,-0.5547 0.5078,-1.5235 l 0,-3.7187 1.0781,0 0,6.5625 -1.0781,0 0,-1.0156 q -0.3906,0.6094 -0.9063,0.8984 -0.5156,0.2891 -1.2031,0.2891 -1.1406,0 -1.7266,-0.7031 -0.5859,-0.7032 -0.5859,-2.0626 z m 13.1836,-1.375 0,3.9688 -1.0781,0 0,-3.9219 q 0,-0.9375 -0.3672,-1.3984 -0.3672,-0.4609 -1.086,-0.4609 -0.875,0 -1.3828,0.5546 -0.5078,0.5547 -0.5078,1.5235 l 0,3.7031 -1.0781,0 0,-6.5625 1.0781,0 0,1.0156 q 0.3906,-0.5937 0.9141,-0.8828 0.5234,-0.2891 1.2109,-0.2891 1.125,0 1.711,0.6954 0.5859,0.6953 0.5859,2.0546 z m 3.2148,-4.4531 0,1.8594 2.2188,0 0,0.8437 -2.2188,0 0,3.5626 q 0,0.7968 0.2188,1.0234 0.2187,0.2266 0.8906,0.2266 l 1.1094,0 0,0.9062 -1.1094,0 q -1.25,0 -1.7265,-0.4688 -0.4766,-0.4687 -0.4766,-1.6874 l 0,-3.5626 -0.7813,0 0,-0.8437 0.7813,0 0,-1.8594 1.0937,0 z M 166.7129,2 l 0,0.8281 -6.25,0 0,-0.8281 6.25,0 z m 1,-8.5625 1.0781,0 0,6.5625 -1.0781,0 0,-6.5625 z m 0,-2.5625 1.0781,0 0,1.375 -1.0781,0 0,-1.375 z m 8.8027,5.1562 0,3.9688 -1.0781,0 0,-3.9219 q 0,-0.9375 -0.3672,-1.3984 -0.3672,-0.4609 -1.0859,-0.4609 -0.875,0 -1.3828,0.5546 -0.5078,0.5547 -0.5078,1.5235 l 0,3.7031 -1.0782,0 0,-6.5625 1.0782,0 0,1.0156 q 0.3906,-0.5937 0.914,-0.8828 0.5234,-0.2891 1.211,-0.2891 1.125,0 1.7109,0.6954 0.5859,0.6953 0.5859,2.0546 z m 3.2149,-4.4531 0,1.8594 2.2187,0 0,0.8437 -2.2187,0 0,3.5626 q 0,0.7968 0.2187,1.0234 0.2188,0.2266 0.8906,0.2266 l 1.1094,0 0,0.9062 -1.1094,0 q -1.25,0 -1.7265,-0.4688 -0.4766,-0.4687 -0.4766,-1.6874 l 0,-3.5626 -0.7812,0 0,-0.8437 0.7812,0 0,-1.8594 1.0938,0 z m 7.7226,6.9375 1.2344,0 0,1.4844 -1.2344,0 0,-1.4844 z m 0,-4.7187 1.2344,0 0,1.4843 -1.2344,0 0,-1.4843 z m 7.5762,-0.3594 1.0781,0 0,6.5625 -1.0781,0 0,-6.5625 z m 0,-2.5625 1.0781,0 0,1.375 -1.0781,0 0,-1.375 z m 8.8027,5.1562 0,3.9688 -1.0781,0 0,-3.9219 q 0,-0.9375 -0.3672,-1.3984 -0.3672,-0.4609 -1.0859,-0.4609 -0.875,0 -1.3828,0.5546 -0.5078,0.5547 -0.5078,1.5235 l 0,3.7031 -1.0782,0 0,-6.5625 1.0782,0 0,1.0156 q 0.3906,-0.5937 0.914,-0.8828 0.5235,-0.2891 1.211,-0.2891 1.125,0 1.7109,0.6954 0.5859,0.6953 0.5859,2.0546 z m 3.2149,-4.4531 0,1.8594 2.2187,0 0,0.8437 -2.2187,0 0,3.5626 q 0,0.7968 0.2187,1.0234 0.2188,0.2266 0.8906,0.2266 l 1.1094,0 0,0.9062 -1.1094,0 q -1.25,0 -1.7265,-0.4688 -0.4766,-0.4687 -0.4766,-1.6874 l 0,-3.5626 -0.7812,0 0,-0.8437 0.7812,0 0,-1.8594 1.0938,0 z" />
  </g>
  <g
     id="g93"
     transform="scale(1.3333,1.3333)"
     style="font-family:sans-serif;text-rendering:optimizeLegibility">
    <line
       clip-path="url(#clipPath2)"
       id="line95"
       y2="239.9062"
       style="fill:none"
       y1="239.9062"
       x2="637"
       x1="123" />
    <line
       clip-path="url(#clipPath2)"
       id="line97"
       y2="203.9688"
       style="fill:none"
       y1="203.9688"
       x2="637"
       x1="123" />
  </g>
  <g
     id="g99"
     transform="matrix(1.3333,0,0,1.3333,419.32285,263.9934)"
     style="font-weight:bold;font-family:sans-serif;text-rendering:optimizeLegibility">
    <path
       inkscape:connector-curvature="0"
       clip-path="url(#clipPath10)"
       id="path101"
       style="stroke:none"
       d="M 8.0469,-0.4844 Q 7.4219,-0.1562 6.75,0.0078 6.0781,0.1719 5.3438,0.1719 q -2.1876,0 -3.4688,-1.2266 -1.2812,-1.2265 -1.2812,-3.3047 0,-2.1094 1.2812,-3.3281 1.2812,-1.2187 3.4688,-1.2187 0.7343,0 1.4062,0.164 0.6719,0.1641 1.2969,0.4922 l 0,1.7969 Q 7.4062,-6.875 6.7969,-7.0703 6.1875,-7.2656 5.5156,-7.2656 q -1.2031,0 -1.8906,0.7734 -0.6875,0.7734 -0.6875,2.1328 0,1.3438 0.6875,2.1172 0.6875,0.7734 1.8906,0.7734 0.6719,0 1.2813,-0.1953 0.6093,-0.1953 1.25,-0.6328 l 0,1.8125 z m 4.8847,-4.7344 q -0.6875,0 -1.0546,0.5 -0.3672,0.5 -0.3672,1.4376 0,0.9531 0.3672,1.4531 0.3671,0.5 1.0546,0.5 0.6875,0 1.0547,-0.5 0.3672,-0.5 0.3672,-1.4531 0,-0.9376 -0.3672,-1.4376 -0.3672,-0.5 -1.0547,-0.5 z m 0,-1.5 q 1.7032,0 2.6563,0.9141 0.9531,0.9141 0.9531,2.5235 0,1.625 -0.9531,2.539 -0.9531,0.9141 -2.6563,0.9141 -1.6875,0 -2.6484,-0.9141 -0.9609,-0.914 -0.9609,-2.539 0,-1.6094 0.9609,-2.5235 0.9609,-0.9141 2.6484,-0.9141 z m 11.2129,1.25 q 0.3907,-0.6093 0.9375,-0.9296 0.5469,-0.3204 1.2032,-0.3204 1.1406,0 1.7343,0.6954 0.5938,0.6953 0.5938,2.0234 l 0,4 -2.1094,0 0,-3.4219 q 0,-0.0781 0,-0.1562 0,-0.0781 0,-0.2344 0,-0.7031 -0.2031,-1.0156 -0.2031,-0.3125 -0.6563,-0.3125 -0.5937,0 -0.9218,0.4922 -0.3282,0.4922 -0.3438,1.4296 l 0,3.2188 -2.1094,0 0,-3.4219 q 0,-1.0937 -0.1875,-1.4062 -0.1875,-0.3125 -0.6718,-0.3125 -0.5938,0 -0.9219,0.4922 -0.3281,0.4922 -0.3281,1.414 l 0,3.2344 -2.1094,0 0,-6.5625 2.1094,0 0,0.9531 q 0.3906,-0.5468 0.8906,-0.8281 0.5,-0.2813 1.0937,-0.2813 0.6875,0 1.211,0.3282 0.5234,0.3281 0.789,0.9218 z m 12.5039,0 q 0.3907,-0.6093 0.9375,-0.9296 0.5469,-0.3204 1.2032,-0.3204 1.1406,0 1.7343,0.6954 0.5938,0.6953 0.5938,2.0234 l 0,4 -2.1094,0 0,-3.4219 q 0,-0.0781 0,-0.1562 0,-0.0781 0,-0.2344 0,-0.7031 -0.2031,-1.0156 -0.2031,-0.3125 -0.6563,-0.3125 -0.5937,0 -0.9218,0.4922 -0.3282,0.4922 -0.3438,1.4296 l 0,3.2188 -2.1094,0 0,-3.4219 q 0,-1.0937 -0.1875,-1.4062 -0.1875,-0.3125 -0.6718,-0.3125 -0.5938,0 -0.9219,0.4922 -0.3281,0.4922 -0.3281,1.414 l 0,3.2344 -2.1094,0 0,-6.5625 2.1094,0 0,0.9531 q 0.3906,-0.5468 0.8906,-0.8281 0.5,-0.2813 1.0937,-0.2813 0.6875,0 1.211,0.3282 0.5234,0.3281 0.789,0.9218 z m 12.9727,2.1719 0,0.5938 -4.9063,0 q 0.0782,0.7343 0.5313,1.1093 0.4531,0.375 1.2812,0.375 0.6563,0 1.3516,-0.2031 0.6953,-0.2031 1.4297,-0.5937 l 0,1.6094 q -0.75,0.2812 -1.4922,0.4296 -0.7422,0.1485 -1.4922,0.1485 -1.7812,0 -2.7656,-0.9063 -0.9844,-0.9062 -0.9844,-2.5468 0,-1.5938 0.9688,-2.5157 0.9687,-0.9219 2.6718,-0.9219 1.5469,0 2.4766,0.9297 0.9297,0.9297 0.9297,2.4922 z M 47.4648,-4 q 0,-0.5938 -0.3515,-0.9609 -0.3516,-0.3672 -0.9141,-0.3672 -0.6094,0 -0.9922,0.3437 Q 44.8242,-4.6406 44.7305,-4 l 2.7343,0 z m 10.3418,0 0,4 -2.1093,0 0,-0.6562 0,-2.4063 q 0,-0.8437 -0.0391,-1.1641 -0.0391,-0.3203 -0.1328,-0.4765 -0.125,-0.2031 -0.3359,-0.3203 -0.211,-0.1172 -0.4766,-0.1172 -0.6563,0 -1.0313,0.5078 -0.375,0.5078 -0.375,1.3984 l 0,3.2344 -2.0937,0 0,-6.5625 2.0937,0 0,0.9531 q 0.4688,-0.5625 1,-0.8359 0.5313,-0.2735 1.1875,-0.2735 1.125,0 1.7188,0.6954 0.5937,0.6953 0.5937,2.0234 z m 4.2305,-4.4219 0,1.8594 2.1719,0 0,1.5 -2.1719,0 0,2.7813 q 0,0.4531 0.1797,0.6171 0.1797,0.1641 0.7266,0.1641 l 1.0781,0 0,1.5 -1.7969,0 q -1.25,0 -1.7656,-0.5156 -0.5156,-0.5156 -0.5156,-1.7656 l 0,-2.7813 -1.0469,0 0,-1.5 1.0469,0 0,-1.8594 2.0937,0 z m 8.5801,2.0625 0,1.5938 q -0.6719,-0.2813 -1.3047,-0.4219 -0.6328,-0.1406 -1.1797,-0.1406 -0.6094,0 -0.8984,0.1484 -0.2891,0.1485 -0.2891,0.4609 0,0.25 0.2188,0.3829 0.2187,0.1328 0.7968,0.2109 l 0.3594,0.0469 q 1.625,0.2031 2.1797,0.6719 0.5547,0.4687 0.5547,1.4687 0,1.0469 -0.7735,1.5781 -0.7734,0.5313 -2.3046,0.5313 -0.6563,0 -1.3516,-0.1016 -0.6953,-0.1015 -1.4297,-0.3047 l 0,-1.5937 q 0.625,0.2969 1.2891,0.4531 0.664,0.1562 1.3359,0.1562 0.625,0 0.9297,-0.1718 0.3047,-0.1719 0.3047,-0.5156 0,-0.2813 -0.2109,-0.4141 -0.211,-0.1328 -0.8516,-0.2109 l -0.375,-0.0469 q -1.3906,-0.1719 -1.9531,-0.6485 -0.5625,-0.4765 -0.5625,-1.4453 0,-1.0469 0.7109,-1.5469 0.7109,-0.5 2.1953,-0.5 0.5781,0 1.2188,0.086 0.6406,0.0859 1.3906,0.2734 z m 9.0488,5.875 q -0.625,0.3282 -1.2969,0.4922 -0.6718,0.1641 -1.4062,0.1641 -2.1875,0 -3.4688,-1.2266 -1.2812,-1.2265 -1.2812,-3.3047 0,-2.1094 1.2812,-3.3281 1.2813,-1.2187 3.4688,-1.2187 0.7344,0 1.4062,0.164 0.6719,0.1641 1.2969,0.4922 l 0,1.7969 q -0.6406,-0.4219 -1.25,-0.6172 -0.6094,-0.1953 -1.2812,-0.1953 -1.2032,0 -1.8907,0.7734 -0.6875,0.7734 -0.6875,2.1328 0,1.3438 0.6875,2.1172 0.6875,0.7734 1.8907,0.7734 0.6718,0 1.2812,-0.1953 0.6094,-0.1953 1.25,-0.6328 l 0,1.8125 z m 4.8848,-4.7344 q -0.6875,0 -1.0547,0.5 -0.3672,0.5 -0.3672,1.4376 0,0.9531 0.3672,1.4531 0.3672,0.5 1.0547,0.5 0.6875,0 1.0547,-0.5 0.3672,-0.5 0.3672,-1.4531 0,-0.9376 -0.3672,-1.4376 -0.3672,-0.5 -1.0547,-0.5 z m 0,-1.5 q 1.7031,0 2.6562,0.9141 0.9532,0.9141 0.9532,2.5235 0,1.625 -0.9532,2.539 -0.9531,0.9141 -2.6562,0.9141 -1.6875,0 -2.6485,-0.9141 -0.9609,-0.914 -0.9609,-2.539 0,-1.6094 0.9609,-2.5235 0.961,-0.9141 2.6485,-0.9141 z m 5.0566,4.1563 0,-4 2.1094,0 0,0.6563 q 0,0.5312 -0.0078,1.3359 -0.0078,0.8047 -0.0078,1.0703 0,0.7969 0.0468,1.1484 0.0469,0.3516 0.1407,0.5078 0.125,0.2032 0.3359,0.3126 0.2109,0.1093 0.4766,0.1093 0.6562,0 1.0312,-0.5 0.375,-0.5 0.375,-1.4062 l 0,-3.2344 2.0938,0 0,6.5625 -2.0938,0 0,-0.9531 q -0.4687,0.5781 -1,0.8515 -0.5312,0.2735 -1.1719,0.2735 -1.1406,0 -1.7343,-0.6953 -0.5938,-0.6954 -0.5938,-2.0391 z M 104.8223,-4 l 0,4 -2.1094,0 0,-0.6562 0,-2.4063 q 0,-0.8437 -0.0391,-1.1641 -0.039,-0.3203 -0.1328,-0.4765 -0.125,-0.2031 -0.3359,-0.3203 -0.211,-0.1172 -0.4766,-0.1172 -0.6562,0 -1.0312,0.5078 -0.375,0.5078 -0.375,1.3984 l 0,3.2344 -2.0938,0 0,-6.5625 2.0938,0 0,0.9531 q 0.4687,-0.5625 1,-0.8359 0.5312,-0.2735 1.1875,-0.2735 1.125,0 1.7187,0.6954 0.5938,0.6953 0.5938,2.0234 z m 4.2304,-4.4219 0,1.8594 2.1719,0 0,1.5 -2.1719,0 0,2.7813 q 0,0.4531 0.1797,0.6171 0.1797,0.1641 0.7266,0.1641 l 1.0781,0 0,1.5 -1.7969,0 q -1.25,0 -1.7656,-0.5156 -0.5156,-0.5156 -0.5156,-1.7656 l 0,-2.7813 -1.0469,0 0,-1.5 1.0469,0 0,-1.8594 2.0937,0 z m 10.002,5.125 0,0.5938 -4.9063,0 q 0.0782,0.7343 0.5313,1.1093 0.4531,0.375 1.2812,0.375 0.6563,0 1.3516,-0.2031 0.6953,-0.2031 1.4297,-0.5937 l 0,1.6094 q -0.75,0.2812 -1.4922,0.4296 -0.7422,0.1485 -1.4922,0.1485 -1.7812,0 -2.7656,-0.9063 -0.9844,-0.9062 -0.9844,-2.5468 0,-1.5938 0.9688,-2.5157 0.9687,-0.9219 2.6718,-0.9219 1.5469,0 2.4766,0.9297 0.9297,0.9297 0.9297,2.4922 z M 116.8984,-4 q 0,-0.5938 -0.3515,-0.9609 -0.3516,-0.3672 -0.9141,-0.3672 -0.6094,0 -0.9922,0.3437 -0.3828,0.3438 -0.4765,0.9844 l 2.7343,0 z m 8.6231,-0.7812 q -0.2813,-0.125 -0.5547,-0.1876 -0.2734,-0.0624 -0.5547,-0.0624 -0.7969,0 -1.2344,0.5234 -0.4375,0.5234 -0.4375,1.4766 l 0,3.0312 -2.0937,0 0,-6.5625 2.0937,0 0,1.0781 q 0.4063,-0.6406 0.9297,-0.9375 0.5235,-0.2969 1.2578,-0.2969 0.0938,0 0.2188,0.0079 0.125,0.0078 0.3594,0.039 l 0.0156,1.8907 z" />
  </g>
</svg>
