<?xml version="1.0" encoding="UTF-8" standalone="no"?>
<svg
   xmlns:dc="http://purl.org/dc/elements/1.1/"
   xmlns:cc="http://creativecommons.org/ns#"
   xmlns:rdf="http://www.w3.org/1999/02/22-rdf-syntax-ns#"
   xmlns:svg="http://www.w3.org/2000/svg"
   xmlns="http://www.w3.org/2000/svg"
   xmlns:xlink="http://www.w3.org/1999/xlink"
   xmlns:sodipodi="http://sodipodi.sourceforge.net/DTD/sodipodi-0.dtd"
   xmlns:inkscape="http://www.inkscape.org/namespaces/inkscape"
   style="fill-opacity:1; color-rendering:auto; color-interpolation:auto; stroke:black; text-rendering:auto; stroke-linecap:square; stroke-miterlimit:10; stroke-opacity:1; shape-rendering:auto; fill:black; stroke-dasharray:none; font-weight:normal; stroke-width:1; font-family:'Dialog'; font-style:normal; stroke-linejoin:miter; font-size:12; stroke-dashoffset:0; image-rendering:auto;"
   width="880"
   height="666"
   id="svg2"
   version="1.1"
   inkscape:version="0.91 r13725"
   sodipodi:docname="miner_scheduler.svg">
  <metadata
     id="metadata84">
    <rdf:RDF>
      <cc:Work
         rdf:about="">
        <dc:format>image/svg+xml</dc:format>
        <dc:type
           rdf:resource="http://purl.org/dc/dcmitype/StillImage" />
      </cc:Work>
    </rdf:RDF>
  </metadata>
  <sodipodi:namedview
     pagecolor="#ffffff"
     bordercolor="#666666"
     borderopacity="1"
     objecttolerance="10"
     gridtolerance="10"
     guidetolerance="10"
     inkscape:pageopacity="0"
     inkscape:pageshadow="2"
     inkscape:window-width="640"
     inkscape:window-height="547"
     id="namedview82"
     showgrid="false"
     inkscape:zoom="0.35435435"
     inkscape:cx="440"
     inkscape:cy="333"
     inkscape:window-x="236"
     inkscape:window-y="241"
     inkscape:window-maximized="0"
     inkscape:current-layer="svg2" />
  <!--Generated by the Batik Graphics2D SVG Generator-->
  <defs
     id="genericDefs">
    <linearGradient
       inkscape:collect="always"
       xlink:href="#linearGradient1"
       id="linearGradient3412"
       gradientUnits="userSpaceOnUse"
       spreadMethod="pad"
       x1="200"
       y1="117"
       x2="422"
       y2="195" />
    <linearGradient
       inkscape:collect="always"
       xlink:href="#linearGradient1"
       id="linearGradient3414"
       gradientUnits="userSpaceOnUse"
       spreadMethod="pad"
       x1="200"
       y1="117"
       x2="422"
       y2="195" />
    <linearGradient
       inkscape:collect="always"
       xlink:href="#linearGradient1"
       id="linearGradient3416"
       gradientUnits="userSpaceOnUse"
       spreadMethod="pad"
       x1="200"
       y1="117"
       x2="422"
       y2="195" />
    <defs
       id="defs1">
      <linearGradient
         spreadMethod="pad"
         id="linearGradient1"
         y2="195"
         y1="117"
         x2="422"
         gradientUnits="userSpaceOnUse"
         x1="200">
        <stop
           id="stop9"
           offset="0%"
           style="stop-opacity:1; stop-color:white;" />
        <stop
           id="stop11"
           offset="100%"
           style="stop-opacity:1; stop-color:rgb(255,255,204);" />
      </linearGradient>
      <clipPath
         id="clipPath1"
         clipPathUnits="userSpaceOnUse">
        <path
           id="path14"
           d="M0 0 L880 0 L880 666 L0 666 L0 0 Z" />
      </clipPath>
      <clipPath
         id="clipPath2"
         clipPathUnits="userSpaceOnUse">
        <path
           id="path17"
           d="M0 0 L660 0 L660 499.5 L0 499.5 L0 0 Z" />
      </clipPath>
      <clipPath
         id="clipPath3"
         clipPathUnits="userSpaceOnUse">
        <path
           id="path20"
           d="M-20 -27 L640 -27 L640 472.5 L-20 472.5 L-20 -27 Z" />
      </clipPath>
      <clipPath
         id="clipPath4"
         clipPathUnits="userSpaceOnUse">
        <path
           id="path23"
           d="M-5 -5 L655 -5 L655 494.5 L-5 494.5 L-5 -5 Z" />
      </clipPath>
      <clipPath
         id="clipPath5"
         clipPathUnits="userSpaceOnUse">
        <path
           id="path26"
           d="M-210 -176.9375 L450 -176.9375 L450 322.5625 L-210 322.5625 L-210 -176.9375 Z" />
      </clipPath>
      <clipPath
         id="clipPath6"
         clipPathUnits="userSpaceOnUse">
        <path
           id="path29"
           d="M-210 -154.9688 L450 -154.9688 L450 344.5312 L-210 344.5312 L-210 -154.9688 Z" />
      </clipPath>
      <clipPath
         id="clipPath7"
         clipPathUnits="userSpaceOnUse">
        <path
           id="path32"
           d="M-255.5 -133 L404.5 -133 L404.5 366.5 L-255.5 366.5 L-255.5 -133 Z" />
      </clipPath>
    </defs>
  </defs>
  <g
     id="g52"
     style="font-weight:bold;font-family:sans-serif;fill:#c0c0c0;fill-opacity:0.50199998;stroke:#c0c0c0;stroke-width:2;stroke-opacity:0.50199998;shape-rendering:crispEdges;text-rendering:geometricPrecision"
     transform="matrix(1.3333,0,0,1.3333,6.6665,6.6665)">
    <rect
       clip-path="url(#clipPath4)"
       id="rect54"
       height="78"
       style="stroke:none"
       width="222"
       y="117"
       x="200" />
    <rect
       clip-path="url(#clipPath4)"
       id="rect56"
       height="78"
       style="fill:none"
       width="222"
       y="117"
       x="200" />
  </g>
  <g
     id="g58"
     style="font-weight:bold;font-family:sans-serif;fill:url(#linearGradient3414);stroke:url(#linearGradient3416);stroke-width:2;shape-rendering:crispEdges;text-rendering:geometricPrecision"
     transform="scale(1.3333,1.3333)">
    <rect
       clip-path="url(#clipPath2)"
       id="rect60"
       height="78"
       style="fill:url(#linearGradient3412);stroke:none"
       width="222"
       y="117"
       x="200" />
    <rect
       clip-path="url(#clipPath2)"
       id="rect62"
       height="78"
       style="fill:none;stroke:#000000"
       width="222"
       y="117"
       x="200" />
  </g>
  <g
     id="g64"
     transform="matrix(1.3333,0,0,1.3333,279.993,235.91077)"
     style="font-family:sans-serif;stroke-width:2;text-rendering:optimizeLegibility">
    <path
       inkscape:connector-curvature="0"
       clip-path="url(#clipPath5)"
       id="path66"
       style="stroke:none"
       d="m 5.5156,-7.5312 0,3.2656 3.2656,0 0,1 -3.2656,0 0,3.2656 -0.9844,0 0,-3.2656 -3.2656,0 0,-1 3.2656,0 0,-3.2656 0.9844,0 z m 13.666,1.1562 0,1.0312 q -0.4531,-0.2343 -0.9453,-0.3515 -0.4922,-0.1172 -1.0234,-0.1172 -0.7969,0 -1.2031,0.2422 -0.4063,0.2422 -0.4063,0.7422 0,0.375 0.2891,0.5859 0.289,0.211 1.164,0.3984 L 17.416,-3.75 q 1.1563,0.2344 1.6406,0.6875 0.4844,0.4531 0.4844,1.25 0,0.9219 -0.7265,1.4531 -0.7266,0.5313 -1.9922,0.5313 -0.5313,0 -1.1016,-0.1016 -0.5703,-0.1015 -1.1953,-0.3047 l 0,-1.125 q 0.5937,0.3125 1.1719,0.4688 0.5781,0.1562 1.1562,0.1562 0.75,0 1.1641,-0.2578 0.414,-0.2578 0.414,-0.7422 0,-0.4375 -0.2968,-0.6718 -0.2969,-0.2344 -1.2969,-0.4532 l -0.375,-0.0781 q -1,-0.2187 -1.4453,-0.6563 -0.4453,-0.4374 -0.4453,-1.1874 0,-0.9376 0.6562,-1.4376 0.6563,-0.5 1.8594,-0.5 0.5937,0 1.125,0.086 0.5312,0.0859 0.9687,0.2578 z m 6.7989,0.0625 0,1.0156 q -0.4688,-0.2656 -0.9219,-0.3906 -0.4531,-0.125 -0.9219,-0.125 -1.0625,0 -1.6406,0.6641 -0.5781,0.664 -0.5781,1.8672 0,1.2031 0.5781,1.8671 0.5781,0.6641 1.6406,0.6641 0.4688,0 0.9219,-0.125 Q 25.5117,-1 25.9805,-1.25 l 0,1 q -0.4532,0.2031 -0.9375,0.3125 -0.4844,0.1094 -1.0313,0.1094 -1.4844,0 -2.3594,-0.9297 -0.875,-0.9297 -0.875,-2.5234 0,-1.5938 0.8829,-2.5157 0.8828,-0.9219 2.4296,-0.9219 0.4844,0 0.961,0.1016 0.4765,0.1016 0.9297,0.3047 z m 7.332,2.3437 0,3.9688 -1.0781,0 0,-3.9219 q 0,-0.9375 -0.3672,-1.3984 -0.3672,-0.4609 -1.086,-0.4609 -0.875,0 -1.3828,0.5546 -0.5078,0.5547 -0.5078,1.5235 l 0,3.7031 -1.0781,0 0,-9.125 1.0781,0 0,3.5781 q 0.3906,-0.5937 0.9141,-0.8828 0.5234,-0.2891 1.2109,-0.2891 1.125,0 1.711,0.6954 0.5859,0.6953 0.5859,2.0546 z m 7.7617,0.4219 0,0.5157 -4.9687,0 q 0.0781,1.125 0.6797,1.7031 0.6015,0.5781 1.664,0.5781 0.625,0 1.211,-0.1484 0.5859,-0.1485 1.164,-0.461 l 0,1.0313 q -0.5937,0.2343 -1.2031,0.3672 -0.6094,0.1328 -1.2344,0.1328 -1.5625,0 -2.4844,-0.9141 -0.9218,-0.914 -0.9218,-2.4766 0,-1.6093 0.875,-2.5546 0.875,-0.9454 2.3437,-0.9454 1.3281,0 2.1016,0.8516 0.7734,0.8516 0.7734,2.3203 z M 39.9961,-3.875 q -0.0156,-0.875 -0.5,-1.4062 -0.4844,-0.5313 -1.2813,-0.5313 -0.9062,0 -1.4453,0.5156 -0.539,0.5157 -0.6172,1.4375 l 3.8438,-0.0156 z m 7.1641,-1.6875 0,-3.5625 1.0781,0 0,9.125 -1.0781,0 0,-0.9844 q -0.3438,0.5782 -0.8594,0.8672 -0.5156,0.2891 -1.25,0.2891 -1.1875,0 -1.9375,-0.9531 -0.75,-0.9532 -0.75,-2.5 0,-1.5469 0.75,-2.4922 0.75,-0.9454 1.9375,-0.9454 0.7344,0 1.25,0.2813 0.5156,0.2813 0.8594,0.875 z m -3.6719,2.2813 q 0,1.1874 0.4844,1.8671 0.4843,0.6797 1.3437,0.6797 0.8594,0 1.3516,-0.6797 0.4922,-0.6797 0.4922,-1.8671 0,-1.1876 -0.4922,-1.8594 -0.4922,-0.6719 -1.3516,-0.6719 -0.8594,0 -1.3437,0.6719 -0.4844,0.6718 -0.4844,1.8594 z m 6.8515,0.6874 0,-3.9687 1.0782,0 0,3.9375 q 0,0.9219 0.3672,1.3906 0.3671,0.4688 1.0859,0.4688 0.875,0 1.3828,-0.5547 0.5078,-0.5547 0.5078,-1.5235 l 0,-3.7187 1.0781,0 0,6.5625 -1.0781,0 0,-1.0156 q -0.3906,0.6094 -0.9062,0.8984 -0.5157,0.2891 -1.2032,0.2891 -1.1406,0 -1.7265,-0.7031 -0.586,-0.7032 -0.586,-2.0626 z m 7.7149,-6.5312 1.0781,0 0,9.125 -1.0781,0 0,-9.125 z m 8.959,5.5781 0,0.5157 -4.9688,0 q 0.0781,1.125 0.6797,1.7031 0.6016,0.5781 1.6641,0.5781 0.625,0 1.2109,-0.1484 0.5859,-0.1485 1.1641,-0.461 l 0,1.0313 q -0.5938,0.2343 -1.2032,0.3672 -0.6093,0.1328 -1.2343,0.1328 -1.5625,0 -2.4844,-0.9141 -0.9219,-0.914 -0.9219,-2.4766 0,-1.6093 0.875,-2.5546 0.875,-0.9454 2.3438,-0.9454 1.3281,0 2.1015,0.8516 0.7735,0.8516 0.7735,2.3203 z M 65.9355,-3.875 q -0.0156,-0.875 -0.5,-1.4062 -0.4843,-0.5313 -1.2812,-0.5313 -0.9063,0 -1.4453,0.5156 -0.5391,0.5157 -0.6172,1.4375 l 3.8437,-0.0156 z m 7.836,5.875 0,0.8281 -6.25,0 0,-0.8281 6.25,0 z m 4.3281,-11.125 0,0.9062 -1.0312,0 q -0.5782,0 -0.8047,0.2344 -0.2266,0.2344 -0.2266,0.8438 l 0,0.5781 1.7813,0 0,0.8437 -1.7813,0 0,5.7188 -1.0781,0 0,-5.7188 -1.0313,0 0,-0.8437 1.0313,0 0,-0.4531 q 0,-1.0938 0.5078,-1.6016 0.5078,-0.5078 1.6172,-0.5078 l 1.0156,0 z m 6.5215,5.5781 0,0.5157 -4.9688,0 q 0.0782,1.125 0.6797,1.7031 0.6016,0.5781 1.6641,0.5781 0.625,0 1.2109,-0.1484 0.586,-0.1485 1.1641,-0.461 l 0,1.0313 q -0.5938,0.2343 -1.2031,0.3672 -0.6094,0.1328 -1.2344,0.1328 -1.5625,0 -2.4844,-0.9141 -0.9219,-0.914 -0.9219,-2.4766 0,-1.6093 0.875,-2.5546 0.875,-0.9454 2.3438,-0.9454 1.3281,0 2.1016,0.8516 0.7734,0.8516 0.7734,2.3203 z M 83.543,-3.875 q -0.0157,-0.875 -0.5,-1.4062 -0.4844,-0.5313 -1.2813,-0.5313 -0.9062,0 -1.4453,0.5156 -0.5391,0.5157 -0.6172,1.4375 L 83.543,-3.875 Z m 3.914,-4.5469 0,1.8594 2.2188,0 0,0.8437 -2.2188,0 0,3.5626 q 0,0.7968 0.2188,1.0234 0.2187,0.2266 0.8906,0.2266 l 1.1094,0 0,0.9062 -1.1094,0 q -1.25,0 -1.7266,-0.4688 -0.4765,-0.4687 -0.4765,-1.6874 l 0,-3.5626 -0.7813,0 0,-0.8437 0.7813,0 0,-1.8594 1.0937,0 z m 8.3614,2.1094 0,1.0156 q -0.4688,-0.2656 -0.9219,-0.3906 -0.4531,-0.125 -0.9219,-0.125 -1.0625,0 -1.6406,0.6641 -0.5781,0.664 -0.5781,1.8672 0,1.2031 0.5781,1.8671 0.5781,0.6641 1.6406,0.6641 0.4688,0 0.9219,-0.125 Q 95.3496,-1 95.8184,-1.25 l 0,1 q -0.4532,0.2031 -0.9375,0.3125 -0.4844,0.1094 -1.0313,0.1094 -1.4844,0 -2.3594,-0.9297 -0.875,-0.9297 -0.875,-2.5234 0,-1.5938 0.8828,-2.5157 0.8829,-0.9219 2.4297,-0.9219 0.4844,0 0.961,0.1016 0.4765,0.1016 0.9297,0.3047 z m 7.332,2.3437 0,3.9688 -1.0781,0 0,-3.9219 q 0,-0.9375 -0.3672,-1.3984 -0.3672,-0.4609 -1.086,-0.4609 -0.875,0 -1.3828,0.5546 -0.5078,0.5547 -0.5078,1.5235 l 0,3.7031 -1.0781,0 0,-9.125 1.0781,0 0,3.5781 q 0.3906,-0.5937 0.9141,-0.8828 0.5234,-0.2891 1.2109,-0.2891 1.125,0 1.711,0.6954 0.5859,0.6953 0.5859,2.0546 z m 7.7617,0.4219 0,0.5157 -4.9687,0 q 0.0781,1.125 0.6796,1.7031 0.6016,0.5781 1.6641,0.5781 0.625,0 1.2109,-0.1484 0.586,-0.1485 1.1641,-0.461 l 0,1.0313 q -0.5937,0.2343 -1.2031,0.3672 -0.6094,0.1328 -1.2344,0.1328 -1.5625,0 -2.4844,-0.9141 -0.9218,-0.914 -0.9218,-2.4766 0,-1.6093 0.875,-2.5546 0.875,-0.9454 2.3437,-0.9454 1.3281,0 2.1016,0.8516 0.7734,0.8516 0.7734,2.3203 z M 109.834,-3.875 q -0.0156,-0.875 -0.5,-1.4062 -0.4844,-0.5313 -1.2813,-0.5313 -0.9062,0 -1.4453,0.5156 -0.539,0.5157 -0.6172,1.4375 l 3.8438,-0.0156 z m 6.6484,-1.6875 q -0.1875,-0.0937 -0.3984,-0.1484 -0.211,-0.0547 -0.4766,-0.0547 -0.9062,0 -1.3984,0.5937 -0.4922,0.5938 -0.4922,1.7188 l 0,3.4531 -1.0781,0 0,-6.5625 1.0781,0 0,1.0156 q 0.3437,-0.5937 0.8906,-0.8828 0.5469,-0.2891 1.3281,-0.2891 0.1094,0 0.2422,0.0157 0.1328,0.0156 0.2891,0.0469 l 0.0156,1.0937 z m 5.3086,-0.8125 0,1.0312 q -0.4531,-0.2343 -0.9453,-0.3515 -0.4922,-0.1172 -1.0234,-0.1172 -0.7969,0 -1.2032,0.2422 -0.4062,0.2422 -0.4062,0.7422 0,0.375 0.2891,0.5859 0.289,0.211 1.164,0.3984 l 0.3594,0.0938 q 1.1562,0.2344 1.6406,0.6875 0.4844,0.4531 0.4844,1.25 0,0.9219 -0.7266,1.4531 -0.7265,0.5313 -1.9922,0.5313 -0.5312,0 -1.1015,-0.1016 -0.5703,-0.1015 -1.1953,-0.3047 l 0,-1.125 q 0.5937,0.3125 1.1718,0.4688 0.5782,0.1562 1.1563,0.1562 0.75,0 1.1641,-0.2578 0.414,-0.2578 0.414,-0.7422 0,-0.4375 -0.2969,-0.6718 -0.2968,-0.2344 -1.2968,-0.4532 l -0.375,-0.0781 q -1,-0.2187 -1.4453,-0.6563 -0.4454,-0.4374 -0.4454,-1.1874 0,-0.9376 0.6563,-1.4376 0.6562,-0.5 1.8594,-0.5 0.5937,0 1.125,0.086 0.5312,0.0859 0.9687,0.2578 z m 4.6582,-2.7344 q -0.7812,1.3438 -1.164,2.6641 -0.3829,1.3203 -0.3829,2.6797 0,1.3437 0.3829,2.6718 0.3828,1.3282 1.164,2.6719 l -0.9375,0 q -0.875,-1.375 -1.3125,-2.7031 -0.4375,-1.3281 -0.4375,-2.6406 0,-1.3125 0.4375,-2.6328 0.4375,-1.3204 1.3125,-2.711 l 0.9375,0 z m 1.9317,0 0.9375,0 q 0.875,1.3906 1.3125,2.711 0.4375,1.3203 0.4375,2.6328 0,1.3125 -0.4375,2.6406 -0.4375,1.3281 -1.3125,2.7031 l -0.9375,0 q 0.7656,-1.3437 1.1562,-2.6719 0.3906,-1.3281 0.3906,-2.6718 0,-1.3594 -0.3906,-2.6797 -0.3906,-1.3203 -1.1562,-2.6641 z m 8.9336,7.625 1.2343,0 0,1.4844 -1.2343,0 0,-1.4844 z m 0,-4.7187 1.2343,0 0,1.4843 -1.2343,0 0,-1.4843 z m 12.2949,2.9219 q 0,-1.1876 -0.4922,-1.8594 -0.4922,-0.6719 -1.336,-0.6719 -0.8593,0 -1.3515,0.6719 -0.4922,0.6718 -0.4922,1.8594 0,1.1874 0.4922,1.8671 0.4922,0.6797 1.3515,0.6797 0.8438,0 1.336,-0.6797 0.4922,-0.6797 0.4922,-1.8671 z m -3.6719,-2.2813 q 0.3437,-0.5937 0.8594,-0.875 0.5156,-0.2813 1.2343,-0.2813 1.2032,0 1.9532,0.9454 0.75,0.9453 0.75,2.4922 0,1.5468 -0.75,2.5 -0.75,0.9531 -1.9532,0.9531 -0.7187,0 -1.2343,-0.2891 -0.5157,-0.289 -0.8594,-0.8672 l 0,0.9844 -1.0781,0 0,-9.125 1.0781,0 0,3.5625 z m 9.1172,-0.25 q -0.8594,0 -1.3672,0.6797 -0.5078,0.6797 -0.5078,1.8516 0,1.1874 0.5,1.8593 0.5,0.6719 1.375,0.6719 0.8594,0 1.3672,-0.6797 0.5078,-0.6797 0.5078,-1.8515 0,-1.1563 -0.5078,-1.8438 -0.5078,-0.6875 -1.3672,-0.6875 z m 0,-0.9063 q 1.4062,0 2.2109,0.9141 0.8047,0.9141 0.8047,2.5235 0,1.6093 -0.8047,2.5312 -0.8047,0.9219 -2.2109,0.9219 -1.4063,0 -2.2109,-0.9219 -0.8047,-0.9219 -0.8047,-2.5312 0,-1.6094 0.8047,-2.5235 0.8046,-0.9141 2.2109,-0.9141 z m 7.3418,0.9063 q -0.8594,0 -1.3672,0.6797 -0.5078,0.6797 -0.5078,1.8516 0,1.1874 0.5,1.8593 0.5,0.6719 1.375,0.6719 0.8594,0 1.3672,-0.6797 0.5078,-0.6797 0.5078,-1.8515 0,-1.1563 -0.5078,-1.8438 -0.5078,-0.6875 -1.3672,-0.6875 z m 0,-0.9063 q 1.4062,0 2.2109,0.9141 0.8047,0.9141 0.8047,2.5235 0,1.6093 -0.8047,2.5312 -0.8047,0.9219 -2.2109,0.9219 -1.4063,0 -2.211,-0.9219 -0.8046,-0.9219 -0.8046,-2.5312 0,-1.6094 0.8046,-2.5235 0.8047,-0.9141 2.211,-0.9141 z m 4.7949,-2.4062 1.0781,0 0,9.125 -1.0781,0 0,-9.125 z m 8.959,5.5781 0,0.5157 -4.9688,0 q 0.0782,1.125 0.6797,1.7031 0.6016,0.5781 1.6641,0.5781 0.625,0 1.2109,-0.1484 0.586,-0.1485 1.1641,-0.461 l 0,1.0313 q -0.5938,0.2343 -1.2031,0.3672 -0.6094,0.1328 -1.2344,0.1328 -1.5625,0 -2.4844,-0.9141 -0.9219,-0.914 -0.9219,-2.4766 0,-1.6093 0.875,-2.5546 0.875,-0.9454 2.3438,-0.9454 1.3281,0 2.1016,0.8516 0.7734,0.8516 0.7734,2.3203 z m -1.0781,-0.3281 q -0.0157,-0.875 -0.5,-1.4062 -0.4844,-0.5313 -1.2813,-0.5313 -0.9062,0 -1.4453,0.5156 -0.5391,0.5157 -0.6172,1.4375 l 3.8438,-0.0156 z m 5.8203,0.5781 q -1.2969,0 -1.8047,0.2969 -0.5078,0.2969 -0.5078,1.0156 0,0.5782 0.3828,0.9141 0.3828,0.3359 1.0234,0.3359 0.9063,0 1.4453,-0.6328 0.5391,-0.6328 0.5391,-1.6953 l 0,-0.2344 -1.0781,0 z m 2.1562,-0.4531 0,3.75 -1.0781,0 0,-1 q -0.375,0.5938 -0.9219,0.8828 -0.5468,0.2891 -1.3437,0.2891 -1.0156,0 -1.6094,-0.5703 -0.5937,-0.5704 -0.5937,-1.5078 0,-1.1094 0.7421,-1.6719 0.7422,-0.5625 2.211,-0.5625 l 1.5156,0 0,-0.1094 q 0,-0.75 -0.4922,-1.1562 -0.4922,-0.4063 -1.3672,-0.4063 -0.5625,0 -1.1015,0.1406 -0.5391,0.1407 -1.0235,0.4063 l 0,-1 q 0.5938,-0.2344 1.1485,-0.3438 0.5547,-0.1094 1.0859,-0.1094 1.4219,0 2.125,0.7344 0.7031,0.7344 0.7031,2.2344 z m 7.6817,-0.2188 0,3.9688 -1.0782,0 0,-3.9219 q 0,-0.9375 -0.3671,-1.3984 -0.3672,-0.4609 -1.086,-0.4609 -0.875,0 -1.3828,0.5546 -0.5078,0.5547 -0.5078,1.5235 l 0,3.7031 -1.0781,0 0,-6.5625 1.0781,0 0,1.0156 q 0.3906,-0.5937 0.9141,-0.8828 0.5234,-0.2891 1.2109,-0.2891 1.125,0 1.7109,0.6954 0.586,0.6953 0.586,2.0546 z" />
  </g>
  <g
     id="g68"
     transform="matrix(1.3333,0,0,1.3333,279.993,206.6199)"
     style="font-family:sans-serif;stroke-width:2;text-rendering:optimizeLegibility">
    <path
       inkscape:connector-curvature="0"
       clip-path="url(#clipPath6)"
       id="path70"
       style="stroke:none"
       d="m 0.5938,-3.7656 3.1562,0 0,0.9531 -3.1562,0 0,-0.9531 z M 13.082,-5.5625 q -0.1875,-0.0937 -0.3984,-0.1484 -0.2109,-0.0547 -0.4766,-0.0547 -0.9062,0 -1.3984,0.5937 -0.4922,0.5938 -0.4922,1.7188 l 0,3.4531 -1.0781,0 0,-6.5625 1.0781,0 0,1.0156 q 0.3438,-0.5937 0.8906,-0.8828 0.5469,-0.2891 1.3282,-0.2891 0.1093,0 0.2421,0.0157 0.1329,0.0156 0.2891,0.0469 l 0.0156,1.0937 z m 6.7461,2.0156 0,0.5157 -4.9687,0 q 0.0781,1.125 0.6797,1.7031 0.6015,0.5781 1.664,0.5781 0.625,0 1.211,-0.1484 0.5859,-0.1485 1.164,-0.461 l 0,1.0313 q -0.5937,0.2343 -1.2031,0.3672 -0.6094,0.1328 -1.2344,0.1328 -1.5625,0 -2.4844,-0.9141 -0.9218,-0.914 -0.9218,-2.4766 0,-1.6093 0.875,-2.5546 0.875,-0.9454 2.3437,-0.9454 1.3281,0 2.1016,0.8516 0.7734,0.8516 0.7734,2.3203 z M 18.75,-3.875 q -0.0156,-0.875 -0.5,-1.4062 -0.4844,-0.5313 -1.2812,-0.5313 -0.9063,0 -1.4454,0.5156 -0.539,0.5157 -0.6172,1.4375 L 18.75,-3.875 Z m 7.5703,-2.4375 0,1.0156 q -0.4687,-0.2656 -0.9219,-0.3906 -0.4531,-0.125 -0.9218,-0.125 -1.0625,0 -1.6407,0.6641 -0.5781,0.664 -0.5781,1.8672 0,1.2031 0.5781,1.8671 0.5782,0.6641 1.6407,0.6641 0.4687,0 0.9218,-0.125 Q 25.8516,-1 26.3203,-1.25 l 0,1 q -0.4531,0.2031 -0.9375,0.3125 -0.4844,0.1094 -1.0312,0.1094 -1.4844,0 -2.3594,-0.9297 -0.875,-0.9297 -0.875,-2.5234 0,-1.5938 0.8828,-2.5157 0.8828,-0.9219 2.4297,-0.9219 0.4844,0 0.9609,0.1016 0.4766,0.1016 0.9297,0.3047 z m 1.8633,-0.25 1.0781,0 0,6.5625 -1.0781,0 0,-6.5625 z m 0,-2.5625 1.0781,0 0,1.375 -1.0781,0 0,-1.375 z m 4.3809,8.1406 0,3.4844 -1.0782,0 0,-9.0625 1.0782,0 0,1 q 0.3437,-0.5937 0.8593,-0.875 0.5157,-0.2813 1.2344,-0.2813 1.2031,0 1.9531,0.9454 0.75,0.9453 0.75,2.4922 0,1.5468 -0.75,2.5 -0.75,0.9531 -1.9531,0.9531 -0.7187,0 -1.2344,-0.2891 -0.5156,-0.289 -0.8593,-0.8672 z m 3.6718,-2.2968 q 0,-1.1876 -0.4922,-1.8594 -0.4921,-0.6719 -1.3359,-0.6719 -0.8594,0 -1.3516,0.6719 -0.4921,0.6718 -0.4921,1.8594 0,1.1874 0.4921,1.8671 0.4922,0.6797 1.3516,0.6797 0.8438,0 1.3359,-0.6797 0.4922,-0.6797 0.4922,-1.8671 z m 8.5235,-0.2657 0,0.5157 -4.9688,0 q 0.0781,1.125 0.6797,1.7031 0.6016,0.5781 1.6641,0.5781 0.625,0 1.2109,-0.1484 0.5859,-0.1485 1.1641,-0.461 l 0,1.0313 q -0.5938,0.2343 -1.2032,0.3672 -0.6093,0.1328 -1.2343,0.1328 -1.5625,0 -2.4844,-0.9141 -0.9219,-0.914 -0.9219,-2.4766 0,-1.6093 0.875,-2.5546 0.875,-0.9454 2.3438,-0.9454 1.3281,0 2.1015,0.8516 0.7735,0.8516 0.7735,2.3203 z M 43.6816,-3.875 q -0.0156,-0.875 -0.5,-1.4062 -0.4843,-0.5313 -1.2812,-0.5313 -0.9063,0 -1.4453,0.5156 -0.5391,0.5157 -0.6172,1.4375 l 3.8437,-0.0156 z m 7.0235,-2.5 0,1.0312 q -0.4531,-0.2343 -0.9453,-0.3515 -0.4922,-0.1172 -1.0235,-0.1172 -0.7968,0 -1.2031,0.2422 -0.4062,0.2422 -0.4062,0.7422 0,0.375 0.289,0.5859 0.2891,0.211 1.1641,0.3984 l 0.3594,0.0938 q 1.1562,0.2344 1.6406,0.6875 0.4844,0.4531 0.4844,1.25 0,0.9219 -0.7266,1.4531 -0.7266,0.5313 -1.9922,0.5313 -0.5312,0 -1.1016,-0.1016 -0.5703,-0.1015 -1.1953,-0.3047 l 0,-1.125 q 0.5938,0.3125 1.1719,0.4688 0.5781,0.1562 1.1563,0.1562 0.75,0 1.164,-0.2578 0.4141,-0.2578 0.4141,-0.7422 0,-0.4375 -0.2969,-0.6718 -0.2969,-0.2344 -1.2969,-0.4532 l -0.375,-0.0781 q -1,-0.2187 -1.4453,-0.6563 -0.4453,-0.4374 -0.4453,-1.1874 0,-0.9376 0.6563,-1.4376 0.6562,-0.5 1.8593,-0.5 0.5938,0 1.125,0.086 0.5313,0.0859 0.9688,0.2578 z M 57.7695,2 l 0,0.8281 -6.25,0 0,-0.8281 6.25,0 z m 1,-8.5625 1.0782,0 0,6.5625 -1.0782,0 0,-6.5625 z m 0,-2.5625 1.0782,0 0,1.375 -1.0782,0 0,-1.375 z m 7.6621,3.5625 0,-3.5625 1.0782,0 0,9.125 -1.0782,0 0,-0.9844 q -0.3437,0.5782 -0.8593,0.8672 -0.5157,0.2891 -1.25,0.2891 -1.1875,0 -1.9375,-0.9531 -0.75,-0.9532 -0.75,-2.5 0,-1.5469 0.75,-2.4922 0.75,-0.9454 1.9375,-0.9454 0.7343,0 1.25,0.2813 0.5156,0.2813 0.8593,0.875 z m -3.6718,2.2813 q 0,1.1874 0.4843,1.8671 0.4844,0.6797 1.3438,0.6797 0.8594,0 1.3516,-0.6797 0.4921,-0.6797 0.4921,-1.8671 0,-1.1876 -0.4921,-1.8594 -0.4922,-0.6719 -1.3516,-0.6719 -0.8594,0 -1.3438,0.6719 -0.4843,0.6718 -0.4843,1.8594 z M 74.7207,2 l 0,0.8281 -6.25,0 0,-0.8281 6.25,0 z m 1,-11.125 1.0781,0 0,9.125 -1.0781,0 0,-9.125 z m 3.334,2.5625 1.0781,0 0,6.5625 -1.0781,0 0,-6.5625 z m 0,-2.5625 1.0781,0 0,1.375 -1.0781,0 0,-1.375 z m 7.5215,2.75 0,1.0312 q -0.4532,-0.2343 -0.9453,-0.3515 -0.4922,-0.1172 -1.0235,-0.1172 -0.7969,0 -1.2031,0.2422 -0.4063,0.2422 -0.4063,0.7422 0,0.375 0.2891,0.5859 0.2891,0.211 1.1641,0.3984 l 0.3593,0.0938 q 1.1563,0.2344 1.6407,0.6875 0.4843,0.4531 0.4843,1.25 0,0.9219 -0.7265,1.4531 -0.7266,0.5313 -1.9922,0.5313 -0.5313,0 -1.1016,-0.1016 -0.5703,-0.1015 -1.1953,-0.3047 l 0,-1.125 q 0.5938,0.3125 1.1719,0.4688 0.5781,0.1562 1.1562,0.1562 0.75,0 1.1641,-0.2578 0.4141,-0.2578 0.4141,-0.7422 0,-0.4375 -0.2969,-0.6718 -0.2969,-0.2344 -1.2969,-0.4532 l -0.375,-0.0781 q -1,-0.2187 -1.4453,-0.6563 -0.4453,-0.4374 -0.4453,-1.1874 0,-0.9376 0.6562,-1.4376 0.6563,-0.5 1.8594,-0.5 0.5938,0 1.125,0.086 0.5313,0.0859 0.9688,0.2578 z m 3.1426,-2.0469 0,1.8594 2.2187,0 0,0.8437 -2.2187,0 0,3.5626 q 0,0.7968 0.2187,1.0234 0.2187,0.2266 0.8906,0.2266 l 1.1094,0 0,0.9062 -1.1094,0 q -1.25,0 -1.7265,-0.4688 -0.4766,-0.4687 -0.4766,-1.6874 l 0,-3.5626 -0.7812,0 0,-0.8437 0.7812,0 0,-1.8594 1.0938,0 z m 7.7226,6.9375 1.2344,0 0,1.4844 -1.2344,0 0,-1.4844 z m 0,-4.7187 1.2344,0 0,1.4843 -1.2344,0 0,-1.4843 z m 7.6231,-2.5469 1.1875,0 0,7.75 4.2656,0 0,1 -5.4531,0 0,-8.75 z m 6.6386,2.1875 1.0781,0 0,6.5625 -1.0781,0 0,-6.5625 z m 0,-2.5625 1.0781,0 0,1.375 -1.0781,0 0,-1.375 z m 7.5215,2.75 0,1.0312 q -0.4531,-0.2343 -0.9453,-0.3515 -0.4922,-0.1172 -1.0234,-0.1172 -0.7969,0 -1.2032,0.2422 -0.4062,0.2422 -0.4062,0.7422 0,0.375 0.289,0.5859 0.2891,0.211 1.1641,0.3984 l 0.3594,0.0938 q 1.1562,0.2344 1.6406,0.6875 0.4844,0.4531 0.4844,1.25 0,0.9219 -0.7266,1.4531 -0.7265,0.5313 -1.9922,0.5313 -0.5312,0 -1.1015,-0.1016 -0.5703,-0.1015 -1.1953,-0.3047 l 0,-1.125 q 0.5937,0.3125 1.1718,0.4688 0.5782,0.1562 1.1563,0.1562 0.75,0 1.164,-0.2578 0.4141,-0.2578 0.4141,-0.7422 0,-0.4375 -0.2969,-0.6718 -0.2968,-0.2344 -1.2968,-0.4532 l -0.375,-0.0781 q -1,-0.2187 -1.4454,-0.6563 -0.4453,-0.4374 -0.4453,-1.1874 0,-0.9376 0.6563,-1.4376 0.6562,-0.5 1.8594,-0.5 0.5937,0 1.125,0.086 0.5312,0.0859 0.9687,0.2578 z m 3.1426,-2.0469 0,1.8594 2.2187,0 0,0.8437 -2.2187,0 0,3.5626 q 0,0.7968 0.2187,1.0234 0.2188,0.2266 0.8907,0.2266 l 1.1093,0 0,0.9062 -1.1093,0 q -1.25,0 -1.7266,-0.4688 -0.4766,-0.4687 -0.4766,-1.6874 l 0,-3.5626 -0.7812,0 0,-0.8437 0.7812,0 0,-1.8594 1.0938,0 z" />
  </g>
  <g
     id="g72"
     transform="scale(1.3333,1.3333)"
     style="font-family:sans-serif;text-rendering:optimizeLegibility">
    <line
       clip-path="url(#clipPath2)"
       id="line74"
       y2="160.9375"
       style="fill:none"
       y1="160.9375"
       x2="422"
       x1="200" />
    <line
       clip-path="url(#clipPath2)"
       id="line76"
       y2="138.9688"
       style="fill:none"
       y1="138.9688"
       x2="422"
       x1="200" />
  </g>
  <g
     id="g78"
     transform="matrix(1.3333,0,0,1.3333,340.65815,177.3289)"
     style="font-weight:bold;font-family:sans-serif;text-rendering:optimizeLegibility">
    <path
       inkscape:connector-curvature="0"
       clip-path="url(#clipPath7)"
       id="path80"
       style="stroke:none"
       d="m 1.1094,-8.75 2.8594,0 2,4.6875 2,-4.6875 2.8593,0 0,8.75 -2.125,0 0,-6.4062 -2.0156,4.7187 -1.4375,0 -2.0156,-4.7187 0,6.4062 -2.125,0 0,-8.75 z m 11.8476,2.1875 2.0938,0 0,6.5625 -2.0938,0 0,-6.5625 z m 0,-2.5625 2.0938,0 0,1.7188 -2.0938,0 0,-1.7188 z M 23.6641,-4 l 0,4 -2.1094,0 0,-0.6562 0,-2.4063 q 0,-0.8437 -0.0391,-1.1641 -0.039,-0.3203 -0.1328,-0.4765 -0.125,-0.2031 -0.3359,-0.3203 -0.211,-0.1172 -0.4766,-0.1172 -0.6562,0 -1.0312,0.5078 -0.375,0.5078 -0.375,1.3984 l 0,3.2344 -2.0938,0 0,-6.5625 2.0938,0 0,0.9531 q 0.4687,-0.5625 1,-0.8359 0.5312,-0.2735 1.1875,-0.2735 1.125,0 1.7187,0.6954 0.5938,0.6953 0.5938,2.0234 z m 8.4961,0.7031 0,0.5938 -4.9063,0 q 0.0781,0.7343 0.5313,1.1093 0.4531,0.375 1.2812,0.375 0.6563,0 1.3516,-0.2031 0.6953,-0.2031 1.4297,-0.5937 l 0,1.6094 q -0.75,0.2812 -1.4922,0.4296 -0.7422,0.1485 -1.4922,0.1485 -1.7813,0 -2.7656,-0.9063 -0.9844,-0.9062 -0.9844,-2.5468 0,-1.5938 0.9687,-2.5157 0.9688,-0.9219 2.6719,-0.9219 1.5469,0 2.4766,0.9297 0.9297,0.9297 0.9297,2.4922 z M 30.0039,-4 q 0,-0.5938 -0.3516,-0.9609 -0.3515,-0.3672 -0.914,-0.3672 -0.6094,0 -0.9922,0.3437 Q 27.3633,-4.6406 27.2695,-4 l 2.7344,0 z m 8.6231,-0.7812 q -0.2813,-0.125 -0.5547,-0.1876 -0.2735,-0.0624 -0.5547,-0.0624 -0.7969,0 -1.2344,0.5234 -0.4375,0.5234 -0.4375,1.4766 l 0,3.0312 -2.0937,0 0,-6.5625 2.0937,0 0,1.0781 q 0.4063,-0.6406 0.9297,-0.9375 0.5234,-0.2969 1.2578,-0.2969 0.0938,0 0.2188,0.0079 0.125,0.0078 0.3593,0.039 l 0.0157,1.8907 z m 7.2148,-3.6876 0,1.8438 q -0.7188,-0.3125 -1.4063,-0.4766 -0.6875,-0.164 -1.2968,-0.164 -0.7969,0 -1.1875,0.2187 -0.3907,0.2188 -0.3907,0.6875 0,0.3594 0.2579,0.5547 0.2578,0.1953 0.9453,0.3359 l 0.9687,0.1876 q 1.4531,0.2968 2.0703,0.8906 0.6172,0.5937 0.6172,1.7031 0,1.4375 -0.8594,2.1484 -0.8593,0.711 -2.625,0.711 -0.8281,0 -1.664,-0.1563 -0.836,-0.1562 -1.6797,-0.4687 l 0,-1.9063 q 0.8437,0.4375 1.625,0.6641 0.7812,0.2265 1.5,0.2265 0.75,0 1.1406,-0.2421 0.3906,-0.2422 0.3906,-0.711 0,-0.4062 -0.2656,-0.625 -0.2656,-0.2187 -1.0625,-0.4062 l -0.875,-0.1875 q -1.3125,-0.2813 -1.9219,-0.8985 -0.6093,-0.6171 -0.6093,-1.6484 0,-1.3125 0.8437,-2.0156 0.8438,-0.7031 2.4219,-0.7031 0.7344,0 1.4922,0.1093 0.7578,0.1094 1.5703,0.3281 z m 7.7676,2.1094 0,1.7188 q -0.4219,-0.2969 -0.8594,-0.4375 -0.4375,-0.1407 -0.8906,-0.1407 -0.875,0 -1.3672,0.5079 Q 50,-4.2031 50,-3.2812 q 0,0.9218 0.4922,1.4374 0.4922,0.5157 1.3672,0.5157 0.4844,0 0.9297,-0.1485 0.4453,-0.1484 0.8203,-0.4296 l 0,1.7187 q -0.5,0.1719 -1,0.2656 -0.5,0.0938 -1.0156,0.0938 -1.7813,0 -2.7813,-0.9141 -1,-0.914 -1,-2.539 0,-1.625 1,-2.5313 1,-0.9063 2.7813,-0.9063 0.5156,0 1.0156,0.086 0.5,0.0859 1,0.2734 z M 62.0195,-4 l 0,4 -2.1093,0 0,-0.6562 0,-2.3907 q 0,-0.8593 -0.0391,-1.1797 -0.0391,-0.3203 -0.1328,-0.4765 -0.125,-0.2031 -0.336,-0.3203 -0.2109,-0.1172 -0.4765,-0.1172 -0.6563,0 -1.0313,0.5078 -0.375,0.5078 -0.375,1.3984 l 0,3.2344 -2.0937,0 0,-9.125 2.0937,0 0,3.5156 q 0.4688,-0.5625 1,-0.8359 0.5313,-0.2735 1.1875,-0.2735 1.125,0 1.7188,0.6954 0.5937,0.6953 0.5937,2.0234 z m 8.4961,0.7031 0,0.5938 -4.9062,0 q 0.0781,0.7343 0.5312,1.1093 0.4532,0.375 1.2813,0.375 0.6562,0 1.3515,-0.2031 0.6954,-0.2031 1.4297,-0.5937 l 0,1.6094 q -0.75,0.2812 -1.4922,0.4296 -0.7421,0.1485 -1.4921,0.1485 -1.7813,0 -2.7657,-0.9063 -0.9843,-0.9062 -0.9843,-2.5468 0,-1.5938 0.9687,-2.5157 0.9687,-0.9219 2.6719,-0.9219 1.5468,0 2.4765,0.9297 0.9297,0.9297 0.9297,2.4922 z M 68.3594,-4 q 0,-0.5938 -0.3516,-0.9609 -0.3516,-0.3672 -0.914,-0.3672 -0.6094,0 -0.9922,0.3437 Q 65.7188,-4.6406 65.625,-4 l 2.7344,0 z m 8.2011,-1.6094 0,-3.5156 2.1094,0 0,9.125 -2.1094,0 0,-0.9531 q -0.4218,0.5781 -0.9453,0.8515 -0.5234,0.2735 -1.2109,0.2735 -1.2188,0 -1.9922,-0.9688 -0.7734,-0.9687 -0.7734,-2.4843 0,-1.5157 0.7734,-2.4766 0.7734,-0.961 1.9922,-0.961 0.6719,0 1.2031,0.2735 0.5313,0.2734 0.9531,0.8359 z m -1.375,4.25 q 0.6719,0 1.0235,-0.4922 0.3515,-0.4922 0.3515,-1.4296 0,-0.9376 -0.3515,-1.4297 -0.3516,-0.4922 -1.0235,-0.4922 -0.6718,0 -1.0234,0.4922 -0.3516,0.4921 -0.3516,1.4297 0,0.9374 0.3516,1.4296 0.3516,0.4922 1.0234,0.4922 z m 5.4336,-1.2031 0,-4 2.1094,0 0,0.6563 q 0,0.5312 -0.0078,1.3359 -0.0078,0.8047 -0.0078,1.0703 0,0.7969 0.0469,1.1484 0.0468,0.3516 0.1406,0.5078 0.125,0.2032 0.3359,0.3126 0.211,0.1093 0.4766,0.1093 0.6562,0 1.0312,-0.5 0.375,-0.5 0.375,-1.4062 l 0,-3.2344 2.0938,0 0,6.5625 -2.0938,0 0,-0.9531 q -0.4687,0.5781 -1,0.8515 -0.5312,0.2735 -1.1718,0.2735 -1.1407,0 -1.7344,-0.6953 -0.5938,-0.6954 -0.5938,-2.0391 z m 8.6211,-6.5625 2.0938,0 0,9.125 -2.0938,0 0,-9.125 z m 10.6602,5.8281 0,0.5938 -4.9063,0 q 0.0782,0.7343 0.5313,1.1093 0.4531,0.375 1.2812,0.375 0.6563,0 1.3516,-0.2031 0.6953,-0.2031 1.4297,-0.5937 l 0,1.6094 q -0.75,0.2812 -1.4922,0.4296 -0.7422,0.1485 -1.4922,0.1485 -1.7812,0 -2.7656,-0.9063 -0.9844,-0.9062 -0.9844,-2.5468 0,-1.5938 0.9688,-2.5157 0.9687,-0.9219 2.6718,-0.9219 1.5469,0 2.4766,0.9297 0.9297,0.9297 0.9297,2.4922 z M 97.7441,-4 q 0,-0.5938 -0.3515,-0.9609 -0.3516,-0.3672 -0.9141,-0.3672 -0.6094,0 -0.9922,0.3437 Q 95.1035,-4.6406 95.0098,-4 l 2.7343,0 z m 8.6231,-0.7812 q -0.2813,-0.125 -0.5547,-0.1876 -0.2734,-0.0624 -0.5547,-0.0624 -0.7969,0 -1.2344,0.5234 -0.4375,0.5234 -0.4375,1.4766 l 0,3.0312 -2.0937,0 0,-6.5625 2.0937,0 0,1.0781 q 0.4063,-0.6406 0.9297,-0.9375 0.5235,-0.2969 1.2578,-0.2969 0.0938,0 0.2188,0.0079 0.125,0.0078 0.3594,0.039 l 0.0156,1.8907 z" />
  </g>
</svg>
