<?xml version="1.0" encoding="UTF-8" standalone="no"?>
<svg
   xmlns:dc="http://purl.org/dc/elements/1.1/"
   xmlns:cc="http://creativecommons.org/ns#"
   xmlns:rdf="http://www.w3.org/1999/02/22-rdf-syntax-ns#"
   xmlns:svg="http://www.w3.org/2000/svg"
   xmlns="http://www.w3.org/2000/svg"
   xmlns:xlink="http://www.w3.org/1999/xlink"
   xmlns:sodipodi="http://sodipodi.sourceforge.net/DTD/sodipodi-0.dtd"
   xmlns:inkscape="http://www.inkscape.org/namespaces/inkscape"
   style="fill-opacity:1; color-rendering:auto; color-interpolation:auto; stroke:black; text-rendering:auto; stroke-linecap:square; stroke-miterlimit:10; stroke-opacity:1; shape-rendering:auto; fill:black; stroke-dasharray:none; font-weight:normal; stroke-width:1; font-family:'Dialog'; font-style:normal; stroke-linejoin:miter; font-size:12; stroke-dashoffset:0; image-rendering:auto;"
   width="880"
   height="666"
   id="svg2"
   version="1.1"
   inkscape:version="0.91 r13725"
   sodipodi:docname="social_auth.svg">
  <metadata
     id="metadata91">
    <rdf:RDF>
      <cc:Work
         rdf:about="">
        <dc:format>image/svg+xml</dc:format>
        <dc:type
           rdf:resource="http://purl.org/dc/dcmitype/StillImage" />
      </cc:Work>
    </rdf:RDF>
  </metadata>
  <sodipodi:namedview
     pagecolor="#ffffff"
     bordercolor="#666666"
     borderopacity="1"
     objecttolerance="10"
     gridtolerance="10"
     guidetolerance="10"
     inkscape:pageopacity="0"
     inkscape:pageshadow="2"
     inkscape:window-width="640"
     inkscape:window-height="480"
     id="namedview89"
     showgrid="false"
     inkscape:zoom="0.35435435"
     inkscape:cx="440"
     inkscape:cy="333"
     inkscape:window-x="280"
     inkscape:window-y="248"
     inkscape:window-maximized="0"
     inkscape:current-layer="svg2" />
  <!--Generated by the Batik Graphics2D SVG Generator-->
  <defs
     id="genericDefs">
    <linearGradient
       inkscape:collect="always"
       xlink:href="#linearGradient1"
       id="linearGradient3419"
       gradientUnits="userSpaceOnUse"
       spreadMethod="pad"
       x1="221"
       y1="177"
       x2="429"
       y2="271" />
    <linearGradient
       inkscape:collect="always"
       xlink:href="#linearGradient1"
       id="linearGradient3421"
       gradientUnits="userSpaceOnUse"
       spreadMethod="pad"
       x1="221"
       y1="177"
       x2="429"
       y2="271" />
    <linearGradient
       inkscape:collect="always"
       xlink:href="#linearGradient1"
       id="linearGradient3423"
       gradientUnits="userSpaceOnUse"
       spreadMethod="pad"
       x1="221"
       y1="177"
       x2="429"
       y2="271" />
    <defs
       id="defs1">
      <linearGradient
         spreadMethod="pad"
         id="linearGradient1"
         y2="271"
         y1="177"
         x2="429"
         gradientUnits="userSpaceOnUse"
         x1="221">
        <stop
           id="stop9"
           offset="0%"
           style="stop-opacity:1; stop-color:white;" />
        <stop
           id="stop11"
           offset="100%"
           style="stop-opacity:1; stop-color:rgb(255,255,204);" />
      </linearGradient>
      <clipPath
         id="clipPath1"
         clipPathUnits="userSpaceOnUse">
        <path
           id="path14"
           d="M0 0 L880 0 L880 666 L0 666 L0 0 Z" />
      </clipPath>
      <clipPath
         id="clipPath2"
         clipPathUnits="userSpaceOnUse">
        <path
           id="path17"
           d="M0 0 L660 0 L660 499.5 L0 499.5 L0 0 Z" />
      </clipPath>
      <clipPath
         id="clipPath3"
         clipPathUnits="userSpaceOnUse">
        <path
           id="path20"
           d="M-20 -27 L640 -27 L640 472.5 L-20 472.5 L-20 -27 Z" />
      </clipPath>
      <clipPath
         id="clipPath4"
         clipPathUnits="userSpaceOnUse">
        <path
           id="path23"
           d="M-5 -5 L655 -5 L655 494.5 L-5 494.5 L-5 -5 Z" />
      </clipPath>
      <clipPath
         id="clipPath5"
         clipPathUnits="userSpaceOnUse">
        <path
           id="path26"
           d="M-231 -250.9062 L429 -250.9062 L429 248.5938 L-231 248.5938 L-231 -250.9062 Z" />
      </clipPath>
      <clipPath
         id="clipPath6"
         clipPathUnits="userSpaceOnUse">
        <path
           id="path29"
           d="M-231 -236.9375 L429 -236.9375 L429 262.5625 L-231 262.5625 L-231 -236.9375 Z" />
      </clipPath>
      <clipPath
         id="clipPath7"
         clipPathUnits="userSpaceOnUse">
        <path
           id="path32"
           d="M-231 -222.9688 L429 -222.9688 L429 276.5312 L-231 276.5312 L-231 -222.9688 Z" />
      </clipPath>
      <clipPath
         id="clipPath8"
         clipPathUnits="userSpaceOnUse">
        <path
           id="path35"
           d="M-287.5 -193 L372.5 -193 L372.5 306.5 L-287.5 306.5 L-287.5 -193 Z" />
      </clipPath>
    </defs>
  </defs>
  <g
     id="g55"
     style="font-weight:bold;font-family:sans-serif;fill:#c0c0c0;fill-opacity:0.50199998;stroke:#c0c0c0;stroke-width:2;stroke-opacity:0.50199998;shape-rendering:crispEdges;text-rendering:geometricPrecision"
     transform="matrix(1.3333,0,0,1.3333,6.6665,6.6665)">
    <rect
       clip-path="url(#clipPath4)"
       id="rect57"
       height="94"
       style="stroke:none"
       width="208"
       y="177"
       x="221" />
    <rect
       clip-path="url(#clipPath4)"
       id="rect59"
       height="94"
       style="fill:none"
       width="208"
       y="177"
       x="221" />
  </g>
  <g
     id="g61"
     style="font-weight:bold;font-family:sans-serif;fill:url(#linearGradient3421);stroke:url(#linearGradient3423);stroke-width:2;shape-rendering:crispEdges;text-rendering:geometricPrecision"
     transform="scale(1.3333,1.3333)">
    <rect
       clip-path="url(#clipPath2)"
       id="rect63"
       height="94"
       style="fill:url(#linearGradient3419);stroke:none"
       width="208"
       y="177"
       x="221" />
    <rect
       clip-path="url(#clipPath2)"
       id="rect65"
       height="94"
       style="fill:none;stroke:#000000"
       width="208"
       y="177"
       x="221" />
  </g>
  <g
     id="g67"
     transform="matrix(1.3333,0,0,1.3333,307.9923,334.53324)"
     style="font-family:sans-serif;stroke-width:2;text-rendering:optimizeLegibility">
    <path
       inkscape:connector-curvature="0"
       clip-path="url(#clipPath5)"
       id="path69"
       style="stroke:none"
       d="m 5.5156,-7.5312 0,3.2656 3.2656,0 0,1 -3.2656,0 0,3.2656 -0.9844,0 0,-3.2656 -3.2656,0 0,-1 3.2656,0 0,-3.2656 0.9844,0 z m 13.666,1.1562 0,1.0312 q -0.4531,-0.2343 -0.9453,-0.3515 -0.4922,-0.1172 -1.0234,-0.1172 -0.7969,0 -1.2031,0.2422 -0.4063,0.2422 -0.4063,0.7422 0,0.375 0.2891,0.5859 0.289,0.211 1.164,0.3984 L 17.416,-3.75 q 1.1563,0.2344 1.6406,0.6875 0.4844,0.4531 0.4844,1.25 0,0.9219 -0.7265,1.4531 -0.7266,0.5313 -1.9922,0.5313 -0.5313,0 -1.1016,-0.1016 -0.5703,-0.1015 -1.1953,-0.3047 l 0,-1.125 q 0.5937,0.3125 1.1719,0.4688 0.5781,0.1562 1.1562,0.1562 0.75,0 1.1641,-0.2578 0.414,-0.2578 0.414,-0.7422 0,-0.4375 -0.2968,-0.6718 -0.2969,-0.2344 -1.2969,-0.4532 l -0.375,-0.0781 q -1,-0.2187 -1.4453,-0.6563 -0.4453,-0.4374 -0.4453,-1.1874 0,-0.9376 0.6562,-1.4376 0.6563,-0.5 1.8594,-0.5 0.5937,0 1.125,0.086 0.5312,0.0859 0.9687,0.2578 z m 3.1426,-2.0469 0,1.8594 2.2188,0 0,0.8437 -2.2188,0 0,3.5626 q 0,0.7968 0.2188,1.0234 0.2187,0.2266 0.8906,0.2266 l 1.1094,0 0,0.9062 -1.1094,0 q -1.25,0 -1.7266,-0.4688 -0.4765,-0.4687 -0.4765,-1.6874 l 0,-3.5626 -0.7813,0 0,-0.8437 0.7813,0 0,-1.8594 1.0937,0 z m 6.6113,5.125 q -1.2968,0 -1.8046,0.2969 -0.5079,0.2969 -0.5079,1.0156 0,0.5782 0.3829,0.9141 0.3828,0.3359 1.0234,0.3359 0.9062,0 1.4453,-0.6328 Q 30.0137,-2 30.0137,-3.0625 l 0,-0.2344 -1.0782,0 z m 2.1563,-0.4531 0,3.75 -1.0781,0 0,-1 q -0.375,0.5938 -0.9219,0.8828 -0.5469,0.2891 -1.3438,0.2891 -1.0156,0 -1.6093,-0.5703 -0.5938,-0.5704 -0.5938,-1.5078 0,-1.1094 0.7422,-1.6719 0.7422,-0.5625 2.2109,-0.5625 l 1.5157,0 0,-0.1094 q 0,-0.75 -0.4922,-1.1562 -0.4922,-0.4063 -1.3672,-0.4063 -0.5625,0 -1.1016,0.1406 -0.539,0.1407 -1.0234,0.4063 l 0,-1 q 0.5937,-0.2344 1.1484,-0.3438 0.5547,-0.1094 1.086,-0.1094 1.4218,0 2.125,0.7344 0.7031,0.7344 0.7031,2.2344 z m 3.291,-4.6719 0,1.8594 2.2188,0 0,0.8437 -2.2188,0 0,3.5626 q 0,0.7968 0.2188,1.0234 0.2187,0.2266 0.8906,0.2266 l 1.1094,0 0,0.9062 -1.1094,0 q -1.25,0 -1.7266,-0.4688 -0.4765,-0.4687 -0.4765,-1.6874 l 0,-3.5626 -0.7813,0 0,-0.8437 0.7813,0 0,-1.8594 1.0937,0 z m 3.627,1.8594 1.0781,0 0,6.5625 -1.0781,0 0,-6.5625 z m 0,-2.5625 1.0781,0 0,1.375 -1.0781,0 0,-1.375 z m 8.0683,2.8125 0,1.0156 q -0.4687,-0.2656 -0.9219,-0.3906 -0.4531,-0.125 -0.9218,-0.125 -1.0625,0 -1.6406,0.6641 -0.5782,0.664 -0.5782,1.8672 0,1.2031 0.5782,1.8671 0.5781,0.6641 1.6406,0.6641 0.4687,0 0.9218,-0.125 Q 45.6094,-1 46.0781,-1.25 l 0,1 q -0.4531,0.2031 -0.9375,0.3125 -0.4844,0.1094 -1.0312,0.1094 -1.4844,0 -2.3594,-0.9297 -0.875,-0.9297 -0.875,-2.5234 0,-1.5938 0.8828,-2.5157 0.8828,-0.9219 2.4297,-0.9219 0.4844,0 0.9609,0.1016 0.4766,0.1016 0.9297,0.3047 z m 10.0059,2.9531 q 0,-1.1718 -0.4844,-1.8125 -0.4844,-0.6406 -1.3594,-0.6406 -0.8593,0 -1.3437,0.6406 -0.4844,0.6407 -0.4844,1.8125 0,1.1719 0.4844,1.8125 0.4844,0.6407 1.3437,0.6407 0.875,0 1.3594,-0.6407 0.4844,-0.6406 0.4844,-1.8125 z m 1.0781,2.5469 q 0,1.6719 -0.7422,2.4922 Q 55.6777,2.5 54.1309,2.5 53.5684,2.5 53.0605,2.4141 52.5527,2.3281 52.084,2.1562 l 0,-1.0468 q 0.4687,0.25 0.9375,0.375 0.4687,0.125 0.9375,0.125 1.0625,0 1.5937,-0.5547 Q 56.084,0.5 56.084,-0.625 l 0,-0.5312 Q 55.7402,-0.5781 55.2246,-0.2891 54.709,0 53.9746,0 q -1.2031,0 -1.9453,-0.9219 -0.7422,-0.9219 -0.7422,-2.4375 0,-1.5156 0.7422,-2.4375 0.7422,-0.9219 1.9453,-0.9219 0.7344,0 1.25,0.2891 0.5156,0.2891 0.8594,0.8672 l 0,-1 1.0781,0 0,5.75 z m 7.8359,-2.7344 0,0.5157 -4.9687,0 q 0.0781,1.125 0.6797,1.7031 0.6015,0.5781 1.664,0.5781 0.625,0 1.211,-0.1484 0.5859,-0.1485 1.164,-0.461 l 0,1.0313 q -0.5937,0.2343 -1.2031,0.3672 -0.6094,0.1328 -1.2344,0.1328 -1.5625,0 -2.4843,-0.9141 -0.9219,-0.914 -0.9219,-2.4766 0,-1.6093 0.875,-2.5546 0.875,-0.9454 2.3437,-0.9454 1.3282,0 2.1016,0.8516 0.7734,0.8516 0.7734,2.3203 z M 63.9199,-3.875 q -0.0156,-0.875 -0.5,-1.4062 -0.4844,-0.5313 -1.2812,-0.5313 -0.9063,0 -1.4453,0.5156 -0.5391,0.5157 -0.6172,1.4375 l 3.8437,-0.0156 z m 3.9141,-4.5469 0,1.8594 2.2187,0 0,0.8437 -2.2187,0 0,3.5626 q 0,0.7968 0.2187,1.0234 0.2188,0.2266 0.8907,0.2266 l 1.1093,0 0,0.9062 -1.1093,0 q -1.25,0 -1.7266,-0.4688 -0.4766,-0.4687 -0.4766,-1.6874 l 0,-3.5626 -0.7812,0 0,-0.8437 0.7812,0 0,-1.8594 1.0938,0 z M 76.4609,2 l 0,0.8281 -6.25,0 0,-0.8281 6.25,0 z m 1,-8.5625 1.0782,0 0,6.5625 -1.0782,0 0,-6.5625 z m 0,-2.5625 1.0782,0 0,1.375 -1.0782,0 0,-1.375 z m 7.6621,5.7656 q 0,-1.1718 -0.4843,-1.8125 -0.4844,-0.6406 -1.3594,-0.6406 -0.8594,0 -1.3438,0.6406 -0.4843,0.6407 -0.4843,1.8125 0,1.1719 0.4843,1.8125 0.4844,0.6407 1.3438,0.6407 0.875,0 1.3594,-0.6407 0.4843,-0.6406 0.4843,-1.8125 z m 1.0782,2.5469 q 0,1.6719 -0.7422,2.4922 Q 84.7168,2.5 83.1699,2.5 82.6074,2.5 82.0996,2.4141 81.5918,2.3281 81.123,2.1562 l 0,-1.0468 q 0.4688,0.25 0.9375,0.375 0.4688,0.125 0.9375,0.125 1.0625,0 1.5938,-0.5547 Q 85.123,0.5 85.123,-0.625 l 0,-0.5312 Q 84.7793,-0.5781 84.2637,-0.2891 83.748,0 83.0137,0 q -1.2032,0 -1.9453,-0.9219 -0.7422,-0.9219 -0.7422,-2.4375 0,-1.5156 0.7422,-2.4375 0.7421,-0.9219 1.9453,-0.9219 0.7343,0 1.25,0.2891 0.5156,0.2891 0.8593,0.8672 l 0,-1 1.0782,0 0,5.75 z M 93.4121,2 l 0,0.8281 -6.25,0 0,-0.8281 6.25,0 z m 3.9844,-5.2969 q -1.2969,0 -1.8047,0.2969 -0.5078,0.2969 -0.5078,1.0156 0,0.5782 0.3828,0.9141 0.3828,0.3359 1.0234,0.3359 0.9063,0 1.4453,-0.6328 Q 98.4746,-2 98.4746,-3.0625 l 0,-0.2344 -1.0781,0 z m 2.1562,-0.4531 0,3.75 -1.0781,0 0,-1 q -0.375,0.5938 -0.9219,0.8828 -0.5468,0.2891 -1.3437,0.2891 -1.0156,0 -1.6094,-0.5703 -0.5937,-0.5704 -0.5937,-1.5078 0,-1.1094 0.7421,-1.6719 0.7422,-0.5625 2.211,-0.5625 l 1.5156,0 0,-0.1094 q 0,-0.75 -0.4922,-1.1562 -0.4922,-0.4063 -1.3672,-0.4063 -0.5625,0 -1.1015,0.1406 -0.5391,0.1407 -1.0235,0.4063 l 0,-1 q 0.5938,-0.2344 1.1485,-0.3438 0.5547,-0.1094 1.0859,-0.1094 1.4219,0 2.125,0.7344 0.7031,0.7344 0.7031,2.2344 z m 2.1035,1.1562 0,-3.9687 1.0782,0 0,3.9375 q 0,0.9219 0.3672,1.3906 0.3672,0.4688 1.0859,0.4688 0.875,0 1.3828,-0.5547 0.5078,-0.5547 0.5078,-1.5235 l 0,-3.7187 1.0781,0 0,6.5625 -1.0781,0 0,-1.0156 q -0.3906,0.6094 -0.9062,0.8984 -0.5157,0.2891 -1.2031,0.2891 -1.1407,0 -1.7266,-0.7031 -0.586,-0.7032 -0.586,-2.0626 z m 8.793,-5.8281 0,1.8594 2.2188,0 0,0.8437 -2.2188,0 0,3.5626 q 0,0.7968 0.2188,1.0234 0.2187,0.2266 0.8906,0.2266 l 1.1094,0 0,0.9062 -1.1094,0 q -1.25,0 -1.7266,-0.4688 -0.4765,-0.4687 -0.4765,-1.6874 l 0,-3.5626 -0.7813,0 0,-0.8437 0.7813,0 0,-1.8594 1.0937,0 z m 9.0957,4.4531 0,3.9688 -1.0781,0 0,-3.9219 q 0,-0.9375 -0.3672,-1.3984 -0.3672,-0.4609 -1.0859,-0.4609 -0.875,0 -1.3828,0.5546 -0.5079,0.5547 -0.5079,1.5235 l 0,3.7031 -1.0781,0 0,-9.125 1.0781,0 0,3.5781 q 0.3907,-0.5937 0.9141,-0.8828 0.5234,-0.2891 1.2109,-0.2891 1.125,0 1.711,0.6954 0.5859,0.6953 0.5859,2.0546 z m 4.7305,-5.1406 q -0.7813,1.3438 -1.1641,2.6641 -0.3828,1.3203 -0.3828,2.6797 0,1.3437 0.3828,2.6718 0.3828,1.3282 1.1641,2.6719 l -0.9375,0 q -0.875,-1.375 -1.3125,-2.7031 -0.4375,-1.3281 -0.4375,-2.6406 0,-1.3125 0.4375,-2.6328 0.4375,-1.3204 1.3125,-2.711 l 0.9375,0 z m 1.9316,0 0.9375,0 q 0.875,1.3906 1.3125,2.711 0.4375,1.3203 0.4375,2.6328 0,1.3125 -0.4375,2.6406 -0.4375,1.3281 -1.3125,2.7031 l -0.9375,0 q 0.7657,-1.3437 1.1563,-2.6719 0.3906,-1.3281 0.3906,-2.6718 0,-1.3594 -0.3906,-2.6797 -0.3906,-1.3203 -1.1563,-2.6641 z m 8.9336,7.625 1.2344,0 0,1.4844 -1.2344,0 0,-1.4844 z m 0,-4.7187 1.2344,0 0,1.4843 -1.2344,0 0,-1.4843 z m 12.8731,-2.2657 0,1.1563 q -0.6719,-0.3125 -1.2735,-0.4766 -0.6015,-0.164 -1.1484,-0.164 -0.9688,0 -1.4922,0.375 -0.5234,0.375 -0.5234,1.0781 0,0.5781 0.3437,0.875 0.3438,0.2969 1.3281,0.4688 L 145.9512,-5 q 1.3281,0.25 1.9609,0.8828 0.6328,0.6328 0.6328,1.6953 0,1.2813 -0.8515,1.9375 -0.8516,0.6563 -2.5079,0.6563 -0.6093,0 -1.3125,-0.1407 -0.7031,-0.1406 -1.4531,-0.4218 l 0,-1.2188 q 0.7188,0.4063 1.4141,0.6094 0.6953,0.2031 1.3515,0.2031 1.0157,0 1.5704,-0.3984 0.5546,-0.3985 0.5546,-1.1328 0,-0.6407 -0.3984,-1.0078 -0.3984,-0.3672 -1.3047,-0.5391 l -0.7187,-0.1406 q -1.3282,-0.2656 -1.9141,-0.8282 -0.5859,-0.5624 -0.5859,-1.5624 0,-1.1719 0.8125,-1.836 0.8125,-0.664 2.25,-0.664 0.625,0 1.2578,0.1093 0.6328,0.1094 1.3047,0.3281 z m 3.3984,0.0469 0,1.8594 2.2188,0 0,0.8437 -2.2188,0 0,3.5626 q 0,0.7968 0.2188,1.0234 0.2187,0.2266 0.8906,0.2266 l 1.1094,0 0,0.9062 -1.1094,0 q -1.25,0 -1.7266,-0.4688 -0.4765,-0.4687 -0.4765,-1.6874 l 0,-3.5626 -0.7813,0 0,-0.8437 0.7813,0 0,-1.8594 1.0937,0 z m 7.4395,2.8594 q -0.1875,-0.0937 -0.3985,-0.1484 -0.2109,-0.0547 -0.4765,-0.0547 -0.9063,0 -1.3985,0.5937 -0.4922,0.5938 -0.4922,1.7188 l 0,3.4531 -1.0781,0 0,-6.5625 1.0781,0 0,1.0156 q 0.3438,-0.5937 0.8907,-0.8828 0.5468,-0.2891 1.3281,-0.2891 0.1094,0 0.2422,0.0157 0.1328,0.0156 0.289,0.0469 l 0.0157,1.0937 z m 1.1211,-1 1.0781,0 0,6.5625 -1.0781,0 0,-6.5625 z m 0,-2.5625 1.0781,0 0,1.375 -1.0781,0 0,-1.375 z m 8.8027,5.1562 0,3.9688 -1.0781,0 0,-3.9219 q 0,-0.9375 -0.3672,-1.3984 -0.3672,-0.4609 -1.086,-0.4609 -0.875,0 -1.3828,0.5546 -0.5078,0.5547 -0.5078,1.5235 l 0,3.7031 -1.0781,0 0,-6.5625 1.0781,0 0,1.0156 q 0.3906,-0.5937 0.9141,-0.8828 0.5234,-0.2891 1.2109,-0.2891 1.125,0 1.711,0.6954 0.5859,0.6953 0.5859,2.0546 z m 6.4648,0.6094 q 0,-1.1718 -0.4843,-1.8125 -0.4844,-0.6406 -1.3594,-0.6406 -0.8594,0 -1.3438,0.6406 -0.4843,0.6407 -0.4843,1.8125 0,1.1719 0.4843,1.8125 0.4844,0.6407 1.3438,0.6407 0.875,0 1.3594,-0.6407 0.4843,-0.6406 0.4843,-1.8125 z m 1.0782,2.5469 q 0,1.6719 -0.7422,2.4922 Q 174.834,2.5 173.2871,2.5 q -0.5625,0 -1.0703,-0.0859 -0.5078,-0.086 -0.9766,-0.2579 l 0,-1.0468 q 0.4688,0.25 0.9375,0.375 0.4688,0.125 0.9375,0.125 1.0625,0 1.5938,-0.5547 0.5312,-0.5547 0.5312,-1.6797 l 0,-0.5312 q -0.3437,0.5781 -0.8593,0.8671 Q 173.8652,0 173.1309,0 q -1.2032,0 -1.9454,-0.9219 -0.7421,-0.9219 -0.7421,-2.4375 0,-1.5156 0.7421,-2.4375 0.7422,-0.9219 1.9454,-0.9219 0.7343,0 1.25,0.2891 0.5156,0.2891 0.8593,0.8672 l 0,-1 1.0782,0 0,5.75 z" />
  </g>
  <g
     id="g71"
     transform="matrix(1.3333,0,0,1.3333,307.9923,315.90877)"
     style="font-family:sans-serif;stroke-width:2;text-rendering:optimizeLegibility">
    <path
       inkscape:connector-curvature="0"
       clip-path="url(#clipPath6)"
       id="path73"
       style="stroke:none"
       d="m 5.5156,-7.5312 0,3.2656 3.2656,0 0,1 -3.2656,0 0,3.2656 -0.9844,0 0,-3.2656 -3.2656,0 0,-1 3.2656,0 0,-3.2656 0.9844,0 z m 13.666,1.1562 0,1.0312 q -0.4531,-0.2343 -0.9453,-0.3515 -0.4922,-0.1172 -1.0234,-0.1172 -0.7969,0 -1.2031,0.2422 -0.4063,0.2422 -0.4063,0.7422 0,0.375 0.2891,0.5859 0.289,0.211 1.164,0.3984 L 17.416,-3.75 q 1.1563,0.2344 1.6406,0.6875 0.4844,0.4531 0.4844,1.25 0,0.9219 -0.7265,1.4531 -0.7266,0.5313 -1.9922,0.5313 -0.5313,0 -1.1016,-0.1016 -0.5703,-0.1015 -1.1953,-0.3047 l 0,-1.125 q 0.5937,0.3125 1.1719,0.4688 0.5781,0.1562 1.1562,0.1562 0.75,0 1.1641,-0.2578 0.414,-0.2578 0.414,-0.7422 0,-0.4375 -0.2968,-0.6718 -0.2969,-0.2344 -1.2969,-0.4532 l -0.375,-0.0781 q -1,-0.2187 -1.4453,-0.6563 -0.4453,-0.4374 -0.4453,-1.1874 0,-0.9376 0.6562,-1.4376 0.6563,-0.5 1.8594,-0.5 0.5937,0 1.125,0.086 0.5312,0.0859 0.9687,0.2578 z m 3.1426,-2.0469 0,1.8594 2.2188,0 0,0.8437 -2.2188,0 0,3.5626 q 0,0.7968 0.2188,1.0234 0.2187,0.2266 0.8906,0.2266 l 1.1094,0 0,0.9062 -1.1094,0 q -1.25,0 -1.7266,-0.4688 -0.4765,-0.4687 -0.4765,-1.6874 l 0,-3.5626 -0.7813,0 0,-0.8437 0.7813,0 0,-1.8594 1.0937,0 z m 6.6113,5.125 q -1.2968,0 -1.8046,0.2969 -0.5079,0.2969 -0.5079,1.0156 0,0.5782 0.3829,0.9141 0.3828,0.3359 1.0234,0.3359 0.9062,0 1.4453,-0.6328 Q 30.0137,-2 30.0137,-3.0625 l 0,-0.2344 -1.0782,0 z m 2.1563,-0.4531 0,3.75 -1.0781,0 0,-1 q -0.375,0.5938 -0.9219,0.8828 -0.5469,0.2891 -1.3438,0.2891 -1.0156,0 -1.6093,-0.5703 -0.5938,-0.5704 -0.5938,-1.5078 0,-1.1094 0.7422,-1.6719 0.7422,-0.5625 2.2109,-0.5625 l 1.5157,0 0,-0.1094 q 0,-0.75 -0.4922,-1.1562 -0.4922,-0.4063 -1.3672,-0.4063 -0.5625,0 -1.1016,0.1406 -0.539,0.1407 -1.0234,0.4063 l 0,-1 q 0.5937,-0.2344 1.1484,-0.3438 0.5547,-0.1094 1.086,-0.1094 1.4218,0 2.125,0.7344 0.7031,0.7344 0.7031,2.2344 z m 3.291,-4.6719 0,1.8594 2.2188,0 0,0.8437 -2.2188,0 0,3.5626 q 0,0.7968 0.2188,1.0234 0.2187,0.2266 0.8906,0.2266 l 1.1094,0 0,0.9062 -1.1094,0 q -1.25,0 -1.7266,-0.4688 -0.4765,-0.4687 -0.4765,-1.6874 l 0,-3.5626 -0.7813,0 0,-0.8437 0.7813,0 0,-1.8594 1.0937,0 z m 3.627,1.8594 1.0781,0 0,6.5625 -1.0781,0 0,-6.5625 z m 0,-2.5625 1.0781,0 0,1.375 -1.0781,0 0,-1.375 z m 8.0683,2.8125 0,1.0156 q -0.4687,-0.2656 -0.9219,-0.3906 -0.4531,-0.125 -0.9218,-0.125 -1.0625,0 -1.6406,0.6641 -0.5782,0.664 -0.5782,1.8672 0,1.2031 0.5782,1.8671 0.5781,0.6641 1.6406,0.6641 0.4687,0 0.9218,-0.125 Q 45.6094,-1 46.0781,-1.25 l 0,1 q -0.4531,0.2031 -0.9375,0.3125 -0.4844,0.1094 -1.0312,0.1094 -1.4844,0 -2.3594,-0.9297 -0.875,-0.9297 -0.875,-2.5234 0,-1.5938 0.8828,-2.5157 0.8828,-0.9219 2.4297,-0.9219 0.4844,0 0.9609,0.1016 0.4766,0.1016 0.9297,0.3047 z m 10.0059,2.9531 q 0,-1.1718 -0.4844,-1.8125 -0.4844,-0.6406 -1.3594,-0.6406 -0.8593,0 -1.3437,0.6406 -0.4844,0.6407 -0.4844,1.8125 0,1.1719 0.4844,1.8125 0.4844,0.6407 1.3437,0.6407 0.875,0 1.3594,-0.6407 0.4844,-0.6406 0.4844,-1.8125 z m 1.0781,2.5469 q 0,1.6719 -0.7422,2.4922 Q 55.6777,2.5 54.1309,2.5 53.5684,2.5 53.0605,2.4141 52.5527,2.3281 52.084,2.1562 l 0,-1.0468 q 0.4687,0.25 0.9375,0.375 0.4687,0.125 0.9375,0.125 1.0625,0 1.5937,-0.5547 Q 56.084,0.5 56.084,-0.625 l 0,-0.5312 Q 55.7402,-0.5781 55.2246,-0.2891 54.709,0 53.9746,0 q -1.2031,0 -1.9453,-0.9219 -0.7422,-0.9219 -0.7422,-2.4375 0,-1.5156 0.7422,-2.4375 0.7422,-0.9219 1.9453,-0.9219 0.7344,0 1.25,0.2891 0.5156,0.2891 0.8594,0.8672 l 0,-1 1.0781,0 0,5.75 z m 7.8359,-2.7344 0,0.5157 -4.9687,0 q 0.0781,1.125 0.6797,1.7031 0.6015,0.5781 1.664,0.5781 0.625,0 1.211,-0.1484 0.5859,-0.1485 1.164,-0.461 l 0,1.0313 q -0.5937,0.2343 -1.2031,0.3672 -0.6094,0.1328 -1.2344,0.1328 -1.5625,0 -2.4843,-0.9141 -0.9219,-0.914 -0.9219,-2.4766 0,-1.6093 0.875,-2.5546 0.875,-0.9454 2.3437,-0.9454 1.3282,0 2.1016,0.8516 0.7734,0.8516 0.7734,2.3203 z M 63.9199,-3.875 q -0.0156,-0.875 -0.5,-1.4062 -0.4844,-0.5313 -1.2812,-0.5313 -0.9063,0 -1.4453,0.5156 -0.5391,0.5157 -0.6172,1.4375 l 3.8437,-0.0156 z m 3.9141,-4.5469 0,1.8594 2.2187,0 0,0.8437 -2.2187,0 0,3.5626 q 0,0.7968 0.2187,1.0234 0.2188,0.2266 0.8907,0.2266 l 1.1093,0 0,0.9062 -1.1093,0 q -1.25,0 -1.7266,-0.4688 -0.4766,-0.4687 -0.4766,-1.6874 l 0,-3.5626 -0.7812,0 0,-0.8437 0.7812,0 0,-1.8594 1.0938,0 z M 76.4609,2 l 0,0.8281 -6.25,0 0,-0.8281 6.25,0 z m 2.0782,-10.4219 0,1.8594 2.2187,0 0,0.8437 -2.2187,0 0,3.5626 q 0,0.7968 0.2187,1.0234 0.2188,0.2266 0.8906,0.2266 l 1.1094,0 0,0.9062 -1.1094,0 q -1.25,0 -1.7265,-0.4688 -0.4766,-0.4687 -0.4766,-1.6874 l 0,-3.5626 -0.7812,0 0,-0.8437 0.7812,0 0,-1.8594 1.0938,0 z m 3.0019,1.8594 1.0781,0 1.3594,5.125 1.3281,-5.125 1.2813,0 1.3437,5.125 1.3438,-5.125 1.0781,0 L 88.6348,0 87.3691,0 85.9473,-5.375 84.541,0 83.2598,0 81.541,-6.5625 Z M 96.9805,2 l 0,0.8281 -6.25,0 0,-0.8281 6.25,0 z m 3.9843,-5.2969 q -1.2968,0 -1.8046,0.2969 -0.5079,0.2969 -0.5079,1.0156 0,0.5782 0.3829,0.9141 0.3828,0.3359 1.0234,0.3359 0.9062,0 1.4453,-0.6328 Q 102.043,-2 102.043,-3.0625 l 0,-0.2344 -1.0782,0 z m 2.1563,-0.4531 0,3.75 -1.0781,0 0,-1 q -0.375,0.5938 -0.9219,0.8828 -0.5469,0.2891 -1.3438,0.2891 -1.0156,0 -1.6093,-0.5703 -0.5938,-0.5704 -0.5938,-1.5078 0,-1.1094 0.7422,-1.6719 0.7422,-0.5625 2.2109,-0.5625 l 1.5157,0 0,-0.1094 q 0,-0.75 -0.4922,-1.1562 -0.4922,-0.4063 -1.3672,-0.4063 -0.5625,0 -1.1016,0.1406 -0.539,0.1407 -1.0234,0.4063 l 0,-1 q 0.5937,-0.2344 1.1484,-0.3438 0.5547,-0.1094 1.086,-0.1094 1.4218,0 2.125,0.7344 0.7031,0.7344 0.7031,2.2344 z m 2.1035,1.1562 0,-3.9687 1.0781,0 0,3.9375 q 0,0.9219 0.3672,1.3906 0.3672,0.4688 1.086,0.4688 0.875,0 1.3828,-0.5547 0.5078,-0.5547 0.5078,-1.5235 l 0,-3.7187 1.0781,0 0,6.5625 -1.0781,0 0,-1.0156 q -0.3906,0.6094 -0.9063,0.8984 -0.5156,0.2891 -1.2031,0.2891 -1.1406,0 -1.7266,-0.7031 -0.5859,-0.7032 -0.5859,-2.0626 z m 8.793,-5.8281 0,1.8594 2.2187,0 0,0.8437 -2.2187,0 0,3.5626 q 0,0.7968 0.2187,1.0234 0.2188,0.2266 0.8907,0.2266 l 1.1093,0 0,0.9062 -1.1093,0 q -1.25,0 -1.7266,-0.4688 -0.4766,-0.4687 -0.4766,-1.6874 l 0,-3.5626 -0.7812,0 0,-0.8437 0.7812,0 0,-1.8594 1.0938,0 z m 9.0957,4.4531 0,3.9688 -1.0781,0 0,-3.9219 q 0,-0.9375 -0.3672,-1.3984 -0.3672,-0.4609 -1.086,-0.4609 -0.875,0 -1.3828,0.5546 -0.5078,0.5547 -0.5078,1.5235 l 0,3.7031 -1.0781,0 0,-9.125 1.0781,0 0,3.5781 q 0.3906,-0.5937 0.9141,-0.8828 0.5234,-0.2891 1.2109,-0.2891 1.125,0 1.7109,0.6954 0.586,0.6953 0.586,2.0546 z m 4.7305,-5.1406 q -0.7813,1.3438 -1.1641,2.6641 -0.3828,1.3203 -0.3828,2.6797 0,1.3437 0.3828,2.6718 0.3828,1.3282 1.1641,2.6719 l -0.9376,0 q -0.875,-1.375 -1.3124,-2.7031 -0.4376,-1.3281 -0.4376,-2.6406 0,-1.3125 0.4376,-2.6328 0.4374,-1.3204 1.3124,-2.711 l 0.9376,0 z m 1.9316,0 0.9375,0 q 0.875,1.3906 1.3125,2.711 0.4375,1.3203 0.4375,2.6328 0,1.3125 -0.4375,2.6406 -0.4375,1.3281 -1.3125,2.7031 l -0.9375,0 q 0.7656,-1.3437 1.1562,-2.6719 0.3907,-1.3281 0.3907,-2.6718 0,-1.3594 -0.3907,-2.6797 -0.3906,-1.3203 -1.1562,-2.6641 z m 8.9336,7.625 1.2344,0 0,1.4844 -1.2344,0 0,-1.4844 z m 0,-4.7187 1.2344,0 0,1.4843 -1.2344,0 0,-1.4843 z m 12.873,-2.2657 0,1.1563 q -0.6718,-0.3125 -1.2734,-0.4766 -0.6016,-0.164 -1.1484,-0.164 -0.9688,0 -1.4922,0.375 -0.5235,0.375 -0.5235,1.0781 0,0.5781 0.3438,0.875 0.3437,0.2969 1.3281,0.4688 L 149.5195,-5 q 1.3282,0.25 1.961,0.8828 0.6328,0.6328 0.6328,1.6953 0,1.2813 -0.8516,1.9375 -0.8515,0.6563 -2.5078,0.6563 -0.6094,0 -1.3125,-0.1407 -0.7031,-0.1406 -1.4531,-0.4218 l 0,-1.2188 q 0.7187,0.4063 1.414,0.6094 0.6954,0.2031 1.3516,0.2031 1.0156,0 1.5703,-0.3984 0.5547,-0.3985 0.5547,-1.1328 0,-0.6407 -0.3984,-1.0078 -0.3985,-0.3672 -1.3047,-0.5391 l -0.7188,-0.1406 q -1.3281,-0.2656 -1.914,-0.8282 -0.586,-0.5624 -0.586,-1.5624 0,-1.1719 0.8125,-1.836 0.8125,-0.664 2.25,-0.664 0.625,0 1.2578,0.1093 0.6329,0.1094 1.3047,0.3281 z m 3.3985,0.0469 0,1.8594 2.2187,0 0,0.8437 -2.2187,0 0,3.5626 q 0,0.7968 0.2187,1.0234 0.2188,0.2266 0.8906,0.2266 l 1.1094,0 0,0.9062 -1.1094,0 q -1.25,0 -1.7265,-0.4688 -0.4766,-0.4687 -0.4766,-1.6874 l 0,-3.5626 -0.7812,0 0,-0.8437 0.7812,0 0,-1.8594 1.0938,0 z m 7.4394,2.8594 q -0.1875,-0.0937 -0.3984,-0.1484 -0.211,-0.0547 -0.4766,-0.0547 -0.9062,0 -1.3984,0.5937 -0.4922,0.5938 -0.4922,1.7188 l 0,3.4531 -1.0781,0 0,-6.5625 1.0781,0 0,1.0156 q 0.3437,-0.5937 0.8906,-0.8828 0.5469,-0.2891 1.3281,-0.2891 0.1094,0 0.2422,0.0157 0.1328,0.0156 0.2891,0.0469 l 0.0156,1.0937 z m 1.1211,-1 1.0781,0 0,6.5625 -1.0781,0 0,-6.5625 z m 0,-2.5625 1.0781,0 0,1.375 -1.0781,0 0,-1.375 z m 8.8028,5.1562 0,3.9688 -1.0782,0 0,-3.9219 q 0,-0.9375 -0.3672,-1.3984 -0.3672,-0.4609 -1.0859,-0.4609 -0.875,0 -1.3828,0.5546 -0.5078,0.5547 -0.5078,1.5235 l 0,3.7031 -1.0781,0 0,-6.5625 1.0781,0 0,1.0156 q 0.3906,-0.5937 0.914,-0.8828 0.5235,-0.2891 1.211,-0.2891 1.125,0 1.7109,0.6954 0.586,0.6953 0.586,2.0546 z m 6.4648,0.6094 q 0,-1.1718 -0.4844,-1.8125 -0.4844,-0.6406 -1.3594,-0.6406 -0.8593,0 -1.3437,0.6406 -0.4844,0.6407 -0.4844,1.8125 0,1.1719 0.4844,1.8125 0.4844,0.6407 1.3437,0.6407 0.875,0 1.3594,-0.6407 0.4844,-0.6406 0.4844,-1.8125 z m 1.0781,2.5469 q 0,1.6719 -0.7422,2.4922 -0.7422,0.8203 -2.289,0.8203 -0.5625,0 -1.0703,-0.0859 -0.5079,-0.086 -0.9766,-0.2579 l 0,-1.0468 q 0.4687,0.25 0.9375,0.375 0.4687,0.125 0.9375,0.125 1.0625,0 1.5937,-0.5547 0.5313,-0.5547 0.5313,-1.6797 l 0,-0.5312 q -0.3438,0.5781 -0.8594,0.8671 Q 177.4336,0 176.6992,0 q -1.2031,0 -1.9453,-0.9219 -0.7422,-0.9219 -0.7422,-2.4375 0,-1.5156 0.7422,-2.4375 0.7422,-0.9219 1.9453,-0.9219 0.7344,0 1.25,0.2891 0.5156,0.2891 0.8594,0.8672 l 0,-1 1.0781,0 0,5.75 z" />
  </g>
  <g
     id="g75"
     transform="matrix(1.3333,0,0,1.3333,307.9923,297.2843)"
     style="font-family:sans-serif;stroke-width:2;text-rendering:optimizeLegibility">
    <path
       inkscape:connector-curvature="0"
       clip-path="url(#clipPath7)"
       id="path77"
       style="stroke:none"
       d="m 5.5156,-7.5312 0,3.2656 3.2656,0 0,1 -3.2656,0 0,3.2656 -0.9844,0 0,-3.2656 -3.2656,0 0,-1 3.2656,0 0,-3.2656 0.9844,0 z m 13.666,1.1562 0,1.0312 q -0.4531,-0.2343 -0.9453,-0.3515 -0.4922,-0.1172 -1.0234,-0.1172 -0.7969,0 -1.2031,0.2422 -0.4063,0.2422 -0.4063,0.7422 0,0.375 0.2891,0.5859 0.289,0.211 1.164,0.3984 L 17.416,-3.75 q 1.1563,0.2344 1.6406,0.6875 0.4844,0.4531 0.4844,1.25 0,0.9219 -0.7265,1.4531 -0.7266,0.5313 -1.9922,0.5313 -0.5313,0 -1.1016,-0.1016 -0.5703,-0.1015 -1.1953,-0.3047 l 0,-1.125 q 0.5937,0.3125 1.1719,0.4688 0.5781,0.1562 1.1562,0.1562 0.75,0 1.1641,-0.2578 0.414,-0.2578 0.414,-0.7422 0,-0.4375 -0.2968,-0.6718 -0.2969,-0.2344 -1.2969,-0.4532 l -0.375,-0.0781 q -1,-0.2187 -1.4453,-0.6563 -0.4453,-0.4374 -0.4453,-1.1874 0,-0.9376 0.6562,-1.4376 0.6563,-0.5 1.8594,-0.5 0.5937,0 1.125,0.086 0.5312,0.0859 0.9687,0.2578 z m 3.1426,-2.0469 0,1.8594 2.2188,0 0,0.8437 -2.2188,0 0,3.5626 q 0,0.7968 0.2188,1.0234 0.2187,0.2266 0.8906,0.2266 l 1.1094,0 0,0.9062 -1.1094,0 q -1.25,0 -1.7266,-0.4688 -0.4765,-0.4687 -0.4765,-1.6874 l 0,-3.5626 -0.7813,0 0,-0.8437 0.7813,0 0,-1.8594 1.0937,0 z m 6.6113,5.125 q -1.2968,0 -1.8046,0.2969 -0.5079,0.2969 -0.5079,1.0156 0,0.5782 0.3829,0.9141 0.3828,0.3359 1.0234,0.3359 0.9062,0 1.4453,-0.6328 Q 30.0137,-2 30.0137,-3.0625 l 0,-0.2344 -1.0782,0 z m 2.1563,-0.4531 0,3.75 -1.0781,0 0,-1 q -0.375,0.5938 -0.9219,0.8828 -0.5469,0.2891 -1.3438,0.2891 -1.0156,0 -1.6093,-0.5703 -0.5938,-0.5704 -0.5938,-1.5078 0,-1.1094 0.7422,-1.6719 0.7422,-0.5625 2.2109,-0.5625 l 1.5157,0 0,-0.1094 q 0,-0.75 -0.4922,-1.1562 -0.4922,-0.4063 -1.3672,-0.4063 -0.5625,0 -1.1016,0.1406 -0.539,0.1407 -1.0234,0.4063 l 0,-1 q 0.5937,-0.2344 1.1484,-0.3438 0.5547,-0.1094 1.086,-0.1094 1.4218,0 2.125,0.7344 0.7031,0.7344 0.7031,2.2344 z m 3.291,-4.6719 0,1.8594 2.2188,0 0,0.8437 -2.2188,0 0,3.5626 q 0,0.7968 0.2188,1.0234 0.2187,0.2266 0.8906,0.2266 l 1.1094,0 0,0.9062 -1.1094,0 q -1.25,0 -1.7266,-0.4688 -0.4765,-0.4687 -0.4765,-1.6874 l 0,-3.5626 -0.7813,0 0,-0.8437 0.7813,0 0,-1.8594 1.0937,0 z m 3.627,1.8594 1.0781,0 0,6.5625 -1.0781,0 0,-6.5625 z m 0,-2.5625 1.0781,0 0,1.375 -1.0781,0 0,-1.375 z m 8.0683,2.8125 0,1.0156 q -0.4687,-0.2656 -0.9219,-0.3906 -0.4531,-0.125 -0.9218,-0.125 -1.0625,0 -1.6406,0.6641 -0.5782,0.664 -0.5782,1.8672 0,1.2031 0.5782,1.8671 0.5781,0.6641 1.6406,0.6641 0.4687,0 0.9218,-0.125 Q 45.6094,-1 46.0781,-1.25 l 0,1 q -0.4531,0.2031 -0.9375,0.3125 -0.4844,0.1094 -1.0312,0.1094 -1.4844,0 -2.3594,-0.9297 -0.875,-0.9297 -0.875,-2.5234 0,-1.5938 0.8828,-2.5157 0.8828,-0.9219 2.4297,-0.9219 0.4844,0 0.9609,0.1016 0.4766,0.1016 0.9297,0.3047 z m 10.0059,2.9531 q 0,-1.1718 -0.4844,-1.8125 -0.4844,-0.6406 -1.3594,-0.6406 -0.8593,0 -1.3437,0.6406 -0.4844,0.6407 -0.4844,1.8125 0,1.1719 0.4844,1.8125 0.4844,0.6407 1.3437,0.6407 0.875,0 1.3594,-0.6407 0.4844,-0.6406 0.4844,-1.8125 z m 1.0781,2.5469 q 0,1.6719 -0.7422,2.4922 Q 55.6777,2.5 54.1309,2.5 53.5684,2.5 53.0605,2.4141 52.5527,2.3281 52.084,2.1562 l 0,-1.0468 q 0.4687,0.25 0.9375,0.375 0.4687,0.125 0.9375,0.125 1.0625,0 1.5937,-0.5547 Q 56.084,0.5 56.084,-0.625 l 0,-0.5312 Q 55.7402,-0.5781 55.2246,-0.2891 54.709,0 53.9746,0 q -1.2031,0 -1.9453,-0.9219 -0.7422,-0.9219 -0.7422,-2.4375 0,-1.5156 0.7422,-2.4375 0.7422,-0.9219 1.9453,-0.9219 0.7344,0 1.25,0.2891 0.5156,0.2891 0.8594,0.8672 l 0,-1 1.0781,0 0,5.75 z m 7.8359,-2.7344 0,0.5157 -4.9687,0 q 0.0781,1.125 0.6797,1.7031 0.6015,0.5781 1.664,0.5781 0.625,0 1.211,-0.1484 0.5859,-0.1485 1.164,-0.461 l 0,1.0313 q -0.5937,0.2343 -1.2031,0.3672 -0.6094,0.1328 -1.2344,0.1328 -1.5625,0 -2.4843,-0.9141 -0.9219,-0.914 -0.9219,-2.4766 0,-1.6093 0.875,-2.5546 0.875,-0.9454 2.3437,-0.9454 1.3282,0 2.1016,0.8516 0.7734,0.8516 0.7734,2.3203 z M 63.9199,-3.875 q -0.0156,-0.875 -0.5,-1.4062 -0.4844,-0.5313 -1.2812,-0.5313 -0.9063,0 -1.4453,0.5156 -0.5391,0.5157 -0.6172,1.4375 l 3.8437,-0.0156 z m 3.9141,-4.5469 0,1.8594 2.2187,0 0,0.8437 -2.2187,0 0,3.5626 q 0,0.7968 0.2187,1.0234 0.2188,0.2266 0.8907,0.2266 l 1.1093,0 0,0.9062 -1.1093,0 q -1.25,0 -1.7266,-0.4688 -0.4766,-0.4687 -0.4766,-1.6874 l 0,-3.5626 -0.7812,0 0,-0.8437 0.7812,0 0,-1.8594 1.0938,0 z M 76.4609,2 l 0,0.8281 -6.25,0 0,-0.8281 6.25,0 z m 4.3282,-11.125 0,0.9062 -1.0313,0 q -0.5781,0 -0.8047,0.2344 -0.2265,0.2344 -0.2265,0.8438 l 0,0.5781 1.7812,0 0,0.8437 -1.7812,0 0,5.7188 -1.0782,0 0,-5.7188 -1.0312,0 0,-0.8437 1.0312,0 0,-0.4531 q 0,-1.0938 0.5078,-1.6016 0.5079,-0.5078 1.6172,-0.5078 l 1.0157,0 z m 5.6152,5.8438 q 0,-1.1876 -0.4922,-1.8594 -0.4922,-0.6719 -1.3359,-0.6719 -0.8594,0 -1.3516,0.6719 -0.4922,0.6718 -0.4922,1.8594 0,1.1874 0.4922,1.8671 0.4922,0.6797 1.3516,0.6797 0.8437,0 1.3359,-0.6797 0.4922,-0.6797 0.4922,-1.8671 z m -3.6719,-2.2813 q 0.3438,-0.5937 0.8594,-0.875 0.5156,-0.2813 1.2344,-0.2813 1.2031,0 1.9531,0.9454 0.75,0.9453 0.75,2.4922 0,1.5468 -0.75,2.5 -0.75,0.9531 -1.9531,0.9531 -0.7188,0 -1.2344,-0.2891 -0.5156,-0.289 -0.8594,-0.8672 l 0,0.9844 -1.0781,0 0,-9.125 1.0781,0 0,3.5625 z M 94.3027,2 l 0,0.8281 -6.25,0 0,-0.8281 6.25,0 z m 3.9844,-5.2969 q -1.2969,0 -1.8047,0.2969 -0.5078,0.2969 -0.5078,1.0156 0,0.5782 0.3828,0.9141 0.3828,0.3359 1.0235,0.3359 0.9062,0 1.4453,-0.6328 0.539,-0.6328 0.539,-1.6953 l 0,-0.2344 -1.0781,0 z m 2.1563,-0.4531 0,3.75 -1.0782,0 0,-1 q -0.375,0.5938 -0.9218,0.8828 -0.5469,0.2891 -1.3438,0.2891 -1.0156,0 -1.6094,-0.5703 -0.5937,-0.5704 -0.5937,-1.5078 0,-1.1094 0.7422,-1.6719 0.7422,-0.5625 2.2109,-0.5625 l 1.5156,0 0,-0.1094 q 0,-0.75 -0.4922,-1.1562 -0.4921,-0.4063 -1.3671,-0.4063 -0.5625,0 -1.1016,0.1406 -0.5391,0.1407 -1.0234,0.4063 l 0,-1 q 0.5937,-0.2344 1.1484,-0.3438 0.5547,-0.1094 1.0859,-0.1094 1.4219,0 2.125,0.7344 0.7032,0.7344 0.7032,2.2344 z m 2.1035,1.1562 0,-3.9687 1.0781,0 0,3.9375 q 0,0.9219 0.3672,1.3906 0.3672,0.4688 1.0859,0.4688 0.875,0 1.3828,-0.5547 0.5079,-0.5547 0.5079,-1.5235 l 0,-3.7187 1.0781,0 0,6.5625 -1.0781,0 0,-1.0156 q -0.3907,0.6094 -0.9063,0.8984 -0.5156,0.2891 -1.2031,0.2891 -1.1406,0 -1.7266,-0.7031 -0.5859,-0.7032 -0.5859,-2.0626 z m 8.7929,-5.8281 0,1.8594 2.2188,0 0,0.8437 -2.2188,0 0,3.5626 q 0,0.7968 0.2188,1.0234 0.2187,0.2266 0.8906,0.2266 l 1.1094,0 0,0.9062 -1.1094,0 q -1.25,0 -1.7265,-0.4688 -0.4766,-0.4687 -0.4766,-1.6874 l 0,-3.5626 -0.7813,0 0,-0.8437 0.7813,0 0,-1.8594 1.0937,0 z m 9.0957,4.4531 0,3.9688 -1.0781,0 0,-3.9219 q 0,-0.9375 -0.3672,-1.3984 -0.3672,-0.4609 -1.0859,-0.4609 -0.875,0 -1.3828,0.5546 -0.5078,0.5547 -0.5078,1.5235 l 0,3.7031 -1.0782,0 0,-9.125 1.0782,0 0,3.5781 q 0.3906,-0.5937 0.914,-0.8828 0.5235,-0.2891 1.211,-0.2891 1.125,0 1.7109,0.6954 0.5859,0.6953 0.5859,2.0546 z m 4.7305,-5.1406 q -0.7812,1.3438 -1.164,2.6641 -0.3829,1.3203 -0.3829,2.6797 0,1.3437 0.3829,2.6718 0.3828,1.3282 1.164,2.6719 l -0.9375,0 q -0.875,-1.375 -1.3125,-2.7031 -0.4375,-1.3281 -0.4375,-2.6406 0,-1.3125 0.4375,-2.6328 0.4375,-1.3204 1.3125,-2.711 l 0.9375,0 z m 1.9317,0 0.9375,0 q 0.875,1.3906 1.3125,2.711 0.4375,1.3203 0.4375,2.6328 0,1.3125 -0.4375,2.6406 -0.4375,1.3281 -1.3125,2.7031 l -0.9375,0 q 0.7656,-1.3437 1.1562,-2.6719 0.3906,-1.3281 0.3906,-2.6718 0,-1.3594 -0.3906,-2.6797 -0.3906,-1.3203 -1.1562,-2.6641 z m 8.9335,7.625 1.2344,0 0,1.4844 -1.2344,0 0,-1.4844 z m 0,-4.7187 1.2344,0 0,1.4843 -1.2344,0 0,-1.4843 z m 12.8731,-2.2657 0,1.1563 q -0.6719,-0.3125 -1.2734,-0.4766 -0.6016,-0.164 -1.1485,-0.164 -0.9687,0 -1.4922,0.375 -0.5234,0.375 -0.5234,1.0781 0,0.5781 0.3437,0.875 0.3438,0.2969 1.3282,0.4688 L 146.8418,-5 q 1.3281,0.25 1.9609,0.8828 0.6328,0.6328 0.6328,1.6953 0,1.2813 -0.8515,1.9375 -0.8516,0.6563 -2.5078,0.6563 -0.6094,0 -1.3125,-0.1407 -0.7032,-0.1406 -1.4532,-0.4218 l 0,-1.2188 q 0.7188,0.4063 1.4141,0.6094 0.6953,0.2031 1.3516,0.2031 1.0156,0 1.5703,-0.3984 0.5547,-0.3985 0.5547,-1.1328 0,-0.6407 -0.3985,-1.0078 -0.3984,-0.3672 -1.3047,-0.5391 l -0.7187,-0.1406 q -1.3281,-0.2656 -1.9141,-0.8282 -0.5859,-0.5624 -0.5859,-1.5624 0,-1.1719 0.8125,-1.836 0.8125,-0.664 2.25,-0.664 0.625,0 1.2578,0.1093 0.6328,0.1094 1.3047,0.3281 z m 3.3984,0.0469 0,1.8594 2.2188,0 0,0.8437 -2.2188,0 0,3.5626 q 0,0.7968 0.2188,1.0234 0.2187,0.2266 0.8906,0.2266 l 1.1094,0 0,0.9062 -1.1094,0 q -1.25,0 -1.7266,-0.4688 -0.4765,-0.4687 -0.4765,-1.6874 l 0,-3.5626 -0.7813,0 0,-0.8437 0.7813,0 0,-1.8594 1.0937,0 z m 7.4395,2.8594 q -0.1875,-0.0937 -0.3984,-0.1484 -0.211,-0.0547 -0.4766,-0.0547 -0.9063,0 -1.3984,0.5937 -0.4922,0.5938 -0.4922,1.7188 l 0,3.4531 -1.0782,0 0,-6.5625 1.0782,0 0,1.0156 q 0.3437,-0.5937 0.8906,-0.8828 0.5469,-0.2891 1.3281,-0.2891 0.1094,0 0.2422,0.0157 0.1328,0.0156 0.2891,0.0469 l 0.0156,1.0937 z m 1.1211,-1 1.0781,0 0,6.5625 -1.0781,0 0,-6.5625 z m 0,-2.5625 1.0781,0 0,1.375 -1.0781,0 0,-1.375 z m 8.8027,5.1562 0,3.9688 -1.0781,0 0,-3.9219 q 0,-0.9375 -0.3672,-1.3984 -0.3672,-0.4609 -1.0859,-0.4609 -0.875,0 -1.3828,0.5546 -0.5079,0.5547 -0.5079,1.5235 l 0,3.7031 -1.0781,0 0,-6.5625 1.0781,0 0,1.0156 q 0.3907,-0.5937 0.9141,-0.8828 0.5234,-0.2891 1.2109,-0.2891 1.125,0 1.711,0.6954 0.5859,0.6953 0.5859,2.0546 z m 6.4649,0.6094 q 0,-1.1718 -0.4844,-1.8125 -0.4844,-0.6406 -1.3594,-0.6406 -0.8594,0 -1.3437,0.6406 -0.4844,0.6407 -0.4844,1.8125 0,1.1719 0.4844,1.8125 0.4843,0.6407 1.3437,0.6407 0.875,0 1.3594,-0.6407 0.4844,-0.6406 0.4844,-1.8125 z m 1.0781,2.5469 q 0,1.6719 -0.7422,2.4922 -0.7422,0.8203 -2.2891,0.8203 -0.5625,0 -1.0703,-0.0859 -0.5078,-0.086 -0.9765,-0.2579 l 0,-1.0468 q 0.4687,0.25 0.9375,0.375 0.4687,0.125 0.9375,0.125 1.0625,0 1.5937,-0.5547 0.5313,-0.5547 0.5313,-1.6797 l 0,-0.5312 q -0.3438,0.5781 -0.8594,0.8671 Q 174.7559,0 174.0215,0 q -1.2031,0 -1.9453,-0.9219 -0.7422,-0.9219 -0.7422,-2.4375 0,-1.5156 0.7422,-2.4375 0.7422,-0.9219 1.9453,-0.9219 0.7344,0 1.25,0.2891 0.5156,0.2891 0.8594,0.8672 l 0,-1 1.0781,0 0,5.75 z" />
  </g>
  <g
     id="g79"
     transform="scale(1.3333,1.3333)"
     style="font-family:sans-serif;text-rendering:optimizeLegibility">
    <line
       clip-path="url(#clipPath2)"
       id="line81"
       y2="206.9688"
       style="fill:none"
       y1="206.9688"
       x2="429"
       x1="221" />
    <line
       clip-path="url(#clipPath2)"
       id="line83"
       y2="198.9688"
       style="fill:none"
       y1="198.9688"
       x2="429"
       x1="221" />
  </g>
  <g
     id="g85"
     transform="matrix(1.3333,0,0,1.3333,383.32375,257.3269)"
     style="font-weight:bold;font-family:sans-serif;text-rendering:optimizeLegibility">
    <path
       inkscape:connector-curvature="0"
       clip-path="url(#clipPath8)"
       id="path87"
       style="stroke:none"
       d="m 7.1875,-8.4688 0,1.8438 q -0.7187,-0.3125 -1.4063,-0.4766 -0.6874,-0.164 -1.2968,-0.164 -0.7969,0 -1.1875,0.2187 -0.3907,0.2188 -0.3907,0.6875 0,0.3594 0.2579,0.5547 0.2578,0.1953 0.9453,0.3359 l 0.9687,0.1876 q 1.4531,0.2968 2.0703,0.8906 0.6172,0.5937 0.6172,1.7031 0,1.4375 -0.8594,2.1484 -0.8593,0.711 -2.625,0.711 -0.8281,0 -1.664,-0.1563 -0.836,-0.1562 -1.6797,-0.4687 l 0,-1.9063 q 0.8437,0.4375 1.625,0.6641 0.7813,0.2265 1.5,0.2265 0.75,0 1.1406,-0.2421 0.3907,-0.2422 0.3907,-0.711 0,-0.4062 -0.2657,-0.625 Q 5.0625,-3.2656 4.2656,-3.4531 L 3.3906,-3.6406 Q 2.0781,-3.9219 1.4688,-4.5391 0.8594,-5.1562 0.8594,-6.1875 q 0,-1.3125 0.8437,-2.0156 0.8438,-0.7031 2.4219,-0.7031 0.7344,0 1.4922,0.1093 0.7578,0.1094 1.5703,0.3281 z m 5.5801,3.25 q -0.6875,0 -1.0547,0.5 -0.3672,0.5 -0.3672,1.4376 0,0.9531 0.3672,1.4531 0.3672,0.5 1.0547,0.5 0.6875,0 1.0547,-0.5 0.3672,-0.5 0.3672,-1.4531 0,-0.9376 -0.3672,-1.4376 -0.3672,-0.5 -1.0547,-0.5 z m 0,-1.5 q 1.7031,0 2.6562,0.9141 0.9532,0.9141 0.9532,2.5235 0,1.625 -0.9532,2.539 -0.9531,0.9141 -2.6562,0.9141 -1.6875,0 -2.6485,-0.9141 -0.9609,-0.914 -0.9609,-2.539 0,-1.6094 0.9609,-2.5235 0.961,-0.9141 2.6485,-0.9141 z m 10.4316,0.3594 0,1.7188 q -0.4219,-0.2969 -0.8594,-0.4375 -0.4375,-0.1407 -0.8906,-0.1407 -0.875,0 -1.3672,0.5079 -0.4922,0.5078 -0.4922,1.4297 0,0.9218 0.4922,1.4374 0.4922,0.5157 1.3672,0.5157 0.4844,0 0.9297,-0.1485 0.4453,-0.1484 0.8203,-0.4296 l 0,1.7187 q -0.5,0.1719 -1,0.2656 -0.5,0.0938 -1.0156,0.0938 -1.7813,0 -2.7813,-0.9141 -1,-0.914 -1,-2.539 0,-1.625 1,-2.5313 1,-0.9063 2.7813,-0.9063 0.5156,0 1.0156,0.086 0.5,0.0859 1,0.2734 z m 1.8164,-0.2031 2.0938,0 0,6.5625 -2.0938,0 0,-6.5625 z m 0,-2.5625 2.0938,0 0,1.7188 -2.0938,0 0,-1.7188 z m 7.0508,6.1719 q -0.6562,0 -0.9922,0.2187 -0.3359,0.2188 -0.3359,0.6563 0,0.4062 0.2734,0.6328 0.2735,0.2265 0.7422,0.2265 0.5938,0 1,-0.4296 0.4063,-0.4297 0.4063,-1.0704 l 0,-0.2343 -1.0938,0 z m 3.2031,-0.7969 0,3.75 -2.1093,0 0,-0.9688 q -0.4219,0.5938 -0.9532,0.8672 -0.5312,0.2735 -1.2812,0.2735 -1.0313,0 -1.6641,-0.5938 -0.6328,-0.5937 -0.6328,-1.5469 0,-1.1562 0.7969,-1.6953 0.7969,-0.539 2.4844,-0.539 l 1.25,0 0,-0.1563 q 0,-0.5 -0.3985,-0.7344 -0.3984,-0.2343 -1.2265,-0.2343 -0.6719,0 -1.25,0.1328 -0.5782,0.1328 -1.0782,0.4141 l 0,-1.6094 q 0.6719,-0.1563 1.3516,-0.2422 0.6797,-0.086 1.3516,-0.086 1.7812,0 2.5703,0.6954 0.789,0.6953 0.789,2.2734 z m 1.9571,-5.375 2.0937,0 0,9.125 -2.0937,0 0,-9.125 z m 9.5039,7.5312 -3.5157,0 L 42.6523,0 l -2.2656,0 3.2344,-8.75 2.6875,0 3.25,8.75 -2.2656,0 -0.5625,-1.5938 z m -2.9532,-1.625 2.3907,0 -1.2032,-3.4843 -1.1875,3.4843 z m 6.7715,0.6563 0,-4 2.1094,0 0,0.6563 q 0,0.5312 -0.0078,1.3359 -0.0078,0.8047 -0.0078,1.0703 0,0.7969 0.0469,1.1484 0.0468,0.3516 0.1406,0.5078 0.125,0.2032 0.3359,0.3126 0.211,0.1093 0.4766,0.1093 0.6562,0 1.0312,-0.5 0.375,-0.5 0.375,-1.4062 l 0,-3.2344 2.0938,0 0,6.5625 -2.0938,0 0,-0.9531 q -0.4687,0.5781 -1,0.8515 -0.5312,0.2735 -1.1718,0.2735 -1.1407,0 -1.7344,-0.6953 -0.5938,-0.6954 -0.5938,-2.0391 z m 10.9024,-5.8594 0,1.8594 2.1718,0 0,1.5 -2.1718,0 0,2.7813 q 0,0.4531 0.1797,0.6171 0.1796,0.1641 0.7265,0.1641 l 1.0781,0 0,1.5 -1.7968,0 q -1.25,0 -1.7657,-0.5156 -0.5156,-0.5156 -0.5156,-1.7656 l 0,-2.7813 -1.0469,0 0,-1.5 1.0469,0 0,-1.8594 2.0938,0 z M 71.5,-4 l 0,4 -2.1094,0 0,-0.6562 0,-2.3907 q 0,-0.8593 -0.039,-1.1797 -0.0391,-0.3203 -0.1328,-0.4765 -0.125,-0.2031 -0.336,-0.3203 -0.2109,-0.1172 -0.4766,-0.1172 -0.6562,0 -1.0312,0.5078 Q 67,-4.125 67,-3.2344 L 67,0 l -2.0938,0 0,-9.125 2.0938,0 0,3.5156 q 0.4688,-0.5625 1,-0.8359 0.5312,-0.2735 1.1875,-0.2735 1.125,0 1.7187,0.6954 Q 71.5,-5.3281 71.5,-4 Z" />
  </g>
</svg>
