<?xml version="1.0" encoding="UTF-8" standalone="no"?>
<svg
   xmlns:dc="http://purl.org/dc/elements/1.1/"
   xmlns:cc="http://creativecommons.org/ns#"
   xmlns:rdf="http://www.w3.org/1999/02/22-rdf-syntax-ns#"
   xmlns:svg="http://www.w3.org/2000/svg"
   xmlns="http://www.w3.org/2000/svg"
   xmlns:sodipodi="http://sodipodi.sourceforge.net/DTD/sodipodi-0.dtd"
   xmlns:inkscape="http://www.inkscape.org/namespaces/inkscape"
   style="fill-opacity:1; color-rendering:auto; color-interpolation:auto; stroke:black; text-rendering:auto; stroke-linecap:square; stroke-miterlimit:10; stroke-opacity:1; shape-rendering:auto; fill:black; stroke-dasharray:none; font-weight:normal; stroke-width:1; font-family:'Dialog'; font-style:normal; stroke-linejoin:miter; font-size:12; stroke-dashoffset:0; image-rendering:auto;"
   width="880"
   height="666"
   id="svg2"
   version="1.1"
   inkscape:version="0.91 r13725"
   sodipodi:docname="abs_raw_data.svg">
  <metadata
     id="metadata77">
    <rdf:RDF>
      <cc:Work
         rdf:about="">
        <dc:format>image/svg+xml</dc:format>
        <dc:type
           rdf:resource="http://purl.org/dc/dcmitype/StillImage" />
      </cc:Work>
    </rdf:RDF>
  </metadata>
  <sodipodi:namedview
     pagecolor="#ffffff"
     bordercolor="#666666"
     borderopacity="1"
     objecttolerance="10"
     gridtolerance="10"
     guidetolerance="10"
     inkscape:pageopacity="0"
     inkscape:pageshadow="2"
     inkscape:window-width="640"
     inkscape:window-height="480"
     id="namedview75"
     showgrid="false"
     inkscape:zoom="0.35435435"
     inkscape:cx="440"
     inkscape:cy="333"
     inkscape:window-x="0"
     inkscape:window-y="0"
     inkscape:window-maximized="0"
     inkscape:current-layer="g5" />
  <!--Generated by the Batik Graphics2D SVG Generator-->
  <defs
     id="genericDefs" />
  <g
     id="g5">
    <defs
       id="defs1">
      <linearGradient
         x1="200"
         gradientUnits="userSpaceOnUse"
         x2="389"
         y1="117"
         y2="175"
         id="linearGradient1"
         spreadMethod="pad">
        <stop
           style="stop-opacity:1; stop-color:white;"
           offset="0%"
           id="stop9" />
        <stop
           style="stop-opacity:1; stop-color:rgb(255,255,204);"
           offset="100%"
           id="stop11" />
      </linearGradient>
      <clipPath
         clipPathUnits="userSpaceOnUse"
         id="clipPath1">
        <path
           d="M0 0 L880 0 L880 666 L0 666 L0 0 Z"
           id="path14" />
      </clipPath>
      <clipPath
         clipPathUnits="userSpaceOnUse"
         id="clipPath2">
        <path
           d="M0 0 L660 0 L660 499.5 L0 499.5 L0 0 Z"
           id="path17" />
      </clipPath>
      <clipPath
         clipPathUnits="userSpaceOnUse"
         id="clipPath3">
        <path
           d="M-20 -27 L640 -27 L640 472.5 L-20 472.5 L-20 -27 Z"
           id="path20" />
      </clipPath>
      <clipPath
         clipPathUnits="userSpaceOnUse"
         id="clipPath4">
        <path
           d="M-5 -5 L655 -5 L655 494.5 L-5 494.5 L-5 -5 Z"
           id="path23" />
      </clipPath>
      <clipPath
         clipPathUnits="userSpaceOnUse"
         id="clipPath5">
        <path
           d="M-210 -154.9688 L450 -154.9688 L450 344.5312 L-210 344.5312 L-210 -154.9688 Z"
           id="path26" />
      </clipPath>
      <clipPath
         clipPathUnits="userSpaceOnUse"
         id="clipPath6">
        <path
           d="M-249.5 -133 L410.5 -133 L410.5 366.5 L-249.5 366.5 L-249.5 -133 Z"
           id="path29" />
      </clipPath>
    </defs>
    <g
       transform="matrix(1.3333,0,0,1.3333,0,0) translate(5,5)"
       style="fill-opacity:0.502; fill:rgb(192,192,192); text-rendering:geometricPrecision; font-family:sans-serif; shape-rendering:crispEdges; stroke:rgb(192,192,192); font-weight:bold; stroke-width:2; stroke-opacity:0.502;"
       id="g49">
      <rect
         x="200"
         y="117"
         width="189"
         style="clip-path:url(#clipPath4); stroke:none;"
         height="57.1875"
         id="rect51"
         clip-path="url(#clipPath4)" />
      <rect
         x="200"
         y="117"
         width="189"
         style="fill:none; clip-path:url(#clipPath4);"
         height="57.1875"
         id="rect53"
         clip-path="url(#clipPath4)" />
    </g>
    <g
       transform="matrix(1.3333,0,0,1.3333,0,0)"
       style="fill:url(#linearGradient1); text-rendering:geometricPrecision; font-family:sans-serif; shape-rendering:crispEdges; stroke:url(#linearGradient1); font-weight:bold; stroke-width:2;"
       id="g55">
      <rect
         x="200"
         y="117"
         width="189"
         style="clip-path:url(#clipPath2); stroke:none;"
         height="57.1875"
         id="rect57"
         clip-path="url(#clipPath2)" />
      <rect
         x="200"
         y="117"
         width="189"
         style="clip-path:url(#clipPath2); fill:none; stroke:black;"
         height="57.1875"
         id="rect59"
         clip-path="url(#clipPath2)" />
    </g>
    <g
       style="text-rendering:optimizeLegibility; stroke-width:2; font-family:sans-serif;"
       transform="matrix(1.3333,0,0,1.3333,0,0) translate(210,154.9688)"
       id="g61">
      <path
         d="M0.5938 -3.7656 L3.75 -3.7656 L3.75 -2.8125 L0.5938 -2.8125 L0.5938 -3.7656 ZM13.5977 -5.5625 L13.5977 -9.125 L14.6758 -9.125 L14.6758 0 L13.5977 0 L13.5977 -0.9844 Q13.2539 -0.4062 12.7383 -0.1172 Q12.2227 0.1719 11.4883 0.1719 Q10.3008 0.1719 9.5508 -0.7812 Q8.8008 -1.7344 8.8008 -3.2812 Q8.8008 -4.8281 9.5508 -5.7734 Q10.3008 -6.7188 11.4883 -6.7188 Q12.2227 -6.7188 12.7383 -6.4375 Q13.2539 -6.1562 13.5977 -5.5625 ZM9.9258 -3.2812 Q9.9258 -2.0938 10.4102 -1.4141 Q10.8945 -0.7344 11.7539 -0.7344 Q12.6133 -0.7344 13.1055 -1.4141 Q13.5977 -2.0938 13.5977 -3.2812 Q13.5977 -4.4688 13.1055 -5.1406 Q12.6133 -5.8125 11.7539 -5.8125 Q10.8945 -5.8125 10.4102 -5.1406 Q9.9258 -4.4688 9.9258 -3.2812 ZM19.8711 -3.2969 Q18.5742 -3.2969 18.0664 -3 Q17.5586 -2.7031 17.5586 -1.9844 Q17.5586 -1.4062 17.9414 -1.0703 Q18.3242 -0.7344 18.9648 -0.7344 Q19.8711 -0.7344 20.4102 -1.3672 Q20.9492 -2 20.9492 -3.0625 L20.9492 -3.2969 L19.8711 -3.2969 ZM22.0273 -3.75 L22.0273 0 L20.9492 0 L20.9492 -1 Q20.5742 -0.4062 20.0273 -0.1172 Q19.4805 0.1719 18.6836 0.1719 Q17.668 0.1719 17.0742 -0.3984 Q16.4805 -0.9688 16.4805 -1.9062 Q16.4805 -3.0156 17.2227 -3.5781 Q17.9648 -4.1406 19.4336 -4.1406 L20.9492 -4.1406 L20.9492 -4.25 Q20.9492 -5 20.457 -5.4062 Q19.9648 -5.8125 19.0898 -5.8125 Q18.5273 -5.8125 17.9883 -5.6719 Q17.4492 -5.5312 16.9648 -5.2656 L16.9648 -6.2656 Q17.5586 -6.5 18.1133 -6.6094 Q18.668 -6.7188 19.1992 -6.7188 Q20.6211 -6.7188 21.3242 -5.9844 Q22.0273 -5.25 22.0273 -3.75 ZM25.3184 -8.4219 L25.3184 -6.5625 L27.5371 -6.5625 L27.5371 -5.7188 L25.3184 -5.7188 L25.3184 -2.1562 Q25.3184 -1.3594 25.5371 -1.1328 Q25.7559 -0.9062 26.4277 -0.9062 L27.5371 -0.9062 L27.5371 0 L26.4277 0 Q25.1777 0 24.7012 -0.4688 Q24.2246 -0.9375 24.2246 -2.1562 L24.2246 -5.7188 L23.4434 -5.7188 L23.4434 -6.5625 L24.2246 -6.5625 L24.2246 -8.4219 L25.3184 -8.4219 ZM34.5703 -3.5469 L34.5703 -3.0312 L29.6016 -3.0312 Q29.6797 -1.9062 30.2812 -1.3281 Q30.8828 -0.75 31.9453 -0.75 Q32.5703 -0.75 33.1562 -0.8984 Q33.7422 -1.0469 34.3203 -1.3594 L34.3203 -0.3281 Q33.7266 -0.0938 33.1172 0.0391 Q32.5078 0.1719 31.8828 0.1719 Q30.3203 0.1719 29.3984 -0.7422 Q28.4766 -1.6562 28.4766 -3.2188 Q28.4766 -4.8281 29.3516 -5.7734 Q30.2266 -6.7188 31.6953 -6.7188 Q33.0234 -6.7188 33.7969 -5.8672 Q34.5703 -5.0156 34.5703 -3.5469 ZM33.4922 -3.875 Q33.4766 -4.75 32.9922 -5.2812 Q32.5078 -5.8125 31.7109 -5.8125 Q30.8047 -5.8125 30.2656 -5.2969 Q29.7266 -4.7812 29.6484 -3.8594 L33.4922 -3.875 ZM41.3281 2 L41.3281 2.8281 L35.0781 2.8281 L35.0781 2 L41.3281 2 ZM47.0625 -6.3125 L47.0625 -5.2969 Q46.5938 -5.5625 46.1406 -5.6875 Q45.6875 -5.8125 45.2188 -5.8125 Q44.1562 -5.8125 43.5781 -5.1484 Q43 -4.4844 43 -3.2812 Q43 -2.0781 43.5781 -1.4141 Q44.1562 -0.75 45.2188 -0.75 Q45.6875 -0.75 46.1406 -0.875 Q46.5938 -1 47.0625 -1.25 L47.0625 -0.25 Q46.6094 -0.0469 46.125 0.0625 Q45.6406 0.1719 45.0938 0.1719 Q43.6094 0.1719 42.7344 -0.7578 Q41.8594 -1.6875 41.8594 -3.2812 Q41.8594 -4.875 42.7422 -5.7969 Q43.625 -6.7188 45.1719 -6.7188 Q45.6562 -6.7188 46.1328 -6.6172 Q46.6094 -6.5156 47.0625 -6.3125 ZM52.7383 -5.5625 Q52.5508 -5.6562 52.3398 -5.7109 Q52.1289 -5.7656 51.8633 -5.7656 Q50.957 -5.7656 50.4648 -5.1719 Q49.9727 -4.5781 49.9727 -3.4531 L49.9727 0 L48.8945 0 L48.8945 -6.5625 L49.9727 -6.5625 L49.9727 -5.5469 Q50.3164 -6.1406 50.8633 -6.4297 Q51.4102 -6.7188 52.1914 -6.7188 Q52.3008 -6.7188 52.4336 -6.7031 Q52.5664 -6.6875 52.7227 -6.6562 L52.7383 -5.5625 ZM59.4844 -3.5469 L59.4844 -3.0312 L54.5156 -3.0312 Q54.5938 -1.9062 55.1953 -1.3281 Q55.7969 -0.75 56.8594 -0.75 Q57.4844 -0.75 58.0703 -0.8984 Q58.6562 -1.0469 59.2344 -1.3594 L59.2344 -0.3281 Q58.6406 -0.0938 58.0312 0.0391 Q57.4219 0.1719 56.7969 0.1719 Q55.2344 0.1719 54.3125 -0.7422 Q53.3906 -1.6562 53.3906 -3.2188 Q53.3906 -4.8281 54.2656 -5.7734 Q55.1406 -6.7188 56.6094 -6.7188 Q57.9375 -6.7188 58.7109 -5.8672 Q59.4844 -5.0156 59.4844 -3.5469 ZM58.4062 -3.875 Q58.3906 -4.75 57.9062 -5.2812 Q57.4219 -5.8125 56.625 -5.8125 Q55.7188 -5.8125 55.1797 -5.2969 Q54.6406 -4.7812 54.5625 -3.8594 L58.4062 -3.875 ZM64.2266 -3.2969 Q62.9297 -3.2969 62.4219 -3 Q61.9141 -2.7031 61.9141 -1.9844 Q61.9141 -1.4062 62.2969 -1.0703 Q62.6797 -0.7344 63.3203 -0.7344 Q64.2266 -0.7344 64.7656 -1.3672 Q65.3047 -2 65.3047 -3.0625 L65.3047 -3.2969 L64.2266 -3.2969 ZM66.3828 -3.75 L66.3828 0 L65.3047 0 L65.3047 -1 Q64.9297 -0.4062 64.3828 -0.1172 Q63.8359 0.1719 63.0391 0.1719 Q62.0234 0.1719 61.4297 -0.3984 Q60.8359 -0.9688 60.8359 -1.9062 Q60.8359 -3.0156 61.5781 -3.5781 Q62.3203 -4.1406 63.7891 -4.1406 L65.3047 -4.1406 L65.3047 -4.25 Q65.3047 -5 64.8125 -5.4062 Q64.3203 -5.8125 63.4453 -5.8125 Q62.8828 -5.8125 62.3438 -5.6719 Q61.8047 -5.5312 61.3203 -5.2656 L61.3203 -6.2656 Q61.9141 -6.5 62.4688 -6.6094 Q63.0234 -6.7188 63.5547 -6.7188 Q64.9766 -6.7188 65.6797 -5.9844 Q66.3828 -5.25 66.3828 -3.75 ZM69.6738 -8.4219 L69.6738 -6.5625 L71.8926 -6.5625 L71.8926 -5.7188 L69.6738 -5.7188 L69.6738 -2.1562 Q69.6738 -1.3594 69.8926 -1.1328 Q70.1113 -0.9062 70.7832 -0.9062 L71.8926 -0.9062 L71.8926 0 L70.7832 0 Q69.5332 0 69.0566 -0.4688 Q68.5801 -0.9375 68.5801 -2.1562 L68.5801 -5.7188 L67.7988 -5.7188 L67.7988 -6.5625 L68.5801 -6.5625 L68.5801 -8.4219 L69.6738 -8.4219 ZM78.9258 -3.5469 L78.9258 -3.0312 L73.957 -3.0312 Q74.0352 -1.9062 74.6367 -1.3281 Q75.2383 -0.75 76.3008 -0.75 Q76.9258 -0.75 77.5117 -0.8984 Q78.0977 -1.0469 78.6758 -1.3594 L78.6758 -0.3281 Q78.082 -0.0938 77.4727 0.0391 Q76.8633 0.1719 76.2383 0.1719 Q74.6758 0.1719 73.7539 -0.7422 Q72.832 -1.6562 72.832 -3.2188 Q72.832 -4.8281 73.707 -5.7734 Q74.582 -6.7188 76.0508 -6.7188 Q77.3789 -6.7188 78.1523 -5.8672 Q78.9258 -5.0156 78.9258 -3.5469 ZM77.8477 -3.875 Q77.832 -4.75 77.3477 -5.2812 Q76.8633 -5.8125 76.0664 -5.8125 Q75.1602 -5.8125 74.6211 -5.2969 Q74.082 -4.7812 74.0039 -3.8594 L77.8477 -3.875 ZM85.0117 -5.5625 L85.0117 -9.125 L86.0898 -9.125 L86.0898 0 L85.0117 0 L85.0117 -0.9844 Q84.668 -0.4062 84.1523 -0.1172 Q83.6367 0.1719 82.9023 0.1719 Q81.7148 0.1719 80.9648 -0.7812 Q80.2148 -1.7344 80.2148 -3.2812 Q80.2148 -4.8281 80.9648 -5.7734 Q81.7148 -6.7188 82.9023 -6.7188 Q83.6367 -6.7188 84.1523 -6.4375 Q84.668 -6.1562 85.0117 -5.5625 ZM81.3398 -3.2812 Q81.3398 -2.0938 81.8242 -1.4141 Q82.3086 -0.7344 83.168 -0.7344 Q84.0273 -0.7344 84.5195 -1.4141 Q85.0117 -2.0938 85.0117 -3.2812 Q85.0117 -4.4688 84.5195 -5.1406 Q84.0273 -5.8125 83.168 -5.8125 Q82.3086 -5.8125 81.8242 -5.1406 Q81.3398 -4.4688 81.3398 -3.2812 ZM93.3008 2 L93.3008 2.8281 L87.0508 2.8281 L87.0508 2 L93.3008 2 ZM98.6289 -5.5625 L98.6289 -9.125 L99.707 -9.125 L99.707 0 L98.6289 0 L98.6289 -0.9844 Q98.2852 -0.4062 97.7695 -0.1172 Q97.2539 0.1719 96.5195 0.1719 Q95.332 0.1719 94.582 -0.7812 Q93.832 -1.7344 93.832 -3.2812 Q93.832 -4.8281 94.582 -5.7734 Q95.332 -6.7188 96.5195 -6.7188 Q97.2539 -6.7188 97.7695 -6.4375 Q98.2852 -6.1562 98.6289 -5.5625 ZM94.957 -3.2812 Q94.957 -2.0938 95.4414 -1.4141 Q95.9258 -0.7344 96.7852 -0.7344 Q97.6445 -0.7344 98.1367 -1.4141 Q98.6289 -2.0938 98.6289 -3.2812 Q98.6289 -4.4688 98.1367 -5.1406 Q97.6445 -5.8125 96.7852 -5.8125 Q95.9258 -5.8125 95.4414 -5.1406 Q94.957 -4.4688 94.957 -3.2812 ZM104.9023 -3.2969 Q103.6055 -3.2969 103.0977 -3 Q102.5898 -2.7031 102.5898 -1.9844 Q102.5898 -1.4062 102.9727 -1.0703 Q103.3555 -0.7344 103.9961 -0.7344 Q104.9023 -0.7344 105.4414 -1.3672 Q105.9805 -2 105.9805 -3.0625 L105.9805 -3.2969 L104.9023 -3.2969 ZM107.0586 -3.75 L107.0586 0 L105.9805 0 L105.9805 -1 Q105.6055 -0.4062 105.0586 -0.1172 Q104.5117 0.1719 103.7148 0.1719 Q102.6992 0.1719 102.1055 -0.3984 Q101.5117 -0.9688 101.5117 -1.9062 Q101.5117 -3.0156 102.2539 -3.5781 Q102.9961 -4.1406 104.4648 -4.1406 L105.9805 -4.1406 L105.9805 -4.25 Q105.9805 -5 105.4883 -5.4062 Q104.9961 -5.8125 104.1211 -5.8125 Q103.5586 -5.8125 103.0195 -5.6719 Q102.4805 -5.5312 101.9961 -5.2656 L101.9961 -6.2656 Q102.5898 -6.5 103.1445 -6.6094 Q103.6992 -6.7188 104.2305 -6.7188 Q105.6523 -6.7188 106.3555 -5.9844 Q107.0586 -5.25 107.0586 -3.75 ZM110.3496 -8.4219 L110.3496 -6.5625 L112.5684 -6.5625 L112.5684 -5.7188 L110.3496 -5.7188 L110.3496 -2.1562 Q110.3496 -1.3594 110.5684 -1.1328 Q110.7871 -0.9062 111.459 -0.9062 L112.5684 -0.9062 L112.5684 0 L111.459 0 Q110.209 0 109.7324 -0.4688 Q109.2559 -0.9375 109.2559 -2.1562 L109.2559 -5.7188 L108.4746 -5.7188 L108.4746 -6.5625 L109.2559 -6.5625 L109.2559 -8.4219 L110.3496 -8.4219 ZM119.6016 -3.5469 L119.6016 -3.0312 L114.6328 -3.0312 Q114.7109 -1.9062 115.3125 -1.3281 Q115.9141 -0.75 116.9766 -0.75 Q117.6016 -0.75 118.1875 -0.8984 Q118.7734 -1.0469 119.3516 -1.3594 L119.3516 -0.3281 Q118.7578 -0.0938 118.1484 0.0391 Q117.5391 0.1719 116.9141 0.1719 Q115.3516 0.1719 114.4297 -0.7422 Q113.5078 -1.6562 113.5078 -3.2188 Q113.5078 -4.8281 114.3828 -5.7734 Q115.2578 -6.7188 116.7266 -6.7188 Q118.0547 -6.7188 118.8281 -5.8672 Q119.6016 -5.0156 119.6016 -3.5469 ZM118.5234 -3.875 Q118.5078 -4.75 118.0234 -5.2812 Q117.5391 -5.8125 116.7422 -5.8125 Q115.8359 -5.8125 115.2969 -5.2969 Q114.7578 -4.7812 114.6797 -3.8594 L118.5234 -3.875 ZM125.4551 -1.4844 L126.6895 -1.4844 L126.6895 0 L125.4551 0 L125.4551 -1.4844 ZM125.4551 -6.2031 L126.6895 -6.2031 L126.6895 -4.7188 L125.4551 -4.7188 L125.4551 -6.2031 ZM134.2656 -7.7812 L134.2656 -0.9688 L135.7031 -0.9688 Q137.5156 -0.9688 138.3516 -1.7891 Q139.1875 -2.6094 139.1875 -4.3906 Q139.1875 -6.1406 138.3516 -6.9609 Q137.5156 -7.7812 135.7031 -7.7812 L134.2656 -7.7812 ZM133.0781 -8.75 L135.5156 -8.75 Q138.0625 -8.75 139.25 -7.6953 Q140.4375 -6.6406 140.4375 -4.3906 Q140.4375 -2.125 139.2422 -1.0625 Q138.0469 0 135.5156 0 L133.0781 0 L133.0781 -8.75 ZM145.2559 -3.2969 Q143.959 -3.2969 143.4512 -3 Q142.9434 -2.7031 142.9434 -1.9844 Q142.9434 -1.4062 143.3262 -1.0703 Q143.709 -0.7344 144.3496 -0.7344 Q145.2559 -0.7344 145.7949 -1.3672 Q146.334 -2 146.334 -3.0625 L146.334 -3.2969 L145.2559 -3.2969 ZM147.4121 -3.75 L147.4121 0 L146.334 0 L146.334 -1 Q145.959 -0.4062 145.4121 -0.1172 Q144.8652 0.1719 144.0684 0.1719 Q143.0527 0.1719 142.459 -0.3984 Q141.8652 -0.9688 141.8652 -1.9062 Q141.8652 -3.0156 142.6074 -3.5781 Q143.3496 -4.1406 144.8184 -4.1406 L146.334 -4.1406 L146.334 -4.25 Q146.334 -5 145.8418 -5.4062 Q145.3496 -5.8125 144.4746 -5.8125 Q143.9121 -5.8125 143.373 -5.6719 Q142.834 -5.5312 142.3496 -5.2656 L142.3496 -6.2656 Q142.9434 -6.5 143.498 -6.6094 Q144.0527 -6.7188 144.584 -6.7188 Q146.0059 -6.7188 146.709 -5.9844 Q147.4121 -5.25 147.4121 -3.75 ZM150.7031 -8.4219 L150.7031 -6.5625 L152.9219 -6.5625 L152.9219 -5.7188 L150.7031 -5.7188 L150.7031 -2.1562 Q150.7031 -1.3594 150.9219 -1.1328 Q151.1406 -0.9062 151.8125 -0.9062 L152.9219 -0.9062 L152.9219 0 L151.8125 0 Q150.5625 0 150.0859 -0.4688 Q149.6094 -0.9375 149.6094 -2.1562 L149.6094 -5.7188 L148.8281 -5.7188 L148.8281 -6.5625 L149.6094 -6.5625 L149.6094 -8.4219 L150.7031 -8.4219 ZM159.9551 -3.5469 L159.9551 -3.0312 L154.9863 -3.0312 Q155.0645 -1.9062 155.666 -1.3281 Q156.2676 -0.75 157.3301 -0.75 Q157.9551 -0.75 158.541 -0.8984 Q159.127 -1.0469 159.7051 -1.3594 L159.7051 -0.3281 Q159.1113 -0.0938 158.502 0.0391 Q157.8926 0.1719 157.2676 0.1719 Q155.7051 0.1719 154.7832 -0.7422 Q153.8613 -1.6562 153.8613 -3.2188 Q153.8613 -4.8281 154.7363 -5.7734 Q155.6113 -6.7188 157.0801 -6.7188 Q158.4082 -6.7188 159.1816 -5.8672 Q159.9551 -5.0156 159.9551 -3.5469 ZM158.877 -3.875 Q158.8613 -4.75 158.377 -5.2812 Q157.8926 -5.8125 157.0957 -5.8125 Q156.1895 -5.8125 155.6504 -5.2969 Q155.1113 -4.7812 155.0332 -3.8594 L158.877 -3.875 Z"
         style="clip-path:url(#clipPath5); stroke:none;"
         id="path63"
         clip-path="url(#clipPath5)" />
    </g>
    <g
       style="font-family:sans-serif; text-rendering:optimizeLegibility;"
       transform="matrix(1.3333,0,0,1.3333,0,0)"
       id="g65">
      <line
         x1="200"
         x2="389"
         y1="160.9375"
         style="fill:none; clip-path:url(#clipPath2);"
         y2="160.9375"
         id="line67"
         clip-path="url(#clipPath2)" />
      <line
         x1="200"
         x2="389"
         y1="138.9688"
         style="fill:none; clip-path:url(#clipPath2);"
         y2="138.9688"
         id="line69"
         clip-path="url(#clipPath2)" />
    </g>
    <g
       style="text-rendering:optimizeLegibility; font-family:sans-serif; font-weight:bold;"
       transform="matrix(1.3333,0,0,1.3333,0,0) translate(249.5,133)"
       id="g71">
      <path
         d="M6.4062 -1.5938 L2.8906 -1.5938 L2.3281 0 L0.0625 0 L3.2969 -8.75 L5.9844 -8.75 L9.2344 0 L6.9688 0 L6.4062 -1.5938 ZM3.4531 -3.2188 L5.8438 -3.2188 L4.6406 -6.7031 L3.4531 -3.2188 ZM13.7871 -1.3594 Q14.459 -1.3594 14.8184 -1.8516 Q15.1777 -2.3438 15.1777 -3.2812 Q15.1777 -4.2188 14.8184 -4.7109 Q14.459 -5.2031 13.7871 -5.2031 Q13.1152 -5.2031 12.7559 -4.7031 Q12.3965 -4.2031 12.3965 -3.2812 Q12.3965 -2.3438 12.7559 -1.8516 Q13.1152 -1.3594 13.7871 -1.3594 ZM12.3965 -5.6094 Q12.834 -6.1719 13.3574 -6.4453 Q13.8809 -6.7188 14.5684 -6.7188 Q15.7871 -6.7188 16.5605 -5.7578 Q17.334 -4.7969 17.334 -3.2812 Q17.334 -1.7656 16.5605 -0.7969 Q15.7871 0.1719 14.5684 0.1719 Q13.8809 0.1719 13.3574 -0.1016 Q12.834 -0.375 12.3965 -0.9531 L12.3965 0 L10.3027 0 L10.3027 -9.125 L12.3965 -9.125 L12.3965 -5.6094 ZM24.0176 -6.3594 L24.0176 -4.7656 Q23.3457 -5.0469 22.7129 -5.1875 Q22.0801 -5.3281 21.5332 -5.3281 Q20.9238 -5.3281 20.6348 -5.1797 Q20.3457 -5.0312 20.3457 -4.7188 Q20.3457 -4.4688 20.5645 -4.3359 Q20.7832 -4.2031 21.3613 -4.125 L21.7207 -4.0781 Q23.3457 -3.875 23.9004 -3.4062 Q24.4551 -2.9375 24.4551 -1.9375 Q24.4551 -0.8906 23.6816 -0.3594 Q22.9082 0.1719 21.377 0.1719 Q20.7207 0.1719 20.0254 0.0703 Q19.3301 -0.0312 18.5957 -0.2344 L18.5957 -1.8281 Q19.2207 -1.5312 19.8848 -1.375 Q20.5488 -1.2188 21.2207 -1.2188 Q21.8457 -1.2188 22.1504 -1.3906 Q22.4551 -1.5625 22.4551 -1.9062 Q22.4551 -2.1875 22.2441 -2.3203 Q22.0332 -2.4531 21.3926 -2.5312 L21.0176 -2.5781 Q19.627 -2.75 19.0645 -3.2266 Q18.502 -3.7031 18.502 -4.6719 Q18.502 -5.7188 19.2129 -6.2188 Q19.9238 -6.7188 21.4082 -6.7188 Q21.9863 -6.7188 22.627 -6.6328 Q23.2676 -6.5469 24.0176 -6.3594 ZM29.332 -4.875 Q30.0352 -4.875 30.3398 -5.1328 Q30.6445 -5.3906 30.6445 -6 Q30.6445 -6.5938 30.3398 -6.8516 Q30.0352 -7.1094 29.332 -7.1094 L28.3789 -7.1094 L28.3789 -4.875 L29.332 -4.875 ZM28.3789 -3.3125 L28.3789 0 L26.1289 0 L26.1289 -8.75 L29.5664 -8.75 Q31.3008 -8.75 32.1055 -8.1719 Q32.9102 -7.5938 32.9102 -6.3281 Q32.9102 -5.4688 32.4883 -4.9141 Q32.0664 -4.3594 31.2227 -4.0938 Q31.6914 -3.9844 32.0586 -3.6094 Q32.4258 -3.2344 32.8008 -2.4844 L34.0195 0 L31.6133 0 L30.5508 -2.1719 Q30.2227 -2.8281 29.8945 -3.0703 Q29.5664 -3.3125 29.0195 -3.3125 L28.3789 -3.3125 ZM38.2129 -2.9531 Q37.5566 -2.9531 37.2207 -2.7344 Q36.8848 -2.5156 36.8848 -2.0781 Q36.8848 -1.6719 37.1582 -1.4453 Q37.4316 -1.2188 37.9004 -1.2188 Q38.4941 -1.2188 38.9004 -1.6484 Q39.3066 -2.0781 39.3066 -2.7188 L39.3066 -2.9531 L38.2129 -2.9531 ZM41.416 -3.75 L41.416 0 L39.3066 0 L39.3066 -0.9688 Q38.8848 -0.375 38.3535 -0.1016 Q37.8223 0.1719 37.0723 0.1719 Q36.041 0.1719 35.4082 -0.4219 Q34.7754 -1.0156 34.7754 -1.9688 Q34.7754 -3.125 35.5723 -3.6641 Q36.3691 -4.2031 38.0566 -4.2031 L39.3066 -4.2031 L39.3066 -4.3594 Q39.3066 -4.8594 38.9082 -5.0938 Q38.5098 -5.3281 37.6816 -5.3281 Q37.0098 -5.3281 36.4316 -5.1953 Q35.8535 -5.0625 35.3535 -4.7812 L35.3535 -6.3906 Q36.0254 -6.5469 36.7051 -6.6328 Q37.3848 -6.7188 38.0566 -6.7188 Q39.8379 -6.7188 40.627 -6.0234 Q41.416 -5.3281 41.416 -3.75 ZM42.7793 -6.5625 L44.8262 -6.5625 L45.9199 -2.0469 L47.0293 -6.5625 L48.7793 -6.5625 L49.8887 -2.0938 L50.9824 -6.5625 L53.0293 -6.5625 L51.2949 0 L49.0137 0 L47.9043 -4.5156 L46.7949 0 L44.5137 0 L42.7793 -6.5625 ZM56.8027 -7.0469 L56.8027 -1.7031 L57.6152 -1.7031 Q58.9902 -1.7031 59.7246 -2.3906 Q60.459 -3.0781 60.459 -4.3906 Q60.459 -5.6875 59.7324 -6.3672 Q59.0059 -7.0469 57.6152 -7.0469 L56.8027 -7.0469 ZM54.5527 -8.75 L56.9277 -8.75 Q58.9121 -8.75 59.8887 -8.4688 Q60.8652 -8.1875 61.5684 -7.5 Q62.1777 -6.9062 62.4746 -6.1328 Q62.7715 -5.3594 62.7715 -4.3906 Q62.7715 -3.3906 62.4746 -2.6172 Q62.1777 -1.8438 61.5684 -1.25 Q60.8652 -0.5625 59.8809 -0.2812 Q58.8965 0 56.9277 0 L54.5527 0 L54.5527 -8.75 ZM67.3574 -2.9531 Q66.7012 -2.9531 66.3652 -2.7344 Q66.0293 -2.5156 66.0293 -2.0781 Q66.0293 -1.6719 66.3027 -1.4453 Q66.5762 -1.2188 67.0449 -1.2188 Q67.6387 -1.2188 68.0449 -1.6484 Q68.4512 -2.0781 68.4512 -2.7188 L68.4512 -2.9531 L67.3574 -2.9531 ZM70.5605 -3.75 L70.5605 0 L68.4512 0 L68.4512 -0.9688 Q68.0293 -0.375 67.498 -0.1016 Q66.9668 0.1719 66.2168 0.1719 Q65.1855 0.1719 64.5527 -0.4219 Q63.9199 -1.0156 63.9199 -1.9688 Q63.9199 -3.125 64.7168 -3.6641 Q65.5137 -4.2031 67.2012 -4.2031 L68.4512 -4.2031 L68.4512 -4.3594 Q68.4512 -4.8594 68.0527 -5.0938 Q67.6543 -5.3281 66.8262 -5.3281 Q66.1543 -5.3281 65.5762 -5.1953 Q64.998 -5.0625 64.498 -4.7812 L64.498 -6.3906 Q65.1699 -6.5469 65.8496 -6.6328 Q66.5293 -6.7188 67.2012 -6.7188 Q68.9824 -6.7188 69.7715 -6.0234 Q70.5605 -5.3281 70.5605 -3.75 ZM74.7988 -8.4219 L74.7988 -6.5625 L76.9707 -6.5625 L76.9707 -5.0625 L74.7988 -5.0625 L74.7988 -2.2812 Q74.7988 -1.8281 74.9785 -1.6641 Q75.1582 -1.5 75.7051 -1.5 L76.7832 -1.5 L76.7832 0 L74.9863 0 Q73.7363 0 73.2207 -0.5156 Q72.7051 -1.0312 72.7051 -2.2812 L72.7051 -5.0625 L71.6582 -5.0625 L71.6582 -6.5625 L72.7051 -6.5625 L72.7051 -8.4219 L74.7988 -8.4219 ZM81.1914 -2.9531 Q80.5352 -2.9531 80.1992 -2.7344 Q79.8633 -2.5156 79.8633 -2.0781 Q79.8633 -1.6719 80.1367 -1.4453 Q80.4102 -1.2188 80.8789 -1.2188 Q81.4727 -1.2188 81.8789 -1.6484 Q82.2852 -2.0781 82.2852 -2.7188 L82.2852 -2.9531 L81.1914 -2.9531 ZM84.3945 -3.75 L84.3945 0 L82.2852 0 L82.2852 -0.9688 Q81.8633 -0.375 81.332 -0.1016 Q80.8008 0.1719 80.0508 0.1719 Q79.0195 0.1719 78.3867 -0.4219 Q77.7539 -1.0156 77.7539 -1.9688 Q77.7539 -3.125 78.5508 -3.6641 Q79.3477 -4.2031 81.0352 -4.2031 L82.2852 -4.2031 L82.2852 -4.3594 Q82.2852 -4.8594 81.8867 -5.0938 Q81.4883 -5.3281 80.6602 -5.3281 Q79.9883 -5.3281 79.4102 -5.1953 Q78.832 -5.0625 78.332 -4.7812 L78.332 -6.3906 Q79.0039 -6.5469 79.6836 -6.6328 Q80.3633 -6.7188 81.0352 -6.7188 Q82.8164 -6.7188 83.6055 -6.0234 Q84.3945 -5.3281 84.3945 -3.75 Z"
         style="clip-path:url(#clipPath6); stroke:none;"
         id="path73"
         clip-path="url(#clipPath6)" />
    </g>
  </g>
</svg>
