<?xml version="1.0" encoding="UTF-8" standalone="no"?>
<svg
   xmlns:dc="http://purl.org/dc/elements/1.1/"
   xmlns:cc="http://creativecommons.org/ns#"
   xmlns:rdf="http://www.w3.org/1999/02/22-rdf-syntax-ns#"
   xmlns:svg="http://www.w3.org/2000/svg"
   xmlns="http://www.w3.org/2000/svg"
   xmlns:xlink="http://www.w3.org/1999/xlink"
   xmlns:sodipodi="http://sodipodi.sourceforge.net/DTD/sodipodi-0.dtd"
   xmlns:inkscape="http://www.inkscape.org/namespaces/inkscape"
   style="fill-opacity:1; color-rendering:auto; color-interpolation:auto; stroke:black; text-rendering:auto; stroke-linecap:square; stroke-miterlimit:10; stroke-opacity:1; shape-rendering:auto; fill:black; stroke-dasharray:none; font-weight:normal; stroke-width:1; font-family:'Dialog'; font-style:normal; stroke-linejoin:miter; font-size:12; stroke-dashoffset:0; image-rendering:auto;"
   width="880"
   height="666"
   id="svg2"
   version="1.1"
   inkscape:version="0.91 r13725"
   sodipodi:docname="abs_raw_data.svg">
  <metadata
     id="metadata77">
    <rdf:RDF>
      <cc:Work
         rdf:about="">
        <dc:format>image/svg+xml</dc:format>
        <dc:type
           rdf:resource="http://purl.org/dc/dcmitype/StillImage" />
      </cc:Work>
    </rdf:RDF>
  </metadata>
  <sodipodi:namedview
     pagecolor="#ffffff"
     bordercolor="#666666"
     borderopacity="1"
     objecttolerance="10"
     gridtolerance="10"
     guidetolerance="10"
     inkscape:pageopacity="0"
     inkscape:pageshadow="2"
     inkscape:window-width="640"
     inkscape:window-height="480"
     id="namedview75"
     showgrid="false"
     inkscape:zoom="0.35435435"
     inkscape:cx="440"
     inkscape:cy="333"
     inkscape:window-x="280"
     inkscape:window-y="118"
     inkscape:window-maximized="0"
     inkscape:current-layer="svg2" />
  <!--Generated by the Batik Graphics2D SVG Generator-->
  <defs
     id="genericDefs">
    <linearGradient
       inkscape:collect="always"
       xlink:href="#linearGradient1"
       id="linearGradient3405"
       gradientUnits="userSpaceOnUse"
       spreadMethod="pad"
       x1="200"
       y1="117"
       x2="378"
       y2="175" />
    <linearGradient
       inkscape:collect="always"
       xlink:href="#linearGradient1"
       id="linearGradient3407"
       gradientUnits="userSpaceOnUse"
       spreadMethod="pad"
       x1="200"
       y1="117"
       x2="378"
       y2="175" />
    <linearGradient
       inkscape:collect="always"
       xlink:href="#linearGradient1"
       id="linearGradient3409"
       gradientUnits="userSpaceOnUse"
       spreadMethod="pad"
       x1="200"
       y1="117"
       x2="378"
       y2="175" />
    <defs
       id="defs1">
      <linearGradient
         spreadMethod="pad"
         id="linearGradient1"
         y2="175"
         y1="117"
         x2="378"
         gradientUnits="userSpaceOnUse"
         x1="200">
        <stop
           id="stop9"
           offset="0%"
           style="stop-opacity:1; stop-color:white;" />
        <stop
           id="stop11"
           offset="100%"
           style="stop-opacity:1; stop-color:rgb(255,255,204);" />
      </linearGradient>
      <clipPath
         id="clipPath1"
         clipPathUnits="userSpaceOnUse">
        <path
           id="path14"
           d="M0 0 L880 0 L880 666 L0 666 L0 0 Z" />
      </clipPath>
      <clipPath
         id="clipPath2"
         clipPathUnits="userSpaceOnUse">
        <path
           id="path17"
           d="M0 0 L660 0 L660 499.5 L0 499.5 L0 0 Z" />
      </clipPath>
      <clipPath
         id="clipPath3"
         clipPathUnits="userSpaceOnUse">
        <path
           id="path20"
           d="M-20 -27 L640 -27 L640 472.5 L-20 472.5 L-20 -27 Z" />
      </clipPath>
      <clipPath
         id="clipPath4"
         clipPathUnits="userSpaceOnUse">
        <path
           id="path23"
           d="M-5 -5 L655 -5 L655 494.5 L-5 494.5 L-5 -5 Z" />
      </clipPath>
      <clipPath
         id="clipPath5"
         clipPathUnits="userSpaceOnUse">
        <path
           id="path26"
           d="M-210 -155.1328 L450 -155.1328 L450 344.3672 L-210 344.3672 L-210 -155.1328 Z" />
      </clipPath>
      <clipPath
         id="clipPath6"
         clipPathUnits="userSpaceOnUse">
        <path
           id="path29"
           d="M-250 -133 L410 -133 L410 366.5 L-250 366.5 L-250 -133 Z" />
      </clipPath>
    </defs>
  </defs>
  <g
     id="g49"
     style="font-weight:bold;font-family:sans-serif;fill:#c0c0c0;fill-opacity:0.50199998;stroke:#c0c0c0;stroke-width:2;stroke-opacity:0.50199998;shape-rendering:crispEdges;text-rendering:geometricPrecision"
     transform="matrix(1.3333,0,0,1.3333,6.6665,6.6665)">
    <rect
       clip-path="url(#clipPath4)"
       id="rect51"
       height="57.1875"
       style="stroke:none"
       width="178"
       y="117"
       x="200" />
    <rect
       clip-path="url(#clipPath4)"
       id="rect53"
       height="57.1875"
       style="fill:none"
       width="178"
       y="117"
       x="200" />
  </g>
  <g
     id="g55"
     style="font-weight:bold;font-family:sans-serif;fill:url(#linearGradient3407);stroke:url(#linearGradient3409);stroke-width:2;shape-rendering:crispEdges;text-rendering:geometricPrecision"
     transform="scale(1.3333,1.3333)">
    <rect
       clip-path="url(#clipPath2)"
       id="rect57"
       height="57.1875"
       style="fill:url(#linearGradient3405);stroke:none"
       width="178"
       y="117"
       x="200" />
    <rect
       clip-path="url(#clipPath2)"
       id="rect59"
       height="57.1875"
       style="fill:none;stroke:#000000"
       width="178"
       y="117"
       x="200" />
  </g>
  <g
     id="g61"
     transform="matrix(1.3333,0,0,1.3333,279.993,206.83856)"
     style="font-family:sans-serif;stroke-width:2;text-rendering:optimizeLegibility">
    <path
       inkscape:connector-curvature="0"
       clip-path="url(#clipPath5)"
       id="path63"
       style="stroke:none"
       d="m 0.8672,-3.0352 0,-0.8671 5.2031,0 0,0.8671 z M 15.9785,0 l 0,-1.1953 q -0.7031,1.3418 -2.1211,1.3418 -1.1484,0 -1.8076,-0.8379 -0.6592,-0.8379 -0.6592,-2.291 0,-1.5879 0.7471,-2.5547 0.7471,-0.9668 1.9658,-0.9668 1.1309,0 1.875,0.8672 l 0,-3.6153 1.1602,0 0,9.252 z m 0,-4.8457 q -0.8965,-0.791 -1.6992,-0.791 -1.6582,0 -1.6582,2.5371 0,2.2324 1.4766,2.2324 0.9609,0 1.8808,-1.0488 z m 6.75,4.0371 q -1.0371,0.9551 -1.998,0.9551 -0.791,0 -1.3125,-0.4951 -0.5215,-0.4952 -0.5215,-1.251 0,-1.043 0.876,-1.6025 0.8759,-0.5596 2.5107,-0.5596 l 0.2754,0 0,-0.7676 q 0,-1.1074 -1.1367,-1.1074 -0.9141,0 -1.9746,0.5625 l 0,-0.9551 q 1.166,-0.4746 2.1855,-0.4746 1.0664,0 1.5733,0.4805 0.5068,0.4804 0.5068,1.4941 l 0,2.8828 q 0,0.9903 0.6094,0.9903 0.0761,0 0.2226,-0.0235 l 0.0821,0.6387 q -0.3926,0.1875 -0.8672,0.1875 -0.8086,0 -1.0313,-0.9551 z m -0.1699,-0.6269 0,-1.6465 -0.3867,-0.0118 q -0.9492,0 -1.5352,0.3604 -0.5859,0.3604 -0.5859,0.9463 0,0.416 0.293,0.7031 0.2929,0.2871 0.7148,0.2871 0.7207,0 1.5,-0.6386 z m 5.4258,1.582 q -0.8789,0 -1.3711,-0.5039 -0.4922,-0.5039 -0.4922,-1.4004 l 0,-3.7383 -0.7969,0 0,-0.8672 0.7969,0 0,-1.1543 1.1543,-0.1113 0,1.2656 1.6641,0 0,0.8672 -1.6641,0 0,3.5273 q 0,1.2481 1.0781,1.2481 0.2285,0 0.5567,-0.0762 l 0,0.7969 Q 28.377,0.1465 27.9844,0.1465 Z m 7.2422,-0.3516 q -1.1602,0.3516 -1.9864,0.3516 -1.4062,0 -2.2939,-0.9346 -0.8877,-0.9346 -0.8877,-2.4228 0,-1.4473 0.7822,-2.3731 0.7822,-0.9258 2.001,-0.9258 1.1543,0 1.7842,0.8203 0.6299,0.8204 0.6299,2.3321 L 35.25,-3 31.2363,-3 q 0.252,2.2676 2.2207,2.2676 0.7207,0 1.7696,-0.3867 z m -3.9375,-3.6621 2.8066,0 q 0,-1.7754 -1.3242,-1.7754 -1.3301,0 -1.4824,1.7754 z m 4.8047,5.8887 0,-0.8672 6,0 0,0.8672 z m 9.6386,-1.875 q -1.289,0 -2.1386,-0.9551 -0.8497,-0.9551 -0.8497,-2.4082 0,-1.5527 0.8409,-2.4199 0.8408,-0.8672 2.3466,-0.8672 0.7442,0 1.6641,0.2051 l 0,0.9668 q -0.9785,-0.2871 -1.5937,-0.2871 -0.8848,0 -1.4209,0.665 -0.5362,0.665 -0.5362,1.7725 0,1.0722 0.5508,1.7343 0.5508,0.6621 1.4414,0.6621 0.791,0 1.6289,-0.4043 l 0,0.9961 Q 46.5469,0.1465 45.7324,0.1465 Z M 49.3945,0 l 0,-6.3633 1.1543,0 0,1.1953 q 0.6856,-1.3359 1.9922,-1.3359 0.1758,0 0.3692,0.0293 l 0,1.0781 q -0.2989,-0.0996 -0.5274,-0.0996 -1.0957,0 -1.834,1.3008 l 0,4.1953 z m 9.5743,-0.2051 q -1.1602,0.3516 -1.9864,0.3516 -1.4062,0 -2.2939,-0.9346 -0.8877,-0.9346 -0.8877,-2.4228 0,-1.4473 0.7822,-2.3731 0.7822,-0.9258 2.001,-0.9258 1.1543,0 1.7842,0.8203 0.6298,0.8204 0.6298,2.3321 L 58.9922,-3 54.9785,-3 q 0.252,2.2676 2.2207,2.2676 0.7207,0 1.7696,-0.3867 z m -3.9376,-3.6621 2.8067,0 q 0,-1.7754 -1.3242,-1.7754 -1.3301,0 -1.4825,1.7754 z m 9.2403,3.0586 q -1.0371,0.9551 -1.9981,0.9551 -0.791,0 -1.3125,-0.4951 -0.5214,-0.4952 -0.5214,-1.251 0,-1.043 0.8759,-1.6025 0.876,-0.5596 2.5108,-0.5596 l 0.2754,0 0,-0.7676 q 0,-1.1074 -1.1368,-1.1074 -0.914,0 -1.9746,0.5625 l 0,-0.9551 q 1.166,-0.4746 2.1856,-0.4746 1.0664,0 1.5732,0.4805 0.5069,0.4804 0.5069,1.4941 l 0,2.8828 q 0,0.9903 0.6093,0.9903 0.0762,0 0.2227,-0.0235 l 0.082,0.6387 q -0.3926,0.1875 -0.8672,0.1875 -0.8086,0 -1.0312,-0.9551 z m -0.1699,-0.6269 0,-1.6465 -0.3868,-0.0118 q -0.9492,0 -1.5351,0.3604 -0.5859,0.3604 -0.5859,0.9463 0,0.416 0.2929,0.7031 0.293,0.2871 0.7149,0.2871 0.7207,0 1.5,-0.6386 z m 5.4257,1.582 q -0.8789,0 -1.3711,-0.5039 -0.4921,-0.5039 -0.4921,-1.4004 l 0,-3.7383 -0.7969,0 0,-0.8672 0.7969,0 0,-1.1543 1.1543,-0.1113 0,1.2656 1.664,0 0,0.8672 -1.664,0 0,3.5273 q 0,1.2481 1.0781,1.2481 0.2285,0 0.5566,-0.0762 l 0,0.7969 q -0.5332,0.1465 -0.9258,0.1465 z m 7.2422,-0.3516 q -1.1601,0.3516 -1.9863,0.3516 -1.4062,0 -2.2939,-0.9346 -0.8877,-0.9346 -0.8877,-2.4228 0,-1.4473 0.7822,-2.3731 0.7822,-0.9258 2.001,-0.9258 1.1543,0 1.7841,0.8203 0.6299,0.8204 0.6299,2.3321 L 76.793,-3 72.7793,-3 q 0.2519,2.2676 2.2207,2.2676 0.7207,0 1.7695,-0.3867 z m -3.9375,-3.6621 2.8067,0 q 0,-1.7754 -1.3242,-1.7754 -1.3301,0 -1.4825,1.7754 z M 82.875,0 l 0,-1.1953 q -0.7031,1.3418 -2.1211,1.3418 -1.1484,0 -1.8076,-0.8379 -0.6592,-0.8379 -0.6592,-2.291 0,-1.5879 0.7471,-2.5547 0.747,-0.9668 1.9658,-0.9668 1.1309,0 1.875,0.8672 l 0,-3.6153 1.1602,0 0,9.252 z m 0,-4.8457 q -0.8965,-0.791 -1.6992,-0.791 -1.6582,0 -1.6582,2.5371 0,2.2324 1.4765,2.2324 0.961,0 1.8809,-1.0488 z m 2.3145,6.8672 0,-0.8672 6,0 0,0.8672 z M 96.4277,0 l 0,-1.1953 q -0.7031,1.3418 -2.1211,1.3418 -1.1484,0 -1.8076,-0.8379 -0.6592,-0.8379 -0.6592,-2.291 0,-1.5879 0.7471,-2.5547 0.7471,-0.9668 1.9658,-0.9668 1.1309,0 1.875,0.8672 l 0,-3.6153 1.1602,0 0,9.252 z m 0,-4.8457 q -0.8965,-0.791 -1.6992,-0.791 -1.6582,0 -1.6582,2.5371 0,2.2324 1.4766,2.2324 0.9609,0 1.8808,-1.0488 z m 6.75,4.0371 q -1.0371,0.9551 -1.998,0.9551 -0.791,0 -1.3125,-0.4951 -0.5215,-0.4952 -0.5215,-1.251 0,-1.043 0.876,-1.6025 0.876,-0.5596 2.5107,-0.5596 l 0.2754,0 0,-0.7676 q 0,-1.1074 -1.1367,-1.1074 -0.9141,0 -1.9746,0.5625 l 0,-0.9551 q 1.166,-0.4746 2.1855,-0.4746 1.0664,0 1.5733,0.4805 0.5068,0.4804 0.5068,1.4941 l 0,2.8828 q 0,0.9903 0.6094,0.9903 0.0762,0 0.2226,-0.0235 l 0.0821,0.6387 q -0.3926,0.1875 -0.8672,0.1875 -0.8086,0 -1.0313,-0.9551 z m -0.1699,-0.6269 0,-1.6465 -0.3867,-0.0118 q -0.9492,0 -1.5352,0.3604 -0.5859,0.3604 -0.5859,0.9463 0,0.416 0.293,0.7031 0.2929,0.2871 0.7148,0.2871 0.7207,0 1.5,-0.6386 z m 5.4258,1.582 q -0.8789,0 -1.3711,-0.5039 -0.4922,-0.5039 -0.4922,-1.4004 l 0,-3.7383 -0.7969,0 0,-0.8672 0.7969,0 0,-1.1543 1.1543,-0.1113 0,1.2656 1.6641,0 0,0.8672 -1.6641,0 0,3.5273 q 0,1.2481 1.0781,1.2481 0.2285,0 0.5567,-0.0762 l 0,0.7969 q -0.5332,0.1465 -0.9258,0.1465 z m 7.2422,-0.3516 q -1.1602,0.3516 -1.9863,0.3516 -1.4063,0 -2.294,-0.9346 -0.8877,-0.9346 -0.8877,-2.4228 0,-1.4473 0.7822,-2.3731 0.7823,-0.9258 2.001,-0.9258 1.1543,0 1.7842,0.8203 0.6299,0.8204 0.6299,2.3321 l -0.006,0.3574 -4.0137,0 q 0.252,2.2676 2.2207,2.2676 0.7208,0 1.7696,-0.3867 z m -3.9375,-3.6621 2.8066,0 q 0,-1.7754 -1.3242,-1.7754 -1.3301,0 -1.4824,1.7754 z M 121.6582,0 l 0,-1.1543 1.1543,0 0,1.1543 z m 0,-5.2031 0,-1.1602 1.1543,0 0,1.1602 z M 129.0527,0 l 0,-8.6719 2.8828,0 q 1.2891,0 2.0831,0.2871 0.7939,0.2871 1.374,0.9727 0.9199,1.0898 0.9199,2.8711 0,2.1621 -1.1426,3.3515 Q 134.0273,0 131.9531,0 Z m 1.2305,-0.9199 1.5762,0 q 1.6875,0 2.3906,-0.9082 0.7559,-0.9668 0.7559,-2.5957 0,-1.5293 -0.7442,-2.4024 -0.4512,-0.5332 -1.0781,-0.7295 -0.627,-0.1963 -1.8867,-0.1963 l -1.0137,0 z m 11.0742,0.1113 q -1.0371,0.9551 -1.998,0.9551 -0.791,0 -1.3125,-0.4951 -0.5215,-0.4952 -0.5215,-1.251 0,-1.043 0.876,-1.6025 0.8759,-0.5596 2.5107,-0.5596 l 0.2754,0 0,-0.7676 q 0,-1.1074 -1.1367,-1.1074 -0.9141,0 -1.9746,0.5625 l 0,-0.9551 q 1.166,-0.4746 2.1855,-0.4746 1.0664,0 1.5733,0.4805 0.5068,0.4804 0.5068,1.4941 l 0,2.8828 q 0,0.9903 0.6094,0.9903 0.0761,0 0.2226,-0.0235 l 0.0821,0.6387 q -0.3926,0.1875 -0.8672,0.1875 -0.8086,0 -1.0313,-0.9551 z m -0.1699,-0.6269 0,-1.6465 -0.3867,-0.0118 q -0.9492,0 -1.5352,0.3604 -0.5859,0.3604 -0.5859,0.9463 0,0.416 0.293,0.7031 0.2929,0.2871 0.7148,0.2871 0.7207,0 1.5,-0.6386 z m 5.4258,1.582 q -0.8789,0 -1.3711,-0.5039 -0.4922,-0.5039 -0.4922,-1.4004 l 0,-3.7383 -0.7969,0 0,-0.8672 0.7969,0 0,-1.1543 1.1543,-0.1113 0,1.2656 1.6641,0 0,0.8672 -1.6641,0 0,3.5273 q 0,1.2481 1.0781,1.2481 0.2285,0 0.5567,-0.0762 l 0,0.7969 q -0.5332,0.1465 -0.9258,0.1465 z m 7.2422,-0.3516 q -1.1602,0.3516 -1.9864,0.3516 -1.4062,0 -2.2939,-0.9346 -0.8877,-0.9346 -0.8877,-2.4228 0,-1.4473 0.7822,-2.3731 0.7823,-0.9258 2.001,-0.9258 1.1543,0 1.7842,0.8203 0.6299,0.8204 0.6299,2.3321 l -0.006,0.3574 -4.0137,0 q 0.252,2.2676 2.2207,2.2676 0.7207,0 1.7696,-0.3867 z m -3.9375,-3.6621 2.8066,0 q 0,-1.7754 -1.3242,-1.7754 -1.3301,0 -1.4824,1.7754 z" />
  </g>
  <g
     id="g65"
     transform="scale(1.3333,1.3333)"
     style="font-family:sans-serif;text-rendering:optimizeLegibility">
    <line
       clip-path="url(#clipPath2)"
       id="line67"
       y2="161.26559"
       style="fill:none"
       y1="161.26559"
       x2="378"
       x1="200" />
    <line
       clip-path="url(#clipPath2)"
       id="line69"
       y2="139.1328"
       style="fill:none"
       y1="139.1328"
       x2="378"
       x1="200" />
  </g>
  <g
     id="g71"
     transform="matrix(1.3333,0,0,1.3333,333.325,177.3289)"
     style="font-weight:bold;font-family:sans-serif;text-rendering:optimizeLegibility">
    <path
       inkscape:connector-curvature="0"
       clip-path="url(#clipPath6)"
       id="path73"
       style="stroke:none"
       d="m 0.1348,0 3.375,-8.6719 1.8047,0 L 8.6895,0 6.8379,0 5.9355,-2.3145 l -3.5859,0 L 1.4473,0 Z m 2.6601,-3.4688 2.6953,0 -1.3476,-3.457 z M 9.9199,0 l 0,-9.252 1.7344,0 0,4.0313 q 0.668,-1.3594 2.1035,-1.3594 1.1602,0 1.8252,0.8496 0.665,0.8496 0.665,2.3379 0,1.6114 -0.75,2.5752 -0.75,0.9639 -2.0039,0.9639 -1.0781,0 -1.8398,-0.7969 L 11.332,0 Z m 1.7344,-1.6816 q 0.6328,0.7031 1.3477,0.7031 0.6386,0 1.0195,-0.6182 0.3808,-0.6181 0.3808,-1.6494 0,-1.9746 -1.2714,-1.9746 -0.7676,0 -1.4766,0.9902 z m 6.0469,1.4765 0,-1.2715 q 1.289,0.5391 2.2031,0.5391 1.0664,0 1.0664,-0.7266 0,-0.4687 -0.8789,-0.8203 l -0.5859,-0.2344 q -0.9551,-0.3867 -1.3653,-0.832 -0.4101,-0.4453 -0.4101,-1.1015 0,-0.9141 0.6972,-1.4209 0.6973,-0.5069 1.9512,-0.5069 0.7852,0 1.8691,0.2285 l 0,1.2188 q -1.0429,-0.3633 -1.7285,-0.3633 -1.0781,0 -1.0781,0.668 0,0.4394 0.7969,0.7441 l 0.5039,0.1934 q 1.1308,0.4277 1.5732,0.8672 0.4424,0.4394 0.4424,1.1308 0,0.9082 -0.7529,1.4737 -0.7529,0.5654 -1.96,0.5654 -1.1601,0 -2.3437,-0.3516 z M 24.6562,0 l 0,-8.6719 3.2461,0 q 2.6426,0 2.6426,2.1504 0,0.8027 -0.4482,1.4619 -0.4483,0.6592 -1.2334,1.0108 L 31.6992,0 29.502,0 l -2.1504,-3.5449 -0.9961,0 0,3.5449 z m 1.6993,-4.7344 0.416,0 q 1.9629,0 1.9629,-1.5879 0,-1.1601 -1.752,-1.1601 l -0.6269,0 z m 9.7324,4.043 q -0.8672,0.8379 -1.8574,0.8379 -0.8438,0 -1.3711,-0.5156 -0.5274,-0.5157 -0.5274,-1.336 0,-1.0664 0.8526,-1.6435 0.8525,-0.5772 2.4404,-0.5772 l 0.4629,0 0,-0.5859 q 0,-1.002 -1.1426,-1.002 -1.0137,0 -2.0508,0.5742 l 0,-1.1953 q 1.1778,-0.4453 2.3321,-0.4453 2.5254,0 2.5254,2.0098 l 0,2.8476 q 0,0.7559 0.4863,0.7559 0.0879,0 0.2285,-0.0234 l 0.041,0.9726 q -0.5508,0.1641 -0.9726,0.1641 -1.0664,0 -1.3711,-0.8379 z m 0,-0.9316 0,-1.3067 -0.4102,0 q -1.6816,0 -1.6816,1.0547 0,0.3574 0.2432,0.6006 0.2431,0.2432 0.6005,0.2432 0.6094,0 1.2481,-0.5918 z M 41.127,0 l -1.7872,-6.4336 1.6114,0 1.2656,4.5059 1.3477,-4.5059 1.5,0 1.2128,4.5293 1.3653,-4.5293 1.207,0 L 46.9395,0 45.2754,0 44.1035,-4.4121 42.791,0 Z m 9.2168,0 0,-8.6719 3.7324,0 q 2.0156,0 3.0879,1.0694 1.0722,1.0693 1.0722,3.0849 0,2.1446 -1.1367,3.3311 Q 55.9629,0 53.918,0 Z m 1.8046,-1.2305 1.3477,0 q 1.4238,0 2.124,-0.7881 0.7002,-0.788 0.7002,-2.3935 0,-1.2422 -0.5625,-2.0684 -0.3867,-0.5683 -0.9316,-0.7851 -0.545,-0.2168 -1.5879,-0.2168 l -1.0899,0 z m 10.8633,0.5391 q -0.8672,0.8379 -1.8574,0.8379 -0.8438,0 -1.3711,-0.5156 -0.5273,-0.5157 -0.5273,-1.336 0,-1.0664 0.8525,-1.6435 0.8525,-0.5772 2.4404,-0.5772 l 0.4629,0 0,-0.5859 q 0,-1.002 -1.1426,-1.002 -1.0136,0 -2.0507,0.5742 l 0,-1.1953 q 1.1777,-0.4453 2.332,-0.4453 2.5254,0 2.5254,2.0098 l 0,2.8476 q 0,0.7559 0.4863,0.7559 0.0879,0 0.2285,-0.0234 l 0.041,0.9726 q -0.5507,0.1641 -0.9726,0.1641 -1.0664,0 -1.3711,-0.8379 z m 0,-0.9316 0,-1.3067 -0.4101,0 q -1.6817,0 -1.6817,1.0547 0,0.3574 0.2432,0.6006 0.2431,0.2432 0.6006,0.2432 0.6093,0 1.248,-0.5918 z m 7.2188,1.5878 q -0.6211,0.1817 -0.9785,0.1817 -2.2559,0 -2.2559,-2.1094 l 0,-3.3867 -0.7207,0 0,-1.084 0.7207,0 0,-1.084 1.7344,-0.1992 0,1.2832 1.3769,0 0,1.084 -1.3769,0 0,3.1582 q 0,1.1836 0.9668,1.1836 0.2226,0 0.5332,-0.082 z m 4.6992,-0.6562 q -0.8672,0.8379 -1.8574,0.8379 -0.8438,0 -1.3711,-0.5156 -0.5274,-0.5157 -0.5274,-1.336 0,-1.0664 0.8526,-1.6435 0.8525,-0.5772 2.4404,-0.5772 l 0.4629,0 0,-0.5859 q 0,-1.002 -1.1426,-1.002 -1.0137,0 -2.0508,0.5742 l 0,-1.1953 q 1.1778,-0.4453 2.3321,-0.4453 2.5254,0 2.5254,2.0098 l 0,2.8476 q 0,0.7559 0.4863,0.7559 0.0879,0 0.2285,-0.0234 l 0.041,0.9726 q -0.5508,0.1641 -0.9726,0.1641 -1.0665,0 -1.3711,-0.8379 z m 0,-0.9316 0,-1.3067 -0.4102,0 q -1.6816,0 -1.6816,1.0547 0,0.3574 0.2432,0.6006 0.2431,0.2432 0.6005,0.2432 0.6094,0 1.2481,-0.5918 z" />
  </g>
</svg>
