<?xml version="1.0" encoding="UTF-8" standalone="no"?>
<svg
   xmlns:dc="http://purl.org/dc/elements/1.1/"
   xmlns:cc="http://creativecommons.org/ns#"
   xmlns:rdf="http://www.w3.org/1999/02/22-rdf-syntax-ns#"
   xmlns:svg="http://www.w3.org/2000/svg"
   xmlns="http://www.w3.org/2000/svg"
   xmlns:xlink="http://www.w3.org/1999/xlink"
   xmlns:sodipodi="http://sodipodi.sourceforge.net/DTD/sodipodi-0.dtd"
   xmlns:inkscape="http://www.inkscape.org/namespaces/inkscape"
   style="fill-opacity:1; color-rendering:auto; color-interpolation:auto; stroke:black; text-rendering:auto; stroke-linecap:square; stroke-miterlimit:10; stroke-opacity:1; shape-rendering:auto; fill:black; stroke-dasharray:none; font-weight:normal; stroke-width:1; font-family:'Dialog'; font-style:normal; stroke-linejoin:miter; font-size:12; stroke-dashoffset:0; image-rendering:auto;"
   width="880"
   height="666"
   id="svg2"
   version="1.1"
   inkscape:version="0.91 r13725"
   sodipodi:docname="abs_recipe_model.svg">
  <metadata
     id="metadata91">
    <rdf:RDF>
      <cc:Work
         rdf:about="">
        <dc:format>image/svg+xml</dc:format>
        <dc:type
           rdf:resource="http://purl.org/dc/dcmitype/StillImage" />
      </cc:Work>
    </rdf:RDF>
  </metadata>
  <sodipodi:namedview
     pagecolor="#ffffff"
     bordercolor="#666666"
     borderopacity="1"
     objecttolerance="10"
     gridtolerance="10"
     guidetolerance="10"
     inkscape:pageopacity="0"
     inkscape:pageshadow="2"
     inkscape:window-width="640"
     inkscape:window-height="480"
     id="namedview89"
     showgrid="false"
     inkscape:zoom="0.35435435"
     inkscape:cx="440"
     inkscape:cy="333"
     inkscape:window-x="207"
     inkscape:window-y="68"
     inkscape:window-maximized="0"
     inkscape:current-layer="svg2" />
  <!--Generated by the Batik Graphics2D SVG Generator-->
  <defs
     id="genericDefs">
    <linearGradient
       inkscape:collect="always"
       xlink:href="#linearGradient1"
       id="linearGradient3419"
       gradientUnits="userSpaceOnUse"
       spreadMethod="pad"
       x1="239"
       y1="160"
       x2="416"
       y2="248" />
    <linearGradient
       inkscape:collect="always"
       xlink:href="#linearGradient1"
       id="linearGradient3421"
       gradientUnits="userSpaceOnUse"
       spreadMethod="pad"
       x1="239"
       y1="160"
       x2="416"
       y2="248" />
    <linearGradient
       inkscape:collect="always"
       xlink:href="#linearGradient1"
       id="linearGradient3423"
       gradientUnits="userSpaceOnUse"
       spreadMethod="pad"
       x1="239"
       y1="160"
       x2="416"
       y2="248" />
    <defs
       id="defs1">
      <linearGradient
         spreadMethod="pad"
         id="linearGradient1"
         y2="248"
         y1="160"
         x2="416"
         gradientUnits="userSpaceOnUse"
         x1="239">
        <stop
           id="stop9"
           offset="0%"
           style="stop-opacity:1; stop-color:white;" />
        <stop
           id="stop11"
           offset="100%"
           style="stop-opacity:1; stop-color:rgb(255,255,204);" />
      </linearGradient>
      <clipPath
         id="clipPath1"
         clipPathUnits="userSpaceOnUse">
        <path
           id="path14"
           d="M0 0 L880 0 L880 666 L0 666 L0 0 Z" />
      </clipPath>
      <clipPath
         id="clipPath2"
         clipPathUnits="userSpaceOnUse">
        <path
           id="path17"
           d="M0 0 L660 0 L660 499.5 L0 499.5 L0 0 Z" />
      </clipPath>
      <clipPath
         id="clipPath3"
         clipPathUnits="userSpaceOnUse">
        <path
           id="path20"
           d="M-20 -27 L640 -27 L640 472.5 L-20 472.5 L-20 -27 Z" />
      </clipPath>
      <clipPath
         id="clipPath4"
         clipPathUnits="userSpaceOnUse">
        <path
           id="path23"
           d="M-5 -5 L655 -5 L655 494.5 L-5 494.5 L-5 -5 Z" />
      </clipPath>
      <clipPath
         id="clipPath5"
         clipPathUnits="userSpaceOnUse">
        <path
           id="path26"
           d="M-249 -226.3984 L411 -226.3984 L411 273.1016 L-249 273.1016 L-249 -226.3984 Z" />
      </clipPath>
      <clipPath
         id="clipPath6"
         clipPathUnits="userSpaceOnUse">
        <path
           id="path29"
           d="M-249 -212.2656 L411 -212.2656 L411 287.2344 L-249 287.2344 L-249 -212.2656 Z" />
      </clipPath>
      <clipPath
         id="clipPath7"
         clipPathUnits="userSpaceOnUse">
        <path
           id="path32"
           d="M-249 -198.1328 L411 -198.1328 L411 301.3672 L-249 301.3672 L-249 -198.1328 Z" />
      </clipPath>
      <clipPath
         id="clipPath8"
         clipPathUnits="userSpaceOnUse">
        <path
           id="path35"
           d="M-276.5 -176 L383.5 -176 L383.5 323.5 L-276.5 323.5 L-276.5 -176 Z" />
      </clipPath>
    </defs>
  </defs>
  <g
     id="g55"
     style="font-weight:bold;font-family:sans-serif;fill:#c0c0c0;fill-opacity:0.50199998;stroke:#c0c0c0;stroke-width:2;stroke-opacity:0.50199998;shape-rendering:crispEdges;text-rendering:geometricPrecision"
     transform="matrix(1.3333,0,0,1.3333,6.6665,6.6665)">
    <rect
       clip-path="url(#clipPath4)"
       id="rect57"
       height="87.375"
       style="stroke:none"
       width="177"
       y="160"
       x="239" />
    <rect
       clip-path="url(#clipPath4)"
       id="rect59"
       height="87.375"
       style="fill:none"
       width="177"
       y="160"
       x="239" />
  </g>
  <g
     id="g61"
     style="font-weight:bold;font-family:sans-serif;fill:url(#linearGradient3421);stroke:url(#linearGradient3423);stroke-width:2;shape-rendering:crispEdges;text-rendering:geometricPrecision"
     transform="scale(1.3333,1.3333)">
    <rect
       clip-path="url(#clipPath2)"
       id="rect63"
       height="87.375"
       style="fill:url(#linearGradient3419);stroke:none"
       width="177"
       y="160"
       x="239" />
    <rect
       clip-path="url(#clipPath2)"
       id="rect65"
       height="87.375"
       style="fill:none;stroke:#000000"
       width="177"
       y="160"
       x="239" />
  </g>
  <g
     id="g67"
     transform="matrix(1.3333,0,0,1.3333,331.9917,301.85699)"
     style="font-family:sans-serif;stroke-width:2;text-rendering:optimizeLegibility">
    <path
       inkscape:connector-curvature="0"
       clip-path="url(#clipPath5)"
       id="path69"
       style="stroke:none"
       d="m 0.8672,-3.0352 0,-0.8671 5.2031,0 0,0.8671 z m 12.9375,3.1817 q -0.8789,0 -1.3711,-0.5039 -0.4922,-0.5039 -0.4922,-1.4004 l 0,-3.7383 -0.7969,0 0,-0.8672 0.7969,0 0,-1.1543 1.1543,-0.1113 0,1.2656 1.6641,0 0,0.8672 -1.6641,0 0,3.5273 q 0,1.2481 1.0781,1.2481 0.2285,0 0.5567,-0.0762 l 0,0.7969 Q 14.1973,0.1465 13.8047,0.1465 Z M 16.3828,0 l 0,-6.3633 1.1543,0 0,6.3633 z m 0,-7.5176 0,-1.1543 1.1543,0 0,1.1543 z m 5.3789,7.6641 q -0.8789,0 -1.3711,-0.5039 -0.4922,-0.5039 -0.4922,-1.4004 l 0,-3.7383 -0.7968,0 0,-0.8672 0.7968,0 0,-1.1543 1.1543,-0.1113 0,1.2656 1.6641,0 0,0.8672 -1.6641,0 0,3.5273 q 0,1.2481 1.0782,1.2481 0.2285,0 0.5566,-0.0762 l 0,0.7969 Q 22.1543,0.1465 21.7617,0.1465 Z M 24.3398,0 l 0,-9.252 1.1543,0 0,9.252 z m 8.1329,-0.2051 q -1.1602,0.3516 -1.9864,0.3516 -1.4062,0 -2.2939,-0.9346 -0.8877,-0.9346 -0.8877,-2.4228 0,-1.4473 0.7822,-2.3731 0.7822,-0.9258 2.001,-0.9258 1.1543,0 1.7842,0.8203 0.6299,0.8204 0.6299,2.3321 L 32.4961,-3 28.4824,-3 q 0.252,2.2676 2.2207,2.2676 0.7207,0 1.7696,-0.3867 z m -3.9375,-3.6621 2.8066,0 q 0,-1.7754 -1.3242,-1.7754 -1.3301,0 -1.4824,1.7754 z m 4.8046,5.8887 0,-0.8672 6,0 0,0.8672 z m 8.8418,-1.875 q -0.791,0 -1.9218,-0.3692 l 0,-1.0605 q 1.1308,0.5625 1.9687,0.5625 0.4981,0 0.8262,-0.2695 0.3281,-0.2696 0.3281,-0.6739 0,-0.5918 -0.9199,-0.9785 l -0.6738,-0.2871 q -1.4942,-0.6211 -1.4942,-1.7871 0,-0.832 0.5889,-1.3096 0.5889,-0.4775 1.6142,-0.4775 0.5332,0 1.3184,0.1465 l 0.2402,0.0469 0,0.9609 q -0.9668,-0.2871 -1.5351,-0.2871 -1.1133,0 -1.1133,0.8086 0,0.5215 0.8438,0.8789 l 0.5566,0.2344 q 0.9434,0.3984 1.3359,0.8408 0.3926,0.4424 0.3926,1.1045 0,0.8379 -0.6621,1.3769 -0.6621,0.5391 -1.6934,0.5391 z m 6.3399,0 q -0.8789,0 -1.3711,-0.5039 -0.4922,-0.5039 -0.4922,-1.4004 l 0,-3.7383 -0.7969,0 0,-0.8672 0.7969,0 0,-1.1543 1.1543,-0.1113 0,1.2656 1.6641,0 0,0.8672 -1.6641,0 0,3.5273 q 0,1.2481 1.0781,1.2481 0.2285,0 0.5567,-0.0762 l 0,0.7969 Q 48.9141,0.1465 48.5215,0.1465 Z M 51.0996,0 l 0,-6.3633 1.1543,0 0,1.1953 q 0.6856,-1.3359 1.9922,-1.3359 0.1758,0 0.3691,0.0293 l 0,1.0781 q -0.2988,-0.0996 -0.5273,-0.0996 -1.0957,0 -1.834,1.3008 l 0,4.1953 z m 8.8711,0 0,-1.1543 1.1543,0 0,1.1543 z m 0,-5.2031 0,-1.1602 1.1543,0 0,1.1602 z m 9.0938,5.4199 q -0.8731,0 -2.2325,-0.3809 l 0,-1.2187 q 1.4649,0.6797 2.4082,0.6797 0.7266,0 1.169,-0.3809 0.4424,-0.3808 0.4424,-1.0019 0,-0.5098 -0.2901,-0.8672 -0.29,-0.3574 -1.0693,-0.7969 l -0.5977,-0.3457 q -1.1074,-0.6328 -1.5615,-1.1924 -0.4541,-0.5596 -0.4541,-1.3037 0,-1.002 0.7266,-1.6494 0.7265,-0.6475 1.8515,-0.6475 1.002,0 2.1153,0.334 l 0,1.125 q -1.3711,-0.5391 -2.045,-0.5391 -0.6386,0 -1.0546,0.3399 -0.4161,0.3398 -0.4161,0.8555 0,0.4336 0.3047,0.7675 0.3047,0.334 1.1133,0.7969 l 0.6211,0.3516 q 1.125,0.6386 1.5703,1.207 0.4453,0.5684 0.4453,1.3652 0,1.1309 -0.8349,1.8164 -0.835,0.6856 -2.2119,0.6856 z m 6.7089,-0.0703 q -0.8789,0 -1.3711,-0.5039 -0.4921,-0.5039 -0.4921,-1.4004 l 0,-3.7383 -0.7969,0 0,-0.8672 0.7969,0 0,-1.1543 1.1543,-0.1113 0,1.2656 1.664,0 0,0.8672 -1.664,0 0,3.5273 q 0,1.2481 1.0781,1.2481 0.2285,0 0.5566,-0.0762 l 0,0.7969 Q 76.166,0.1465 75.7734,0.1465 Z M 78.3516,0 l 0,-6.3633 1.1543,0 0,1.1953 q 0.6855,-1.3359 1.9921,-1.3359 0.1758,0 0.3692,0.0293 l 0,1.0781 q -0.2988,-0.0996 -0.5274,-0.0996 -1.0957,0 -1.8339,1.3008 l 0,4.1953 z m 4.9101,0 0,-6.3633 1.1543,0 0,6.3633 z m 0,-7.5176 0,-1.1543 1.1543,0 0,1.1543 z M 86.7305,0 l 0,-6.3633 1.1543,0 0,1.1953 q 0.914,-1.3359 2.2382,-1.3359 0.8262,0 1.3184,0.5244 0.4922,0.5244 0.4922,1.4092 l 0,4.5703 -1.1543,0 0,-4.1953 q 0,-0.709 -0.208,-1.0108 -0.208,-0.3017 -0.6885,-0.3017 -1.0605,0 -1.998,1.3887 l 0,4.1191 z m 7.4707,2.1152 0.1347,-1.0019 q 1.002,0.4746 1.9746,0.4746 1.9512,0 1.9512,-2.0684 l 0,-1.0019 q -0.6387,1.3359 -2.0976,1.3359 -1.1426,0 -1.8164,-0.832 -0.6739,-0.832 -0.6739,-2.2442 0,-1.4531 0.7676,-2.3671 0.7676,-0.9141 1.9863,-0.9141 1.0664,0 1.834,0.8672 l 0,-0.7266 1.1602,0 0,4.6289 q 0,1.4942 -0.1553,2.2119 -0.1553,0.7178 -0.583,1.1748 -0.7559,0.8028 -2.3496,0.8028 -1.1133,0 -2.1328,-0.3399 z m 4.0605,-4.3183 0,-2.6426 q -0.7617,-0.791 -1.6582,-0.791 -0.7969,0 -1.248,0.6387 -0.4512,0.6386 -0.4512,1.7519 0,2.0918 1.4707,2.0918 1.002,0 1.8867,-1.0488 z" />
  </g>
  <g
     id="g71"
     transform="matrix(1.3333,0,0,1.3333,331.9917,283.01372)"
     style="font-family:sans-serif;stroke-width:2;text-rendering:optimizeLegibility">
    <path
       inkscape:connector-curvature="0"
       clip-path="url(#clipPath6)"
       id="path73"
       style="stroke:none"
       d="m 0.8672,-3.0352 0,-0.8671 5.2031,0 0,0.8671 z M 15.9785,0 l 0,-1.1953 q -0.7031,1.3418 -2.1211,1.3418 -1.1484,0 -1.8076,-0.8379 -0.6592,-0.8379 -0.6592,-2.291 0,-1.5879 0.7471,-2.5547 0.7471,-0.9668 1.9658,-0.9668 1.1309,0 1.875,0.8672 l 0,-3.6153 1.1602,0 0,9.252 z m 0,-4.8457 q -0.8965,-0.791 -1.6992,-0.791 -1.6582,0 -1.6582,2.5371 0,2.2324 1.4766,2.2324 0.9609,0 1.8808,-1.0488 z m 8.1328,4.6406 q -1.1601,0.3516 -1.9863,0.3516 -1.4062,0 -2.2939,-0.9346 -0.8877,-0.9346 -0.8877,-2.4228 0,-1.4473 0.7822,-2.3731 0.7822,-0.9258 2.001,-0.9258 1.1543,0 1.7841,0.8203 0.6299,0.8204 0.6299,2.3321 L 24.1348,-3 20.1211,-3 q 0.2519,2.2676 2.2207,2.2676 0.7207,0 1.7695,-0.3867 z m -3.9375,-3.6621 2.8067,0 q 0,-1.7754 -1.3243,-1.7754 -1.33,0 -1.4824,1.7754 z m 7.6465,4.0137 q -0.791,0 -1.9219,-0.3692 l 0,-1.0605 q 1.1309,0.5625 1.9688,0.5625 0.498,0 0.8262,-0.2695 0.3281,-0.2696 0.3281,-0.6739 0,-0.5918 -0.9199,-0.9785 l -0.6739,-0.2871 q -1.4941,-0.6211 -1.4941,-1.7871 0,-0.832 0.5889,-1.3096 0.5888,-0.4775 1.6142,-0.4775 0.5332,0 1.3184,0.1465 l 0.2402,0.0469 0,0.9609 q -0.9668,-0.2871 -1.5351,-0.2871 -1.1133,0 -1.1133,0.8086 0,0.5215 0.8437,0.8789 l 0.5567,0.2344 q 0.9433,0.3984 1.3359,0.8408 0.3926,0.4424 0.3926,1.1045 0,0.8379 -0.6621,1.3769 -0.6621,0.5391 -1.6934,0.5391 z m 6.9141,0 q -1.2891,0 -2.1387,-0.9551 -0.8496,-0.9551 -0.8496,-2.4082 0,-1.5527 0.8408,-2.4199 0.8408,-0.8672 2.3467,-0.8672 0.7441,0 1.6641,0.2051 l 0,0.9668 q -0.9786,-0.2871 -1.5938,-0.2871 -0.8848,0 -1.4209,0.665 -0.5361,0.665 -0.5361,1.7725 0,1.0722 0.5508,1.7343 0.5507,0.6621 1.4414,0.6621 0.791,0 1.6289,-0.4043 l 0,0.9961 q -1.1192,0.3399 -1.9336,0.3399 z m 2.5078,1.875 0,-0.8672 6,0 0,0.8672 z m 8.8418,-1.875 q -0.791,0 -1.9219,-0.3692 l 0,-1.0605 q 1.1309,0.5625 1.9688,0.5625 0.498,0 0.8261,-0.2695 0.3282,-0.2696 0.3282,-0.6739 0,-0.5918 -0.92,-0.9785 l -0.6738,-0.2871 q -1.4941,-0.6211 -1.4941,-1.7871 0,-0.832 0.5888,-1.3096 0.5889,-0.4775 1.6143,-0.4775 0.5332,0 1.3184,0.1465 l 0.2402,0.0469 0,0.9609 q -0.9668,-0.2871 -1.5352,-0.2871 -1.1133,0 -1.1133,0.8086 0,0.5215 0.8438,0.8789 l 0.5566,0.2344 q 0.9434,0.3984 1.336,0.8408 0.3926,0.4424 0.3926,1.1045 0,0.8379 -0.6622,1.3769 -0.6621,0.5391 -1.6933,0.5391 z m 6.3398,0 q -0.8789,0 -1.3711,-0.5039 -0.4922,-0.5039 -0.4922,-1.4004 l 0,-3.7383 -0.7968,0 0,-0.8672 0.7968,0 0,-1.1543 1.1543,-0.1113 0,1.2656 1.6641,0 0,0.8672 -1.6641,0 0,3.5273 q 0,1.2481 1.0782,1.2481 0.2285,0 0.5566,-0.0762 l 0,0.7969 Q 52.8164,0.1465 52.4238,0.1465 Z M 55.002,0 l 0,-6.3633 1.1542,0 0,1.1953 q 0.6856,-1.3359 1.9922,-1.3359 0.1758,0 0.3692,0.0293 l 0,1.0781 q -0.2988,-0.0996 -0.5274,-0.0996 -1.0957,0 -1.834,1.3008 l 0,4.1953 z m 8.871,0 0,-1.1543 1.1543,0 0,1.1543 z m 0,-5.2031 0,-1.1602 1.1543,0 0,1.1602 z m 9.0938,5.4199 q -0.873,0 -2.2324,-0.3809 l 0,-1.2187 q 1.4648,0.6797 2.4082,0.6797 0.7265,0 1.1689,-0.3809 0.4424,-0.3808 0.4424,-1.0019 0,-0.5098 -0.29,-0.8672 -0.2901,-0.3574 -1.0694,-0.7969 l -0.5976,-0.3457 q -1.1074,-0.6328 -1.5615,-1.1924 -0.4542,-0.5596 -0.4542,-1.3037 0,-1.002 0.7266,-1.6494 0.7266,-0.6475 1.8516,-0.6475 1.0019,0 2.1152,0.334 l 0,1.125 q -1.3711,-0.5391 -2.0449,-0.5391 -0.6387,0 -1.0547,0.3399 -0.416,0.3398 -0.416,0.8555 0,0.4336 0.3047,0.7675 0.3047,0.334 1.1133,0.7969 l 0.621,0.3516 q 1.125,0.6386 1.5704,1.207 0.4453,0.5684 0.4453,1.3652 0,1.1309 -0.835,1.8164 -0.8349,0.6856 -2.2119,0.6856 z m 6.709,-0.0703 q -0.8789,0 -1.3711,-0.5039 -0.4922,-0.5039 -0.4922,-1.4004 l 0,-3.7383 -0.7969,0 0,-0.8672 0.7969,0 0,-1.1543 1.1543,-0.1113 0,1.2656 1.6641,0 0,0.8672 -1.6641,0 0,3.5273 q 0,1.2481 1.0781,1.2481 0.2285,0 0.5567,-0.0762 l 0,0.7969 Q 80.0684,0.1465 79.6758,0.1465 Z M 82.2539,0 l 0,-6.3633 1.1543,0 0,1.1953 q 0.6856,-1.3359 1.9922,-1.3359 0.1758,0 0.3691,0.0293 l 0,1.0781 q -0.2988,-0.0996 -0.5273,-0.0996 -1.0957,0 -1.834,1.3008 l 0,4.1953 z m 4.9102,0 0,-6.3633 1.1543,0 0,6.3633 z m 0,-7.5176 0,-1.1543 1.1543,0 0,1.1543 z M 90.6328,0 l 0,-6.3633 1.1543,0 0,1.1953 q 0.9141,-1.3359 2.2383,-1.3359 0.8262,0 1.3184,0.5244 0.4921,0.5244 0.4921,1.4092 l 0,4.5703 -1.1543,0 0,-4.1953 q 0,-0.709 -0.208,-1.0108 -0.208,-0.3017 -0.6884,-0.3017 -1.0606,0 -1.9981,1.3887 l 0,4.1191 z m 7.4707,2.1152 0.1348,-1.0019 q 1.0019,0.4746 1.9746,0.4746 1.9512,0 1.9512,-2.0684 l 0,-1.0019 q -0.6387,1.3359 -2.0977,1.3359 -1.1426,0 -1.8164,-0.832 -0.6738,-0.832 -0.6738,-2.2442 0,-1.4531 0.7676,-2.3671 0.7675,-0.9141 1.9863,-0.9141 1.0664,0 1.834,0.8672 l 0,-0.7266 1.1601,0 0,4.6289 q 0,1.4942 -0.1553,2.2119 -0.1552,0.7178 -0.583,1.1748 -0.7558,0.8028 -2.3496,0.8028 -1.1133,0 -2.1328,-0.3399 z m 4.0606,-4.3183 0,-2.6426 q -0.7618,-0.791 -1.6582,-0.791 -0.7969,0 -1.2481,0.6387 -0.4512,0.6386 -0.4512,1.7519 0,2.0918 1.4707,2.0918 1.002,0 1.8868,-1.0488 z" />
  </g>
  <g
     id="g75"
     transform="matrix(1.3333,0,0,1.3333,331.9917,264.17046)"
     style="font-family:sans-serif;stroke-width:2;text-rendering:optimizeLegibility">
    <path
       inkscape:connector-curvature="0"
       clip-path="url(#clipPath7)"
       id="path77"
       style="stroke:none"
       d="m 0.8672,-3.0352 0,-0.8671 5.2031,0 0,0.8671 z M 15.9785,0 l 0,-1.1953 q -0.7031,1.3418 -2.1211,1.3418 -1.1484,0 -1.8076,-0.8379 -0.6592,-0.8379 -0.6592,-2.291 0,-1.5879 0.7471,-2.5547 0.7471,-0.9668 1.9658,-0.9668 1.1309,0 1.875,0.8672 l 0,-3.6153 1.1602,0 0,9.252 z m 0,-4.8457 q -0.8965,-0.791 -1.6992,-0.791 -1.6582,0 -1.6582,2.5371 0,2.2324 1.4766,2.2324 0.9609,0 1.8808,-1.0488 z m 6.75,4.0371 q -1.0371,0.9551 -1.998,0.9551 -0.791,0 -1.3125,-0.4951 -0.5215,-0.4952 -0.5215,-1.251 0,-1.043 0.876,-1.6025 0.8759,-0.5596 2.5107,-0.5596 l 0.2754,0 0,-0.7676 q 0,-1.1074 -1.1367,-1.1074 -0.9141,0 -1.9746,0.5625 l 0,-0.9551 q 1.166,-0.4746 2.1855,-0.4746 1.0664,0 1.5733,0.4805 0.5068,0.4804 0.5068,1.4941 l 0,2.8828 q 0,0.9903 0.6094,0.9903 0.0761,0 0.2226,-0.0235 l 0.0821,0.6387 q -0.3926,0.1875 -0.8672,0.1875 -0.8086,0 -1.0313,-0.9551 z m -0.1699,-0.6269 0,-1.6465 -0.3867,-0.0118 q -0.9492,0 -1.5352,0.3604 -0.5859,0.3604 -0.5859,0.9463 0,0.416 0.293,0.7031 0.2929,0.2871 0.7148,0.2871 0.7207,0 1.5,-0.6386 z m 5.4258,1.582 q -0.8789,0 -1.3711,-0.5039 -0.4922,-0.5039 -0.4922,-1.4004 l 0,-3.7383 -0.7969,0 0,-0.8672 0.7969,0 0,-1.1543 1.1543,-0.1113 0,1.2656 1.6641,0 0,0.8672 -1.6641,0 0,3.5273 q 0,1.2481 1.0781,1.2481 0.2285,0 0.5567,-0.0762 l 0,0.7969 Q 28.377,0.1465 27.9844,0.1465 Z m 5.8594,-0.9551 q -1.0372,0.9551 -1.9981,0.9551 -0.791,0 -1.3125,-0.4951 -0.5215,-0.4952 -0.5215,-1.251 0,-1.043 0.876,-1.6025 0.876,-0.5596 2.5107,-0.5596 l 0.2754,0 0,-0.7676 q 0,-1.1074 -1.1367,-1.1074 -0.9141,0 -1.9746,0.5625 l 0,-0.9551 q 1.166,-0.4746 2.1855,-0.4746 1.0665,0 1.5733,0.4805 0.5068,0.4804 0.5068,1.4941 l 0,2.8828 q 0,0.9903 0.6094,0.9903 0.0762,0 0.2227,-0.0235 l 0.082,0.6387 q -0.3926,0.1875 -0.8672,0.1875 -0.8086,0 -1.0312,-0.9551 z m -0.17,-0.6269 0,-1.6465 -0.3867,-0.0118 q -0.9492,0 -1.5351,0.3604 -0.586,0.3604 -0.586,0.9463 0,0.416 0.293,0.7031 0.293,0.2871 0.7148,0.2871 0.7207,0 1.5,-0.6386 z m 2.3614,3.457 0,-0.8672 6,0 0,0.8672 z m 9.6386,-1.875 q -1.289,0 -2.1386,-0.9551 -0.8497,-0.9551 -0.8497,-2.4082 0,-1.5527 0.8409,-2.4199 0.8408,-0.8672 2.3466,-0.8672 0.7442,0 1.6641,0.2051 l 0,0.9668 q -0.9785,-0.2871 -1.5937,-0.2871 -0.8848,0 -1.4209,0.665 -0.5362,0.665 -0.5362,1.7725 0,1.0722 0.5508,1.7343 0.5508,0.6621 1.4414,0.6621 0.791,0 1.6289,-0.4043 l 0,0.9961 Q 46.4883,0.1465 45.6738,0.1465 Z M 49.3359,0 l 0,-6.3633 1.1543,0 0,1.1953 q 0.6856,-1.3359 1.9922,-1.3359 0.1758,0 0.3692,0.0293 l 0,1.0781 q -0.2989,-0.0996 -0.5274,-0.0996 -1.0957,0 -1.834,1.3008 l 0,4.1953 z m 9.5743,-0.2051 q -1.1602,0.3516 -1.9864,0.3516 -1.4062,0 -2.2939,-0.9346 -0.8877,-0.9346 -0.8877,-2.4228 0,-1.4473 0.7822,-2.3731 0.7822,-0.9258 2.001,-0.9258 1.1543,0 1.7842,0.8203 0.6299,0.8204 0.6299,2.3321 L 58.9336,-3 54.9199,-3 q 0.252,2.2676 2.2207,2.2676 0.7207,0 1.7696,-0.3867 z m -3.9375,-3.6621 2.8066,0 q 0,-1.7754 -1.3242,-1.7754 -1.3301,0 -1.4824,1.7754 z m 9.2402,3.0586 q -1.0371,0.9551 -1.9981,0.9551 -0.791,0 -1.3125,-0.4951 -0.5214,-0.4952 -0.5214,-1.251 0,-1.043 0.8759,-1.6025 0.876,-0.5596 2.5108,-0.5596 l 0.2754,0 0,-0.7676 q 0,-1.1074 -1.1368,-1.1074 -0.914,0 -1.9746,0.5625 l 0,-0.9551 q 1.1661,-0.4746 2.1856,-0.4746 1.0664,0 1.5732,0.4805 0.5069,0.4804 0.5069,1.4941 l 0,2.8828 q 0,0.9903 0.6093,0.9903 0.0762,0 0.2227,-0.0235 l 0.082,0.6387 q -0.3925,0.1875 -0.8672,0.1875 -0.8086,0 -1.0312,-0.9551 z m -0.1699,-0.6269 0,-1.6465 -0.3868,-0.0118 q -0.9492,0 -1.5351,0.3604 -0.5859,0.3604 -0.5859,0.9463 0,0.416 0.2929,0.7031 0.293,0.2871 0.7149,0.2871 0.7207,0 1.5,-0.6386 z m 5.4258,1.582 q -0.879,0 -1.3711,-0.5039 -0.4922,-0.5039 -0.4922,-1.4004 l 0,-3.7383 -0.7969,0 0,-0.8672 0.7969,0 0,-1.1543 1.1543,-0.1113 0,1.2656 1.664,0 0,0.8672 -1.664,0 0,3.5273 q 0,1.2481 1.0781,1.2481 0.2285,0 0.5566,-0.0762 l 0,0.7969 q -0.5332,0.1465 -0.9257,0.1465 z m 7.2421,-0.3516 q -1.1601,0.3516 -1.9863,0.3516 -1.4062,0 -2.2939,-0.9346 -0.8877,-0.9346 -0.8877,-2.4228 0,-1.4473 0.7822,-2.3731 0.7822,-0.9258 2.001,-0.9258 1.1543,0 1.7842,0.8203 0.6298,0.8204 0.6298,2.3321 L 76.7344,-3 72.7207,-3 q 0.252,2.2676 2.2207,2.2676 0.7207,0 1.7695,-0.3867 z m -3.9375,-3.6621 2.8067,0 q 0,-1.7754 -1.3242,-1.7754 -1.3301,0 -1.4825,1.7754 z m 4.8047,5.8887 0,-0.8672 6,0 0,0.8672 z M 88.8164,0 l 0,-1.1953 q -0.7031,1.3418 -2.1211,1.3418 -1.1484,0 -1.8076,-0.8379 -0.6592,-0.8379 -0.6592,-2.291 0,-1.5879 0.7471,-2.5547 0.7471,-0.9668 1.9658,-0.9668 1.1309,0 1.875,0.8672 l 0,-3.6153 1.1602,0 0,9.252 z m 0,-4.8457 q -0.8965,-0.791 -1.6992,-0.791 -1.6582,0 -1.6582,2.5371 0,2.2324 1.4765,2.2324 0.961,0 1.8809,-1.0488 z m 6.75,4.0371 q -1.0371,0.9551 -1.998,0.9551 -0.7911,0 -1.3125,-0.4951 -0.5215,-0.4952 -0.5215,-1.251 0,-1.043 0.876,-1.6025 0.8759,-0.5596 2.5107,-0.5596 l 0.2754,0 0,-0.7676 q 0,-1.1074 -1.1367,-1.1074 -0.9141,0 -1.9746,0.5625 l 0,-0.9551 q 1.166,-0.4746 2.1855,-0.4746 1.0664,0 1.5732,0.4805 0.5069,0.4804 0.5069,1.4941 l 0,2.8828 q 0,0.9903 0.6094,0.9903 0.0761,0 0.2226,-0.0235 l 0.082,0.6387 q -0.3925,0.1875 -0.8671,0.1875 -0.8086,0 -1.0313,-0.9551 z m -0.1699,-0.6269 0,-1.6465 -0.3867,-0.0118 q -0.9493,0 -1.5352,0.3604 -0.5859,0.3604 -0.5859,0.9463 0,0.416 0.2929,0.7031 0.293,0.2871 0.7149,0.2871 0.7207,0 1.5,-0.6386 z m 5.4258,1.582 q -0.8789,0 -1.3711,-0.5039 -0.4922,-0.5039 -0.4922,-1.4004 l 0,-3.7383 -0.7969,0 0,-0.8672 0.7969,0 0,-1.1543 1.1543,-0.1113 0,1.2656 1.664,0 0,0.8672 -1.664,0 0,3.5273 q 0,1.2481 1.0781,1.2481 0.2285,0 0.5566,-0.0762 l 0,0.7969 q -0.5332,0.1465 -0.9257,0.1465 z m 7.2422,-0.3516 q -1.1602,0.3516 -1.9864,0.3516 -1.4062,0 -2.2939,-0.9346 -0.8877,-0.9346 -0.8877,-2.4228 0,-1.4473 0.7822,-2.3731 0.7822,-0.9258 2.001,-0.9258 1.1543,0 1.7842,0.8203 0.6299,0.8204 0.6299,2.3321 l -0.006,0.3574 -4.0137,0 q 0.252,2.2676 2.2207,2.2676 0.7207,0 1.7696,-0.3867 z m -3.9375,-3.6621 2.8066,0 q 0,-1.7754 -1.3242,-1.7754 -1.3301,0 -1.4824,1.7754 z M 114.0469,0 l 0,-1.1543 1.1543,0 0,1.1543 z m 0,-5.2031 0,-1.1602 1.1543,0 0,1.1602 z M 121.4414,0 l 0,-8.6719 2.8828,0 q 1.2891,0 2.083,0.2871 0.794,0.2871 1.374,0.9727 0.92,1.0898 0.92,2.8711 0,2.1621 -1.1426,3.3515 Q 126.416,0 124.3418,0 Z m 1.2305,-0.9199 1.5761,0 q 1.6875,0 2.3907,-0.9082 0.7558,-0.9668 0.7558,-2.5957 0,-1.5293 -0.7441,-2.4024 -0.4512,-0.5332 -1.0781,-0.7295 -0.627,-0.1963 -1.8868,-0.1963 l -1.0136,0 z m 11.0742,0.1113 q -1.0371,0.9551 -1.9981,0.9551 -0.791,0 -1.3125,-0.4951 -0.5214,-0.4952 -0.5214,-1.251 0,-1.043 0.8759,-1.6025 0.876,-0.5596 2.5108,-0.5596 l 0.2754,0 0,-0.7676 q 0,-1.1074 -1.1367,-1.1074 -0.9141,0 -1.9747,0.5625 l 0,-0.9551 q 1.1661,-0.4746 2.1856,-0.4746 1.0664,0 1.5732,0.4805 0.5069,0.4804 0.5069,1.4941 l 0,2.8828 q 0,0.9903 0.6093,0.9903 0.0762,0 0.2227,-0.0235 l 0.082,0.6387 q -0.3925,0.1875 -0.8672,0.1875 -0.8085,0 -1.0312,-0.9551 z m -0.1699,-0.6269 0,-1.6465 -0.3867,-0.0118 q -0.9493,0 -1.5352,0.3604 -0.5859,0.3604 -0.5859,0.9463 0,0.416 0.2929,0.7031 0.293,0.2871 0.7149,0.2871 0.7207,0 1.5,-0.6386 z m 5.4258,1.582 q -0.879,0 -1.3711,-0.5039 -0.4922,-0.5039 -0.4922,-1.4004 l 0,-3.7383 -0.7969,0 0,-0.8672 0.7969,0 0,-1.1543 1.1543,-0.1113 0,1.2656 1.664,0 0,0.8672 -1.664,0 0,3.5273 q 0,1.2481 1.0781,1.2481 0.2285,0 0.5566,-0.0762 l 0,0.7969 q -0.5332,0.1465 -0.9257,0.1465 z m 7.2421,-0.3516 q -1.1601,0.3516 -1.9863,0.3516 -1.4062,0 -2.2939,-0.9346 -0.8877,-0.9346 -0.8877,-2.4228 0,-1.4473 0.7822,-2.3731 0.7822,-0.9258 2.001,-0.9258 1.1543,0 1.7842,0.8203 0.6298,0.8204 0.6298,2.3321 l -0.006,0.3574 -4.0137,0 q 0.252,2.2676 2.2207,2.2676 0.7207,0 1.7695,-0.3867 z m -3.9375,-3.6621 2.8067,0 q 0,-1.7754 -1.3242,-1.7754 -1.3301,0 -1.4825,1.7754 z" />
  </g>
  <g
     id="g79"
     transform="scale(1.3333,1.3333)"
     style="font-family:sans-serif;text-rendering:optimizeLegibility">
    <line
       clip-path="url(#clipPath2)"
       id="line81"
       y2="232.5312"
       style="fill:none"
       y1="232.5312"
       x2="416"
       x1="239" />
    <line
       clip-path="url(#clipPath2)"
       id="line83"
       y2="182.1328"
       style="fill:none"
       y1="182.1328"
       x2="416"
       x1="239" />
  </g>
  <g
     id="g85"
     transform="matrix(1.3333,0,0,1.3333,368.65745,234.6608)"
     style="font-weight:bold;font-family:sans-serif;text-rendering:optimizeLegibility">
    <path
       inkscape:connector-curvature="0"
       clip-path="url(#clipPath8)"
       id="path87"
       style="stroke:none"
       d="m 0.1348,0 3.375,-8.6719 1.8047,0 L 8.6895,0 6.8379,0 5.9355,-2.3145 l -3.5859,0 L 1.4473,0 Z m 2.6601,-3.4688 2.6953,0 -1.3476,-3.457 z M 9.9199,0 l 0,-9.252 1.7344,0 0,4.0313 q 0.668,-1.3594 2.1035,-1.3594 1.1602,0 1.8252,0.8496 0.665,0.8496 0.665,2.3379 0,1.6114 -0.75,2.5752 -0.75,0.9639 -2.0039,0.9639 -1.0781,0 -1.8398,-0.7969 L 11.332,0 Z m 1.7344,-1.6816 q 0.6328,0.7031 1.3477,0.7031 0.6386,0 1.0195,-0.6182 0.3808,-0.6181 0.3808,-1.6494 0,-1.9746 -1.2714,-1.9746 -0.7676,0 -1.4766,0.9902 z m 6.0469,1.4765 0,-1.2715 q 1.289,0.5391 2.2031,0.5391 1.0664,0 1.0664,-0.7266 0,-0.4687 -0.8789,-0.8203 l -0.5859,-0.2344 q -0.9551,-0.3867 -1.3653,-0.832 -0.4101,-0.4453 -0.4101,-1.1015 0,-0.9141 0.6972,-1.4209 0.6973,-0.5069 1.9512,-0.5069 0.7852,0 1.8691,0.2285 l 0,1.2188 q -1.0429,-0.3633 -1.7285,-0.3633 -1.0781,0 -1.0781,0.668 0,0.4394 0.7969,0.7441 l 0.5039,0.1934 q 1.1308,0.4277 1.5732,0.8672 0.4424,0.4394 0.4424,1.1308 0,0.9082 -0.7529,1.4737 -0.7529,0.5654 -1.96,0.5654 -1.1601,0 -2.3437,-0.3516 z M 24.6562,0 l 0,-8.6719 3.2461,0 q 2.6426,0 2.6426,2.1504 0,0.8027 -0.4482,1.4619 -0.4483,0.6592 -1.2334,1.0108 L 31.6992,0 29.502,0 l -2.1504,-3.5449 -0.9961,0 0,3.5449 z m 1.6993,-4.7344 0.416,0 q 1.9629,0 1.9629,-1.5879 0,-1.1601 -1.752,-1.1601 l -0.6269,0 z m 11.8183,4.5176 q -1.2363,0.3633 -2.3437,0.3633 -1.6113,0 -2.543,-0.9141 -0.9316,-0.914 -0.9316,-2.4961 0,-1.4941 0.8525,-2.4052 0.8525,-0.9112 2.2529,-0.9112 1.4121,0 2.0625,0.8906 0.6504,0.8907 0.6504,2.8184 l -3.9902,0 q 0.1758,1.8399 2.0215,1.8399 0.873,0 1.9687,-0.4043 z m -4.0136,-3.6328 2.3086,0 q 0,-1.6465 -1.0606,-1.6465 -1.0781,0 -1.248,1.6465 z m 10.5527,3.709 q -1.0781,0.2871 -1.9981,0.2871 -1.541,0 -2.4345,-0.9053 -0.8936,-0.9053 -0.8936,-2.4639 0,-1.5761 0.9199,-2.4668 0.92,-0.8906 2.543,-0.8906 0.7852,0 1.8106,0.252 l 0,1.2539 q -1.0664,-0.3457 -1.7051,-0.3457 -0.7793,0 -1.2539,0.5976 -0.4746,0.5977 -0.4746,1.5879 0,1.0137 0.5127,1.6231 0.5127,0.6093 1.3681,0.6093 0.7793,0 1.6055,-0.3398 z M 46.3535,0 l 0,-6.4336 1.7344,0 0,6.4336 z m 0,-7.5176 0,-1.4472 1.7344,0 0,1.4472 z m 3.9024,9.8321 0,-8.7481 1.7343,0 0,1.2129 q 0.668,-1.3594 2.1036,-1.3594 1.1601,0 1.8251,0.8496 0.6651,0.8496 0.6651,2.3379 0,1.6172 -0.75,2.5781 -0.75,0.961 -2.0098,0.961 -1.0137,0 -1.834,-0.7969 l 0,2.9649 z m 1.7343,-3.9961 q 0.6328,0.7031 1.3477,0.7031 0.6387,0 1.0195,-0.6182 0.3809,-0.6181 0.3809,-1.6494 0,-1.9746 -1.2715,-1.9746 -0.7676,0 -1.4766,0.9902 z m 11.4551,1.4648 q -1.2363,0.3633 -2.3437,0.3633 -1.6114,0 -2.543,-0.9141 -0.9316,-0.914 -0.9316,-2.4961 0,-1.4941 0.8525,-2.4052 0.8525,-0.9112 2.2529,-0.9112 1.4121,0 2.0625,0.8906 0.6504,0.8907 0.6504,2.8184 l -3.9902,0 q 0.1758,1.8399 2.0215,1.8399 0.873,0 1.9687,-0.4043 z m -4.0137,-3.6328 2.3086,0 q 0,-1.6465 -1.0605,-1.6465 -1.0781,0 -1.2481,1.6465 z M 65.2383,0 l 0,-8.6719 2.3906,0 2.0859,6.0996 2.1504,-6.0996 2.0977,0 0,8.6719 -1.6641,0 0,-6.5449 -2.1152,5.9648 -1.4531,0 -2.0743,-6.0527 0,6.6328 z M 78.832,0.1465 q -1.5058,0 -2.3935,-0.9111 -0.8877,-0.9112 -0.8877,-2.4522 0,-1.5586 0.8935,-2.4609 0.8936,-0.9024 2.4287,-0.9024 1.5411,0 2.4346,0.9024 0.8936,0.9023 0.8936,2.4492 0,1.582 -0.8965,2.4785 -0.8965,0.8965 -2.4727,0.8965 z m 0.0293,-1.084 q 1.4942,0 1.4942,-2.291 0,-1.0488 -0.3955,-1.6582 -0.3955,-0.6094 -1.087,-0.6094 -0.6855,0 -1.081,0.6094 -0.3955,0.6094 -0.3955,1.6699 0,1.0488 0.3926,1.6641 0.3925,0.6152 1.0722,0.6152 z M 87.8438,0 l 0,-1.2129 q -0.668,1.3594 -2.1036,1.3594 -1.1601,0 -1.8222,-0.8496 -0.6621,-0.8496 -0.6621,-2.3379 0,-1.6172 0.747,-2.5781 0.7471,-0.961 2.0069,-0.961 1.0078,0 1.834,0.7969 l 0,-3.4688 1.7402,0 0,9.252 z m 0,-4.752 q -0.627,-0.7031 -1.3418,-0.7031 -0.6387,0 -1.0196,0.6153 -0.3808,0.6152 -0.3808,1.6523 0,1.9746 1.2656,1.9746 0.7734,0 1.4766,-0.9902 z m 9.1406,4.5352 q -1.2364,0.3633 -2.3438,0.3633 -1.6113,0 -2.5429,-0.9141 -0.9317,-0.914 -0.9317,-2.4961 0,-1.4941 0.8526,-2.4052 0.8525,-0.9112 2.2529,-0.9112 1.4121,0 2.0625,0.8906 0.6504,0.8907 0.6504,2.8184 l -3.9903,0 q 0.1758,1.8399 2.0215,1.8399 0.8731,0 1.9688,-0.4043 z m -4.0137,-3.6328 2.3086,0 q 0,-1.6465 -1.0605,-1.6465 -1.0782,0 -1.2481,1.6465 z M 98.7773,0 l 0,-9.252 1.7344,0 0,9.252 z" />
  </g>
</svg>
