<?xml version="1.0" encoding="UTF-8" standalone="no"?>
<svg
   xmlns:dc="http://purl.org/dc/elements/1.1/"
   xmlns:cc="http://creativecommons.org/ns#"
   xmlns:rdf="http://www.w3.org/1999/02/22-rdf-syntax-ns#"
   xmlns:svg="http://www.w3.org/2000/svg"
   xmlns="http://www.w3.org/2000/svg"
   xmlns:xlink="http://www.w3.org/1999/xlink"
   xmlns:sodipodi="http://sodipodi.sourceforge.net/DTD/sodipodi-0.dtd"
   xmlns:inkscape="http://www.inkscape.org/namespaces/inkscape"
   style="fill-opacity:1; color-rendering:auto; color-interpolation:auto; stroke:black; text-rendering:auto; stroke-linecap:square; stroke-miterlimit:10; stroke-opacity:1; shape-rendering:auto; fill:black; stroke-dasharray:none; font-weight:normal; stroke-width:1; font-family:'Dialog'; font-style:normal; stroke-linejoin:miter; font-size:12; stroke-dashoffset:0; image-rendering:auto;"
   width="880"
   height="666"
   id="svg2"
   version="1.1"
   inkscape:version="0.91 r13725"
   sodipodi:docname="raw_fb_post.svg">
  <metadata
     id="metadata119">
    <rdf:RDF>
      <cc:Work
         rdf:about="">
        <dc:format>image/svg+xml</dc:format>
        <dc:type
           rdf:resource="http://purl.org/dc/dcmitype/StillImage" />
      </cc:Work>
    </rdf:RDF>
  </metadata>
  <sodipodi:namedview
     pagecolor="#ffffff"
     bordercolor="#666666"
     borderopacity="1"
     objecttolerance="10"
     gridtolerance="10"
     guidetolerance="10"
     inkscape:pageopacity="0"
     inkscape:pageshadow="2"
     inkscape:window-width="640"
     inkscape:window-height="480"
     id="namedview117"
     showgrid="false"
     inkscape:zoom="0.35435435"
     inkscape:cx="440"
     inkscape:cy="333"
     inkscape:window-x="296"
     inkscape:window-y="134"
     inkscape:window-maximized="0"
     inkscape:current-layer="svg2" />
  <!--Generated by the Batik Graphics2D SVG Generator-->
  <defs
     id="genericDefs">
    <linearGradient
       inkscape:collect="always"
       xlink:href="#linearGradient1"
       id="linearGradient3447"
       gradientUnits="userSpaceOnUse"
       spreadMethod="pad"
       x1="200"
       y1="117"
       x2="378"
       y2="265" />
    <linearGradient
       inkscape:collect="always"
       xlink:href="#linearGradient1"
       id="linearGradient3449"
       gradientUnits="userSpaceOnUse"
       spreadMethod="pad"
       x1="200"
       y1="117"
       x2="378"
       y2="265" />
    <linearGradient
       inkscape:collect="always"
       xlink:href="#linearGradient1"
       id="linearGradient3451"
       gradientUnits="userSpaceOnUse"
       spreadMethod="pad"
       x1="200"
       y1="117"
       x2="378"
       y2="265" />
    <defs
       id="defs1">
      <linearGradient
         spreadMethod="pad"
         id="linearGradient1"
         y2="265"
         y1="117"
         x2="378"
         gradientUnits="userSpaceOnUse"
         x1="200">
        <stop
           id="stop9"
           offset="0%"
           style="stop-opacity:1; stop-color:white;" />
        <stop
           id="stop11"
           offset="100%"
           style="stop-opacity:1; stop-color:rgb(255,255,204);" />
      </linearGradient>
      <clipPath
         id="clipPath1"
         clipPathUnits="userSpaceOnUse">
        <path
           id="path14"
           d="M0 0 L880 0 L880 666 L0 666 L0 0 Z" />
      </clipPath>
      <clipPath
         id="clipPath2"
         clipPathUnits="userSpaceOnUse">
        <path
           id="path17"
           d="M0 0 L660 0 L660 499.5 L0 499.5 L0 0 Z" />
      </clipPath>
      <clipPath
         id="clipPath3"
         clipPathUnits="userSpaceOnUse">
        <path
           id="path20"
           d="M-20 -27 L640 -27 L640 472.5 L-20 472.5 L-20 -27 Z" />
      </clipPath>
      <clipPath
         id="clipPath4"
         clipPathUnits="userSpaceOnUse">
        <path
           id="path23"
           d="M-5 -5 L655 -5 L655 494.5 L-5 494.5 L-5 -5 Z" />
      </clipPath>
      <clipPath
         id="clipPath5"
         clipPathUnits="userSpaceOnUse">
        <path
           id="path26"
           d="M-210 -239.9297 L450 -239.9297 L450 259.5703 L-210 259.5703 L-210 -239.9297 Z" />
      </clipPath>
      <clipPath
         id="clipPath6"
         clipPathUnits="userSpaceOnUse">
        <path
           id="path29"
           d="M-210 -225.7969 L450 -225.7969 L450 273.7031 L-210 273.7031 L-210 -225.7969 Z" />
      </clipPath>
      <clipPath
         id="clipPath7"
         clipPathUnits="userSpaceOnUse">
        <path
           id="path32"
           d="M-210 -211.6641 L450 -211.6641 L450 287.8359 L-210 287.8359 L-210 -211.6641 Z" />
      </clipPath>
      <clipPath
         id="clipPath8"
         clipPathUnits="userSpaceOnUse">
        <path
           id="path35"
           d="M-210 -197.5312 L450 -197.5312 L450 301.9688 L-210 301.9688 L-210 -197.5312 Z" />
      </clipPath>
      <clipPath
         id="clipPath9"
         clipPathUnits="userSpaceOnUse">
        <path
           id="path38"
           d="M-210 -183.3984 L450 -183.3984 L450 316.1016 L-210 316.1016 L-210 -183.3984 Z" />
      </clipPath>
      <clipPath
         id="clipPath10"
         clipPathUnits="userSpaceOnUse">
        <path
           id="path41"
           d="M-210 -169.2656 L450 -169.2656 L450 330.2344 L-210 330.2344 L-210 -169.2656 Z" />
      </clipPath>
      <clipPath
         id="clipPath11"
         clipPathUnits="userSpaceOnUse">
        <path
           id="path44"
           d="M-210 -155.1328 L450 -155.1328 L450 344.3672 L-210 344.3672 L-210 -155.1328 Z" />
      </clipPath>
      <clipPath
         id="clipPath12"
         clipPathUnits="userSpaceOnUse">
        <path
           id="path47"
           d="M-255.5 -133 L404.5 -133 L404.5 366.5 L-255.5 366.5 L-255.5 -133 Z" />
      </clipPath>
    </defs>
  </defs>
  <g
     id="g67"
     style="font-weight:bold;font-family:sans-serif;fill:#c0c0c0;fill-opacity:0.50199998;stroke:#c0c0c0;stroke-width:2;stroke-opacity:0.50199998;shape-rendering:crispEdges;text-rendering:geometricPrecision"
     transform="matrix(1.3333,0,0,1.3333,6.6665,6.6665)">
    <rect
       clip-path="url(#clipPath4)"
       id="rect69"
       height="147.75"
       style="stroke:none"
       width="178"
       y="117"
       x="200" />
    <rect
       clip-path="url(#clipPath4)"
       id="rect71"
       height="147.75"
       style="fill:none"
       width="178"
       y="117"
       x="200" />
  </g>
  <g
     id="g73"
     style="font-weight:bold;font-family:sans-serif;fill:url(#linearGradient3449);stroke:url(#linearGradient3451);stroke-width:2;shape-rendering:crispEdges;text-rendering:geometricPrecision"
     transform="scale(1.3333,1.3333)">
    <rect
       clip-path="url(#clipPath2)"
       id="rect75"
       height="147.75"
       style="fill:url(#linearGradient3447);stroke:none"
       width="178"
       y="117"
       x="200" />
    <rect
       clip-path="url(#clipPath2)"
       id="rect77"
       height="147.75"
       style="fill:none;stroke:#000000"
       width="178"
       y="117"
       x="200" />
  </g>
  <g
     id="g79"
     transform="matrix(1.3333,0,0,1.3333,279.993,319.89827)"
     style="font-family:sans-serif;stroke-width:2;text-rendering:optimizeLegibility">
    <path
       inkscape:connector-curvature="0"
       clip-path="url(#clipPath5)"
       id="path81"
       style="stroke:none"
       d="m 0.8672,-3.0352 0,-0.8671 5.2031,0 0,0.8671 z m 13.5117,3.1817 q -1.2891,0 -2.1387,-0.9551 -0.8496,-0.9551 -0.8496,-2.4082 0,-1.5527 0.8408,-2.4199 0.8409,-0.8672 2.3467,-0.8672 0.7442,0 1.6641,0.2051 l 0,0.9668 q -0.9785,-0.2871 -1.5938,-0.2871 -0.8847,0 -1.4209,0.665 -0.5361,0.665 -0.5361,1.7725 0,1.0722 0.5508,1.7343 0.5508,0.6621 1.4414,0.6621 0.791,0 1.6289,-0.4043 l 0,0.9961 q -1.1191,0.3399 -1.9336,0.3399 z m 6.1523,0 q -1.3652,0 -2.1796,-0.9053 -0.8145,-0.9053 -0.8145,-2.4228 0,-1.5352 0.8174,-2.4288 0.8174,-0.8935 2.2178,-0.8935 1.4004,0 2.2177,0.8935 0.8174,0.8936 0.8174,2.417 0,1.5586 -0.8203,2.4493 -0.8203,0.8906 -2.2559,0.8906 z m 0.0176,-0.8672 q 1.834,0 1.834,-2.4727 0,-2.4433 -1.8105,-2.4433 -1.8047,0 -1.8047,2.4551 0,2.4609 1.7812,2.4609 z M 25.4121,0 l 0,-6.3633 1.1543,0 0,1.1953 q 0.8438,-1.3359 2.168,-1.3359 1.2773,0 1.7402,1.3359 0.8203,-1.3418 2.1328,-1.3418 0.8438,0 1.3067,0.4952 0.4629,0.4951 0.4629,1.3857 l 0,4.6289 -1.1602,0 0,-4.4473 q 0,-1.0898 -0.8613,-1.0898 -0.8965,0 -1.8809,1.2715 l 0,4.2656 -1.1601,0 0,-4.4473 q 0,-1.0957 -0.879,-1.0957 -0.873,0 -1.8691,1.2774 l 0,4.2656 z m 11.2031,0 0,-6.3633 1.1543,0 0,1.1953 q 0.8438,-1.3359 2.168,-1.3359 1.2773,0 1.7402,1.3359 0.8203,-1.3418 2.1328,-1.3418 0.8438,0 1.3067,0.4952 0.4629,0.4951 0.4629,1.3857 l 0,4.6289 -1.1602,0 0,-4.4473 q 0,-1.0898 -0.8613,-1.0898 -0.8965,0 -1.8809,1.2715 l 0,4.2656 -1.1601,0 0,-4.4473 q 0,-1.0957 -0.8789,-1.0957 -0.8731,0 -1.8692,1.2774 l 0,4.2656 z m 15.8672,-0.2051 q -1.1601,0.3516 -1.9863,0.3516 -1.4063,0 -2.294,-0.9346 -0.8876,-0.9346 -0.8876,-2.4228 0,-1.4473 0.7822,-2.3731 0.7822,-0.9258 2.001,-0.9258 1.1543,0 1.7841,0.8203 0.6299,0.8204 0.6299,2.3321 L 52.5059,-3 48.4922,-3 q 0.2519,2.2676 2.2207,2.2676 0.7207,0 1.7695,-0.3867 z m -3.9375,-3.6621 2.8067,0 q 0,-1.7754 -1.3243,-1.7754 -1.33,0 -1.4824,1.7754 z M 54.5039,0 l 0,-6.3633 1.1543,0 0,1.1953 q 0.9141,-1.3359 2.2383,-1.3359 0.8262,0 1.3183,0.5244 0.4922,0.5244 0.4922,1.4092 l 0,4.5703 -1.1543,0 0,-4.1953 q 0,-0.709 -0.208,-1.0108 -0.208,-0.3017 -0.6885,-0.3017 -1.0605,0 -1.998,1.3887 l 0,4.1191 z m 9.3574,0.1465 q -0.8789,0 -1.3711,-0.5039 -0.4922,-0.5039 -0.4922,-1.4004 l 0,-3.7383 -0.7968,0 0,-0.8672 0.7968,0 0,-1.1543 1.1543,-0.1113 0,1.2656 1.6641,0 0,0.8672 -1.6641,0 0,3.5273 q 0,1.2481 1.0782,1.2481 0.2285,0 0.5566,-0.0762 l 0,0.7969 q -0.5332,0.1465 -0.9258,0.1465 z m 4.2657,0 q -0.7911,0 -1.9219,-0.3692 l 0,-1.0605 q 1.1308,0.5625 1.9687,0.5625 0.4981,0 0.8262,-0.2695 0.3281,-0.2696 0.3281,-0.6739 0,-0.5918 -0.9199,-0.9785 l -0.6738,-0.2871 q -1.4942,-0.6211 -1.4942,-1.7871 0,-0.832 0.5889,-1.3096 0.5889,-0.4775 1.6143,-0.4775 0.5332,0 1.3183,0.1465 l 0.2403,0.0469 0,0.9609 q -0.9668,-0.2871 -1.5352,-0.2871 -1.1133,0 -1.1133,0.8086 0,0.5215 0.8438,0.8789 l 0.5566,0.2344 q 0.9434,0.3984 1.3359,0.8408 0.3926,0.4424 0.3926,1.1045 0,0.8379 -0.6621,1.3769 -0.6621,0.5391 -1.6933,0.5391 z m 3.2753,1.875 0,-0.8672 6,0 0,0.8672 z M 78.5566,0 l 0,-9.252 1.1543,0 0,9.252 z m 3.4688,0 0,-6.3633 1.1543,0 0,6.3633 z m 0,-7.5176 0,-1.1543 1.1543,0 0,1.1543 z M 85.4941,0 l 0,-9.252 1.1543,0 0,5.9766 2.6954,-3.0879 1.2421,0 -2.5722,2.9707 L 91.1191,0 89.6426,0 86.6484,-3.2637 86.6484,0 Z m 11.6778,-0.2051 q -1.1602,0.3516 -1.9864,0.3516 -1.4062,0 -2.2939,-0.9346 -0.8877,-0.9346 -0.8877,-2.4228 0,-1.4473 0.7822,-2.3731 0.7823,-0.9258 2.001,-0.9258 1.1543,0 1.7842,0.8203 0.6299,0.8204 0.6299,2.3321 L 97.1953,-3 93.1816,-3 q 0.252,2.2676 2.2207,2.2676 0.7207,0 1.7696,-0.3867 z m -3.9375,-3.6621 2.8066,0 q 0,-1.7754 -1.3242,-1.7754 -1.3301,0 -1.4824,1.7754 z m 7.6465,4.0137 q -0.7911,0 -1.9219,-0.3692 l 0,-1.0605 q 1.1308,0.5625 1.9687,0.5625 0.4981,0 0.8262,-0.2695 0.3281,-0.2696 0.3281,-0.6739 0,-0.5918 -0.9199,-0.9785 l -0.6738,-0.2871 q -1.4942,-0.6211 -1.4942,-1.7871 0,-0.832 0.5889,-1.3096 0.5889,-0.4775 1.6143,-0.4775 0.5332,0 1.3183,0.1465 l 0.2403,0.0469 0,0.9609 q -0.9668,-0.2871 -1.5352,-0.2871 -1.1133,0 -1.1133,0.8086 0,0.5215 0.8438,0.8789 l 0.5566,0.2344 q 0.9434,0.3984 1.336,0.8408 0.3925,0.4424 0.3925,1.1045 0,0.8379 -0.6621,1.3769 -0.6621,0.5391 -1.6933,0.5391 z m 3.2753,1.875 0,-0.8672 6,0 0,0.8672 z M 111.3105,0 l 0,-6.3633 1.1543,0 0,6.3633 z m 0,-7.5176 0,-1.1543 1.1543,0 0,1.1543 z M 114.7793,0 l 0,-6.3633 1.1543,0 0,1.1953 q 0.9141,-1.3359 2.2383,-1.3359 0.8261,0 1.3183,0.5244 0.4922,0.5244 0.4922,1.4092 l 0,4.5703 -1.1543,0 0,-4.1953 q 0,-0.709 -0.208,-1.0108 -0.208,-0.3017 -0.6885,-0.3017 -1.0605,0 -1.998,1.3887 l 0,4.1191 z m 9.3574,0.1465 q -0.8789,0 -1.3711,-0.5039 -0.4922,-0.5039 -0.4922,-1.4004 l 0,-3.7383 -0.7968,0 0,-0.8672 0.7968,0 0,-1.1543 1.1543,-0.1113 0,1.2656 1.6641,0 0,0.8672 -1.6641,0 0,3.5273 q 0,1.2481 1.0782,1.2481 0.2285,0 0.5566,-0.0762 l 0,0.7969 q -0.5332,0.1465 -0.9258,0.1465 z M 130.6758,0 l 0,-1.1543 1.1543,0 0,1.1543 z m 0,-5.2031 0,-1.1602 1.1543,0 0,1.1602 z M 138.1055,0 l 0,-6.3633 1.1543,0 0,6.3633 z m 0,-7.5176 0,-1.1543 1.1543,0 0,1.1543 z M 141.5742,0 l 0,-6.3633 1.1543,0 0,1.1953 q 0.9141,-1.3359 2.2383,-1.3359 0.8262,0 1.3184,0.5244 0.4921,0.5244 0.4921,1.4092 l 0,4.5703 -1.1543,0 0,-4.1953 q 0,-0.709 -0.208,-1.0108 -0.208,-0.3017 -0.6884,-0.3017 -1.0606,0 -1.9981,1.3887 l 0,4.1191 z m 9.3574,0.1465 q -0.8789,0 -1.3711,-0.5039 -0.4921,-0.5039 -0.4921,-1.4004 l 0,-3.7383 -0.7969,0 0,-0.8672 0.7969,0 0,-1.1543 1.1543,-0.1113 0,1.2656 1.664,0 0,0.8672 -1.664,0 0,3.5273 q 0,1.2481 1.0781,1.2481 0.2285,0 0.5566,-0.0762 l 0,0.7969 q -0.5332,0.1465 -0.9258,0.1465 z" />
  </g>
  <g
     id="g83"
     transform="matrix(1.3333,0,0,1.3333,279.993,301.05501)"
     style="font-family:sans-serif;stroke-width:2;text-rendering:optimizeLegibility">
    <path
       inkscape:connector-curvature="0"
       clip-path="url(#clipPath6)"
       id="path85"
       style="stroke:none"
       d="m 0.8672,-3.0352 0,-0.8671 5.2031,0 0,0.8671 z m 11.0273,5.3497 0,-8.6778 1.1543,0 0,1.1953 q 0.709,-1.3359 2.127,-1.3359 1.1484,0 1.8076,0.8379 0.6592,0.8379 0.6592,2.291 0,1.582 -0.7471,2.5518 -0.7471,0.9697 -1.9658,0.9697 -1.1309,0 -1.8809,-0.8672 l 0,3.0352 z m 1.1543,-3.8321 q 0.8907,0.7969 1.6992,0.7969 1.6641,0 1.6641,-2.5371 0,-2.2383 -1.4766,-2.2383 -0.9667,0 -1.8867,1.0488 z m 8.8887,1.6641 q -1.3652,0 -2.1797,-0.9053 -0.8144,-0.9053 -0.8144,-2.4228 0,-1.5352 0.8173,-2.4288 0.8174,-0.8935 2.2178,-0.8935 1.4004,0 2.2178,0.8935 0.8174,0.8936 0.8174,2.417 0,1.5586 -0.8203,2.4493 -0.8204,0.8906 -2.2559,0.8906 z m 0.0176,-0.8672 q 1.834,0 1.834,-2.4727 0,-2.4433 -1.8106,-2.4433 -1.8047,0 -1.8047,2.4551 0,2.4609 1.7813,2.4609 z m 6.5508,0.8672 q -0.7911,0 -1.9219,-0.3692 l 0,-1.0605 q 1.1308,0.5625 1.9687,0.5625 0.4981,0 0.8262,-0.2695 0.3281,-0.2696 0.3281,-0.6739 0,-0.5918 -0.9199,-0.9785 l -0.6738,-0.2871 q -1.4942,-0.6211 -1.4942,-1.7871 0,-0.832 0.5889,-1.3096 0.5889,-0.4775 1.6143,-0.4775 0.5332,0 1.3183,0.1465 l 0.2403,0.0469 0,0.9609 q -0.9668,-0.2871 -1.5352,-0.2871 -1.1133,0 -1.1133,0.8086 0,0.5215 0.8438,0.8789 l 0.5566,0.2344 q 0.9434,0.3984 1.336,0.8408 0.3925,0.4424 0.3925,1.1045 0,0.8379 -0.6621,1.3769 -0.6621,0.5391 -1.6933,0.5391 z m 6.3398,0 q -0.8789,0 -1.3711,-0.5039 -0.4922,-0.5039 -0.4922,-1.4004 l 0,-3.7383 -0.7969,0 0,-0.8672 0.7969,0 0,-1.1543 1.1543,-0.1113 0,1.2656 1.6641,0 0,0.8672 -1.6641,0 0,3.5273 q 0,1.2481 1.0781,1.2481 0.2286,0 0.5567,-0.0762 l 0,0.7969 q -0.5332,0.1465 -0.9258,0.1465 z m 4.2656,0 q -0.791,0 -1.9218,-0.3692 l 0,-1.0605 q 1.1308,0.5625 1.9687,0.5625 0.498,0 0.8262,-0.2695 0.3281,-0.2696 0.3281,-0.6739 0,-0.5918 -0.9199,-0.9785 l -0.6738,-0.2871 q -1.4942,-0.6211 -1.4942,-1.7871 0,-0.832 0.5889,-1.3096 0.5888,-0.4775 1.6142,-0.4775 0.5332,0 1.3184,0.1465 l 0.2402,0.0469 0,0.9609 q -0.9668,-0.2871 -1.5351,-0.2871 -1.1133,0 -1.1133,0.8086 0,0.5215 0.8437,0.8789 l 0.5567,0.2344 q 0.9433,0.3984 1.3359,0.8408 0.3926,0.4424 0.3926,1.1045 0,0.8379 -0.6621,1.3769 -0.6621,0.5391 -1.6934,0.5391 z m 3.2754,1.875 0,-0.8672 6,0 0,0.8672 z M 49.541,0 l 0,-9.252 1.1543,0 0,9.252 z m 3.4688,0 0,-6.3633 1.1543,0 0,6.3633 z m 0,-7.5176 0,-1.1543 1.1543,0 0,1.1543 z M 56.4785,0 l 0,-9.252 1.1543,0 0,5.9766 2.6953,-3.0879 1.2422,0 L 58.998,-3.3926 62.1035,0 60.627,0 57.6328,-3.2637 57.6328,0 Z m 11.6777,-0.2051 q -1.1601,0.3516 -1.9863,0.3516 -1.4062,0 -2.2939,-0.9346 -0.8877,-0.9346 -0.8877,-2.4228 0,-1.4473 0.7822,-2.3731 0.7822,-0.9258 2.001,-0.9258 1.1543,0 1.7842,0.8203 0.6298,0.8204 0.6298,2.3321 L 68.1797,-3 64.166,-3 q 0.252,2.2676 2.2207,2.2676 0.7207,0 1.7695,-0.3867 z m -3.9374,-3.6621 2.8066,0 q 0,-1.7754 -1.3242,-1.7754 -1.3301,0 -1.4824,1.7754 z m 7.6464,4.0137 q -0.791,0 -1.9218,-0.3692 l 0,-1.0605 q 1.1308,0.5625 1.9687,0.5625 0.4981,0 0.8262,-0.2695 0.3281,-0.2696 0.3281,-0.6739 0,-0.5918 -0.9199,-0.9785 l -0.6738,-0.2871 q -1.4942,-0.6211 -1.4942,-1.7871 0,-0.832 0.5889,-1.3096 0.5888,-0.4775 1.6142,-0.4775 0.5332,0 1.3184,0.1465 l 0.2402,0.0469 0,0.9609 q -0.9668,-0.2871 -1.5351,-0.2871 -1.1133,0 -1.1133,0.8086 0,0.5215 0.8437,0.8789 l 0.5567,0.2344 q 0.9433,0.3984 1.3359,0.8408 0.3926,0.4424 0.3926,1.1045 0,0.8379 -0.6621,1.3769 -0.6621,0.5391 -1.6934,0.5391 z m 3.2754,1.875 0,-0.8672 6,0 0,0.8672 z M 82.2949,0 l 0,-6.3633 1.1543,0 0,6.3633 z m 0,-7.5176 0,-1.1543 1.1543,0 0,1.1543 z M 85.7637,0 l 0,-6.3633 1.1543,0 0,1.1953 q 0.914,-1.3359 2.2382,-1.3359 0.8262,0 1.3184,0.5244 0.4922,0.5244 0.4922,1.4092 l 0,4.5703 -1.1543,0 0,-4.1953 q 0,-0.709 -0.208,-1.0108 -0.208,-0.3017 -0.6885,-0.3017 -1.0605,0 -1.998,1.3887 l 0,4.1191 z m 9.3574,0.1465 q -0.8789,0 -1.3711,-0.5039 -0.4922,-0.5039 -0.4922,-1.4004 l 0,-3.7383 -0.7969,0 0,-0.8672 0.7969,0 0,-1.1543 1.1543,-0.1113 0,1.2656 1.6641,0 0,0.8672 -1.6641,0 0,3.5273 q 0,1.2481 1.0781,1.2481 0.2286,0 0.5567,-0.0762 l 0,0.7969 Q 95.5137,0.1465 95.1211,0.1465 Z M 101.6602,0 l 0,-1.1543 1.1543,0 0,1.1543 z m 0,-5.2031 0,-1.1602 1.1543,0 0,1.1602 z M 109.0898,0 l 0,-6.3633 1.1543,0 0,6.3633 z m 0,-7.5176 0,-1.1543 1.1543,0 0,1.1543 z M 112.5586,0 l 0,-6.3633 1.1543,0 0,1.1953 q 0.9141,-1.3359 2.2383,-1.3359 0.8261,0 1.3183,0.5244 0.4922,0.5244 0.4922,1.4092 l 0,4.5703 -1.1543,0 0,-4.1953 q 0,-0.709 -0.208,-1.0108 -0.208,-0.3017 -0.6885,-0.3017 -1.0605,0 -1.998,1.3887 l 0,4.1191 z m 9.3574,0.1465 q -0.8789,0 -1.3711,-0.5039 -0.4922,-0.5039 -0.4922,-1.4004 l 0,-3.7383 -0.7968,0 0,-0.8672 0.7968,0 0,-1.1543 1.1543,-0.1113 0,1.2656 1.6641,0 0,0.8672 -1.6641,0 0,3.5273 q 0,1.2481 1.0782,1.2481 0.2285,0 0.5566,-0.0762 l 0,0.7969 q -0.5332,0.1465 -0.9258,0.1465 z" />
  </g>
  <g
     id="g87"
     transform="matrix(1.3333,0,0,1.3333,279.993,282.21174)"
     style="font-family:sans-serif;stroke-width:2;text-rendering:optimizeLegibility">
    <path
       inkscape:connector-curvature="0"
       clip-path="url(#clipPath7)"
       id="path89"
       style="stroke:none"
       d="m 0.8672,-3.0352 0,-0.8671 5.2031,0 0,0.8671 z m 14.3086,2.2266 q -1.0371,0.9551 -1.9981,0.9551 -0.791,0 -1.3125,-0.4951 -0.5214,-0.4952 -0.5214,-1.251 0,-1.043 0.8759,-1.6025 0.876,-0.5596 2.5108,-0.5596 l 0.2754,0 0,-0.7676 q 0,-1.1074 -1.1368,-1.1074 -0.914,0 -1.9746,0.5625 l 0,-0.9551 q 1.166,-0.4746 2.1856,-0.4746 1.0664,0 1.5732,0.4805 0.5069,0.4804 0.5069,1.4941 l 0,2.8828 q 0,0.9903 0.6093,0.9903 0.0762,0 0.2227,-0.0235 l 0.082,0.6387 q -0.3926,0.1875 -0.8672,0.1875 -0.8086,0 -1.0312,-0.9551 z m -0.1699,-0.6269 0,-1.6465 -0.3868,-0.0118 q -0.9492,0 -1.5351,0.3604 -0.586,0.3604 -0.586,0.9463 0,0.416 0.293,0.7031 0.293,0.2871 0.7149,0.2871 0.7207,0 1.5,-0.6386 z M 22.6055,0 l 0,-1.1953 q -0.7032,1.3418 -2.1211,1.3418 -1.1485,0 -1.8076,-0.8379 -0.6592,-0.8379 -0.6592,-2.291 0,-1.5879 0.747,-2.5547 0.7471,-0.9668 1.9659,-0.9668 1.1308,0 1.875,0.8672 l 0,-3.6153 1.1601,0 0,9.252 z m 0,-4.8457 q -0.8965,-0.791 -1.6993,-0.791 -1.6582,0 -1.6582,2.5371 0,2.2324 1.4766,2.2324 0.9609,0 1.8809,-1.0488 z M 26.0742,0 l 0,-6.3633 1.1543,0 0,1.1953 q 0.8438,-1.3359 2.168,-1.3359 1.2773,0 1.7402,1.3359 0.8203,-1.3418 2.1328,-1.3418 0.8438,0 1.3067,0.4952 0.4629,0.4951 0.4629,1.3857 l 0,4.6289 -1.1602,0 0,-4.4473 q 0,-1.0898 -0.8613,-1.0898 -0.8965,0 -1.8809,1.2715 l 0,4.2656 -1.1601,0 0,-4.4473 q 0,-1.0957 -0.8789,-1.0957 -0.8731,0 -1.8692,1.2774 l 0,4.2656 z m 11.2031,0 0,-6.3633 1.1543,0 0,6.3633 z m 0,-7.5176 0,-1.1543 1.1543,0 0,1.1543 z M 40.7461,0 l 0,-6.3633 1.1543,0 0,1.1953 q 0.9141,-1.3359 2.2383,-1.3359 0.8261,0 1.3183,0.5244 0.4922,0.5244 0.4922,1.4092 l 0,4.5703 -1.1543,0 0,-4.1953 q 0,-0.709 -0.208,-1.0108 -0.208,-0.3017 -0.6885,-0.3017 -1.0605,0 -1.998,1.3887 l 0,4.1191 z m 6.293,2.0215 0,-0.8672 6,0 0,0.8672 z m 9.6386,-1.875 q -1.289,0 -2.1386,-0.9551 -0.8496,-0.9551 -0.8496,-2.4082 0,-1.5527 0.8408,-2.4199 0.8408,-0.8672 2.3467,-0.8672 0.7441,0 1.664,0.2051 l 0,0.9668 q -0.9785,-0.2871 -1.5937,-0.2871 -0.8848,0 -1.4209,0.665 -0.5362,0.665 -0.5362,1.7725 0,1.0722 0.5508,1.7343 0.5508,0.6621 1.4414,0.6621 0.791,0 1.6289,-0.4043 l 0,0.9961 q -1.1191,0.3399 -1.9336,0.3399 z m 6.1524,0 q -1.3653,0 -2.1797,-0.9053 -0.8145,-0.9053 -0.8145,-2.4228 0,-1.5352 0.8174,-2.4288 0.8174,-0.8935 2.2178,-0.8935 1.4004,0 2.2178,0.8935 0.8173,0.8936 0.8173,2.417 0,1.5586 -0.8203,2.4493 -0.8203,0.8906 -2.2558,0.8906 z m 0.0176,-0.8672 q 1.8339,0 1.8339,-2.4727 0,-2.4433 -1.8105,-2.4433 -1.8047,0 -1.8047,2.4551 0,2.4609 1.7813,2.4609 z M 67.7109,0 l 0,-6.3633 1.1543,0 0,1.1953 q 0.8438,-1.3359 2.168,-1.3359 1.2773,0 1.7402,1.3359 0.8204,-1.3418 2.1328,-1.3418 0.8438,0 1.3067,0.4952 0.4629,0.4951 0.4629,1.3857 l 0,4.6289 -1.1602,0 0,-4.4473 q 0,-1.0898 -0.8613,-1.0898 -0.8965,0 -1.8809,1.2715 l 0,4.2656 -1.1601,0 0,-4.4473 q 0,-1.0957 -0.8789,-1.0957 -0.8731,0 -1.8692,1.2774 l 0,4.2656 z m 11.2032,0 0,-6.3633 1.1543,0 0,1.1953 q 0.8437,-1.3359 2.1679,-1.3359 1.2774,0 1.7403,1.3359 0.8203,-1.3418 2.1328,-1.3418 0.8437,0 1.3066,0.4952 0.4629,0.4951 0.4629,1.3857 l 0,4.6289 -1.1601,0 0,-4.4473 q 0,-1.0898 -0.8614,-1.0898 -0.8965,0 -1.8808,1.2715 l 0,4.2656 -1.1602,0 0,-4.4473 q 0,-1.0957 -0.8789,-1.0957 -0.873,0 -1.8691,1.2774 l 0,4.2656 z m 15.8671,-0.2051 q -1.1601,0.3516 -1.9863,0.3516 -1.4062,0 -2.2939,-0.9346 -0.8877,-0.9346 -0.8877,-2.4228 0,-1.4473 0.7822,-2.3731 0.7822,-0.9258 2.001,-0.9258 1.1543,0 1.7842,0.8203 0.6298,0.8204 0.6298,2.3321 L 94.8047,-3 90.791,-3 q 0.252,2.2676 2.2207,2.2676 0.7207,0 1.7695,-0.3867 z m -3.9374,-3.6621 2.8066,0 q 0,-1.7754 -1.3242,-1.7754 -1.3301,0 -1.4824,1.7754 z M 96.8027,0 l 0,-6.3633 1.1543,0 0,1.1953 q 0.9141,-1.3359 2.2383,-1.3359 0.8262,0 1.3184,0.5244 0.4922,0.5244 0.4922,1.4092 l 0,4.5703 -1.1543,0 0,-4.1953 q 0,-0.709 -0.208,-1.0108 -0.2081,-0.3017 -0.6885,-0.3017 -1.0606,0 -1.9981,1.3887 l 0,4.1191 z m 9.3575,0.1465 q -0.879,0 -1.3711,-0.5039 -0.4922,-0.5039 -0.4922,-1.4004 l 0,-3.7383 -0.7969,0 0,-0.8672 0.7969,0 0,-1.1543 1.1543,-0.1113 0,1.2656 1.664,0 0,0.8672 -1.664,0 0,3.5273 q 0,1.2481 1.0781,1.2481 0.2285,0 0.5566,-0.0762 l 0,0.7969 q -0.5332,0.1465 -0.9257,0.1465 z m 4.2656,0 q -0.791,0 -1.9219,-0.3692 l 0,-1.0605 q 1.1309,0.5625 1.9688,0.5625 0.498,0 0.8261,-0.2695 0.3282,-0.2696 0.3282,-0.6739 0,-0.5918 -0.92,-0.9785 l -0.6738,-0.2871 q -1.4941,-0.6211 -1.4941,-1.7871 0,-0.832 0.5888,-1.3096 0.5889,-0.4775 1.6143,-0.4775 0.5332,0 1.3183,0.1465 l 0.2403,0.0469 0,0.9609 q -0.9668,-0.2871 -1.5352,-0.2871 -1.1133,0 -1.1133,0.8086 0,0.5215 0.8438,0.8789 l 0.5566,0.2344 q 0.9434,0.3984 1.336,0.8408 0.3925,0.4424 0.3925,1.1045 0,0.8379 -0.6621,1.3769 -0.6621,0.5391 -1.6933,0.5391 z m 3.2754,1.875 0,-0.8672 6,0 0,0.8672 z M 120.8555,0 l 0,-6.3633 1.1543,0 0,6.3633 z m 0,-7.5176 0,-1.1543 1.1543,0 0,1.1543 z M 124.3242,0 l 0,-6.3633 1.1543,0 0,1.1953 q 0.9141,-1.3359 2.2383,-1.3359 0.8262,0 1.3184,0.5244 0.4921,0.5244 0.4921,1.4092 l 0,4.5703 -1.1543,0 0,-4.1953 q 0,-0.709 -0.208,-1.0108 -0.208,-0.3017 -0.6884,-0.3017 -1.0606,0 -1.9981,1.3887 l 0,4.1191 z m 9.3574,0.1465 q -0.8789,0 -1.3711,-0.5039 -0.4921,-0.5039 -0.4921,-1.4004 l 0,-3.7383 -0.7969,0 0,-0.8672 0.7969,0 0,-1.1543 1.1543,-0.1113 0,1.2656 1.664,0 0,0.8672 -1.664,0 0,3.5273 q 0,1.2481 1.0781,1.2481 0.2285,0 0.5566,-0.0762 l 0,0.7969 q -0.5332,0.1465 -0.9258,0.1465 z M 140.2207,0 l 0,-1.1543 1.1543,0 0,1.1543 z m 0,-5.2031 0,-1.1602 1.1543,0 0,1.1602 z M 147.6504,0 l 0,-6.3633 1.1543,0 0,6.3633 z m 0,-7.5176 0,-1.1543 1.1543,0 0,1.1543 z M 151.1191,0 l 0,-6.3633 1.1543,0 0,1.1953 q 0.9141,-1.3359 2.2383,-1.3359 0.8262,0 1.3184,0.5244 0.4922,0.5244 0.4922,1.4092 l 0,4.5703 -1.1543,0 0,-4.1953 q 0,-0.709 -0.208,-1.0108 -0.208,-0.3017 -0.6885,-0.3017 -1.0606,0 -1.9981,1.3887 l 0,4.1191 z m 9.3575,0.1465 q -0.8789,0 -1.3711,-0.5039 -0.4922,-0.5039 -0.4922,-1.4004 l 0,-3.7383 -0.7969,0 0,-0.8672 0.7969,0 0,-1.1543 1.1543,-0.1113 0,1.2656 1.664,0 0,0.8672 -1.664,0 0,3.5273 q 0,1.2481 1.0781,1.2481 0.2285,0 0.5566,-0.0762 l 0,0.7969 q -0.5332,0.1465 -0.9257,0.1465 z" />
  </g>
  <g
     id="g91"
     transform="matrix(1.3333,0,0,1.3333,279.993,263.36835)"
     style="font-family:sans-serif;stroke-width:2;text-rendering:optimizeLegibility">
    <path
       inkscape:connector-curvature="0"
       clip-path="url(#clipPath8)"
       id="path93"
       style="stroke:none"
       d="m 0.8672,-3.0352 0,-0.8671 5.2031,0 0,0.8671 z m 14.3086,2.2266 q -1.0371,0.9551 -1.9981,0.9551 -0.791,0 -1.3125,-0.4951 -0.5214,-0.4952 -0.5214,-1.251 0,-1.043 0.8759,-1.6025 0.876,-0.5596 2.5108,-0.5596 l 0.2754,0 0,-0.7676 q 0,-1.1074 -1.1368,-1.1074 -0.914,0 -1.9746,0.5625 l 0,-0.9551 q 1.166,-0.4746 2.1856,-0.4746 1.0664,0 1.5732,0.4805 0.5069,0.4804 0.5069,1.4941 l 0,2.8828 q 0,0.9903 0.6093,0.9903 0.0762,0 0.2227,-0.0235 l 0.082,0.6387 q -0.3926,0.1875 -0.8672,0.1875 -0.8086,0 -1.0312,-0.9551 z m -0.1699,-0.6269 0,-1.6465 -0.3868,-0.0118 q -0.9492,0 -1.5351,0.3604 -0.586,0.3604 -0.586,0.9463 0,0.416 0.293,0.7031 0.293,0.2871 0.7149,0.2871 0.7207,0 1.5,-0.6386 z M 22.6055,0 l 0,-1.1953 q -0.7032,1.3418 -2.1211,1.3418 -1.1485,0 -1.8076,-0.8379 -0.6592,-0.8379 -0.6592,-2.291 0,-1.5879 0.747,-2.5547 0.7471,-0.9668 1.9659,-0.9668 1.1308,0 1.875,0.8672 l 0,-3.6153 1.1601,0 0,9.252 z m 0,-4.8457 q -0.8965,-0.791 -1.6993,-0.791 -1.6582,0 -1.6582,2.5371 0,2.2324 1.4766,2.2324 0.9609,0 1.8809,-1.0488 z M 26.0742,0 l 0,-6.3633 1.1543,0 0,1.1953 q 0.8438,-1.3359 2.168,-1.3359 1.2773,0 1.7402,1.3359 0.8203,-1.3418 2.1328,-1.3418 0.8438,0 1.3067,0.4952 0.4629,0.4951 0.4629,1.3857 l 0,4.6289 -1.1602,0 0,-4.4473 q 0,-1.0898 -0.8613,-1.0898 -0.8965,0 -1.8809,1.2715 l 0,4.2656 -1.1601,0 0,-4.4473 q 0,-1.0957 -0.8789,-1.0957 -0.8731,0 -1.8692,1.2774 l 0,4.2656 z m 11.2031,0 0,-6.3633 1.1543,0 0,6.3633 z m 0,-7.5176 0,-1.1543 1.1543,0 0,1.1543 z M 40.7461,0 l 0,-6.3633 1.1543,0 0,1.1953 q 0.9141,-1.3359 2.2383,-1.3359 0.8261,0 1.3183,0.5244 0.4922,0.5244 0.4922,1.4092 l 0,4.5703 -1.1543,0 0,-4.1953 q 0,-0.709 -0.208,-1.0108 -0.208,-0.3017 -0.6885,-0.3017 -1.0605,0 -1.998,1.3887 l 0,4.1191 z m 6.293,2.0215 0,-0.8672 6,0 0,0.8672 z m 7.1543,0.293 0,-8.6778 1.1543,0 0,1.1953 q 0.7089,-1.3359 2.1269,-1.3359 1.1484,0 1.8076,0.8379 0.6592,0.8379 0.6592,2.291 0,1.582 -0.7471,2.5518 -0.747,0.9697 -1.9658,0.9697 -1.1308,0 -1.8808,-0.8672 l 0,3.0352 z m 1.1543,-3.8321 q 0.8906,0.7969 1.6992,0.7969 1.664,0 1.664,-2.5371 0,-2.2383 -1.4765,-2.2383 -0.9668,0 -1.8867,1.0488 z m 8.8886,1.6641 q -1.3652,0 -2.1797,-0.9053 -0.8144,-0.9053 -0.8144,-2.4228 0,-1.5352 0.8174,-2.4288 0.8174,-0.8935 2.2177,-0.8935 1.4004,0 2.2178,0.8935 0.8174,0.8936 0.8174,2.417 0,1.5586 -0.8203,2.4493 -0.8203,0.8906 -2.2559,0.8906 z m 0.0176,-0.8672 q 1.834,0 1.834,-2.4727 0,-2.4433 -1.8106,-2.4433 -1.8046,0 -1.8046,2.4551 0,2.4609 1.7812,2.4609 z m 6.5508,0.8672 q -0.791,0 -1.9219,-0.3692 l 0,-1.0605 q 1.1309,0.5625 1.9688,0.5625 0.498,0 0.8261,-0.2695 0.3282,-0.2696 0.3282,-0.6739 0,-0.5918 -0.92,-0.9785 l -0.6738,-0.2871 q -1.4941,-0.6211 -1.4941,-1.7871 0,-0.832 0.5888,-1.3096 0.5889,-0.4775 1.6143,-0.4775 0.5332,0 1.3184,0.1465 l 0.2402,0.0469 0,0.9609 q -0.9668,-0.2871 -1.5352,-0.2871 -1.1133,0 -1.1133,0.8086 0,0.5215 0.8438,0.8789 l 0.5566,0.2344 q 0.9434,0.3984 1.336,0.8408 0.3926,0.4424 0.3926,1.1045 0,0.8379 -0.6622,1.3769 -0.6621,0.5391 -1.6933,0.5391 z m 6.3398,0 q -0.8789,0 -1.3711,-0.5039 -0.4922,-0.5039 -0.4922,-1.4004 l 0,-3.7383 -0.7968,0 0,-0.8672 0.7968,0 0,-1.1543 1.1543,-0.1113 0,1.2656 1.6641,0 0,0.8672 -1.6641,0 0,3.5273 q 0,1.2481 1.0782,1.2481 0.2285,0 0.5566,-0.0762 l 0,0.7969 q -0.5332,0.1465 -0.9258,0.1465 z m 4.2657,0 q -0.7911,0 -1.9219,-0.3692 l 0,-1.0605 q 1.1308,0.5625 1.9687,0.5625 0.4981,0 0.8262,-0.2695 0.3281,-0.2696 0.3281,-0.6739 0,-0.5918 -0.9199,-0.9785 l -0.6738,-0.2871 q -1.4942,-0.6211 -1.4942,-1.7871 0,-0.832 0.5889,-1.3096 0.5889,-0.4775 1.6143,-0.4775 0.5332,0 1.3183,0.1465 l 0.2403,0.0469 0,0.9609 q -0.9668,-0.2871 -1.5352,-0.2871 -1.1133,0 -1.1133,0.8086 0,0.5215 0.8438,0.8789 l 0.5566,0.2344 q 0.9434,0.3984 1.3359,0.8408 0.3926,0.4424 0.3926,1.1045 0,0.8379 -0.6621,1.3769 -0.6621,0.5391 -1.6933,0.5391 z m 3.2753,1.875 0,-0.8672 6,0 0,0.8672 z M 91.8398,0 l 0,-6.3633 1.1543,0 0,6.3633 z m 0,-7.5176 0,-1.1543 1.1543,0 0,1.1543 z M 95.3086,0 l 0,-6.3633 1.1543,0 0,1.1953 q 0.9141,-1.3359 2.2383,-1.3359 0.8261,0 1.3183,0.5244 0.4922,0.5244 0.4922,1.4092 l 0,4.5703 -1.1543,0 0,-4.1953 q 0,-0.709 -0.208,-1.0108 -0.208,-0.3017 -0.6885,-0.3017 -1.0605,0 -1.998,1.3887 l 0,4.1191 z m 9.3574,0.1465 q -0.8789,0 -1.3711,-0.5039 -0.4922,-0.5039 -0.4922,-1.4004 l 0,-3.7383 -0.7968,0 0,-0.8672 0.7968,0 0,-1.1543 1.1543,-0.1113 0,1.2656 1.6641,0 0,0.8672 -1.6641,0 0,3.5273 q 0,1.2481 1.0782,1.2481 0.2285,0 0.5566,-0.0762 l 0,0.7969 q -0.5332,0.1465 -0.9258,0.1465 z M 111.2051,0 l 0,-1.1543 1.1543,0 0,1.1543 z m 0,-5.2031 0,-1.1602 1.1543,0 0,1.1602 z M 118.6348,0 l 0,-6.3633 1.1543,0 0,6.3633 z m 0,-7.5176 0,-1.1543 1.1543,0 0,1.1543 z M 122.1035,0 l 0,-6.3633 1.1543,0 0,1.1953 q 0.9141,-1.3359 2.2383,-1.3359 0.8262,0 1.3184,0.5244 0.4921,0.5244 0.4921,1.4092 l 0,4.5703 -1.1543,0 0,-4.1953 q 0,-0.709 -0.208,-1.0108 -0.208,-0.3017 -0.6884,-0.3017 -1.0606,0 -1.9981,1.3887 l 0,4.1191 z m 9.3574,0.1465 q -0.8789,0 -1.3711,-0.5039 -0.4921,-0.5039 -0.4921,-1.4004 l 0,-3.7383 -0.7969,0 0,-0.8672 0.7969,0 0,-1.1543 1.1543,-0.1113 0,1.2656 1.664,0 0,0.8672 -1.664,0 0,3.5273 q 0,1.2481 1.0781,1.2481 0.2285,0 0.5566,-0.0762 l 0,0.7969 q -0.5332,0.1465 -0.9258,0.1465 z" />
  </g>
  <g
     id="g95"
     transform="matrix(1.3333,0,0,1.3333,279.993,244.52509)"
     style="font-family:sans-serif;stroke-width:2;text-rendering:optimizeLegibility">
    <path
       inkscape:connector-curvature="0"
       clip-path="url(#clipPath9)"
       id="path97"
       style="stroke:none"
       d="m 0.8672,-3.0352 0,-0.8671 5.2031,0 0,0.8671 z m 13.5117,3.1817 q -1.2891,0 -2.1387,-0.9551 -0.8496,-0.9551 -0.8496,-2.4082 0,-1.5527 0.8408,-2.4199 0.8409,-0.8672 2.3467,-0.8672 0.7442,0 1.6641,0.2051 l 0,0.9668 q -0.9785,-0.2871 -1.5938,-0.2871 -0.8847,0 -1.4209,0.665 -0.5361,0.665 -0.5361,1.7725 0,1.0722 0.5508,1.7343 0.5508,0.6621 1.4414,0.6621 0.791,0 1.6289,-0.4043 l 0,0.9961 q -1.1191,0.3399 -1.9336,0.3399 z m 6.1523,0 q -1.3652,0 -2.1796,-0.9053 -0.8145,-0.9053 -0.8145,-2.4228 0,-1.5352 0.8174,-2.4288 0.8174,-0.8935 2.2178,-0.8935 1.4004,0 2.2177,0.8935 0.8174,0.8936 0.8174,2.417 0,1.5586 -0.8203,2.4493 -0.8203,0.8906 -2.2559,0.8906 z m 0.0176,-0.8672 q 1.834,0 1.834,-2.4727 0,-2.4433 -1.8105,-2.4433 -1.8047,0 -1.8047,2.4551 0,2.4609 1.7812,2.4609 z M 25.4121,0 l 0,-6.3633 1.1543,0 0,1.1953 q 0.8438,-1.3359 2.168,-1.3359 1.2773,0 1.7402,1.3359 0.8203,-1.3418 2.1328,-1.3418 0.8438,0 1.3067,0.4952 0.4629,0.4951 0.4629,1.3857 l 0,4.6289 -1.1602,0 0,-4.4473 q 0,-1.0898 -0.8613,-1.0898 -0.8965,0 -1.8809,1.2715 l 0,4.2656 -1.1601,0 0,-4.4473 q 0,-1.0957 -0.879,-1.0957 -0.873,0 -1.8691,1.2774 l 0,4.2656 z m 11.2031,0 0,-6.3633 1.1543,0 0,1.1953 q 0.8438,-1.3359 2.168,-1.3359 1.2773,0 1.7402,1.3359 0.8203,-1.3418 2.1328,-1.3418 0.8438,0 1.3067,0.4952 0.4629,0.4951 0.4629,1.3857 l 0,4.6289 -1.1602,0 0,-4.4473 q 0,-1.0898 -0.8613,-1.0898 -0.8965,0 -1.8809,1.2715 l 0,4.2656 -1.1601,0 0,-4.4473 q 0,-1.0957 -0.8789,-1.0957 -0.8731,0 -1.8692,1.2774 l 0,4.2656 z m 15.8672,-0.2051 q -1.1601,0.3516 -1.9863,0.3516 -1.4063,0 -2.294,-0.9346 -0.8876,-0.9346 -0.8876,-2.4228 0,-1.4473 0.7822,-2.3731 0.7822,-0.9258 2.001,-0.9258 1.1543,0 1.7841,0.8203 0.6299,0.8204 0.6299,2.3321 L 52.5059,-3 48.4922,-3 q 0.2519,2.2676 2.2207,2.2676 0.7207,0 1.7695,-0.3867 z m -3.9375,-3.6621 2.8067,0 q 0,-1.7754 -1.3243,-1.7754 -1.33,0 -1.4824,1.7754 z M 54.5039,0 l 0,-6.3633 1.1543,0 0,1.1953 q 0.9141,-1.3359 2.2383,-1.3359 0.8262,0 1.3183,0.5244 0.4922,0.5244 0.4922,1.4092 l 0,4.5703 -1.1543,0 0,-4.1953 q 0,-0.709 -0.208,-1.0108 -0.208,-0.3017 -0.6885,-0.3017 -1.0605,0 -1.998,1.3887 l 0,4.1191 z m 9.3574,0.1465 q -0.8789,0 -1.3711,-0.5039 -0.4922,-0.5039 -0.4922,-1.4004 l 0,-3.7383 -0.7968,0 0,-0.8672 0.7968,0 0,-1.1543 1.1543,-0.1113 0,1.2656 1.6641,0 0,0.8672 -1.6641,0 0,3.5273 q 0,1.2481 1.0782,1.2481 0.2285,0 0.5566,-0.0762 l 0,0.7969 q -0.5332,0.1465 -0.9258,0.1465 z m 4.2657,0 q -0.7911,0 -1.9219,-0.3692 l 0,-1.0605 q 1.1308,0.5625 1.9687,0.5625 0.4981,0 0.8262,-0.2695 0.3281,-0.2696 0.3281,-0.6739 0,-0.5918 -0.9199,-0.9785 l -0.6738,-0.2871 q -1.4942,-0.6211 -1.4942,-1.7871 0,-0.832 0.5889,-1.3096 0.5889,-0.4775 1.6143,-0.4775 0.5332,0 1.3183,0.1465 l 0.2403,0.0469 0,0.9609 q -0.9668,-0.2871 -1.5352,-0.2871 -1.1133,0 -1.1133,0.8086 0,0.5215 0.8438,0.8789 l 0.5566,0.2344 q 0.9434,0.3984 1.3359,0.8408 0.3926,0.4424 0.3926,1.1045 0,0.8379 -0.6621,1.3769 -0.6621,0.5391 -1.6933,0.5391 z m 3.2753,1.875 0,-0.8672 6,0 0,0.8672 z M 78.5566,0 l 0,-6.3633 1.1543,0 0,6.3633 z m 0,-7.5176 0,-1.1543 1.1543,0 0,1.1543 z M 82.0254,0 l 0,-6.3633 1.1543,0 0,1.1953 q 0.9141,-1.3359 2.2383,-1.3359 0.8261,0 1.3183,0.5244 0.4922,0.5244 0.4922,1.4092 l 0,4.5703 -1.1543,0 0,-4.1953 q 0,-0.709 -0.208,-1.0108 -0.208,-0.3017 -0.6885,-0.3017 -1.0605,0 -1.998,1.3887 l 0,4.1191 z m 9.3574,0.1465 q -0.8789,0 -1.3711,-0.5039 -0.4922,-0.5039 -0.4922,-1.4004 l 0,-3.7383 -0.7968,0 0,-0.8672 0.7968,0 0,-1.1543 1.1543,-0.1113 0,1.2656 1.6641,0 0,0.8672 -1.6641,0 0,3.5273 q 0,1.2481 1.0782,1.2481 0.2285,0 0.5566,-0.0762 l 0,0.7969 Q 91.7754,0.1465 91.3828,0.1465 Z M 97.9219,0 l 0,-1.1543 1.1543,0 0,1.1543 z m 0,-5.2031 0,-1.1602 1.1543,0 0,1.1602 z M 105.3516,0 l 0,-6.3633 1.1543,0 0,6.3633 z m 0,-7.5176 0,-1.1543 1.1543,0 0,1.1543 z M 108.8203,0 l 0,-6.3633 1.1543,0 0,1.1953 q 0.9141,-1.3359 2.2383,-1.3359 0.8262,0 1.3183,0.5244 0.4922,0.5244 0.4922,1.4092 l 0,4.5703 -1.1543,0 0,-4.1953 q 0,-0.709 -0.208,-1.0108 -0.208,-0.3017 -0.6884,-0.3017 -1.0606,0 -1.9981,1.3887 l 0,4.1191 z m 9.3574,0.1465 q -0.8789,0 -1.3711,-0.5039 -0.4921,-0.5039 -0.4921,-1.4004 l 0,-3.7383 -0.7969,0 0,-0.8672 0.7969,0 0,-1.1543 1.1543,-0.1113 0,1.2656 1.664,0 0,0.8672 -1.664,0 0,3.5273 q 0,1.2481 1.0781,1.2481 0.2285,0 0.5566,-0.0762 l 0,0.7969 q -0.5332,0.1465 -0.9258,0.1465 z" />
  </g>
  <g
     id="g99"
     transform="matrix(1.3333,0,0,1.3333,279.993,225.68182)"
     style="font-family:sans-serif;stroke-width:2;text-rendering:optimizeLegibility">
    <path
       inkscape:connector-curvature="0"
       clip-path="url(#clipPath10)"
       id="path101"
       style="stroke:none"
       d="m 0.8672,-3.0352 0,-0.8671 5.2031,0 0,0.8671 z m 11.0273,5.3497 0,-8.6778 1.1543,0 0,1.1953 q 0.709,-1.3359 2.127,-1.3359 1.1484,0 1.8076,0.8379 0.6592,0.8379 0.6592,2.291 0,1.582 -0.7471,2.5518 -0.7471,0.9697 -1.9658,0.9697 -1.1309,0 -1.8809,-0.8672 l 0,3.0352 z m 1.1543,-3.8321 q 0.8907,0.7969 1.6992,0.7969 1.6641,0 1.6641,-2.5371 0,-2.2383 -1.4766,-2.2383 -0.9667,0 -1.8867,1.0488 z m 8.8887,1.6641 q -1.3652,0 -2.1797,-0.9053 -0.8144,-0.9053 -0.8144,-2.4228 0,-1.5352 0.8173,-2.4288 0.8174,-0.8935 2.2178,-0.8935 1.4004,0 2.2178,0.8935 0.8174,0.8936 0.8174,2.417 0,1.5586 -0.8203,2.4493 -0.8204,0.8906 -2.2559,0.8906 z m 0.0176,-0.8672 q 1.834,0 1.834,-2.4727 0,-2.4433 -1.8106,-2.4433 -1.8047,0 -1.8047,2.4551 0,2.4609 1.7813,2.4609 z m 6.5508,0.8672 q -0.7911,0 -1.9219,-0.3692 l 0,-1.0605 q 1.1308,0.5625 1.9687,0.5625 0.4981,0 0.8262,-0.2695 0.3281,-0.2696 0.3281,-0.6739 0,-0.5918 -0.9199,-0.9785 l -0.6738,-0.2871 q -1.4942,-0.6211 -1.4942,-1.7871 0,-0.832 0.5889,-1.3096 0.5889,-0.4775 1.6143,-0.4775 0.5332,0 1.3183,0.1465 l 0.2403,0.0469 0,0.9609 q -0.9668,-0.2871 -1.5352,-0.2871 -1.1133,0 -1.1133,0.8086 0,0.5215 0.8438,0.8789 l 0.5566,0.2344 q 0.9434,0.3984 1.336,0.8408 0.3925,0.4424 0.3925,1.1045 0,0.8379 -0.6621,1.3769 -0.6621,0.5391 -1.6933,0.5391 z m 6.3398,0 q -0.8789,0 -1.3711,-0.5039 -0.4922,-0.5039 -0.4922,-1.4004 l 0,-3.7383 -0.7969,0 0,-0.8672 0.7969,0 0,-1.1543 1.1543,-0.1113 0,1.2656 1.6641,0 0,0.8672 -1.6641,0 0,3.5273 q 0,1.2481 1.0781,1.2481 0.2286,0 0.5567,-0.0762 l 0,0.7969 q -0.5332,0.1465 -0.9258,0.1465 z m 4.2656,0 q -0.791,0 -1.9218,-0.3692 l 0,-1.0605 q 1.1308,0.5625 1.9687,0.5625 0.498,0 0.8262,-0.2695 0.3281,-0.2696 0.3281,-0.6739 0,-0.5918 -0.9199,-0.9785 l -0.6738,-0.2871 q -1.4942,-0.6211 -1.4942,-1.7871 0,-0.832 0.5889,-1.3096 0.5888,-0.4775 1.6142,-0.4775 0.5332,0 1.3184,0.1465 l 0.2402,0.0469 0,0.9609 q -0.9668,-0.2871 -1.5351,-0.2871 -1.1133,0 -1.1133,0.8086 0,0.5215 0.8437,0.8789 l 0.5567,0.2344 q 0.9433,0.3984 1.3359,0.8408 0.3926,0.4424 0.3926,1.1045 0,0.8379 -0.6621,1.3769 -0.6621,0.5391 -1.6934,0.5391 z m 3.2754,1.875 0,-0.8672 6,0 0,0.8672 z M 49.541,0 l 0,-6.3633 1.1543,0 0,6.3633 z m 0,-7.5176 0,-1.1543 1.1543,0 0,1.1543 z M 53.0098,0 l 0,-6.3633 1.1543,0 0,1.1953 q 0.914,-1.3359 2.2382,-1.3359 0.8262,0 1.3184,0.5244 0.4922,0.5244 0.4922,1.4092 l 0,4.5703 -1.1543,0 0,-4.1953 q 0,-0.709 -0.208,-1.0108 -0.208,-0.3017 -0.6885,-0.3017 -1.0605,0 -1.998,1.3887 l 0,4.1191 z m 9.3574,0.1465 q -0.8789,0 -1.3711,-0.5039 -0.4922,-0.5039 -0.4922,-1.4004 l 0,-3.7383 -0.7969,0 0,-0.8672 0.7969,0 0,-1.1543 1.1543,-0.1113 0,1.2656 1.6641,0 0,0.8672 -1.6641,0 0,3.5273 q 0,1.2481 1.0781,1.2481 0.2285,0 0.5567,-0.0762 L 63.293,0 Q 62.7598,0.1465 62.3672,0.1465 Z M 68.9062,0 l 0,-1.1543 1.1543,0 0,1.1543 z m 0,-5.2031 0,-1.1602 1.1543,0 0,1.1602 z M 76.3359,0 l 0,-6.3633 1.1543,0 0,6.3633 z m 0,-7.5176 0,-1.1543 1.1543,0 0,1.1543 z M 79.8047,0 l 0,-6.3633 1.1543,0 0,1.1953 q 0.914,-1.3359 2.2383,-1.3359 0.8261,0 1.3183,0.5244 0.4922,0.5244 0.4922,1.4092 l 0,4.5703 -1.1543,0 0,-4.1953 q 0,-0.709 -0.208,-1.0108 -0.208,-0.3017 -0.6885,-0.3017 -1.0605,0 -1.998,1.3887 l 0,4.1191 z m 9.3574,0.1465 q -0.8789,0 -1.3711,-0.5039 -0.4922,-0.5039 -0.4922,-1.4004 l 0,-3.7383 -0.7968,0 0,-0.8672 0.7968,0 0,-1.1543 1.1543,-0.1113 0,1.2656 1.6641,0 0,0.8672 -1.6641,0 0,3.5273 q 0,1.2481 1.0781,1.2481 0.2286,0 0.5567,-0.0762 l 0,0.7969 q -0.5332,0.1465 -0.9258,0.1465 z" />
  </g>
  <g
     id="g103"
     transform="matrix(1.3333,0,0,1.3333,279.993,206.83856)"
     style="font-family:sans-serif;stroke-width:2;text-rendering:optimizeLegibility">
    <path
       inkscape:connector-curvature="0"
       clip-path="url(#clipPath11)"
       id="path105"
       style="stroke:none"
       d="m 0.8672,-3.0352 0,-0.8671 5.2031,0 0,0.8671 z M 15.9785,0 l 0,-1.1953 q -0.7031,1.3418 -2.1211,1.3418 -1.1484,0 -1.8076,-0.8379 -0.6592,-0.8379 -0.6592,-2.291 0,-1.5879 0.7471,-2.5547 0.7471,-0.9668 1.9658,-0.9668 1.1309,0 1.875,0.8672 l 0,-3.6153 1.1602,0 0,9.252 z m 0,-4.8457 q -0.8965,-0.791 -1.6992,-0.791 -1.6582,0 -1.6582,2.5371 0,2.2324 1.4766,2.2324 0.9609,0 1.8808,-1.0488 z m 6.75,4.0371 q -1.0371,0.9551 -1.998,0.9551 -0.791,0 -1.3125,-0.4951 -0.5215,-0.4952 -0.5215,-1.251 0,-1.043 0.876,-1.6025 0.8759,-0.5596 2.5107,-0.5596 l 0.2754,0 0,-0.7676 q 0,-1.1074 -1.1367,-1.1074 -0.9141,0 -1.9746,0.5625 l 0,-0.9551 q 1.166,-0.4746 2.1855,-0.4746 1.0664,0 1.5733,0.4805 0.5068,0.4804 0.5068,1.4941 l 0,2.8828 q 0,0.9903 0.6094,0.9903 0.0761,0 0.2226,-0.0235 l 0.0821,0.6387 q -0.3926,0.1875 -0.8672,0.1875 -0.8086,0 -1.0313,-0.9551 z m -0.1699,-0.6269 0,-1.6465 -0.3867,-0.0118 q -0.9492,0 -1.5352,0.3604 -0.5859,0.3604 -0.5859,0.9463 0,0.416 0.293,0.7031 0.2929,0.2871 0.7148,0.2871 0.7207,0 1.5,-0.6386 z m 5.4258,1.582 q -0.8789,0 -1.3711,-0.5039 -0.4922,-0.5039 -0.4922,-1.4004 l 0,-3.7383 -0.7969,0 0,-0.8672 0.7969,0 0,-1.1543 1.1543,-0.1113 0,1.2656 1.6641,0 0,0.8672 -1.6641,0 0,3.5273 q 0,1.2481 1.0781,1.2481 0.2285,0 0.5567,-0.0762 l 0,0.7969 Q 28.377,0.1465 27.9844,0.1465 Z m 7.2422,-0.3516 q -1.1602,0.3516 -1.9864,0.3516 -1.4062,0 -2.2939,-0.9346 -0.8877,-0.9346 -0.8877,-2.4228 0,-1.4473 0.7822,-2.3731 0.7822,-0.9258 2.001,-0.9258 1.1543,0 1.7842,0.8203 0.6299,0.8204 0.6299,2.3321 L 35.25,-3 31.2363,-3 q 0.252,2.2676 2.2207,2.2676 0.7207,0 1.7696,-0.3867 z m -3.9375,-3.6621 2.8066,0 q 0,-1.7754 -1.3242,-1.7754 -1.3301,0 -1.4824,1.7754 z m 4.8047,5.8887 0,-0.8672 6,0 0,0.8672 z m 9.6386,-1.875 q -1.289,0 -2.1386,-0.9551 -0.8497,-0.9551 -0.8497,-2.4082 0,-1.5527 0.8409,-2.4199 0.8408,-0.8672 2.3466,-0.8672 0.7442,0 1.6641,0.2051 l 0,0.9668 q -0.9785,-0.2871 -1.5937,-0.2871 -0.8848,0 -1.4209,0.665 -0.5362,0.665 -0.5362,1.7725 0,1.0722 0.5508,1.7343 0.5508,0.6621 1.4414,0.6621 0.791,0 1.6289,-0.4043 l 0,0.9961 Q 46.5469,0.1465 45.7324,0.1465 Z M 49.3945,0 l 0,-6.3633 1.1543,0 0,1.1953 q 0.6856,-1.3359 1.9922,-1.3359 0.1758,0 0.3692,0.0293 l 0,1.0781 q -0.2989,-0.0996 -0.5274,-0.0996 -1.0957,0 -1.834,1.3008 l 0,4.1953 z m 9.5743,-0.2051 q -1.1602,0.3516 -1.9864,0.3516 -1.4062,0 -2.2939,-0.9346 -0.8877,-0.9346 -0.8877,-2.4228 0,-1.4473 0.7822,-2.3731 0.7822,-0.9258 2.001,-0.9258 1.1543,0 1.7842,0.8203 0.6298,0.8204 0.6298,2.3321 L 58.9922,-3 54.9785,-3 q 0.252,2.2676 2.2207,2.2676 0.7207,0 1.7696,-0.3867 z m -3.9376,-3.6621 2.8067,0 q 0,-1.7754 -1.3242,-1.7754 -1.3301,0 -1.4825,1.7754 z m 9.2403,3.0586 q -1.0371,0.9551 -1.9981,0.9551 -0.791,0 -1.3125,-0.4951 -0.5214,-0.4952 -0.5214,-1.251 0,-1.043 0.8759,-1.6025 0.876,-0.5596 2.5108,-0.5596 l 0.2754,0 0,-0.7676 q 0,-1.1074 -1.1368,-1.1074 -0.914,0 -1.9746,0.5625 l 0,-0.9551 q 1.166,-0.4746 2.1856,-0.4746 1.0664,0 1.5732,0.4805 0.5069,0.4804 0.5069,1.4941 l 0,2.8828 q 0,0.9903 0.6093,0.9903 0.0762,0 0.2227,-0.0235 l 0.082,0.6387 q -0.3926,0.1875 -0.8672,0.1875 -0.8086,0 -1.0312,-0.9551 z m -0.1699,-0.6269 0,-1.6465 -0.3868,-0.0118 q -0.9492,0 -1.5351,0.3604 -0.5859,0.3604 -0.5859,0.9463 0,0.416 0.2929,0.7031 0.293,0.2871 0.7149,0.2871 0.7207,0 1.5,-0.6386 z m 5.4257,1.582 q -0.8789,0 -1.3711,-0.5039 -0.4921,-0.5039 -0.4921,-1.4004 l 0,-3.7383 -0.7969,0 0,-0.8672 0.7969,0 0,-1.1543 1.1543,-0.1113 0,1.2656 1.664,0 0,0.8672 -1.664,0 0,3.5273 q 0,1.2481 1.0781,1.2481 0.2285,0 0.5566,-0.0762 l 0,0.7969 q -0.5332,0.1465 -0.9258,0.1465 z m 7.2422,-0.3516 q -1.1601,0.3516 -1.9863,0.3516 -1.4062,0 -2.2939,-0.9346 -0.8877,-0.9346 -0.8877,-2.4228 0,-1.4473 0.7822,-2.3731 0.7822,-0.9258 2.001,-0.9258 1.1543,0 1.7841,0.8203 0.6299,0.8204 0.6299,2.3321 L 76.793,-3 72.7793,-3 q 0.2519,2.2676 2.2207,2.2676 0.7207,0 1.7695,-0.3867 z m -3.9375,-3.6621 2.8067,0 q 0,-1.7754 -1.3242,-1.7754 -1.3301,0 -1.4825,1.7754 z M 82.875,0 l 0,-1.1953 q -0.7031,1.3418 -2.1211,1.3418 -1.1484,0 -1.8076,-0.8379 -0.6592,-0.8379 -0.6592,-2.291 0,-1.5879 0.7471,-2.5547 0.747,-0.9668 1.9658,-0.9668 1.1309,0 1.875,0.8672 l 0,-3.6153 1.1602,0 0,9.252 z m 0,-4.8457 q -0.8965,-0.791 -1.6992,-0.791 -1.6582,0 -1.6582,2.5371 0,2.2324 1.4765,2.2324 0.961,0 1.8809,-1.0488 z m 2.3145,6.8672 0,-0.8672 6,0 0,0.8672 z M 96.4277,0 l 0,-1.1953 q -0.7031,1.3418 -2.1211,1.3418 -1.1484,0 -1.8076,-0.8379 -0.6592,-0.8379 -0.6592,-2.291 0,-1.5879 0.7471,-2.5547 0.7471,-0.9668 1.9658,-0.9668 1.1309,0 1.875,0.8672 l 0,-3.6153 1.1602,0 0,9.252 z m 0,-4.8457 q -0.8965,-0.791 -1.6992,-0.791 -1.6582,0 -1.6582,2.5371 0,2.2324 1.4766,2.2324 0.9609,0 1.8808,-1.0488 z m 6.75,4.0371 q -1.0371,0.9551 -1.998,0.9551 -0.791,0 -1.3125,-0.4951 -0.5215,-0.4952 -0.5215,-1.251 0,-1.043 0.876,-1.6025 0.876,-0.5596 2.5107,-0.5596 l 0.2754,0 0,-0.7676 q 0,-1.1074 -1.1367,-1.1074 -0.9141,0 -1.9746,0.5625 l 0,-0.9551 q 1.166,-0.4746 2.1855,-0.4746 1.0664,0 1.5733,0.4805 0.5068,0.4804 0.5068,1.4941 l 0,2.8828 q 0,0.9903 0.6094,0.9903 0.0762,0 0.2226,-0.0235 l 0.0821,0.6387 q -0.3926,0.1875 -0.8672,0.1875 -0.8086,0 -1.0313,-0.9551 z m -0.1699,-0.6269 0,-1.6465 -0.3867,-0.0118 q -0.9492,0 -1.5352,0.3604 -0.5859,0.3604 -0.5859,0.9463 0,0.416 0.293,0.7031 0.2929,0.2871 0.7148,0.2871 0.7207,0 1.5,-0.6386 z m 5.4258,1.582 q -0.8789,0 -1.3711,-0.5039 -0.4922,-0.5039 -0.4922,-1.4004 l 0,-3.7383 -0.7969,0 0,-0.8672 0.7969,0 0,-1.1543 1.1543,-0.1113 0,1.2656 1.6641,0 0,0.8672 -1.6641,0 0,3.5273 q 0,1.2481 1.0781,1.2481 0.2285,0 0.5567,-0.0762 l 0,0.7969 q -0.5332,0.1465 -0.9258,0.1465 z m 7.2422,-0.3516 q -1.1602,0.3516 -1.9863,0.3516 -1.4063,0 -2.294,-0.9346 -0.8877,-0.9346 -0.8877,-2.4228 0,-1.4473 0.7822,-2.3731 0.7823,-0.9258 2.001,-0.9258 1.1543,0 1.7842,0.8203 0.6299,0.8204 0.6299,2.3321 l -0.006,0.3574 -4.0137,0 q 0.252,2.2676 2.2207,2.2676 0.7208,0 1.7696,-0.3867 z m -3.9375,-3.6621 2.8066,0 q 0,-1.7754 -1.3242,-1.7754 -1.3301,0 -1.4824,1.7754 z M 121.6582,0 l 0,-1.1543 1.1543,0 0,1.1543 z m 0,-5.2031 0,-1.1602 1.1543,0 0,1.1602 z M 129.0527,0 l 0,-8.6719 2.8828,0 q 1.2891,0 2.0831,0.2871 0.7939,0.2871 1.374,0.9727 0.9199,1.0898 0.9199,2.8711 0,2.1621 -1.1426,3.3515 Q 134.0273,0 131.9531,0 Z m 1.2305,-0.9199 1.5762,0 q 1.6875,0 2.3906,-0.9082 0.7559,-0.9668 0.7559,-2.5957 0,-1.5293 -0.7442,-2.4024 -0.4512,-0.5332 -1.0781,-0.7295 -0.627,-0.1963 -1.8867,-0.1963 l -1.0137,0 z m 11.0742,0.1113 q -1.0371,0.9551 -1.998,0.9551 -0.791,0 -1.3125,-0.4951 -0.5215,-0.4952 -0.5215,-1.251 0,-1.043 0.876,-1.6025 0.8759,-0.5596 2.5107,-0.5596 l 0.2754,0 0,-0.7676 q 0,-1.1074 -1.1367,-1.1074 -0.9141,0 -1.9746,0.5625 l 0,-0.9551 q 1.166,-0.4746 2.1855,-0.4746 1.0664,0 1.5733,0.4805 0.5068,0.4804 0.5068,1.4941 l 0,2.8828 q 0,0.9903 0.6094,0.9903 0.0761,0 0.2226,-0.0235 l 0.0821,0.6387 q -0.3926,0.1875 -0.8672,0.1875 -0.8086,0 -1.0313,-0.9551 z m -0.1699,-0.6269 0,-1.6465 -0.3867,-0.0118 q -0.9492,0 -1.5352,0.3604 -0.5859,0.3604 -0.5859,0.9463 0,0.416 0.293,0.7031 0.2929,0.2871 0.7148,0.2871 0.7207,0 1.5,-0.6386 z m 5.4258,1.582 q -0.8789,0 -1.3711,-0.5039 -0.4922,-0.5039 -0.4922,-1.4004 l 0,-3.7383 -0.7969,0 0,-0.8672 0.7969,0 0,-1.1543 1.1543,-0.1113 0,1.2656 1.6641,0 0,0.8672 -1.6641,0 0,3.5273 q 0,1.2481 1.0781,1.2481 0.2285,0 0.5567,-0.0762 l 0,0.7969 q -0.5332,0.1465 -0.9258,0.1465 z m 7.2422,-0.3516 q -1.1602,0.3516 -1.9864,0.3516 -1.4062,0 -2.2939,-0.9346 -0.8877,-0.9346 -0.8877,-2.4228 0,-1.4473 0.7822,-2.3731 0.7823,-0.9258 2.001,-0.9258 1.1543,0 1.7842,0.8203 0.6299,0.8204 0.6299,2.3321 l -0.006,0.3574 -4.0137,0 q 0.252,2.2676 2.2207,2.2676 0.7207,0 1.7696,-0.3867 z m -3.9375,-3.6621 2.8066,0 q 0,-1.7754 -1.3242,-1.7754 -1.3301,0 -1.4824,1.7754 z" />
  </g>
  <g
     id="g107"
     transform="scale(1.3333,1.3333)"
     style="font-family:sans-serif;text-rendering:optimizeLegibility">
    <line
       clip-path="url(#clipPath2)"
       id="line109"
       y2="246.0625"
       style="fill:none"
       y1="246.0625"
       x2="378"
       x1="200" />
    <line
       clip-path="url(#clipPath2)"
       id="line111"
       y2="139.1328"
       style="fill:none"
       y1="139.1328"
       x2="378"
       x1="200" />
  </g>
  <g
     id="g113"
     transform="matrix(1.3333,0,0,1.3333,340.65815,177.3289)"
     style="font-weight:bold;font-family:sans-serif;text-rendering:optimizeLegibility">
    <path
       inkscape:connector-curvature="0"
       clip-path="url(#clipPath12)"
       id="path115"
       style="stroke:none"
       d="m 1.084,0 0,-8.6719 3.2461,0 q 2.6426,0 2.6426,2.1504 0,0.8027 -0.4483,1.4619 -0.4482,0.6592 -1.2334,1.0108 L 8.127,0 5.9297,0 3.7793,-3.5449 l -0.9961,0 0,3.5449 z m 1.6992,-4.7344 0.416,0 q 1.9629,0 1.9629,-1.5879 0,-1.1601 -1.7519,-1.1601 l -0.627,0 z m 9.7324,4.043 q -0.8672,0.8379 -1.8574,0.8379 -0.8437,0 -1.3711,-0.5156 -0.5273,-0.5157 -0.5273,-1.336 0,-1.0664 0.8525,-1.6435 0.8525,-0.5772 2.4404,-0.5772 l 0.4629,0 0,-0.5859 q 0,-1.002 -1.1426,-1.002 -1.0136,0 -2.0507,0.5742 l 0,-1.1953 q 1.1777,-0.4453 2.332,-0.4453 2.5254,0 2.5254,2.0098 l 0,2.8476 q 0,0.7559 0.4863,0.7559 0.0879,0 0.2285,-0.0234 l 0.041,0.9726 q -0.5507,0.1641 -0.9726,0.1641 -1.0664,0 -1.3711,-0.8379 z m 0,-0.9316 0,-1.3067 -0.4101,0 q -1.6817,0 -1.6817,1.0547 0,0.3574 0.2432,0.6006 0.2432,0.2432 0.6006,0.2432 0.6094,0 1.248,-0.5918 z M 17.5547,0 l -1.7871,-6.4336 1.6113,0 1.2656,4.5059 1.3477,-4.5059 1.5,0 1.2129,4.5293 1.3652,-4.5293 1.207,0 L 23.3672,0 21.7031,0 20.5312,-4.4121 19.2188,0 Z m 9.2168,0 0,-8.6719 5.4551,0 0,1.1895 -3.6504,0 0,2.6367 3,0 0,1.1953 -3,0 0,3.6504 z m 6.8906,0 0,-9.252 1.7344,0 0,4.0313 q 0.668,-1.3594 2.1035,-1.3594 1.1602,0 1.8252,0.8496 0.665,0.8496 0.665,2.3379 0,1.6114 -0.75,2.5752 -0.75,0.9639 -2.0039,0.9639 -1.0781,0 -1.8398,-0.7969 L 35.0742,0 Z m 1.7344,-1.6816 q 0.6328,0.7031 1.3476,0.7031 0.6387,0 1.0196,-0.6182 0.3808,-0.6181 0.3808,-1.6494 0,-1.9746 -1.2715,-1.9746 -0.7675,0 -1.4765,0.9902 z M 41.6133,0 l 0,-8.6719 3.0234,0 q 1.5821,0 2.2588,0.5303 0.6768,0.5303 0.6768,1.7725 0,1.4062 -0.9053,2.1884 -0.9053,0.7823 -2.5342,0.7823 l -0.75,0 0,3.3984 z m 1.7695,-4.5879 0.3516,0 q 0.9258,0 1.4619,-0.4307 0.5361,-0.4306 0.5361,-1.1689 0,-1.2949 -1.6465,-1.2949 l -0.7031,0 z m 8.291,4.7344 q -1.5058,0 -2.3935,-0.9111 -0.8877,-0.9112 -0.8877,-2.4522 0,-1.5586 0.8935,-2.4609 0.8936,-0.9024 2.4287,-0.9024 1.5411,0 2.4346,0.9024 0.8936,0.9023 0.8936,2.4492 0,1.582 -0.8965,2.4785 -0.8965,0.8965 -2.4727,0.8965 z m 0.0293,-1.084 q 1.4942,0 1.4942,-2.291 0,-1.0488 -0.3955,-1.6582 -0.3956,-0.6094 -1.087,-0.6094 -0.6855,0 -1.081,0.6094 -0.3955,0.6094 -0.3955,1.6699 0,1.0488 0.3926,1.6641 0.3925,0.6152 1.0722,0.6152 z m 4.7637,0.7324 0,-1.2715 q 1.2891,0.5391 2.2031,0.5391 1.0664,0 1.0664,-0.7266 0,-0.4687 -0.8789,-0.8203 l -0.5859,-0.2344 q -0.9551,-0.3867 -1.3653,-0.832 -0.4101,-0.4453 -0.4101,-1.1015 0,-0.9141 0.6973,-1.4209 0.6972,-0.5069 1.9511,-0.5069 0.7852,0 1.8692,0.2285 l 0,1.2188 q -1.043,-0.3633 -1.7285,-0.3633 -1.0782,0 -1.0782,0.668 0,0.4394 0.7969,0.7441 l 0.5039,0.1934 q 1.1309,0.4277 1.5733,0.8672 0.4423,0.4394 0.4423,1.1308 0,0.9082 -0.7529,1.4737 -0.7529,0.5654 -1.96,0.5654 -1.1601,0 -2.3437,-0.3516 z m 10.2715,0.1699 q -0.6211,0.1817 -0.9785,0.1817 -2.2559,0 -2.2559,-2.1094 l 0,-3.3867 -0.7207,0 0,-1.084 0.7207,0 0,-1.084 1.7344,-0.1992 0,1.2832 1.3769,0 0,1.084 -1.3769,0 0,3.1582 q 0,1.1836 0.9668,1.1836 0.2226,0 0.5332,-0.082 z" />
  </g>
</svg>
