<?xml version="1.0" encoding="UTF-8" standalone="no"?>
<svg
   xmlns:dc="http://purl.org/dc/elements/1.1/"
   xmlns:cc="http://creativecommons.org/ns#"
   xmlns:rdf="http://www.w3.org/1999/02/22-rdf-syntax-ns#"
   xmlns:svg="http://www.w3.org/2000/svg"
   xmlns="http://www.w3.org/2000/svg"
   xmlns:xlink="http://www.w3.org/1999/xlink"
   xmlns:sodipodi="http://sodipodi.sourceforge.net/DTD/sodipodi-0.dtd"
   xmlns:inkscape="http://www.inkscape.org/namespaces/inkscape"
   style="fill-opacity:1; color-rendering:auto; color-interpolation:auto; stroke:black; text-rendering:auto; stroke-linecap:square; stroke-miterlimit:10; stroke-opacity:1; shape-rendering:auto; fill:black; stroke-dasharray:none; font-weight:normal; stroke-width:1; font-family:'Dialog'; font-style:normal; stroke-linejoin:miter; font-size:12; stroke-dashoffset:0; image-rendering:auto;"
   width="880"
   height="666"
   id="svg2"
   version="1.1"
   inkscape:version="0.91 r13725"
   sodipodi:docname="raw_ig_user_trend.svg">
  <metadata
     id="metadata91">
    <rdf:RDF>
      <cc:Work
         rdf:about="">
        <dc:format>image/svg+xml</dc:format>
        <dc:type
           rdf:resource="http://purl.org/dc/dcmitype/StillImage" />
      </cc:Work>
    </rdf:RDF>
  </metadata>
  <sodipodi:namedview
     pagecolor="#ffffff"
     bordercolor="#666666"
     borderopacity="1"
     objecttolerance="10"
     gridtolerance="10"
     guidetolerance="10"
     inkscape:pageopacity="0"
     inkscape:pageshadow="2"
     inkscape:window-width="640"
     inkscape:window-height="480"
     id="namedview89"
     showgrid="false"
     inkscape:zoom="0.35435435"
     inkscape:cx="440"
     inkscape:cy="333"
     inkscape:window-x="254"
     inkscape:window-y="129"
     inkscape:window-maximized="0"
     inkscape:current-layer="svg2" />
  <!--Generated by the Batik Graphics2D SVG Generator-->
  <defs
     id="genericDefs">
    <linearGradient
       inkscape:collect="always"
       xlink:href="#linearGradient1"
       id="linearGradient3419"
       gradientUnits="userSpaceOnUse"
       spreadMethod="pad"
       x1="200"
       y1="117"
       x2="377"
       y2="205" />
    <linearGradient
       inkscape:collect="always"
       xlink:href="#linearGradient1"
       id="linearGradient3421"
       gradientUnits="userSpaceOnUse"
       spreadMethod="pad"
       x1="200"
       y1="117"
       x2="377"
       y2="205" />
    <linearGradient
       inkscape:collect="always"
       xlink:href="#linearGradient1"
       id="linearGradient3423"
       gradientUnits="userSpaceOnUse"
       spreadMethod="pad"
       x1="200"
       y1="117"
       x2="377"
       y2="205" />
    <defs
       id="defs1">
      <linearGradient
         spreadMethod="pad"
         id="linearGradient1"
         y2="205"
         y1="117"
         x2="377"
         gradientUnits="userSpaceOnUse"
         x1="200">
        <stop
           id="stop9"
           offset="0%"
           style="stop-opacity:1; stop-color:white;" />
        <stop
           id="stop11"
           offset="100%"
           style="stop-opacity:1; stop-color:rgb(255,255,204);" />
      </linearGradient>
      <clipPath
         id="clipPath1"
         clipPathUnits="userSpaceOnUse">
        <path
           id="path14"
           d="M0 0 L880 0 L880 666 L0 666 L0 0 Z" />
      </clipPath>
      <clipPath
         id="clipPath2"
         clipPathUnits="userSpaceOnUse">
        <path
           id="path17"
           d="M0 0 L660 0 L660 499.5 L0 499.5 L0 0 Z" />
      </clipPath>
      <clipPath
         id="clipPath3"
         clipPathUnits="userSpaceOnUse">
        <path
           id="path20"
           d="M-20 -27 L640 -27 L640 472.5 L-20 472.5 L-20 -27 Z" />
      </clipPath>
      <clipPath
         id="clipPath4"
         clipPathUnits="userSpaceOnUse">
        <path
           id="path23"
           d="M-5 -5 L655 -5 L655 494.5 L-5 494.5 L-5 -5 Z" />
      </clipPath>
      <clipPath
         id="clipPath5"
         clipPathUnits="userSpaceOnUse">
        <path
           id="path26"
           d="M-210 -183.3984 L450 -183.3984 L450 316.1016 L-210 316.1016 L-210 -183.3984 Z" />
      </clipPath>
      <clipPath
         id="clipPath6"
         clipPathUnits="userSpaceOnUse">
        <path
           id="path29"
           d="M-210 -169.2656 L450 -169.2656 L450 330.2344 L-210 330.2344 L-210 -169.2656 Z" />
      </clipPath>
      <clipPath
         id="clipPath7"
         clipPathUnits="userSpaceOnUse">
        <path
           id="path32"
           d="M-210 -155.1328 L450 -155.1328 L450 344.3672 L-210 344.3672 L-210 -155.1328 Z" />
      </clipPath>
      <clipPath
         id="clipPath8"
         clipPathUnits="userSpaceOnUse">
        <path
           id="path35"
           d="M-238 -133 L422 -133 L422 366.5 L-238 366.5 L-238 -133 Z" />
      </clipPath>
    </defs>
  </defs>
  <g
     id="g55"
     style="font-weight:bold;font-family:sans-serif;fill:#c0c0c0;fill-opacity:0.50199998;stroke:#c0c0c0;stroke-width:2;stroke-opacity:0.50199998;shape-rendering:crispEdges;text-rendering:geometricPrecision"
     transform="matrix(1.3333,0,0,1.3333,6.6665,6.6665)">
    <rect
       clip-path="url(#clipPath4)"
       id="rect57"
       height="87.375"
       style="stroke:none"
       width="177"
       y="117"
       x="200" />
    <rect
       clip-path="url(#clipPath4)"
       id="rect59"
       height="87.375"
       style="fill:none"
       width="177"
       y="117"
       x="200" />
  </g>
  <g
     id="g61"
     style="font-weight:bold;font-family:sans-serif;fill:url(#linearGradient3421);stroke:url(#linearGradient3423);stroke-width:2;shape-rendering:crispEdges;text-rendering:geometricPrecision"
     transform="scale(1.3333,1.3333)">
    <rect
       clip-path="url(#clipPath2)"
       id="rect63"
       height="87.375"
       style="fill:url(#linearGradient3419);stroke:none"
       width="177"
       y="117"
       x="200" />
    <rect
       clip-path="url(#clipPath2)"
       id="rect65"
       height="87.375"
       style="fill:none;stroke:#000000"
       width="177"
       y="117"
       x="200" />
  </g>
  <g
     id="g67"
     transform="matrix(1.3333,0,0,1.3333,279.993,244.52509)"
     style="font-family:sans-serif;stroke-width:2;text-rendering:optimizeLegibility">
    <path
       inkscape:connector-curvature="0"
       clip-path="url(#clipPath5)"
       id="path69"
       style="stroke:none"
       d="m 0.8672,-3.0352 0,-0.8671 5.2031,0 0,0.8671 z m 12.4043,-2.4609 0,5.4961 -1.1602,0 0,-5.4961 -0.9023,0 0,-0.8672 0.9023,0 0,-0.7617 q 0,-2.2734 2.0742,-2.2734 0.5801,0 1.3184,0.1933 l 0,0.9141 q -0.7793,-0.2402 -1.248,-0.2402 -0.5684,0 -0.7764,0.2724 -0.208,0.2725 -0.208,1.0108 l 0,0.8847 1.5879,0 0,0.8672 z m 5.5254,5.6426 q -1.3653,0 -2.1797,-0.9053 -0.8145,-0.9053 -0.8145,-2.4228 0,-1.5352 0.8174,-2.4288 0.8174,-0.8935 2.2178,-0.8935 1.4004,0 2.2178,0.8935 0.8173,0.8936 0.8173,2.417 0,1.5586 -0.8203,2.4493 -0.8203,0.8906 -2.2558,0.8906 z m 0.0176,-0.8672 q 1.8339,0 1.8339,-2.4727 0,-2.4433 -1.8105,-2.4433 -1.8047,0 -1.8047,2.4551 0,2.4609 1.7813,2.4609 z M 23.6777,0 l 0,-9.252 1.1543,0 0,9.252 z m 3.4688,0 0,-9.252 1.1543,0 0,9.252 z m 5.959,0.1465 q -1.3653,0 -2.1797,-0.9053 -0.8145,-0.9053 -0.8145,-2.4228 0,-1.5352 0.8174,-2.4288 0.8174,-0.8935 2.2178,-0.8935 1.4004,0 2.2178,0.8935 0.8173,0.8936 0.8173,2.417 0,1.5586 -0.8203,2.4493 -0.8203,0.8906 -2.2558,0.8906 z m 0.0175,-0.8672 q 1.834,0 1.834,-2.4727 0,-2.4433 -1.8105,-2.4433 -1.8047,0 -1.8047,2.4551 0,2.4609 1.7812,2.4609 z M 38.7246,0 l -1.8223,-6.3633 1.1309,0 1.3945,4.9278 1.5059,-4.9278 1.1543,0 1.3183,4.9278 1.5997,-4.9278 0.9902,0 L 43.9219,0 42.7617,0 41.4141,-4.9277 39.8906,0 Z m 10.1953,0.1465 q -0.791,0 -1.9219,-0.3692 l 0,-1.0605 q 1.1309,0.5625 1.9688,0.5625 0.498,0 0.8262,-0.2695 0.3281,-0.2696 0.3281,-0.6739 0,-0.5918 -0.9199,-0.9785 l -0.6739,-0.2871 q -1.4941,-0.6211 -1.4941,-1.7871 0,-0.832 0.5889,-1.3096 0.5888,-0.4775 1.6142,-0.4775 0.5332,0 1.3184,0.1465 l 0.2402,0.0469 0,0.9609 q -0.9668,-0.2871 -1.5351,-0.2871 -1.1133,0 -1.1133,0.8086 0,0.5215 0.8437,0.8789 l 0.5567,0.2344 q 0.9433,0.3984 1.3359,0.8408 0.3926,0.4424 0.3926,1.1045 0,0.8379 -0.6621,1.3769 -0.6621,0.5391 -1.6934,0.5391 z m 3.2754,1.875 0,-0.8672 6,0 0,0.8672 z M 59.3496,0 l 0,-6.3633 1.1543,0 0,6.3633 z m 0,-7.5176 0,-1.1543 1.1543,0 0,1.1543 z M 62.8184,0 l 0,-6.3633 1.1543,0 0,1.1953 q 0.914,-1.3359 2.2382,-1.3359 0.8262,0 1.3184,0.5244 0.4922,0.5244 0.4922,1.4092 l 0,4.5703 -1.1543,0 0,-4.1953 q 0,-0.709 -0.208,-1.0108 -0.208,-0.3017 -0.6885,-0.3017 -1.0605,0 -1.998,1.3887 l 0,4.1191 z m 9.3574,0.1465 q -0.8789,0 -1.3711,-0.5039 -0.4922,-0.5039 -0.4922,-1.4004 l 0,-3.7383 -0.7969,0 0,-0.8672 0.7969,0 0,-1.1543 1.1543,-0.1113 0,1.2656 1.6641,0 0,0.8672 -1.6641,0 0,3.5273 q 0,1.2481 1.0781,1.2481 0.2285,0 0.5567,-0.0762 l 0,0.7969 Q 72.5684,0.1465 72.1758,0.1465 Z M 78.7148,0 l 0,-1.1543 1.1543,0 0,1.1543 z m 0,-5.2031 0,-1.1602 1.1543,0 0,1.1602 z M 86.1445,0 l 0,-6.3633 1.1543,0 0,6.3633 z m 0,-7.5176 0,-1.1543 1.1543,0 0,1.1543 z M 89.6133,0 l 0,-6.3633 1.1543,0 0,1.1953 q 0.914,-1.3359 2.2383,-1.3359 0.8261,0 1.3183,0.5244 0.4922,0.5244 0.4922,1.4092 l 0,4.5703 -1.1543,0 0,-4.1953 q 0,-0.709 -0.208,-1.0108 -0.208,-0.3017 -0.6885,-0.3017 -1.0605,0 -1.998,1.3887 l 0,4.1191 z m 9.3574,0.1465 q -0.8789,0 -1.3711,-0.5039 -0.4922,-0.5039 -0.4922,-1.4004 l 0,-3.7383 -0.7969,0 0,-0.8672 0.7969,0 0,-1.1543 1.1543,-0.1113 0,1.2656 1.6641,0 0,0.8672 -1.6641,0 0,3.5273 q 0,1.2481 1.0781,1.2481 0.2286,0 0.5567,-0.0762 l 0,0.7969 q -0.5332,0.1465 -0.9258,0.1465 z" />
  </g>
  <g
     id="g71"
     transform="matrix(1.3333,0,0,1.3333,279.993,225.68182)"
     style="font-family:sans-serif;stroke-width:2;text-rendering:optimizeLegibility">
    <path
       inkscape:connector-curvature="0"
       clip-path="url(#clipPath6)"
       id="path73"
       style="stroke:none"
       d="m 0.8672,-3.0352 0,-0.8671 5.2031,0 0,0.8671 z m 12.4043,-2.4609 0,5.4961 -1.1602,0 0,-5.4961 -0.9023,0 0,-0.8672 0.9023,0 0,-0.7617 q 0,-2.2734 2.0742,-2.2734 0.5801,0 1.3184,0.1933 l 0,0.9141 q -0.7793,-0.2402 -1.248,-0.2402 -0.5684,0 -0.7764,0.2724 -0.208,0.2725 -0.208,1.0108 l 0,0.8847 1.5879,0 0,0.8672 z m 5.5254,5.6426 q -1.3653,0 -2.1797,-0.9053 -0.8145,-0.9053 -0.8145,-2.4228 0,-1.5352 0.8174,-2.4288 0.8174,-0.8935 2.2178,-0.8935 1.4004,0 2.2178,0.8935 0.8173,0.8936 0.8173,2.417 0,1.5586 -0.8203,2.4493 -0.8203,0.8906 -2.2558,0.8906 z m 0.0176,-0.8672 q 1.8339,0 1.8339,-2.4727 0,-2.4433 -1.8105,-2.4433 -1.8047,0 -1.8047,2.4551 0,2.4609 1.7813,2.4609 z M 23.6777,0 l 0,-9.252 1.1543,0 0,9.252 z m 3.4688,0 0,-9.252 1.1543,0 0,9.252 z m 5.959,0.1465 q -1.3653,0 -2.1797,-0.9053 -0.8145,-0.9053 -0.8145,-2.4228 0,-1.5352 0.8174,-2.4288 0.8174,-0.8935 2.2178,-0.8935 1.4004,0 2.2178,0.8935 0.8173,0.8936 0.8173,2.417 0,1.5586 -0.8203,2.4493 -0.8203,0.8906 -2.2558,0.8906 z m 0.0175,-0.8672 q 1.834,0 1.834,-2.4727 0,-2.4433 -1.8105,-2.4433 -1.8047,0 -1.8047,2.4551 0,2.4609 1.7812,2.4609 z M 38.7246,0 l -1.8223,-6.3633 1.1309,0 1.3945,4.9278 1.5059,-4.9278 1.1543,0 1.3183,4.9278 1.5997,-4.9278 0.9902,0 L 43.9219,0 42.7617,0 41.4141,-4.9277 39.8906,0 Z m 13.1719,-0.2051 q -1.1602,0.3516 -1.9863,0.3516 -1.4063,0 -2.294,-0.9346 -0.8877,-0.9346 -0.8877,-2.4228 0,-1.4473 0.7822,-2.3731 0.7823,-0.9258 2.001,-0.9258 1.1543,0 1.7842,0.8203 0.6299,0.8204 0.6299,2.3321 L 51.9199,-3 47.9062,-3 q 0.252,2.2676 2.2208,2.2676 0.7207,0 1.7695,-0.3867 z m -3.9375,-3.6621 2.8066,0 q 0,-1.7754 -1.3242,-1.7754 -1.3301,0 -1.4824,1.7754 z M 58.002,0 l 0,-1.1953 q -0.7032,1.3418 -2.1211,1.3418 -1.1485,0 -1.8077,-0.8379 -0.6591,-0.8379 -0.6591,-2.291 0,-1.5879 0.747,-2.5547 0.7471,-0.9668 1.9659,-0.9668 1.1308,0 1.875,0.8672 l 0,-3.6153 1.1601,0 0,9.252 z m 0,-4.8457 q -0.8965,-0.791 -1.6993,-0.791 -1.6582,0 -1.6582,2.5371 0,2.2324 1.4766,2.2324 0.9609,0 1.8809,-1.0488 z m 2.3144,6.8672 0,-0.8672 6,0 0,0.8672 z m 7.1543,-1.9512 0,-9.3223 1.1543,0 0,4.084 q 0.709,-1.3359 2.127,-1.3359 1.1484,0 1.8076,0.8379 0.6592,0.8379 0.6592,2.291 0,1.582 -0.7471,2.5518 -0.7471,0.9697 -1.9658,0.9697 -1.1309,0 -1.8809,-0.8672 l -0.1406,0.791 z m 1.1543,-1.5879 q 0.8906,0.7969 1.6992,0.7969 1.6641,0 1.6641,-2.5371 0,-2.2383 -1.4766,-2.2383 -0.9668,0 -1.8867,1.0488 z M 75.3926,2.3145 76.4238,0 l -2.4609,-6.3633 1.248,0 1.8223,4.793 1.9453,-4.793 1.0899,0 -3.4746,8.6778 z m 4.7461,-0.293 0,-0.8672 6,0 0,0.8672 z M 87.293,0 l 0,-6.3633 1.1543,0 0,6.3633 z m 0,-7.5176 0,-1.1543 1.1543,0 0,1.1543 z M 90.7617,0 l 0,-6.3633 1.1543,0 0,1.1953 q 0.9141,-1.3359 2.2383,-1.3359 0.8262,0 1.3184,0.5244 0.4921,0.5244 0.4921,1.4092 l 0,4.5703 -1.1543,0 0,-4.1953 q 0,-0.709 -0.208,-1.0108 -0.208,-0.3017 -0.6884,-0.3017 -1.0606,0 -1.9981,1.3887 l 0,4.1191 z m 9.3574,0.1465 q -0.8789,0 -1.3711,-0.5039 -0.4921,-0.5039 -0.4921,-1.4004 l 0,-3.7383 -0.7969,0 0,-0.8672 0.7969,0 0,-1.1543 1.1543,-0.1113 0,1.2656 1.664,0 0,0.8672 -1.664,0 0,3.5273 q 0,1.2481 1.0781,1.2481 0.2285,0 0.5566,-0.0762 l 0,0.7969 q -0.5332,0.1465 -0.9258,0.1465 z M 106.6582,0 l 0,-1.1543 1.1543,0 0,1.1543 z m 0,-5.2031 0,-1.1602 1.1543,0 0,1.1602 z M 114.0879,0 l 0,-6.3633 1.1543,0 0,6.3633 z m 0,-7.5176 0,-1.1543 1.1543,0 0,1.1543 z M 117.5566,0 l 0,-6.3633 1.1543,0 0,1.1953 q 0.9141,-1.3359 2.2383,-1.3359 0.8262,0 1.3184,0.5244 0.4922,0.5244 0.4922,1.4092 l 0,4.5703 -1.1543,0 0,-4.1953 q 0,-0.709 -0.208,-1.0108 -0.208,-0.3017 -0.6885,-0.3017 -1.0606,0 -1.9981,1.3887 l 0,4.1191 z m 9.3575,0.1465 q -0.8789,0 -1.3711,-0.5039 -0.4922,-0.5039 -0.4922,-1.4004 l 0,-3.7383 -0.7969,0 0,-0.8672 0.7969,0 0,-1.1543 1.1543,-0.1113 0,1.2656 1.664,0 0,0.8672 -1.664,0 0,3.5273 q 0,1.2481 1.0781,1.2481 0.2285,0 0.5566,-0.0762 l 0,0.7969 q -0.5332,0.1465 -0.9257,0.1465 z" />
  </g>
  <g
     id="g75"
     transform="matrix(1.3333,0,0,1.3333,279.993,206.83856)"
     style="font-family:sans-serif;stroke-width:2;text-rendering:optimizeLegibility">
    <path
       inkscape:connector-curvature="0"
       clip-path="url(#clipPath7)"
       id="path77"
       style="stroke:none"
       d="m 0.8672,-3.0352 0,-0.8671 5.2031,0 0,0.8671 z M 11.8945,0 l 0,-6.3633 1.1543,0 0,1.1953 q 0.8438,-1.3359 2.168,-1.3359 1.2773,0 1.7402,1.3359 0.8203,-1.3418 2.1328,-1.3418 0.8438,0 1.3067,0.4952 0.4629,0.4951 0.4629,1.3857 l 0,4.6289 -1.1602,0 0,-4.4473 q 0,-1.0898 -0.8613,-1.0898 -0.8965,0 -1.8809,1.2715 l 0,4.2656 -1.1601,0 0,-4.4473 q 0,-1.0957 -0.8789,-1.0957 -0.8731,0 -1.8692,1.2774 l 0,4.2656 z m 15.8672,-0.2051 q -1.1601,0.3516 -1.9863,0.3516 -1.4063,0 -2.294,-0.9346 -0.8876,-0.9346 -0.8876,-2.4228 0,-1.4473 0.7822,-2.3731 0.7822,-0.9258 2.001,-0.9258 1.1542,0 1.7841,0.8203 0.6299,0.8204 0.6299,2.3321 L 27.7852,-3 23.7715,-3 q 0.2519,2.2676 2.2207,2.2676 0.7207,0 1.7695,-0.3867 z m -3.9375,-3.6621 2.8067,0 q 0,-1.7754 -1.3243,-1.7754 -1.33,0 -1.4824,1.7754 z M 33.8672,0 l 0,-1.1953 q -0.7031,1.3418 -2.1211,1.3418 -1.1484,0 -1.8076,-0.8379 -0.6592,-0.8379 -0.6592,-2.291 0,-1.5879 0.7471,-2.5547 0.747,-0.9668 1.9658,-0.9668 1.1308,0 1.875,0.8672 l 0,-3.6153 1.1601,0 0,9.252 z m 0,-4.8457 q -0.8965,-0.791 -1.6992,-0.791 -1.6582,0 -1.6582,2.5371 0,2.2324 1.4765,2.2324 0.961,0 1.8809,-1.0488 z M 37.3359,0 l 0,-6.3633 1.1543,0 0,6.3633 z m 0,-7.5176 0,-1.1543 1.1543,0 0,1.1543 z m 6.75,6.709 q -1.0371,0.9551 -1.998,0.9551 -0.791,0 -1.3125,-0.4951 -0.5215,-0.4952 -0.5215,-1.251 0,-1.043 0.876,-1.6025 0.876,-0.5596 2.5107,-0.5596 l 0.2754,0 0,-0.7676 q 0,-1.1074 -1.1367,-1.1074 -0.9141,0 -1.9746,0.5625 l 0,-0.9551 q 1.166,-0.4746 2.1855,-0.4746 1.0664,0 1.5733,0.4805 0.5068,0.4804 0.5068,1.4941 l 0,2.8828 q 0,0.9903 0.6094,0.9903 0.0762,0 0.2226,-0.0235 l 0.0821,0.6387 q -0.3926,0.1875 -0.8672,0.1875 -0.8086,0 -1.0313,-0.9551 z m -0.1699,-0.6269 0,-1.6465 -0.3867,-0.0118 q -0.9492,0 -1.5352,0.3604 -0.5859,0.3604 -0.5859,0.9463 0,0.416 0.293,0.7031 0.2929,0.2871 0.7148,0.2871 0.7207,0 1.5,-0.6386 z m 2.3613,3.457 0,-0.8672 6,0 0,0.8672 z M 53.4316,0 l 0,-6.3633 1.1543,0 0,6.3633 z m 0,-7.5176 0,-1.1543 1.1543,0 0,1.1543 z M 56.9004,0 l 0,-6.3633 1.1543,0 0,1.1953 q 0.9141,-1.3359 2.2383,-1.3359 0.8261,0 1.3183,0.5244 0.4922,0.5244 0.4922,1.4092 l 0,4.5703 -1.1543,0 0,-4.1953 q 0,-0.709 -0.208,-1.0108 -0.208,-0.3017 -0.6885,-0.3017 -1.0605,0 -1.998,1.3887 l 0,4.1191 z m 9.3574,0.1465 q -0.8789,0 -1.3711,-0.5039 -0.4922,-0.5039 -0.4922,-1.4004 l 0,-3.7383 -0.7968,0 0,-0.8672 0.7968,0 0,-1.1543 1.1543,-0.1113 0,1.2656 1.6641,0 0,0.8672 -1.6641,0 0,3.5273 q 0,1.2481 1.0782,1.2481 0.2285,0 0.5566,-0.0762 l 0,0.7969 Q 66.6504,0.1465 66.2578,0.1465 Z M 72.7969,0 l 0,-1.1543 1.1543,0 0,1.1543 z m 0,-5.2031 0,-1.1602 1.1543,0 0,1.1602 z M 80.2266,0 l 0,-6.3633 1.1543,0 0,6.3633 z m 0,-7.5176 0,-1.1543 1.1543,0 0,1.1543 z M 83.6953,0 l 0,-6.3633 1.1543,0 0,1.1953 q 0.9141,-1.3359 2.2383,-1.3359 0.8262,0 1.3183,0.5244 0.4922,0.5244 0.4922,1.4092 l 0,4.5703 -1.1543,0 0,-4.1953 q 0,-0.709 -0.208,-1.0108 -0.208,-0.3017 -0.6884,-0.3017 -1.0606,0 -1.9981,1.3887 l 0,4.1191 z m 9.3574,0.1465 q -0.8789,0 -1.3711,-0.5039 -0.4921,-0.5039 -0.4921,-1.4004 l 0,-3.7383 -0.7969,0 0,-0.8672 0.7969,0 0,-1.1543 1.1543,-0.1113 0,1.2656 1.664,0 0,0.8672 -1.664,0 0,3.5273 q 0,1.2481 1.0781,1.2481 0.2285,0 0.5566,-0.0762 l 0,0.7969 q -0.5332,0.1465 -0.9258,0.1465 z" />
  </g>
  <g
     id="g79"
     transform="scale(1.3333,1.3333)"
     style="font-family:sans-serif;text-rendering:optimizeLegibility">
    <line
       clip-path="url(#clipPath2)"
       id="line81"
       y2="189.5312"
       style="fill:none"
       y1="189.5312"
       x2="377"
       x1="200" />
    <line
       clip-path="url(#clipPath2)"
       id="line83"
       y2="139.1328"
       style="fill:none"
       y1="139.1328"
       x2="377"
       x1="200" />
  </g>
  <g
     id="g85"
     transform="matrix(1.3333,0,0,1.3333,317.3254,177.3289)"
     style="font-weight:bold;font-family:sans-serif;text-rendering:optimizeLegibility">
    <path
       inkscape:connector-curvature="0"
       clip-path="url(#clipPath8)"
       id="path87"
       style="stroke:none"
       d="m 1.084,0 0,-8.6719 3.2461,0 q 2.6426,0 2.6426,2.1504 0,0.8027 -0.4483,1.4619 -0.4482,0.6592 -1.2334,1.0108 L 8.127,0 5.9297,0 3.7793,-3.5449 l -0.9961,0 0,3.5449 z m 1.6992,-4.7344 0.416,0 q 1.9629,0 1.9629,-1.5879 0,-1.1601 -1.7519,-1.1601 l -0.627,0 z m 9.7324,4.043 q -0.8672,0.8379 -1.8574,0.8379 -0.8437,0 -1.3711,-0.5156 -0.5273,-0.5157 -0.5273,-1.336 0,-1.0664 0.8525,-1.6435 0.8525,-0.5772 2.4404,-0.5772 l 0.4629,0 0,-0.5859 q 0,-1.002 -1.1426,-1.002 -1.0136,0 -2.0507,0.5742 l 0,-1.1953 q 1.1777,-0.4453 2.332,-0.4453 2.5254,0 2.5254,2.0098 l 0,2.8476 q 0,0.7559 0.4863,0.7559 0.0879,0 0.2285,-0.0234 l 0.041,0.9726 q -0.5507,0.1641 -0.9726,0.1641 -1.0664,0 -1.3711,-0.8379 z m 0,-0.9316 0,-1.3067 -0.4101,0 q -1.6817,0 -1.6817,1.0547 0,0.3574 0.2432,0.6006 0.2432,0.2432 0.6006,0.2432 0.6094,0 1.248,-0.5918 z M 17.5547,0 l -1.7871,-6.4336 1.6113,0 1.2656,4.5059 1.3477,-4.5059 1.5,0 1.2129,4.5293 1.3652,-4.5293 1.207,0 L 23.3672,0 21.7031,0 20.5312,-4.4121 19.2188,0 Z m 9.2168,0 0,-8.6719 1.8047,0 0,8.6719 z m 4.0254,1.998 0.1406,-1.2597 q 1.0723,0.4922 2.0449,0.4922 0.961,0 1.3887,-0.4102 0.4277,-0.4101 0.4277,-1.3301 l 0,-0.8789 Q 34.166,0 32.707,0 q -1.1484,0 -1.8222,-0.8584 -0.6739,-0.8584 -0.6739,-2.3232 0,-1.5411 0.7559,-2.4698 0.7559,-0.9287 2.0098,-0.9287 0.9843,0 1.8222,0.7969 l 0.1817,-0.6504 1.5586,0 0,4.9102 q 0,1.4707 -0.1787,2.1211 -0.1788,0.6503 -0.6944,1.1074 -0.8672,0.75 -2.4433,0.75 -1.1192,0 -2.4258,-0.4571 z m 4.0019,-4.3945 0,-2.373 q -0.6269,-0.709 -1.3125,-0.709 -0.6562,0 -1.0429,0.5976 -0.3868,0.5977 -0.3868,1.6055 0,1.8867 1.2129,1.8867 0.8379,0 1.5293,-1.0078 z m 3.7969,-6.2754 1.8047,0 0,5.3145 q 0,1.2597 0.416,1.8193 0.416,0.5596 1.3418,0.5596 0.8848,0 1.2803,-0.5332 0.3955,-0.5332 0.3955,-1.7168 l 0,-5.4434 1.5703,0 0,5.3262 q 0,1.2012 -0.2285,1.8311 -0.2285,0.6298 -0.832,1.0927 -0.8262,0.6387 -2.2208,0.6387 -1.4941,0 -2.4023,-0.6797 -0.6269,-0.4687 -0.876,-1.1103 -0.249,-0.6416 -0.249,-1.7901 z m 8.7363,8.4668 0,-1.2715 q 1.2891,0.5391 2.2032,0.5391 1.0664,0 1.0664,-0.7266 0,-0.4687 -0.8789,-0.8203 l -0.586,-0.2344 q -0.9551,-0.3867 -1.3652,-0.832 -0.4102,-0.4453 -0.4102,-1.1015 0,-0.9141 0.6973,-1.4209 0.6973,-0.5069 1.9512,-0.5069 0.7851,0 1.8691,0.2285 l 0,1.2188 q -1.043,-0.3633 -1.7285,-0.3633 -1.0781,0 -1.0781,0.668 0,0.4394 0.7968,0.7441 l 0.5039,0.1934 q 1.1309,0.4277 1.5733,0.8672 0.4424,0.4394 0.4424,1.1308 0,0.9082 -0.753,1.4737 -0.7529,0.5654 -1.9599,0.5654 -1.1602,0 -2.3438,-0.3516 z m 12.1934,-0.0117 q -1.2363,0.3633 -2.3438,0.3633 -1.6113,0 -2.5429,-0.9141 -0.9317,-0.914 -0.9317,-2.4961 0,-1.4941 0.8526,-2.4052 0.8525,-0.9112 2.2529,-0.9112 1.4121,0 2.0625,0.8906 0.6504,0.8907 0.6504,2.8184 l -3.9902,0 q 0.1757,1.8399 2.0214,1.8399 0.8731,0 1.9688,-0.4043 z m -4.0137,-3.6328 2.3086,0 q 0,-1.6465 -1.0605,-1.6465 -1.0782,0 -1.2481,1.6465 z M 61.3184,0 l 0,-6.4336 1.7343,0 0,1.2129 q 0.6739,-1.3594 2.0508,-1.3594 0.1641,0 0.3223,0.0352 l 0,1.5469 q -0.3692,-0.1348 -0.6856,-0.1348 -1.0371,0 -1.6875,1.0488 l 0,4.084 z m 7.6054,0 0,-7.4824 -3.1054,0 0,-1.1895 8.0214,0 0,1.1895 -3.1054,0 0,7.4824 z m 6.1289,0 0,-6.4336 1.7344,0 0,1.2129 q 0.6738,-1.3594 2.0508,-1.3594 0.1641,0 0.3223,0.0352 l 0,1.5469 q -0.3692,-0.1348 -0.6856,-0.1348 -1.0371,0 -1.6875,1.0488 l 0,4.084 z m 10.6934,-0.2168 q -1.2363,0.3633 -2.3438,0.3633 -1.6113,0 -2.5429,-0.9141 -0.9317,-0.914 -0.9317,-2.4961 0,-1.4941 0.8526,-2.4052 0.8525,-0.9112 2.2529,-0.9112 1.4121,0 2.0625,0.8906 0.6504,0.8907 0.6504,2.8184 l -3.9902,0 q 0.1757,1.8399 2.0214,1.8399 0.8731,0 1.9688,-0.4043 z m -4.0137,-3.6328 2.3086,0 q 0,-1.6465 -1.0605,-1.6465 -1.0782,0 -1.2481,1.6465 z M 87.5391,0 l 0,-6.4336 1.7343,0 0,1.2129 q 0.8496,-1.3594 2.1914,-1.3594 0.8614,0 1.3594,0.5449 0.4981,0.545 0.4981,1.4883 l 0,4.5469 -1.7344,0 0,-4.1191 q 0,-1.0957 -0.7266,-1.0957 -0.8261,0 -1.5879,1.166 l 0,4.0488 z m 11.9297,0 0,-1.2129 q -0.668,1.3594 -2.1036,1.3594 -1.1601,0 -1.8222,-0.8496 -0.6621,-0.8496 -0.6621,-2.3379 0,-1.6172 0.747,-2.5781 0.7471,-0.961 2.0069,-0.961 1.0078,0 1.834,0.7969 l 0,-3.4688 1.7402,0 0,9.252 z m 0,-4.752 q -0.627,-0.7031 -1.3418,-0.7031 -0.6387,0 -1.0196,0.6153 -0.3808,0.6152 -0.3808,1.6523 0,1.9746 1.2656,1.9746 0.7734,0 1.4766,-0.9902 z" />
  </g>
</svg>
