<?xml version="1.0" encoding="UTF-8" standalone="no"?>
<svg
   xmlns:dc="http://purl.org/dc/elements/1.1/"
   xmlns:cc="http://creativecommons.org/ns#"
   xmlns:rdf="http://www.w3.org/1999/02/22-rdf-syntax-ns#"
   xmlns:svg="http://www.w3.org/2000/svg"
   xmlns="http://www.w3.org/2000/svg"
   xmlns:xlink="http://www.w3.org/1999/xlink"
   xmlns:sodipodi="http://sodipodi.sourceforge.net/DTD/sodipodi-0.dtd"
   xmlns:inkscape="http://www.inkscape.org/namespaces/inkscape"
   style="fill-opacity:1; color-rendering:auto; color-interpolation:auto; stroke:black; text-rendering:auto; stroke-linecap:square; stroke-miterlimit:10; stroke-opacity:1; shape-rendering:auto; fill:black; stroke-dasharray:none; font-weight:normal; stroke-width:1; font-family:'Dialog'; font-style:normal; stroke-linejoin:miter; font-size:12; stroke-dashoffset:0; image-rendering:auto;"
   width="880"
   height="666"
   id="svg2"
   version="1.1"
   inkscape:version="0.48.5 r10040"
   sodipodi:docname="bar_chart_creator.svg">
  <metadata
     id="metadata77">
    <rdf:RDF>
      <cc:Work
         rdf:about="">
        <dc:format>image/svg+xml</dc:format>
        <dc:type
           rdf:resource="http://purl.org/dc/dcmitype/StillImage" />
      </cc:Work>
    </rdf:RDF>
  </metadata>
  <sodipodi:namedview
     pagecolor="#ffffff"
     bordercolor="#666666"
     borderopacity="1"
     objecttolerance="10"
     gridtolerance="10"
     guidetolerance="10"
     inkscape:pageopacity="0"
     inkscape:pageshadow="2"
     inkscape:window-width="640"
     inkscape:window-height="480"
     id="namedview75"
     showgrid="false"
     inkscape:zoom="0.35435435"
     inkscape:cx="440"
     inkscape:cy="333"
     inkscape:window-x="125"
     inkscape:window-y="13"
     inkscape:window-maximized="0"
     inkscape:current-layer="svg2" />
  <!--Generated by the Batik Graphics2D SVG Generator-->
  <defs
     id="genericDefs">
    <linearGradient
       inkscape:collect="always"
       xlink:href="#linearGradient1"
       id="linearGradient3054"
       gradientUnits="userSpaceOnUse"
       spreadMethod="pad"
       x1="224"
       y1="195"
       x2="448"
       y2="253" />
    <linearGradient
       inkscape:collect="always"
       xlink:href="#linearGradient1"
       id="linearGradient3056"
       gradientUnits="userSpaceOnUse"
       spreadMethod="pad"
       x1="224"
       y1="195"
       x2="448"
       y2="253" />
    <linearGradient
       inkscape:collect="always"
       xlink:href="#linearGradient1"
       id="linearGradient3058"
       gradientUnits="userSpaceOnUse"
       spreadMethod="pad"
       x1="224"
       y1="195"
       x2="448"
       y2="253" />
    <defs
       id="defs1">
      <linearGradient
         spreadMethod="pad"
         id="linearGradient1"
         y2="253"
         y1="195"
         x2="448"
         gradientUnits="userSpaceOnUse"
         x1="224">
        <stop
           id="stop9"
           offset="0%"
           style="stop-opacity:1; stop-color:white;" />
        <stop
           id="stop11"
           offset="100%"
           style="stop-opacity:1; stop-color:rgb(255,255,204);" />
      </linearGradient>
      <clipPath
         id="clipPath1"
         clipPathUnits="userSpaceOnUse">
        <path
           id="path14"
           d="M0 0 L880 0 L880 666 L0 666 L0 0 Z" />
      </clipPath>
      <clipPath
         id="clipPath2"
         clipPathUnits="userSpaceOnUse">
        <path
           id="path17"
           d="M0 0 L660 0 L660 499.5 L0 499.5 L0 0 Z" />
      </clipPath>
      <clipPath
         id="clipPath3"
         clipPathUnits="userSpaceOnUse">
        <path
           id="path20"
           d="M-20 -27 L640 -27 L640 472.5 L-20 472.5 L-20 -27 Z" />
      </clipPath>
      <clipPath
         id="clipPath4"
         clipPathUnits="userSpaceOnUse">
        <path
           id="path23"
           d="M-5 -5 L655 -5 L655 494.5 L-5 494.5 L-5 -5 Z" />
      </clipPath>
      <clipPath
         id="clipPath5"
         clipPathUnits="userSpaceOnUse">
        <path
           id="path26"
           d="M-234 -240.9688 L426 -240.9688 L426 258.5312 L-234 258.5312 L-234 -240.9688 Z" />
      </clipPath>
      <clipPath
         id="clipPath6"
         clipPathUnits="userSpaceOnUse">
        <path
           id="path29"
           d="M-277.5 -211 L382.5 -211 L382.5 288.5 L-277.5 288.5 L-277.5 -211 Z" />
      </clipPath>
    </defs>
  </defs>
  <g
     id="g49"
     style="font-weight:bold;fill:#c0c0c0;fill-opacity:0.50199998;stroke:#c0c0c0;stroke-width:2;stroke-opacity:0.50199998;font-family:sans-serif"
     transform="matrix(1.3333,0,0,1.3333,6.6665,6.6665)">
    <rect
       clip-path="url(#clipPath4)"
       id="rect51"
       height="57.1875"
       style="stroke:none"
       width="224"
       y="195"
       x="224" />
    <rect
       clip-path="url(#clipPath4)"
       id="rect53"
       height="57.1875"
       style="fill:none"
       width="224"
       y="195"
       x="224" />
  </g>
  <g
     id="g55"
     style="font-weight:bold;fill:url(#linearGradient3056);stroke:url(#linearGradient3058);stroke-width:2;font-family:sans-serif"
     transform="scale(1.3333,1.3333)">
    <rect
       clip-path="url(#clipPath2)"
       id="rect57"
       height="57.1875"
       style="fill:url(#linearGradient3054);stroke:none"
       width="224"
       y="195"
       x="224" />
    <rect
       clip-path="url(#clipPath2)"
       id="rect59"
       height="57.1875"
       style="fill:none;stroke:#000000"
       width="224"
       y="195"
       x="224" />
  </g>
  <g
     id="g61"
     transform="matrix(1.3333,0,0,1.3333,311.9922,321.2837)"
     style="stroke-width:2;font-family:sans-serif">
    <path
       inkscape:connector-curvature="0"
       clip-path="url(#clipPath5)"
       id="path63"
       style="stroke:none"
       d="m 5.5156,-7.5312 0,3.2656 3.2656,0 0,1 -3.2656,0 0,3.2656 -0.9844,0 0,-3.2656 -3.2656,0 0,-1 3.2656,0 0,-3.2656 0.9844,0 z m 13.8067,1.9687 0,-3.5625 1.0781,0 0,9.125 -1.0781,0 0,-0.9844 q -0.3438,0.5782 -0.8594,0.8672 -0.5156,0.2891 -1.25,0.2891 -1.1875,0 -1.9375,-0.9531 -0.75,-0.9532 -0.75,-2.5 0,-1.5469 0.75,-2.4922 0.75,-0.9454 1.9375,-0.9454 0.7344,0 1.25,0.2813 0.5156,0.2813 0.8594,0.875 z m -3.6719,2.2813 q 0,1.1874 0.4844,1.8671 0.4843,0.6797 1.3437,0.6797 0.8594,0 1.3516,-0.6797 0.4922,-0.6797 0.4922,-1.8671 0,-1.1876 -0.4922,-1.8594 -0.4922,-0.6719 -1.3516,-0.6719 -0.8594,0 -1.3437,0.6719 -0.4844,0.6718 -0.4844,1.8594 z m 9.9453,-0.0157 q -1.2969,0 -1.8047,0.2969 -0.5078,0.2969 -0.5078,1.0156 0,0.5782 0.3828,0.9141 0.3828,0.3359 1.0235,0.3359 0.9062,0 1.4453,-0.6328 0.539,-0.6328 0.539,-1.6953 l 0,-0.2344 -1.0781,0 z m 2.1563,-0.4531 0,3.75 -1.0782,0 0,-1 q -0.375,0.5938 -0.9218,0.8828 -0.5469,0.2891 -1.3438,0.2891 -1.0156,0 -1.6094,-0.5703 -0.5937,-0.5704 -0.5937,-1.5078 0,-1.1094 0.7422,-1.6719 0.7422,-0.5625 2.2109,-0.5625 l 1.5156,0 0,-0.1094 q 0,-0.75 -0.4922,-1.1562 -0.4921,-0.4063 -1.3671,-0.4063 -0.5625,0 -1.1016,0.1406 -0.5391,0.1407 -1.0234,0.4063 l 0,-1 q 0.5937,-0.2344 1.1484,-0.3438 0.5547,-0.1094 1.0859,-0.1094 1.4219,0 2.125,0.7344 0.7032,0.7344 0.7032,2.2344 z m 3.291,-4.6719 0,1.8594 2.2187,0 0,0.8437 -2.2187,0 0,3.5626 q 0,0.7968 0.2187,1.0234 0.2188,0.2266 0.8906,0.2266 l 1.1094,0 0,0.9062 -1.1094,0 q -1.25,0 -1.7265,-0.4688 -0.4766,-0.4687 -0.4766,-1.6874 l 0,-3.5626 -0.7812,0 0,-0.8437 0.7812,0 0,-1.8594 1.0938,0 z m 6.6113,5.125 q -1.2969,0 -1.8047,0.2969 -0.5078,0.2969 -0.5078,1.0156 0,0.5782 0.3828,0.9141 0.3828,0.3359 1.0234,0.3359 0.9063,0 1.4454,-0.6328 0.539,-0.6328 0.539,-1.6953 l 0,-0.2344 -1.0781,0 z m 2.1562,-0.4531 0,3.75 -1.0781,0 0,-1 q -0.375,0.5938 -0.9219,0.8828 -0.5468,0.2891 -1.3437,0.2891 -1.0156,0 -1.6094,-0.5703 -0.5937,-0.5704 -0.5937,-1.5078 0,-1.1094 0.7422,-1.6719 0.7421,-0.5625 2.2109,-0.5625 l 1.5156,0 0,-0.1094 q 0,-0.75 -0.4922,-1.1562 -0.4922,-0.4063 -1.3672,-0.4063 -0.5625,0 -1.1015,0.1406 -0.5391,0.1407 -1.0235,0.4063 l 0,-1 q 0.5938,-0.2344 1.1485,-0.3438 0.5547,-0.1094 1.0859,-0.1094 1.4219,0 2.125,0.7344 0.7031,0.7344 0.7031,2.2344 z m 2.2598,-5 5.0313,0 0,1 -3.8438,0 0,2.5781 3.4688,0 0,1 -3.4688,0 0,4.1719 -1.1875,0 0,-8.75 z m 9.4024,2.9375 q -0.8594,0 -1.3672,0.6797 -0.5078,0.6797 -0.5078,1.8516 0,1.1874 0.5,1.8593 0.5,0.6719 1.375,0.6719 0.8593,0 1.3671,-0.6797 0.5079,-0.6797 0.5079,-1.8515 0,-1.1563 -0.5079,-1.8438 -0.5078,-0.6875 -1.3671,-0.6875 z m 0,-0.9063 q 1.4062,0 2.2109,0.9141 0.8047,0.9141 0.8047,2.5235 0,1.6093 -0.8047,2.5312 -0.8047,0.9219 -2.2109,0.9219 -1.4063,0 -2.211,-0.9219 -0.8047,-0.9219 -0.8047,-2.5312 0,-1.6094 0.8047,-2.5235 0.8047,-0.9141 2.211,-0.9141 z m 8.6074,1.1563 q -0.1875,-0.0937 -0.3985,-0.1484 -0.2109,-0.0547 -0.4765,-0.0547 -0.9063,0 -1.3985,0.5937 -0.4921,0.5938 -0.4921,1.7188 l 0,3.4531 -1.0782,0 0,-6.5625 1.0782,0 0,1.0156 q 0.3437,-0.5937 0.8906,-0.8828 0.5469,-0.2891 1.3281,-0.2891 0.1094,0 0.2422,0.0157 0.1328,0.0156 0.2891,0.0469 l 0.0156,1.0937 z m 6.2304,0.2656 q 0.4063,-0.7343 0.9688,-1.0781 0.5625,-0.3438 1.3281,-0.3438 1.0313,0 1.586,0.7188 0.5546,0.7188 0.5546,2.0312 l 0,3.9688 -1.0781,0 0,-3.9219 q 0,-0.9531 -0.3359,-1.4062 -0.336,-0.4531 -1.0235,-0.4531 -0.8437,0 -1.3281,0.5546 -0.4844,0.5547 -0.4844,1.5235 l 0,3.7031 -1.0781,0 0,-3.9219 q 0,-0.9531 -0.3359,-1.4062 -0.336,-0.4531 -1.0391,-0.4531 -0.8281,0 -1.3125,0.5546 -0.4844,0.5547 -0.4844,1.5235 l 0,3.7031 -1.0781,0 0,-6.5625 1.0781,0 0,1.0156 q 0.375,-0.5937 0.8907,-0.8828 0.5156,-0.2891 1.2187,-0.2891 0.7188,0 1.2188,0.3594 0.5,0.3594 0.7343,1.0625 z m 9.5645,2 q -1.2969,0 -1.8047,0.2969 -0.5078,0.2969 -0.5078,1.0156 0,0.5782 0.3828,0.9141 0.3828,0.3359 1.0235,0.3359 0.9062,0 1.4453,-0.6328 0.539,-0.6328 0.539,-1.6953 l 0,-0.2344 -1.0781,0 z m 2.1562,-0.4531 0,3.75 -1.0781,0 0,-1 q -0.375,0.5938 -0.9219,0.8828 -0.5468,0.2891 -1.3437,0.2891 -1.0156,0 -1.6094,-0.5703 -0.5937,-0.5704 -0.5937,-1.5078 0,-1.1094 0.7422,-1.6719 0.7422,-0.5625 2.2109,-0.5625 l 1.5156,0 0,-0.1094 q 0,-0.75 -0.4922,-1.1562 -0.4921,-0.4063 -1.3671,-0.4063 -0.5626,0 -1.1016,0.1406 -0.5391,0.1407 -1.0234,0.4063 l 0,-1 q 0.5937,-0.2344 1.1484,-0.3438 0.5547,-0.1094 1.0859,-0.1094 1.4219,0 2.125,0.7344 0.7031,0.7344 0.7031,2.2344 z m 3.2911,-4.6719 0,1.8594 2.2187,0 0,0.8437 -2.2187,0 0,3.5626 q 0,0.7968 0.2187,1.0234 0.2188,0.2266 0.8906,0.2266 l 1.1094,0 0,0.9062 -1.1094,0 q -1.25,0 -1.7265,-0.4688 -0.4766,-0.4687 -0.4766,-1.6874 l 0,-3.5626 -0.7812,0 0,-0.8437 0.7812,0 0,-1.8594 1.0938,0 z m 6.2207,-0.6875 q -0.7813,1.3438 -1.1641,2.6641 -0.3828,1.3203 -0.3828,2.6797 0,1.3437 0.3828,2.6718 0.3828,1.3282 1.1641,2.6719 l -0.9375,0 q -0.875,-1.375 -1.3125,-2.7031 -0.4375,-1.3281 -0.4375,-2.6406 0,-1.3125 0.4375,-2.6328 0.4375,-1.3204 1.3125,-2.711 l 0.9375,0 z m 6.416,3.5469 0,-3.5625 1.0781,0 0,9.125 -1.0781,0 0,-0.9844 q -0.3438,0.5782 -0.8594,0.8672 -0.5156,0.2891 -1.25,0.2891 -1.1875,0 -1.9375,-0.9531 -0.75,-0.9532 -0.75,-2.5 0,-1.5469 0.75,-2.4922 0.75,-0.9454 1.9375,-0.9454 0.7344,0 1.25,0.2813 0.5156,0.2813 0.8594,0.875 z m -3.6719,2.2813 q 0,1.1874 0.4844,1.8671 0.4844,0.6797 1.3437,0.6797 0.8594,0 1.3516,-0.6797 0.4922,-0.6797 0.4922,-1.8671 0,-1.1876 -0.4922,-1.8594 -0.4922,-0.6719 -1.3516,-0.6719 -0.8593,0 -1.3437,0.6719 -0.4844,0.6718 -0.4844,1.8594 z m 9.9453,-0.0157 q -1.2969,0 -1.8047,0.2969 -0.5078,0.2969 -0.5078,1.0156 0,0.5782 0.3828,0.9141 0.3828,0.3359 1.0235,0.3359 0.9062,0 1.4453,-0.6328 0.539,-0.6328 0.539,-1.6953 l 0,-0.2344 -1.0781,0 z m 2.1563,-0.4531 0,3.75 -1.0782,0 0,-1 q -0.375,0.5938 -0.9218,0.8828 -0.5469,0.2891 -1.3438,0.2891 -1.0156,0 -1.6094,-0.5703 -0.5937,-0.5704 -0.5937,-1.5078 0,-1.1094 0.7422,-1.6719 0.7422,-0.5625 2.2109,-0.5625 l 1.5156,0 0,-0.1094 q 0,-0.75 -0.4921,-1.1562 -0.4922,-0.4063 -1.3672,-0.4063 -0.5625,0 -1.1016,0.1406 -0.5391,0.1407 -1.0234,0.4063 l 0,-1 q 0.5937,-0.2344 1.1484,-0.3438 0.5547,-0.1094 1.0859,-0.1094 1.4219,0 2.125,0.7344 0.7032,0.7344 0.7032,2.2344 z m 3.291,-4.6719 0,1.8594 2.2187,0 0,0.8437 -2.2187,0 0,3.5626 q 0,0.7968 0.2187,1.0234 0.2188,0.2266 0.8907,0.2266 l 1.1093,0 0,0.9062 -1.1093,0 q -1.25,0 -1.7266,-0.4688 -0.4766,-0.4687 -0.4766,-1.6874 l 0,-3.5626 -0.7812,0 0,-0.8437 0.7812,0 0,-1.8594 1.0938,0 z m 6.6113,5.125 q -1.2969,0 -1.8047,0.2969 -0.5078,0.2969 -0.5078,1.0156 0,0.5782 0.3828,0.9141 0.3828,0.3359 1.0235,0.3359 0.9062,0 1.4453,-0.6328 0.539,-0.6328 0.539,-1.6953 l 0,-0.2344 -1.0781,0 z m 2.1563,-0.4531 0,3.75 -1.0782,0 0,-1 q -0.375,0.5938 -0.9218,0.8828 -0.5469,0.2891 -1.3438,0.2891 -1.0156,0 -1.6094,-0.5703 -0.5937,-0.5704 -0.5937,-1.5078 0,-1.1094 0.7422,-1.6719 0.7422,-0.5625 2.2109,-0.5625 l 1.5156,0 0,-0.1094 q 0,-0.75 -0.4921,-1.1562 -0.4922,-0.4063 -1.3672,-0.4063 -0.5625,0 -1.1016,0.1406 -0.5391,0.1407 -1.0234,0.4063 l 0,-1 q 0.5937,-0.2344 1.1484,-0.3438 0.5547,-0.1094 1.0859,-0.1094 1.4219,0 2.125,0.7344 0.7032,0.7344 0.7032,2.2344 z m 6.3086,2.2656 1.2343,0 0,1.4844 -1.2343,0 0,-1.4844 z m 0,-4.7187 1.2343,0 0,1.4843 -1.2343,0 0,-1.4843 z m 7.623,-2.5469 1.1875,0 0,8.1406 q 0,1.5782 -0.6016,2.2969 -0.6015,0.7187 -1.9296,0.7187 l -0.4532,0 0,-1 0.375,0 q 0.7813,0 1.1016,-0.4374 0.3203,-0.4376 0.3203,-1.5782 l 0,-8.1406 z m 8.7891,0.2812 0,1.1563 q -0.6719,-0.3125 -1.2735,-0.4766 -0.6015,-0.164 -1.1484,-0.164 -0.9688,0 -1.4922,0.375 -0.5234,0.375 -0.5234,1.0781 0,0.5781 0.3437,0.875 0.3438,0.2969 1.3281,0.4688 L 135.1055,-5 q 1.3281,0.25 1.9609,0.8828 0.6328,0.6328 0.6328,1.6953 0,1.2813 -0.8515,1.9375 -0.8516,0.6563 -2.5079,0.6563 -0.6093,0 -1.3125,-0.1407 -0.7031,-0.1406 -1.4531,-0.4218 l 0,-1.2188 q 0.7188,0.4063 1.4141,0.6094 0.6953,0.2031 1.3515,0.2031 1.0157,0 1.5704,-0.3984 0.5546,-0.3985 0.5546,-1.1328 0,-0.6407 -0.3984,-1.0078 -0.3984,-0.3672 -1.3047,-0.5391 l -0.7187,-0.1406 q -1.3282,-0.2656 -1.9141,-0.8282 -0.5859,-0.5624 -0.5859,-1.5624 0,-1.1719 0.8125,-1.836 0.8125,-0.664 2.25,-0.664 0.625,0 1.2578,0.1093 0.6328,0.1094 1.3047,0.3281 z m 5.9297,0.5157 q -1.2969,0 -2.0547,0.9609 -0.7578,0.961 -0.7578,2.6328 0,1.6406 0.7578,2.6016 0.7578,0.9609 2.0547,0.9609 1.2812,0 2.039,-0.9609 0.7578,-0.961 0.7578,-2.6016 0,-1.6718 -0.7578,-2.6328 -0.7578,-0.9609 -2.039,-0.9609 z m 0,-0.9531 q 1.8281,0 2.9296,1.2343 1.1016,1.2344 1.1016,3.3125 0,2.0625 -1.1016,3.2969 -1.1015,1.2344 -2.9296,1.2344 -1.8438,0 -2.9532,-1.2344 -1.1093,-1.2344 -1.1093,-3.2969 0,-2.0781 1.1093,-3.3125 1.1094,-1.2343 2.9532,-1.2343 z m 5.8828,0.1562 1.5937,0 3.8906,7.3125 0,-7.3125 1.1407,0 0,8.75 -1.5938,0 -3.875,-7.3125 0,7.3125 -1.1562,0 0,-8.75 z m 8.7734,-0.3594 0.9375,0 q 0.875,1.3906 1.3125,2.711 0.4375,1.3203 0.4375,2.6328 0,1.3125 -0.4375,2.6406 -0.4375,1.3281 -1.3125,2.7031 l -0.9375,0 q 0.7656,-1.3437 1.1563,-2.6719 0.3906,-1.3281 0.3906,-2.6718 0,-1.3594 -0.3906,-2.6797 -0.3907,-1.3203 -1.1563,-2.6641 z m 8.9336,7.625 1.2344,0 0,1.4844 -1.2344,0 0,-1.4844 z m 0,-4.7187 1.2344,0 0,1.4843 -1.2344,0 0,-1.4843 z m 6.8105,-0.3594 1.1407,0 2.0468,5.5 2.0625,-5.5 1.1407,0 L 177.4199,0 175.9512,0 173.498,-6.5625 z m 10.4141,0.75 q -0.8594,0 -1.3672,0.6797 -0.5078,0.6797 -0.5078,1.8516 0,1.1874 0.5,1.8593 0.5,0.6719 1.375,0.6719 0.8594,0 1.3672,-0.6797 0.5078,-0.6797 0.5078,-1.8515 0,-1.1563 -0.5078,-1.8438 -0.5078,-0.6875 -1.3672,-0.6875 z m 0,-0.9063 q 1.4063,0 2.2109,0.9141 0.8047,0.9141 0.8047,2.5235 0,1.6093 -0.8047,2.5312 -0.8046,0.9219 -2.2109,0.9219 -1.4062,0 -2.2109,-0.9219 -0.8047,-0.9219 -0.8047,-2.5312 0,-1.6094 0.8047,-2.5235 0.8047,-0.9141 2.2109,-0.9141 z m 4.7949,0.1563 1.0782,0 0,6.5625 -1.0782,0 0,-6.5625 z m 0,-2.5625 1.0782,0 0,1.375 -1.0782,0 0,-1.375 z m 7.6621,3.5625 0,-3.5625 1.0782,0 0,9.125 -1.0782,0 0,-0.9844 q -0.3437,0.5782 -0.8593,0.8672 -0.5157,0.2891 -1.25,0.2891 -1.1875,0 -1.9375,-0.9531 -0.75,-0.9532 -0.75,-2.5 0,-1.5469 0.75,-2.4922 0.75,-0.9454 1.9375,-0.9454 0.7343,0 1.25,0.2813 0.5156,0.2813 0.8593,0.875 z m -3.6718,2.2813 q 0,1.1874 0.4843,1.8671 0.4844,0.6797 1.3438,0.6797 0.8594,0 1.3516,-0.6797 0.4921,-0.6797 0.4921,-1.8671 0,-1.1876 -0.4921,-1.8594 -0.4922,-0.6719 -1.3516,-0.6719 -0.8594,0 -1.3438,0.6719 -0.4843,0.6718 -0.4843,1.8594 z" />
  </g>
  <g
     id="g65"
     transform="scale(1.3333,1.3333)"
     style="font-family:sans-serif">
    <line
       clip-path="url(#clipPath2)"
       id="line67"
       y2="224.9688"
       style="fill:none"
       y1="224.9688"
       x2="448"
       x1="224" />
    <line
       clip-path="url(#clipPath2)"
       id="line69"
       y2="216.9688"
       style="fill:none"
       y1="216.9688"
       x2="448"
       x1="224" />
  </g>
  <g
     id="g71"
     transform="matrix(1.3333,0,0,1.3333,369.99075,281.3263)"
     style="font-weight:bold;font-family:sans-serif">
    <path
       inkscape:connector-curvature="0"
       clip-path="url(#clipPath6)"
       id="path73"
       style="stroke:none"
       d="m 4.6094,-5.3594 q 0.5312,0 0.8047,-0.2344 0.2734,-0.2343 0.2734,-0.6874 0,-0.4532 -0.2734,-0.6954 -0.2735,-0.2422 -0.8047,-0.2422 l -1.25,0 0,1.8594 1.25,0 z m 0.0781,3.8282 q 0.6719,0 1.0156,-0.2891 0.3438,-0.2891 0.3438,-0.8672 0,-0.5781 -0.336,-0.8594 Q 5.375,-3.8281 4.6875,-3.8281 l -1.3281,0 0,2.2969 1.3281,0 z m 2.0937,-3.1563 q 0.7188,0.2187 1.1172,0.7891 0.3985,0.5703 0.3985,1.3828 0,1.2656 -0.8516,1.8906 Q 6.5938,0 4.8438,0 l -3.7344,0 0,-8.75 3.375,0 q 1.8281,0 2.6484,0.5547 0.8203,0.5547 0.8203,1.7578 0,0.6406 -0.3047,1.0859 -0.3046,0.4454 -0.8672,0.6641 z m 6.3184,1.7344 q -0.6562,0 -0.9922,0.2187 -0.3359,0.2188 -0.3359,0.6563 0,0.4062 0.2734,0.6328 0.2735,0.2265 0.7422,0.2265 0.5938,0 1,-0.4296 0.4063,-0.4297 0.4063,-1.0704 l 0,-0.2343 -1.0938,0 z m 3.2031,-0.7969 0,3.75 -2.1093,0 0,-0.9688 q -0.4219,0.5938 -0.9532,0.8672 -0.5312,0.2735 -1.2812,0.2735 -1.0313,0 -1.6641,-0.5938 -0.6328,-0.5937 -0.6328,-1.5469 0,-1.1562 0.7969,-1.6953 0.7969,-0.539 2.4844,-0.539 l 1.25,0 0,-0.1563 q 0,-0.5 -0.3985,-0.7344 -0.3984,-0.2343 -1.2265,-0.2343 -0.6719,0 -1.25,0.1328 -0.5782,0.1328 -1.0782,0.4141 l 0,-1.6094 q 0.6719,-0.1563 1.3516,-0.2422 0.6797,-0.086 1.3516,-0.086 1.7812,0 2.5703,0.6954 0.789,0.6953 0.789,2.2734 z m 6.8321,-1.0312 q -0.2813,-0.125 -0.5547,-0.1876 -0.2735,-0.0624 -0.5547,-0.0624 -0.7969,0 -1.2344,0.5234 -0.4375,0.5234 -0.4375,1.4766 l 0,3.0312 -2.0937,0 0,-6.5625 2.0937,0 0,1.0781 q 0.4063,-0.6406 0.9297,-0.9375 0.5234,-0.2969 1.2578,-0.2969 0.0938,0 0.2188,0.0079 0.125,0.0078 0.3593,0.039 l 0.0157,1.8907 z m 8.0742,4.2968 q -0.625,0.3282 -1.2969,0.4922 -0.6719,0.1641 -1.4062,0.1641 -2.1875,0 -3.4688,-1.2266 -1.2812,-1.2265 -1.2812,-3.3047 0,-2.1094 1.2812,-3.3281 1.2813,-1.2187 3.4688,-1.2187 0.7343,0 1.4062,0.164 0.6719,0.1641 1.2969,0.4922 l 0,1.7969 q -0.6406,-0.4219 -1.25,-0.6172 -0.6094,-0.1953 -1.2813,-0.1953 -1.2031,0 -1.8906,0.7734 -0.6875,0.7734 -0.6875,2.1328 0,1.3438 0.6875,2.1172 0.6875,0.7734 1.8906,0.7734 0.6719,0 1.2813,-0.1953 0.6094,-0.1953 1.25,-0.6328 l 0,1.8125 z M 39.5781,-4 l 0,4 -2.1093,0 0,-0.6562 0,-2.3907 q 0,-0.8593 -0.0391,-1.1797 -0.0391,-0.3203 -0.1328,-0.4765 -0.125,-0.2031 -0.336,-0.3203 -0.2109,-0.1172 -0.4765,-0.1172 -0.6563,0 -1.0313,0.5078 -0.375,0.5078 -0.375,1.3984 l 0,3.2344 -2.0937,0 0,-9.125 2.0937,0 0,3.5156 q 0.4688,-0.5625 1,-0.8359 0.5313,-0.2735 1.1875,-0.2735 1.125,0 1.7188,0.6954 0.5937,0.6953 0.5937,2.0234 z m 4.8867,1.0469 q -0.6562,0 -0.9921,0.2187 -0.336,0.2188 -0.336,0.6563 0,0.4062 0.2735,0.6328 0.2734,0.2265 0.7421,0.2265 0.5938,0 1,-0.4296 0.4063,-0.4297 0.4063,-1.0704 l 0,-0.2343 -1.0938,0 z m 3.2032,-0.7969 0,3.75 -2.1094,0 0,-0.9688 q -0.4219,0.5938 -0.9531,0.8672 -0.5313,0.2735 -1.2813,0.2735 -1.0312,0 -1.664,-0.5938 -0.6329,-0.5937 -0.6329,-1.5469 0,-1.1562 0.7969,-1.6953 0.7969,-0.539 2.4844,-0.539 l 1.25,0 0,-0.1563 q 0,-0.5 -0.3984,-0.7344 -0.3985,-0.2343 -1.2266,-0.2343 -0.6719,0 -1.25,0.1328 -0.5781,0.1328 -1.0781,0.4141 l 0,-1.6094 q 0.6718,-0.1563 1.3515,-0.2422 0.6797,-0.086 1.3516,-0.086 1.7812,0 2.5703,0.6954 0.7891,0.6953 0.7891,2.2734 z M 54.5,-4.7812 q -0.2812,-0.125 -0.5547,-0.1876 -0.2734,-0.0624 -0.5547,-0.0624 -0.7968,0 -1.2344,0.5234 -0.4374,0.5234 -0.4374,1.4766 l 0,3.0312 -2.0938,0 0,-6.5625 2.0938,0 0,1.0781 q 0.4062,-0.6406 0.9296,-0.9375 0.5235,-0.2969 1.2578,-0.2969 0.0938,0 0.2188,0.0079 0.125,0.0078 0.3594,0.039 L 54.5,-4.7812 z m 3.3242,-3.6407 0,1.8594 2.1719,0 0,1.5 -2.1719,0 0,2.7813 q 0,0.4531 0.1797,0.6171 0.1797,0.1641 0.7266,0.1641 l 1.0781,0 0,1.5 -1.7969,0 q -1.25,0 -1.7656,-0.5156 -0.5156,-0.5156 -0.5156,-1.7656 l 0,-2.7813 -1.0469,0 0,-1.5 1.0469,0 0,-1.8594 2.0937,0 z m 10.4863,7.9375 q -0.625,0.3282 -1.2968,0.4922 -0.6719,0.1641 -1.4063,0.1641 -2.1875,0 -3.4687,-1.2266 -1.2813,-1.2265 -1.2813,-3.3047 0,-2.1094 1.2813,-3.3281 1.2812,-1.2187 3.4687,-1.2187 0.7344,0 1.4063,0.164 0.6718,0.1641 1.2968,0.4922 l 0,1.7969 q -0.6406,-0.4219 -1.25,-0.6172 -0.6093,-0.1953 -1.2812,-0.1953 -1.2031,0 -1.8906,0.7734 -0.6875,0.7734 -0.6875,2.1328 0,1.3438 0.6875,2.1172 0.6875,0.7734 1.8906,0.7734 0.6719,0 1.2812,-0.1953 0.6094,-0.1953 1.25,-0.6328 l 0,1.8125 z m 6.6504,-4.2968 q -0.2812,-0.125 -0.5547,-0.1876 -0.2734,-0.0624 -0.5546,-0.0624 -0.7969,0 -1.2344,0.5234 -0.4375,0.5234 -0.4375,1.4766 l 0,3.0312 -2.0938,0 0,-6.5625 2.0938,0 0,1.0781 q 0.4062,-0.6406 0.9297,-0.9375 0.5234,-0.2969 1.2578,-0.2969 0.0937,0 0.2187,0.0079 0.125,0.0078 0.3594,0.039 l 0.0156,1.8907 z m 7.5899,1.4843 0,0.5938 -4.9063,0 q 0.0782,0.7343 0.5313,1.1093 0.4531,0.375 1.2812,0.375 0.6563,0 1.3516,-0.2031 0.6953,-0.2031 1.4297,-0.5937 l 0,1.6094 q -0.75,0.2812 -1.4922,0.4296 -0.7422,0.1485 -1.4922,0.1485 -1.7812,0 -2.7656,-0.9063 -0.9844,-0.9062 -0.9844,-2.5468 0,-1.5938 0.9688,-2.5157 0.9687,-0.9219 2.6718,-0.9219 1.5469,0 2.4766,0.9297 0.9297,0.9297 0.9297,2.4922 z M 80.3945,-4 q 0,-0.5938 -0.3515,-0.9609 -0.3516,-0.3672 -0.9141,-0.3672 -0.6094,0 -0.9922,0.3437 Q 77.7539,-4.6406 77.6602,-4 l 2.7343,0 z m 6.6856,1.0469 q -0.6563,0 -0.9922,0.2187 -0.3359,0.2188 -0.3359,0.6563 0,0.4062 0.2734,0.6328 0.2734,0.2265 0.7422,0.2265 0.5937,0 1,-0.4296 0.4062,-0.4297 0.4062,-1.0704 l 0,-0.2343 -1.0937,0 z m 3.2031,-0.7969 0,3.75 -2.1094,0 0,-0.9688 q -0.4218,0.5938 -0.9531,0.8672 -0.5312,0.2735 -1.2812,0.2735 -1.0313,0 -1.6641,-0.5938 -0.6328,-0.5937 -0.6328,-1.5469 0,-1.1562 0.7969,-1.6953 0.7968,-0.539 2.4843,-0.539 l 1.25,0 0,-0.1563 q 0,-0.5 -0.3984,-0.7344 -0.3984,-0.2343 -1.2266,-0.2343 -0.6718,0 -1.25,0.1328 -0.5781,0.1328 -1.0781,0.4141 l 0,-1.6094 q 0.6719,-0.1563 1.3516,-0.2422 0.6797,-0.086 1.3515,-0.086 1.7813,0 2.5703,0.6954 0.7891,0.6953 0.7891,2.2734 z m 4.2383,-4.6719 0,1.8594 2.1719,0 0,1.5 -2.1719,0 0,2.7813 q 0,0.4531 0.1797,0.6171 0.1797,0.1641 0.7265,0.1641 l 1.0782,0 0,1.5 -1.7969,0 q -1.25,0 -1.7656,-0.5156 -0.5157,-0.5156 -0.5157,-1.7656 l 0,-2.7813 -1.0468,0 0,-1.5 1.0468,0 0,-1.8594 2.0938,0 z m 6.5644,3.2031 q -0.6875,0 -1.0547,0.5 -0.3671,0.5 -0.3671,1.4376 0,0.9531 0.3671,1.4531 0.3672,0.5 1.0547,0.5 0.6875,0 1.0547,-0.5 0.3672,-0.5 0.3672,-1.4531 0,-0.9376 -0.3672,-1.4376 -0.3672,-0.5 -1.0547,-0.5 z m 0,-1.5 q 1.7032,0 2.6563,0.9141 0.9531,0.9141 0.9531,2.5235 0,1.625 -0.9531,2.539 -0.9531,0.9141 -2.6563,0.9141 -1.6875,0 -2.6484,-0.9141 -0.9609,-0.914 -0.9609,-2.539 0,-1.6094 0.9609,-2.5235 0.9609,-0.9141 2.6484,-0.9141 z m 10.0098,1.9376 q -0.2812,-0.125 -0.5547,-0.1876 -0.2734,-0.0624 -0.5547,-0.0624 -0.7968,0 -1.2343,0.5234 -0.4375,0.5234 -0.4375,1.4766 l 0,3.0312 -2.0938,0 0,-6.5625 2.0938,0 0,1.0781 q 0.4062,-0.6406 0.9296,-0.9375 0.5235,-0.2969 1.2579,-0.2969 0.0937,0 0.2187,0.0079 0.125,0.0078 0.3594,0.039 l 0.0156,1.8907 z" />
  </g>
</svg>
