<?xml version="1.0" encoding="UTF-8" standalone="no"?>
<svg
   xmlns:dc="http://purl.org/dc/elements/1.1/"
   xmlns:cc="http://creativecommons.org/ns#"
   xmlns:rdf="http://www.w3.org/1999/02/22-rdf-syntax-ns#"
   xmlns:svg="http://www.w3.org/2000/svg"
   xmlns="http://www.w3.org/2000/svg"
   xmlns:sodipodi="http://sodipodi.sourceforge.net/DTD/sodipodi-0.dtd"
   xmlns:inkscape="http://www.inkscape.org/namespaces/inkscape"
   style="fill-opacity:1; color-rendering:auto; color-interpolation:auto; stroke:black; text-rendering:auto; stroke-linecap:square; stroke-miterlimit:10; stroke-opacity:1; shape-rendering:auto; fill:black; stroke-dasharray:none; font-weight:normal; stroke-width:1; font-family:'Dialog'; font-style:normal; stroke-linejoin:miter; font-size:12; stroke-dashoffset:0; image-rendering:auto;"
   width="880"
   height="666"
   id="svg2"
   version="1.1"
   inkscape:version="0.91 r13725"
   sodipodi:docname="radar_chart_creator.svg">
  <metadata
     id="metadata77">
    <rdf:RDF>
      <cc:Work
         rdf:about="">
        <dc:format>image/svg+xml</dc:format>
        <dc:type
           rdf:resource="http://purl.org/dc/dcmitype/StillImage" />
      </cc:Work>
    </rdf:RDF>
  </metadata>
  <sodipodi:namedview
     pagecolor="#ffffff"
     bordercolor="#666666"
     borderopacity="1"
     objecttolerance="10"
     gridtolerance="10"
     guidetolerance="10"
     inkscape:pageopacity="0"
     inkscape:pageshadow="2"
     inkscape:window-width="838"
     inkscape:window-height="617"
     id="namedview75"
     showgrid="false"
     inkscape:zoom="0.35435435"
     inkscape:cx="440"
     inkscape:cy="333"
     inkscape:window-x="0"
     inkscape:window-y="0"
     inkscape:window-maximized="0"
     inkscape:current-layer="g5" />
  <!--Generated by the Batik Graphics2D SVG Generator-->
  <defs
     id="genericDefs" />
  <g
     id="g5">
    <defs
       id="defs1">
      <linearGradient
         x1="239"
         gradientUnits="userSpaceOnUse"
         x2="463"
         y1="191"
         y2="249"
         id="linearGradient1"
         spreadMethod="pad">
        <stop
           style="stop-opacity:1; stop-color:white;"
           offset="0%"
           id="stop9" />
        <stop
           style="stop-opacity:1; stop-color:rgb(255,255,204);"
           offset="100%"
           id="stop11" />
      </linearGradient>
      <clipPath
         clipPathUnits="userSpaceOnUse"
         id="clipPath1">
        <path
           d="M0 0 L880 0 L880 666 L0 666 L0 0 Z"
           id="path14" />
      </clipPath>
      <clipPath
         clipPathUnits="userSpaceOnUse"
         id="clipPath2">
        <path
           d="M0 0 L660 0 L660 499.5 L0 499.5 L0 0 Z"
           id="path17" />
      </clipPath>
      <clipPath
         clipPathUnits="userSpaceOnUse"
         id="clipPath3">
        <path
           d="M-20 -27 L640 -27 L640 472.5 L-20 472.5 L-20 -27 Z"
           id="path20" />
      </clipPath>
      <clipPath
         clipPathUnits="userSpaceOnUse"
         id="clipPath4">
        <path
           d="M-5 -5 L655 -5 L655 494.5 L-5 494.5 L-5 -5 Z"
           id="path23" />
      </clipPath>
      <clipPath
         clipPathUnits="userSpaceOnUse"
         id="clipPath5">
        <path
           d="M-249 -236.9688 L411 -236.9688 L411 262.5312 L-249 262.5312 L-249 -236.9688 Z"
           id="path26" />
      </clipPath>
      <clipPath
         clipPathUnits="userSpaceOnUse"
         id="clipPath6">
        <path
           d="M-283.5 -207 L376.5 -207 L376.5 292.5 L-283.5 292.5 L-283.5 -207 Z"
           id="path29" />
      </clipPath>
    </defs>
    <g
       transform="matrix(1.3333,0,0,1.3333,0,0) translate(5,5)"
       style="fill-opacity:0.502; fill:rgb(192,192,192); text-rendering:geometricPrecision; font-family:sans-serif; shape-rendering:crispEdges; stroke:rgb(192,192,192); font-weight:bold; stroke-width:2; stroke-opacity:0.502;"
       id="g49">
      <rect
         x="239"
         y="191"
         width="224"
         style="clip-path:url(#clipPath4); stroke:none;"
         height="57.1875"
         id="rect51"
         clip-path="url(#clipPath4)" />
      <rect
         x="239"
         y="191"
         width="224"
         style="fill:none; clip-path:url(#clipPath4);"
         height="57.1875"
         id="rect53"
         clip-path="url(#clipPath4)" />
    </g>
    <g
       transform="matrix(1.3333,0,0,1.3333,0,0)"
       style="fill:url(#linearGradient1); text-rendering:geometricPrecision; font-family:sans-serif; shape-rendering:crispEdges; stroke:url(#linearGradient1); font-weight:bold; stroke-width:2;"
       id="g55">
      <rect
         x="239"
         y="191"
         width="224"
         style="clip-path:url(#clipPath2); stroke:none;"
         height="57.1875"
         id="rect57"
         clip-path="url(#clipPath2)" />
      <rect
         x="239"
         y="191"
         width="224"
         style="clip-path:url(#clipPath2); fill:none; stroke:black;"
         height="57.1875"
         id="rect59"
         clip-path="url(#clipPath2)" />
    </g>
    <g
       style="text-rendering:optimizeLegibility; stroke-width:2; font-family:sans-serif;"
       transform="matrix(1.3333,0,0,1.3333,0,0) translate(249,236.9688)"
       id="g61">
      <path
         d="M5.5156 -7.5312 L5.5156 -4.2656 L8.7812 -4.2656 L8.7812 -3.2656 L5.5156 -3.2656 L5.5156 0 L4.5312 0 L4.5312 -3.2656 L1.2656 -3.2656 L1.2656 -4.2656 L4.5312 -4.2656 L4.5312 -7.5312 L5.5156 -7.5312 ZM19.3223 -5.5625 L19.3223 -9.125 L20.4004 -9.125 L20.4004 0 L19.3223 0 L19.3223 -0.9844 Q18.9785 -0.4062 18.4629 -0.1172 Q17.9473 0.1719 17.2129 0.1719 Q16.0254 0.1719 15.2754 -0.7812 Q14.5254 -1.7344 14.5254 -3.2812 Q14.5254 -4.8281 15.2754 -5.7734 Q16.0254 -6.7188 17.2129 -6.7188 Q17.9473 -6.7188 18.4629 -6.4375 Q18.9785 -6.1562 19.3223 -5.5625 ZM15.6504 -3.2812 Q15.6504 -2.0938 16.1348 -1.4141 Q16.6191 -0.7344 17.4785 -0.7344 Q18.3379 -0.7344 18.8301 -1.4141 Q19.3223 -2.0938 19.3223 -3.2812 Q19.3223 -4.4688 18.8301 -5.1406 Q18.3379 -5.8125 17.4785 -5.8125 Q16.6191 -5.8125 16.1348 -5.1406 Q15.6504 -4.4688 15.6504 -3.2812 ZM25.5957 -3.2969 Q24.2988 -3.2969 23.791 -3 Q23.2832 -2.7031 23.2832 -1.9844 Q23.2832 -1.4062 23.666 -1.0703 Q24.0488 -0.7344 24.6895 -0.7344 Q25.5957 -0.7344 26.1348 -1.3672 Q26.6738 -2 26.6738 -3.0625 L26.6738 -3.2969 L25.5957 -3.2969 ZM27.752 -3.75 L27.752 0 L26.6738 0 L26.6738 -1 Q26.2988 -0.4062 25.752 -0.1172 Q25.2051 0.1719 24.4082 0.1719 Q23.3926 0.1719 22.7988 -0.3984 Q22.2051 -0.9688 22.2051 -1.9062 Q22.2051 -3.0156 22.9473 -3.5781 Q23.6895 -4.1406 25.1582 -4.1406 L26.6738 -4.1406 L26.6738 -4.25 Q26.6738 -5 26.1816 -5.4062 Q25.6895 -5.8125 24.8145 -5.8125 Q24.252 -5.8125 23.7129 -5.6719 Q23.1738 -5.5312 22.6895 -5.2656 L22.6895 -6.2656 Q23.2832 -6.5 23.8379 -6.6094 Q24.3926 -6.7188 24.9238 -6.7188 Q26.3457 -6.7188 27.0488 -5.9844 Q27.752 -5.25 27.752 -3.75 ZM31.043 -8.4219 L31.043 -6.5625 L33.2617 -6.5625 L33.2617 -5.7188 L31.043 -5.7188 L31.043 -2.1562 Q31.043 -1.3594 31.2617 -1.1328 Q31.4805 -0.9062 32.1523 -0.9062 L33.2617 -0.9062 L33.2617 0 L32.1523 0 Q30.9023 0 30.4258 -0.4688 Q29.9492 -0.9375 29.9492 -2.1562 L29.9492 -5.7188 L29.168 -5.7188 L29.168 -6.5625 L29.9492 -6.5625 L29.9492 -8.4219 L31.043 -8.4219 ZM37.6543 -3.2969 Q36.3574 -3.2969 35.8496 -3 Q35.3418 -2.7031 35.3418 -1.9844 Q35.3418 -1.4062 35.7246 -1.0703 Q36.1074 -0.7344 36.748 -0.7344 Q37.6543 -0.7344 38.1934 -1.3672 Q38.7324 -2 38.7324 -3.0625 L38.7324 -3.2969 L37.6543 -3.2969 ZM39.8105 -3.75 L39.8105 0 L38.7324 0 L38.7324 -1 Q38.3574 -0.4062 37.8105 -0.1172 Q37.2637 0.1719 36.4668 0.1719 Q35.4512 0.1719 34.8574 -0.3984 Q34.2637 -0.9688 34.2637 -1.9062 Q34.2637 -3.0156 35.0059 -3.5781 Q35.748 -4.1406 37.2168 -4.1406 L38.7324 -4.1406 L38.7324 -4.25 Q38.7324 -5 38.2402 -5.4062 Q37.748 -5.8125 36.873 -5.8125 Q36.3105 -5.8125 35.7715 -5.6719 Q35.2324 -5.5312 34.748 -5.2656 L34.748 -6.2656 Q35.3418 -6.5 35.8965 -6.6094 Q36.4512 -6.7188 36.9824 -6.7188 Q38.4043 -6.7188 39.1074 -5.9844 Q39.8105 -5.25 39.8105 -3.75 ZM42.0703 -8.75 L47.1016 -8.75 L47.1016 -7.75 L43.2578 -7.75 L43.2578 -5.1719 L46.7266 -5.1719 L46.7266 -4.1719 L43.2578 -4.1719 L43.2578 0 L42.0703 0 L42.0703 -8.75 ZM51.4727 -5.8125 Q50.6133 -5.8125 50.1055 -5.1328 Q49.5977 -4.4531 49.5977 -3.2812 Q49.5977 -2.0938 50.0977 -1.4219 Q50.5977 -0.75 51.4727 -0.75 Q52.332 -0.75 52.8398 -1.4297 Q53.3477 -2.1094 53.3477 -3.2812 Q53.3477 -4.4375 52.8398 -5.125 Q52.332 -5.8125 51.4727 -5.8125 ZM51.4727 -6.7188 Q52.8789 -6.7188 53.6836 -5.8047 Q54.4883 -4.8906 54.4883 -3.2812 Q54.4883 -1.6719 53.6836 -0.75 Q52.8789 0.1719 51.4727 0.1719 Q50.0664 0.1719 49.2617 -0.75 Q48.457 -1.6719 48.457 -3.2812 Q48.457 -4.8906 49.2617 -5.8047 Q50.0664 -6.7188 51.4727 -6.7188 ZM60.0801 -5.5625 Q59.8926 -5.6562 59.6816 -5.7109 Q59.4707 -5.7656 59.2051 -5.7656 Q58.2988 -5.7656 57.8066 -5.1719 Q57.3145 -4.5781 57.3145 -3.4531 L57.3145 0 L56.2363 0 L56.2363 -6.5625 L57.3145 -6.5625 L57.3145 -5.5469 Q57.6582 -6.1406 58.2051 -6.4297 Q58.752 -6.7188 59.5332 -6.7188 Q59.6426 -6.7188 59.7754 -6.7031 Q59.9082 -6.6875 60.0645 -6.6562 L60.0801 -5.5625 ZM66.3105 -5.2969 Q66.7168 -6.0312 67.2793 -6.375 Q67.8418 -6.7188 68.6074 -6.7188 Q69.6387 -6.7188 70.1934 -6 Q70.748 -5.2812 70.748 -3.9688 L70.748 0 L69.6699 0 L69.6699 -3.9219 Q69.6699 -4.875 69.334 -5.3281 Q68.998 -5.7812 68.3105 -5.7812 Q67.4668 -5.7812 66.9824 -5.2266 Q66.498 -4.6719 66.498 -3.7031 L66.498 0 L65.4199 0 L65.4199 -3.9219 Q65.4199 -4.875 65.084 -5.3281 Q64.748 -5.7812 64.0449 -5.7812 Q63.2168 -5.7812 62.7324 -5.2266 Q62.248 -4.6719 62.248 -3.7031 L62.248 0 L61.1699 0 L61.1699 -6.5625 L62.248 -6.5625 L62.248 -5.5469 Q62.623 -6.1406 63.1387 -6.4297 Q63.6543 -6.7188 64.3574 -6.7188 Q65.0762 -6.7188 65.5762 -6.3594 Q66.0762 -6 66.3105 -5.2969 ZM75.875 -3.2969 Q74.5781 -3.2969 74.0703 -3 Q73.5625 -2.7031 73.5625 -1.9844 Q73.5625 -1.4062 73.9453 -1.0703 Q74.3281 -0.7344 74.9688 -0.7344 Q75.875 -0.7344 76.4141 -1.3672 Q76.9531 -2 76.9531 -3.0625 L76.9531 -3.2969 L75.875 -3.2969 ZM78.0312 -3.75 L78.0312 0 L76.9531 0 L76.9531 -1 Q76.5781 -0.4062 76.0312 -0.1172 Q75.4844 0.1719 74.6875 0.1719 Q73.6719 0.1719 73.0781 -0.3984 Q72.4844 -0.9688 72.4844 -1.9062 Q72.4844 -3.0156 73.2266 -3.5781 Q73.9688 -4.1406 75.4375 -4.1406 L76.9531 -4.1406 L76.9531 -4.25 Q76.9531 -5 76.4609 -5.4062 Q75.9688 -5.8125 75.0938 -5.8125 Q74.5312 -5.8125 73.9922 -5.6719 Q73.4531 -5.5312 72.9688 -5.2656 L72.9688 -6.2656 Q73.5625 -6.5 74.1172 -6.6094 Q74.6719 -6.7188 75.2031 -6.7188 Q76.625 -6.7188 77.3281 -5.9844 Q78.0312 -5.25 78.0312 -3.75 ZM81.3223 -8.4219 L81.3223 -6.5625 L83.541 -6.5625 L83.541 -5.7188 L81.3223 -5.7188 L81.3223 -2.1562 Q81.3223 -1.3594 81.541 -1.1328 Q81.7598 -0.9062 82.4316 -0.9062 L83.541 -0.9062 L83.541 0 L82.4316 0 Q81.1816 0 80.7051 -0.4688 Q80.2285 -0.9375 80.2285 -2.1562 L80.2285 -5.7188 L79.4473 -5.7188 L79.4473 -6.5625 L80.2285 -6.5625 L80.2285 -8.4219 L81.3223 -8.4219 ZM87.543 -9.1094 Q86.7617 -7.7656 86.3789 -6.4453 Q85.9961 -5.125 85.9961 -3.7656 Q85.9961 -2.4219 86.3789 -1.0938 Q86.7617 0.2344 87.543 1.5781 L86.6055 1.5781 Q85.7305 0.2031 85.293 -1.125 Q84.8555 -2.4531 84.8555 -3.7656 Q84.8555 -5.0781 85.293 -6.3984 Q85.7305 -7.7188 86.6055 -9.1094 L87.543 -9.1094 ZM93.959 -5.5625 L93.959 -9.125 L95.0371 -9.125 L95.0371 0 L93.959 0 L93.959 -0.9844 Q93.6152 -0.4062 93.0996 -0.1172 Q92.584 0.1719 91.8496 0.1719 Q90.6621 0.1719 89.9121 -0.7812 Q89.1621 -1.7344 89.1621 -3.2812 Q89.1621 -4.8281 89.9121 -5.7734 Q90.6621 -6.7188 91.8496 -6.7188 Q92.584 -6.7188 93.0996 -6.4375 Q93.6152 -6.1562 93.959 -5.5625 ZM90.2871 -3.2812 Q90.2871 -2.0938 90.7715 -1.4141 Q91.2559 -0.7344 92.1152 -0.7344 Q92.9746 -0.7344 93.4668 -1.4141 Q93.959 -2.0938 93.959 -3.2812 Q93.959 -4.4688 93.4668 -5.1406 Q92.9746 -5.8125 92.1152 -5.8125 Q91.2559 -5.8125 90.7715 -5.1406 Q90.2871 -4.4688 90.2871 -3.2812 ZM100.2324 -3.2969 Q98.9355 -3.2969 98.4277 -3 Q97.9199 -2.7031 97.9199 -1.9844 Q97.9199 -1.4062 98.3027 -1.0703 Q98.6855 -0.7344 99.3262 -0.7344 Q100.2324 -0.7344 100.7715 -1.3672 Q101.3105 -2 101.3105 -3.0625 L101.3105 -3.2969 L100.2324 -3.2969 ZM102.3887 -3.75 L102.3887 0 L101.3105 0 L101.3105 -1 Q100.9355 -0.4062 100.3887 -0.1172 Q99.8418 0.1719 99.0449 0.1719 Q98.0293 0.1719 97.4355 -0.3984 Q96.8418 -0.9688 96.8418 -1.9062 Q96.8418 -3.0156 97.584 -3.5781 Q98.3262 -4.1406 99.7949 -4.1406 L101.3105 -4.1406 L101.3105 -4.25 Q101.3105 -5 100.8184 -5.4062 Q100.3262 -5.8125 99.4512 -5.8125 Q98.8887 -5.8125 98.3496 -5.6719 Q97.8105 -5.5312 97.3262 -5.2656 L97.3262 -6.2656 Q97.9199 -6.5 98.4746 -6.6094 Q99.0293 -6.7188 99.5605 -6.7188 Q100.9824 -6.7188 101.6855 -5.9844 Q102.3887 -5.25 102.3887 -3.75 ZM105.6797 -8.4219 L105.6797 -6.5625 L107.8984 -6.5625 L107.8984 -5.7188 L105.6797 -5.7188 L105.6797 -2.1562 Q105.6797 -1.3594 105.8984 -1.1328 Q106.1172 -0.9062 106.7891 -0.9062 L107.8984 -0.9062 L107.8984 0 L106.7891 0 Q105.5391 0 105.0625 -0.4688 Q104.5859 -0.9375 104.5859 -2.1562 L104.5859 -5.7188 L103.8047 -5.7188 L103.8047 -6.5625 L104.5859 -6.5625 L104.5859 -8.4219 L105.6797 -8.4219 ZM112.291 -3.2969 Q110.9941 -3.2969 110.4863 -3 Q109.9785 -2.7031 109.9785 -1.9844 Q109.9785 -1.4062 110.3613 -1.0703 Q110.7441 -0.7344 111.3848 -0.7344 Q112.291 -0.7344 112.8301 -1.3672 Q113.3691 -2 113.3691 -3.0625 L113.3691 -3.2969 L112.291 -3.2969 ZM114.4473 -3.75 L114.4473 0 L113.3691 0 L113.3691 -1 Q112.9941 -0.4062 112.4473 -0.1172 Q111.9004 0.1719 111.1035 0.1719 Q110.0879 0.1719 109.4941 -0.3984 Q108.9004 -0.9688 108.9004 -1.9062 Q108.9004 -3.0156 109.6426 -3.5781 Q110.3848 -4.1406 111.8535 -4.1406 L113.3691 -4.1406 L113.3691 -4.25 Q113.3691 -5 112.877 -5.4062 Q112.3848 -5.8125 111.5098 -5.8125 Q110.9473 -5.8125 110.4082 -5.6719 Q109.8691 -5.5312 109.3848 -5.2656 L109.3848 -6.2656 Q109.9785 -6.5 110.5332 -6.6094 Q111.0879 -6.7188 111.6191 -6.7188 Q113.041 -6.7188 113.7441 -5.9844 Q114.4473 -5.25 114.4473 -3.75 ZM120.7559 -1.4844 L121.9902 -1.4844 L121.9902 0 L120.7559 0 L120.7559 -1.4844 ZM120.7559 -6.2031 L121.9902 -6.2031 L121.9902 -4.7188 L120.7559 -4.7188 L120.7559 -6.2031 ZM128.3789 -8.75 L129.5664 -8.75 L129.5664 -0.6094 Q129.5664 0.9688 128.9648 1.6875 Q128.3633 2.4062 127.0352 2.4062 L126.582 2.4062 L126.582 1.4062 L126.957 1.4062 Q127.7383 1.4062 128.0586 0.9688 Q128.3789 0.5312 128.3789 -0.6094 L128.3789 -8.75 ZM135.4805 -7.9531 Q134.1836 -7.9531 133.4258 -6.9922 Q132.668 -6.0312 132.668 -4.3594 Q132.668 -2.7188 133.4258 -1.7578 Q134.1836 -0.7969 135.4805 -0.7969 Q136.7617 -0.7969 137.5195 -1.7578 Q138.2773 -2.7188 138.2773 -4.3594 Q138.2773 -6.0312 137.5195 -6.9922 Q136.7617 -7.9531 135.4805 -7.9531 ZM135.4805 -8.9062 Q137.3086 -8.9062 138.4102 -7.6719 Q139.5117 -6.4375 139.5117 -4.3594 Q139.5117 -2.2969 138.4102 -1.0625 Q137.3086 0.1719 135.4805 0.1719 Q133.6367 0.1719 132.5273 -1.0625 Q131.418 -2.2969 131.418 -4.3594 Q131.418 -6.4375 132.5273 -7.6719 Q133.6367 -8.9062 135.4805 -8.9062 ZM146.6133 -8.4688 L146.6133 -7.3125 Q145.9414 -7.625 145.3398 -7.7891 Q144.7383 -7.9531 144.1914 -7.9531 Q143.2227 -7.9531 142.6992 -7.5781 Q142.1758 -7.2031 142.1758 -6.5 Q142.1758 -5.9219 142.5195 -5.625 Q142.8633 -5.3281 143.8477 -5.1562 L144.5508 -5 Q145.8789 -4.75 146.5117 -4.1172 Q147.1445 -3.4844 147.1445 -2.4219 Q147.1445 -1.1406 146.293 -0.4844 Q145.4414 0.1719 143.7852 0.1719 Q143.1758 0.1719 142.4727 0.0312 Q141.7695 -0.1094 141.0195 -0.3906 L141.0195 -1.6094 Q141.7383 -1.2031 142.4336 -1 Q143.1289 -0.7969 143.7852 -0.7969 Q144.8008 -0.7969 145.3555 -1.1953 Q145.9102 -1.5938 145.9102 -2.3281 Q145.9102 -2.9688 145.5117 -3.3359 Q145.1133 -3.7031 144.207 -3.875 L143.4883 -4.0156 Q142.1602 -4.2812 141.5742 -4.8438 Q140.9883 -5.4062 140.9883 -6.4062 Q140.9883 -7.5781 141.8008 -8.2422 Q142.6133 -8.9062 144.0508 -8.9062 Q144.6758 -8.9062 145.3086 -8.7969 Q145.9414 -8.6875 146.6133 -8.4688 ZM148.9805 -8.75 L150.5742 -8.75 L154.4648 -1.4375 L154.4648 -8.75 L155.6055 -8.75 L155.6055 0 L154.0117 0 L150.1367 -7.3125 L150.1367 0 L148.9805 0 L148.9805 -8.75 ZM157.7539 -9.1094 L158.6914 -9.1094 Q159.5664 -7.7188 160.0039 -6.3984 Q160.4414 -5.0781 160.4414 -3.7656 Q160.4414 -2.4531 160.0039 -1.125 Q159.5664 0.2031 158.6914 1.5781 L157.7539 1.5781 Q158.5195 0.2344 158.9102 -1.0938 Q159.3008 -2.4219 159.3008 -3.7656 Q159.3008 -5.125 158.9102 -6.4453 Q158.5195 -7.7656 157.7539 -9.1094 ZM166.6875 -1.4844 L167.9219 -1.4844 L167.9219 0 L166.6875 0 L166.6875 -1.4844 ZM166.6875 -6.2031 L167.9219 -6.2031 L167.9219 -4.7188 L166.6875 -4.7188 L166.6875 -6.2031 ZM173.498 -6.5625 L174.6387 -6.5625 L176.6855 -1.0625 L178.748 -6.5625 L179.8887 -6.5625 L177.4199 0 L175.9512 0 L173.498 -6.5625 ZM183.9121 -5.8125 Q183.0527 -5.8125 182.5449 -5.1328 Q182.0371 -4.4531 182.0371 -3.2812 Q182.0371 -2.0938 182.5371 -1.4219 Q183.0371 -0.75 183.9121 -0.75 Q184.7715 -0.75 185.2793 -1.4297 Q185.7871 -2.1094 185.7871 -3.2812 Q185.7871 -4.4375 185.2793 -5.125 Q184.7715 -5.8125 183.9121 -5.8125 ZM183.9121 -6.7188 Q185.3184 -6.7188 186.123 -5.8047 Q186.9277 -4.8906 186.9277 -3.2812 Q186.9277 -1.6719 186.123 -0.75 Q185.3184 0.1719 183.9121 0.1719 Q182.5059 0.1719 181.7012 -0.75 Q180.8965 -1.6719 180.8965 -3.2812 Q180.8965 -4.8906 181.7012 -5.8047 Q182.5059 -6.7188 183.9121 -6.7188 ZM188.707 -6.5625 L189.7852 -6.5625 L189.7852 0 L188.707 0 L188.707 -6.5625 ZM188.707 -9.125 L189.7852 -9.125 L189.7852 -7.75 L188.707 -7.75 L188.707 -9.125 ZM196.3691 -5.5625 L196.3691 -9.125 L197.4473 -9.125 L197.4473 0 L196.3691 0 L196.3691 -0.9844 Q196.0254 -0.4062 195.5098 -0.1172 Q194.9941 0.1719 194.2598 0.1719 Q193.0723 0.1719 192.3223 -0.7812 Q191.5723 -1.7344 191.5723 -3.2812 Q191.5723 -4.8281 192.3223 -5.7734 Q193.0723 -6.7188 194.2598 -6.7188 Q194.9941 -6.7188 195.5098 -6.4375 Q196.0254 -6.1562 196.3691 -5.5625 ZM192.6973 -3.2812 Q192.6973 -2.0938 193.1816 -1.4141 Q193.666 -0.7344 194.5254 -0.7344 Q195.3848 -0.7344 195.877 -1.4141 Q196.3691 -2.0938 196.3691 -3.2812 Q196.3691 -4.4688 195.877 -5.1406 Q195.3848 -5.8125 194.5254 -5.8125 Q193.666 -5.8125 193.1816 -5.1406 Q192.6973 -4.4688 192.6973 -3.2812 Z"
         style="clip-path:url(#clipPath5); stroke:none;"
         id="path63"
         clip-path="url(#clipPath5)" />
    </g>
    <g
       style="font-family:sans-serif; text-rendering:optimizeLegibility;"
       transform="matrix(1.3333,0,0,1.3333,0,0)"
       id="g65">
      <line
         x1="239"
         x2="463"
         y1="220.9688"
         style="fill:none; clip-path:url(#clipPath2);"
         y2="220.9688"
         id="line67"
         clip-path="url(#clipPath2)" />
      <line
         x1="239"
         x2="463"
         y1="212.9688"
         style="fill:none; clip-path:url(#clipPath2);"
         y2="212.9688"
         id="line69"
         clip-path="url(#clipPath2)" />
    </g>
    <g
       style="text-rendering:optimizeLegibility; font-family:sans-serif; font-weight:bold;"
       transform="matrix(1.3333,0,0,1.3333,0,0) translate(283.5,207)"
       id="g71">
      <path
         d="M4.3125 -4.875 Q5.0156 -4.875 5.3203 -5.1328 Q5.625 -5.3906 5.625 -6 Q5.625 -6.5938 5.3203 -6.8516 Q5.0156 -7.1094 4.3125 -7.1094 L3.3594 -7.1094 L3.3594 -4.875 L4.3125 -4.875 ZM3.3594 -3.3125 L3.3594 0 L1.1094 0 L1.1094 -8.75 L4.5469 -8.75 Q6.2812 -8.75 7.0859 -8.1719 Q7.8906 -7.5938 7.8906 -6.3281 Q7.8906 -5.4688 7.4688 -4.9141 Q7.0469 -4.3594 6.2031 -4.0938 Q6.6719 -3.9844 7.0391 -3.6094 Q7.4062 -3.2344 7.7812 -2.4844 L9 0 L6.5938 0 L5.5312 -2.1719 Q5.2031 -2.8281 4.875 -3.0703 Q4.5469 -3.3125 4 -3.3125 L3.3594 -3.3125 ZM13.1934 -2.9531 Q12.5371 -2.9531 12.2012 -2.7344 Q11.8652 -2.5156 11.8652 -2.0781 Q11.8652 -1.6719 12.1387 -1.4453 Q12.4121 -1.2188 12.8809 -1.2188 Q13.4746 -1.2188 13.8809 -1.6484 Q14.2871 -2.0781 14.2871 -2.7188 L14.2871 -2.9531 L13.1934 -2.9531 ZM16.3965 -3.75 L16.3965 0 L14.2871 0 L14.2871 -0.9688 Q13.8652 -0.375 13.334 -0.1016 Q12.8027 0.1719 12.0527 0.1719 Q11.0215 0.1719 10.3887 -0.4219 Q9.7559 -1.0156 9.7559 -1.9688 Q9.7559 -3.125 10.5527 -3.6641 Q11.3496 -4.2031 13.0371 -4.2031 L14.2871 -4.2031 L14.2871 -4.3594 Q14.2871 -4.8594 13.8887 -5.0938 Q13.4902 -5.3281 12.6621 -5.3281 Q11.9902 -5.3281 11.4121 -5.1953 Q10.834 -5.0625 10.334 -4.7812 L10.334 -6.3906 Q11.0059 -6.5469 11.6855 -6.6328 Q12.3652 -6.7188 13.0371 -6.7188 Q14.8184 -6.7188 15.6074 -6.0234 Q16.3965 -5.3281 16.3965 -3.75 ZM22.8066 -5.6094 L22.8066 -9.125 L24.916 -9.125 L24.916 0 L22.8066 0 L22.8066 -0.9531 Q22.3848 -0.375 21.8613 -0.1016 Q21.3379 0.1719 20.6504 0.1719 Q19.4316 0.1719 18.6582 -0.7969 Q17.8848 -1.7656 17.8848 -3.2812 Q17.8848 -4.7969 18.6582 -5.7578 Q19.4316 -6.7188 20.6504 -6.7188 Q21.3223 -6.7188 21.8535 -6.4453 Q22.3848 -6.1719 22.8066 -5.6094 ZM21.4316 -1.3594 Q22.1035 -1.3594 22.4551 -1.8516 Q22.8066 -2.3438 22.8066 -3.2812 Q22.8066 -4.2188 22.4551 -4.7109 Q22.1035 -5.2031 21.4316 -5.2031 Q20.7598 -5.2031 20.4082 -4.7109 Q20.0566 -4.2188 20.0566 -3.2812 Q20.0566 -2.3438 20.4082 -1.8516 Q20.7598 -1.3594 21.4316 -1.3594 ZM29.8809 -2.9531 Q29.2246 -2.9531 28.8887 -2.7344 Q28.5527 -2.5156 28.5527 -2.0781 Q28.5527 -1.6719 28.8262 -1.4453 Q29.0996 -1.2188 29.5684 -1.2188 Q30.1621 -1.2188 30.5684 -1.6484 Q30.9746 -2.0781 30.9746 -2.7188 L30.9746 -2.9531 L29.8809 -2.9531 ZM33.084 -3.75 L33.084 0 L30.9746 0 L30.9746 -0.9688 Q30.5527 -0.375 30.0215 -0.1016 Q29.4902 0.1719 28.7402 0.1719 Q27.709 0.1719 27.0762 -0.4219 Q26.4434 -1.0156 26.4434 -1.9688 Q26.4434 -3.125 27.2402 -3.6641 Q28.0371 -4.2031 29.7246 -4.2031 L30.9746 -4.2031 L30.9746 -4.3594 Q30.9746 -4.8594 30.5762 -5.0938 Q30.1777 -5.3281 29.3496 -5.3281 Q28.6777 -5.3281 28.0996 -5.1953 Q27.5215 -5.0625 27.0215 -4.7812 L27.0215 -6.3906 Q27.6934 -6.5469 28.373 -6.6328 Q29.0527 -6.7188 29.7246 -6.7188 Q31.5059 -6.7188 32.2949 -6.0234 Q33.084 -5.3281 33.084 -3.75 ZM39.916 -4.7812 Q39.6348 -4.9062 39.3613 -4.9688 Q39.0879 -5.0312 38.8066 -5.0312 Q38.0098 -5.0312 37.5723 -4.5078 Q37.1348 -3.9844 37.1348 -3.0312 L37.1348 0 L35.041 0 L35.041 -6.5625 L37.1348 -6.5625 L37.1348 -5.4844 Q37.541 -6.125 38.0645 -6.4219 Q38.5879 -6.7188 39.3223 -6.7188 Q39.416 -6.7188 39.541 -6.7109 Q39.666 -6.7031 39.9004 -6.6719 L39.916 -4.7812 ZM47.9902 -0.4844 Q47.3652 -0.1562 46.6934 0.0078 Q46.0215 0.1719 45.2871 0.1719 Q43.0996 0.1719 41.8184 -1.0547 Q40.5371 -2.2812 40.5371 -4.3594 Q40.5371 -6.4688 41.8184 -7.6875 Q43.0996 -8.9062 45.2871 -8.9062 Q46.0215 -8.9062 46.6934 -8.7422 Q47.3652 -8.5781 47.9902 -8.25 L47.9902 -6.4531 Q47.3496 -6.875 46.7402 -7.0703 Q46.1309 -7.2656 45.459 -7.2656 Q44.2559 -7.2656 43.5684 -6.4922 Q42.8809 -5.7188 42.8809 -4.3594 Q42.8809 -3.0156 43.5684 -2.2422 Q44.2559 -1.4688 45.459 -1.4688 Q46.1309 -1.4688 46.7402 -1.6641 Q47.3496 -1.8594 47.9902 -2.2969 L47.9902 -0.4844 ZM56.3594 -4 L56.3594 0 L54.25 0 L54.25 -0.6562 L54.25 -3.0469 Q54.25 -3.9062 54.2109 -4.2266 Q54.1719 -4.5469 54.0781 -4.7031 Q53.9531 -4.9062 53.7422 -5.0234 Q53.5312 -5.1406 53.2656 -5.1406 Q52.6094 -5.1406 52.2344 -4.6328 Q51.8594 -4.125 51.8594 -3.2344 L51.8594 0 L49.7656 0 L49.7656 -9.125 L51.8594 -9.125 L51.8594 -5.6094 Q52.3281 -6.1719 52.8594 -6.4453 Q53.3906 -6.7188 54.0469 -6.7188 Q55.1719 -6.7188 55.7656 -6.0234 Q56.3594 -5.3281 56.3594 -4 ZM61.2461 -2.9531 Q60.5898 -2.9531 60.2539 -2.7344 Q59.918 -2.5156 59.918 -2.0781 Q59.918 -1.6719 60.1914 -1.4453 Q60.4648 -1.2188 60.9336 -1.2188 Q61.5273 -1.2188 61.9336 -1.6484 Q62.3398 -2.0781 62.3398 -2.7188 L62.3398 -2.9531 L61.2461 -2.9531 ZM64.4492 -3.75 L64.4492 0 L62.3398 0 L62.3398 -0.9688 Q61.918 -0.375 61.3867 -0.1016 Q60.8555 0.1719 60.1055 0.1719 Q59.0742 0.1719 58.4414 -0.4219 Q57.8086 -1.0156 57.8086 -1.9688 Q57.8086 -3.125 58.6055 -3.6641 Q59.4023 -4.2031 61.0898 -4.2031 L62.3398 -4.2031 L62.3398 -4.3594 Q62.3398 -4.8594 61.9414 -5.0938 Q61.543 -5.3281 60.7148 -5.3281 Q60.043 -5.3281 59.4648 -5.1953 Q58.8867 -5.0625 58.3867 -4.7812 L58.3867 -6.3906 Q59.0586 -6.5469 59.7383 -6.6328 Q60.418 -6.7188 61.0898 -6.7188 Q62.8711 -6.7188 63.6602 -6.0234 Q64.4492 -5.3281 64.4492 -3.75 ZM71.2812 -4.7812 Q71 -4.9062 70.7266 -4.9688 Q70.4531 -5.0312 70.1719 -5.0312 Q69.375 -5.0312 68.9375 -4.5078 Q68.5 -3.9844 68.5 -3.0312 L68.5 0 L66.4062 0 L66.4062 -6.5625 L68.5 -6.5625 L68.5 -5.4844 Q68.9062 -6.125 69.4297 -6.4219 Q69.9531 -6.7188 70.6875 -6.7188 Q70.7812 -6.7188 70.9062 -6.7109 Q71.0312 -6.7031 71.2656 -6.6719 L71.2812 -4.7812 ZM74.6055 -8.4219 L74.6055 -6.5625 L76.7773 -6.5625 L76.7773 -5.0625 L74.6055 -5.0625 L74.6055 -2.2812 Q74.6055 -1.8281 74.7852 -1.6641 Q74.9648 -1.5 75.5117 -1.5 L76.5898 -1.5 L76.5898 0 L74.793 0 Q73.543 0 73.0273 -0.5156 Q72.5117 -1.0312 72.5117 -2.2812 L72.5117 -5.0625 L71.4648 -5.0625 L71.4648 -6.5625 L72.5117 -6.5625 L72.5117 -8.4219 L74.6055 -8.4219 ZM85.0918 -0.4844 Q84.4668 -0.1562 83.7949 0.0078 Q83.123 0.1719 82.3887 0.1719 Q80.2012 0.1719 78.9199 -1.0547 Q77.6387 -2.2812 77.6387 -4.3594 Q77.6387 -6.4688 78.9199 -7.6875 Q80.2012 -8.9062 82.3887 -8.9062 Q83.123 -8.9062 83.7949 -8.7422 Q84.4668 -8.5781 85.0918 -8.25 L85.0918 -6.4531 Q84.4512 -6.875 83.8418 -7.0703 Q83.2324 -7.2656 82.5605 -7.2656 Q81.3574 -7.2656 80.6699 -6.4922 Q79.9824 -5.7188 79.9824 -4.3594 Q79.9824 -3.0156 80.6699 -2.2422 Q81.3574 -1.4688 82.5605 -1.4688 Q83.2324 -1.4688 83.8418 -1.6641 Q84.4512 -1.8594 85.0918 -2.2969 L85.0918 -0.4844 ZM91.7422 -4.7812 Q91.4609 -4.9062 91.1875 -4.9688 Q90.9141 -5.0312 90.6328 -5.0312 Q89.8359 -5.0312 89.3984 -4.5078 Q88.9609 -3.9844 88.9609 -3.0312 L88.9609 0 L86.8672 0 L86.8672 -6.5625 L88.9609 -6.5625 L88.9609 -5.4844 Q89.3672 -6.125 89.8906 -6.4219 Q90.4141 -6.7188 91.1484 -6.7188 Q91.2422 -6.7188 91.3672 -6.7109 Q91.4922 -6.7031 91.7266 -6.6719 L91.7422 -4.7812 ZM99.332 -3.2969 L99.332 -2.7031 L94.4258 -2.7031 Q94.5039 -1.9688 94.957 -1.5938 Q95.4102 -1.2188 96.2383 -1.2188 Q96.8945 -1.2188 97.5898 -1.4219 Q98.2852 -1.625 99.0195 -2.0156 L99.0195 -0.4062 Q98.2695 -0.125 97.5273 0.0234 Q96.7852 0.1719 96.0352 0.1719 Q94.2539 0.1719 93.2695 -0.7344 Q92.2852 -1.6406 92.2852 -3.2812 Q92.2852 -4.875 93.2539 -5.7969 Q94.2227 -6.7188 95.9258 -6.7188 Q97.4727 -6.7188 98.4023 -5.7891 Q99.332 -4.8594 99.332 -3.2969 ZM97.1758 -4 Q97.1758 -4.5938 96.8242 -4.9609 Q96.4727 -5.3281 95.9102 -5.3281 Q95.3008 -5.3281 94.918 -4.9844 Q94.5352 -4.6406 94.4414 -4 L97.1758 -4 ZM103.8613 -2.9531 Q103.2051 -2.9531 102.8691 -2.7344 Q102.5332 -2.5156 102.5332 -2.0781 Q102.5332 -1.6719 102.8066 -1.4453 Q103.0801 -1.2188 103.5488 -1.2188 Q104.1426 -1.2188 104.5488 -1.6484 Q104.9551 -2.0781 104.9551 -2.7188 L104.9551 -2.9531 L103.8613 -2.9531 ZM107.0645 -3.75 L107.0645 0 L104.9551 0 L104.9551 -0.9688 Q104.5332 -0.375 104.002 -0.1016 Q103.4707 0.1719 102.7207 0.1719 Q101.6895 0.1719 101.0566 -0.4219 Q100.4238 -1.0156 100.4238 -1.9688 Q100.4238 -3.125 101.2207 -3.6641 Q102.0176 -4.2031 103.7051 -4.2031 L104.9551 -4.2031 L104.9551 -4.3594 Q104.9551 -4.8594 104.5566 -5.0938 Q104.1582 -5.3281 103.3301 -5.3281 Q102.6582 -5.3281 102.0801 -5.1953 Q101.502 -5.0625 101.002 -4.7812 L101.002 -6.3906 Q101.6738 -6.5469 102.3535 -6.6328 Q103.0332 -6.7188 103.7051 -6.7188 Q105.4863 -6.7188 106.2754 -6.0234 Q107.0645 -5.3281 107.0645 -3.75 ZM111.3027 -8.4219 L111.3027 -6.5625 L113.4746 -6.5625 L113.4746 -5.0625 L111.3027 -5.0625 L111.3027 -2.2812 Q111.3027 -1.8281 111.4824 -1.6641 Q111.6621 -1.5 112.209 -1.5 L113.2871 -1.5 L113.2871 0 L111.4902 0 Q110.2402 0 109.7246 -0.5156 Q109.209 -1.0312 109.209 -2.2812 L109.209 -5.0625 L108.1621 -5.0625 L108.1621 -6.5625 L109.209 -6.5625 L109.209 -8.4219 L111.3027 -8.4219 ZM117.8672 -5.2188 Q117.1797 -5.2188 116.8125 -4.7188 Q116.4453 -4.2188 116.4453 -3.2812 Q116.4453 -2.3281 116.8125 -1.8281 Q117.1797 -1.3281 117.8672 -1.3281 Q118.5547 -1.3281 118.9219 -1.8281 Q119.2891 -2.3281 119.2891 -3.2812 Q119.2891 -4.2188 118.9219 -4.7188 Q118.5547 -5.2188 117.8672 -5.2188 ZM117.8672 -6.7188 Q119.5703 -6.7188 120.5234 -5.8047 Q121.4766 -4.8906 121.4766 -3.2812 Q121.4766 -1.6562 120.5234 -0.7422 Q119.5703 0.1719 117.8672 0.1719 Q116.1797 0.1719 115.2188 -0.7422 Q114.2578 -1.6562 114.2578 -3.2812 Q114.2578 -4.8906 115.2188 -5.8047 Q116.1797 -6.7188 117.8672 -6.7188 ZM127.877 -4.7812 Q127.5957 -4.9062 127.3223 -4.9688 Q127.0488 -5.0312 126.7676 -5.0312 Q125.9707 -5.0312 125.5332 -4.5078 Q125.0957 -3.9844 125.0957 -3.0312 L125.0957 0 L123.002 0 L123.002 -6.5625 L125.0957 -6.5625 L125.0957 -5.4844 Q125.502 -6.125 126.0254 -6.4219 Q126.5488 -6.7188 127.2832 -6.7188 Q127.377 -6.7188 127.502 -6.7109 Q127.627 -6.7031 127.8613 -6.6719 L127.877 -4.7812 Z"
         style="clip-path:url(#clipPath6); stroke:none;"
         id="path73"
         clip-path="url(#clipPath6)" />
    </g>
  </g>
</svg>
