<?xml version="1.0" encoding="UTF-8" standalone="no"?>
<svg
   xmlns:dc="http://purl.org/dc/elements/1.1/"
   xmlns:cc="http://creativecommons.org/ns#"
   xmlns:rdf="http://www.w3.org/1999/02/22-rdf-syntax-ns#"
   xmlns:svg="http://www.w3.org/2000/svg"
   xmlns="http://www.w3.org/2000/svg"
   xmlns:sodipodi="http://sodipodi.sourceforge.net/DTD/sodipodi-0.dtd"
   xmlns:inkscape="http://www.inkscape.org/namespaces/inkscape"
   style="fill-opacity:1; color-rendering:auto; color-interpolation:auto; stroke:black; text-rendering:auto; stroke-linecap:square; stroke-miterlimit:10; stroke-opacity:1; shape-rendering:auto; fill:black; stroke-dasharray:none; font-weight:normal; stroke-width:1; font-family:'Dialog'; font-style:normal; stroke-linejoin:miter; font-size:12; stroke-dashoffset:0; image-rendering:auto;"
   width="880"
   height="666"
   id="svg2"
   version="1.1"
   inkscape:version="0.91 r13725"
   sodipodi:docname="user_service.svg">
  <metadata
     id="metadata98">
    <rdf:RDF>
      <cc:Work
         rdf:about="">
        <dc:format>image/svg+xml</dc:format>
        <dc:type
           rdf:resource="http://purl.org/dc/dcmitype/StillImage" />
      </cc:Work>
    </rdf:RDF>
  </metadata>
  <sodipodi:namedview
     pagecolor="#ffffff"
     bordercolor="#666666"
     borderopacity="1"
     objecttolerance="10"
     gridtolerance="10"
     guidetolerance="10"
     inkscape:pageopacity="0"
     inkscape:pageshadow="2"
     inkscape:window-width="640"
     inkscape:window-height="480"
     id="namedview96"
     showgrid="false"
     inkscape:zoom="0.35435435"
     inkscape:cx="440"
     inkscape:cy="333"
     inkscape:window-x="0"
     inkscape:window-y="0"
     inkscape:window-maximized="0"
     inkscape:current-layer="g5" />
  <!--Generated by the Batik Graphics2D SVG Generator-->
  <defs
     id="genericDefs" />
  <g
     id="g5">
    <defs
       id="defs1">
      <linearGradient
         x1="240"
         gradientUnits="userSpaceOnUse"
         x2="511"
         y1="191"
         y2="294"
         id="linearGradient1"
         spreadMethod="pad">
        <stop
           style="stop-opacity:1; stop-color:white;"
           offset="0%"
           id="stop9" />
        <stop
           style="stop-opacity:1; stop-color:rgb(255,255,204);"
           offset="100%"
           id="stop11" />
      </linearGradient>
      <clipPath
         clipPathUnits="userSpaceOnUse"
         id="clipPath1">
        <path
           d="M0 0 L880 0 L880 666 L0 666 L0 0 Z"
           id="path14" />
      </clipPath>
      <clipPath
         clipPathUnits="userSpaceOnUse"
         id="clipPath2">
        <path
           d="M0 0 L660 0 L660 499.5 L0 499.5 L0 0 Z"
           id="path17" />
      </clipPath>
      <clipPath
         clipPathUnits="userSpaceOnUse"
         id="clipPath3">
        <path
           d="M-20 -27 L640 -27 L640 472.5 L-20 472.5 L-20 -27 Z"
           id="path20" />
      </clipPath>
      <clipPath
         clipPathUnits="userSpaceOnUse"
         id="clipPath4">
        <path
           d="M-5 -5 L655 -5 L655 494.5 L-5 494.5 L-5 -5 Z"
           id="path23" />
      </clipPath>
      <clipPath
         clipPathUnits="userSpaceOnUse"
         id="clipPath5">
        <path
           d="M-250 -278.875 L410 -278.875 L410 220.625 L-250 220.625 L-250 -278.875 Z"
           id="path26" />
      </clipPath>
      <clipPath
         clipPathUnits="userSpaceOnUse"
         id="clipPath6">
        <path
           d="M-250 -264.9062 L410 -264.9062 L410 234.5938 L-250 234.5938 L-250 -264.9062 Z"
           id="path29" />
      </clipPath>
      <clipPath
         clipPathUnits="userSpaceOnUse"
         id="clipPath7">
        <path
           d="M-250 -250.9375 L410 -250.9375 L410 248.5625 L-250 248.5625 L-250 -250.9375 Z"
           id="path32" />
      </clipPath>
      <clipPath
         clipPathUnits="userSpaceOnUse"
         id="clipPath8">
        <path
           d="M-250 -236.9688 L410 -236.9688 L410 262.5312 L-250 262.5312 L-250 -236.9688 Z"
           id="path35" />
      </clipPath>
      <clipPath
         clipPathUnits="userSpaceOnUse"
         id="clipPath9">
        <path
           d="M-333.5 -207 L326.5 -207 L326.5 292.5 L-333.5 292.5 L-333.5 -207 Z"
           id="path38" />
      </clipPath>
    </defs>
    <g
       transform="matrix(1.3333,0,0,1.3333,0,0) translate(5,5)"
       style="fill-opacity:0.502; fill:rgb(192,192,192); text-rendering:geometricPrecision; font-family:sans-serif; shape-rendering:crispEdges; stroke:rgb(192,192,192); font-weight:bold; stroke-width:2; stroke-opacity:0.502;"
       id="g58">
      <rect
         x="240"
         y="191"
         width="271"
         style="clip-path:url(#clipPath4); stroke:none;"
         height="102.4688"
         id="rect60"
         clip-path="url(#clipPath4)" />
      <rect
         x="240"
         y="191"
         width="271"
         style="fill:none; clip-path:url(#clipPath4);"
         height="102.4688"
         id="rect62"
         clip-path="url(#clipPath4)" />
    </g>
    <g
       transform="matrix(1.3333,0,0,1.3333,0,0)"
       style="fill:url(#linearGradient1); text-rendering:geometricPrecision; font-family:sans-serif; shape-rendering:crispEdges; stroke:url(#linearGradient1); font-weight:bold; stroke-width:2;"
       id="g64">
      <rect
         x="240"
         y="191"
         width="271"
         style="clip-path:url(#clipPath2); stroke:none;"
         height="102.4688"
         id="rect66"
         clip-path="url(#clipPath2)" />
      <rect
         x="240"
         y="191"
         width="271"
         style="clip-path:url(#clipPath2); fill:none; stroke:black;"
         height="102.4688"
         id="rect68"
         clip-path="url(#clipPath2)" />
    </g>
    <g
       style="text-rendering:optimizeLegibility; stroke-width:2; font-family:sans-serif;"
       transform="matrix(1.3333,0,0,1.3333,0,0) translate(250,278.875)"
       id="g70">
      <path
         d="M5.5156 -7.5312 L5.5156 -4.2656 L8.7812 -4.2656 L8.7812 -3.2656 L5.5156 -3.2656 L5.5156 0 L4.5312 0 L4.5312 -3.2656 L1.2656 -3.2656 L1.2656 -4.2656 L4.5312 -4.2656 L4.5312 -7.5312 L5.5156 -7.5312 ZM19.3223 -5.5625 L19.3223 -9.125 L20.4004 -9.125 L20.4004 0 L19.3223 0 L19.3223 -0.9844 Q18.9785 -0.4062 18.4629 -0.1172 Q17.9473 0.1719 17.2129 0.1719 Q16.0254 0.1719 15.2754 -0.7812 Q14.5254 -1.7344 14.5254 -3.2812 Q14.5254 -4.8281 15.2754 -5.7734 Q16.0254 -6.7188 17.2129 -6.7188 Q17.9473 -6.7188 18.4629 -6.4375 Q18.9785 -6.1562 19.3223 -5.5625 ZM15.6504 -3.2812 Q15.6504 -2.0938 16.1348 -1.4141 Q16.6191 -0.7344 17.4785 -0.7344 Q18.3379 -0.7344 18.8301 -1.4141 Q19.3223 -2.0938 19.3223 -3.2812 Q19.3223 -4.4688 18.8301 -5.1406 Q18.3379 -5.8125 17.4785 -5.8125 Q16.6191 -5.8125 16.1348 -5.1406 Q15.6504 -4.4688 15.6504 -3.2812 ZM28.2363 -3.5469 L28.2363 -3.0312 L23.2676 -3.0312 Q23.3457 -1.9062 23.9473 -1.3281 Q24.5488 -0.75 25.6113 -0.75 Q26.2363 -0.75 26.8223 -0.8984 Q27.4082 -1.0469 27.9863 -1.3594 L27.9863 -0.3281 Q27.3926 -0.0938 26.7832 0.0391 Q26.1738 0.1719 25.5488 0.1719 Q23.9863 0.1719 23.0645 -0.7422 Q22.1426 -1.6562 22.1426 -3.2188 Q22.1426 -4.8281 23.0176 -5.7734 Q23.8926 -6.7188 25.3613 -6.7188 Q26.6895 -6.7188 27.4629 -5.8672 Q28.2363 -5.0156 28.2363 -3.5469 ZM27.1582 -3.875 Q27.1426 -4.75 26.6582 -5.2812 Q26.1738 -5.8125 25.377 -5.8125 Q24.4707 -5.8125 23.9316 -5.2969 Q23.3926 -4.7812 23.3145 -3.8594 L27.1582 -3.875 ZM29.9941 -9.125 L31.0723 -9.125 L31.0723 0 L29.9941 0 L29.9941 -9.125 ZM38.9531 -3.5469 L38.9531 -3.0312 L33.9844 -3.0312 Q34.0625 -1.9062 34.6641 -1.3281 Q35.2656 -0.75 36.3281 -0.75 Q36.9531 -0.75 37.5391 -0.8984 Q38.125 -1.0469 38.7031 -1.3594 L38.7031 -0.3281 Q38.1094 -0.0938 37.5 0.0391 Q36.8906 0.1719 36.2656 0.1719 Q34.7031 0.1719 33.7812 -0.7422 Q32.8594 -1.6562 32.8594 -3.2188 Q32.8594 -4.8281 33.7344 -5.7734 Q34.6094 -6.7188 36.0781 -6.7188 Q37.4062 -6.7188 38.1797 -5.8672 Q38.9531 -5.0156 38.9531 -3.5469 ZM37.875 -3.875 Q37.8594 -4.75 37.375 -5.2812 Q36.8906 -5.8125 36.0938 -5.8125 Q35.1875 -5.8125 34.6484 -5.2969 Q34.1094 -4.7812 34.0312 -3.8594 L37.875 -3.875 ZM41.7891 -8.4219 L41.7891 -6.5625 L44.0078 -6.5625 L44.0078 -5.7188 L41.7891 -5.7188 L41.7891 -2.1562 Q41.7891 -1.3594 42.0078 -1.1328 Q42.2266 -0.9062 42.8984 -0.9062 L44.0078 -0.9062 L44.0078 0 L42.8984 0 Q41.6484 0 41.1719 -0.4688 Q40.6953 -0.9375 40.6953 -2.1562 L40.6953 -5.7188 L39.9141 -5.7188 L39.9141 -6.5625 L40.6953 -6.5625 L40.6953 -8.4219 L41.7891 -8.4219 ZM51.041 -3.5469 L51.041 -3.0312 L46.0723 -3.0312 Q46.1504 -1.9062 46.752 -1.3281 Q47.3535 -0.75 48.416 -0.75 Q49.041 -0.75 49.627 -0.8984 Q50.2129 -1.0469 50.791 -1.3594 L50.791 -0.3281 Q50.1973 -0.0938 49.5879 0.0391 Q48.9785 0.1719 48.3535 0.1719 Q46.791 0.1719 45.8691 -0.7422 Q44.9473 -1.6562 44.9473 -3.2188 Q44.9473 -4.8281 45.8223 -5.7734 Q46.6973 -6.7188 48.166 -6.7188 Q49.4941 -6.7188 50.2676 -5.8672 Q51.041 -5.0156 51.041 -3.5469 ZM49.9629 -3.875 Q49.9473 -4.75 49.4629 -5.2812 Q48.9785 -5.8125 48.1816 -5.8125 Q47.2754 -5.8125 46.7363 -5.2969 Q46.1973 -4.7812 46.1191 -3.8594 L49.9629 -3.875 ZM55.7832 -7.5781 L54.1738 -3.2344 L57.3926 -3.2344 L55.7832 -7.5781 ZM55.1113 -8.75 L56.4551 -8.75 L59.7832 0 L58.5488 0 L57.752 -2.25 L53.8145 -2.25 L53.0176 0 L51.7676 0 L55.1113 -8.75 ZM65.7422 -6.3125 L65.7422 -5.2969 Q65.2734 -5.5625 64.8203 -5.6875 Q64.3672 -5.8125 63.8984 -5.8125 Q62.8359 -5.8125 62.2578 -5.1484 Q61.6797 -4.4844 61.6797 -3.2812 Q61.6797 -2.0781 62.2578 -1.4141 Q62.8359 -0.75 63.8984 -0.75 Q64.3672 -0.75 64.8203 -0.875 Q65.2734 -1 65.7422 -1.25 L65.7422 -0.25 Q65.2891 -0.0469 64.8047 0.0625 Q64.3203 0.1719 63.7734 0.1719 Q62.2891 0.1719 61.4141 -0.7578 Q60.5391 -1.6875 60.5391 -3.2812 Q60.5391 -4.875 61.4219 -5.7969 Q62.3047 -6.7188 63.8516 -6.7188 Q64.3359 -6.7188 64.8125 -6.6172 Q65.2891 -6.5156 65.7422 -6.3125 ZM72.3398 -6.3125 L72.3398 -5.2969 Q71.8711 -5.5625 71.418 -5.6875 Q70.9648 -5.8125 70.4961 -5.8125 Q69.4336 -5.8125 68.8555 -5.1484 Q68.2773 -4.4844 68.2773 -3.2812 Q68.2773 -2.0781 68.8555 -1.4141 Q69.4336 -0.75 70.4961 -0.75 Q70.9648 -0.75 71.418 -0.875 Q71.8711 -1 72.3398 -1.25 L72.3398 -0.25 Q71.8867 -0.0469 71.4023 0.0625 Q70.918 0.1719 70.3711 0.1719 Q68.8867 0.1719 68.0117 -0.7578 Q67.1367 -1.6875 67.1367 -3.2812 Q67.1367 -4.875 68.0195 -5.7969 Q68.9023 -6.7188 70.4492 -6.7188 Q70.9336 -6.7188 71.4102 -6.6172 Q71.8867 -6.5156 72.3398 -6.3125 ZM79.8281 -3.5469 L79.8281 -3.0312 L74.8594 -3.0312 Q74.9375 -1.9062 75.5391 -1.3281 Q76.1406 -0.75 77.2031 -0.75 Q77.8281 -0.75 78.4141 -0.8984 Q79 -1.0469 79.5781 -1.3594 L79.5781 -0.3281 Q78.9844 -0.0938 78.375 0.0391 Q77.7656 0.1719 77.1406 0.1719 Q75.5781 0.1719 74.6562 -0.7422 Q73.7344 -1.6562 73.7344 -3.2188 Q73.7344 -4.8281 74.6094 -5.7734 Q75.4844 -6.7188 76.9531 -6.7188 Q78.2812 -6.7188 79.0547 -5.8672 Q79.8281 -5.0156 79.8281 -3.5469 ZM78.75 -3.875 Q78.7344 -4.75 78.25 -5.2812 Q77.7656 -5.8125 76.9688 -5.8125 Q76.0625 -5.8125 75.5234 -5.2969 Q74.9844 -4.7812 74.9062 -3.8594 L78.75 -3.875 ZM85.7734 -6.375 L85.7734 -5.3438 Q85.3203 -5.5781 84.8281 -5.6953 Q84.3359 -5.8125 83.8047 -5.8125 Q83.0078 -5.8125 82.6016 -5.5703 Q82.1953 -5.3281 82.1953 -4.8281 Q82.1953 -4.4531 82.4844 -4.2422 Q82.7734 -4.0312 83.6484 -3.8438 L84.0078 -3.75 Q85.1641 -3.5156 85.6484 -3.0625 Q86.1328 -2.6094 86.1328 -1.8125 Q86.1328 -0.8906 85.4062 -0.3594 Q84.6797 0.1719 83.4141 0.1719 Q82.8828 0.1719 82.3125 0.0703 Q81.7422 -0.0312 81.1172 -0.2344 L81.1172 -1.3594 Q81.7109 -1.0469 82.2891 -0.8906 Q82.8672 -0.7344 83.4453 -0.7344 Q84.1953 -0.7344 84.6094 -0.9922 Q85.0234 -1.25 85.0234 -1.7344 Q85.0234 -2.1719 84.7266 -2.4062 Q84.4297 -2.6406 83.4297 -2.8594 L83.0547 -2.9375 Q82.0547 -3.1562 81.6094 -3.5938 Q81.1641 -4.0312 81.1641 -4.7812 Q81.1641 -5.7188 81.8203 -6.2188 Q82.4766 -6.7188 83.6797 -6.7188 Q84.2734 -6.7188 84.8047 -6.6328 Q85.3359 -6.5469 85.7734 -6.375 ZM92.0254 -6.375 L92.0254 -5.3438 Q91.5723 -5.5781 91.0801 -5.6953 Q90.5879 -5.8125 90.0566 -5.8125 Q89.2598 -5.8125 88.8535 -5.5703 Q88.4473 -5.3281 88.4473 -4.8281 Q88.4473 -4.4531 88.7363 -4.2422 Q89.0254 -4.0312 89.9004 -3.8438 L90.2598 -3.75 Q91.416 -3.5156 91.9004 -3.0625 Q92.3848 -2.6094 92.3848 -1.8125 Q92.3848 -0.8906 91.6582 -0.3594 Q90.9316 0.1719 89.666 0.1719 Q89.1348 0.1719 88.5645 0.0703 Q87.9941 -0.0312 87.3691 -0.2344 L87.3691 -1.3594 Q87.9629 -1.0469 88.541 -0.8906 Q89.1191 -0.7344 89.6973 -0.7344 Q90.4473 -0.7344 90.8613 -0.9922 Q91.2754 -1.25 91.2754 -1.7344 Q91.2754 -2.1719 90.9785 -2.4062 Q90.6816 -2.6406 89.6816 -2.8594 L89.3066 -2.9375 Q88.3066 -3.1562 87.8613 -3.5938 Q87.416 -4.0312 87.416 -4.7812 Q87.416 -5.7188 88.0723 -6.2188 Q88.7285 -6.7188 89.9316 -6.7188 Q90.5254 -6.7188 91.0566 -6.6328 Q91.5879 -6.5469 92.0254 -6.375 ZM92.9336 -8.75 L100.3242 -8.75 L100.3242 -7.75 L97.2305 -7.75 L97.2305 0 L96.043 0 L96.043 -7.75 L92.9336 -7.75 L92.9336 -8.75 ZM103.9668 -5.8125 Q103.1074 -5.8125 102.5996 -5.1328 Q102.0918 -4.4531 102.0918 -3.2812 Q102.0918 -2.0938 102.5918 -1.4219 Q103.0918 -0.75 103.9668 -0.75 Q104.8262 -0.75 105.334 -1.4297 Q105.8418 -2.1094 105.8418 -3.2812 Q105.8418 -4.4375 105.334 -5.125 Q104.8262 -5.8125 103.9668 -5.8125 ZM103.9668 -6.7188 Q105.373 -6.7188 106.1777 -5.8047 Q106.9824 -4.8906 106.9824 -3.2812 Q106.9824 -1.6719 106.1777 -0.75 Q105.373 0.1719 103.9668 0.1719 Q102.5605 0.1719 101.7559 -0.75 Q100.9512 -1.6719 100.9512 -3.2812 Q100.9512 -4.8906 101.7559 -5.8047 Q102.5605 -6.7188 103.9668 -6.7188 ZM108.7305 -9.125 L109.8086 -9.125 L109.8086 -3.7344 L113.0273 -6.5625 L114.4023 -6.5625 L110.918 -3.5 L114.5586 0 L113.1523 0 L109.8086 -3.2031 L109.8086 0 L108.7305 0 L108.7305 -9.125 ZM121.3359 -3.5469 L121.3359 -3.0312 L116.3672 -3.0312 Q116.4453 -1.9062 117.0469 -1.3281 Q117.6484 -0.75 118.7109 -0.75 Q119.3359 -0.75 119.9219 -0.8984 Q120.5078 -1.0469 121.0859 -1.3594 L121.0859 -0.3281 Q120.4922 -0.0938 119.8828 0.0391 Q119.2734 0.1719 118.6484 0.1719 Q117.0859 0.1719 116.1641 -0.7422 Q115.2422 -1.6562 115.2422 -3.2188 Q115.2422 -4.8281 116.1172 -5.7734 Q116.9922 -6.7188 118.4609 -6.7188 Q119.7891 -6.7188 120.5625 -5.8672 Q121.3359 -5.0156 121.3359 -3.5469 ZM120.2578 -3.875 Q120.2422 -4.75 119.7578 -5.2812 Q119.2734 -5.8125 118.4766 -5.8125 Q117.5703 -5.8125 117.0312 -5.2969 Q116.4922 -4.7812 116.4141 -3.8594 L120.2578 -3.875 ZM128.5625 -3.9688 L128.5625 0 L127.4844 0 L127.4844 -3.9219 Q127.4844 -4.8594 127.1172 -5.3203 Q126.75 -5.7812 126.0312 -5.7812 Q125.1562 -5.7812 124.6484 -5.2266 Q124.1406 -4.6719 124.1406 -3.7031 L124.1406 0 L123.0625 0 L123.0625 -6.5625 L124.1406 -6.5625 L124.1406 -5.5469 Q124.5312 -6.1406 125.0547 -6.4297 Q125.5781 -6.7188 126.2656 -6.7188 Q127.3906 -6.7188 127.9766 -6.0234 Q128.5625 -5.3281 128.5625 -3.9688 ZM133.293 -9.1094 Q132.5117 -7.7656 132.1289 -6.4453 Q131.7461 -5.125 131.7461 -3.7656 Q131.7461 -2.4219 132.1289 -1.0938 Q132.5117 0.2344 133.293 1.5781 L132.3555 1.5781 Q131.4805 0.2031 131.043 -1.125 Q130.6055 -2.4531 130.6055 -3.7656 Q130.6055 -5.0781 131.043 -6.3984 Q131.4805 -7.7188 132.3555 -9.1094 L133.293 -9.1094 ZM135.3809 -6.5625 L136.459 -6.5625 L136.459 0 L135.3809 0 L135.3809 -6.5625 ZM135.3809 -9.125 L136.459 -9.125 L136.459 -7.75 L135.3809 -7.75 L135.3809 -9.125 ZM143.043 -5.5625 L143.043 -9.125 L144.1211 -9.125 L144.1211 0 L143.043 0 L143.043 -0.9844 Q142.6992 -0.4062 142.1836 -0.1172 Q141.668 0.1719 140.9336 0.1719 Q139.7461 0.1719 138.9961 -0.7812 Q138.2461 -1.7344 138.2461 -3.2812 Q138.2461 -4.8281 138.9961 -5.7734 Q139.7461 -6.7188 140.9336 -6.7188 Q141.668 -6.7188 142.1836 -6.4375 Q142.6992 -6.1562 143.043 -5.5625 ZM139.3711 -3.2812 Q139.3711 -2.0938 139.8555 -1.4141 Q140.3398 -0.7344 141.1992 -0.7344 Q142.0586 -0.7344 142.5508 -1.4141 Q143.043 -2.0938 143.043 -3.2812 Q143.043 -4.4688 142.5508 -5.1406 Q142.0586 -5.8125 141.1992 -5.8125 Q140.3398 -5.8125 139.8555 -5.1406 Q139.3711 -4.4688 139.3711 -3.2812 ZM146.2539 -8.75 L147.4414 -8.75 L147.4414 -3.4375 Q147.4414 -2.0312 147.9492 -1.4141 Q148.457 -0.7969 149.5977 -0.7969 Q150.7383 -0.7969 151.2461 -1.4141 Q151.7539 -2.0312 151.7539 -3.4375 L151.7539 -8.75 L152.9414 -8.75 L152.9414 -3.2812 Q152.9414 -1.5781 152.0977 -0.7031 Q151.2539 0.1719 149.5977 0.1719 Q147.9414 0.1719 147.0977 -0.7031 Q146.2539 -1.5781 146.2539 -3.2812 L146.2539 -8.75 ZM159.3027 -6.375 L159.3027 -5.3438 Q158.8496 -5.5781 158.3574 -5.6953 Q157.8652 -5.8125 157.334 -5.8125 Q156.5371 -5.8125 156.1309 -5.5703 Q155.7246 -5.3281 155.7246 -4.8281 Q155.7246 -4.4531 156.0137 -4.2422 Q156.3027 -4.0312 157.1777 -3.8438 L157.5371 -3.75 Q158.6934 -3.5156 159.1777 -3.0625 Q159.6621 -2.6094 159.6621 -1.8125 Q159.6621 -0.8906 158.9355 -0.3594 Q158.209 0.1719 156.9434 0.1719 Q156.4121 0.1719 155.8418 0.0703 Q155.2715 -0.0312 154.6465 -0.2344 L154.6465 -1.3594 Q155.2402 -1.0469 155.8184 -0.8906 Q156.3965 -0.7344 156.9746 -0.7344 Q157.7246 -0.7344 158.1387 -0.9922 Q158.5527 -1.25 158.5527 -1.7344 Q158.5527 -2.1719 158.2559 -2.4062 Q157.959 -2.6406 156.959 -2.8594 L156.584 -2.9375 Q155.584 -3.1562 155.1387 -3.5938 Q154.6934 -4.0312 154.6934 -4.7812 Q154.6934 -5.7188 155.3496 -6.2188 Q156.0059 -6.7188 157.209 -6.7188 Q157.8027 -6.7188 158.334 -6.6328 Q158.8652 -6.5469 159.3027 -6.375 ZM166.9922 -3.5469 L166.9922 -3.0312 L162.0234 -3.0312 Q162.1016 -1.9062 162.7031 -1.3281 Q163.3047 -0.75 164.3672 -0.75 Q164.9922 -0.75 165.5781 -0.8984 Q166.1641 -1.0469 166.7422 -1.3594 L166.7422 -0.3281 Q166.1484 -0.0938 165.5391 0.0391 Q164.9297 0.1719 164.3047 0.1719 Q162.7422 0.1719 161.8203 -0.7422 Q160.8984 -1.6562 160.8984 -3.2188 Q160.8984 -4.8281 161.7734 -5.7734 Q162.6484 -6.7188 164.1172 -6.7188 Q165.4453 -6.7188 166.2188 -5.8672 Q166.9922 -5.0156 166.9922 -3.5469 ZM165.9141 -3.875 Q165.8984 -4.75 165.4141 -5.2812 Q164.9297 -5.8125 164.1328 -5.8125 Q163.2266 -5.8125 162.6875 -5.2969 Q162.1484 -4.7812 162.0703 -3.8594 L165.9141 -3.875 ZM172.5625 -5.5625 Q172.375 -5.6562 172.1641 -5.7109 Q171.9531 -5.7656 171.6875 -5.7656 Q170.7812 -5.7656 170.2891 -5.1719 Q169.7969 -4.5781 169.7969 -3.4531 L169.7969 0 L168.7188 0 L168.7188 -6.5625 L169.7969 -6.5625 L169.7969 -5.5469 Q170.1406 -6.1406 170.6875 -6.4297 Q171.2344 -6.7188 172.0156 -6.7188 Q172.125 -6.7188 172.2578 -6.7031 Q172.3906 -6.6875 172.5469 -6.6562 L172.5625 -5.5625 ZM177.7793 -1.4844 L179.0137 -1.4844 L179.0137 0 L177.7793 0 L177.7793 -1.4844 ZM177.7793 -6.2031 L179.0137 -6.2031 L179.0137 -4.7188 L177.7793 -4.7188 L177.7793 -6.2031 ZM185.3555 -6.5625 L186.4336 -6.5625 L186.4336 0 L185.3555 0 L185.3555 -6.5625 ZM185.3555 -9.125 L186.4336 -9.125 L186.4336 -7.75 L185.3555 -7.75 L185.3555 -9.125 ZM194.1582 -3.9688 L194.1582 0 L193.0801 0 L193.0801 -3.9219 Q193.0801 -4.8594 192.7129 -5.3203 Q192.3457 -5.7812 191.627 -5.7812 Q190.752 -5.7812 190.2441 -5.2266 Q189.7363 -4.6719 189.7363 -3.7031 L189.7363 0 L188.6582 0 L188.6582 -6.5625 L189.7363 -6.5625 L189.7363 -5.5469 Q190.127 -6.1406 190.6504 -6.4297 Q191.1738 -6.7188 191.8613 -6.7188 Q192.9863 -6.7188 193.5723 -6.0234 Q194.1582 -5.3281 194.1582 -3.9688 ZM197.373 -8.4219 L197.373 -6.5625 L199.5918 -6.5625 L199.5918 -5.7188 L197.373 -5.7188 L197.373 -2.1562 Q197.373 -1.3594 197.5918 -1.1328 Q197.8105 -0.9062 198.4824 -0.9062 L199.5918 -0.9062 L199.5918 0 L198.4824 0 Q197.2324 0 196.7559 -0.4688 Q196.2793 -0.9375 196.2793 -2.1562 L196.2793 -5.7188 L195.498 -5.7188 L195.498 -6.5625 L196.2793 -6.5625 L196.2793 -8.4219 L197.373 -8.4219 ZM200.8438 -9.1094 L201.7812 -9.1094 Q202.6562 -7.7188 203.0938 -6.3984 Q203.5312 -5.0781 203.5312 -3.7656 Q203.5312 -2.4531 203.0938 -1.125 Q202.6562 0.2031 201.7812 1.5781 L200.8438 1.5781 Q201.6094 0.2344 202 -1.0938 Q202.3906 -2.4219 202.3906 -3.7656 Q202.3906 -5.125 202 -6.4453 Q201.6094 -7.7656 200.8438 -9.1094 ZM209.7773 -1.4844 L211.0117 -1.4844 L211.0117 0 L209.7773 0 L209.7773 -1.4844 ZM209.7773 -6.2031 L211.0117 -6.2031 L211.0117 -4.7188 L209.7773 -4.7188 L209.7773 -6.2031 ZM216.5879 -6.5625 L217.7285 -6.5625 L219.7754 -1.0625 L221.8379 -6.5625 L222.9785 -6.5625 L220.5098 0 L219.041 0 L216.5879 -6.5625 ZM227.002 -5.8125 Q226.1426 -5.8125 225.6348 -5.1328 Q225.127 -4.4531 225.127 -3.2812 Q225.127 -2.0938 225.627 -1.4219 Q226.127 -0.75 227.002 -0.75 Q227.8613 -0.75 228.3691 -1.4297 Q228.877 -2.1094 228.877 -3.2812 Q228.877 -4.4375 228.3691 -5.125 Q227.8613 -5.8125 227.002 -5.8125 ZM227.002 -6.7188 Q228.4082 -6.7188 229.2129 -5.8047 Q230.0176 -4.8906 230.0176 -3.2812 Q230.0176 -1.6719 229.2129 -0.75 Q228.4082 0.1719 227.002 0.1719 Q225.5957 0.1719 224.791 -0.75 Q223.9863 -1.6719 223.9863 -3.2812 Q223.9863 -4.8906 224.791 -5.8047 Q225.5957 -6.7188 227.002 -6.7188 ZM231.7969 -6.5625 L232.875 -6.5625 L232.875 0 L231.7969 0 L231.7969 -6.5625 ZM231.7969 -9.125 L232.875 -9.125 L232.875 -7.75 L231.7969 -7.75 L231.7969 -9.125 ZM239.459 -5.5625 L239.459 -9.125 L240.5371 -9.125 L240.5371 0 L239.459 0 L239.459 -0.9844 Q239.1152 -0.4062 238.5996 -0.1172 Q238.084 0.1719 237.3496 0.1719 Q236.1621 0.1719 235.4121 -0.7812 Q234.6621 -1.7344 234.6621 -3.2812 Q234.6621 -4.8281 235.4121 -5.7734 Q236.1621 -6.7188 237.3496 -6.7188 Q238.084 -6.7188 238.5996 -6.4375 Q239.1152 -6.1562 239.459 -5.5625 ZM235.7871 -3.2812 Q235.7871 -2.0938 236.2715 -1.4141 Q236.7559 -0.7344 237.6152 -0.7344 Q238.4746 -0.7344 238.9668 -1.4141 Q239.459 -2.0938 239.459 -3.2812 Q239.459 -4.4688 238.9668 -5.1406 Q238.4746 -5.8125 237.6152 -5.8125 Q236.7559 -5.8125 236.2715 -5.1406 Q235.7871 -4.4688 235.7871 -3.2812 Z"
         style="clip-path:url(#clipPath5); stroke:none;"
         id="path72"
         clip-path="url(#clipPath5)" />
    </g>
    <g
       style="text-rendering:optimizeLegibility; stroke-width:2; font-family:sans-serif;"
       transform="matrix(1.3333,0,0,1.3333,0,0) translate(250,264.9062)"
       id="g74">
      <path
         d="M5.5156 -7.5312 L5.5156 -4.2656 L8.7812 -4.2656 L8.7812 -3.2656 L5.5156 -3.2656 L5.5156 0 L4.5312 0 L4.5312 -3.2656 L1.2656 -3.2656 L1.2656 -4.2656 L4.5312 -4.2656 L4.5312 -7.5312 L5.5156 -7.5312 ZM19.3223 -3.3594 Q19.3223 -4.5312 18.8379 -5.1719 Q18.3535 -5.8125 17.4785 -5.8125 Q16.6191 -5.8125 16.1348 -5.1719 Q15.6504 -4.5312 15.6504 -3.3594 Q15.6504 -2.1875 16.1348 -1.5469 Q16.6191 -0.9062 17.4785 -0.9062 Q18.3535 -0.9062 18.8379 -1.5469 Q19.3223 -2.1875 19.3223 -3.3594 ZM20.4004 -0.8125 Q20.4004 0.8594 19.6582 1.6797 Q18.916 2.5 17.3691 2.5 Q16.8066 2.5 16.2988 2.4141 Q15.791 2.3281 15.3223 2.1562 L15.3223 1.1094 Q15.791 1.3594 16.2598 1.4844 Q16.7285 1.6094 17.1973 1.6094 Q18.2598 1.6094 18.791 1.0547 Q19.3223 0.5 19.3223 -0.625 L19.3223 -1.1562 Q18.9785 -0.5781 18.4629 -0.2891 Q17.9473 0 17.2129 0 Q16.0098 0 15.2676 -0.9219 Q14.5254 -1.8438 14.5254 -3.3594 Q14.5254 -4.875 15.2676 -5.7969 Q16.0098 -6.7188 17.2129 -6.7188 Q17.9473 -6.7188 18.4629 -6.4297 Q18.9785 -6.1406 19.3223 -5.5625 L19.3223 -6.5625 L20.4004 -6.5625 L20.4004 -0.8125 ZM28.2363 -3.5469 L28.2363 -3.0312 L23.2676 -3.0312 Q23.3457 -1.9062 23.9473 -1.3281 Q24.5488 -0.75 25.6113 -0.75 Q26.2363 -0.75 26.8223 -0.8984 Q27.4082 -1.0469 27.9863 -1.3594 L27.9863 -0.3281 Q27.3926 -0.0938 26.7832 0.0391 Q26.1738 0.1719 25.5488 0.1719 Q23.9863 0.1719 23.0645 -0.7422 Q22.1426 -1.6562 22.1426 -3.2188 Q22.1426 -4.8281 23.0176 -5.7734 Q23.8926 -6.7188 25.3613 -6.7188 Q26.6895 -6.7188 27.4629 -5.8672 Q28.2363 -5.0156 28.2363 -3.5469 ZM27.1582 -3.875 Q27.1426 -4.75 26.6582 -5.2812 Q26.1738 -5.8125 25.377 -5.8125 Q24.4707 -5.8125 23.9316 -5.2969 Q23.3926 -4.7812 23.3145 -3.8594 L27.1582 -3.875 ZM31.0723 -8.4219 L31.0723 -6.5625 L33.291 -6.5625 L33.291 -5.7188 L31.0723 -5.7188 L31.0723 -2.1562 Q31.0723 -1.3594 31.291 -1.1328 Q31.5098 -0.9062 32.1816 -0.9062 L33.291 -0.9062 L33.291 0 L32.1816 0 Q30.9316 0 30.4551 -0.4688 Q29.9785 -0.9375 29.9785 -2.1562 L29.9785 -5.7188 L29.1973 -5.7188 L29.1973 -6.5625 L29.9785 -6.5625 L29.9785 -8.4219 L31.0723 -8.4219 ZM37.6836 -7.5781 L36.0742 -3.2344 L39.293 -3.2344 L37.6836 -7.5781 ZM37.0117 -8.75 L38.3555 -8.75 L41.6836 0 L40.4492 0 L39.6523 -2.25 L35.7148 -2.25 L34.918 0 L33.668 0 L37.0117 -8.75 ZM47.6426 -6.3125 L47.6426 -5.2969 Q47.1738 -5.5625 46.7207 -5.6875 Q46.2676 -5.8125 45.7988 -5.8125 Q44.7363 -5.8125 44.1582 -5.1484 Q43.5801 -4.4844 43.5801 -3.2812 Q43.5801 -2.0781 44.1582 -1.4141 Q44.7363 -0.75 45.7988 -0.75 Q46.2676 -0.75 46.7207 -0.875 Q47.1738 -1 47.6426 -1.25 L47.6426 -0.25 Q47.1895 -0.0469 46.7051 0.0625 Q46.2207 0.1719 45.6738 0.1719 Q44.1895 0.1719 43.3145 -0.7578 Q42.4395 -1.6875 42.4395 -3.2812 Q42.4395 -4.875 43.3223 -5.7969 Q44.2051 -6.7188 45.752 -6.7188 Q46.2363 -6.7188 46.7129 -6.6172 Q47.1895 -6.5156 47.6426 -6.3125 ZM54.2402 -6.3125 L54.2402 -5.2969 Q53.7715 -5.5625 53.3184 -5.6875 Q52.8652 -5.8125 52.3965 -5.8125 Q51.334 -5.8125 50.7559 -5.1484 Q50.1777 -4.4844 50.1777 -3.2812 Q50.1777 -2.0781 50.7559 -1.4141 Q51.334 -0.75 52.3965 -0.75 Q52.8652 -0.75 53.3184 -0.875 Q53.7715 -1 54.2402 -1.25 L54.2402 -0.25 Q53.7871 -0.0469 53.3027 0.0625 Q52.8184 0.1719 52.2715 0.1719 Q50.7871 0.1719 49.9121 -0.7578 Q49.0371 -1.6875 49.0371 -3.2812 Q49.0371 -4.875 49.9199 -5.7969 Q50.8027 -6.7188 52.3496 -6.7188 Q52.834 -6.7188 53.3105 -6.6172 Q53.7871 -6.5156 54.2402 -6.3125 ZM61.7285 -3.5469 L61.7285 -3.0312 L56.7598 -3.0312 Q56.8379 -1.9062 57.4395 -1.3281 Q58.041 -0.75 59.1035 -0.75 Q59.7285 -0.75 60.3145 -0.8984 Q60.9004 -1.0469 61.4785 -1.3594 L61.4785 -0.3281 Q60.8848 -0.0938 60.2754 0.0391 Q59.666 0.1719 59.041 0.1719 Q57.4785 0.1719 56.5566 -0.7422 Q55.6348 -1.6562 55.6348 -3.2188 Q55.6348 -4.8281 56.5098 -5.7734 Q57.3848 -6.7188 58.8535 -6.7188 Q60.1816 -6.7188 60.9551 -5.8672 Q61.7285 -5.0156 61.7285 -3.5469 ZM60.6504 -3.875 Q60.6348 -4.75 60.1504 -5.2812 Q59.666 -5.8125 58.8691 -5.8125 Q57.9629 -5.8125 57.4238 -5.2969 Q56.8848 -4.7812 56.8066 -3.8594 L60.6504 -3.875 ZM67.6738 -6.375 L67.6738 -5.3438 Q67.2207 -5.5781 66.7285 -5.6953 Q66.2363 -5.8125 65.7051 -5.8125 Q64.9082 -5.8125 64.502 -5.5703 Q64.0957 -5.3281 64.0957 -4.8281 Q64.0957 -4.4531 64.3848 -4.2422 Q64.6738 -4.0312 65.5488 -3.8438 L65.9082 -3.75 Q67.0645 -3.5156 67.5488 -3.0625 Q68.0332 -2.6094 68.0332 -1.8125 Q68.0332 -0.8906 67.3066 -0.3594 Q66.5801 0.1719 65.3145 0.1719 Q64.7832 0.1719 64.2129 0.0703 Q63.6426 -0.0312 63.0176 -0.2344 L63.0176 -1.3594 Q63.6113 -1.0469 64.1895 -0.8906 Q64.7676 -0.7344 65.3457 -0.7344 Q66.0957 -0.7344 66.5098 -0.9922 Q66.9238 -1.25 66.9238 -1.7344 Q66.9238 -2.1719 66.627 -2.4062 Q66.3301 -2.6406 65.3301 -2.8594 L64.9551 -2.9375 Q63.9551 -3.1562 63.5098 -3.5938 Q63.0645 -4.0312 63.0645 -4.7812 Q63.0645 -5.7188 63.7207 -6.2188 Q64.377 -6.7188 65.5801 -6.7188 Q66.1738 -6.7188 66.7051 -6.6328 Q67.2363 -6.5469 67.6738 -6.375 ZM73.9258 -6.375 L73.9258 -5.3438 Q73.4727 -5.5781 72.9805 -5.6953 Q72.4883 -5.8125 71.957 -5.8125 Q71.1602 -5.8125 70.7539 -5.5703 Q70.3477 -5.3281 70.3477 -4.8281 Q70.3477 -4.4531 70.6367 -4.2422 Q70.9258 -4.0312 71.8008 -3.8438 L72.1602 -3.75 Q73.3164 -3.5156 73.8008 -3.0625 Q74.2852 -2.6094 74.2852 -1.8125 Q74.2852 -0.8906 73.5586 -0.3594 Q72.832 0.1719 71.5664 0.1719 Q71.0352 0.1719 70.4648 0.0703 Q69.8945 -0.0312 69.2695 -0.2344 L69.2695 -1.3594 Q69.8633 -1.0469 70.4414 -0.8906 Q71.0195 -0.7344 71.5977 -0.7344 Q72.3477 -0.7344 72.7617 -0.9922 Q73.1758 -1.25 73.1758 -1.7344 Q73.1758 -2.1719 72.8789 -2.4062 Q72.582 -2.6406 71.582 -2.8594 L71.207 -2.9375 Q70.207 -3.1562 69.7617 -3.5938 Q69.3164 -4.0312 69.3164 -4.7812 Q69.3164 -5.7188 69.9727 -6.2188 Q70.6289 -6.7188 71.832 -6.7188 Q72.4258 -6.7188 72.957 -6.6328 Q73.4883 -6.5469 73.9258 -6.375 ZM74.834 -8.75 L82.2246 -8.75 L82.2246 -7.75 L79.1309 -7.75 L79.1309 0 L77.9434 0 L77.9434 -7.75 L74.834 -7.75 L74.834 -8.75 ZM85.8672 -5.8125 Q85.0078 -5.8125 84.5 -5.1328 Q83.9922 -4.4531 83.9922 -3.2812 Q83.9922 -2.0938 84.4922 -1.4219 Q84.9922 -0.75 85.8672 -0.75 Q86.7266 -0.75 87.2344 -1.4297 Q87.7422 -2.1094 87.7422 -3.2812 Q87.7422 -4.4375 87.2344 -5.125 Q86.7266 -5.8125 85.8672 -5.8125 ZM85.8672 -6.7188 Q87.2734 -6.7188 88.0781 -5.8047 Q88.8828 -4.8906 88.8828 -3.2812 Q88.8828 -1.6719 88.0781 -0.75 Q87.2734 0.1719 85.8672 0.1719 Q84.4609 0.1719 83.6562 -0.75 Q82.8516 -1.6719 82.8516 -3.2812 Q82.8516 -4.8906 83.6562 -5.8047 Q84.4609 -6.7188 85.8672 -6.7188 ZM90.6309 -9.125 L91.709 -9.125 L91.709 -3.7344 L94.9277 -6.5625 L96.3027 -6.5625 L92.8184 -3.5 L96.459 0 L95.0527 0 L91.709 -3.2031 L91.709 0 L90.6309 0 L90.6309 -9.125 ZM103.2363 -3.5469 L103.2363 -3.0312 L98.2676 -3.0312 Q98.3457 -1.9062 98.9473 -1.3281 Q99.5488 -0.75 100.6113 -0.75 Q101.2363 -0.75 101.8223 -0.8984 Q102.4082 -1.0469 102.9863 -1.3594 L102.9863 -0.3281 Q102.3926 -0.0938 101.7832 0.0391 Q101.1738 0.1719 100.5488 0.1719 Q98.9863 0.1719 98.0645 -0.7422 Q97.1426 -1.6562 97.1426 -3.2188 Q97.1426 -4.8281 98.0176 -5.7734 Q98.8926 -6.7188 100.3613 -6.7188 Q101.6895 -6.7188 102.4629 -5.8672 Q103.2363 -5.0156 103.2363 -3.5469 ZM102.1582 -3.875 Q102.1426 -4.75 101.6582 -5.2812 Q101.1738 -5.8125 100.377 -5.8125 Q99.4707 -5.8125 98.9316 -5.2969 Q98.3926 -4.7812 98.3145 -3.8594 L102.1582 -3.875 ZM110.4629 -3.9688 L110.4629 0 L109.3848 0 L109.3848 -3.9219 Q109.3848 -4.8594 109.0176 -5.3203 Q108.6504 -5.7812 107.9316 -5.7812 Q107.0566 -5.7812 106.5488 -5.2266 Q106.041 -4.6719 106.041 -3.7031 L106.041 0 L104.9629 0 L104.9629 -6.5625 L106.041 -6.5625 L106.041 -5.5469 Q106.4316 -6.1406 106.9551 -6.4297 Q107.4785 -6.7188 108.166 -6.7188 Q109.291 -6.7188 109.877 -6.0234 Q110.4629 -5.3281 110.4629 -3.9688 ZM115.1934 -9.1094 Q114.4121 -7.7656 114.0293 -6.4453 Q113.6465 -5.125 113.6465 -3.7656 Q113.6465 -2.4219 114.0293 -1.0938 Q114.4121 0.2344 115.1934 1.5781 L114.2559 1.5781 Q113.3809 0.2031 112.9434 -1.125 Q112.5059 -2.4531 112.5059 -3.7656 Q112.5059 -5.0781 112.9434 -6.3984 Q113.3809 -7.7188 114.2559 -9.1094 L115.1934 -9.1094 ZM117.2812 -6.5625 L118.3594 -6.5625 L118.3594 0 L117.2812 0 L117.2812 -6.5625 ZM117.2812 -9.125 L118.3594 -9.125 L118.3594 -7.75 L117.2812 -7.75 L117.2812 -9.125 ZM124.9434 -5.5625 L124.9434 -9.125 L126.0215 -9.125 L126.0215 0 L124.9434 0 L124.9434 -0.9844 Q124.5996 -0.4062 124.084 -0.1172 Q123.5684 0.1719 122.834 0.1719 Q121.6465 0.1719 120.8965 -0.7812 Q120.1465 -1.7344 120.1465 -3.2812 Q120.1465 -4.8281 120.8965 -5.7734 Q121.6465 -6.7188 122.834 -6.7188 Q123.5684 -6.7188 124.084 -6.4375 Q124.5996 -6.1562 124.9434 -5.5625 ZM121.2715 -3.2812 Q121.2715 -2.0938 121.7559 -1.4141 Q122.2402 -0.7344 123.0996 -0.7344 Q123.959 -0.7344 124.4512 -1.4141 Q124.9434 -2.0938 124.9434 -3.2812 Q124.9434 -4.4688 124.4512 -5.1406 Q123.959 -5.8125 123.0996 -5.8125 Q122.2402 -5.8125 121.7559 -5.1406 Q121.2715 -4.4688 121.2715 -3.2812 ZM128.1543 -8.75 L129.3418 -8.75 L129.3418 -3.4375 Q129.3418 -2.0312 129.8496 -1.4141 Q130.3574 -0.7969 131.498 -0.7969 Q132.6387 -0.7969 133.1465 -1.4141 Q133.6543 -2.0312 133.6543 -3.4375 L133.6543 -8.75 L134.8418 -8.75 L134.8418 -3.2812 Q134.8418 -1.5781 133.998 -0.7031 Q133.1543 0.1719 131.498 0.1719 Q129.8418 0.1719 128.998 -0.7031 Q128.1543 -1.5781 128.1543 -3.2812 L128.1543 -8.75 ZM141.2031 -6.375 L141.2031 -5.3438 Q140.75 -5.5781 140.2578 -5.6953 Q139.7656 -5.8125 139.2344 -5.8125 Q138.4375 -5.8125 138.0312 -5.5703 Q137.625 -5.3281 137.625 -4.8281 Q137.625 -4.4531 137.9141 -4.2422 Q138.2031 -4.0312 139.0781 -3.8438 L139.4375 -3.75 Q140.5938 -3.5156 141.0781 -3.0625 Q141.5625 -2.6094 141.5625 -1.8125 Q141.5625 -0.8906 140.8359 -0.3594 Q140.1094 0.1719 138.8438 0.1719 Q138.3125 0.1719 137.7422 0.0703 Q137.1719 -0.0312 136.5469 -0.2344 L136.5469 -1.3594 Q137.1406 -1.0469 137.7188 -0.8906 Q138.2969 -0.7344 138.875 -0.7344 Q139.625 -0.7344 140.0391 -0.9922 Q140.4531 -1.25 140.4531 -1.7344 Q140.4531 -2.1719 140.1562 -2.4062 Q139.8594 -2.6406 138.8594 -2.8594 L138.4844 -2.9375 Q137.4844 -3.1562 137.0391 -3.5938 Q136.5938 -4.0312 136.5938 -4.7812 Q136.5938 -5.7188 137.25 -6.2188 Q137.9062 -6.7188 139.1094 -6.7188 Q139.7031 -6.7188 140.2344 -6.6328 Q140.7656 -6.5469 141.2031 -6.375 ZM148.8926 -3.5469 L148.8926 -3.0312 L143.9238 -3.0312 Q144.002 -1.9062 144.6035 -1.3281 Q145.2051 -0.75 146.2676 -0.75 Q146.8926 -0.75 147.4785 -0.8984 Q148.0645 -1.0469 148.6426 -1.3594 L148.6426 -0.3281 Q148.0488 -0.0938 147.4395 0.0391 Q146.8301 0.1719 146.2051 0.1719 Q144.6426 0.1719 143.7207 -0.7422 Q142.7988 -1.6562 142.7988 -3.2188 Q142.7988 -4.8281 143.6738 -5.7734 Q144.5488 -6.7188 146.0176 -6.7188 Q147.3457 -6.7188 148.1191 -5.8672 Q148.8926 -5.0156 148.8926 -3.5469 ZM147.8145 -3.875 Q147.7988 -4.75 147.3145 -5.2812 Q146.8301 -5.8125 146.0332 -5.8125 Q145.127 -5.8125 144.5879 -5.2969 Q144.0488 -4.7812 143.9707 -3.8594 L147.8145 -3.875 ZM154.4629 -5.5625 Q154.2754 -5.6562 154.0645 -5.7109 Q153.8535 -5.7656 153.5879 -5.7656 Q152.6816 -5.7656 152.1895 -5.1719 Q151.6973 -4.5781 151.6973 -3.4531 L151.6973 0 L150.6191 0 L150.6191 -6.5625 L151.6973 -6.5625 L151.6973 -5.5469 Q152.041 -6.1406 152.5879 -6.4297 Q153.1348 -6.7188 153.916 -6.7188 Q154.0254 -6.7188 154.1582 -6.7031 Q154.291 -6.6875 154.4473 -6.6562 L154.4629 -5.5625 ZM159.6797 -1.4844 L160.9141 -1.4844 L160.9141 0 L159.6797 0 L159.6797 -1.4844 ZM159.6797 -6.2031 L160.9141 -6.2031 L160.9141 -4.7188 L159.6797 -4.7188 L159.6797 -6.2031 ZM167.2559 -6.5625 L168.334 -6.5625 L168.334 0 L167.2559 0 L167.2559 -6.5625 ZM167.2559 -9.125 L168.334 -9.125 L168.334 -7.75 L167.2559 -7.75 L167.2559 -9.125 ZM176.0586 -3.9688 L176.0586 0 L174.9805 0 L174.9805 -3.9219 Q174.9805 -4.8594 174.6133 -5.3203 Q174.2461 -5.7812 173.5273 -5.7812 Q172.6523 -5.7812 172.1445 -5.2266 Q171.6367 -4.6719 171.6367 -3.7031 L171.6367 0 L170.5586 0 L170.5586 -6.5625 L171.6367 -6.5625 L171.6367 -5.5469 Q172.0273 -6.1406 172.5508 -6.4297 Q173.0742 -6.7188 173.7617 -6.7188 Q174.8867 -6.7188 175.4727 -6.0234 Q176.0586 -5.3281 176.0586 -3.9688 ZM179.2734 -8.4219 L179.2734 -6.5625 L181.4922 -6.5625 L181.4922 -5.7188 L179.2734 -5.7188 L179.2734 -2.1562 Q179.2734 -1.3594 179.4922 -1.1328 Q179.7109 -0.9062 180.3828 -0.9062 L181.4922 -0.9062 L181.4922 0 L180.3828 0 Q179.1328 0 178.6562 -0.4688 Q178.1797 -0.9375 178.1797 -2.1562 L178.1797 -5.7188 L177.3984 -5.7188 L177.3984 -6.5625 L178.1797 -6.5625 L178.1797 -8.4219 L179.2734 -8.4219 ZM182.7441 -9.1094 L183.6816 -9.1094 Q184.5566 -7.7188 184.9941 -6.3984 Q185.4316 -5.0781 185.4316 -3.7656 Q185.4316 -2.4531 184.9941 -1.125 Q184.5566 0.2031 183.6816 1.5781 L182.7441 1.5781 Q183.5098 0.2344 183.9004 -1.0938 Q184.291 -2.4219 184.291 -3.7656 Q184.291 -5.125 183.9004 -6.4453 Q183.5098 -7.7656 182.7441 -9.1094 ZM191.6777 -1.4844 L192.9121 -1.4844 L192.9121 0 L191.6777 0 L191.6777 -1.4844 ZM191.6777 -6.2031 L192.9121 -6.2031 L192.9121 -4.7188 L191.6777 -4.7188 L191.6777 -6.2031 ZM198.4883 -6.5625 L199.6289 -6.5625 L201.6758 -1.0625 L203.7383 -6.5625 L204.8789 -6.5625 L202.4102 0 L200.9414 0 L198.4883 -6.5625 ZM208.9023 -5.8125 Q208.043 -5.8125 207.5352 -5.1328 Q207.0273 -4.4531 207.0273 -3.2812 Q207.0273 -2.0938 207.5273 -1.4219 Q208.0273 -0.75 208.9023 -0.75 Q209.7617 -0.75 210.2695 -1.4297 Q210.7773 -2.1094 210.7773 -3.2812 Q210.7773 -4.4375 210.2695 -5.125 Q209.7617 -5.8125 208.9023 -5.8125 ZM208.9023 -6.7188 Q210.3086 -6.7188 211.1133 -5.8047 Q211.918 -4.8906 211.918 -3.2812 Q211.918 -1.6719 211.1133 -0.75 Q210.3086 0.1719 208.9023 0.1719 Q207.4961 0.1719 206.6914 -0.75 Q205.8867 -1.6719 205.8867 -3.2812 Q205.8867 -4.8906 206.6914 -5.8047 Q207.4961 -6.7188 208.9023 -6.7188 ZM213.6973 -6.5625 L214.7754 -6.5625 L214.7754 0 L213.6973 0 L213.6973 -6.5625 ZM213.6973 -9.125 L214.7754 -9.125 L214.7754 -7.75 L213.6973 -7.75 L213.6973 -9.125 ZM221.3594 -5.5625 L221.3594 -9.125 L222.4375 -9.125 L222.4375 0 L221.3594 0 L221.3594 -0.9844 Q221.0156 -0.4062 220.5 -0.1172 Q219.9844 0.1719 219.25 0.1719 Q218.0625 0.1719 217.3125 -0.7812 Q216.5625 -1.7344 216.5625 -3.2812 Q216.5625 -4.8281 217.3125 -5.7734 Q218.0625 -6.7188 219.25 -6.7188 Q219.9844 -6.7188 220.5 -6.4375 Q221.0156 -6.1562 221.3594 -5.5625 ZM217.6875 -3.2812 Q217.6875 -2.0938 218.1719 -1.4141 Q218.6562 -0.7344 219.5156 -0.7344 Q220.375 -0.7344 220.8672 -1.4141 Q221.3594 -2.0938 221.3594 -3.2812 Q221.3594 -4.4688 220.8672 -5.1406 Q220.375 -5.8125 219.5156 -5.8125 Q218.6562 -5.8125 218.1719 -5.1406 Q217.6875 -4.4688 217.6875 -3.2812 Z"
         style="clip-path:url(#clipPath6); stroke:none;"
         id="path76"
         clip-path="url(#clipPath6)" />
    </g>
    <g
       style="text-rendering:optimizeLegibility; stroke-width:2; font-family:sans-serif;"
       transform="matrix(1.3333,0,0,1.3333,0,0) translate(250,250.9375)"
       id="g78">
      <path
         d="M5.5156 -7.5312 L5.5156 -4.2656 L8.7812 -4.2656 L8.7812 -3.2656 L5.5156 -3.2656 L5.5156 0 L4.5312 0 L4.5312 -3.2656 L1.2656 -3.2656 L1.2656 -4.2656 L4.5312 -4.2656 L4.5312 -7.5312 L5.5156 -7.5312 ZM17.9785 -3.2969 Q16.6816 -3.2969 16.1738 -3 Q15.666 -2.7031 15.666 -1.9844 Q15.666 -1.4062 16.0488 -1.0703 Q16.4316 -0.7344 17.0723 -0.7344 Q17.9785 -0.7344 18.5176 -1.3672 Q19.0566 -2 19.0566 -3.0625 L19.0566 -3.2969 L17.9785 -3.2969 ZM20.1348 -3.75 L20.1348 0 L19.0566 0 L19.0566 -1 Q18.6816 -0.4062 18.1348 -0.1172 Q17.5879 0.1719 16.791 0.1719 Q15.7754 0.1719 15.1816 -0.3984 Q14.5879 -0.9688 14.5879 -1.9062 Q14.5879 -3.0156 15.3301 -3.5781 Q16.0723 -4.1406 17.541 -4.1406 L19.0566 -4.1406 L19.0566 -4.25 Q19.0566 -5 18.5645 -5.4062 Q18.0723 -5.8125 17.1973 -5.8125 Q16.6348 -5.8125 16.0957 -5.6719 Q15.5566 -5.5312 15.0723 -5.2656 L15.0723 -6.2656 Q15.666 -6.5 16.2207 -6.6094 Q16.7754 -6.7188 17.3066 -6.7188 Q18.7285 -6.7188 19.4316 -5.9844 Q20.1348 -5.25 20.1348 -3.75 ZM26.6758 -5.5625 L26.6758 -9.125 L27.7539 -9.125 L27.7539 0 L26.6758 0 L26.6758 -0.9844 Q26.332 -0.4062 25.8164 -0.1172 Q25.3008 0.1719 24.5664 0.1719 Q23.3789 0.1719 22.6289 -0.7812 Q21.8789 -1.7344 21.8789 -3.2812 Q21.8789 -4.8281 22.6289 -5.7734 Q23.3789 -6.7188 24.5664 -6.7188 Q25.3008 -6.7188 25.8164 -6.4375 Q26.332 -6.1562 26.6758 -5.5625 ZM23.0039 -3.2812 Q23.0039 -2.0938 23.4883 -1.4141 Q23.9727 -0.7344 24.832 -0.7344 Q25.6914 -0.7344 26.1836 -1.4141 Q26.6758 -2.0938 26.6758 -3.2812 Q26.6758 -4.4688 26.1836 -5.1406 Q25.6914 -5.8125 24.832 -5.8125 Q23.9727 -5.8125 23.4883 -5.1406 Q23.0039 -4.4688 23.0039 -3.2812 ZM34.293 -5.5625 L34.293 -9.125 L35.3711 -9.125 L35.3711 0 L34.293 0 L34.293 -0.9844 Q33.9492 -0.4062 33.4336 -0.1172 Q32.918 0.1719 32.1836 0.1719 Q30.9961 0.1719 30.2461 -0.7812 Q29.4961 -1.7344 29.4961 -3.2812 Q29.4961 -4.8281 30.2461 -5.7734 Q30.9961 -6.7188 32.1836 -6.7188 Q32.918 -6.7188 33.4336 -6.4375 Q33.9492 -6.1562 34.293 -5.5625 ZM30.6211 -3.2812 Q30.6211 -2.0938 31.1055 -1.4141 Q31.5898 -0.7344 32.4492 -0.7344 Q33.3086 -0.7344 33.8008 -1.4141 Q34.293 -2.0938 34.293 -3.2812 Q34.293 -4.4688 33.8008 -5.1406 Q33.3086 -5.8125 32.4492 -5.8125 Q31.5898 -5.8125 31.1055 -5.1406 Q30.6211 -4.4688 30.6211 -3.2812 ZM37.6289 -8.75 L42.6602 -8.75 L42.6602 -7.75 L38.8164 -7.75 L38.8164 -5.1719 L42.2852 -5.1719 L42.2852 -4.1719 L38.8164 -4.1719 L38.8164 0 L37.6289 0 L37.6289 -8.75 ZM47.4688 -3.2969 Q46.1719 -3.2969 45.6641 -3 Q45.1562 -2.7031 45.1562 -1.9844 Q45.1562 -1.4062 45.5391 -1.0703 Q45.9219 -0.7344 46.5625 -0.7344 Q47.4688 -0.7344 48.0078 -1.3672 Q48.5469 -2 48.5469 -3.0625 L48.5469 -3.2969 L47.4688 -3.2969 ZM49.625 -3.75 L49.625 0 L48.5469 0 L48.5469 -1 Q48.1719 -0.4062 47.625 -0.1172 Q47.0781 0.1719 46.2812 0.1719 Q45.2656 0.1719 44.6719 -0.3984 Q44.0781 -0.9688 44.0781 -1.9062 Q44.0781 -3.0156 44.8203 -3.5781 Q45.5625 -4.1406 47.0312 -4.1406 L48.5469 -4.1406 L48.5469 -4.25 Q48.5469 -5 48.0547 -5.4062 Q47.5625 -5.8125 46.6875 -5.8125 Q46.125 -5.8125 45.5859 -5.6719 Q45.0469 -5.5312 44.5625 -5.2656 L44.5625 -6.2656 Q45.1562 -6.5 45.7109 -6.6094 Q46.2656 -6.7188 46.7969 -6.7188 Q48.2188 -6.7188 48.9219 -5.9844 Q49.625 -5.25 49.625 -3.75 ZM51.0723 -6.5625 L52.2129 -6.5625 L54.2598 -1.0625 L56.3223 -6.5625 L57.4629 -6.5625 L54.9941 0 L53.5254 0 L51.0723 -6.5625 ZM61.4863 -5.8125 Q60.627 -5.8125 60.1191 -5.1328 Q59.6113 -4.4531 59.6113 -3.2812 Q59.6113 -2.0938 60.1113 -1.4219 Q60.6113 -0.75 61.4863 -0.75 Q62.3457 -0.75 62.8535 -1.4297 Q63.3613 -2.1094 63.3613 -3.2812 Q63.3613 -4.4375 62.8535 -5.125 Q62.3457 -5.8125 61.4863 -5.8125 ZM61.4863 -6.7188 Q62.8926 -6.7188 63.6973 -5.8047 Q64.502 -4.8906 64.502 -3.2812 Q64.502 -1.6719 63.6973 -0.75 Q62.8926 0.1719 61.4863 0.1719 Q60.0801 0.1719 59.2754 -0.75 Q58.4707 -1.6719 58.4707 -3.2812 Q58.4707 -4.8906 59.2754 -5.8047 Q60.0801 -6.7188 61.4863 -6.7188 ZM66.1719 -2.5938 L66.1719 -6.5625 L67.25 -6.5625 L67.25 -2.625 Q67.25 -1.7031 67.6172 -1.2344 Q67.9844 -0.7656 68.7031 -0.7656 Q69.5781 -0.7656 70.0859 -1.3203 Q70.5938 -1.875 70.5938 -2.8438 L70.5938 -6.5625 L71.6719 -6.5625 L71.6719 0 L70.5938 0 L70.5938 -1.0156 Q70.2031 -0.4062 69.6875 -0.1172 Q69.1719 0.1719 68.4844 0.1719 Q67.3438 0.1719 66.7578 -0.5312 Q66.1719 -1.2344 66.1719 -2.5938 ZM77.6992 -5.5625 Q77.5117 -5.6562 77.3008 -5.7109 Q77.0898 -5.7656 76.8242 -5.7656 Q75.918 -5.7656 75.4258 -5.1719 Q74.9336 -4.5781 74.9336 -3.4531 L74.9336 0 L73.8555 0 L73.8555 -6.5625 L74.9336 -6.5625 L74.9336 -5.5469 Q75.2773 -6.1406 75.8242 -6.4297 Q76.3711 -6.7188 77.1523 -6.7188 Q77.2617 -6.7188 77.3945 -6.7031 Q77.5273 -6.6875 77.6836 -6.6562 L77.6992 -5.5625 ZM78.8203 -6.5625 L79.8984 -6.5625 L79.8984 0 L78.8203 0 L78.8203 -6.5625 ZM78.8203 -9.125 L79.8984 -9.125 L79.8984 -7.75 L78.8203 -7.75 L78.8203 -9.125 ZM83.2324 -8.4219 L83.2324 -6.5625 L85.4512 -6.5625 L85.4512 -5.7188 L83.2324 -5.7188 L83.2324 -2.1562 Q83.2324 -1.3594 83.4512 -1.1328 Q83.6699 -0.9062 84.3418 -0.9062 L85.4512 -0.9062 L85.4512 0 L84.3418 0 Q83.0918 0 82.6152 -0.4688 Q82.1387 -0.9375 82.1387 -2.1562 L82.1387 -5.7188 L81.3574 -5.7188 L81.3574 -6.5625 L82.1387 -6.5625 L82.1387 -8.4219 L83.2324 -8.4219 ZM92.4844 -3.5469 L92.4844 -3.0312 L87.5156 -3.0312 Q87.5938 -1.9062 88.1953 -1.3281 Q88.7969 -0.75 89.8594 -0.75 Q90.4844 -0.75 91.0703 -0.8984 Q91.6562 -1.0469 92.2344 -1.3594 L92.2344 -0.3281 Q91.6406 -0.0938 91.0312 0.0391 Q90.4219 0.1719 89.7969 0.1719 Q88.2344 0.1719 87.3125 -0.7422 Q86.3906 -1.6562 86.3906 -3.2188 Q86.3906 -4.8281 87.2656 -5.7734 Q88.1406 -6.7188 89.6094 -6.7188 Q90.9375 -6.7188 91.7109 -5.8672 Q92.4844 -5.0156 92.4844 -3.5469 ZM91.4062 -3.875 Q91.3906 -4.75 90.9062 -5.2812 Q90.4219 -5.8125 89.625 -5.8125 Q88.7188 -5.8125 88.1797 -5.2969 Q87.6406 -4.7812 87.5625 -3.8594 L91.4062 -3.875 ZM96.8359 -9.1094 Q96.0547 -7.7656 95.6719 -6.4453 Q95.2891 -5.125 95.2891 -3.7656 Q95.2891 -2.4219 95.6719 -1.0938 Q96.0547 0.2344 96.8359 1.5781 L95.8984 1.5781 Q95.0234 0.2031 94.5859 -1.125 Q94.1484 -2.4531 94.1484 -3.7656 Q94.1484 -5.0781 94.5859 -6.3984 Q95.0234 -7.7188 95.8984 -9.1094 L96.8359 -9.1094 ZM103.252 -3.3594 Q103.252 -4.5312 102.7676 -5.1719 Q102.2832 -5.8125 101.4082 -5.8125 Q100.5488 -5.8125 100.0645 -5.1719 Q99.5801 -4.5312 99.5801 -3.3594 Q99.5801 -2.1875 100.0645 -1.5469 Q100.5488 -0.9062 101.4082 -0.9062 Q102.2832 -0.9062 102.7676 -1.5469 Q103.252 -2.1875 103.252 -3.3594 ZM104.3301 -0.8125 Q104.3301 0.8594 103.5879 1.6797 Q102.8457 2.5 101.2988 2.5 Q100.7363 2.5 100.2285 2.4141 Q99.7207 2.3281 99.252 2.1562 L99.252 1.1094 Q99.7207 1.3594 100.1895 1.4844 Q100.6582 1.6094 101.127 1.6094 Q102.1895 1.6094 102.7207 1.0547 Q103.252 0.5 103.252 -0.625 L103.252 -1.1562 Q102.9082 -0.5781 102.3926 -0.2891 Q101.877 0 101.1426 0 Q99.9395 0 99.1973 -0.9219 Q98.4551 -1.8438 98.4551 -3.3594 Q98.4551 -4.875 99.1973 -5.7969 Q99.9395 -6.7188 101.1426 -6.7188 Q101.877 -6.7188 102.3926 -6.4297 Q102.9082 -6.1406 103.252 -5.5625 L103.252 -6.5625 L104.3301 -6.5625 L104.3301 -0.8125 ZM110.3535 -5.5625 Q110.166 -5.6562 109.9551 -5.7109 Q109.7441 -5.7656 109.4785 -5.7656 Q108.5723 -5.7656 108.0801 -5.1719 Q107.5879 -4.5781 107.5879 -3.4531 L107.5879 0 L106.5098 0 L106.5098 -6.5625 L107.5879 -6.5625 L107.5879 -5.5469 Q107.9316 -6.1406 108.4785 -6.4297 Q109.0254 -6.7188 109.8066 -6.7188 Q109.916 -6.7188 110.0488 -6.7031 Q110.1816 -6.6875 110.3379 -6.6562 L110.3535 -5.5625 ZM114.459 -3.2969 Q113.1621 -3.2969 112.6543 -3 Q112.1465 -2.7031 112.1465 -1.9844 Q112.1465 -1.4062 112.5293 -1.0703 Q112.9121 -0.7344 113.5527 -0.7344 Q114.459 -0.7344 114.998 -1.3672 Q115.5371 -2 115.5371 -3.0625 L115.5371 -3.2969 L114.459 -3.2969 ZM116.6152 -3.75 L116.6152 0 L115.5371 0 L115.5371 -1 Q115.1621 -0.4062 114.6152 -0.1172 Q114.0684 0.1719 113.2715 0.1719 Q112.2559 0.1719 111.6621 -0.3984 Q111.0684 -0.9688 111.0684 -1.9062 Q111.0684 -3.0156 111.8105 -3.5781 Q112.5527 -4.1406 114.0215 -4.1406 L115.5371 -4.1406 L115.5371 -4.25 Q115.5371 -5 115.0449 -5.4062 Q114.5527 -5.8125 113.6777 -5.8125 Q113.1152 -5.8125 112.5762 -5.6719 Q112.0371 -5.5312 111.5527 -5.2656 L111.5527 -6.2656 Q112.1465 -6.5 112.7012 -6.6094 Q113.2559 -6.7188 113.7871 -6.7188 Q115.209 -6.7188 115.9121 -5.9844 Q116.6152 -5.25 116.6152 -3.75 ZM119.875 -0.9844 L119.875 2.5 L118.7969 2.5 L118.7969 -6.5625 L119.875 -6.5625 L119.875 -5.5625 Q120.2188 -6.1562 120.7344 -6.4375 Q121.25 -6.7188 121.9688 -6.7188 Q123.1719 -6.7188 123.9219 -5.7734 Q124.6719 -4.8281 124.6719 -3.2812 Q124.6719 -1.7344 123.9219 -0.7812 Q123.1719 0.1719 121.9688 0.1719 Q121.25 0.1719 120.7344 -0.1172 Q120.2188 -0.4062 119.875 -0.9844 ZM123.5469 -3.2812 Q123.5469 -4.4688 123.0547 -5.1406 Q122.5625 -5.8125 121.7188 -5.8125 Q120.8594 -5.8125 120.3672 -5.1406 Q119.875 -4.4688 119.875 -3.2812 Q119.875 -2.0938 120.3672 -1.4141 Q120.8594 -0.7344 121.7188 -0.7344 Q122.5625 -0.7344 123.0547 -1.4141 Q123.5469 -2.0938 123.5469 -3.2812 ZM131.9141 -3.9688 L131.9141 0 L130.8359 0 L130.8359 -3.9219 Q130.8359 -4.8594 130.4688 -5.3203 Q130.1016 -5.7812 129.3828 -5.7812 Q128.5078 -5.7812 128 -5.2266 Q127.4922 -4.6719 127.4922 -3.7031 L127.4922 0 L126.4141 0 L126.4141 -9.125 L127.4922 -9.125 L127.4922 -5.5469 Q127.8828 -6.1406 128.4062 -6.4297 Q128.9297 -6.7188 129.6172 -6.7188 Q130.7422 -6.7188 131.3281 -6.0234 Q131.9141 -5.3281 131.9141 -3.9688 ZM138.1465 -1.4844 L139.3809 -1.4844 L139.3809 0 L138.1465 0 L138.1465 -1.4844 ZM138.1465 -6.2031 L139.3809 -6.2031 L139.3809 -4.7188 L138.1465 -4.7188 L138.1465 -6.2031 ZM145.7227 -6.5625 L146.8008 -6.5625 L146.8008 0 L145.7227 0 L145.7227 -6.5625 ZM145.7227 -9.125 L146.8008 -9.125 L146.8008 -7.75 L145.7227 -7.75 L145.7227 -9.125 ZM154.5254 -3.9688 L154.5254 0 L153.4473 0 L153.4473 -3.9219 Q153.4473 -4.8594 153.0801 -5.3203 Q152.7129 -5.7812 151.9941 -5.7812 Q151.1191 -5.7812 150.6113 -5.2266 Q150.1035 -4.6719 150.1035 -3.7031 L150.1035 0 L149.0254 0 L149.0254 -6.5625 L150.1035 -6.5625 L150.1035 -5.5469 Q150.4941 -6.1406 151.0176 -6.4297 Q151.541 -6.7188 152.2285 -6.7188 Q153.3535 -6.7188 153.9395 -6.0234 Q154.5254 -5.3281 154.5254 -3.9688 ZM157.7402 -8.4219 L157.7402 -6.5625 L159.959 -6.5625 L159.959 -5.7188 L157.7402 -5.7188 L157.7402 -2.1562 Q157.7402 -1.3594 157.959 -1.1328 Q158.1777 -0.9062 158.8496 -0.9062 L159.959 -0.9062 L159.959 0 L158.8496 0 Q157.5996 0 157.123 -0.4688 Q156.6465 -0.9375 156.6465 -2.1562 L156.6465 -5.7188 L155.8652 -5.7188 L155.8652 -6.5625 L156.6465 -6.5625 L156.6465 -8.4219 L157.7402 -8.4219 ZM161.2109 -9.1094 L162.1484 -9.1094 Q163.0234 -7.7188 163.4609 -6.3984 Q163.8984 -5.0781 163.8984 -3.7656 Q163.8984 -2.4531 163.4609 -1.125 Q163.0234 0.2031 162.1484 1.5781 L161.2109 1.5781 Q161.9766 0.2344 162.3672 -1.0938 Q162.7578 -2.4219 162.7578 -3.7656 Q162.7578 -5.125 162.3672 -6.4453 Q161.9766 -7.7656 161.2109 -9.1094 ZM170.1445 -1.4844 L171.3789 -1.4844 L171.3789 0 L170.1445 0 L170.1445 -1.4844 ZM170.1445 -6.2031 L171.3789 -6.2031 L171.3789 -4.7188 L170.1445 -4.7188 L170.1445 -6.2031 ZM176.9551 -6.5625 L178.0957 -6.5625 L180.1426 -1.0625 L182.2051 -6.5625 L183.3457 -6.5625 L180.877 0 L179.4082 0 L176.9551 -6.5625 ZM187.3691 -5.8125 Q186.5098 -5.8125 186.002 -5.1328 Q185.4941 -4.4531 185.4941 -3.2812 Q185.4941 -2.0938 185.9941 -1.4219 Q186.4941 -0.75 187.3691 -0.75 Q188.2285 -0.75 188.7363 -1.4297 Q189.2441 -2.1094 189.2441 -3.2812 Q189.2441 -4.4375 188.7363 -5.125 Q188.2285 -5.8125 187.3691 -5.8125 ZM187.3691 -6.7188 Q188.7754 -6.7188 189.5801 -5.8047 Q190.3848 -4.8906 190.3848 -3.2812 Q190.3848 -1.6719 189.5801 -0.75 Q188.7754 0.1719 187.3691 0.1719 Q185.9629 0.1719 185.1582 -0.75 Q184.3535 -1.6719 184.3535 -3.2812 Q184.3535 -4.8906 185.1582 -5.8047 Q185.9629 -6.7188 187.3691 -6.7188 ZM192.1641 -6.5625 L193.2422 -6.5625 L193.2422 0 L192.1641 0 L192.1641 -6.5625 ZM192.1641 -9.125 L193.2422 -9.125 L193.2422 -7.75 L192.1641 -7.75 L192.1641 -9.125 ZM199.8262 -5.5625 L199.8262 -9.125 L200.9043 -9.125 L200.9043 0 L199.8262 0 L199.8262 -0.9844 Q199.4824 -0.4062 198.9668 -0.1172 Q198.4512 0.1719 197.7168 0.1719 Q196.5293 0.1719 195.7793 -0.7812 Q195.0293 -1.7344 195.0293 -3.2812 Q195.0293 -4.8281 195.7793 -5.7734 Q196.5293 -6.7188 197.7168 -6.7188 Q198.4512 -6.7188 198.9668 -6.4375 Q199.4824 -6.1562 199.8262 -5.5625 ZM196.1543 -3.2812 Q196.1543 -2.0938 196.6387 -1.4141 Q197.123 -0.7344 197.9824 -0.7344 Q198.8418 -0.7344 199.334 -1.4141 Q199.8262 -2.0938 199.8262 -3.2812 Q199.8262 -4.4688 199.334 -5.1406 Q198.8418 -5.8125 197.9824 -5.8125 Q197.123 -5.8125 196.6387 -5.1406 Q196.1543 -4.4688 196.1543 -3.2812 Z"
         style="clip-path:url(#clipPath7); stroke:none;"
         id="path80"
         clip-path="url(#clipPath7)" />
    </g>
    <g
       style="text-rendering:optimizeLegibility; stroke-width:2; font-family:sans-serif;"
       transform="matrix(1.3333,0,0,1.3333,0,0) translate(250,236.9688)"
       id="g82">
      <path
         d="M5.5156 -7.5312 L5.5156 -4.2656 L8.7812 -4.2656 L8.7812 -3.2656 L5.5156 -3.2656 L5.5156 0 L4.5312 0 L4.5312 -3.2656 L1.2656 -3.2656 L1.2656 -4.2656 L4.5312 -4.2656 L4.5312 -7.5312 L5.5156 -7.5312 ZM19.3223 -3.3594 Q19.3223 -4.5312 18.8379 -5.1719 Q18.3535 -5.8125 17.4785 -5.8125 Q16.6191 -5.8125 16.1348 -5.1719 Q15.6504 -4.5312 15.6504 -3.3594 Q15.6504 -2.1875 16.1348 -1.5469 Q16.6191 -0.9062 17.4785 -0.9062 Q18.3535 -0.9062 18.8379 -1.5469 Q19.3223 -2.1875 19.3223 -3.3594 ZM20.4004 -0.8125 Q20.4004 0.8594 19.6582 1.6797 Q18.916 2.5 17.3691 2.5 Q16.8066 2.5 16.2988 2.4141 Q15.791 2.3281 15.3223 2.1562 L15.3223 1.1094 Q15.791 1.3594 16.2598 1.4844 Q16.7285 1.6094 17.1973 1.6094 Q18.2598 1.6094 18.791 1.0547 Q19.3223 0.5 19.3223 -0.625 L19.3223 -1.1562 Q18.9785 -0.5781 18.4629 -0.2891 Q17.9473 0 17.2129 0 Q16.0098 0 15.2676 -0.9219 Q14.5254 -1.8438 14.5254 -3.3594 Q14.5254 -4.875 15.2676 -5.7969 Q16.0098 -6.7188 17.2129 -6.7188 Q17.9473 -6.7188 18.4629 -6.4297 Q18.9785 -6.1406 19.3223 -5.5625 L19.3223 -6.5625 L20.4004 -6.5625 L20.4004 -0.8125 ZM28.2363 -3.5469 L28.2363 -3.0312 L23.2676 -3.0312 Q23.3457 -1.9062 23.9473 -1.3281 Q24.5488 -0.75 25.6113 -0.75 Q26.2363 -0.75 26.8223 -0.8984 Q27.4082 -1.0469 27.9863 -1.3594 L27.9863 -0.3281 Q27.3926 -0.0938 26.7832 0.0391 Q26.1738 0.1719 25.5488 0.1719 Q23.9863 0.1719 23.0645 -0.7422 Q22.1426 -1.6562 22.1426 -3.2188 Q22.1426 -4.8281 23.0176 -5.7734 Q23.8926 -6.7188 25.3613 -6.7188 Q26.6895 -6.7188 27.4629 -5.8672 Q28.2363 -5.0156 28.2363 -3.5469 ZM27.1582 -3.875 Q27.1426 -4.75 26.6582 -5.2812 Q26.1738 -5.8125 25.377 -5.8125 Q24.4707 -5.8125 23.9316 -5.2969 Q23.3926 -4.7812 23.3145 -3.8594 L27.1582 -3.875 ZM31.0723 -8.4219 L31.0723 -6.5625 L33.291 -6.5625 L33.291 -5.7188 L31.0723 -5.7188 L31.0723 -2.1562 Q31.0723 -1.3594 31.291 -1.1328 Q31.5098 -0.9062 32.1816 -0.9062 L33.291 -0.9062 L33.291 0 L32.1816 0 Q30.9316 0 30.4551 -0.4688 Q29.9785 -0.9375 29.9785 -2.1562 L29.9785 -5.7188 L29.1973 -5.7188 L29.1973 -6.5625 L29.9785 -6.5625 L29.9785 -8.4219 L31.0723 -8.4219 ZM34.7461 -8.75 L39.7773 -8.75 L39.7773 -7.75 L35.9336 -7.75 L35.9336 -5.1719 L39.4023 -5.1719 L39.4023 -4.1719 L35.9336 -4.1719 L35.9336 0 L34.7461 0 L34.7461 -8.75 ZM44.5859 -3.2969 Q43.2891 -3.2969 42.7812 -3 Q42.2734 -2.7031 42.2734 -1.9844 Q42.2734 -1.4062 42.6562 -1.0703 Q43.0391 -0.7344 43.6797 -0.7344 Q44.5859 -0.7344 45.125 -1.3672 Q45.6641 -2 45.6641 -3.0625 L45.6641 -3.2969 L44.5859 -3.2969 ZM46.7422 -3.75 L46.7422 0 L45.6641 0 L45.6641 -1 Q45.2891 -0.4062 44.7422 -0.1172 Q44.1953 0.1719 43.3984 0.1719 Q42.3828 0.1719 41.7891 -0.3984 Q41.1953 -0.9688 41.1953 -1.9062 Q41.1953 -3.0156 41.9375 -3.5781 Q42.6797 -4.1406 44.1484 -4.1406 L45.6641 -4.1406 L45.6641 -4.25 Q45.6641 -5 45.1719 -5.4062 Q44.6797 -5.8125 43.8047 -5.8125 Q43.2422 -5.8125 42.7031 -5.6719 Q42.1641 -5.5312 41.6797 -5.2656 L41.6797 -6.2656 Q42.2734 -6.5 42.8281 -6.6094 Q43.3828 -6.7188 43.9141 -6.7188 Q45.3359 -6.7188 46.0391 -5.9844 Q46.7422 -5.25 46.7422 -3.75 ZM48.1895 -6.5625 L49.3301 -6.5625 L51.377 -1.0625 L53.4395 -6.5625 L54.5801 -6.5625 L52.1113 0 L50.6426 0 L48.1895 -6.5625 ZM58.6035 -5.8125 Q57.7441 -5.8125 57.2363 -5.1328 Q56.7285 -4.4531 56.7285 -3.2812 Q56.7285 -2.0938 57.2285 -1.4219 Q57.7285 -0.75 58.6035 -0.75 Q59.4629 -0.75 59.9707 -1.4297 Q60.4785 -2.1094 60.4785 -3.2812 Q60.4785 -4.4375 59.9707 -5.125 Q59.4629 -5.8125 58.6035 -5.8125 ZM58.6035 -6.7188 Q60.0098 -6.7188 60.8145 -5.8047 Q61.6191 -4.8906 61.6191 -3.2812 Q61.6191 -1.6719 60.8145 -0.75 Q60.0098 0.1719 58.6035 0.1719 Q57.1973 0.1719 56.3926 -0.75 Q55.5879 -1.6719 55.5879 -3.2812 Q55.5879 -4.8906 56.3926 -5.8047 Q57.1973 -6.7188 58.6035 -6.7188 ZM63.2891 -2.5938 L63.2891 -6.5625 L64.3672 -6.5625 L64.3672 -2.625 Q64.3672 -1.7031 64.7344 -1.2344 Q65.1016 -0.7656 65.8203 -0.7656 Q66.6953 -0.7656 67.2031 -1.3203 Q67.7109 -1.875 67.7109 -2.8438 L67.7109 -6.5625 L68.7891 -6.5625 L68.7891 0 L67.7109 0 L67.7109 -1.0156 Q67.3203 -0.4062 66.8047 -0.1172 Q66.2891 0.1719 65.6016 0.1719 Q64.4609 0.1719 63.875 -0.5312 Q63.2891 -1.2344 63.2891 -2.5938 ZM74.8164 -5.5625 Q74.6289 -5.6562 74.418 -5.7109 Q74.207 -5.7656 73.9414 -5.7656 Q73.0352 -5.7656 72.543 -5.1719 Q72.0508 -4.5781 72.0508 -3.4531 L72.0508 0 L70.9727 0 L70.9727 -6.5625 L72.0508 -6.5625 L72.0508 -5.5469 Q72.3945 -6.1406 72.9414 -6.4297 Q73.4883 -6.7188 74.2695 -6.7188 Q74.3789 -6.7188 74.5117 -6.7031 Q74.6445 -6.6875 74.8008 -6.6562 L74.8164 -5.5625 ZM75.9375 -6.5625 L77.0156 -6.5625 L77.0156 0 L75.9375 0 L75.9375 -6.5625 ZM75.9375 -9.125 L77.0156 -9.125 L77.0156 -7.75 L75.9375 -7.75 L75.9375 -9.125 ZM80.3496 -8.4219 L80.3496 -6.5625 L82.5684 -6.5625 L82.5684 -5.7188 L80.3496 -5.7188 L80.3496 -2.1562 Q80.3496 -1.3594 80.5684 -1.1328 Q80.7871 -0.9062 81.459 -0.9062 L82.5684 -0.9062 L82.5684 0 L81.459 0 Q80.209 0 79.7324 -0.4688 Q79.2559 -0.9375 79.2559 -2.1562 L79.2559 -5.7188 L78.4746 -5.7188 L78.4746 -6.5625 L79.2559 -6.5625 L79.2559 -8.4219 L80.3496 -8.4219 ZM89.6016 -3.5469 L89.6016 -3.0312 L84.6328 -3.0312 Q84.7109 -1.9062 85.3125 -1.3281 Q85.9141 -0.75 86.9766 -0.75 Q87.6016 -0.75 88.1875 -0.8984 Q88.7734 -1.0469 89.3516 -1.3594 L89.3516 -0.3281 Q88.7578 -0.0938 88.1484 0.0391 Q87.5391 0.1719 86.9141 0.1719 Q85.3516 0.1719 84.4297 -0.7422 Q83.5078 -1.6562 83.5078 -3.2188 Q83.5078 -4.8281 84.3828 -5.7734 Q85.2578 -6.7188 86.7266 -6.7188 Q88.0547 -6.7188 88.8281 -5.8672 Q89.6016 -5.0156 89.6016 -3.5469 ZM88.5234 -3.875 Q88.5078 -4.75 88.0234 -5.2812 Q87.5391 -5.8125 86.7422 -5.8125 Q85.8359 -5.8125 85.2969 -5.2969 Q84.7578 -4.7812 84.6797 -3.8594 L88.5234 -3.875 ZM95.5469 -6.375 L95.5469 -5.3438 Q95.0938 -5.5781 94.6016 -5.6953 Q94.1094 -5.8125 93.5781 -5.8125 Q92.7812 -5.8125 92.375 -5.5703 Q91.9688 -5.3281 91.9688 -4.8281 Q91.9688 -4.4531 92.2578 -4.2422 Q92.5469 -4.0312 93.4219 -3.8438 L93.7812 -3.75 Q94.9375 -3.5156 95.4219 -3.0625 Q95.9062 -2.6094 95.9062 -1.8125 Q95.9062 -0.8906 95.1797 -0.3594 Q94.4531 0.1719 93.1875 0.1719 Q92.6562 0.1719 92.0859 0.0703 Q91.5156 -0.0312 90.8906 -0.2344 L90.8906 -1.3594 Q91.4844 -1.0469 92.0625 -0.8906 Q92.6406 -0.7344 93.2188 -0.7344 Q93.9688 -0.7344 94.3828 -0.9922 Q94.7969 -1.25 94.7969 -1.7344 Q94.7969 -2.1719 94.5 -2.4062 Q94.2031 -2.6406 93.2031 -2.8594 L92.8281 -2.9375 Q91.8281 -3.1562 91.3828 -3.5938 Q90.9375 -4.0312 90.9375 -4.7812 Q90.9375 -5.7188 91.5938 -6.2188 Q92.25 -6.7188 93.4531 -6.7188 Q94.0469 -6.7188 94.5781 -6.6328 Q95.1094 -6.5469 95.5469 -6.375 ZM100.2051 -9.1094 Q99.4238 -7.7656 99.041 -6.4453 Q98.6582 -5.125 98.6582 -3.7656 Q98.6582 -2.4219 99.041 -1.0938 Q99.4238 0.2344 100.2051 1.5781 L99.2676 1.5781 Q98.3926 0.2031 97.9551 -1.125 Q97.5176 -2.4531 97.5176 -3.7656 Q97.5176 -5.0781 97.9551 -6.3984 Q98.3926 -7.7188 99.2676 -9.1094 L100.2051 -9.1094 ZM102.1367 -9.1094 L103.0742 -9.1094 Q103.9492 -7.7188 104.3867 -6.3984 Q104.8242 -5.0781 104.8242 -3.7656 Q104.8242 -2.4531 104.3867 -1.125 Q103.9492 0.2031 103.0742 1.5781 L102.1367 1.5781 Q102.9023 0.2344 103.293 -1.0938 Q103.6836 -2.4219 103.6836 -3.7656 Q103.6836 -5.125 103.293 -6.4453 Q102.9023 -7.7656 102.1367 -9.1094 ZM111.0703 -1.4844 L112.3047 -1.4844 L112.3047 0 L111.0703 0 L111.0703 -1.4844 ZM111.0703 -6.2031 L112.3047 -6.2031 L112.3047 -4.7188 L111.0703 -4.7188 L111.0703 -6.2031 ZM117.8809 -6.5625 L119.0215 -6.5625 L121.0684 -1.0625 L123.1309 -6.5625 L124.2715 -6.5625 L121.8027 0 L120.334 0 L117.8809 -6.5625 ZM128.2949 -5.8125 Q127.4355 -5.8125 126.9277 -5.1328 Q126.4199 -4.4531 126.4199 -3.2812 Q126.4199 -2.0938 126.9199 -1.4219 Q127.4199 -0.75 128.2949 -0.75 Q129.1543 -0.75 129.6621 -1.4297 Q130.1699 -2.1094 130.1699 -3.2812 Q130.1699 -4.4375 129.6621 -5.125 Q129.1543 -5.8125 128.2949 -5.8125 ZM128.2949 -6.7188 Q129.7012 -6.7188 130.5059 -5.8047 Q131.3105 -4.8906 131.3105 -3.2812 Q131.3105 -1.6719 130.5059 -0.75 Q129.7012 0.1719 128.2949 0.1719 Q126.8887 0.1719 126.084 -0.75 Q125.2793 -1.6719 125.2793 -3.2812 Q125.2793 -4.8906 126.084 -5.8047 Q126.8887 -6.7188 128.2949 -6.7188 ZM133.0898 -6.5625 L134.168 -6.5625 L134.168 0 L133.0898 0 L133.0898 -6.5625 ZM133.0898 -9.125 L134.168 -9.125 L134.168 -7.75 L133.0898 -7.75 L133.0898 -9.125 ZM140.752 -5.5625 L140.752 -9.125 L141.8301 -9.125 L141.8301 0 L140.752 0 L140.752 -0.9844 Q140.4082 -0.4062 139.8926 -0.1172 Q139.377 0.1719 138.6426 0.1719 Q137.4551 0.1719 136.7051 -0.7812 Q135.9551 -1.7344 135.9551 -3.2812 Q135.9551 -4.8281 136.7051 -5.7734 Q137.4551 -6.7188 138.6426 -6.7188 Q139.377 -6.7188 139.8926 -6.4375 Q140.4082 -6.1562 140.752 -5.5625 ZM137.0801 -3.2812 Q137.0801 -2.0938 137.5645 -1.4141 Q138.0488 -0.7344 138.9082 -0.7344 Q139.7676 -0.7344 140.2598 -1.4141 Q140.752 -2.0938 140.752 -3.2812 Q140.752 -4.4688 140.2598 -5.1406 Q139.7676 -5.8125 138.9082 -5.8125 Q138.0488 -5.8125 137.5645 -5.1406 Q137.0801 -4.4688 137.0801 -3.2812 Z"
         style="clip-path:url(#clipPath8); stroke:none;"
         id="path84"
         clip-path="url(#clipPath8)" />
    </g>
    <g
       style="font-family:sans-serif; text-rendering:optimizeLegibility;"
       transform="matrix(1.3333,0,0,1.3333,0,0)"
       id="g86">
      <line
         x1="240"
         x2="511"
         y1="220.9688"
         style="fill:none; clip-path:url(#clipPath2);"
         y2="220.9688"
         id="line88"
         clip-path="url(#clipPath2)" />
      <line
         x1="240"
         x2="511"
         y1="212.9688"
         style="fill:none; clip-path:url(#clipPath2);"
         y2="212.9688"
         id="line90"
         clip-path="url(#clipPath2)" />
    </g>
    <g
       style="text-rendering:optimizeLegibility; font-family:sans-serif; font-weight:bold;"
       transform="matrix(1.3333,0,0,1.3333,0,0) translate(333.5,207)"
       id="g92">
      <path
         d="M1.1094 -8.75 L3.3594 -8.75 L3.3594 -3.5 Q3.3594 -2.4219 3.7109 -1.9531 Q4.0625 -1.4844 4.875 -1.4844 Q5.6719 -1.4844 6.0312 -1.9531 Q6.3906 -2.4219 6.3906 -3.5 L6.3906 -8.75 L8.6406 -8.75 L8.6406 -3.5 Q8.6406 -1.6406 7.7109 -0.7344 Q6.7812 0.1719 4.875 0.1719 Q2.9688 0.1719 2.0391 -0.7344 Q1.1094 -1.6406 1.1094 -3.5 L1.1094 -8.75 ZM15.8848 -6.3594 L15.8848 -4.7656 Q15.2129 -5.0469 14.5801 -5.1875 Q13.9473 -5.3281 13.4004 -5.3281 Q12.791 -5.3281 12.502 -5.1797 Q12.2129 -5.0312 12.2129 -4.7188 Q12.2129 -4.4688 12.4316 -4.3359 Q12.6504 -4.2031 13.2285 -4.125 L13.5879 -4.0781 Q15.2129 -3.875 15.7676 -3.4062 Q16.3223 -2.9375 16.3223 -1.9375 Q16.3223 -0.8906 15.5488 -0.3594 Q14.7754 0.1719 13.2441 0.1719 Q12.5879 0.1719 11.8926 0.0703 Q11.1973 -0.0312 10.4629 -0.2344 L10.4629 -1.8281 Q11.0879 -1.5312 11.752 -1.375 Q12.416 -1.2188 13.0879 -1.2188 Q13.7129 -1.2188 14.0176 -1.3906 Q14.3223 -1.5625 14.3223 -1.9062 Q14.3223 -2.1875 14.1113 -2.3203 Q13.9004 -2.4531 13.2598 -2.5312 L12.8848 -2.5781 Q11.4941 -2.75 10.9316 -3.2266 Q10.3691 -3.7031 10.3691 -4.6719 Q10.3691 -5.7188 11.0801 -6.2188 Q11.791 -6.7188 13.2754 -6.7188 Q13.8535 -6.7188 14.4941 -6.6328 Q15.1348 -6.5469 15.8848 -6.3594 ZM24.4492 -3.2969 L24.4492 -2.7031 L19.543 -2.7031 Q19.6211 -1.9688 20.0742 -1.5938 Q20.5273 -1.2188 21.3555 -1.2188 Q22.0117 -1.2188 22.707 -1.4219 Q23.4023 -1.625 24.1367 -2.0156 L24.1367 -0.4062 Q23.3867 -0.125 22.6445 0.0234 Q21.9023 0.1719 21.1523 0.1719 Q19.3711 0.1719 18.3867 -0.7344 Q17.4023 -1.6406 17.4023 -3.2812 Q17.4023 -4.875 18.3711 -5.7969 Q19.3398 -6.7188 21.043 -6.7188 Q22.5898 -6.7188 23.5195 -5.7891 Q24.4492 -4.8594 24.4492 -3.2969 ZM22.293 -4 Q22.293 -4.5938 21.9414 -4.9609 Q21.5898 -5.3281 21.0273 -5.3281 Q20.418 -5.3281 20.0352 -4.9844 Q19.6523 -4.6406 19.5586 -4 L22.293 -4 ZM30.916 -4.7812 Q30.6348 -4.9062 30.3613 -4.9688 Q30.0879 -5.0312 29.8066 -5.0312 Q29.0098 -5.0312 28.5723 -4.5078 Q28.1348 -3.9844 28.1348 -3.0312 L28.1348 0 L26.041 0 L26.041 -6.5625 L28.1348 -6.5625 L28.1348 -5.4844 Q28.541 -6.125 29.0645 -6.4219 Q29.5879 -6.7188 30.3223 -6.7188 Q30.416 -6.7188 30.541 -6.7109 Q30.666 -6.7031 30.9004 -6.6719 L30.916 -4.7812 ZM38.1309 -8.4688 L38.1309 -6.625 Q37.4121 -6.9375 36.7246 -7.1016 Q36.0371 -7.2656 35.4277 -7.2656 Q34.6309 -7.2656 34.2402 -7.0469 Q33.8496 -6.8281 33.8496 -6.3594 Q33.8496 -6 34.1074 -5.8047 Q34.3652 -5.6094 35.0527 -5.4688 L36.0215 -5.2812 Q37.4746 -4.9844 38.0918 -4.3906 Q38.709 -3.7969 38.709 -2.6875 Q38.709 -1.25 37.8496 -0.5391 Q36.9902 0.1719 35.2246 0.1719 Q34.3965 0.1719 33.5605 0.0156 Q32.7246 -0.1406 31.8809 -0.4531 L31.8809 -2.3594 Q32.7246 -1.9219 33.5059 -1.6953 Q34.2871 -1.4688 35.0059 -1.4688 Q35.7559 -1.4688 36.1465 -1.7109 Q36.5371 -1.9531 36.5371 -2.4219 Q36.5371 -2.8281 36.2715 -3.0469 Q36.0059 -3.2656 35.209 -3.4531 L34.334 -3.6406 Q33.0215 -3.9219 32.4121 -4.5391 Q31.8027 -5.1562 31.8027 -6.1875 Q31.8027 -7.5 32.6465 -8.2031 Q33.4902 -8.9062 35.0684 -8.9062 Q35.8027 -8.9062 36.5605 -8.7969 Q37.3184 -8.6875 38.1309 -8.4688 ZM47.1484 -3.2969 L47.1484 -2.7031 L42.2422 -2.7031 Q42.3203 -1.9688 42.7734 -1.5938 Q43.2266 -1.2188 44.0547 -1.2188 Q44.7109 -1.2188 45.4062 -1.4219 Q46.1016 -1.625 46.8359 -2.0156 L46.8359 -0.4062 Q46.0859 -0.125 45.3438 0.0234 Q44.6016 0.1719 43.8516 0.1719 Q42.0703 0.1719 41.0859 -0.7344 Q40.1016 -1.6406 40.1016 -3.2812 Q40.1016 -4.875 41.0703 -5.7969 Q42.0391 -6.7188 43.7422 -6.7188 Q45.2891 -6.7188 46.2188 -5.7891 Q47.1484 -4.8594 47.1484 -3.2969 ZM44.9922 -4 Q44.9922 -4.5938 44.6406 -4.9609 Q44.2891 -5.3281 43.7266 -5.3281 Q43.1172 -5.3281 42.7344 -4.9844 Q42.3516 -4.6406 42.2578 -4 L44.9922 -4 ZM53.6152 -4.7812 Q53.334 -4.9062 53.0605 -4.9688 Q52.7871 -5.0312 52.5059 -5.0312 Q51.709 -5.0312 51.2715 -4.5078 Q50.834 -3.9844 50.834 -3.0312 L50.834 0 L48.7402 0 L48.7402 -6.5625 L50.834 -6.5625 L50.834 -5.4844 Q51.2402 -6.125 51.7637 -6.4219 Q52.2871 -6.7188 53.0215 -6.7188 Q53.1152 -6.7188 53.2402 -6.7109 Q53.3652 -6.7031 53.5996 -6.6719 L53.6152 -4.7812 ZM53.8301 -6.5625 L55.9238 -6.5625 L57.5645 -2.0312 L59.1895 -6.5625 L61.2832 -6.5625 L58.7051 0 L56.4082 0 L53.8301 -6.5625 ZM62.4805 -6.5625 L64.5742 -6.5625 L64.5742 0 L62.4805 0 L62.4805 -6.5625 ZM62.4805 -9.125 L64.5742 -9.125 L64.5742 -7.4062 L62.4805 -7.4062 L62.4805 -9.125 ZM71.8906 -6.3594 L71.8906 -4.6406 Q71.4688 -4.9375 71.0312 -5.0781 Q70.5938 -5.2188 70.1406 -5.2188 Q69.2656 -5.2188 68.7734 -4.7109 Q68.2812 -4.2031 68.2812 -3.2812 Q68.2812 -2.3594 68.7734 -1.8438 Q69.2656 -1.3281 70.1406 -1.3281 Q70.625 -1.3281 71.0703 -1.4766 Q71.5156 -1.625 71.8906 -1.9062 L71.8906 -0.1875 Q71.3906 -0.0156 70.8906 0.0781 Q70.3906 0.1719 69.875 0.1719 Q68.0938 0.1719 67.0938 -0.7422 Q66.0938 -1.6562 66.0938 -3.2812 Q66.0938 -4.9062 67.0938 -5.8125 Q68.0938 -6.7188 69.875 -6.7188 Q70.3906 -6.7188 70.8906 -6.6328 Q71.3906 -6.5469 71.8906 -6.3594 ZM80.2539 -3.2969 L80.2539 -2.7031 L75.3477 -2.7031 Q75.4258 -1.9688 75.8789 -1.5938 Q76.332 -1.2188 77.1602 -1.2188 Q77.8164 -1.2188 78.5117 -1.4219 Q79.207 -1.625 79.9414 -2.0156 L79.9414 -0.4062 Q79.1914 -0.125 78.4492 0.0234 Q77.707 0.1719 76.957 0.1719 Q75.1758 0.1719 74.1914 -0.7344 Q73.207 -1.6406 73.207 -3.2812 Q73.207 -4.875 74.1758 -5.7969 Q75.1445 -6.7188 76.8477 -6.7188 Q78.3945 -6.7188 79.3242 -5.7891 Q80.2539 -4.8594 80.2539 -3.2969 ZM78.0977 -4 Q78.0977 -4.5938 77.7461 -4.9609 Q77.3945 -5.3281 76.832 -5.3281 Q76.2227 -5.3281 75.8398 -4.9844 Q75.457 -4.6406 75.3633 -4 L78.0977 -4 Z"
         style="clip-path:url(#clipPath9); stroke:none;"
         id="path94"
         clip-path="url(#clipPath9)" />
    </g>
  </g>
</svg>
