<?xml version="1.0" encoding="UTF-8" standalone="no"?>
<svg
   xmlns:dc="http://purl.org/dc/elements/1.1/"
   xmlns:cc="http://creativecommons.org/ns#"
   xmlns:rdf="http://www.w3.org/1999/02/22-rdf-syntax-ns#"
   xmlns:svg="http://www.w3.org/2000/svg"
   xmlns="http://www.w3.org/2000/svg"
   xmlns:sodipodi="http://sodipodi.sourceforge.net/DTD/sodipodi-0.dtd"
   xmlns:inkscape="http://www.inkscape.org/namespaces/inkscape"
   style="fill-opacity:1; color-rendering:auto; color-interpolation:auto; stroke:black; text-rendering:auto; stroke-linecap:square; stroke-miterlimit:10; stroke-opacity:1; shape-rendering:auto; fill:black; stroke-dasharray:none; font-weight:normal; stroke-width:1; font-family:'Dialog'; font-style:normal; stroke-linejoin:miter; font-size:12; stroke-dashoffset:0; image-rendering:auto;"
   width="880"
   height="666"
   id="svg2"
   version="1.1"
   inkscape:version="0.91 r13725"
   sodipodi:docname="user_admin_service.svg">
  <metadata
     id="metadata91">
    <rdf:RDF>
      <cc:Work
         rdf:about="">
        <dc:format>image/svg+xml</dc:format>
        <dc:type
           rdf:resource="http://purl.org/dc/dcmitype/StillImage" />
      </cc:Work>
    </rdf:RDF>
  </metadata>
  <sodipodi:namedview
     pagecolor="#ffffff"
     bordercolor="#666666"
     borderopacity="1"
     objecttolerance="10"
     gridtolerance="10"
     guidetolerance="10"
     inkscape:pageopacity="0"
     inkscape:pageshadow="2"
     inkscape:window-width="640"
     inkscape:window-height="480"
     id="namedview89"
     showgrid="false"
     inkscape:zoom="0.35435435"
     inkscape:cx="440"
     inkscape:cy="333"
     inkscape:window-x="0"
     inkscape:window-y="0"
     inkscape:window-maximized="0"
     inkscape:current-layer="g5" />
  <!--Generated by the Batik Graphics2D SVG Generator-->
  <defs
     id="genericDefs" />
  <g
     id="g5">
    <defs
       id="defs1">
      <linearGradient
         x1="239"
         gradientUnits="userSpaceOnUse"
         x2="516"
         y1="190"
         y2="278"
         id="linearGradient1"
         spreadMethod="pad">
        <stop
           style="stop-opacity:1; stop-color:white;"
           offset="0%"
           id="stop9" />
        <stop
           style="stop-opacity:1; stop-color:rgb(255,255,204);"
           offset="100%"
           id="stop11" />
      </linearGradient>
      <clipPath
         clipPathUnits="userSpaceOnUse"
         id="clipPath1">
        <path
           d="M0 0 L880 0 L880 666 L0 666 L0 0 Z"
           id="path14" />
      </clipPath>
      <clipPath
         clipPathUnits="userSpaceOnUse"
         id="clipPath2">
        <path
           d="M0 0 L660 0 L660 499.5 L0 499.5 L0 0 Z"
           id="path17" />
      </clipPath>
      <clipPath
         clipPathUnits="userSpaceOnUse"
         id="clipPath3">
        <path
           d="M-20 -27 L640 -27 L640 472.5 L-20 472.5 L-20 -27 Z"
           id="path20" />
      </clipPath>
      <clipPath
         clipPathUnits="userSpaceOnUse"
         id="clipPath4">
        <path
           d="M-5 -5 L655 -5 L655 494.5 L-5 494.5 L-5 -5 Z"
           id="path23" />
      </clipPath>
      <clipPath
         clipPathUnits="userSpaceOnUse"
         id="clipPath5">
        <path
           d="M-249 -263.9062 L411 -263.9062 L411 235.5938 L-249 235.5938 L-249 -263.9062 Z"
           id="path26" />
      </clipPath>
      <clipPath
         clipPathUnits="userSpaceOnUse"
         id="clipPath6">
        <path
           d="M-249 -249.9375 L411 -249.9375 L411 249.5625 L-249 249.5625 L-249 -249.9375 Z"
           id="path29" />
      </clipPath>
      <clipPath
         clipPathUnits="userSpaceOnUse"
         id="clipPath7">
        <path
           d="M-249 -235.9688 L411 -235.9688 L411 263.5312 L-249 263.5312 L-249 -235.9688 Z"
           id="path32" />
      </clipPath>
      <clipPath
         clipPathUnits="userSpaceOnUse"
         id="clipPath8">
        <path
           d="M-314 -206 L346 -206 L346 293.5 L-314 293.5 L-314 -206 Z"
           id="path35" />
      </clipPath>
    </defs>
    <g
       transform="matrix(1.3333,0,0,1.3333,0,0) translate(5,5)"
       style="fill-opacity:0.502; fill:rgb(192,192,192); text-rendering:geometricPrecision; font-family:sans-serif; shape-rendering:crispEdges; stroke:rgb(192,192,192); font-weight:bold; stroke-width:2; stroke-opacity:0.502;"
       id="g55">
      <rect
         x="239"
         y="190"
         width="277"
         style="clip-path:url(#clipPath4); stroke:none;"
         height="87.375"
         id="rect57"
         clip-path="url(#clipPath4)" />
      <rect
         x="239"
         y="190"
         width="277"
         style="fill:none; clip-path:url(#clipPath4);"
         height="87.375"
         id="rect59"
         clip-path="url(#clipPath4)" />
    </g>
    <g
       transform="matrix(1.3333,0,0,1.3333,0,0)"
       style="fill:url(#linearGradient1); text-rendering:geometricPrecision; font-family:sans-serif; shape-rendering:crispEdges; stroke:url(#linearGradient1); font-weight:bold; stroke-width:2;"
       id="g61">
      <rect
         x="239"
         y="190"
         width="277"
         style="clip-path:url(#clipPath2); stroke:none;"
         height="87.375"
         id="rect63"
         clip-path="url(#clipPath2)" />
      <rect
         x="239"
         y="190"
         width="277"
         style="clip-path:url(#clipPath2); fill:none; stroke:black;"
         height="87.375"
         id="rect65"
         clip-path="url(#clipPath2)" />
    </g>
    <g
       style="text-rendering:optimizeLegibility; stroke-width:2; font-family:sans-serif;"
       transform="matrix(1.3333,0,0,1.3333,0,0) translate(249,263.9062)"
       id="g67">
      <path
         d="M5.5156 -7.5312 L5.5156 -4.2656 L8.7812 -4.2656 L8.7812 -3.2656 L5.5156 -3.2656 L5.5156 0 L4.5312 0 L4.5312 -3.2656 L1.2656 -3.2656 L1.2656 -4.2656 L4.5312 -4.2656 L4.5312 -7.5312 L5.5156 -7.5312 ZM19.3223 -5.5625 L19.3223 -9.125 L20.4004 -9.125 L20.4004 0 L19.3223 0 L19.3223 -0.9844 Q18.9785 -0.4062 18.4629 -0.1172 Q17.9473 0.1719 17.2129 0.1719 Q16.0254 0.1719 15.2754 -0.7812 Q14.5254 -1.7344 14.5254 -3.2812 Q14.5254 -4.8281 15.2754 -5.7734 Q16.0254 -6.7188 17.2129 -6.7188 Q17.9473 -6.7188 18.4629 -6.4375 Q18.9785 -6.1562 19.3223 -5.5625 ZM15.6504 -3.2812 Q15.6504 -2.0938 16.1348 -1.4141 Q16.6191 -0.7344 17.4785 -0.7344 Q18.3379 -0.7344 18.8301 -1.4141 Q19.3223 -2.0938 19.3223 -3.2812 Q19.3223 -4.4688 18.8301 -5.1406 Q18.3379 -5.8125 17.4785 -5.8125 Q16.6191 -5.8125 16.1348 -5.1406 Q15.6504 -4.4688 15.6504 -3.2812 ZM28.2363 -3.5469 L28.2363 -3.0312 L23.2676 -3.0312 Q23.3457 -1.9062 23.9473 -1.3281 Q24.5488 -0.75 25.6113 -0.75 Q26.2363 -0.75 26.8223 -0.8984 Q27.4082 -1.0469 27.9863 -1.3594 L27.9863 -0.3281 Q27.3926 -0.0938 26.7832 0.0391 Q26.1738 0.1719 25.5488 0.1719 Q23.9863 0.1719 23.0645 -0.7422 Q22.1426 -1.6562 22.1426 -3.2188 Q22.1426 -4.8281 23.0176 -5.7734 Q23.8926 -6.7188 25.3613 -6.7188 Q26.6895 -6.7188 27.4629 -5.8672 Q28.2363 -5.0156 28.2363 -3.5469 ZM27.1582 -3.875 Q27.1426 -4.75 26.6582 -5.2812 Q26.1738 -5.8125 25.377 -5.8125 Q24.4707 -5.8125 23.9316 -5.2969 Q23.3926 -4.7812 23.3145 -3.8594 L27.1582 -3.875 ZM29.9941 -9.125 L31.0723 -9.125 L31.0723 0 L29.9941 0 L29.9941 -9.125 ZM38.9531 -3.5469 L38.9531 -3.0312 L33.9844 -3.0312 Q34.0625 -1.9062 34.6641 -1.3281 Q35.2656 -0.75 36.3281 -0.75 Q36.9531 -0.75 37.5391 -0.8984 Q38.125 -1.0469 38.7031 -1.3594 L38.7031 -0.3281 Q38.1094 -0.0938 37.5 0.0391 Q36.8906 0.1719 36.2656 0.1719 Q34.7031 0.1719 33.7812 -0.7422 Q32.8594 -1.6562 32.8594 -3.2188 Q32.8594 -4.8281 33.7344 -5.7734 Q34.6094 -6.7188 36.0781 -6.7188 Q37.4062 -6.7188 38.1797 -5.8672 Q38.9531 -5.0156 38.9531 -3.5469 ZM37.875 -3.875 Q37.8594 -4.75 37.375 -5.2812 Q36.8906 -5.8125 36.0938 -5.8125 Q35.1875 -5.8125 34.6484 -5.2969 Q34.1094 -4.7812 34.0312 -3.8594 L37.875 -3.875 ZM41.7891 -8.4219 L41.7891 -6.5625 L44.0078 -6.5625 L44.0078 -5.7188 L41.7891 -5.7188 L41.7891 -2.1562 Q41.7891 -1.3594 42.0078 -1.1328 Q42.2266 -0.9062 42.8984 -0.9062 L44.0078 -0.9062 L44.0078 0 L42.8984 0 Q41.6484 0 41.1719 -0.4688 Q40.6953 -0.9375 40.6953 -2.1562 L40.6953 -5.7188 L39.9141 -5.7188 L39.9141 -6.5625 L40.6953 -6.5625 L40.6953 -8.4219 L41.7891 -8.4219 ZM51.041 -3.5469 L51.041 -3.0312 L46.0723 -3.0312 Q46.1504 -1.9062 46.752 -1.3281 Q47.3535 -0.75 48.416 -0.75 Q49.041 -0.75 49.627 -0.8984 Q50.2129 -1.0469 50.791 -1.3594 L50.791 -0.3281 Q50.1973 -0.0938 49.5879 0.0391 Q48.9785 0.1719 48.3535 0.1719 Q46.791 0.1719 45.8691 -0.7422 Q44.9473 -1.6562 44.9473 -3.2188 Q44.9473 -4.8281 45.8223 -5.7734 Q46.6973 -6.7188 48.166 -6.7188 Q49.4941 -6.7188 50.2676 -5.8672 Q51.041 -5.0156 51.041 -3.5469 ZM49.9629 -3.875 Q49.9473 -4.75 49.4629 -5.2812 Q48.9785 -5.8125 48.1816 -5.8125 Q47.2754 -5.8125 46.7363 -5.2969 Q46.1973 -4.7812 46.1191 -3.8594 L49.9629 -3.875 ZM52.7207 -8.75 L53.9082 -8.75 L53.9082 -3.4375 Q53.9082 -2.0312 54.416 -1.4141 Q54.9238 -0.7969 56.0645 -0.7969 Q57.2051 -0.7969 57.7129 -1.4141 Q58.2207 -2.0312 58.2207 -3.4375 L58.2207 -8.75 L59.4082 -8.75 L59.4082 -3.2812 Q59.4082 -1.5781 58.5645 -0.7031 Q57.7207 0.1719 56.0645 0.1719 Q54.4082 0.1719 53.5645 -0.7031 Q52.7207 -1.5781 52.7207 -3.2812 L52.7207 -8.75 ZM65.7695 -6.375 L65.7695 -5.3438 Q65.3164 -5.5781 64.8242 -5.6953 Q64.332 -5.8125 63.8008 -5.8125 Q63.0039 -5.8125 62.5977 -5.5703 Q62.1914 -5.3281 62.1914 -4.8281 Q62.1914 -4.4531 62.4805 -4.2422 Q62.7695 -4.0312 63.6445 -3.8438 L64.0039 -3.75 Q65.1602 -3.5156 65.6445 -3.0625 Q66.1289 -2.6094 66.1289 -1.8125 Q66.1289 -0.8906 65.4023 -0.3594 Q64.6758 0.1719 63.4102 0.1719 Q62.8789 0.1719 62.3086 0.0703 Q61.7383 -0.0312 61.1133 -0.2344 L61.1133 -1.3594 Q61.707 -1.0469 62.2852 -0.8906 Q62.8633 -0.7344 63.4414 -0.7344 Q64.1914 -0.7344 64.6055 -0.9922 Q65.0195 -1.25 65.0195 -1.7344 Q65.0195 -2.1719 64.7227 -2.4062 Q64.4258 -2.6406 63.4258 -2.8594 L63.0508 -2.9375 Q62.0508 -3.1562 61.6055 -3.5938 Q61.1602 -4.0312 61.1602 -4.7812 Q61.1602 -5.7188 61.8164 -6.2188 Q62.4727 -6.7188 63.6758 -6.7188 Q64.2695 -6.7188 64.8008 -6.6328 Q65.332 -6.5469 65.7695 -6.375 ZM73.459 -3.5469 L73.459 -3.0312 L68.4902 -3.0312 Q68.5684 -1.9062 69.1699 -1.3281 Q69.7715 -0.75 70.834 -0.75 Q71.459 -0.75 72.0449 -0.8984 Q72.6309 -1.0469 73.209 -1.3594 L73.209 -0.3281 Q72.6152 -0.0938 72.0059 0.0391 Q71.3965 0.1719 70.7715 0.1719 Q69.209 0.1719 68.2871 -0.7422 Q67.3652 -1.6562 67.3652 -3.2188 Q67.3652 -4.8281 68.2402 -5.7734 Q69.1152 -6.7188 70.584 -6.7188 Q71.9121 -6.7188 72.6855 -5.8672 Q73.459 -5.0156 73.459 -3.5469 ZM72.3809 -3.875 Q72.3652 -4.75 71.8809 -5.2812 Q71.3965 -5.8125 70.5996 -5.8125 Q69.6934 -5.8125 69.1543 -5.2969 Q68.6152 -4.7812 68.5371 -3.8594 L72.3809 -3.875 ZM79.0293 -5.5625 Q78.8418 -5.6562 78.6309 -5.7109 Q78.4199 -5.7656 78.1543 -5.7656 Q77.248 -5.7656 76.7559 -5.1719 Q76.2637 -4.5781 76.2637 -3.4531 L76.2637 0 L75.1855 0 L75.1855 -6.5625 L76.2637 -6.5625 L76.2637 -5.5469 Q76.6074 -6.1406 77.1543 -6.4297 Q77.7012 -6.7188 78.4824 -6.7188 Q78.5918 -6.7188 78.7246 -6.7031 Q78.8574 -6.6875 79.0137 -6.6562 L79.0293 -5.5625 ZM83.1348 -7.5781 L81.5254 -3.2344 L84.7441 -3.2344 L83.1348 -7.5781 ZM82.4629 -8.75 L83.8066 -8.75 L87.1348 0 L85.9004 0 L85.1035 -2.25 L81.166 -2.25 L80.3691 0 L79.1191 0 L82.4629 -8.75 ZM93.0938 -6.3125 L93.0938 -5.2969 Q92.625 -5.5625 92.1719 -5.6875 Q91.7188 -5.8125 91.25 -5.8125 Q90.1875 -5.8125 89.6094 -5.1484 Q89.0312 -4.4844 89.0312 -3.2812 Q89.0312 -2.0781 89.6094 -1.4141 Q90.1875 -0.75 91.25 -0.75 Q91.7188 -0.75 92.1719 -0.875 Q92.625 -1 93.0938 -1.25 L93.0938 -0.25 Q92.6406 -0.0469 92.1562 0.0625 Q91.6719 0.1719 91.125 0.1719 Q89.6406 0.1719 88.7656 -0.7578 Q87.8906 -1.6875 87.8906 -3.2812 Q87.8906 -4.875 88.7734 -5.7969 Q89.6562 -6.7188 91.2031 -6.7188 Q91.6875 -6.7188 92.1641 -6.6172 Q92.6406 -6.5156 93.0938 -6.3125 ZM99.6914 -6.3125 L99.6914 -5.2969 Q99.2227 -5.5625 98.7695 -5.6875 Q98.3164 -5.8125 97.8477 -5.8125 Q96.7852 -5.8125 96.207 -5.1484 Q95.6289 -4.4844 95.6289 -3.2812 Q95.6289 -2.0781 96.207 -1.4141 Q96.7852 -0.75 97.8477 -0.75 Q98.3164 -0.75 98.7695 -0.875 Q99.2227 -1 99.6914 -1.25 L99.6914 -0.25 Q99.2383 -0.0469 98.7539 0.0625 Q98.2695 0.1719 97.7227 0.1719 Q96.2383 0.1719 95.3633 -0.7578 Q94.4883 -1.6875 94.4883 -3.2812 Q94.4883 -4.875 95.3711 -5.7969 Q96.2539 -6.7188 97.8008 -6.7188 Q98.2852 -6.7188 98.7617 -6.6172 Q99.2383 -6.5156 99.6914 -6.3125 ZM104.1016 -5.8125 Q103.2422 -5.8125 102.7344 -5.1328 Q102.2266 -4.4531 102.2266 -3.2812 Q102.2266 -2.0938 102.7266 -1.4219 Q103.2266 -0.75 104.1016 -0.75 Q104.9609 -0.75 105.4688 -1.4297 Q105.9766 -2.1094 105.9766 -3.2812 Q105.9766 -4.4375 105.4688 -5.125 Q104.9609 -5.8125 104.1016 -5.8125 ZM104.1016 -6.7188 Q105.5078 -6.7188 106.3125 -5.8047 Q107.1172 -4.8906 107.1172 -3.2812 Q107.1172 -1.6719 106.3125 -0.75 Q105.5078 0.1719 104.1016 0.1719 Q102.6953 0.1719 101.8906 -0.75 Q101.0859 -1.6719 101.0859 -3.2812 Q101.0859 -4.8906 101.8906 -5.8047 Q102.6953 -6.7188 104.1016 -6.7188 ZM108.7871 -2.5938 L108.7871 -6.5625 L109.8652 -6.5625 L109.8652 -2.625 Q109.8652 -1.7031 110.2324 -1.2344 Q110.5996 -0.7656 111.3184 -0.7656 Q112.1934 -0.7656 112.7012 -1.3203 Q113.209 -1.875 113.209 -2.8438 L113.209 -6.5625 L114.2871 -6.5625 L114.2871 0 L113.209 0 L113.209 -1.0156 Q112.8184 -0.4062 112.3027 -0.1172 Q111.7871 0.1719 111.0996 0.1719 Q109.959 0.1719 109.373 -0.5312 Q108.7871 -1.2344 108.7871 -2.5938 ZM121.9707 -3.9688 L121.9707 0 L120.8926 0 L120.8926 -3.9219 Q120.8926 -4.8594 120.5254 -5.3203 Q120.1582 -5.7812 119.4395 -5.7812 Q118.5645 -5.7812 118.0566 -5.2266 Q117.5488 -4.6719 117.5488 -3.7031 L117.5488 0 L116.4707 0 L116.4707 -6.5625 L117.5488 -6.5625 L117.5488 -5.5469 Q117.9395 -6.1406 118.4629 -6.4297 Q118.9863 -6.7188 119.6738 -6.7188 Q120.7988 -6.7188 121.3848 -6.0234 Q121.9707 -5.3281 121.9707 -3.9688 ZM125.1855 -8.4219 L125.1855 -6.5625 L127.4043 -6.5625 L127.4043 -5.7188 L125.1855 -5.7188 L125.1855 -2.1562 Q125.1855 -1.3594 125.4043 -1.1328 Q125.623 -0.9062 126.2949 -0.9062 L127.4043 -0.9062 L127.4043 0 L126.2949 0 Q125.0449 0 124.5684 -0.4688 Q124.0918 -0.9375 124.0918 -2.1562 L124.0918 -5.7188 L123.3105 -5.7188 L123.3105 -6.5625 L124.0918 -6.5625 L124.0918 -8.4219 L125.1855 -8.4219 ZM131.4062 -9.1094 Q130.625 -7.7656 130.2422 -6.4453 Q129.8594 -5.125 129.8594 -3.7656 Q129.8594 -2.4219 130.2422 -1.0938 Q130.625 0.2344 131.4062 1.5781 L130.4688 1.5781 Q129.5938 0.2031 129.1562 -1.125 Q128.7188 -2.4531 128.7188 -3.7656 Q128.7188 -5.0781 129.1562 -6.3984 Q129.5938 -7.7188 130.4688 -9.1094 L131.4062 -9.1094 ZM133.4941 -6.5625 L134.5723 -6.5625 L134.5723 0 L133.4941 0 L133.4941 -6.5625 ZM133.4941 -9.125 L134.5723 -9.125 L134.5723 -7.75 L133.4941 -7.75 L133.4941 -9.125 ZM141.1562 -5.5625 L141.1562 -9.125 L142.2344 -9.125 L142.2344 0 L141.1562 0 L141.1562 -0.9844 Q140.8125 -0.4062 140.2969 -0.1172 Q139.7812 0.1719 139.0469 0.1719 Q137.8594 0.1719 137.1094 -0.7812 Q136.3594 -1.7344 136.3594 -3.2812 Q136.3594 -4.8281 137.1094 -5.7734 Q137.8594 -6.7188 139.0469 -6.7188 Q139.7812 -6.7188 140.2969 -6.4375 Q140.8125 -6.1562 141.1562 -5.5625 ZM137.4844 -3.2812 Q137.4844 -2.0938 137.9688 -1.4141 Q138.4531 -0.7344 139.3125 -0.7344 Q140.1719 -0.7344 140.6641 -1.4141 Q141.1562 -2.0938 141.1562 -3.2812 Q141.1562 -4.4688 140.6641 -5.1406 Q140.1719 -5.8125 139.3125 -5.8125 Q138.4531 -5.8125 137.9688 -5.1406 Q137.4844 -4.4688 137.4844 -3.2812 ZM144.3672 -8.75 L145.5547 -8.75 L145.5547 -3.4375 Q145.5547 -2.0312 146.0625 -1.4141 Q146.5703 -0.7969 147.7109 -0.7969 Q148.8516 -0.7969 149.3594 -1.4141 Q149.8672 -2.0312 149.8672 -3.4375 L149.8672 -8.75 L151.0547 -8.75 L151.0547 -3.2812 Q151.0547 -1.5781 150.2109 -0.7031 Q149.3672 0.1719 147.7109 0.1719 Q146.0547 0.1719 145.2109 -0.7031 Q144.3672 -1.5781 144.3672 -3.2812 L144.3672 -8.75 ZM157.416 -6.375 L157.416 -5.3438 Q156.9629 -5.5781 156.4707 -5.6953 Q155.9785 -5.8125 155.4473 -5.8125 Q154.6504 -5.8125 154.2441 -5.5703 Q153.8379 -5.3281 153.8379 -4.8281 Q153.8379 -4.4531 154.127 -4.2422 Q154.416 -4.0312 155.291 -3.8438 L155.6504 -3.75 Q156.8066 -3.5156 157.291 -3.0625 Q157.7754 -2.6094 157.7754 -1.8125 Q157.7754 -0.8906 157.0488 -0.3594 Q156.3223 0.1719 155.0566 0.1719 Q154.5254 0.1719 153.9551 0.0703 Q153.3848 -0.0312 152.7598 -0.2344 L152.7598 -1.3594 Q153.3535 -1.0469 153.9316 -0.8906 Q154.5098 -0.7344 155.0879 -0.7344 Q155.8379 -0.7344 156.252 -0.9922 Q156.666 -1.25 156.666 -1.7344 Q156.666 -2.1719 156.3691 -2.4062 Q156.0723 -2.6406 155.0723 -2.8594 L154.6973 -2.9375 Q153.6973 -3.1562 153.252 -3.5938 Q152.8066 -4.0312 152.8066 -4.7812 Q152.8066 -5.7188 153.4629 -6.2188 Q154.1191 -6.7188 155.3223 -6.7188 Q155.916 -6.7188 156.4473 -6.6328 Q156.9785 -6.5469 157.416 -6.375 ZM165.1055 -3.5469 L165.1055 -3.0312 L160.1367 -3.0312 Q160.2148 -1.9062 160.8164 -1.3281 Q161.418 -0.75 162.4805 -0.75 Q163.1055 -0.75 163.6914 -0.8984 Q164.2773 -1.0469 164.8555 -1.3594 L164.8555 -0.3281 Q164.2617 -0.0938 163.6523 0.0391 Q163.043 0.1719 162.418 0.1719 Q160.8555 0.1719 159.9336 -0.7422 Q159.0117 -1.6562 159.0117 -3.2188 Q159.0117 -4.8281 159.8867 -5.7734 Q160.7617 -6.7188 162.2305 -6.7188 Q163.5586 -6.7188 164.332 -5.8672 Q165.1055 -5.0156 165.1055 -3.5469 ZM164.0273 -3.875 Q164.0117 -4.75 163.5273 -5.2812 Q163.043 -5.8125 162.2461 -5.8125 Q161.3398 -5.8125 160.8008 -5.2969 Q160.2617 -4.7812 160.1836 -3.8594 L164.0273 -3.875 ZM170.6758 -5.5625 Q170.4883 -5.6562 170.2773 -5.7109 Q170.0664 -5.7656 169.8008 -5.7656 Q168.8945 -5.7656 168.4023 -5.1719 Q167.9102 -4.5781 167.9102 -3.4531 L167.9102 0 L166.832 0 L166.832 -6.5625 L167.9102 -6.5625 L167.9102 -5.5469 Q168.2539 -6.1406 168.8008 -6.4297 Q169.3477 -6.7188 170.1289 -6.7188 Q170.2383 -6.7188 170.3711 -6.7031 Q170.5039 -6.6875 170.6602 -6.6562 L170.6758 -5.5625 ZM175.8926 -1.4844 L177.127 -1.4844 L177.127 0 L175.8926 0 L175.8926 -1.4844 ZM175.8926 -6.2031 L177.127 -6.2031 L177.127 -4.7188 L175.8926 -4.7188 L175.8926 -6.2031 ZM183.4688 -6.5625 L184.5469 -6.5625 L184.5469 0 L183.4688 0 L183.4688 -6.5625 ZM183.4688 -9.125 L184.5469 -9.125 L184.5469 -7.75 L183.4688 -7.75 L183.4688 -9.125 ZM192.2715 -3.9688 L192.2715 0 L191.1934 0 L191.1934 -3.9219 Q191.1934 -4.8594 190.8262 -5.3203 Q190.459 -5.7812 189.7402 -5.7812 Q188.8652 -5.7812 188.3574 -5.2266 Q187.8496 -4.6719 187.8496 -3.7031 L187.8496 0 L186.7715 0 L186.7715 -6.5625 L187.8496 -6.5625 L187.8496 -5.5469 Q188.2402 -6.1406 188.7637 -6.4297 Q189.2871 -6.7188 189.9746 -6.7188 Q191.0996 -6.7188 191.6855 -6.0234 Q192.2715 -5.3281 192.2715 -3.9688 ZM195.4863 -8.4219 L195.4863 -6.5625 L197.7051 -6.5625 L197.7051 -5.7188 L195.4863 -5.7188 L195.4863 -2.1562 Q195.4863 -1.3594 195.7051 -1.1328 Q195.9238 -0.9062 196.5957 -0.9062 L197.7051 -0.9062 L197.7051 0 L196.5957 0 Q195.3457 0 194.8691 -0.4688 Q194.3926 -0.9375 194.3926 -2.1562 L194.3926 -5.7188 L193.6113 -5.7188 L193.6113 -6.5625 L194.3926 -6.5625 L194.3926 -8.4219 L195.4863 -8.4219 ZM198.957 -9.1094 L199.8945 -9.1094 Q200.7695 -7.7188 201.207 -6.3984 Q201.6445 -5.0781 201.6445 -3.7656 Q201.6445 -2.4531 201.207 -1.125 Q200.7695 0.2031 199.8945 1.5781 L198.957 1.5781 Q199.7227 0.2344 200.1133 -1.0938 Q200.5039 -2.4219 200.5039 -3.7656 Q200.5039 -5.125 200.1133 -6.4453 Q199.7227 -7.7656 198.957 -9.1094 ZM207.8906 -1.4844 L209.125 -1.4844 L209.125 0 L207.8906 0 L207.8906 -1.4844 ZM207.8906 -6.2031 L209.125 -6.2031 L209.125 -4.7188 L207.8906 -4.7188 L207.8906 -6.2031 ZM214.7012 -6.5625 L215.8418 -6.5625 L217.8887 -1.0625 L219.9512 -6.5625 L221.0918 -6.5625 L218.623 0 L217.1543 0 L214.7012 -6.5625 ZM225.1152 -5.8125 Q224.2559 -5.8125 223.748 -5.1328 Q223.2402 -4.4531 223.2402 -3.2812 Q223.2402 -2.0938 223.7402 -1.4219 Q224.2402 -0.75 225.1152 -0.75 Q225.9746 -0.75 226.4824 -1.4297 Q226.9902 -2.1094 226.9902 -3.2812 Q226.9902 -4.4375 226.4824 -5.125 Q225.9746 -5.8125 225.1152 -5.8125 ZM225.1152 -6.7188 Q226.5215 -6.7188 227.3262 -5.8047 Q228.1309 -4.8906 228.1309 -3.2812 Q228.1309 -1.6719 227.3262 -0.75 Q226.5215 0.1719 225.1152 0.1719 Q223.709 0.1719 222.9043 -0.75 Q222.0996 -1.6719 222.0996 -3.2812 Q222.0996 -4.8906 222.9043 -5.8047 Q223.709 -6.7188 225.1152 -6.7188 ZM229.9102 -6.5625 L230.9883 -6.5625 L230.9883 0 L229.9102 0 L229.9102 -6.5625 ZM229.9102 -9.125 L230.9883 -9.125 L230.9883 -7.75 L229.9102 -7.75 L229.9102 -9.125 ZM237.5723 -5.5625 L237.5723 -9.125 L238.6504 -9.125 L238.6504 0 L237.5723 0 L237.5723 -0.9844 Q237.2285 -0.4062 236.7129 -0.1172 Q236.1973 0.1719 235.4629 0.1719 Q234.2754 0.1719 233.5254 -0.7812 Q232.7754 -1.7344 232.7754 -3.2812 Q232.7754 -4.8281 233.5254 -5.7734 Q234.2754 -6.7188 235.4629 -6.7188 Q236.1973 -6.7188 236.7129 -6.4375 Q237.2285 -6.1562 237.5723 -5.5625 ZM233.9004 -3.2812 Q233.9004 -2.0938 234.3848 -1.4141 Q234.8691 -0.7344 235.7285 -0.7344 Q236.5879 -0.7344 237.0801 -1.4141 Q237.5723 -2.0938 237.5723 -3.2812 Q237.5723 -4.4688 237.0801 -5.1406 Q236.5879 -5.8125 235.7285 -5.8125 Q234.8691 -5.8125 234.3848 -5.1406 Q233.9004 -4.4688 233.9004 -3.2812 Z"
         style="clip-path:url(#clipPath5); stroke:none;"
         id="path69"
         clip-path="url(#clipPath5)" />
    </g>
    <g
       style="text-rendering:optimizeLegibility; stroke-width:2; font-family:sans-serif;"
       transform="matrix(1.3333,0,0,1.3333,0,0) translate(249,249.9375)"
       id="g71">
      <path
         d="M5.5156 -7.5312 L5.5156 -4.2656 L8.7812 -4.2656 L8.7812 -3.2656 L5.5156 -3.2656 L5.5156 0 L4.5312 0 L4.5312 -3.2656 L1.2656 -3.2656 L1.2656 -4.2656 L4.5312 -4.2656 L4.5312 -7.5312 L5.5156 -7.5312 ZM20.6191 -3.5469 L20.6191 -3.0312 L15.6504 -3.0312 Q15.7285 -1.9062 16.3301 -1.3281 Q16.9316 -0.75 17.9941 -0.75 Q18.6191 -0.75 19.2051 -0.8984 Q19.791 -1.0469 20.3691 -1.3594 L20.3691 -0.3281 Q19.7754 -0.0938 19.166 0.0391 Q18.5566 0.1719 17.9316 0.1719 Q16.3691 0.1719 15.4473 -0.7422 Q14.5254 -1.6562 14.5254 -3.2188 Q14.5254 -4.8281 15.4004 -5.7734 Q16.2754 -6.7188 17.7441 -6.7188 Q19.0723 -6.7188 19.8457 -5.8672 Q20.6191 -5.0156 20.6191 -3.5469 ZM19.541 -3.875 Q19.5254 -4.75 19.041 -5.2812 Q18.5566 -5.8125 17.7598 -5.8125 Q16.8535 -5.8125 16.3145 -5.2969 Q15.7754 -4.7812 15.6973 -3.8594 L19.541 -3.875 ZM26.7051 -5.5625 L26.7051 -9.125 L27.7832 -9.125 L27.7832 0 L26.7051 0 L26.7051 -0.9844 Q26.3613 -0.4062 25.8457 -0.1172 Q25.3301 0.1719 24.5957 0.1719 Q23.4082 0.1719 22.6582 -0.7812 Q21.9082 -1.7344 21.9082 -3.2812 Q21.9082 -4.8281 22.6582 -5.7734 Q23.4082 -6.7188 24.5957 -6.7188 Q25.3301 -6.7188 25.8457 -6.4375 Q26.3613 -6.1562 26.7051 -5.5625 ZM23.0332 -3.2812 Q23.0332 -2.0938 23.5176 -1.4141 Q24.002 -0.7344 24.8613 -0.7344 Q25.7207 -0.7344 26.2129 -1.4141 Q26.7051 -2.0938 26.7051 -3.2812 Q26.7051 -4.4688 26.2129 -5.1406 Q25.7207 -5.8125 24.8613 -5.8125 Q24.002 -5.8125 23.5176 -5.1406 Q23.0332 -4.4688 23.0332 -3.2812 ZM29.9941 -6.5625 L31.0723 -6.5625 L31.0723 0 L29.9941 0 L29.9941 -6.5625 ZM29.9941 -9.125 L31.0723 -9.125 L31.0723 -7.75 L29.9941 -7.75 L29.9941 -9.125 ZM34.4062 -8.4219 L34.4062 -6.5625 L36.625 -6.5625 L36.625 -5.7188 L34.4062 -5.7188 L34.4062 -2.1562 Q34.4062 -1.3594 34.625 -1.1328 Q34.8438 -0.9062 35.5156 -0.9062 L36.625 -0.9062 L36.625 0 L35.5156 0 Q34.2656 0 33.7891 -0.4688 Q33.3125 -0.9375 33.3125 -2.1562 L33.3125 -5.7188 L32.5312 -5.7188 L32.5312 -6.5625 L33.3125 -6.5625 L33.3125 -8.4219 L34.4062 -8.4219 ZM37.9551 -8.75 L39.1426 -8.75 L39.1426 -3.4375 Q39.1426 -2.0312 39.6504 -1.4141 Q40.1582 -0.7969 41.2988 -0.7969 Q42.4395 -0.7969 42.9473 -1.4141 Q43.4551 -2.0312 43.4551 -3.4375 L43.4551 -8.75 L44.6426 -8.75 L44.6426 -3.2812 Q44.6426 -1.5781 43.7988 -0.7031 Q42.9551 0.1719 41.2988 0.1719 Q39.6426 0.1719 38.7988 -0.7031 Q37.9551 -1.5781 37.9551 -3.2812 L37.9551 -8.75 ZM51.0039 -6.375 L51.0039 -5.3438 Q50.5508 -5.5781 50.0586 -5.6953 Q49.5664 -5.8125 49.0352 -5.8125 Q48.2383 -5.8125 47.832 -5.5703 Q47.4258 -5.3281 47.4258 -4.8281 Q47.4258 -4.4531 47.7148 -4.2422 Q48.0039 -4.0312 48.8789 -3.8438 L49.2383 -3.75 Q50.3945 -3.5156 50.8789 -3.0625 Q51.3633 -2.6094 51.3633 -1.8125 Q51.3633 -0.8906 50.6367 -0.3594 Q49.9102 0.1719 48.6445 0.1719 Q48.1133 0.1719 47.543 0.0703 Q46.9727 -0.0312 46.3477 -0.2344 L46.3477 -1.3594 Q46.9414 -1.0469 47.5195 -0.8906 Q48.0977 -0.7344 48.6758 -0.7344 Q49.4258 -0.7344 49.8398 -0.9922 Q50.2539 -1.25 50.2539 -1.7344 Q50.2539 -2.1719 49.957 -2.4062 Q49.6602 -2.6406 48.6602 -2.8594 L48.2852 -2.9375 Q47.2852 -3.1562 46.8398 -3.5938 Q46.3945 -4.0312 46.3945 -4.7812 Q46.3945 -5.7188 47.0508 -6.2188 Q47.707 -6.7188 48.9102 -6.7188 Q49.5039 -6.7188 50.0352 -6.6328 Q50.5664 -6.5469 51.0039 -6.375 ZM58.6934 -3.5469 L58.6934 -3.0312 L53.7246 -3.0312 Q53.8027 -1.9062 54.4043 -1.3281 Q55.0059 -0.75 56.0684 -0.75 Q56.6934 -0.75 57.2793 -0.8984 Q57.8652 -1.0469 58.4434 -1.3594 L58.4434 -0.3281 Q57.8496 -0.0938 57.2402 0.0391 Q56.6309 0.1719 56.0059 0.1719 Q54.4434 0.1719 53.5215 -0.7422 Q52.5996 -1.6562 52.5996 -3.2188 Q52.5996 -4.8281 53.4746 -5.7734 Q54.3496 -6.7188 55.8184 -6.7188 Q57.1465 -6.7188 57.9199 -5.8672 Q58.6934 -5.0156 58.6934 -3.5469 ZM57.6152 -3.875 Q57.5996 -4.75 57.1152 -5.2812 Q56.6309 -5.8125 55.834 -5.8125 Q54.9277 -5.8125 54.3887 -5.2969 Q53.8496 -4.7812 53.7715 -3.8594 L57.6152 -3.875 ZM64.2637 -5.5625 Q64.0762 -5.6562 63.8652 -5.7109 Q63.6543 -5.7656 63.3887 -5.7656 Q62.4824 -5.7656 61.9902 -5.1719 Q61.498 -4.5781 61.498 -3.4531 L61.498 0 L60.4199 0 L60.4199 -6.5625 L61.498 -6.5625 L61.498 -5.5469 Q61.8418 -6.1406 62.3887 -6.4297 Q62.9355 -6.7188 63.7168 -6.7188 Q63.8262 -6.7188 63.959 -6.7031 Q64.0918 -6.6875 64.248 -6.6562 L64.2637 -5.5625 ZM66.6191 -7.7812 L66.6191 -4.4844 L68.1035 -4.4844 Q68.9316 -4.4844 69.3848 -4.9141 Q69.8379 -5.3438 69.8379 -6.1406 Q69.8379 -6.9219 69.3848 -7.3516 Q68.9316 -7.7812 68.1035 -7.7812 L66.6191 -7.7812 ZM65.4316 -8.75 L68.1035 -8.75 Q69.5879 -8.75 70.3379 -8.0859 Q71.0879 -7.4219 71.0879 -6.1406 Q71.0879 -4.8438 70.3379 -4.1797 Q69.5879 -3.5156 68.1035 -3.5156 L66.6191 -3.5156 L66.6191 0 L65.4316 0 L65.4316 -8.75 ZM78.2461 -3.5469 L78.2461 -3.0312 L73.2773 -3.0312 Q73.3555 -1.9062 73.957 -1.3281 Q74.5586 -0.75 75.6211 -0.75 Q76.2461 -0.75 76.832 -0.8984 Q77.418 -1.0469 77.9961 -1.3594 L77.9961 -0.3281 Q77.4023 -0.0938 76.793 0.0391 Q76.1836 0.1719 75.5586 0.1719 Q73.9961 0.1719 73.0742 -0.7422 Q72.1523 -1.6562 72.1523 -3.2188 Q72.1523 -4.8281 73.0273 -5.7734 Q73.9023 -6.7188 75.3711 -6.7188 Q76.6992 -6.7188 77.4727 -5.8672 Q78.2461 -5.0156 78.2461 -3.5469 ZM77.168 -3.875 Q77.1523 -4.75 76.668 -5.2812 Q76.1836 -5.8125 75.3867 -5.8125 Q74.4805 -5.8125 73.9414 -5.2969 Q73.4023 -4.7812 73.3242 -3.8594 L77.168 -3.875 ZM83.8164 -5.5625 Q83.6289 -5.6562 83.418 -5.7109 Q83.207 -5.7656 82.9414 -5.7656 Q82.0352 -5.7656 81.543 -5.1719 Q81.0508 -4.5781 81.0508 -3.4531 L81.0508 0 L79.9727 0 L79.9727 -6.5625 L81.0508 -6.5625 L81.0508 -5.5469 Q81.3945 -6.1406 81.9414 -6.4297 Q82.4883 -6.7188 83.2695 -6.7188 Q83.3789 -6.7188 83.5117 -6.7031 Q83.6445 -6.6875 83.8008 -6.6562 L83.8164 -5.5625 ZM90.0469 -5.2969 Q90.4531 -6.0312 91.0156 -6.375 Q91.5781 -6.7188 92.3438 -6.7188 Q93.375 -6.7188 93.9297 -6 Q94.4844 -5.2812 94.4844 -3.9688 L94.4844 0 L93.4062 0 L93.4062 -3.9219 Q93.4062 -4.875 93.0703 -5.3281 Q92.7344 -5.7812 92.0469 -5.7812 Q91.2031 -5.7812 90.7188 -5.2266 Q90.2344 -4.6719 90.2344 -3.7031 L90.2344 0 L89.1562 0 L89.1562 -3.9219 Q89.1562 -4.875 88.8203 -5.3281 Q88.4844 -5.7812 87.7812 -5.7812 Q86.9531 -5.7812 86.4688 -5.2266 Q85.9844 -4.6719 85.9844 -3.7031 L85.9844 0 L84.9062 0 L84.9062 -6.5625 L85.9844 -6.5625 L85.9844 -5.5469 Q86.3594 -6.1406 86.875 -6.4297 Q87.3906 -6.7188 88.0938 -6.7188 Q88.8125 -6.7188 89.3125 -6.3594 Q89.8125 -6 90.0469 -5.2969 ZM96.627 -6.5625 L97.7051 -6.5625 L97.7051 0 L96.627 0 L96.627 -6.5625 ZM96.627 -9.125 L97.7051 -9.125 L97.7051 -7.75 L96.627 -7.75 L96.627 -9.125 ZM104.1484 -6.375 L104.1484 -5.3438 Q103.6953 -5.5781 103.2031 -5.6953 Q102.7109 -5.8125 102.1797 -5.8125 Q101.3828 -5.8125 100.9766 -5.5703 Q100.5703 -5.3281 100.5703 -4.8281 Q100.5703 -4.4531 100.8594 -4.2422 Q101.1484 -4.0312 102.0234 -3.8438 L102.3828 -3.75 Q103.5391 -3.5156 104.0234 -3.0625 Q104.5078 -2.6094 104.5078 -1.8125 Q104.5078 -0.8906 103.7812 -0.3594 Q103.0547 0.1719 101.7891 0.1719 Q101.2578 0.1719 100.6875 0.0703 Q100.1172 -0.0312 99.4922 -0.2344 L99.4922 -1.3594 Q100.0859 -1.0469 100.6641 -0.8906 Q101.2422 -0.7344 101.8203 -0.7344 Q102.5703 -0.7344 102.9844 -0.9922 Q103.3984 -1.25 103.3984 -1.7344 Q103.3984 -2.1719 103.1016 -2.4062 Q102.8047 -2.6406 101.8047 -2.8594 L101.4297 -2.9375 Q100.4297 -3.1562 99.9844 -3.5938 Q99.5391 -4.0312 99.5391 -4.7812 Q99.5391 -5.7188 100.1953 -6.2188 Q100.8516 -6.7188 102.0547 -6.7188 Q102.6484 -6.7188 103.1797 -6.6328 Q103.7109 -6.5469 104.1484 -6.375 ZM110.4004 -6.375 L110.4004 -5.3438 Q109.9473 -5.5781 109.4551 -5.6953 Q108.9629 -5.8125 108.4316 -5.8125 Q107.6348 -5.8125 107.2285 -5.5703 Q106.8223 -5.3281 106.8223 -4.8281 Q106.8223 -4.4531 107.1113 -4.2422 Q107.4004 -4.0312 108.2754 -3.8438 L108.6348 -3.75 Q109.791 -3.5156 110.2754 -3.0625 Q110.7598 -2.6094 110.7598 -1.8125 Q110.7598 -0.8906 110.0332 -0.3594 Q109.3066 0.1719 108.041 0.1719 Q107.5098 0.1719 106.9395 0.0703 Q106.3691 -0.0312 105.7441 -0.2344 L105.7441 -1.3594 Q106.3379 -1.0469 106.916 -0.8906 Q107.4941 -0.7344 108.0723 -0.7344 Q108.8223 -0.7344 109.2363 -0.9922 Q109.6504 -1.25 109.6504 -1.7344 Q109.6504 -2.1719 109.3535 -2.4062 Q109.0566 -2.6406 108.0566 -2.8594 L107.6816 -2.9375 Q106.6816 -3.1562 106.2363 -3.5938 Q105.791 -4.0312 105.791 -4.7812 Q105.791 -5.7188 106.4473 -6.2188 Q107.1035 -6.7188 108.3066 -6.7188 Q108.9004 -6.7188 109.4316 -6.6328 Q109.9629 -6.5469 110.4004 -6.375 ZM112.4648 -6.5625 L113.543 -6.5625 L113.543 0 L112.4648 0 L112.4648 -6.5625 ZM112.4648 -9.125 L113.543 -9.125 L113.543 -7.75 L112.4648 -7.75 L112.4648 -9.125 ZM118.3457 -5.8125 Q117.4863 -5.8125 116.9785 -5.1328 Q116.4707 -4.4531 116.4707 -3.2812 Q116.4707 -2.0938 116.9707 -1.4219 Q117.4707 -0.75 118.3457 -0.75 Q119.2051 -0.75 119.7129 -1.4297 Q120.2207 -2.1094 120.2207 -3.2812 Q120.2207 -4.4375 119.7129 -5.125 Q119.2051 -5.8125 118.3457 -5.8125 ZM118.3457 -6.7188 Q119.752 -6.7188 120.5566 -5.8047 Q121.3613 -4.8906 121.3613 -3.2812 Q121.3613 -1.6719 120.5566 -0.75 Q119.752 0.1719 118.3457 0.1719 Q116.9395 0.1719 116.1348 -0.75 Q115.3301 -1.6719 115.3301 -3.2812 Q115.3301 -4.8906 116.1348 -5.8047 Q116.9395 -6.7188 118.3457 -6.7188 ZM128.6094 -3.9688 L128.6094 0 L127.5312 0 L127.5312 -3.9219 Q127.5312 -4.8594 127.1641 -5.3203 Q126.7969 -5.7812 126.0781 -5.7812 Q125.2031 -5.7812 124.6953 -5.2266 Q124.1875 -4.6719 124.1875 -3.7031 L124.1875 0 L123.1094 0 L123.1094 -6.5625 L124.1875 -6.5625 L124.1875 -5.5469 Q124.5781 -6.1406 125.1016 -6.4297 Q125.625 -6.7188 126.3125 -6.7188 Q127.4375 -6.7188 128.0234 -6.0234 Q128.6094 -5.3281 128.6094 -3.9688 ZM134.9336 -6.375 L134.9336 -5.3438 Q134.4805 -5.5781 133.9883 -5.6953 Q133.4961 -5.8125 132.9648 -5.8125 Q132.168 -5.8125 131.7617 -5.5703 Q131.3555 -5.3281 131.3555 -4.8281 Q131.3555 -4.4531 131.6445 -4.2422 Q131.9336 -4.0312 132.8086 -3.8438 L133.168 -3.75 Q134.3242 -3.5156 134.8086 -3.0625 Q135.293 -2.6094 135.293 -1.8125 Q135.293 -0.8906 134.5664 -0.3594 Q133.8398 0.1719 132.5742 0.1719 Q132.043 0.1719 131.4727 0.0703 Q130.9023 -0.0312 130.2773 -0.2344 L130.2773 -1.3594 Q130.8711 -1.0469 131.4492 -0.8906 Q132.0273 -0.7344 132.6055 -0.7344 Q133.3555 -0.7344 133.7695 -0.9922 Q134.1836 -1.25 134.1836 -1.7344 Q134.1836 -2.1719 133.8867 -2.4062 Q133.5898 -2.6406 132.5898 -2.8594 L132.2148 -2.9375 Q131.2148 -3.1562 130.7695 -3.5938 Q130.3242 -4.0312 130.3242 -4.7812 Q130.3242 -5.7188 130.9805 -6.2188 Q131.6367 -6.7188 132.8398 -6.7188 Q133.4336 -6.7188 133.9648 -6.6328 Q134.4961 -6.5469 134.9336 -6.375 ZM139.5918 -9.1094 Q138.8105 -7.7656 138.4277 -6.4453 Q138.0449 -5.125 138.0449 -3.7656 Q138.0449 -2.4219 138.4277 -1.0938 Q138.8105 0.2344 139.5918 1.5781 L138.6543 1.5781 Q137.7793 0.2031 137.3418 -1.125 Q136.9043 -2.4531 136.9043 -3.7656 Q136.9043 -5.0781 137.3418 -6.3984 Q137.7793 -7.7188 138.6543 -9.1094 L139.5918 -9.1094 ZM141.6797 -6.5625 L142.7578 -6.5625 L142.7578 0 L141.6797 0 L141.6797 -6.5625 ZM141.6797 -9.125 L142.7578 -9.125 L142.7578 -7.75 L141.6797 -7.75 L141.6797 -9.125 ZM149.3418 -5.5625 L149.3418 -9.125 L150.4199 -9.125 L150.4199 0 L149.3418 0 L149.3418 -0.9844 Q148.998 -0.4062 148.4824 -0.1172 Q147.9668 0.1719 147.2324 0.1719 Q146.0449 0.1719 145.2949 -0.7812 Q144.5449 -1.7344 144.5449 -3.2812 Q144.5449 -4.8281 145.2949 -5.7734 Q146.0449 -6.7188 147.2324 -6.7188 Q147.9668 -6.7188 148.4824 -6.4375 Q148.998 -6.1562 149.3418 -5.5625 ZM145.6699 -3.2812 Q145.6699 -2.0938 146.1543 -1.4141 Q146.6387 -0.7344 147.498 -0.7344 Q148.3574 -0.7344 148.8496 -1.4141 Q149.3418 -2.0938 149.3418 -3.2812 Q149.3418 -4.4688 148.8496 -5.1406 Q148.3574 -5.8125 147.498 -5.8125 Q146.6387 -5.8125 146.1543 -5.1406 Q145.6699 -4.4688 145.6699 -3.2812 ZM152.5527 -8.75 L153.7402 -8.75 L153.7402 -3.4375 Q153.7402 -2.0312 154.248 -1.4141 Q154.7559 -0.7969 155.8965 -0.7969 Q157.0371 -0.7969 157.5449 -1.4141 Q158.0527 -2.0312 158.0527 -3.4375 L158.0527 -8.75 L159.2402 -8.75 L159.2402 -3.2812 Q159.2402 -1.5781 158.3965 -0.7031 Q157.5527 0.1719 155.8965 0.1719 Q154.2402 0.1719 153.3965 -0.7031 Q152.5527 -1.5781 152.5527 -3.2812 L152.5527 -8.75 ZM165.6016 -6.375 L165.6016 -5.3438 Q165.1484 -5.5781 164.6562 -5.6953 Q164.1641 -5.8125 163.6328 -5.8125 Q162.8359 -5.8125 162.4297 -5.5703 Q162.0234 -5.3281 162.0234 -4.8281 Q162.0234 -4.4531 162.3125 -4.2422 Q162.6016 -4.0312 163.4766 -3.8438 L163.8359 -3.75 Q164.9922 -3.5156 165.4766 -3.0625 Q165.9609 -2.6094 165.9609 -1.8125 Q165.9609 -0.8906 165.2344 -0.3594 Q164.5078 0.1719 163.2422 0.1719 Q162.7109 0.1719 162.1406 0.0703 Q161.5703 -0.0312 160.9453 -0.2344 L160.9453 -1.3594 Q161.5391 -1.0469 162.1172 -0.8906 Q162.6953 -0.7344 163.2734 -0.7344 Q164.0234 -0.7344 164.4375 -0.9922 Q164.8516 -1.25 164.8516 -1.7344 Q164.8516 -2.1719 164.5547 -2.4062 Q164.2578 -2.6406 163.2578 -2.8594 L162.8828 -2.9375 Q161.8828 -3.1562 161.4375 -3.5938 Q160.9922 -4.0312 160.9922 -4.7812 Q160.9922 -5.7188 161.6484 -6.2188 Q162.3047 -6.7188 163.5078 -6.7188 Q164.1016 -6.7188 164.6328 -6.6328 Q165.1641 -6.5469 165.6016 -6.375 ZM173.291 -3.5469 L173.291 -3.0312 L168.3223 -3.0312 Q168.4004 -1.9062 169.002 -1.3281 Q169.6035 -0.75 170.666 -0.75 Q171.291 -0.75 171.877 -0.8984 Q172.4629 -1.0469 173.041 -1.3594 L173.041 -0.3281 Q172.4473 -0.0938 171.8379 0.0391 Q171.2285 0.1719 170.6035 0.1719 Q169.041 0.1719 168.1191 -0.7422 Q167.1973 -1.6562 167.1973 -3.2188 Q167.1973 -4.8281 168.0723 -5.7734 Q168.9473 -6.7188 170.416 -6.7188 Q171.7441 -6.7188 172.5176 -5.8672 Q173.291 -5.0156 173.291 -3.5469 ZM172.2129 -3.875 Q172.1973 -4.75 171.7129 -5.2812 Q171.2285 -5.8125 170.4316 -5.8125 Q169.5254 -5.8125 168.9863 -5.2969 Q168.4473 -4.7812 168.3691 -3.8594 L172.2129 -3.875 ZM178.8613 -5.5625 Q178.6738 -5.6562 178.4629 -5.7109 Q178.252 -5.7656 177.9863 -5.7656 Q177.0801 -5.7656 176.5879 -5.1719 Q176.0957 -4.5781 176.0957 -3.4531 L176.0957 0 L175.0176 0 L175.0176 -6.5625 L176.0957 -6.5625 L176.0957 -5.5469 Q176.4395 -6.1406 176.9863 -6.4297 Q177.5332 -6.7188 178.3145 -6.7188 Q178.4238 -6.7188 178.5566 -6.7031 Q178.6895 -6.6875 178.8457 -6.6562 L178.8613 -5.5625 ZM184.0781 -1.4844 L185.3125 -1.4844 L185.3125 0 L184.0781 0 L184.0781 -1.4844 ZM184.0781 -6.2031 L185.3125 -6.2031 L185.3125 -4.7188 L184.0781 -4.7188 L184.0781 -6.2031 ZM191.6543 -6.5625 L192.7324 -6.5625 L192.7324 0 L191.6543 0 L191.6543 -6.5625 ZM191.6543 -9.125 L192.7324 -9.125 L192.7324 -7.75 L191.6543 -7.75 L191.6543 -9.125 ZM200.457 -3.9688 L200.457 0 L199.3789 0 L199.3789 -3.9219 Q199.3789 -4.8594 199.0117 -5.3203 Q198.6445 -5.7812 197.9258 -5.7812 Q197.0508 -5.7812 196.543 -5.2266 Q196.0352 -4.6719 196.0352 -3.7031 L196.0352 0 L194.957 0 L194.957 -6.5625 L196.0352 -6.5625 L196.0352 -5.5469 Q196.4258 -6.1406 196.9492 -6.4297 Q197.4727 -6.7188 198.1602 -6.7188 Q199.2852 -6.7188 199.8711 -6.0234 Q200.457 -5.3281 200.457 -3.9688 ZM203.6719 -8.4219 L203.6719 -6.5625 L205.8906 -6.5625 L205.8906 -5.7188 L203.6719 -5.7188 L203.6719 -2.1562 Q203.6719 -1.3594 203.8906 -1.1328 Q204.1094 -0.9062 204.7812 -0.9062 L205.8906 -0.9062 L205.8906 0 L204.7812 0 Q203.5312 0 203.0547 -0.4688 Q202.5781 -0.9375 202.5781 -2.1562 L202.5781 -5.7188 L201.7969 -5.7188 L201.7969 -6.5625 L202.5781 -6.5625 L202.5781 -8.4219 L203.6719 -8.4219 ZM207.1426 -9.1094 L208.0801 -9.1094 Q208.9551 -7.7188 209.3926 -6.3984 Q209.8301 -5.0781 209.8301 -3.7656 Q209.8301 -2.4531 209.3926 -1.125 Q208.9551 0.2031 208.0801 1.5781 L207.1426 1.5781 Q207.9082 0.2344 208.2988 -1.0938 Q208.6895 -2.4219 208.6895 -3.7656 Q208.6895 -5.125 208.2988 -6.4453 Q207.9082 -7.7656 207.1426 -9.1094 ZM216.0762 -1.4844 L217.3105 -1.4844 L217.3105 0 L216.0762 0 L216.0762 -1.4844 ZM216.0762 -6.2031 L217.3105 -6.2031 L217.3105 -4.7188 L216.0762 -4.7188 L216.0762 -6.2031 ZM222.8867 -6.5625 L224.0273 -6.5625 L226.0742 -1.0625 L228.1367 -6.5625 L229.2773 -6.5625 L226.8086 0 L225.3398 0 L222.8867 -6.5625 ZM233.3008 -5.8125 Q232.4414 -5.8125 231.9336 -5.1328 Q231.4258 -4.4531 231.4258 -3.2812 Q231.4258 -2.0938 231.9258 -1.4219 Q232.4258 -0.75 233.3008 -0.75 Q234.1602 -0.75 234.668 -1.4297 Q235.1758 -2.1094 235.1758 -3.2812 Q235.1758 -4.4375 234.668 -5.125 Q234.1602 -5.8125 233.3008 -5.8125 ZM233.3008 -6.7188 Q234.707 -6.7188 235.5117 -5.8047 Q236.3164 -4.8906 236.3164 -3.2812 Q236.3164 -1.6719 235.5117 -0.75 Q234.707 0.1719 233.3008 0.1719 Q231.8945 0.1719 231.0898 -0.75 Q230.2852 -1.6719 230.2852 -3.2812 Q230.2852 -4.8906 231.0898 -5.8047 Q231.8945 -6.7188 233.3008 -6.7188 ZM238.0957 -6.5625 L239.1738 -6.5625 L239.1738 0 L238.0957 0 L238.0957 -6.5625 ZM238.0957 -9.125 L239.1738 -9.125 L239.1738 -7.75 L238.0957 -7.75 L238.0957 -9.125 ZM245.7578 -5.5625 L245.7578 -9.125 L246.8359 -9.125 L246.8359 0 L245.7578 0 L245.7578 -0.9844 Q245.4141 -0.4062 244.8984 -0.1172 Q244.3828 0.1719 243.6484 0.1719 Q242.4609 0.1719 241.7109 -0.7812 Q240.9609 -1.7344 240.9609 -3.2812 Q240.9609 -4.8281 241.7109 -5.7734 Q242.4609 -6.7188 243.6484 -6.7188 Q244.3828 -6.7188 244.8984 -6.4375 Q245.4141 -6.1562 245.7578 -5.5625 ZM242.0859 -3.2812 Q242.0859 -2.0938 242.5703 -1.4141 Q243.0547 -0.7344 243.9141 -0.7344 Q244.7734 -0.7344 245.2656 -1.4141 Q245.7578 -2.0938 245.7578 -3.2812 Q245.7578 -4.4688 245.2656 -5.1406 Q244.7734 -5.8125 243.9141 -5.8125 Q243.0547 -5.8125 242.5703 -5.1406 Q242.0859 -4.4688 242.0859 -3.2812 Z"
         style="clip-path:url(#clipPath6); stroke:none;"
         id="path73"
         clip-path="url(#clipPath6)" />
    </g>
    <g
       style="text-rendering:optimizeLegibility; stroke-width:2; font-family:sans-serif;"
       transform="matrix(1.3333,0,0,1.3333,0,0) translate(249,235.9688)"
       id="g75">
      <path
         d="M5.5156 -7.5312 L5.5156 -4.2656 L8.7812 -4.2656 L8.7812 -3.2656 L5.5156 -3.2656 L5.5156 0 L4.5312 0 L4.5312 -3.2656 L1.2656 -3.2656 L1.2656 -4.2656 L4.5312 -4.2656 L4.5312 -7.5312 L5.5156 -7.5312 ZM19.3223 -3.3594 Q19.3223 -4.5312 18.8379 -5.1719 Q18.3535 -5.8125 17.4785 -5.8125 Q16.6191 -5.8125 16.1348 -5.1719 Q15.6504 -4.5312 15.6504 -3.3594 Q15.6504 -2.1875 16.1348 -1.5469 Q16.6191 -0.9062 17.4785 -0.9062 Q18.3535 -0.9062 18.8379 -1.5469 Q19.3223 -2.1875 19.3223 -3.3594 ZM20.4004 -0.8125 Q20.4004 0.8594 19.6582 1.6797 Q18.916 2.5 17.3691 2.5 Q16.8066 2.5 16.2988 2.4141 Q15.791 2.3281 15.3223 2.1562 L15.3223 1.1094 Q15.791 1.3594 16.2598 1.4844 Q16.7285 1.6094 17.1973 1.6094 Q18.2598 1.6094 18.791 1.0547 Q19.3223 0.5 19.3223 -0.625 L19.3223 -1.1562 Q18.9785 -0.5781 18.4629 -0.2891 Q17.9473 0 17.2129 0 Q16.0098 0 15.2676 -0.9219 Q14.5254 -1.8438 14.5254 -3.3594 Q14.5254 -4.875 15.2676 -5.7969 Q16.0098 -6.7188 17.2129 -6.7188 Q17.9473 -6.7188 18.4629 -6.4297 Q18.9785 -6.1406 19.3223 -5.5625 L19.3223 -6.5625 L20.4004 -6.5625 L20.4004 -0.8125 ZM28.2363 -3.5469 L28.2363 -3.0312 L23.2676 -3.0312 Q23.3457 -1.9062 23.9473 -1.3281 Q24.5488 -0.75 25.6113 -0.75 Q26.2363 -0.75 26.8223 -0.8984 Q27.4082 -1.0469 27.9863 -1.3594 L27.9863 -0.3281 Q27.3926 -0.0938 26.7832 0.0391 Q26.1738 0.1719 25.5488 0.1719 Q23.9863 0.1719 23.0645 -0.7422 Q22.1426 -1.6562 22.1426 -3.2188 Q22.1426 -4.8281 23.0176 -5.7734 Q23.8926 -6.7188 25.3613 -6.7188 Q26.6895 -6.7188 27.4629 -5.8672 Q28.2363 -5.0156 28.2363 -3.5469 ZM27.1582 -3.875 Q27.1426 -4.75 26.6582 -5.2812 Q26.1738 -5.8125 25.377 -5.8125 Q24.4707 -5.8125 23.9316 -5.2969 Q23.3926 -4.7812 23.3145 -3.8594 L27.1582 -3.875 ZM31.0723 -8.4219 L31.0723 -6.5625 L33.291 -6.5625 L33.291 -5.7188 L31.0723 -5.7188 L31.0723 -2.1562 Q31.0723 -1.3594 31.291 -1.1328 Q31.5098 -0.9062 32.1816 -0.9062 L33.291 -0.9062 L33.291 0 L32.1816 0 Q30.9316 0 30.4551 -0.4688 Q29.9785 -0.9375 29.9785 -2.1562 L29.9785 -5.7188 L29.1973 -5.7188 L29.1973 -6.5625 L29.9785 -6.5625 L29.9785 -8.4219 L31.0723 -8.4219 ZM34.7461 -8.75 L35.9336 -8.75 L35.9336 -1 L40.1992 -1 L40.1992 0 L34.7461 0 L34.7461 -8.75 ZM41.3848 -6.5625 L42.4629 -6.5625 L42.4629 0 L41.3848 0 L41.3848 -6.5625 ZM41.3848 -9.125 L42.4629 -9.125 L42.4629 -7.75 L41.3848 -7.75 L41.3848 -9.125 ZM48.9062 -6.375 L48.9062 -5.3438 Q48.4531 -5.5781 47.9609 -5.6953 Q47.4688 -5.8125 46.9375 -5.8125 Q46.1406 -5.8125 45.7344 -5.5703 Q45.3281 -5.3281 45.3281 -4.8281 Q45.3281 -4.4531 45.6172 -4.2422 Q45.9062 -4.0312 46.7812 -3.8438 L47.1406 -3.75 Q48.2969 -3.5156 48.7812 -3.0625 Q49.2656 -2.6094 49.2656 -1.8125 Q49.2656 -0.8906 48.5391 -0.3594 Q47.8125 0.1719 46.5469 0.1719 Q46.0156 0.1719 45.4453 0.0703 Q44.875 -0.0312 44.25 -0.2344 L44.25 -1.3594 Q44.8438 -1.0469 45.4219 -0.8906 Q46 -0.7344 46.5781 -0.7344 Q47.3281 -0.7344 47.7422 -0.9922 Q48.1562 -1.25 48.1562 -1.7344 Q48.1562 -2.1719 47.8594 -2.4062 Q47.5625 -2.6406 46.5625 -2.8594 L46.1875 -2.9375 Q45.1875 -3.1562 44.7422 -3.5938 Q44.2969 -4.0312 44.2969 -4.7812 Q44.2969 -5.7188 44.9531 -6.2188 Q45.6094 -6.7188 46.8125 -6.7188 Q47.4062 -6.7188 47.9375 -6.6328 Q48.4688 -6.5469 48.9062 -6.375 ZM52.0488 -8.4219 L52.0488 -6.5625 L54.2676 -6.5625 L54.2676 -5.7188 L52.0488 -5.7188 L52.0488 -2.1562 Q52.0488 -1.3594 52.2676 -1.1328 Q52.4863 -0.9062 53.1582 -0.9062 L54.2676 -0.9062 L54.2676 0 L53.1582 0 Q51.9082 0 51.4316 -0.4688 Q50.9551 -0.9375 50.9551 -2.1562 L50.9551 -5.7188 L50.1738 -5.7188 L50.1738 -6.5625 L50.9551 -6.5625 L50.9551 -8.4219 L52.0488 -8.4219 ZM59.2852 -7.9531 Q57.9883 -7.9531 57.2305 -6.9922 Q56.4727 -6.0312 56.4727 -4.3594 Q56.4727 -2.7188 57.2305 -1.7578 Q57.9883 -0.7969 59.2852 -0.7969 Q60.5664 -0.7969 61.3242 -1.7578 Q62.082 -2.7188 62.082 -4.3594 Q62.082 -6.0312 61.3242 -6.9922 Q60.5664 -7.9531 59.2852 -7.9531 ZM59.2852 -8.9062 Q61.1133 -8.9062 62.2148 -7.6719 Q63.3164 -6.4375 63.3164 -4.3594 Q63.3164 -2.2969 62.2148 -1.0625 Q61.1133 0.1719 59.2852 0.1719 Q57.4414 0.1719 56.332 -1.0625 Q55.2227 -2.2969 55.2227 -4.3594 Q55.2227 -6.4375 56.332 -7.6719 Q57.4414 -8.9062 59.2852 -8.9062 ZM68.4492 -9.125 L68.4492 -8.2188 L67.418 -8.2188 Q66.8398 -8.2188 66.6133 -7.9844 Q66.3867 -7.75 66.3867 -7.1406 L66.3867 -6.5625 L68.168 -6.5625 L68.168 -5.7188 L66.3867 -5.7188 L66.3867 0 L65.3086 0 L65.3086 -5.7188 L64.2773 -5.7188 L64.2773 -6.5625 L65.3086 -6.5625 L65.3086 -7.0156 Q65.3086 -8.1094 65.8164 -8.6172 Q66.3242 -9.125 67.4336 -9.125 L68.4492 -9.125 ZM69.2676 -8.75 L70.4551 -8.75 L70.4551 -3.4375 Q70.4551 -2.0312 70.9629 -1.4141 Q71.4707 -0.7969 72.6113 -0.7969 Q73.752 -0.7969 74.2598 -1.4141 Q74.7676 -2.0312 74.7676 -3.4375 L74.7676 -8.75 L75.9551 -8.75 L75.9551 -3.2812 Q75.9551 -1.5781 75.1113 -0.7031 Q74.2676 0.1719 72.6113 0.1719 Q70.9551 0.1719 70.1113 -0.7031 Q69.2676 -1.5781 69.2676 -3.2812 L69.2676 -8.75 ZM82.3164 -6.375 L82.3164 -5.3438 Q81.8633 -5.5781 81.3711 -5.6953 Q80.8789 -5.8125 80.3477 -5.8125 Q79.5508 -5.8125 79.1445 -5.5703 Q78.7383 -5.3281 78.7383 -4.8281 Q78.7383 -4.4531 79.0273 -4.2422 Q79.3164 -4.0312 80.1914 -3.8438 L80.5508 -3.75 Q81.707 -3.5156 82.1914 -3.0625 Q82.6758 -2.6094 82.6758 -1.8125 Q82.6758 -0.8906 81.9492 -0.3594 Q81.2227 0.1719 79.957 0.1719 Q79.4258 0.1719 78.8555 0.0703 Q78.2852 -0.0312 77.6602 -0.2344 L77.6602 -1.3594 Q78.2539 -1.0469 78.832 -0.8906 Q79.4102 -0.7344 79.9883 -0.7344 Q80.7383 -0.7344 81.1523 -0.9922 Q81.5664 -1.25 81.5664 -1.7344 Q81.5664 -2.1719 81.2695 -2.4062 Q80.9727 -2.6406 79.9727 -2.8594 L79.5977 -2.9375 Q78.5977 -3.1562 78.1523 -3.5938 Q77.707 -4.0312 77.707 -4.7812 Q77.707 -5.7188 78.3633 -6.2188 Q79.0195 -6.7188 80.2227 -6.7188 Q80.8164 -6.7188 81.3477 -6.6328 Q81.8789 -6.5469 82.3164 -6.375 ZM90.0059 -3.5469 L90.0059 -3.0312 L85.0371 -3.0312 Q85.1152 -1.9062 85.7168 -1.3281 Q86.3184 -0.75 87.3809 -0.75 Q88.0059 -0.75 88.5918 -0.8984 Q89.1777 -1.0469 89.7559 -1.3594 L89.7559 -0.3281 Q89.1621 -0.0938 88.5527 0.0391 Q87.9434 0.1719 87.3184 0.1719 Q85.7559 0.1719 84.834 -0.7422 Q83.9121 -1.6562 83.9121 -3.2188 Q83.9121 -4.8281 84.7871 -5.7734 Q85.6621 -6.7188 87.1309 -6.7188 Q88.459 -6.7188 89.2324 -5.8672 Q90.0059 -5.0156 90.0059 -3.5469 ZM88.9277 -3.875 Q88.9121 -4.75 88.4277 -5.2812 Q87.9434 -5.8125 87.1465 -5.8125 Q86.2402 -5.8125 85.7012 -5.2969 Q85.1621 -4.7812 85.084 -3.8594 L88.9277 -3.875 ZM95.5762 -5.5625 Q95.3887 -5.6562 95.1777 -5.7109 Q94.9668 -5.7656 94.7012 -5.7656 Q93.7949 -5.7656 93.3027 -5.1719 Q92.8105 -4.5781 92.8105 -3.4531 L92.8105 0 L91.7324 0 L91.7324 -6.5625 L92.8105 -6.5625 L92.8105 -5.5469 Q93.1543 -6.1406 93.7012 -6.4297 Q94.248 -6.7188 95.0293 -6.7188 Q95.1387 -6.7188 95.2715 -6.7031 Q95.4043 -6.6875 95.5605 -6.6562 L95.5762 -5.5625 ZM100.8848 -6.375 L100.8848 -5.3438 Q100.4316 -5.5781 99.9395 -5.6953 Q99.4473 -5.8125 98.916 -5.8125 Q98.1191 -5.8125 97.7129 -5.5703 Q97.3066 -5.3281 97.3066 -4.8281 Q97.3066 -4.4531 97.5957 -4.2422 Q97.8848 -4.0312 98.7598 -3.8438 L99.1191 -3.75 Q100.2754 -3.5156 100.7598 -3.0625 Q101.2441 -2.6094 101.2441 -1.8125 Q101.2441 -0.8906 100.5176 -0.3594 Q99.791 0.1719 98.5254 0.1719 Q97.9941 0.1719 97.4238 0.0703 Q96.8535 -0.0312 96.2285 -0.2344 L96.2285 -1.3594 Q96.8223 -1.0469 97.4004 -0.8906 Q97.9785 -0.7344 98.5566 -0.7344 Q99.3066 -0.7344 99.7207 -0.9922 Q100.1348 -1.25 100.1348 -1.7344 Q100.1348 -2.1719 99.8379 -2.4062 Q99.541 -2.6406 98.541 -2.8594 L98.166 -2.9375 Q97.166 -3.1562 96.7207 -3.5938 Q96.2754 -4.0312 96.2754 -4.7812 Q96.2754 -5.7188 96.9316 -6.2188 Q97.5879 -6.7188 98.791 -6.7188 Q99.3848 -6.7188 99.916 -6.6328 Q100.4473 -6.5469 100.8848 -6.375 ZM105.543 -9.1094 Q104.7617 -7.7656 104.3789 -6.4453 Q103.9961 -5.125 103.9961 -3.7656 Q103.9961 -2.4219 104.3789 -1.0938 Q104.7617 0.2344 105.543 1.5781 L104.6055 1.5781 Q103.7305 0.2031 103.293 -1.125 Q102.8555 -2.4531 102.8555 -3.7656 Q102.8555 -5.0781 103.293 -6.3984 Q103.7305 -7.7188 104.6055 -9.1094 L105.543 -9.1094 ZM107.4746 -9.1094 L108.4121 -9.1094 Q109.2871 -7.7188 109.7246 -6.3984 Q110.1621 -5.0781 110.1621 -3.7656 Q110.1621 -2.4531 109.7246 -1.125 Q109.2871 0.2031 108.4121 1.5781 L107.4746 1.5781 Q108.2402 0.2344 108.6309 -1.0938 Q109.0215 -2.4219 109.0215 -3.7656 Q109.0215 -5.125 108.6309 -6.4453 Q108.2402 -7.7656 107.4746 -9.1094 ZM116.4082 -1.4844 L117.6426 -1.4844 L117.6426 0 L116.4082 0 L116.4082 -1.4844 ZM116.4082 -6.2031 L117.6426 -6.2031 L117.6426 -4.7188 L116.4082 -4.7188 L116.4082 -6.2031 ZM123.2188 -6.5625 L124.3594 -6.5625 L126.4062 -1.0625 L128.4688 -6.5625 L129.6094 -6.5625 L127.1406 0 L125.6719 0 L123.2188 -6.5625 ZM133.6328 -5.8125 Q132.7734 -5.8125 132.2656 -5.1328 Q131.7578 -4.4531 131.7578 -3.2812 Q131.7578 -2.0938 132.2578 -1.4219 Q132.7578 -0.75 133.6328 -0.75 Q134.4922 -0.75 135 -1.4297 Q135.5078 -2.1094 135.5078 -3.2812 Q135.5078 -4.4375 135 -5.125 Q134.4922 -5.8125 133.6328 -5.8125 ZM133.6328 -6.7188 Q135.0391 -6.7188 135.8438 -5.8047 Q136.6484 -4.8906 136.6484 -3.2812 Q136.6484 -1.6719 135.8438 -0.75 Q135.0391 0.1719 133.6328 0.1719 Q132.2266 0.1719 131.4219 -0.75 Q130.6172 -1.6719 130.6172 -3.2812 Q130.6172 -4.8906 131.4219 -5.8047 Q132.2266 -6.7188 133.6328 -6.7188 ZM138.4277 -6.5625 L139.5059 -6.5625 L139.5059 0 L138.4277 0 L138.4277 -6.5625 ZM138.4277 -9.125 L139.5059 -9.125 L139.5059 -7.75 L138.4277 -7.75 L138.4277 -9.125 ZM146.0898 -5.5625 L146.0898 -9.125 L147.168 -9.125 L147.168 0 L146.0898 0 L146.0898 -0.9844 Q145.7461 -0.4062 145.2305 -0.1172 Q144.7148 0.1719 143.9805 0.1719 Q142.793 0.1719 142.043 -0.7812 Q141.293 -1.7344 141.293 -3.2812 Q141.293 -4.8281 142.043 -5.7734 Q142.793 -6.7188 143.9805 -6.7188 Q144.7148 -6.7188 145.2305 -6.4375 Q145.7461 -6.1562 146.0898 -5.5625 ZM142.418 -3.2812 Q142.418 -2.0938 142.9023 -1.4141 Q143.3867 -0.7344 144.2461 -0.7344 Q145.1055 -0.7344 145.5977 -1.4141 Q146.0898 -2.0938 146.0898 -3.2812 Q146.0898 -4.4688 145.5977 -5.1406 Q145.1055 -5.8125 144.2461 -5.8125 Q143.3867 -5.8125 142.9023 -5.1406 Q142.418 -4.4688 142.418 -3.2812 Z"
         style="clip-path:url(#clipPath7); stroke:none;"
         id="path77"
         clip-path="url(#clipPath7)" />
    </g>
    <g
       style="font-family:sans-serif; text-rendering:optimizeLegibility;"
       transform="matrix(1.3333,0,0,1.3333,0,0)"
       id="g79">
      <line
         x1="239"
         x2="516"
         y1="219.9688"
         style="fill:none; clip-path:url(#clipPath2);"
         y2="219.9688"
         id="line81"
         clip-path="url(#clipPath2)" />
      <line
         x1="239"
         x2="516"
         y1="211.9688"
         style="fill:none; clip-path:url(#clipPath2);"
         y2="211.9688"
         id="line83"
         clip-path="url(#clipPath2)" />
    </g>
    <g
       style="text-rendering:optimizeLegibility; font-family:sans-serif; font-weight:bold;"
       transform="matrix(1.3333,0,0,1.3333,0,0) translate(314,206)"
       id="g85">
      <path
         d="M1.1094 -8.75 L3.3594 -8.75 L3.3594 -3.5 Q3.3594 -2.4219 3.7109 -1.9531 Q4.0625 -1.4844 4.875 -1.4844 Q5.6719 -1.4844 6.0312 -1.9531 Q6.3906 -2.4219 6.3906 -3.5 L6.3906 -8.75 L8.6406 -8.75 L8.6406 -3.5 Q8.6406 -1.6406 7.7109 -0.7344 Q6.7812 0.1719 4.875 0.1719 Q2.9688 0.1719 2.0391 -0.7344 Q1.1094 -1.6406 1.1094 -3.5 L1.1094 -8.75 ZM15.8848 -6.3594 L15.8848 -4.7656 Q15.2129 -5.0469 14.5801 -5.1875 Q13.9473 -5.3281 13.4004 -5.3281 Q12.791 -5.3281 12.502 -5.1797 Q12.2129 -5.0312 12.2129 -4.7188 Q12.2129 -4.4688 12.4316 -4.3359 Q12.6504 -4.2031 13.2285 -4.125 L13.5879 -4.0781 Q15.2129 -3.875 15.7676 -3.4062 Q16.3223 -2.9375 16.3223 -1.9375 Q16.3223 -0.8906 15.5488 -0.3594 Q14.7754 0.1719 13.2441 0.1719 Q12.5879 0.1719 11.8926 0.0703 Q11.1973 -0.0312 10.4629 -0.2344 L10.4629 -1.8281 Q11.0879 -1.5312 11.752 -1.375 Q12.416 -1.2188 13.0879 -1.2188 Q13.7129 -1.2188 14.0176 -1.3906 Q14.3223 -1.5625 14.3223 -1.9062 Q14.3223 -2.1875 14.1113 -2.3203 Q13.9004 -2.4531 13.2598 -2.5312 L12.8848 -2.5781 Q11.4941 -2.75 10.9316 -3.2266 Q10.3691 -3.7031 10.3691 -4.6719 Q10.3691 -5.7188 11.0801 -6.2188 Q11.791 -6.7188 13.2754 -6.7188 Q13.8535 -6.7188 14.4941 -6.6328 Q15.1348 -6.5469 15.8848 -6.3594 ZM24.4492 -3.2969 L24.4492 -2.7031 L19.543 -2.7031 Q19.6211 -1.9688 20.0742 -1.5938 Q20.5273 -1.2188 21.3555 -1.2188 Q22.0117 -1.2188 22.707 -1.4219 Q23.4023 -1.625 24.1367 -2.0156 L24.1367 -0.4062 Q23.3867 -0.125 22.6445 0.0234 Q21.9023 0.1719 21.1523 0.1719 Q19.3711 0.1719 18.3867 -0.7344 Q17.4023 -1.6406 17.4023 -3.2812 Q17.4023 -4.875 18.3711 -5.7969 Q19.3398 -6.7188 21.043 -6.7188 Q22.5898 -6.7188 23.5195 -5.7891 Q24.4492 -4.8594 24.4492 -3.2969 ZM22.293 -4 Q22.293 -4.5938 21.9414 -4.9609 Q21.5898 -5.3281 21.0273 -5.3281 Q20.418 -5.3281 20.0352 -4.9844 Q19.6523 -4.6406 19.5586 -4 L22.293 -4 ZM30.916 -4.7812 Q30.6348 -4.9062 30.3613 -4.9688 Q30.0879 -5.0312 29.8066 -5.0312 Q29.0098 -5.0312 28.5723 -4.5078 Q28.1348 -3.9844 28.1348 -3.0312 L28.1348 0 L26.041 0 L26.041 -6.5625 L28.1348 -6.5625 L28.1348 -5.4844 Q28.541 -6.125 29.0645 -6.4219 Q29.5879 -6.7188 30.3223 -6.7188 Q30.416 -6.7188 30.541 -6.7109 Q30.666 -6.7031 30.9004 -6.6719 L30.916 -4.7812 ZM37.3496 -1.5938 L33.834 -1.5938 L33.2715 0 L31.0059 0 L34.2402 -8.75 L36.9277 -8.75 L40.1777 0 L37.9121 0 L37.3496 -1.5938 ZM34.3965 -3.2188 L36.7871 -3.2188 L35.584 -6.7031 L34.3965 -3.2188 ZM45.6992 -5.6094 L45.6992 -9.125 L47.8086 -9.125 L47.8086 0 L45.6992 0 L45.6992 -0.9531 Q45.2773 -0.375 44.7539 -0.1016 Q44.2305 0.1719 43.543 0.1719 Q42.3242 0.1719 41.5508 -0.7969 Q40.7773 -1.7656 40.7773 -3.2812 Q40.7773 -4.7969 41.5508 -5.7578 Q42.3242 -6.7188 43.543 -6.7188 Q44.2148 -6.7188 44.7461 -6.4453 Q45.2773 -6.1719 45.6992 -5.6094 ZM44.3242 -1.3594 Q44.9961 -1.3594 45.3477 -1.8516 Q45.6992 -2.3438 45.6992 -3.2812 Q45.6992 -4.2188 45.3477 -4.7109 Q44.9961 -5.2031 44.3242 -5.2031 Q43.6523 -5.2031 43.3008 -4.7109 Q42.9492 -4.2188 42.9492 -3.2812 Q42.9492 -2.3438 43.3008 -1.8516 Q43.6523 -1.3594 44.3242 -1.3594 ZM55.9141 -5.4688 Q56.3047 -6.0781 56.8516 -6.3984 Q57.3984 -6.7188 58.0547 -6.7188 Q59.1953 -6.7188 59.7891 -6.0234 Q60.3828 -5.3281 60.3828 -4 L60.3828 0 L58.2734 0 L58.2734 -3.4219 Q58.2734 -3.5 58.2734 -3.5781 Q58.2734 -3.6562 58.2734 -3.8125 Q58.2734 -4.5156 58.0703 -4.8281 Q57.8672 -5.1406 57.4141 -5.1406 Q56.8203 -5.1406 56.4922 -4.6484 Q56.1641 -4.1562 56.1484 -3.2188 L56.1484 0 L54.0391 0 L54.0391 -3.4219 Q54.0391 -4.5156 53.8516 -4.8281 Q53.6641 -5.1406 53.1797 -5.1406 Q52.5859 -5.1406 52.2578 -4.6484 Q51.9297 -4.1562 51.9297 -3.2344 L51.9297 0 L49.8203 0 L49.8203 -6.5625 L51.9297 -6.5625 L51.9297 -5.6094 Q52.3203 -6.1562 52.8203 -6.4375 Q53.3203 -6.7188 53.9141 -6.7188 Q54.6016 -6.7188 55.125 -6.3906 Q55.6484 -6.0625 55.9141 -5.4688 ZM62.3398 -6.5625 L64.4336 -6.5625 L64.4336 0 L62.3398 0 L62.3398 -6.5625 ZM62.3398 -9.125 L64.4336 -9.125 L64.4336 -7.4062 L62.3398 -7.4062 L62.3398 -9.125 ZM73.0469 -4 L73.0469 0 L70.9375 0 L70.9375 -0.6562 L70.9375 -3.0625 Q70.9375 -3.9062 70.8984 -4.2266 Q70.8594 -4.5469 70.7656 -4.7031 Q70.6406 -4.9062 70.4297 -5.0234 Q70.2188 -5.1406 69.9531 -5.1406 Q69.2969 -5.1406 68.9219 -4.6328 Q68.5469 -4.125 68.5469 -3.2344 L68.5469 0 L66.4531 0 L66.4531 -6.5625 L68.5469 -6.5625 L68.5469 -5.6094 Q69.0156 -6.1719 69.5469 -6.4453 Q70.0781 -6.7188 70.7344 -6.7188 Q71.8594 -6.7188 72.4531 -6.0234 Q73.0469 -5.3281 73.0469 -4 ZM81.168 -8.4688 L81.168 -6.625 Q80.4492 -6.9375 79.7617 -7.1016 Q79.0742 -7.2656 78.4648 -7.2656 Q77.668 -7.2656 77.2773 -7.0469 Q76.8867 -6.8281 76.8867 -6.3594 Q76.8867 -6 77.1445 -5.8047 Q77.4023 -5.6094 78.0898 -5.4688 L79.0586 -5.2812 Q80.5117 -4.9844 81.1289 -4.3906 Q81.7461 -3.7969 81.7461 -2.6875 Q81.7461 -1.25 80.8867 -0.5391 Q80.0273 0.1719 78.2617 0.1719 Q77.4336 0.1719 76.5977 0.0156 Q75.7617 -0.1406 74.918 -0.4531 L74.918 -2.3594 Q75.7617 -1.9219 76.543 -1.6953 Q77.3242 -1.4688 78.043 -1.4688 Q78.793 -1.4688 79.1836 -1.7109 Q79.5742 -1.9531 79.5742 -2.4219 Q79.5742 -2.8281 79.3086 -3.0469 Q79.043 -3.2656 78.2461 -3.4531 L77.3711 -3.6406 Q76.0586 -3.9219 75.4492 -4.5391 Q74.8398 -5.1562 74.8398 -6.1875 Q74.8398 -7.5 75.6836 -8.2031 Q76.5273 -8.9062 78.1055 -8.9062 Q78.8398 -8.9062 79.5977 -8.7969 Q80.3555 -8.6875 81.168 -8.4688 ZM90.1855 -3.2969 L90.1855 -2.7031 L85.2793 -2.7031 Q85.3574 -1.9688 85.8105 -1.5938 Q86.2637 -1.2188 87.0918 -1.2188 Q87.748 -1.2188 88.4434 -1.4219 Q89.1387 -1.625 89.873 -2.0156 L89.873 -0.4062 Q89.123 -0.125 88.3809 0.0234 Q87.6387 0.1719 86.8887 0.1719 Q85.1074 0.1719 84.123 -0.7344 Q83.1387 -1.6406 83.1387 -3.2812 Q83.1387 -4.875 84.1074 -5.7969 Q85.0762 -6.7188 86.7793 -6.7188 Q88.3262 -6.7188 89.2559 -5.7891 Q90.1855 -4.8594 90.1855 -3.2969 ZM88.0293 -4 Q88.0293 -4.5938 87.6777 -4.9609 Q87.3262 -5.3281 86.7637 -5.3281 Q86.1543 -5.3281 85.7715 -4.9844 Q85.3887 -4.6406 85.2949 -4 L88.0293 -4 ZM96.6523 -4.7812 Q96.3711 -4.9062 96.0977 -4.9688 Q95.8242 -5.0312 95.543 -5.0312 Q94.7461 -5.0312 94.3086 -4.5078 Q93.8711 -3.9844 93.8711 -3.0312 L93.8711 0 L91.7773 0 L91.7773 -6.5625 L93.8711 -6.5625 L93.8711 -5.4844 Q94.2773 -6.125 94.8008 -6.4219 Q95.3242 -6.7188 96.0586 -6.7188 Q96.1523 -6.7188 96.2773 -6.7109 Q96.4023 -6.7031 96.6367 -6.6719 L96.6523 -4.7812 ZM96.8672 -6.5625 L98.9609 -6.5625 L100.6016 -2.0312 L102.2266 -6.5625 L104.3203 -6.5625 L101.7422 0 L99.4453 0 L96.8672 -6.5625 ZM105.5176 -6.5625 L107.6113 -6.5625 L107.6113 0 L105.5176 0 L105.5176 -6.5625 ZM105.5176 -9.125 L107.6113 -9.125 L107.6113 -7.4062 L105.5176 -7.4062 L105.5176 -9.125 ZM114.9277 -6.3594 L114.9277 -4.6406 Q114.5059 -4.9375 114.0684 -5.0781 Q113.6309 -5.2188 113.1777 -5.2188 Q112.3027 -5.2188 111.8105 -4.7109 Q111.3184 -4.2031 111.3184 -3.2812 Q111.3184 -2.3594 111.8105 -1.8438 Q112.3027 -1.3281 113.1777 -1.3281 Q113.6621 -1.3281 114.1074 -1.4766 Q114.5527 -1.625 114.9277 -1.9062 L114.9277 -0.1875 Q114.4277 -0.0156 113.9277 0.0781 Q113.4277 0.1719 112.9121 0.1719 Q111.1309 0.1719 110.1309 -0.7422 Q109.1309 -1.6562 109.1309 -3.2812 Q109.1309 -4.9062 110.1309 -5.8125 Q111.1309 -6.7188 112.9121 -6.7188 Q113.4277 -6.7188 113.9277 -6.6328 Q114.4277 -6.5469 114.9277 -6.3594 ZM123.291 -3.2969 L123.291 -2.7031 L118.3848 -2.7031 Q118.4629 -1.9688 118.916 -1.5938 Q119.3691 -1.2188 120.1973 -1.2188 Q120.8535 -1.2188 121.5488 -1.4219 Q122.2441 -1.625 122.9785 -2.0156 L122.9785 -0.4062 Q122.2285 -0.125 121.4863 0.0234 Q120.7441 0.1719 119.9941 0.1719 Q118.2129 0.1719 117.2285 -0.7344 Q116.2441 -1.6406 116.2441 -3.2812 Q116.2441 -4.875 117.2129 -5.7969 Q118.1816 -6.7188 119.8848 -6.7188 Q121.4316 -6.7188 122.3613 -5.7891 Q123.291 -4.8594 123.291 -3.2969 ZM121.1348 -4 Q121.1348 -4.5938 120.7832 -4.9609 Q120.4316 -5.3281 119.8691 -5.3281 Q119.2598 -5.3281 118.877 -4.9844 Q118.4941 -4.6406 118.4004 -4 L121.1348 -4 Z"
         style="clip-path:url(#clipPath8); stroke:none;"
         id="path87"
         clip-path="url(#clipPath8)" />
    </g>
  </g>
</svg>
