<?xml version="1.0" encoding="UTF-8" standalone="no"?>
<svg
   xmlns:dc="http://purl.org/dc/elements/1.1/"
   xmlns:cc="http://creativecommons.org/ns#"
   xmlns:rdf="http://www.w3.org/1999/02/22-rdf-syntax-ns#"
   xmlns:svg="http://www.w3.org/2000/svg"
   xmlns="http://www.w3.org/2000/svg"
   xmlns:xlink="http://www.w3.org/1999/xlink"
   xmlns:sodipodi="http://sodipodi.sourceforge.net/DTD/sodipodi-0.dtd"
   xmlns:inkscape="http://www.inkscape.org/namespaces/inkscape"
   style="fill-opacity:1; color-rendering:auto; color-interpolation:auto; stroke:black; text-rendering:auto; stroke-linecap:square; stroke-miterlimit:10; stroke-opacity:1; shape-rendering:auto; fill:black; stroke-dasharray:none; font-weight:normal; stroke-width:1; font-family:'Dialog'; font-style:normal; stroke-linejoin:miter; font-size:12; stroke-dashoffset:0; image-rendering:auto;"
   width="880"
   height="666"
   id="svg2"
   version="1.1"
   inkscape:version="0.48.5 r10040"
   sodipodi:docname="view_type_model.svg">
  <metadata
     id="metadata77">
    <rdf:RDF>
      <cc:Work
         rdf:about="">
        <dc:format>image/svg+xml</dc:format>
        <dc:type
           rdf:resource="http://purl.org/dc/dcmitype/StillImage" />
      </cc:Work>
    </rdf:RDF>
  </metadata>
  <sodipodi:namedview
     pagecolor="#ffffff"
     bordercolor="#666666"
     borderopacity="1"
     objecttolerance="10"
     gridtolerance="10"
     guidetolerance="10"
     inkscape:pageopacity="0"
     inkscape:pageshadow="2"
     inkscape:window-width="1218"
     inkscape:window-height="780"
     id="namedview75"
     showgrid="false"
     inkscape:zoom="0.35435435"
     inkscape:cx="440"
     inkscape:cy="333"
     inkscape:window-x="54"
     inkscape:window-y="-8"
     inkscape:window-maximized="1"
     inkscape:current-layer="svg2" />
  <!--Generated by the Batik Graphics2D SVG Generator-->
  <defs
     id="genericDefs">
    <linearGradient
       inkscape:collect="always"
       xlink:href="#linearGradient1"
       id="linearGradient3054"
       gradientUnits="userSpaceOnUse"
       spreadMethod="pad"
       x1="190"
       y1="209"
       x2="526"
       y2="267" />
    <linearGradient
       inkscape:collect="always"
       xlink:href="#linearGradient1"
       id="linearGradient3056"
       gradientUnits="userSpaceOnUse"
       spreadMethod="pad"
       x1="190"
       y1="209"
       x2="526"
       y2="267" />
    <linearGradient
       inkscape:collect="always"
       xlink:href="#linearGradient1"
       id="linearGradient3058"
       gradientUnits="userSpaceOnUse"
       spreadMethod="pad"
       x1="190"
       y1="209"
       x2="526"
       y2="267" />
    <defs
       id="defs1">
      <linearGradient
         spreadMethod="pad"
         id="linearGradient1"
         y2="267"
         y1="209"
         x2="526"
         gradientUnits="userSpaceOnUse"
         x1="190">
        <stop
           id="stop9"
           offset="0%"
           style="stop-opacity:1; stop-color:white;" />
        <stop
           id="stop11"
           offset="100%"
           style="stop-opacity:1; stop-color:rgb(255,255,204);" />
      </linearGradient>
      <clipPath
         id="clipPath1"
         clipPathUnits="userSpaceOnUse">
        <path
           id="path14"
           d="M0 0 L880 0 L880 666 L0 666 L0 0 Z" />
      </clipPath>
      <clipPath
         id="clipPath2"
         clipPathUnits="userSpaceOnUse">
        <path
           id="path17"
           d="M0 0 L660 0 L660 499.5 L0 499.5 L0 0 Z" />
      </clipPath>
      <clipPath
         id="clipPath3"
         clipPathUnits="userSpaceOnUse">
        <path
           id="path20"
           d="M-20 -27 L640 -27 L640 472.5 L-20 472.5 L-20 -27 Z" />
      </clipPath>
      <clipPath
         id="clipPath4"
         clipPathUnits="userSpaceOnUse">
        <path
           id="path23"
           d="M-5 -5 L655 -5 L655 494.5 L-5 494.5 L-5 -5 Z" />
      </clipPath>
      <clipPath
         id="clipPath5"
         clipPathUnits="userSpaceOnUse">
        <path
           id="path26"
           d="M-200 -255.1328 L460 -255.1328 L460 244.3672 L-200 244.3672 L-200 -255.1328 Z" />
      </clipPath>
      <clipPath
         id="clipPath6"
         clipPathUnits="userSpaceOnUse">
        <path
           id="path29"
           d="M-309.5 -225 L350.5 -225 L350.5 274.5 L-309.5 274.5 L-309.5 -225 Z" />
      </clipPath>
    </defs>
  </defs>
  <g
     id="g49"
     style="font-weight:bold;fill:#c0c0c0;fill-opacity:0.50199998;stroke:#c0c0c0;stroke-width:2;stroke-opacity:0.50199998;font-family:sans-serif"
     transform="matrix(1.3333,0,0,1.3333,6.6665,6.6665)">
    <rect
       clip-path="url(#clipPath4)"
       id="rect51"
       height="57.1875"
       style="stroke:none"
       width="336"
       y="209"
       x="190" />
    <rect
       clip-path="url(#clipPath4)"
       id="rect53"
       height="57.1875"
       style="fill:none"
       width="336"
       y="209"
       x="190" />
  </g>
  <g
     id="g55"
     style="font-weight:bold;fill:url(#linearGradient3056);stroke:url(#linearGradient3058);stroke-width:2;font-family:sans-serif"
     transform="scale(1.3333,1.3333)">
    <rect
       clip-path="url(#clipPath2)"
       id="rect57"
       height="57.1875"
       style="fill:url(#linearGradient3054);stroke:none"
       width="336"
       y="209"
       x="190" />
    <rect
       clip-path="url(#clipPath2)"
       id="rect59"
       height="57.1875"
       style="fill:none;stroke:#000000"
       width="336"
       y="209"
       x="190" />
  </g>
  <g
     id="g61"
     transform="matrix(1.3333,0,0,1.3333,266.66,340.16856)"
     style="stroke-width:2;font-family:sans-serif">
    <path
       inkscape:connector-curvature="0"
       clip-path="url(#clipPath5)"
       id="path63"
       style="stroke:none"
       d="m 0.8672,-3.0352 0,-0.8671 5.2031,0 0,0.8671 z M 11.918,2.1152 12.0527,1.1133 q 1.002,0.4746 1.9746,0.4746 1.9512,0 1.9512,-2.0684 l 0,-1.0019 q -0.6387,1.3359 -2.0976,1.3359 -1.1426,0 -1.8164,-0.832 -0.6739,-0.832 -0.6739,-2.2442 0,-1.4531 0.7676,-2.3671 0.7676,-0.9141 1.9863,-0.9141 1.0664,0 1.834,0.8672 l 0,-0.7266 1.1602,0 0,4.6289 q 0,1.4942 -0.1553,2.2119 -0.1553,0.7178 -0.583,1.1748 -0.7559,0.8028 -2.3496,0.8028 -1.1133,0 -2.1328,-0.3399 z m 4.0605,-4.3183 0,-2.6426 q -0.7617,-0.791 -1.6582,-0.791 -0.7969,0 -1.248,0.6387 -0.4512,0.6386 -0.4512,1.7519 0,2.0918 1.4707,2.0918 1.002,0 1.8867,-1.0488 z m 8.0625,1.998 q -1.1601,0.3516 -1.9863,0.3516 -1.4063,0 -2.294,-0.9346 -0.8877,-0.9346 -0.8877,-2.4228 0,-1.4473 0.7823,-2.3731 0.7822,-0.9258 2.0009,-0.9258 1.1543,0 1.7842,0.8203 0.6299,0.8204 0.6299,2.3321 L 24.0645,-3 20.0508,-3 q 0.2519,2.2676 2.2207,2.2676 0.7207,0 1.7695,-0.3867 z m -3.9375,-3.6621 2.8067,0 q 0,-1.7754 -1.3243,-1.7754 -1.33,0 -1.4824,1.7754 z m 7.8692,4.0137 q -0.8789,0 -1.3711,-0.5039 -0.4922,-0.5039 -0.4922,-1.4004 l 0,-3.7383 -0.7969,0 0,-0.8672 0.7969,0 0,-1.1543 1.1543,-0.1113 0,1.2656 1.664,0 0,0.8672 -1.664,0 0,3.5273 q 0,1.2481 1.0781,1.2481 0.2285,0 0.5566,-0.0762 l 0,0.7969 Q 28.3652,0.1465 27.9727,0.1465 z M 32.8828,0 l -3.2754,-8.6719 1.2305,0 2.6836,7.1016 2.5898,-7.1016 1.0782,0 L 34.043,0 z m 5.5137,0 0,-6.3633 1.1543,0 0,6.3633 z m 0,-7.5176 0,-1.1543 1.1543,0 0,1.1543 z m 8.1328,7.3125 q -1.1602,0.3516 -1.9863,0.3516 -1.4063,0 -2.294,-0.9346 -0.8877,-0.9346 -0.8877,-2.4228 0,-1.4473 0.7823,-2.3731 0.7822,-0.9258 2.0009,-0.9258 1.1543,0 1.7842,0.8203 0.6299,0.8204 0.6299,2.3321 L 46.5527,-3 42.5391,-3 q 0.2519,2.2676 2.2207,2.2676 0.7207,0 1.7695,-0.3867 z m -3.9375,-3.6621 2.8066,0 q 0,-1.7754 -1.3242,-1.7754 -1.3301,0 -1.4824,1.7754 z M 49.2891,0 l -1.8223,-6.3633 1.1309,0 1.3945,4.9278 1.5058,-4.9278 1.1543,0 1.3184,4.9278 1.5996,-4.9278 0.9902,0 L 54.4863,0 53.3262,0 51.9785,-4.9277 50.4551,0 z m 10.1953,0.1465 q -0.791,0 -1.9219,-0.3692 l 0,-1.0605 q 1.1309,0.5625 1.9687,0.5625 0.4981,0 0.8262,-0.2695 0.3281,-0.2696 0.3281,-0.6739 0,-0.5918 -0.9199,-0.9785 l -0.6738,-0.2871 q -1.4941,-0.6211 -1.4941,-1.7871 0,-0.832 0.5888,-1.3096 0.5889,-0.4775 1.6143,-0.4775 0.5332,0 1.3183,0.1465 l 0.2403,0.0469 0,0.9609 q -0.9668,-0.2871 -1.5352,-0.2871 -1.1133,0 -1.1133,0.8086 0,0.5215 0.8438,0.8789 l 0.5566,0.2344 q 0.9434,0.3984 1.336,0.8408 0.3925,0.4424 0.3925,1.1045 0,0.8379 -0.6621,1.3769 -0.6621,0.5391 -1.6933,0.5391 z m 6.7441,0.791 0,0.7969 q -1.2656,-0.8614 -2.0068,-2.3408 -0.7412,-1.4795 -0.7412,-3.1553 0,-1.6699 0.7412,-3.1494 0.7412,-1.4795 2.0068,-2.3409 l 0,0.7969 q -0.8613,0.9375 -1.2275,2.0156 -0.3662,1.0782 -0.3662,2.6778 0,1.6055 0.3662,2.6836 Q 65.3672,0 66.2285,0.9375 z m 4.0723,-0.791 q -1.2891,0 -2.1387,-0.9551 -0.8496,-0.9551 -0.8496,-2.4082 0,-1.5527 0.8408,-2.4199 0.8408,-0.8672 2.3467,-0.8672 0.7441,0 1.6641,0.2051 l 0,0.9668 q -0.9786,-0.2871 -1.5938,-0.2871 -0.8848,0 -1.4209,0.665 -0.5361,0.665 -0.5361,1.7725 0,1.0722 0.5508,1.7343 0.5507,0.6621 1.4414,0.6621 0.791,0 1.6289,-0.4043 l 0,0.9961 q -1.1192,0.3399 -1.9336,0.3399 z m 6.1523,0 q -1.3652,0 -2.1797,-0.9053 -0.8144,-0.9053 -0.8144,-2.4228 0,-1.5352 0.8174,-2.4288 0.8174,-0.8935 2.2177,-0.8935 1.4004,0 2.2178,0.8935 0.8174,0.8936 0.8174,2.417 0,1.5586 -0.8203,2.4493 -0.8203,0.8906 -2.2559,0.8906 z m 0.0176,-0.8672 q 1.834,0 1.834,-2.4727 0,-2.4433 -1.8106,-2.4433 -1.8046,0 -1.8046,2.4551 0,2.4609 1.7812,2.4609 z M 81.334,0 l 0,-6.3633 1.1543,0 0,1.1953 q 0.914,-1.3359 2.2383,-1.3359 0.8261,0 1.3183,0.5244 0.4922,0.5244 0.4922,1.4092 l 0,4.5703 -1.1543,0 0,-4.1953 q 0,-0.709 -0.208,-1.0108 -0.208,-0.3017 -0.6885,-0.3017 -1.0605,0 -1.998,1.3887 l 0,4.1191 z m 8.8242,-5.4961 0,5.4961 -1.1602,0 0,-5.4961 -0.9023,0 0,-0.8672 0.9023,0 0,-0.7617 q 0,-2.2734 2.0743,-2.2734 0.58,0 1.3183,0.1933 l 0,0.9141 q -0.7793,-0.2402 -1.248,-0.2402 -0.5684,0 -0.7764,0.2724 -0.208,0.2725 -0.208,1.0108 l 0,0.8847 1.5879,0 0,0.8672 z M 97.1543,0 l 0,-1.1543 1.1543,0 0,1.1543 z m 0,-5.2031 0,-1.1602 1.1543,0 0,1.1602 z M 104.584,0 l 0,-6.3633 1.1543,0 0,6.3633 z m 0,-7.5176 0,-1.1543 1.1543,0 0,1.1543 z M 108.0527,0 l 0,-6.3633 1.1543,0 0,1.1953 q 0.9141,-1.3359 2.2383,-1.3359 0.8262,0 1.3184,0.5244 0.4922,0.5244 0.4922,1.4092 l 0,4.5703 -1.1543,0 0,-4.1953 q 0,-0.709 -0.208,-1.0108 -0.2081,-0.3017 -0.6885,-0.3017 -1.0606,0 -1.9981,1.3887 l 0,4.1191 z m 9.3575,0.1465 q -0.879,0 -1.3711,-0.5039 -0.4922,-0.5039 -0.4922,-1.4004 l 0,-3.7383 -0.7969,0 0,-0.8672 0.7969,0 0,-1.1543 1.1543,-0.1113 0,1.2656 1.664,0 0,0.8672 -1.664,0 0,3.5273 q 0,1.2481 1.0781,1.2481 0.2285,0 0.5566,-0.0762 l 0,0.7969 q -0.5332,0.1465 -0.9257,0.1465 z m 2.5957,1.7344 0,-0.4336 q 0.5625,-0.1582 0.5625,-1.3301 l 0,-0.1172 -0.5625,0 0,-1.4473 1.4472,0 0,1.2539 q 0,1.9278 -1.4472,2.0743 z m 10.0605,-1.7344 q -1.2891,0 -2.1387,-0.9551 -0.8496,-0.9551 -0.8496,-2.4082 0,-1.5527 0.8408,-2.4199 0.8409,-0.8672 2.3467,-0.8672 0.7442,0 1.6641,0.2051 l 0,0.9668 q -0.9785,-0.2871 -1.5938,-0.2871 -0.8847,0 -1.4209,0.665 -0.5361,0.665 -0.5361,1.7725 0,1.0722 0.5508,1.7343 0.5508,0.6621 1.4414,0.6621 0.791,0 1.6289,-0.4043 l 0,0.9961 q -1.1191,0.3399 -1.9336,0.3399 z m 6.9434,-0.9551 q -1.0371,0.9551 -1.9981,0.9551 -0.791,0 -1.3125,-0.4951 -0.5215,-0.4952 -0.5215,-1.251 0,-1.043 0.876,-1.6025 0.876,-0.5596 2.5108,-0.5596 l 0.2753,0 0,-0.7676 q 0,-1.1074 -1.1367,-1.1074 -0.914,0 -1.9746,0.5625 l 0,-0.9551 q 1.166,-0.4746 2.1856,-0.4746 1.0664,0 1.5732,0.4805 0.5068,0.4804 0.5068,1.4941 l 0,2.8828 q 0,0.9903 0.6094,0.9903 0.0762,0 0.2227,-0.0235 l 0.082,0.6387 q -0.3926,0.1875 -0.8672,0.1875 -0.8086,0 -1.0312,-0.9551 z m -0.17,-0.6269 0,-1.6465 -0.3867,-0.0118 q -0.9492,0 -1.5351,0.3604 -0.586,0.3604 -0.586,0.9463 0,0.416 0.293,0.7031 0.293,0.2871 0.7148,0.2871 0.7207,0 1.5,-0.6386 z m 5.4258,1.582 q -0.8789,0 -1.3711,-0.5039 -0.4922,-0.5039 -0.4922,-1.4004 l 0,-3.7383 -0.7968,0 0,-0.8672 0.7968,0 0,-1.1543 1.1543,-0.1113 0,1.2656 1.6641,0 0,0.8672 -1.6641,0 0,3.5273 q 0,1.2481 1.0782,1.2481 0.2285,0 0.5566,-0.0762 l 0,0.7969 q -0.5332,0.1465 -0.9258,0.1465 z M 148.8047,0 l 0,-1.1543 1.1543,0 0,1.1543 z m 0,-5.2031 0,-1.1602 1.1543,0 0,1.1602 z M 156.2344,0 l 0,-6.3633 1.1543,0 0,6.3633 z m 0,-7.5176 0,-1.1543 1.1543,0 0,1.1543 z M 159.7031,0 l 0,-6.3633 1.1543,0 0,1.1953 q 0.9141,-1.3359 2.2383,-1.3359 0.8262,0 1.3184,0.5244 0.4921,0.5244 0.4921,1.4092 l 0,4.5703 -1.1542,0 0,-4.1953 q 0,-0.709 -0.2081,-1.0108 -0.208,-0.3017 -0.6884,-0.3017 -1.0606,0 -1.9981,1.3887 l 0,4.1191 z m 9.3574,0.1465 q -0.8789,0 -1.371,-0.5039 -0.4922,-0.5039 -0.4922,-1.4004 l 0,-3.7383 -0.7969,0 0,-0.8672 0.7969,0 0,-1.1543 1.1543,-0.1113 0,1.2656 1.664,0 0,0.8672 -1.664,0 0,3.5273 q 0,1.2481 1.0781,1.2481 0.2285,0 0.5566,-0.0762 l 0,0.7969 q -0.5332,0.1465 -0.9258,0.1465 z m 2.5957,1.7344 0,-0.4336 q 0.5626,-0.1582 0.5626,-1.3301 l 0,-0.1172 -0.5626,0 0,-1.4473 1.4473,0 0,1.2539 q 0,1.9278 -1.4473,2.0743 z m 9.4864,-1.7344 q -0.8789,0 -1.3711,-0.5039 -0.4922,-0.5039 -0.4922,-1.4004 l 0,-3.7383 -0.7969,0 0,-0.8672 0.7969,0 0,-1.1543 1.1543,-0.1113 0,1.2656 1.6641,0 0,0.8672 -1.6641,0 0,3.5273 q 0,1.2481 1.0781,1.2481 0.2285,0 0.5567,-0.0762 l 0,0.7969 q -0.5332,0.1465 -0.9258,0.1465 z m 2.9472,2.168 1.0313,-2.3145 -2.4609,-6.3633 1.248,0 1.8223,4.793 1.9453,-4.793 1.0898,0 -3.4746,8.6778 z m 5.9004,0 0,-8.6778 1.1543,0 0,1.1953 q 0.709,-1.3359 2.127,-1.3359 1.1484,0 1.8076,0.8379 0.6592,0.8379 0.6592,2.291 0,1.582 -0.7471,2.5518 -0.7471,0.9697 -1.9658,0.9697 -1.1309,0 -1.8809,-0.8672 l 0,3.0352 z m 1.1543,-3.8321 q 0.8907,0.7969 1.6993,0.7969 1.664,0 1.664,-2.5371 0,-2.2383 -1.4766,-2.2383 -0.9667,0 -1.8867,1.0488 z m 11.0625,1.3125 q -1.1601,0.3516 -1.9863,0.3516 -1.4062,0 -2.2939,-0.9346 -0.8877,-0.9346 -0.8877,-2.4228 0,-1.4473 0.7822,-2.3731 0.7822,-0.9258 2.001,-0.9258 1.1543,0 1.7841,0.8203 0.6299,0.8204 0.6299,2.3321 l -0.006,0.3574 -4.0137,0 q 0.252,2.2676 2.2207,2.2676 0.7207,0 1.7695,-0.3867 z m -3.9375,-3.6621 2.8067,0 q 0,-1.7754 -1.3242,-1.7754 -1.3301,0 -1.4825,1.7754 z m 9.92,3.8672 0,-1.1543 1.1543,0 0,1.1543 z m 0,-5.2031 0,-1.1602 1.1543,0 0,1.1602 z M 215.6191,0 l 0,-6.3633 1.1543,0 0,6.3633 z m 0,-7.5176 0,-1.1543 1.1543,0 0,1.1543 z M 219.0879,0 l 0,-6.3633 1.1543,0 0,1.1953 q 0.914,-1.3359 2.2383,-1.3359 0.8261,0 1.3183,0.5244 0.4922,0.5244 0.4922,1.4092 l 0,4.5703 -1.1543,0 0,-4.1953 q 0,-0.709 -0.208,-1.0108 -0.208,-0.3017 -0.6885,-0.3017 -1.0605,0 -1.998,1.3887 l 0,4.1191 z m 9.3574,0.1465 q -0.8789,0 -1.3711,-0.5039 -0.4922,-0.5039 -0.4922,-1.4004 l 0,-3.7383 -0.7968,0 0,-0.8672 0.7968,0 0,-1.1543 1.1543,-0.1113 0,1.2656 1.6641,0 0,0.8672 -1.6641,0 0,3.5273 q 0,1.2481 1.0782,1.2481 0.2285,0 0.5566,-0.0762 l 0,0.7969 q -0.5332,0.1465 -0.9258,0.1465 z m 2.5957,1.7344 0,-0.4336 q 0.5625,-0.1582 0.5625,-1.3301 l 0,-0.1172 -0.5625,0 0,-1.4473 1.4473,0 0,1.2539 q 0,1.9278 -1.4473,2.0743 z M 239.9355,0 l -2.3671,-6.3633 1.1543,0 1.8515,4.9512 1.9512,-4.9512 1.0781,0 L 241.0898,0 z m 8.1739,-0.8086 q -1.0371,0.9551 -1.9981,0.9551 -0.791,0 -1.3125,-0.4951 -0.5215,-0.4952 -0.5215,-1.251 0,-1.043 0.876,-1.6025 0.876,-0.5596 2.5108,-0.5596 l 0.2754,0 0,-0.7676 q 0,-1.1074 -1.1368,-1.1074 -0.914,0 -1.9746,0.5625 l 0,-0.9551 q 1.166,-0.4746 2.1856,-0.4746 1.0664,0 1.5732,0.4805 0.5069,0.4804 0.5069,1.4941 l 0,2.8828 q 0,0.9903 0.6093,0.9903 0.0762,0 0.2227,-0.0235 l 0.082,0.6387 q -0.3926,0.1875 -0.8672,0.1875 -0.8086,0 -1.0312,-0.9551 z m -0.1699,-0.6269 0,-1.6465 -0.3868,-0.0118 q -0.9492,0 -1.5351,0.3604 -0.586,0.3604 -0.586,0.9463 0,0.416 0.293,0.7031 0.293,0.2871 0.7149,0.2871 0.7207,0 1.5,-0.6386 z M 251.4551,0 l 0,-9.252 1.1543,0 0,9.252 z m 7.4297,0 0,-1.1543 1.1543,0 0,1.1543 z m 0,-5.2031 0,-1.1602 1.1543,0 0,1.1602 z M 266.3145,0 l 0,-6.3633 1.1543,0 0,6.3633 z m 0,-7.5176 0,-1.1543 1.1543,0 0,1.1543 z M 269.7832,0 l 0,-6.3633 1.1543,0 0,1.1953 q 0.9141,-1.3359 2.2383,-1.3359 0.8262,0 1.3183,0.5244 0.4922,0.5244 0.4922,1.4092 l 0,4.5703 -1.1543,0 0,-4.1953 q 0,-0.709 -0.208,-1.0108 -0.208,-0.3017 -0.6885,-0.3017 -1.0605,0 -1.998,1.3887 l 0,4.1191 z m 9.3574,0.1465 q -0.8789,0 -1.3711,-0.5039 -0.4922,-0.5039 -0.4922,-1.4004 l 0,-3.7383 -0.7968,0 0,-0.8672 0.7968,0 0,-1.1543 1.1543,-0.1113 0,1.2656 1.6641,0 0,0.8672 -1.6641,0 0,3.5273 q 0,1.2481 1.0782,1.2481 0.2285,0 0.5566,-0.0762 l 0,0.7969 q -0.5332,0.1465 -0.9258,0.1465 z m 1.8574,0.791 0,0.7969 q 1.2657,-0.8614 2.0069,-2.3408 0.7412,-1.4795 0.7412,-3.1553 0,-1.6699 -0.7412,-3.1494 -0.7412,-1.4795 -2.0069,-2.3409 l 0,0.7969 q 0.8614,0.9375 1.2276,2.0156 0.3662,1.0782 0.3662,2.6778 0,1.6055 -0.3662,2.6836 Q 281.8594,0 280.998,0.9375 z M 289.582,0 l 0,-1.1543 1.1543,0 0,1.1543 z m 0,-5.2031 0,-1.1602 1.1543,0 0,1.1602 z M 298.3301,0 l -2.3672,-6.3633 1.1543,0 1.8516,4.9512 1.9511,-4.9512 1.0781,0 L 299.4844,0 z m 7.3828,0.1465 q -1.3652,0 -2.1797,-0.9053 -0.8144,-0.9053 -0.8144,-2.4228 0,-1.5352 0.8173,-2.4288 0.8174,-0.8935 2.2178,-0.8935 1.4004,0 2.2178,0.8935 0.8174,0.8936 0.8174,2.417 0,1.5586 -0.8203,2.4493 -0.8204,0.8906 -2.2559,0.8906 z m 0.0176,-0.8672 q 1.834,0 1.834,-2.4727 0,-2.4433 -1.8106,-2.4433 -1.8047,0 -1.8047,2.4551 0,2.4609 1.7813,2.4609 z M 310.5938,0 l 0,-6.3633 1.1542,0 0,6.3633 z m 0,-7.5176 0,-1.1543 1.1542,0 0,1.1543 z M 318.1465,0 l 0,-1.1953 q -0.7031,1.3418 -2.1211,1.3418 -1.1484,0 -1.8076,-0.8379 -0.6592,-0.8379 -0.6592,-2.291 0,-1.5879 0.7471,-2.5547 0.747,-0.9668 1.9658,-0.9668 1.1308,0 1.875,0.8672 l 0,-3.6153 1.1601,0 0,9.252 z m 0,-4.8457 q -0.8965,-0.791 -1.6992,-0.791 -1.6582,0 -1.6582,2.5371 0,2.2324 1.4765,2.2324 0.961,0 1.8809,-1.0488 z" />
  </g>
  <g
     id="g65"
     transform="scale(1.3333,1.3333)"
     style="font-family:sans-serif">
    <line
       clip-path="url(#clipPath2)"
       id="line67"
       y2="239.1328"
       style="fill:none"
       y1="239.1328"
       x2="526"
       x1="190" />
    <line
       clip-path="url(#clipPath2)"
       id="line69"
       y2="231.1328"
       style="fill:none"
       y1="231.1328"
       x2="526"
       x1="190" />
  </g>
  <g
     id="g71"
     transform="matrix(1.3333,0,0,1.3333,412.65635,299.9925)"
     style="font-weight:bold;font-family:sans-serif">
    <path
       inkscape:connector-curvature="0"
       clip-path="url(#clipPath6)"
       id="path73"
       style="stroke:none"
       d="m 3.3516,0 -3.2051,-8.6719 1.9277,0 2.4844,6.709 2.4023,-6.709 1.3008,0 L 5.1621,0 z m 6.1172,0 0,-6.4336 1.7343,0 0,6.4336 z m 0,-7.5176 0,-1.4472 1.7343,0 0,1.4472 z m 9.1406,7.3008 q -1.2364,0.3633 -2.3438,0.3633 -1.6113,0 -2.5429,-0.9141 -0.9317,-0.914 -0.9317,-2.4961 0,-1.4941 0.8526,-2.4052 0.8525,-0.9112 2.2529,-0.9112 1.4121,0 2.0625,0.8906 0.6504,0.8907 0.6504,2.8184 l -3.9903,0 q 0.1758,1.8399 2.0215,1.8399 0.8731,0 1.9688,-0.4043 z m -4.0137,-3.6328 2.3086,0 q 0,-1.6465 -1.0605,-1.6465 -1.0782,0 -1.2481,1.6465 z M 21.5391,0 19.752,-6.4336 l 1.6113,0 1.2656,4.5059 1.3477,-4.5059 1.5,0 1.2129,4.5293 1.3652,-4.5293 1.207,0 L 27.3516,0 25.6875,0 24.5156,-4.4121 23.2031,0 z m 11.3671,0 0,-7.4824 -3.1054,0 0,-1.1895 8.0215,0 0,1.1895 -3.1055,0 0,7.4824 z M 39.0586,2.3145 40.5176,0 l -2.3848,-6.4336 1.8633,0 1.5937,4.3008 1.8926,-4.3008 1.3184,0 -3.9727,8.7481 z m 6.9726,0 0,-8.7481 1.7344,0 0,1.2129 q 0.668,-1.3594 2.1035,-1.3594 1.1602,0 1.8252,0.8496 0.6651,0.8496 0.6651,2.3379 0,1.6172 -0.75,2.5781 -0.75,0.961 -2.0098,0.961 -1.0137,0 -1.834,-0.7969 l 0,2.9649 z m 1.7344,-3.9961 q 0.6328,0.7031 1.3477,0.7031 0.6387,0 1.0195,-0.6182 0.3809,-0.6181 0.3809,-1.6494 0,-1.9746 -1.2715,-1.9746 -0.7676,0 -1.4766,0.9902 z m 11.4551,1.4648 q -1.2363,0.3633 -2.3437,0.3633 -1.6114,0 -2.543,-0.9141 -0.9317,-0.914 -0.9317,-2.4961 0,-1.4941 0.8526,-2.4052 0.8525,-0.9112 2.2529,-0.9112 1.4121,0 2.0625,0.8906 0.6504,0.8907 0.6504,2.8184 l -3.9902,0 q 0.1757,1.8399 2.0215,1.8399 0.873,0 1.9687,-0.4043 z m -4.0137,-3.6328 2.3086,0 q 0,-1.6465 -1.0605,-1.6465 -1.0781,0 -1.2481,1.6465 z M 61.0137,0 l 0,-8.6719 2.3906,0 2.0859,6.0996 2.1504,-6.0996 2.0977,0 0,8.6719 -1.6641,0 0,-6.5449 -2.1152,5.9648 -1.4531,0 -2.0743,-6.0527 0,6.6328 z m 13.5937,0.1465 q -1.5058,0 -2.3935,-0.9111 -0.8877,-0.9112 -0.8877,-2.4522 0,-1.5586 0.8935,-2.4609 0.8936,-0.9024 2.4287,-0.9024 1.5411,0 2.4346,0.9024 0.8936,0.9023 0.8936,2.4492 0,1.582 -0.8965,2.4785 -0.8965,0.8965 -2.4727,0.8965 z m 0.0293,-1.084 q 1.4942,0 1.4942,-2.291 0,-1.0488 -0.3955,-1.6582 -0.3956,-0.6094 -1.087,-0.6094 -0.6855,0 -1.081,0.6094 -0.3955,0.6094 -0.3955,1.6699 0,1.0488 0.3926,1.6641 0.3925,0.6152 1.0722,0.6152 z M 83.6191,0 l 0,-1.2129 q -0.6679,1.3594 -2.1035,1.3594 -1.1601,0 -1.8222,-0.8496 -0.6622,-0.8496 -0.6622,-2.3379 0,-1.6172 0.7471,-2.5781 0.7471,-0.961 2.0069,-0.961 1.0078,0 1.8339,0.7969 l 0,-3.4688 1.7403,0 0,9.252 z m 0,-4.752 q -0.6269,-0.7031 -1.3418,-0.7031 -0.6386,0 -1.0195,0.6153 -0.3808,0.6152 -0.3808,1.6523 0,1.9746 1.2656,1.9746 0.7734,0 1.4765,-0.9902 z m 9.1407,4.5352 q -1.2364,0.3633 -2.3438,0.3633 -1.6113,0 -2.543,-0.9141 -0.9316,-0.914 -0.9316,-2.4961 0,-1.4941 0.8525,-2.4052 0.8526,-0.9112 2.253,-0.9112 1.4121,0 2.0625,0.8906 0.6504,0.8907 0.6504,2.8184 l -3.9903,0 q 0.1758,1.8399 2.0215,1.8399 0.8731,0 1.9688,-0.4043 z m -4.0137,-3.6328 2.3086,0 q 0,-1.6465 -1.0606,-1.6465 -1.0781,0 -1.248,1.6465 z M 94.5527,0 l 0,-9.252 1.7344,0 0,9.252 z" />
  </g>
</svg>
