<?xml version="1.0" encoding="UTF-8" standalone="no"?>
<svg
   xmlns:dc="http://purl.org/dc/elements/1.1/"
   xmlns:cc="http://creativecommons.org/ns#"
   xmlns:rdf="http://www.w3.org/1999/02/22-rdf-syntax-ns#"
   xmlns:svg="http://www.w3.org/2000/svg"
   xmlns="http://www.w3.org/2000/svg"
   xmlns:xlink="http://www.w3.org/1999/xlink"
   xmlns:sodipodi="http://sodipodi.sourceforge.net/DTD/sodipodi-0.dtd"
   xmlns:inkscape="http://www.inkscape.org/namespaces/inkscape"
   style="fill-opacity:1; color-rendering:auto; color-interpolation:auto; stroke:black; text-rendering:auto; stroke-linecap:square; stroke-miterlimit:10; stroke-opacity:1; shape-rendering:auto; fill:black; stroke-dasharray:none; font-weight:normal; stroke-width:1; font-family:'Dialog'; font-style:normal; stroke-linejoin:miter; font-size:12; stroke-dashoffset:0; image-rendering:auto;"
   width="880"
   height="666"
   id="svg2"
   version="1.1"
   inkscape:version="0.91 r13725"
   sodipodi:docname="event_trend_response.svg">
  <metadata
     id="metadata98">
    <rdf:RDF>
      <cc:Work
         rdf:about="">
        <dc:format>image/svg+xml</dc:format>
        <dc:type
           rdf:resource="http://purl.org/dc/dcmitype/StillImage" />
      </cc:Work>
    </rdf:RDF>
  </metadata>
  <sodipodi:namedview
     pagecolor="#ffffff"
     bordercolor="#666666"
     borderopacity="1"
     objecttolerance="10"
     gridtolerance="10"
     guidetolerance="10"
     inkscape:pageopacity="0"
     inkscape:pageshadow="2"
     inkscape:window-width="640"
     inkscape:window-height="480"
     id="namedview96"
     showgrid="false"
     inkscape:zoom="0.35435435"
     inkscape:cx="440"
     inkscape:cy="333"
     inkscape:window-x="172"
     inkscape:window-y="16"
     inkscape:window-maximized="0"
     inkscape:current-layer="svg2" />
  <!--Generated by the Batik Graphics2D SVG Generator-->
  <defs
     id="genericDefs">
    <linearGradient
       inkscape:collect="always"
       xlink:href="#linearGradient1"
       id="linearGradient3426"
       gradientUnits="userSpaceOnUse"
       spreadMethod="pad"
       x1="235"
       y1="177"
       x2="412"
       y2="280" />
    <linearGradient
       inkscape:collect="always"
       xlink:href="#linearGradient1"
       id="linearGradient3428"
       gradientUnits="userSpaceOnUse"
       spreadMethod="pad"
       x1="235"
       y1="177"
       x2="412"
       y2="280" />
    <linearGradient
       inkscape:collect="always"
       xlink:href="#linearGradient1"
       id="linearGradient3430"
       gradientUnits="userSpaceOnUse"
       spreadMethod="pad"
       x1="235"
       y1="177"
       x2="412"
       y2="280" />
    <defs
       id="defs1">
      <linearGradient
         spreadMethod="pad"
         id="linearGradient1"
         y2="280"
         y1="177"
         x2="412"
         gradientUnits="userSpaceOnUse"
         x1="235">
        <stop
           id="stop9"
           offset="0%"
           style="stop-opacity:1; stop-color:white;" />
        <stop
           id="stop11"
           offset="100%"
           style="stop-opacity:1; stop-color:rgb(255,255,204);" />
      </linearGradient>
      <clipPath
         id="clipPath1"
         clipPathUnits="userSpaceOnUse">
        <path
           id="path14"
           d="M0 0 L880 0 L880 666 L0 666 L0 0 Z" />
      </clipPath>
      <clipPath
         id="clipPath2"
         clipPathUnits="userSpaceOnUse">
        <path
           id="path17"
           d="M0 0 L660 0 L660 499.5 L0 499.5 L0 0 Z" />
      </clipPath>
      <clipPath
         id="clipPath3"
         clipPathUnits="userSpaceOnUse">
        <path
           id="path20"
           d="M-20 -27 L640 -27 L640 472.5 L-20 472.5 L-20 -27 Z" />
      </clipPath>
      <clipPath
         id="clipPath4"
         clipPathUnits="userSpaceOnUse">
        <path
           id="path23"
           d="M-5 -5 L655 -5 L655 494.5 L-5 494.5 L-5 -5 Z" />
      </clipPath>
      <clipPath
         id="clipPath5"
         clipPathUnits="userSpaceOnUse">
        <path
           id="path26"
           d="M-245 -256.875 L415 -256.875 L415 242.625 L-245 242.625 L-245 -256.875 Z" />
      </clipPath>
      <clipPath
         id="clipPath6"
         clipPathUnits="userSpaceOnUse">
        <path
           id="path29"
           d="M-245 -242.9062 L415 -242.9062 L415 256.5938 L-245 256.5938 L-245 -242.9062 Z" />
      </clipPath>
      <clipPath
         id="clipPath7"
         clipPathUnits="userSpaceOnUse">
        <path
           id="path32"
           d="M-245 -228.9375 L415 -228.9375 L415 270.5625 L-245 270.5625 L-245 -228.9375 Z" />
      </clipPath>
      <clipPath
         id="clipPath8"
         clipPathUnits="userSpaceOnUse">
        <path
           id="path35"
           d="M-245 -214.9688 L415 -214.9688 L415 284.5312 L-245 284.5312 L-245 -214.9688 Z" />
      </clipPath>
      <clipPath
         id="clipPath9"
         clipPathUnits="userSpaceOnUse">
        <path
           id="path38"
           d="M-248.5 -193 L411.5 -193 L411.5 306.5 L-248.5 306.5 L-248.5 -193 Z" />
      </clipPath>
    </defs>
  </defs>
  <g
     id="g58"
     style="font-weight:bold;font-family:sans-serif;fill:#c0c0c0;fill-opacity:0.50199998;stroke:#c0c0c0;stroke-width:2;stroke-opacity:0.50199998;shape-rendering:crispEdges;text-rendering:geometricPrecision"
     transform="matrix(1.3333,0,0,1.3333,6.6665,6.6665)">
    <rect
       clip-path="url(#clipPath4)"
       id="rect60"
       height="102.4688"
       style="stroke:none"
       width="177"
       y="177"
       x="235" />
    <rect
       clip-path="url(#clipPath4)"
       id="rect62"
       height="102.4688"
       style="fill:none"
       width="177"
       y="177"
       x="235" />
  </g>
  <g
     id="g64"
     style="font-weight:bold;font-family:sans-serif;fill:url(#linearGradient3428);stroke:url(#linearGradient3430);stroke-width:2;shape-rendering:crispEdges;text-rendering:geometricPrecision"
     transform="scale(1.3333,1.3333)">
    <rect
       clip-path="url(#clipPath2)"
       id="rect66"
       height="102.4688"
       style="fill:url(#linearGradient3426);stroke:none"
       width="177"
       y="177"
       x="235" />
    <rect
       clip-path="url(#clipPath2)"
       id="rect68"
       height="102.4688"
       style="fill:none;stroke:#000000"
       width="177"
       y="177"
       x="235" />
  </g>
  <g
     id="g70"
     transform="matrix(1.3333,0,0,1.3333,326.6585,342.49144)"
     style="font-family:sans-serif;stroke-width:2;text-rendering:optimizeLegibility">
    <path
       inkscape:connector-curvature="0"
       clip-path="url(#clipPath5)"
       id="path72"
       style="stroke:none"
       d="m 0.5938,-3.7656 3.1562,0 0,0.9531 -3.1562,0 0,-0.9531 z m 13.7851,-1.5313 q 0.4063,-0.7343 0.9688,-1.0781 0.5625,-0.3438 1.3281,-0.3438 1.0312,0 1.5859,0.7188 0.5547,0.7188 0.5547,2.0312 l 0,3.9688 -1.0781,0 0,-3.9219 q 0,-0.9531 -0.336,-1.4062 -0.3359,-0.4531 -1.0234,-0.4531 -0.8437,0 -1.3281,0.5546 -0.4844,0.5547 -0.4844,1.5235 l 0,3.7031 -1.0781,0 0,-3.9219 q 0,-0.9531 -0.336,-1.4062 -0.3359,-0.4531 -1.039,-0.4531 -0.8281,0 -1.3125,0.5546 -0.4844,0.5547 -0.4844,1.5235 l 0,3.7031 -1.0781,0 0,-6.5625 1.0781,0 0,1.0156 q 0.375,-0.5937 0.8906,-0.8828 0.5157,-0.2891 1.2188,-0.2891 0.7187,0 1.2187,0.3594 0.5,0.3594 0.7344,1.0625 z m 9.5645,2 q -1.2969,0 -1.8047,0.2969 -0.5078,0.2969 -0.5078,1.0156 0,0.5782 0.3828,0.9141 0.3828,0.3359 1.0234,0.3359 0.9063,0 1.4453,-0.6328 Q 25.0215,-2 25.0215,-3.0625 l 0,-0.2344 -1.0781,0 z m 2.1562,-0.4531 0,3.75 -1.0781,0 0,-1 q -0.375,0.5938 -0.9219,0.8828 -0.5469,0.2891 -1.3437,0.2891 -1.0157,0 -1.6094,-0.5703 -0.5938,-0.5704 -0.5938,-1.5078 0,-1.1094 0.7422,-1.6719 0.7422,-0.5625 2.211,-0.5625 l 1.5156,0 0,-0.1094 q 0,-0.75 -0.4922,-1.1562 -0.4922,-0.4063 -1.3672,-0.4063 -0.5625,0 -1.1016,0.1406 -0.539,0.1407 -1.0234,0.4063 l 0,-1 q 0.5938,-0.2344 1.1484,-0.3438 0.5547,-0.1094 1.086,-0.1094 1.4219,0 2.125,0.7344 0.7031,0.7344 0.7031,2.2344 z m 4.9473,4.3594 Q 30.5938,1.7812 30.1562,2.1406 29.7188,2.5 29,2.5 l -0.8594,0 0,-0.9062 0.625,0 q 0.4532,0 0.6953,-0.211 Q 29.7031,1.1719 30,0.3906 l 0.2031,-0.5 -2.6562,-6.4531 1.1406,0 2.0469,5.125 2.0625,-5.125 1.1406,0 -2.8906,7.1719 z m 9.0859,-3.8906 q 0,-1.1876 -0.4922,-1.8594 -0.4922,-0.6719 -1.3359,-0.6719 -0.8594,0 -1.3516,0.6719 -0.4922,0.6718 -0.4922,1.8594 0,1.1874 0.4922,1.8671 0.4922,0.6797 1.3516,0.6797 0.8437,0 1.3359,-0.6797 0.4922,-0.6797 0.4922,-1.8671 z m -3.6719,-2.2813 q 0.3438,-0.5937 0.8594,-0.875 0.5156,-0.2813 1.2344,-0.2813 1.2031,0 1.9531,0.9454 0.75,0.9453 0.75,2.4922 0,1.5468 -0.75,2.5 -0.75,0.9531 -1.9531,0.9531 -0.7188,0 -1.2344,-0.2891 -0.5156,-0.289 -0.8594,-0.8672 l 0,0.9844 -1.0781,0 0,-9.125 1.0781,0 0,3.5625 z m 12.1953,2.0156 0,0.5157 -4.9687,0 q 0.0781,1.125 0.6797,1.7031 0.6016,0.5781 1.664,0.5781 0.625,0 1.211,-0.1484 0.5859,-0.1485 1.164,-0.461 l 0,1.0313 q -0.5937,0.2343 -1.2031,0.3672 -0.6093,0.1328 -1.2343,0.1328 -1.5626,0 -2.4844,-0.9141 -0.9219,-0.914 -0.9219,-2.4766 0,-1.6093 0.875,-2.5546 0.875,-0.9454 2.3437,-0.9454 1.3282,0 2.1016,0.8516 0.7734,0.8516 0.7734,2.3203 z M 47.5781,-3.875 q -0.0156,-0.875 -0.5,-1.4062 -0.4843,-0.5313 -1.2812,-0.5313 -0.9063,0 -1.4453,0.5156 -0.5391,0.5157 -0.6172,1.4375 l 3.8437,-0.0156 z m 6.9317,2.3906 1.2343,0 0,1.4844 -1.2343,0 0,-1.4844 z m 0,-4.7187 1.2343,0 0,1.4843 -1.2343,0 0,-1.4843 z m 7.5761,-0.3594 1.0782,0 0,6.5625 -1.0782,0 0,-6.5625 z m 0,-2.5625 1.0782,0 0,1.375 -1.0782,0 0,-1.375 z m 8.8028,5.1562 0,3.9688 -1.0782,0 0,-3.9219 q 0,-0.9375 -0.3671,-1.3984 -0.3672,-0.4609 -1.086,-0.4609 -0.875,0 -1.3828,0.5546 -0.5078,0.5547 -0.5078,1.5235 l 0,3.7031 -1.0781,0 0,-6.5625 1.0781,0 0,1.0156 q 0.3906,-0.5937 0.9141,-0.8828 0.5234,-0.2891 1.2109,-0.2891 1.125,0 1.7109,0.6954 0.586,0.6953 0.586,2.0546 z m 3.2148,-4.4531 0,1.8594 2.2188,0 0,0.8437 -2.2188,0 0,3.5626 q 0,0.7968 0.2188,1.0234 0.2187,0.2266 0.8906,0.2266 l 1.1094,0 0,0.9062 -1.1094,0 q -1.25,0 -1.7266,-0.4688 -0.4765,-0.4687 -0.4765,-1.6874 l 0,-3.5626 -0.7813,0 0,-0.8437 0.7813,0 0,-1.8594 1.0937,0 z" />
  </g>
  <g
     id="g74"
     transform="matrix(1.3333,0,0,1.3333,326.6585,323.86684)"
     style="font-family:sans-serif;stroke-width:2;text-rendering:optimizeLegibility">
    <path
       inkscape:connector-curvature="0"
       clip-path="url(#clipPath6)"
       id="path76"
       style="stroke:none"
       d="m 0.5938,-3.7656 3.1562,0 0,0.9531 -3.1562,0 0,-0.9531 z m 13.0039,-1.7969 0,-3.5625 1.0781,0 0,9.125 -1.0781,0 0,-0.9844 q -0.3438,0.5782 -0.8594,0.8672 -0.5156,0.2891 -1.25,0.2891 -1.1875,0 -1.9375,-0.9531 -0.75,-0.9532 -0.75,-2.5 0,-1.5469 0.75,-2.4922 0.75,-0.9454 1.9375,-0.9454 0.7344,0 1.25,0.2813 0.5156,0.2813 0.8594,0.875 z m -3.6719,2.2813 q 0,1.1874 0.4844,1.8671 0.4843,0.6797 1.3437,0.6797 0.8594,0 1.3516,-0.6797 0.4922,-0.6797 0.4922,-1.8671 0,-1.1876 -0.4922,-1.8594 -0.4922,-0.6719 -1.3516,-0.6719 -0.8594,0 -1.3437,0.6719 -0.4844,0.6718 -0.4844,1.8594 z m 12.5859,-0.2657 0,0.5157 -4.9687,0 q 0.0781,1.125 0.6797,1.7031 0.6015,0.5781 1.664,0.5781 0.625,0 1.211,-0.1484 0.5859,-0.1485 1.164,-0.461 l 0,1.0313 q -0.5937,0.2343 -1.2031,0.3672 -0.6094,0.1328 -1.2344,0.1328 -1.5625,0 -2.4844,-0.9141 -0.9218,-0.914 -0.9218,-2.4766 0,-1.6093 0.875,-2.5546 0.875,-0.9454 2.3437,-0.9454 1.3281,0 2.1016,0.8516 0.7734,0.8516 0.7734,2.3203 z M 21.4336,-3.875 q -0.0156,-0.875 -0.5,-1.4062 -0.4844,-0.5313 -1.2813,-0.5313 -0.9062,0 -1.4453,0.5156 -0.539,0.5157 -0.6172,1.4375 l 3.8438,-0.0156 z m 7.5703,-2.4375 0,1.0156 q -0.4687,-0.2656 -0.9219,-0.3906 -0.4531,-0.125 -0.9218,-0.125 -1.0625,0 -1.6407,0.6641 -0.5781,0.664 -0.5781,1.8672 0,1.2031 0.5781,1.8671 0.5782,0.6641 1.6407,0.6641 0.4687,0 0.9218,-0.125 Q 28.5352,-1 29.0039,-1.25 l 0,1 q -0.4531,0.2031 -0.9375,0.3125 -0.4844,0.1094 -1.0312,0.1094 -1.4844,0 -2.3594,-0.9297 -0.875,-0.9297 -0.875,-2.5234 0,-1.5938 0.8828,-2.5157 0.8828,-0.9219 2.4297,-0.9219 0.4844,0 0.9609,0.1016 0.4766,0.1016 0.9297,0.3047 z m 1.8633,-2.8125 1.0781,0 0,9.125 -1.0781,0 0,-9.125 z m 3.334,2.5625 1.0781,0 0,6.5625 -1.0781,0 0,-6.5625 z m 0,-2.5625 1.0781,0 0,1.375 -1.0781,0 0,-1.375 z m 8.8027,5.1562 0,3.9688 -1.0781,0 0,-3.9219 q 0,-0.9375 -0.3672,-1.3984 -0.3672,-0.4609 -1.0859,-0.4609 -0.875,0 -1.3829,0.5546 -0.5078,0.5547 -0.5078,1.5235 l 0,3.7031 -1.0781,0 0,-6.5625 1.0781,0 0,1.0156 q 0.3907,-0.5937 0.9141,-0.8828 0.5234,-0.2891 1.2109,-0.2891 1.125,0 1.711,0.6954 0.5859,0.6953 0.5859,2.0546 z m 7.7617,0.4219 0,0.5157 -4.9687,0 q 0.0781,1.125 0.6797,1.7031 0.6015,0.5781 1.664,0.5781 0.625,0 1.211,-0.1484 0.5859,-0.1485 1.164,-0.461 l 0,1.0313 q -0.5937,0.2343 -1.2031,0.3672 -0.6094,0.1328 -1.2344,0.1328 -1.5625,0 -2.4843,-0.9141 -0.9219,-0.914 -0.9219,-2.4766 0,-1.6093 0.875,-2.5546 0.875,-0.9454 2.3437,-0.9454 1.3282,0 2.1016,0.8516 0.7734,0.8516 0.7734,2.3203 z M 49.6875,-3.875 q -0.0156,-0.875 -0.5,-1.4062 -0.4844,-0.5313 -1.2813,-0.5313 -0.9062,0 -1.4453,0.5156 -0.539,0.5157 -0.6171,1.4375 l 3.8437,-0.0156 z m 7.1641,-1.6875 0,-3.5625 1.0781,0 0,9.125 -1.0781,0 0,-0.9844 q -0.3438,0.5782 -0.8594,0.8672 -0.5156,0.2891 -1.25,0.2891 -1.1875,0 -1.9375,-0.9531 -0.75,-0.9532 -0.75,-2.5 0,-1.5469 0.75,-2.4922 0.75,-0.9454 1.9375,-0.9454 0.7344,0 1.25,0.2813 0.5156,0.2813 0.8594,0.875 z m -3.6719,2.2813 q 0,1.1874 0.4844,1.8671 0.4843,0.6797 1.3437,0.6797 0.8594,0 1.3516,-0.6797 0.4922,-0.6797 0.4922,-1.8671 0,-1.1876 -0.4922,-1.8594 -0.4922,-0.6719 -1.3516,-0.6719 -0.8594,0 -1.3437,0.6719 -0.4844,0.6718 -0.4844,1.8594 z m 11.0566,1.7968 1.2344,0 0,1.4844 -1.2344,0 0,-1.4844 z m 0,-4.7187 1.2344,0 0,1.4843 -1.2344,0 0,-1.4843 z m 7.5762,-0.3594 1.0781,0 0,6.5625 -1.0781,0 0,-6.5625 z m 0,-2.5625 1.0781,0 0,1.375 -1.0781,0 0,-1.375 z m 8.8027,5.1562 0,3.9688 -1.0781,0 0,-3.9219 q 0,-0.9375 -0.3672,-1.3984 -0.3672,-0.4609 -1.0859,-0.4609 -0.875,0 -1.3828,0.5546 -0.5078,0.5547 -0.5078,1.5235 l 0,3.7031 -1.0782,0 0,-6.5625 1.0782,0 0,1.0156 q 0.3906,-0.5937 0.914,-0.8828 0.5235,-0.2891 1.211,-0.2891 1.125,0 1.7109,0.6954 0.5859,0.6953 0.5859,2.0546 z m 3.2149,-4.4531 0,1.8594 2.2187,0 0,0.8437 -2.2187,0 0,3.5626 q 0,0.7968 0.2187,1.0234 0.2188,0.2266 0.8907,0.2266 l 1.1093,0 0,0.9062 -1.1093,0 q -1.25,0 -1.7266,-0.4688 -0.4766,-0.4687 -0.4766,-1.6874 l 0,-3.5626 -0.7812,0 0,-0.8437 0.7812,0 0,-1.8594 1.0938,0 z" />
  </g>
  <g
     id="g78"
     transform="matrix(1.3333,0,0,1.3333,326.6585,305.24237)"
     style="font-family:sans-serif;stroke-width:2;text-rendering:optimizeLegibility">
    <path
       inkscape:connector-curvature="0"
       clip-path="url(#clipPath7)"
       id="path80"
       style="stroke:none"
       d="m 0.5938,-3.7656 3.1562,0 0,0.9531 -3.1562,0 0,-0.9531 z m 11.6601,0.4687 q -1.2969,0 -1.8047,0.2969 -0.5078,0.2969 -0.5078,1.0156 0,0.5782 0.3828,0.9141 0.3828,0.3359 1.0235,0.3359 0.9062,0 1.4453,-0.6328 Q 13.332,-2 13.332,-3.0625 l 0,-0.2344 -1.0781,0 z m 2.1563,-0.4531 0,3.75 -1.0782,0 0,-1 q -0.375,0.5938 -0.9218,0.8828 -0.5469,0.2891 -1.3438,0.2891 -1.0156,0 -1.6094,-0.5703 -0.5937,-0.5704 -0.5937,-1.5078 0,-1.1094 0.7422,-1.6719 0.7422,-0.5625 2.2109,-0.5625 l 1.5156,0 0,-0.1094 q 0,-0.75 -0.4922,-1.1562 -0.4921,-0.4063 -1.3671,-0.4063 -0.5625,0 -1.1016,0.1406 -0.5391,0.1407 -1.0234,0.4063 l 0,-1 q 0.5937,-0.2344 1.1484,-0.3438 0.5547,-0.1094 1.0859,-0.1094 1.4219,0 2.125,0.7344 0.7032,0.7344 0.7032,2.2344 z m 3.291,-4.6719 0,1.8594 2.2187,0 0,0.8437 -2.2187,0 0,3.5626 q 0,0.7968 0.2187,1.0234 0.2188,0.2266 0.8906,0.2266 l 1.1094,0 0,0.9062 -1.1094,0 q -1.25,0 -1.7265,-0.4688 -0.4766,-0.4687 -0.4766,-1.6874 l 0,-3.5626 -0.7812,0 0,-0.8437 0.7812,0 0,-1.8594 1.0938,0 z m 4.705,0 0,1.8594 2.2188,0 0,0.8437 -2.2188,0 0,3.5626 q 0,0.7968 0.2188,1.0234 0.2188,0.2266 0.8906,0.2266 l 1.1094,0 0,0.9062 -1.1094,0 q -1.25,0 -1.7265,-0.4688 -0.4766,-0.4687 -0.4766,-1.6874 l 0,-3.5626 -0.7813,0 0,-0.8437 0.7813,0 0,-1.8594 1.0937,0 z m 9.252,4.875 0,0.5157 -4.9687,0 q 0.0781,1.125 0.6796,1.7031 0.6016,0.5781 1.6641,0.5781 0.625,0 1.2109,-0.1484 0.586,-0.1485 1.1641,-0.461 l 0,1.0313 q -0.5937,0.2343 -1.2031,0.3672 -0.6094,0.1328 -1.2344,0.1328 -1.5625,0 -2.4844,-0.9141 -0.9218,-0.914 -0.9218,-2.4766 0,-1.6093 0.875,-2.5546 0.875,-0.9454 2.3437,-0.9454 1.3281,0 2.1016,0.8516 0.7734,0.8516 0.7734,2.3203 z M 30.5801,-3.875 q -0.0156,-0.875 -0.5,-1.4062 -0.4844,-0.5313 -1.2813,-0.5313 -0.9062,0 -1.4453,0.5156 -0.539,0.5157 -0.6172,1.4375 l 3.8438,-0.0156 z m 8.3047,-0.0938 0,3.9688 -1.0782,0 0,-3.9219 q 0,-0.9375 -0.3671,-1.3984 -0.3672,-0.4609 -1.086,-0.4609 -0.875,0 -1.3828,0.5546 -0.5078,0.5547 -0.5078,1.5235 l 0,3.7031 -1.0781,0 0,-6.5625 1.0781,0 0,1.0156 q 0.3906,-0.5937 0.9141,-0.8828 0.5234,-0.2891 1.2109,-0.2891 1.125,0 1.7109,0.6954 0.586,0.6953 0.586,2.0546 z m 6.4648,-1.5937 0,-3.5625 1.0781,0 0,9.125 -1.0781,0 0,-0.9844 q -0.3437,0.5782 -0.8594,0.8672 -0.5156,0.2891 -1.25,0.2891 -1.1875,0 -1.9375,-0.9531 -0.75,-0.9532 -0.75,-2.5 0,-1.5469 0.75,-2.4922 0.75,-0.9454 1.9375,-0.9454 0.7344,0 1.25,0.2813 0.5157,0.2813 0.8594,0.875 z m -3.6719,2.2813 q 0,1.1874 0.4844,1.8671 0.4844,0.6797 1.3438,0.6797 0.8593,0 1.3515,-0.6797 0.4922,-0.6797 0.4922,-1.8671 0,-1.1876 -0.4922,-1.8594 -0.4922,-0.6719 -1.3515,-0.6719 -0.8594,0 -1.3438,0.6719 -0.4844,0.6718 -0.4844,1.8594 z m 6.961,-3.2813 1.0781,0 0,6.5625 -1.0781,0 0,-6.5625 z m 0,-2.5625 1.0781,0 0,1.375 -1.0781,0 0,-1.375 z m 8.8027,5.1562 0,3.9688 -1.0781,0 0,-3.9219 q 0,-0.9375 -0.3672,-1.3984 -0.3672,-0.4609 -1.0859,-0.4609 -0.875,0 -1.3829,0.5546 -0.5078,0.5547 -0.5078,1.5235 l 0,3.7031 -1.0781,0 0,-6.5625 1.0781,0 0,1.0156 q 0.3907,-0.5937 0.9141,-0.8828 0.5234,-0.2891 1.2109,-0.2891 1.125,0 1.711,0.6954 0.5859,0.6953 0.5859,2.0546 z m 6.4648,0.6094 q 0,-1.1718 -0.4843,-1.8125 -0.4844,-0.6406 -1.3594,-0.6406 -0.8594,0 -1.3437,0.6406 -0.4844,0.6407 -0.4844,1.8125 0,1.1719 0.4844,1.8125 0.4843,0.6407 1.3437,0.6407 0.875,0 1.3594,-0.6407 0.4843,-0.6406 0.4843,-1.8125 z m 1.0782,2.5469 q 0,1.6719 -0.7422,2.4922 Q 63.5,2.5 61.9531,2.5 61.3906,2.5 60.8828,2.4141 60.375,2.3281 59.9062,2.1562 l 0,-1.0468 q 0.4688,0.25 0.9376,0.375 0.4687,0.125 0.9374,0.125 1.0626,0 1.5938,-0.5547 Q 63.9062,0.5 63.9062,-0.625 l 0,-0.5312 Q 63.5625,-0.5781 63.0469,-0.2891 62.5312,0 61.7969,0 q -1.2031,0 -1.9453,-0.9219 -0.7422,-0.9219 -0.7422,-2.4375 0,-1.5156 0.7422,-2.4375 0.7422,-0.9219 1.9453,-0.9219 0.7343,0 1.25,0.2891 0.5156,0.2891 0.8593,0.8672 l 0,-1 1.0782,0 0,5.75 z m 6.3066,-0.6719 1.2344,0 0,1.4844 -1.2344,0 0,-1.4844 z m 0,-4.7187 1.2344,0 0,1.4843 -1.2344,0 0,-1.4843 z m 7.5762,-0.3594 1.0781,0 0,6.5625 -1.0781,0 0,-6.5625 z m 0,-2.5625 1.0781,0 0,1.375 -1.0781,0 0,-1.375 z m 8.8027,5.1562 0,3.9688 -1.0781,0 0,-3.9219 q 0,-0.9375 -0.3672,-1.3984 -0.3672,-0.4609 -1.0859,-0.4609 -0.875,0 -1.3828,0.5546 -0.5079,0.5547 -0.5079,1.5235 l 0,3.7031 -1.0781,0 0,-6.5625 1.0781,0 0,1.0156 q 0.3907,-0.5937 0.9141,-0.8828 0.5234,-0.2891 1.2109,-0.2891 1.125,0 1.711,0.6954 0.5859,0.6953 0.5859,2.0546 z m 3.2149,-4.4531 0,1.8594 2.2187,0 0,0.8437 -2.2187,0 0,3.5626 q 0,0.7968 0.2187,1.0234 0.2188,0.2266 0.8906,0.2266 l 1.1094,0 0,0.9062 -1.1094,0 q -1.25,0 -1.7265,-0.4688 -0.4766,-0.4687 -0.4766,-1.6874 l 0,-3.5626 -0.7812,0 0,-0.8437 0.7812,0 0,-1.8594 1.0938,0 z" />
  </g>
  <g
     id="g82"
     transform="matrix(1.3333,0,0,1.3333,326.6585,286.6179)"
     style="font-family:sans-serif;stroke-width:2;text-rendering:optimizeLegibility">
    <path
       inkscape:connector-curvature="0"
       clip-path="url(#clipPath8)"
       id="path84"
       style="stroke:none"
       d="m 0.5938,-3.7656 3.1562,0 0,0.9531 -3.1562,0 0,-0.9531 z m 8.6757,-2.7969 1.0782,0 0,6.5625 -1.0782,0 0,-6.5625 z m 0,-2.5625 1.0782,0 0,1.375 -1.0782,0 0,-1.375 z m 8.8028,5.1562 0,3.9688 -1.0782,0 0,-3.9219 q 0,-0.9375 -0.3671,-1.3984 -0.3672,-0.4609 -1.086,-0.4609 -0.875,0 -1.3828,0.5546 -0.5078,0.5547 -0.5078,1.5235 l 0,3.7031 -1.0781,0 0,-6.5625 1.0781,0 0,1.0156 q 0.3906,-0.5937 0.9141,-0.8828 0.5234,-0.2891 1.2109,-0.2891 1.125,0 1.7109,0.6954 0.586,0.6953 0.586,2.0546 z m 1.3711,-2.5937 1.1406,0 2.0469,5.5 2.0625,-5.5 1.1406,0 L 23.3652,0 21.8965,0 19.4434,-6.5625 Z m 7.8671,0 1.0782,0 0,6.5625 -1.0782,0 0,-6.5625 z m 0,-2.5625 1.0782,0 0,1.375 -1.0782,0 0,-1.375 z m 4.4122,0.7031 0,1.8594 2.2187,0 0,0.8437 -2.2187,0 0,3.5626 q 0,0.7968 0.2187,1.0234 0.2188,0.2266 0.8906,0.2266 l 1.1094,0 0,0.9062 -1.1094,0 q -1.25,0 -1.7265,-0.4688 -0.4766,-0.4687 -0.4766,-1.6874 l 0,-3.5626 -0.7812,0 0,-0.8437 0.7812,0 0,-1.8594 1.0938,0 z m 9.2519,4.875 0,0.5157 -4.9687,0 q 0.0781,1.125 0.6796,1.7031 0.6016,0.5781 1.6641,0.5781 0.625,0 1.2109,-0.1484 0.586,-0.1485 1.1641,-0.461 l 0,1.0313 q -0.5937,0.2343 -1.2031,0.3672 -0.6094,0.1328 -1.2344,0.1328 -1.5625,0 -2.4844,-0.9141 -0.9218,-0.914 -0.9218,-2.4766 0,-1.6093 0.875,-2.5546 0.875,-0.9454 2.3437,-0.9454 1.3281,0 2.1016,0.8516 0.7734,0.8516 0.7734,2.3203 z M 39.8965,-3.875 q -0.0156,-0.875 -0.5,-1.4062 -0.4844,-0.5313 -1.2813,-0.5313 -0.9062,0 -1.4453,0.5156 -0.539,0.5157 -0.6172,1.4375 l 3.8438,-0.0156 z m 7.164,-1.6875 0,-3.5625 1.0782,0 0,9.125 -1.0782,0 0,-0.9844 q -0.3437,0.5782 -0.8593,0.8672 -0.5157,0.2891 -1.25,0.2891 -1.1875,0 -1.9375,-0.9531 -0.75,-0.9532 -0.75,-2.5 0,-1.5469 0.75,-2.4922 0.75,-0.9454 1.9375,-0.9454 0.7343,0 1.25,0.2813 0.5156,0.2813 0.8593,0.875 z m -3.6718,2.2813 q 0,1.1874 0.4843,1.8671 0.4844,0.6797 1.3438,0.6797 0.8594,0 1.3516,-0.6797 0.4921,-0.6797 0.4921,-1.8671 0,-1.1876 -0.4921,-1.8594 -0.4922,-0.6719 -1.3516,-0.6719 -0.8594,0 -1.3438,0.6719 -0.4843,0.6718 -0.4843,1.8594 z m 11.0566,1.7968 1.2344,0 0,1.4844 -1.2344,0 0,-1.4844 z m 0,-4.7187 1.2344,0 0,1.4843 -1.2344,0 0,-1.4843 z m 7.5762,-0.3594 1.0781,0 0,6.5625 -1.0781,0 0,-6.5625 z m 0,-2.5625 1.0781,0 0,1.375 -1.0781,0 0,-1.375 z m 8.8027,5.1562 0,3.9688 -1.0781,0 0,-3.9219 q 0,-0.9375 -0.3672,-1.3984 -0.3672,-0.4609 -1.0859,-0.4609 -0.875,0 -1.3828,0.5546 -0.5079,0.5547 -0.5079,1.5235 l 0,3.7031 -1.0781,0 0,-6.5625 1.0781,0 0,1.0156 q 0.3907,-0.5937 0.9141,-0.8828 0.5234,-0.2891 1.2109,-0.2891 1.125,0 1.711,0.6954 0.5859,0.6953 0.5859,2.0546 z m 3.2149,-4.4531 0,1.8594 2.2187,0 0,0.8437 -2.2187,0 0,3.5626 q 0,0.7968 0.2187,1.0234 0.2188,0.2266 0.8906,0.2266 l 1.1094,0 0,0.9062 -1.1094,0 q -1.25,0 -1.7265,-0.4688 -0.4766,-0.4687 -0.4766,-1.6874 l 0,-3.5626 -0.7812,0 0,-0.8437 0.7812,0 0,-1.8594 1.0938,0 z" />
  </g>
  <g
     id="g86"
     transform="scale(1.3333,1.3333)"
     style="font-family:sans-serif;text-rendering:optimizeLegibility">
    <line
       clip-path="url(#clipPath2)"
       id="line88"
       y2="262.84381"
       style="fill:none"
       y1="262.84381"
       x2="412"
       x1="235" />
    <line
       clip-path="url(#clipPath2)"
       id="line90"
       y2="198.9688"
       style="fill:none"
       y1="198.9688"
       x2="412"
       x1="235" />
  </g>
  <g
     id="g92"
     transform="matrix(1.3333,0,0,1.3333,331.32505,257.3269)"
     style="font-weight:bold;font-family:sans-serif;text-rendering:optimizeLegibility">
    <path
       inkscape:connector-curvature="0"
       clip-path="url(#clipPath9)"
       id="path94"
       style="stroke:none"
       d="m 1.1094,-8.75 6.0781,0 0,1.7031 -3.8281,0 0,1.625 3.6094,0 0,1.7188 -3.6094,0 0,2 3.9531,0 0,1.7031 -6.2031,0 0,-8.75 z m 7.2754,2.1875 2.0937,0 1.6406,4.5313 1.625,-4.5313 2.0938,0 L 13.2598,0 10.9629,0 8.3848,-6.5625 Z m 15.1972,3.2656 0,0.5938 -4.9062,0 q 0.0781,0.7343 0.5312,1.1093 0.4532,0.375 1.2813,0.375 0.6562,0 1.3515,-0.2031 0.6954,-0.2031 1.4297,-0.5937 l 0,1.6094 q -0.75,0.2812 -1.4922,0.4296 -0.7421,0.1485 -1.4921,0.1485 -1.7813,0 -2.7657,-0.9063 -0.9843,-0.9062 -0.9843,-2.5468 0,-1.5938 0.9687,-2.5157 0.9688,-0.9219 2.6719,-0.9219 1.5469,0 2.4765,0.9297 0.9297,0.9297 0.9297,2.4922 z M 21.4258,-4 q 0,-0.5938 -0.3516,-0.9609 -0.3515,-0.3672 -0.914,-0.3672 -0.6094,0 -0.9922,0.3437 Q 18.7852,-4.6406 18.6914,-4 l 2.7344,0 z m 10.3418,0 0,4 -2.1094,0 0,-0.6562 0,-2.4063 q 0,-0.8437 -0.0391,-1.1641 -0.039,-0.3203 -0.1328,-0.4765 -0.125,-0.2031 -0.3359,-0.3203 -0.2109,-0.1172 -0.4766,-0.1172 -0.6562,0 -1.0312,0.5078 -0.375,0.5078 -0.375,1.3984 l 0,3.2344 -2.0938,0 0,-6.5625 2.0938,0 0,0.9531 q 0.4687,-0.5625 1,-0.8359 0.5312,-0.2735 1.1875,-0.2735 1.125,0 1.7187,0.6954 0.5938,0.6953 0.5938,2.0234 z m 4.2304,-4.4219 0,1.8594 2.1719,0 0,1.5 -2.1719,0 0,2.7813 q 0,0.4531 0.1797,0.6171 0.1797,0.1641 0.7266,0.1641 l 1.0781,0 0,1.5 -1.7969,0 q -1.25,0 -1.7656,-0.5156 -0.5156,-0.5156 -0.5156,-1.7656 l 0,-2.7813 -1.0469,0 0,-1.5 1.0469,0 0,-1.8594 2.0937,0 z M 38.5,-8.75 l 8.0625,0 0,1.7031 -2.9063,0 0,7.0469 -2.25,0 0,-7.0469 -2.9062,0 0,-1.7031 z m 14.0137,3.9688 q -0.2813,-0.125 -0.5547,-0.1876 -0.2735,-0.0624 -0.5547,-0.0624 -0.7969,0 -1.2344,0.5234 -0.4375,0.5234 -0.4375,1.4766 l 0,3.0312 -2.0937,0 0,-6.5625 2.0937,0 0,1.0781 q 0.4063,-0.6406 0.9297,-0.9375 0.5234,-0.2969 1.2578,-0.2969 0.0938,0 0.2188,0.0079 0.125,0.0078 0.3593,0.039 l 0.0157,1.8907 z m 7.5898,1.4843 0,0.5938 -4.9062,0 q 0.0781,0.7343 0.5312,1.1093 0.4531,0.375 1.2813,0.375 0.6562,0 1.3515,-0.2031 0.6953,-0.2031 1.4297,-0.5937 l 0,1.6094 q -0.75,0.2812 -1.4922,0.4296 -0.7422,0.1485 -1.4922,0.1485 -1.7812,0 -2.7656,-0.9063 -0.9844,-0.9062 -0.9844,-2.5468 0,-1.5938 0.9688,-2.5157 0.9687,-0.9219 2.6719,-0.9219 1.5468,0 2.4765,0.9297 0.9297,0.9297 0.9297,2.4922 z M 57.9473,-4 q 0,-0.5938 -0.3516,-0.9609 -0.3516,-0.3672 -0.9141,-0.3672 -0.6093,0 -0.9921,0.3437 Q 55.3066,-4.6406 55.2129,-4 l 2.7344,0 z m 10.3418,0 0,4 -2.1094,0 0,-0.6562 0,-2.4063 q 0,-0.8437 -0.0391,-1.1641 -0.039,-0.3203 -0.1328,-0.4765 -0.125,-0.2031 -0.3359,-0.3203 -0.211,-0.1172 -0.4766,-0.1172 -0.6562,0 -1.0312,0.5078 -0.375,0.5078 -0.375,1.3984 l 0,3.2344 -2.0938,0 0,-6.5625 2.0938,0 0,0.9531 q 0.4687,-0.5625 1,-0.8359 0.5312,-0.2735 1.1875,-0.2735 1.125,0 1.7187,0.6954 0.5938,0.6953 0.5938,2.0234 z m 6.4023,-1.6094 0,-3.5156 2.1094,0 0,9.125 -2.1094,0 0,-0.9531 q -0.4219,0.5781 -0.9453,0.8515 -0.5234,0.2735 -1.2109,0.2735 -1.2188,0 -1.9922,-0.9688 -0.7735,-0.9687 -0.7735,-2.4843 0,-1.5157 0.7735,-2.4766 0.7734,-0.961 1.9922,-0.961 0.6718,0 1.2031,0.2735 0.5312,0.2734 0.9531,0.8359 z m -1.375,4.25 q 0.6719,0 1.0234,-0.4922 0.3516,-0.4922 0.3516,-1.4296 0,-0.9376 -0.3516,-1.4297 -0.3515,-0.4922 -1.0234,-0.4922 -0.6719,0 -1.0234,0.4922 -0.3516,0.4921 -0.3516,1.4297 0,0.9374 0.3516,1.4296 0.3515,0.4922 1.0234,0.4922 z M 82.125,-4.875 q 0.7031,0 1.0078,-0.2578 0.3047,-0.2578 0.3047,-0.8672 0,-0.5938 -0.3047,-0.8516 -0.3047,-0.2578 -1.0078,-0.2578 l -0.9531,0 0,2.2344 0.9531,0 z m -0.9531,1.5625 0,3.3125 -2.25,0 0,-8.75 3.4375,0 q 1.7344,0 2.539,0.5781 0.8047,0.5781 0.8047,1.8438 0,0.8593 -0.4219,1.414 -0.4218,0.5547 -1.2656,0.8203 0.4688,0.1094 0.836,0.4844 0.3672,0.375 0.7422,1.125 L 86.8125,0 84.4062,0 83.3438,-2.1719 q -0.3282,-0.6562 -0.6563,-0.8984 -0.3281,-0.2422 -0.875,-0.2422 l -0.6406,0 z m 13.4433,0.0156 0,0.5938 -4.9062,0 q 0.0781,0.7343 0.5312,1.1093 0.4532,0.375 1.2813,0.375 0.6562,0 1.3515,-0.2031 0.6954,-0.2031 1.4297,-0.5937 l 0,1.6094 q -0.75,0.2812 -1.4922,0.4296 -0.7421,0.1485 -1.4921,0.1485 -1.7813,0 -2.7657,-0.9063 -0.9843,-0.9062 -0.9843,-2.5468 0,-1.5938 0.9687,-2.5157 0.9688,-0.9219 2.6719,-0.9219 1.5469,0 2.4765,0.9297 0.9297,0.9297 0.9297,2.4922 z M 92.459,-4 q 0,-0.5938 -0.3516,-0.9609 -0.3515,-0.3672 -0.914,-0.3672 -0.6094,0 -0.9922,0.3437 Q 89.8184,-4.6406 89.7246,-4 l 2.7344,0 z m 8.873,-2.3594 0,1.5938 q -0.6718,-0.2813 -1.3047,-0.4219 -0.6328,-0.1406 -1.1796,-0.1406 -0.6094,0 -0.8985,0.1484 -0.289,0.1485 -0.289,0.4609 0,0.25 0.2187,0.3829 0.2188,0.1328 0.7969,0.2109 l 0.3594,0.0469 q 1.625,0.2031 2.1796,0.6719 0.5547,0.4687 0.5547,1.4687 0,1.0469 -0.7734,1.5781 -0.7734,0.5313 -2.3047,0.5313 -0.6562,0 -1.3516,-0.1016 -0.6953,-0.1015 -1.4296,-0.3047 l 0,-1.5937 q 0.625,0.2969 1.289,0.4531 0.6641,0.1562 1.336,0.1562 0.625,0 0.9296,-0.1718 0.3047,-0.1719 0.3047,-0.5156 0,-0.2813 -0.2109,-0.4141 -0.2109,-0.1328 -0.8516,-0.2109 l -0.375,-0.0469 q -1.3906,-0.1719 -1.9531,-0.6485 -0.5625,-0.4765 -0.5625,-1.4453 0,-1.0469 0.7109,-1.5469 0.711,-0.5 2.1954,-0.5 0.5781,0 1.2187,0.086 0.6406,0.0859 1.3906,0.2734 z m 4.1114,5.4063 0,3.4531 -2.0938,0 0,-9.0625 2.0938,0 0,0.9531 q 0.4375,-0.5625 0.9609,-0.8359 0.5234,-0.2735 1.2109,-0.2735 1.2188,0 1.9922,0.961 0.7735,0.9609 0.7735,2.4766 0,1.5156 -0.7735,2.4843 -0.7734,0.9688 -1.9922,0.9688 -0.6875,0 -1.2109,-0.2735 -0.5234,-0.2734 -0.9609,-0.8515 z m 1.3906,-4.25 q -0.6719,0 -1.0313,0.5 -0.3593,0.5 -0.3593,1.4219 0,0.9374 0.3593,1.4296 0.3594,0.4922 1.0313,0.4922 0.6719,0 1.0312,-0.4922 0.3594,-0.4922 0.3594,-1.4296 0,-0.9376 -0.3594,-1.4297 -0.3593,-0.4922 -1.0312,-0.4922 z m 8.2148,-0.0157 q -0.6875,0 -1.0547,0.5 -0.3671,0.5 -0.3671,1.4376 0,0.9531 0.3671,1.4531 0.3672,0.5 1.0547,0.5 0.6875,0 1.0547,-0.5 0.3672,-0.5 0.3672,-1.4531 0,-0.9376 -0.3672,-1.4376 -0.3672,-0.5 -1.0547,-0.5 z m 0,-1.5 q 1.7032,0 2.6563,0.9141 0.9531,0.9141 0.9531,2.5235 0,1.625 -0.9531,2.539 -0.9531,0.9141 -2.6563,0.9141 -1.6875,0 -2.6484,-0.9141 -0.9609,-0.914 -0.9609,-2.539 0,-1.6094 0.9609,-2.5235 0.9609,-0.9141 2.6484,-0.9141 z M 126.7773,-4 l 0,4 -2.1093,0 0,-0.6562 0,-2.4063 q 0,-0.8437 -0.0391,-1.1641 -0.0391,-0.3203 -0.1328,-0.4765 -0.125,-0.2031 -0.3359,-0.3203 -0.211,-0.1172 -0.4766,-0.1172 -0.6563,0 -1.0313,0.5078 -0.375,0.5078 -0.375,1.3984 l 0,3.2344 -2.0937,0 0,-6.5625 2.0937,0 0,0.9531 q 0.4688,-0.5625 1,-0.8359 0.5313,-0.2735 1.1875,-0.2735 1.125,0 1.7188,0.6954 0.5937,0.6953 0.5937,2.0234 z m 7.0743,-2.3594 0,1.5938 q -0.6719,-0.2813 -1.3047,-0.4219 -0.6328,-0.1406 -1.1797,-0.1406 -0.6094,0 -0.8984,0.1484 -0.2891,0.1485 -0.2891,0.4609 0,0.25 0.2187,0.3829 0.2188,0.1328 0.7969,0.2109 l 0.3594,0.0469 q 1.625,0.2031 2.1797,0.6719 0.5547,0.4687 0.5547,1.4687 0,1.0469 -0.7735,1.5781 -0.7734,0.5313 -2.3047,0.5313 -0.6562,0 -1.3515,-0.1016 -0.6953,-0.1015 -1.4297,-0.3047 l 0,-1.5937 q 0.625,0.2969 1.2891,0.4531 0.664,0.1562 1.3359,0.1562 0.625,0 0.9297,-0.1718 0.3047,-0.1719 0.3047,-0.5156 0,-0.2813 -0.211,-0.4141 -0.2109,-0.1328 -0.8515,-0.2109 l -0.375,-0.0469 q -1.3907,-0.1719 -1.9532,-0.6485 -0.5625,-0.4765 -0.5625,-1.4453 0,-1.0469 0.711,-1.5469 0.7109,-0.5 2.1953,-0.5 0.5781,0 1.2187,0.086 0.6407,0.0859 1.3907,0.2734 z m 8.5644,3.0625 0,0.5938 -4.9062,0 q 0.0781,0.7343 0.5312,1.1093 0.4531,0.375 1.2813,0.375 0.6562,0 1.3515,-0.2031 0.6953,-0.2031 1.4297,-0.5937 l 0,1.6094 q -0.75,0.2812 -1.4922,0.4296 -0.7422,0.1485 -1.4922,0.1485 -1.7812,0 -2.7656,-0.9063 -0.9844,-0.9062 -0.9844,-2.5468 0,-1.5938 0.9688,-2.5157 0.9687,-0.9219 2.6719,-0.9219 1.5468,0 2.4765,0.9297 0.9297,0.9297 0.9297,2.4922 z M 140.2598,-4 q 0,-0.5938 -0.3516,-0.9609 -0.3516,-0.3672 -0.9141,-0.3672 -0.6093,0 -0.9921,0.3437 -0.3829,0.3438 -0.4766,0.9844 l 2.7344,0 z" />
  </g>
</svg>
