<?xml version="1.0" encoding="utf-8"?>
<!-- Generator: Adobe Illustrator 16.0.0, SVG Export Plug-In . SVG Version: 6.00 Build 0)  -->
<!DOCTYPE svg PUBLIC "-//W3C//DTD SVG 1.1//EN" "http://www.w3.org/Graphics/SVG/1.1/DTD/svg11.dtd">
<svg version="1.1" id="Layer_1" xmlns="http://www.w3.org/2000/svg" xmlns:xlink="http://www.w3.org/1999/xlink" x="0px" y="0px"
	 width="810.081px" height="720.574px" viewBox="0 0 810.081 720.574" enable-background="new 0 0 810.081 720.574"
	 xml:space="preserve">
<g>
	<g>
		<g>
			<defs>
				<rect id="SVGID_1_" width="1237" height="773"/>
			</defs>
			<clipPath id="SVGID_2_">
				<use xlink:href="#SVGID_1_"  overflow="visible"/>
			</clipPath>
			<rect clip-path="url(#SVGID_2_)" fill="#FFFFFF" width="1237" height="773"/>
		</g>
	</g>
	<g transform="scale(1.3333,1.3333) translate(38,48.6328)">
		<g>
			<defs>
				<rect id="SVGID_3_" x="-192.609" y="-145.248" width="1236.969" height="772.98"/>
			</defs>
			<clipPath id="SVGID_4_">
				<use xlink:href="#SVGID_3_"  overflow="visible"/>
			</clipPath>
			
				<rect x="-23" y="-33.633" clip-path="url(#SVGID_4_)" fill="none" stroke="#C0C0C0" stroke-linecap="square" stroke-miterlimit="10" stroke-opacity="0.502" width="908.3" height="560.133"/>
		</g>
	</g>
	<g transform="matrix(1.3333,0,0,1.3333,44,58.1771)">
		<g>
			<defs>
				<rect id="SVGID_5_" x="-187.61" y="-140.248" width="1236.97" height="772.981"/>
			</defs>
			<clipPath id="SVGID_6_">
				<use xlink:href="#SVGID_5_"  overflow="visible"/>
			</clipPath>
			
				<rect x="-23" y="-33.633" clip-path="url(#SVGID_6_)" fill="none" stroke="#000000" stroke-linecap="square" stroke-miterlimit="10" width="908.3" height="560.133"/>
		</g>
		<g>
			<defs>
				<rect id="SVGID_7_" x="-187.61" y="-140.248" width="1236.97" height="772.981"/>
			</defs>
			<clipPath id="SVGID_8_">
				<use xlink:href="#SVGID_7_"  overflow="visible"/>
			</clipPath>
			
				<line clip-path="url(#SVGID_8_)" fill="none" stroke="#000000" stroke-linecap="square" stroke-miterlimit="10" x1="18" y1="-32.633" x2="18" y2="-19.5"/>
		</g>
		<g>
			<defs>
				<rect id="SVGID_9_" x="-187.61" y="-140.248" width="1236.97" height="772.981"/>
			</defs>
			<clipPath id="SVGID_10_">
				<use xlink:href="#SVGID_9_"  overflow="visible"/>
			</clipPath>
			
				<line clip-path="url(#SVGID_10_)" fill="none" stroke="#000000" stroke-linecap="square" stroke-miterlimit="10" x1="18" y1="-19.5" x2="8" y2="-9.5"/>
		</g>
		<g>
			<defs>
				<rect id="SVGID_11_" x="-187.61" y="-140.248" width="1236.97" height="772.981"/>
			</defs>
			<clipPath id="SVGID_12_">
				<use xlink:href="#SVGID_11_"  overflow="visible"/>
			</clipPath>
			
				<line clip-path="url(#SVGID_12_)" fill="none" stroke="#000000" stroke-linecap="square" stroke-miterlimit="10" x1="8" y1="-9.5" x2="-23" y2="-9.5"/>
		</g>
	</g>
	<g transform="matrix(1.3333,0,0,1.3333,44,58.1771) translate(-13,-16.6328)">
		<g>
			<defs>
				<rect id="SVGID_13_" x="-174.61" y="-123.615" width="1236.97" height="772.981"/>
			</defs>
			<clipPath id="SVGID_14_">
				<use xlink:href="#SVGID_13_"  overflow="visible"/>
			</clipPath>
			<path clip-path="url(#SVGID_14_)" d="M5.063,0v-1.213C4.5-0.307,3.769,0.146,2.871,0.146c-0.574,0-1.027-0.182-1.359-0.545
				C1.18-0.762,1.014-1.258,1.014-1.887v-4.547h1.734v4.119c0,0.731,0.244,1.096,0.732,1.096c0.547,0,1.074-0.389,1.582-1.166
				v-4.049h1.734V0H5.063z M13.711-0.141c-0.719,0.192-1.385,0.287-1.998,0.287c-1.027,0-1.839-0.302-2.434-0.905
				C8.683-1.362,8.385-2.183,8.385-3.223c0-1.051,0.307-1.873,0.92-2.466c0.613-0.594,1.461-0.891,2.543-0.891
				c0.523,0,1.127,0.084,1.81,0.252v1.254c-0.711-0.231-1.279-0.346-1.705-0.346c-0.519,0-0.938,0.199-1.254,0.598
				c-0.316,0.398-0.475,0.928-0.475,1.588c0,0.676,0.171,1.217,0.513,1.623c0.342,0.406,0.798,0.609,1.368,0.609
				c0.52,0,1.055-0.113,1.605-0.34V-0.141z"/>
		</g>
	</g>
	<g transform="matrix(1.3333,0,0,1.3333,44,58.1771) translate(5,5)">
		<g>
			<defs>
				<rect id="SVGID_15_" x="-192.61" y="-145.248" width="1236.97" height="772.981"/>
			</defs>
			<clipPath id="SVGID_16_">
				<use xlink:href="#SVGID_15_"  overflow="visible"/>
			</clipPath>
			<ellipse clip-path="url(#SVGID_16_)" fill="#C0C0C0" fill-opacity="0.502" cx="381.15" cy="78.394" rx="97" ry="34.566"/>
		</g>
		<g>
			<defs>
				<rect id="SVGID_17_" x="-192.61" y="-145.248" width="1236.97" height="772.981"/>
			</defs>
			<clipPath id="SVGID_18_">
				<use xlink:href="#SVGID_17_"  overflow="visible"/>
			</clipPath>
			
				<ellipse clip-path="url(#SVGID_18_)" fill="none" stroke="#C0C0C0" stroke-width="2" stroke-linecap="square" stroke-miterlimit="10" stroke-opacity="0.502" cx="381.15" cy="78.394" rx="97" ry="34.566"/>
		</g>
	</g>
	<g transform="matrix(1.3333,0,0,1.3333,44,58.1771)">
		<g>
			<defs>
				<rect id="SVGID_19_" x="-187.61" y="-140.248" width="1236.97" height="772.981"/>
			</defs>
			<clipPath id="SVGID_20_">
				<use xlink:href="#SVGID_19_"  overflow="visible"/>
			</clipPath>
			
				<linearGradient id="SVGID_21_" gradientUnits="userSpaceOnUse" x1="233.7832" y1="491.9075" x2="428.7832" y2="421.9075" gradientTransform="matrix(1.3333 0 0 -1.3333 -27.869 699.3224)">
				<stop  offset="0" style="stop-color:#FFFFFF"/>
				<stop  offset="1" style="stop-color:#FFFFCC"/>
			</linearGradient>
			<ellipse clip-path="url(#SVGID_20_)" fill="url(#SVGID_21_)" cx="381.15" cy="78.394" rx="97" ry="34.566"/>
		</g>
		<g>
			<defs>
				<rect id="SVGID_22_" x="-187.61" y="-140.248" width="1236.97" height="772.981"/>
			</defs>
			<clipPath id="SVGID_23_">
				<use xlink:href="#SVGID_22_"  overflow="visible"/>
			</clipPath>
			
				<ellipse clip-path="url(#SVGID_23_)" fill="none" stroke="#000000" stroke-width="2" stroke-linecap="square" stroke-miterlimit="10" cx="381.15" cy="78.394" rx="97" ry="34.566"/>
		</g>
		<g>
			<defs>
				<rect id="SVGID_24_" x="-187.61" y="-140.248" width="1236.969" height="772.981"/>
			</defs>
			<clipPath id="SVGID_25_">
				<use xlink:href="#SVGID_24_"  overflow="visible"/>
			</clipPath>
			<path clip-path="url(#SVGID_25_)" d="M313.575,67.191h1.805v5.315c0,0.84,0.138,1.446,0.416,1.819
				c0.277,0.373,0.724,0.559,1.342,0.559c0.59,0,1.016-0.178,1.28-0.533c0.264-0.356,0.396-0.928,0.396-1.717v-5.444h1.57v5.326
				c0,0.801-0.076,1.411-0.229,1.831c-0.153,0.42-0.43,0.784-0.833,1.093c-0.551,0.426-1.291,0.639-2.22,0.639
				c-0.996,0-1.797-0.227-2.402-0.68c-0.418-0.313-0.71-0.683-0.876-1.11c-0.166-0.428-0.249-1.025-0.249-1.79V67.191z
				 M329.459,75.517c-0.839,0.375-1.841,0.562-3.006,0.562c-1.422,0-2.529-0.401-3.322-1.201c-0.792-0.801-1.189-1.918-1.189-3.352
				c0-1.461,0.4-2.585,1.198-3.372c0.799-0.787,1.939-1.181,3.419-1.181c0.946,0,1.885,0.111,2.818,0.334v1.412
				c-1.058-0.371-1.945-0.557-2.66-0.557c-0.914,0-1.619,0.29-2.115,0.87c-0.496,0.58-0.744,1.403-0.744,2.47
				c0,1.047,0.267,1.863,0.8,2.449c0.533,0.586,1.274,0.879,2.224,0.879c0.852,0,1.711-0.215,2.578-0.645V75.517z M331.633,75.863
				v-1.014h1.734v-6.399l-1.734,0.434v-1.043l3.475-0.867v7.875h1.734v1.014H331.633z M338.406,75.863v-1.881h1.881v1.881H338.406z
				 M342.514,75.863v-1.014h1.734v-6.399l-1.734,0.434v-1.043l3.475-0.867v7.875h1.734v1.014H342.514z M352.662,76.08
				c-0.984,0-1.784-0.422-2.399-1.266c-0.615-0.843-0.922-1.939-0.922-3.287c0-1.363,0.308-2.463,0.926-3.299
				c0.617-0.836,1.429-1.254,2.437-1.254c1.001,0,1.81,0.417,2.429,1.251c0.62,0.834,0.929,1.927,0.929,3.278
				c0,1.387-0.309,2.496-0.929,3.328C354.513,75.664,353.69,76.08,352.662,76.08z M352.68,74.996c1.028,0,1.541-1.157,1.541-3.469
				c0-2.313-0.505-3.469-1.518-3.469c-1.012,0-1.518,1.154-1.518,3.463C351.185,73.838,351.683,74.996,352.68,74.996z
				 M357.203,75.863v-1.881h1.881v1.881H357.203z M361.311,75.863v-1.014h1.734v-6.399l-1.734,0.434v-1.043l3.475-0.867v7.875h1.734
				v1.014H361.311z M374.846,75.863l-3.205-8.672h1.928l2.484,6.709l2.402-6.709h1.301l-3.099,8.672H374.846z M380.963,75.863
				v-6.434h1.734v6.434H380.963z M380.963,68.345v-1.447h1.734v1.447H380.963z M384.695,75.658v-1.272
				c0.86,0.359,1.594,0.539,2.203,0.539c0.711,0,1.066-0.242,1.066-0.727c0-0.313-0.293-0.586-0.879-0.82l-0.586-0.234
				c-0.636-0.258-1.091-0.535-1.365-0.832c-0.273-0.297-0.41-0.664-0.41-1.102c0-0.609,0.233-1.083,0.697-1.421
				c0.465-0.338,1.115-0.507,1.951-0.507c0.524,0,1.147,0.076,1.869,0.229v1.219c-0.695-0.242-1.272-0.363-1.729-0.363
				c-0.719,0-1.078,0.223-1.078,0.668c0,0.293,0.266,0.541,0.797,0.744l0.504,0.193c0.754,0.285,1.278,0.574,1.573,0.867
				c0.295,0.293,0.442,0.67,0.442,1.131c0,0.605-0.251,1.096-0.753,1.474c-0.502,0.377-1.155,0.565-1.96,0.565
				C386.266,76.009,385.485,75.892,384.695,75.658z M395.629,75.863V74.65c-0.562,0.906-1.293,1.359-2.191,1.359
				c-0.574,0-1.028-0.182-1.359-0.545c-0.332-0.363-0.498-0.859-0.498-1.488v-4.547h1.734v4.119c0,0.73,0.244,1.096,0.732,1.096
				c0.547,0,1.075-0.389,1.582-1.166v-4.049h1.734v6.434H395.629z M402.684,75.172c-0.579,0.558-1.198,0.838-1.857,0.838
				c-0.562,0-1.02-0.172-1.371-0.516c-0.352-0.344-0.527-0.789-0.527-1.336c0-0.711,0.284-1.259,0.853-1.644
				c0.568-0.385,1.381-0.577,2.44-0.577h0.463v-0.586c0-0.668-0.381-1.002-1.143-1.002c-0.676,0-1.359,0.191-2.051,0.574v-1.195
				c0.785-0.297,1.562-0.445,2.332-0.445c1.683,0,2.525,0.67,2.525,2.01v2.848c0,0.504,0.162,0.756,0.486,0.756
				c0.059,0,0.135-0.008,0.229-0.023l0.041,0.973c-0.368,0.109-0.691,0.164-0.973,0.164c-0.711,0-1.168-0.279-1.371-0.838H402.684z
				 M402.684,74.24v-1.307h-0.41c-1.121,0-1.682,0.352-1.682,1.055c0,0.238,0.081,0.438,0.243,0.6
				c0.162,0.162,0.362,0.244,0.601,0.244C401.842,74.832,402.258,74.634,402.684,74.24z M406.586,75.863v-9.252h1.734v9.252H406.586
				z M410.488,75.863v-6.434h1.734v6.434H410.488z M410.488,68.345v-1.447h1.734v1.447H410.488z M414.027,75.863v-1.154l3.598-4.195
				h-3.434v-1.084h5.484v1.084l-3.598,4.195h3.668v1.154H414.027z M421.117,75.863v-1.154l3.598-4.195h-3.434v-1.084h5.485v1.084
				l-3.598,4.195h3.668v1.154H421.117z M431.723,75.172c-0.579,0.558-1.198,0.838-1.857,0.838c-0.562,0-1.02-0.172-1.371-0.516
				c-0.352-0.344-0.527-0.789-0.527-1.336c0-0.711,0.284-1.259,0.853-1.644c0.568-0.385,1.381-0.577,2.44-0.577h0.463v-0.586
				c0-0.668-0.381-1.002-1.143-1.002c-0.676,0-1.359,0.191-2.051,0.574v-1.195c0.785-0.297,1.562-0.445,2.332-0.445
				c1.683,0,2.525,0.67,2.525,2.01v2.848c0,0.504,0.162,0.756,0.486,0.756c0.059,0,0.135-0.008,0.229-0.023l0.041,0.973
				c-0.368,0.109-0.691,0.164-0.973,0.164c-0.711,0-1.168-0.279-1.371-0.838H431.723z M431.723,74.24v-1.307h-0.41
				c-1.121,0-1.682,0.352-1.682,1.055c0,0.238,0.081,0.438,0.243,0.6c0.162,0.162,0.362,0.244,0.601,0.244
				C430.881,74.832,431.297,74.634,431.723,74.24z"/>
		</g>
	</g>
	<g transform="matrix(1.3333,0,0,1.3333,44,58.1771) translate(312.5606,64.2612)">
		<g>
			<defs>
				<rect id="SVGID_26_" x="-500.17" y="-204.509" width="1236.969" height="772.981"/>
			</defs>
			<clipPath id="SVGID_27_">
				<use xlink:href="#SVGID_26_"  overflow="visible"/>
			</clipPath>
			<path clip-path="url(#SVGID_27_)" d="M6.323,25.518c-0.825,0.242-1.606,0.364-2.344,0.364c-1.074,0-1.922-0.305-2.543-0.914
				c-0.621-0.609-0.932-1.441-0.932-2.496c0-0.996,0.284-1.798,0.853-2.405c0.568-0.608,1.319-0.911,2.253-0.911
				c0.941,0,1.629,0.297,2.063,0.891c0.434,0.594,0.65,1.533,0.65,2.818h-3.99c0.117,1.226,0.791,1.84,2.022,1.84
				c0.582,0,1.238-0.135,1.969-0.404V25.518z M2.309,21.885h2.309c0-1.098-0.354-1.647-1.061-1.647
				C2.838,20.239,2.422,20.788,2.309,21.885z M8.115,25.734v-9.252h1.734v9.252H8.115z M17.256,25.518
				c-0.824,0.242-1.606,0.364-2.344,0.364c-1.074,0-1.922-0.305-2.543-0.914c-0.621-0.609-0.932-1.441-0.932-2.496
				c0-0.996,0.284-1.798,0.853-2.405c0.568-0.608,1.32-0.911,2.253-0.911c0.942,0,1.629,0.297,2.063,0.891
				c0.434,0.594,0.65,1.533,0.65,2.818h-3.99c0.117,1.226,0.791,1.84,2.022,1.84c0.582,0,1.239-0.135,1.969-0.404V25.518z
				 M13.242,21.885h2.309c0-1.098-0.353-1.647-1.061-1.647C13.772,20.239,13.356,20.788,13.242,21.885z M19.049,25.734v-6.433h1.734
				v1.213c0.566-0.906,1.297-1.359,2.191-1.359c0.574,0,1.028,0.182,1.359,0.545c0.332,0.363,0.498,0.86,0.498,1.488v4.547h-1.734
				v-4.119c0-0.731-0.242-1.096-0.727-1.096c-0.551,0-1.08,0.389-1.588,1.166v4.049H19.049z M31.676,25.594
				c-0.719,0.191-1.385,0.287-1.998,0.287c-1.028,0-1.839-0.302-2.435-0.905c-0.596-0.604-0.894-1.425-0.894-2.464
				c0-1.051,0.306-1.873,0.92-2.467c0.613-0.594,1.46-0.891,2.543-0.891c0.523,0,1.126,0.084,1.811,0.252v1.254
				c-0.711-0.23-1.28-0.346-1.705-0.346c-0.52,0-0.938,0.199-1.254,0.598c-0.316,0.398-0.475,0.928-0.475,1.588
				c0,0.676,0.171,1.217,0.513,1.623c0.341,0.406,0.798,0.609,1.368,0.609c0.519,0,1.055-0.113,1.606-0.339V25.594z M36.018,25.881
				c-1.004,0-1.802-0.304-2.394-0.912c-0.592-0.607-0.888-1.425-0.888-2.452c0-1.039,0.297-1.859,0.894-2.461
				c0.595-0.602,1.405-0.902,2.429-0.902c1.027,0,1.838,0.301,2.435,0.902c0.595,0.602,0.893,1.418,0.893,2.449
				c0,1.055-0.299,1.881-0.896,2.479C37.893,25.582,37.068,25.881,36.018,25.881z M36.047,24.797c0.996,0,1.493-0.764,1.493-2.291
				c0-0.699-0.132-1.252-0.395-1.658c-0.264-0.406-0.626-0.609-1.087-0.609c-0.457,0-0.817,0.203-1.081,0.609
				c-0.264,0.406-0.396,0.963-0.396,1.67c0,0.699,0.13,1.254,0.393,1.664C35.236,24.592,35.594,24.797,36.047,24.797z
				 M44.935,25.734v-6.433h1.734v1.213c0.449-0.906,1.133-1.359,2.051-1.359c0.109,0,0.217,0.012,0.322,0.035v1.547
				c-0.246-0.09-0.475-0.135-0.686-0.135c-0.691,0-1.254,0.35-1.688,1.049v4.084H44.935z M50.391,25.734v-6.433h1.734v6.433H50.391z
				 M50.391,18.217V16.77h1.734v1.447H50.391z M59.039,25.594c-0.719,0.191-1.385,0.287-1.998,0.287
				c-1.028,0-1.839-0.302-2.435-0.905c-0.595-0.604-0.894-1.425-0.894-2.464c0-1.051,0.307-1.873,0.92-2.467
				c0.613-0.594,1.461-0.891,2.543-0.891c0.523,0,1.126,0.084,1.811,0.252v1.254c-0.711-0.23-1.28-0.346-1.705-0.346
				c-0.519,0-0.938,0.199-1.254,0.598c-0.316,0.398-0.475,0.928-0.475,1.588c0,0.676,0.171,1.217,0.513,1.623
				c0.341,0.406,0.798,0.609,1.368,0.609c0.519,0,1.055-0.113,1.606-0.339V25.594z M60.68,25.734v-9.252h1.734v4.031
				c0.566-0.906,1.296-1.359,2.191-1.359c0.574,0,1.027,0.182,1.359,0.545c0.333,0.363,0.498,0.86,0.498,1.488v4.547h-1.734v-4.119
				c0-0.731-0.242-1.096-0.726-1.096c-0.551,0-1.08,0.389-1.588,1.166v4.049H60.68z M68.56,25.734v-6.433h1.734v6.433H68.56z
				 M68.56,18.217V16.77h1.734v1.447H68.56z M77.701,25.518c-0.824,0.242-1.605,0.364-2.344,0.364c-1.074,0-1.922-0.305-2.543-0.914
				c-0.621-0.609-0.932-1.441-0.932-2.496c0-0.996,0.284-1.798,0.853-2.405c0.568-0.608,1.32-0.911,2.253-0.911
				c0.942,0,1.629,0.297,2.063,0.891c0.434,0.594,0.65,1.533,0.65,2.818h-3.99c0.117,1.226,0.791,1.84,2.022,1.84
				c0.582,0,1.239-0.135,1.969-0.404V25.518z M73.687,21.885h2.309c0-1.098-0.353-1.647-1.061-1.647
				C74.217,20.239,73.801,20.788,73.687,21.885z M79.324,25.529v-1.272c0.859,0.36,1.594,0.539,2.203,0.539
				c0.711,0,1.066-0.242,1.066-0.727c0-0.313-0.293-0.586-0.879-0.82l-0.586-0.234c-0.636-0.258-1.092-0.535-1.365-0.832
				c-0.273-0.297-0.41-0.664-0.41-1.102c0-0.609,0.232-1.083,0.697-1.421s1.116-0.507,1.951-0.507c0.524,0,1.146,0.076,1.869,0.229
				v1.219c-0.695-0.242-1.272-0.363-1.729-0.363c-0.719,0-1.078,0.223-1.078,0.668c0,0.293,0.266,0.541,0.797,0.744l0.504,0.193
				c0.754,0.285,1.278,0.574,1.573,0.867c0.295,0.293,0.442,0.67,0.442,1.131c0,0.605-0.251,1.096-0.753,1.473
				c-0.502,0.377-1.155,0.566-1.96,0.566C80.895,25.881,80.113,25.764,79.324,25.529z M89.596,25.699
				c-0.415,0.121-0.74,0.182-0.979,0.182c-1.504,0-2.256-0.703-2.256-2.109v-3.387h-0.721v-1.084h0.721v-1.084l1.734-0.199v1.283
				h1.377v1.084h-1.377v3.158c0,0.789,0.322,1.184,0.967,1.184c0.148,0,0.326-0.027,0.533-0.082V25.699z M96.381,25.518
				c-0.825,0.242-1.606,0.364-2.344,0.364c-1.074,0-1.922-0.305-2.543-0.914c-0.621-0.609-0.932-1.441-0.932-2.496
				c0-0.996,0.284-1.798,0.853-2.405c0.568-0.608,1.319-0.911,2.253-0.911c0.941,0,1.629,0.297,2.063,0.891
				c0.434,0.594,0.65,1.533,0.65,2.818h-3.99c0.117,1.226,0.791,1.84,2.022,1.84c0.582,0,1.238-0.135,1.969-0.404V25.518z
				 M92.368,21.885h2.309c0-1.098-0.354-1.647-1.061-1.647C92.896,20.239,92.48,20.788,92.368,21.885z"/>
		</g>
	</g>
	<g transform="matrix(1.3333,0,0,1.3333,44,58.1771) translate(5,5)">
		<g>
			<defs>
				<rect id="SVGID_28_" x="-192.61" y="-145.248" width="1236.97" height="772.981"/>
			</defs>
			<clipPath id="SVGID_29_">
				<use xlink:href="#SVGID_28_"  overflow="visible"/>
			</clipPath>
			<ellipse clip-path="url(#SVGID_29_)" fill="#C0C0C0" fill-opacity="0.502" cx="381.15" cy="158.394" rx="97" ry="34.566"/>
		</g>
		<g>
			<defs>
				<rect id="SVGID_30_" x="-192.61" y="-145.248" width="1236.97" height="772.981"/>
			</defs>
			<clipPath id="SVGID_31_">
				<use xlink:href="#SVGID_30_"  overflow="visible"/>
			</clipPath>
			
				<ellipse clip-path="url(#SVGID_31_)" fill="none" stroke="#C0C0C0" stroke-width="2" stroke-linecap="square" stroke-miterlimit="10" stroke-opacity="0.502" cx="381.15" cy="158.394" rx="97" ry="34.566"/>
		</g>
	</g>
	<g transform="matrix(1.3333,0,0,1.3333,44,58.1771)">
		<g>
			<defs>
				<rect id="SVGID_32_" x="-187.61" y="-140.248" width="1236.97" height="772.981"/>
			</defs>
			<clipPath id="SVGID_33_">
				<use xlink:href="#SVGID_32_"  overflow="visible"/>
			</clipPath>
			
				<linearGradient id="SVGID_34_" gradientUnits="userSpaceOnUse" x1="233.7843" y1="431.9068" x2="428.7843" y2="361.9068" gradientTransform="matrix(1.3333 0 0 -1.3333 -27.869 699.3226)">
				<stop  offset="0" style="stop-color:#FFFFFF"/>
				<stop  offset="1" style="stop-color:#FFFFCC"/>
			</linearGradient>
			<ellipse clip-path="url(#SVGID_33_)" fill="url(#SVGID_34_)" cx="381.15" cy="158.394" rx="97" ry="34.566"/>
		</g>
		<g>
			<defs>
				<rect id="SVGID_35_" x="-187.61" y="-140.248" width="1236.97" height="772.981"/>
			</defs>
			<clipPath id="SVGID_36_">
				<use xlink:href="#SVGID_35_"  overflow="visible"/>
			</clipPath>
			
				<ellipse clip-path="url(#SVGID_36_)" fill="none" stroke="#000000" stroke-width="2" stroke-linecap="square" stroke-miterlimit="10" cx="381.15" cy="158.394" rx="97" ry="34.566"/>
		</g>
		<g>
			<defs>
				<rect id="SVGID_37_" x="-187.61" y="-140.248" width="1236.969" height="772.981"/>
			</defs>
			<clipPath id="SVGID_38_">
				<use xlink:href="#SVGID_37_"  overflow="visible"/>
			</clipPath>
			<path clip-path="url(#SVGID_38_)" d="M313.575,147.191h1.805v5.315c0,0.84,0.138,1.446,0.416,1.819
				c0.277,0.373,0.724,0.559,1.342,0.559c0.59,0,1.016-0.178,1.28-0.533c0.264-0.355,0.396-0.928,0.396-1.717v-5.443h1.57v5.326
				c0,0.801-0.076,1.411-0.229,1.831c-0.153,0.42-0.43,0.784-0.833,1.093c-0.551,0.426-1.291,0.639-2.22,0.639
				c-0.996,0-1.797-0.226-2.402-0.679c-0.418-0.313-0.71-0.683-0.876-1.111c-0.166-0.428-0.249-1.024-0.249-1.79V147.191z
				 M329.459,155.518c-0.839,0.375-1.841,0.562-3.006,0.562c-1.422,0-2.529-0.4-3.322-1.201c-0.792-0.801-1.189-1.918-1.189-3.351
				c0-1.461,0.4-2.585,1.198-3.372c0.799-0.787,1.939-1.181,3.419-1.181c0.946,0,1.885,0.111,2.818,0.334v1.412
				c-1.058-0.371-1.945-0.557-2.66-0.557c-0.914,0-1.619,0.29-2.115,0.87c-0.496,0.58-0.744,1.403-0.744,2.47
				c0,1.047,0.267,1.863,0.8,2.449c0.533,0.586,1.274,0.879,2.224,0.879c0.852,0,1.711-0.215,2.578-0.644V155.518z M331.633,155.863
				v-1.014h1.734v-6.398l-1.734,0.434v-1.043l3.475-0.867v7.875h1.734v1.014H331.633z M338.406,155.863v-1.881h1.881v1.881H338.406z
				 M342.514,155.863v-1.014h1.734v-6.398l-1.734,0.434v-1.043l3.475-0.867v7.875h1.734v1.014H342.514z M352.662,156.08
				c-0.984,0-1.784-0.422-2.399-1.266s-0.922-1.939-0.922-3.287c0-1.363,0.308-2.463,0.926-3.299
				c0.617-0.836,1.429-1.254,2.437-1.254c1.001,0,1.81,0.417,2.429,1.251c0.62,0.834,0.929,1.927,0.929,3.278
				c0,1.387-0.309,2.496-0.929,3.328C354.513,155.664,353.69,156.08,352.662,156.08z M352.68,154.996
				c1.028,0,1.541-1.157,1.541-3.469c0-2.313-0.505-3.469-1.518-3.469c-1.012,0-1.518,1.154-1.518,3.463
				C351.185,153.838,351.683,154.996,352.68,154.996z M357.203,155.863v-1.881h1.881v1.881H357.203z M360.484,155.863v-1.371
				l0.094-0.129c0.465-0.621,0.941-1.145,1.43-1.571l0.709-0.627c1.168-1.031,1.752-1.936,1.752-2.713
				c0-0.906-0.516-1.359-1.547-1.359c-0.637,0-1.375,0.215-2.215,0.645v-1.272c0.883-0.328,1.737-0.492,2.561-0.492
				c0.922,0,1.66,0.218,2.215,0.653c0.554,0.435,0.832,1.018,0.832,1.749c0,0.504-0.135,0.963-0.404,1.377
				c-0.27,0.414-0.744,0.894-1.424,1.441l-0.586,0.468c-0.817,0.656-1.301,1.266-1.453,1.829h3.832v1.371H360.484z M374.846,155.863
				l-3.205-8.672h1.928l2.484,6.709l2.402-6.709h1.301l-3.099,8.672H374.846z M380.963,155.863v-6.433h1.734v6.433H380.963z
				 M380.963,148.346v-1.447h1.734v1.447H380.963z M384.695,155.658v-1.272c0.86,0.36,1.594,0.539,2.203,0.539
				c0.711,0,1.066-0.242,1.066-0.727c0-0.313-0.293-0.586-0.879-0.82l-0.586-0.234c-0.636-0.258-1.091-0.535-1.365-0.832
				c-0.273-0.297-0.41-0.664-0.41-1.102c0-0.609,0.233-1.083,0.697-1.421c0.465-0.338,1.115-0.507,1.951-0.507
				c0.524,0,1.147,0.076,1.869,0.229v1.219c-0.695-0.242-1.272-0.363-1.729-0.363c-0.719,0-1.078,0.223-1.078,0.668
				c0,0.293,0.266,0.541,0.797,0.744l0.504,0.193c0.754,0.285,1.278,0.574,1.573,0.867c0.295,0.293,0.442,0.67,0.442,1.131
				c0,0.605-0.251,1.096-0.753,1.473c-0.502,0.377-1.155,0.565-1.96,0.565C386.266,156.009,385.485,155.892,384.695,155.658z
				 M395.629,155.863v-1.213c-0.562,0.906-1.293,1.359-2.191,1.359c-0.574,0-1.028-0.182-1.359-0.545
				c-0.332-0.363-0.498-0.859-0.498-1.488v-4.547h1.734v4.119c0,0.73,0.244,1.095,0.732,1.095c0.547,0,1.075-0.389,1.582-1.166
				v-4.049h1.734v6.433H395.629z M402.684,155.172c-0.579,0.559-1.198,0.838-1.857,0.838c-0.562,0-1.02-0.172-1.371-0.516
				c-0.352-0.344-0.527-0.789-0.527-1.336c0-0.711,0.284-1.259,0.853-1.644c0.568-0.385,1.381-0.577,2.44-0.577h0.463v-0.586
				c0-0.668-0.381-1.002-1.143-1.002c-0.676,0-1.359,0.191-2.051,0.574v-1.195c0.785-0.297,1.562-0.445,2.332-0.445
				c1.683,0,2.525,0.67,2.525,2.01v2.847c0,0.504,0.162,0.756,0.486,0.756c0.059,0,0.135-0.008,0.229-0.024l0.041,0.973
				c-0.368,0.109-0.691,0.164-0.973,0.164c-0.711,0-1.168-0.279-1.371-0.838H402.684z M402.684,154.24v-1.306h-0.41
				c-1.121,0-1.682,0.352-1.682,1.055c0,0.238,0.081,0.438,0.243,0.6c0.162,0.162,0.362,0.243,0.601,0.243
				C401.842,154.832,402.258,154.635,402.684,154.24z M406.586,155.863v-9.252h1.734v9.252H406.586z M410.488,155.863v-6.433h1.734
				v6.433H410.488z M410.488,148.346v-1.447h1.734v1.447H410.488z M414.027,155.863v-1.154l3.598-4.195h-3.434v-1.084h5.484v1.084
				l-3.598,4.195h3.668v1.154H414.027z M421.117,155.863v-1.154l3.598-4.195h-3.434v-1.084h5.485v1.084l-3.598,4.195h3.668v1.154
				H421.117z M431.723,155.172c-0.579,0.559-1.198,0.838-1.857,0.838c-0.562,0-1.02-0.172-1.371-0.516
				c-0.352-0.344-0.527-0.789-0.527-1.336c0-0.711,0.284-1.259,0.853-1.644c0.568-0.385,1.381-0.577,2.44-0.577h0.463v-0.586
				c0-0.668-0.381-1.002-1.143-1.002c-0.676,0-1.359,0.191-2.051,0.574v-1.195c0.785-0.297,1.562-0.445,2.332-0.445
				c1.683,0,2.525,0.67,2.525,2.01v2.847c0,0.504,0.162,0.756,0.486,0.756c0.059,0,0.135-0.008,0.229-0.024l0.041,0.973
				c-0.368,0.109-0.691,0.164-0.973,0.164c-0.711,0-1.168-0.279-1.371-0.838H431.723z M431.723,154.24v-1.306h-0.41
				c-1.121,0-1.682,0.352-1.682,1.055c0,0.238,0.081,0.438,0.243,0.6c0.162,0.162,0.362,0.243,0.601,0.243
				C430.881,154.832,431.297,154.635,431.723,154.24z"/>
		</g>
	</g>
	<g transform="matrix(1.3333,0,0,1.3333,44,58.1771) translate(312.5606,144.2612)">
		<g>
			<defs>
				<rect id="SVGID_39_" x="-500.17" y="-284.509" width="1236.969" height="772.981"/>
			</defs>
			<clipPath id="SVGID_40_">
				<use xlink:href="#SVGID_39_"  overflow="visible"/>
			</clipPath>
			<path clip-path="url(#SVGID_40_)" d="M5.133,25.734v-1.213c-0.445,0.906-1.147,1.359-2.104,1.359
				c-0.773,0-1.381-0.283-1.822-0.85c-0.442-0.566-0.662-1.345-0.662-2.338c0-1.078,0.249-1.938,0.747-2.578
				c0.498-0.641,1.167-0.961,2.007-0.961c0.672,0,1.283,0.266,1.834,0.797v-3.469h1.74v9.252H5.133z M5.133,20.983
				c-0.418-0.469-0.866-0.703-1.342-0.703c-0.426,0-0.766,0.205-1.02,0.615c-0.254,0.41-0.381,0.961-0.381,1.652
				c0,1.316,0.422,1.974,1.266,1.974c0.516,0,1.008-0.33,1.477-0.99V20.983z M14.273,25.518c-0.824,0.242-1.606,0.363-2.344,0.363
				c-1.074,0-1.922-0.305-2.543-0.914c-0.621-0.609-0.932-1.441-0.932-2.496c0-0.996,0.284-1.798,0.853-2.405
				c0.568-0.608,1.32-0.911,2.253-0.911c0.942,0,1.629,0.297,2.063,0.891c0.434,0.594,0.65,1.533,0.65,2.818h-3.99
				c0.117,1.226,0.791,1.84,2.022,1.84c0.582,0,1.239-0.135,1.969-0.404V25.518z M10.26,21.885h2.309
				c0-1.098-0.353-1.647-1.061-1.647C10.789,20.239,10.373,20.788,10.26,21.885z M19.383,25.699
				c-0.414,0.121-0.741,0.182-0.979,0.182c-1.504,0-2.256-0.703-2.256-2.109v-3.386h-0.721v-1.084h0.721v-1.084l1.734-0.199v1.283
				h1.377v1.084h-1.377v3.158c0,0.789,0.322,1.183,0.967,1.183c0.149,0,0.326-0.027,0.533-0.082V25.699z M24.246,25.699
				c-0.414,0.121-0.741,0.182-0.979,0.182c-1.504,0-2.256-0.703-2.256-2.109v-3.386h-0.721v-1.084h0.721v-1.084l1.734-0.199v1.283
				h1.377v1.084h-1.377v3.158c0,0.789,0.322,1.183,0.967,1.183c0.149,0,0.326-0.027,0.533-0.082V25.699z M28.946,25.043
				c-0.579,0.559-1.198,0.838-1.857,0.838c-0.563,0-1.02-0.172-1.371-0.516c-0.352-0.344-0.527-0.789-0.527-1.336
				c0-0.711,0.284-1.259,0.853-1.644c0.568-0.385,1.381-0.577,2.44-0.577h0.463v-0.586c0-0.668-0.381-1.002-1.143-1.002
				c-0.676,0-1.359,0.191-2.051,0.574V19.6c0.785-0.297,1.562-0.445,2.332-0.445c1.683,0,2.525,0.67,2.525,2.01v2.847
				c0,0.504,0.162,0.756,0.486,0.756c0.059,0,0.135-0.008,0.229-0.023l0.041,0.973c-0.368,0.11-0.691,0.164-0.973,0.164
				c-0.711,0-1.168-0.279-1.371-0.838H28.946z M28.946,24.111v-1.306h-0.41c-1.121,0-1.682,0.352-1.682,1.054
				c0,0.238,0.081,0.439,0.243,0.601c0.162,0.162,0.362,0.243,0.601,0.243C28.103,24.703,28.519,24.506,28.946,24.111z
				 M32.895,27.733l0.141-1.26c0.715,0.328,1.396,0.492,2.045,0.492c0.64,0,1.103-0.137,1.389-0.41
				c0.285-0.273,0.428-0.717,0.428-1.33v-0.879c-0.422,0.926-1.119,1.389-2.092,1.389c-0.766,0-1.373-0.286-1.822-0.858
				c-0.45-0.572-0.674-1.347-0.674-2.323c0-1.027,0.252-1.851,0.756-2.469c0.504-0.619,1.173-0.929,2.01-0.929
				c0.656,0,1.263,0.266,1.822,0.797l0.181-0.65h1.559v4.91c0,0.981-0.059,1.688-0.179,2.121c-0.119,0.434-0.35,0.803-0.694,1.107
				c-0.579,0.5-1.393,0.75-2.443,0.75C34.574,28.19,33.766,28.037,32.895,27.733z M36.897,23.338v-2.373
				c-0.418-0.473-0.855-0.709-1.313-0.709c-0.438,0-0.785,0.199-1.043,0.598c-0.258,0.398-0.387,0.933-0.387,1.605
				c0,1.258,0.404,1.886,1.213,1.886C35.926,24.346,36.435,24.01,36.897,23.338z M40.763,25.734v-9.252h1.734v9.252H40.763z
				 M44.666,25.734v-6.433H46.4v6.433H44.666z M44.666,18.217V16.77H46.4v1.447H44.666z M52.524,25.734v-6.433h1.734v1.213
				c0.449-0.906,1.133-1.359,2.051-1.359c0.109,0,0.217,0.012,0.322,0.035v1.547c-0.246-0.09-0.475-0.135-0.686-0.135
				c-0.691,0-1.254,0.35-1.688,1.049v4.084H52.524z M57.979,25.734v-6.433h1.734v6.433H57.979z M57.979,18.217V16.77h1.734v1.447
				H57.979z M66.627,25.594c-0.719,0.192-1.385,0.287-1.999,0.287c-1.027,0-1.838-0.302-2.434-0.905
				c-0.596-0.604-0.894-1.425-0.894-2.464c0-1.051,0.306-1.873,0.92-2.466c0.613-0.594,1.46-0.891,2.543-0.891
				c0.523,0,1.126,0.084,1.81,0.252v1.254c-0.71-0.23-1.279-0.346-1.705-0.346c-0.519,0-0.938,0.199-1.254,0.598
				c-0.316,0.398-0.474,0.928-0.474,1.588c0,0.676,0.171,1.217,0.513,1.623c0.341,0.407,0.798,0.609,1.368,0.609
				c0.519,0,1.054-0.113,1.606-0.34V25.594z M68.267,25.734v-9.252h1.734v4.031c0.567-0.906,1.297-1.359,2.191-1.359
				c0.574,0,1.028,0.182,1.359,0.545c0.333,0.363,0.498,0.859,0.498,1.488v4.547h-1.734v-4.119c0-0.73-0.242-1.095-0.727-1.095
				c-0.551,0-1.08,0.389-1.588,1.166v4.049H68.267z M76.148,25.734v-6.433h1.734v6.433H76.148z M76.148,18.217V16.77h1.734v1.447
				H76.148z M85.289,25.518c-0.825,0.242-1.606,0.363-2.344,0.363c-1.074,0-1.922-0.305-2.543-0.914
				c-0.621-0.609-0.932-1.441-0.932-2.496c0-0.996,0.284-1.798,0.853-2.405c0.568-0.608,1.319-0.911,2.253-0.911
				c0.941,0,1.629,0.297,2.063,0.891c0.434,0.594,0.65,1.533,0.65,2.818h-3.99c0.117,1.226,0.791,1.84,2.022,1.84
				c0.582,0,1.239-0.135,1.969-0.404V25.518z M81.275,21.885h2.309c0-1.098-0.354-1.647-1.061-1.647
				C81.805,20.239,81.389,20.788,81.275,21.885z M86.912,25.529v-1.272c0.859,0.36,1.594,0.539,2.203,0.539
				c0.71,0,1.066-0.242,1.066-0.727c0-0.312-0.293-0.586-0.879-0.82l-0.586-0.234c-0.637-0.258-1.092-0.535-1.365-0.832
				c-0.274-0.297-0.41-0.664-0.41-1.102c0-0.609,0.232-1.083,0.697-1.421c0.464-0.338,1.115-0.507,1.951-0.507
				c0.523,0,1.146,0.076,1.869,0.229v1.219c-0.696-0.242-1.272-0.363-1.729-0.363c-0.719,0-1.078,0.223-1.078,0.668
				c0,0.293,0.265,0.541,0.797,0.745l0.504,0.193c0.754,0.285,1.278,0.574,1.573,0.867c0.294,0.293,0.442,0.67,0.442,1.131
				c0,0.606-0.251,1.097-0.753,1.474c-0.502,0.377-1.156,0.565-1.96,0.565C88.483,25.881,87.701,25.764,86.912,25.529z
				 M97.183,25.699c-0.414,0.121-0.74,0.182-0.978,0.182c-1.504,0-2.256-0.703-2.256-2.109v-3.386h-0.721v-1.084h0.721v-1.084
				l1.734-0.199v1.283h1.376v1.084h-1.376v3.158c0,0.789,0.322,1.183,0.966,1.183c0.149,0,0.327-0.027,0.533-0.082V25.699z
				 M101.883,25.043c-0.578,0.559-1.197,0.838-1.857,0.838c-0.563,0-1.02-0.172-1.371-0.516c-0.352-0.344-0.527-0.789-0.527-1.336
				c-0.001-0.711,0.283-1.259,0.852-1.644c0.568-0.385,1.382-0.577,2.44-0.577h0.463v-0.586c0-0.668-0.381-1.002-1.143-1.002
				c-0.675,0-1.359,0.191-2.051,0.574V19.6c0.785-0.297,1.563-0.445,2.332-0.445c1.684,0,2.525,0.67,2.525,2.01v2.847
				c0,0.504,0.163,0.756,0.486,0.756c0.059,0,0.135-0.008,0.229-0.023l0.041,0.973c-0.367,0.11-0.691,0.164-0.973,0.164
				c-0.71,0-1.168-0.279-1.371-0.838H101.883z M101.883,24.111v-1.306h-0.41c-1.121,0-1.682,0.352-1.682,1.054
				c0,0.238,0.081,0.439,0.243,0.601c0.163,0.162,0.363,0.243,0.601,0.243C101.041,24.703,101.457,24.506,101.883,24.111z"/>
		</g>
	</g>
	<g transform="matrix(1.3333,0,0,1.3333,44,58.1771) translate(5,5)">
		<g>
			<defs>
				<rect id="SVGID_41_" x="-192.61" y="-145.248" width="1236.97" height="772.981"/>
			</defs>
			<clipPath id="SVGID_42_">
				<use xlink:href="#SVGID_41_"  overflow="visible"/>
			</clipPath>
			<ellipse clip-path="url(#SVGID_42_)" fill="#C0C0C0" fill-opacity="0.502" cx="381.15" cy="244.567" rx="97" ry="34.567"/>
		</g>
		<g>
			<defs>
				<rect id="SVGID_43_" x="-192.61" y="-145.248" width="1236.97" height="772.981"/>
			</defs>
			<clipPath id="SVGID_44_">
				<use xlink:href="#SVGID_43_"  overflow="visible"/>
			</clipPath>
			
				<ellipse clip-path="url(#SVGID_44_)" fill="none" stroke="#C0C0C0" stroke-width="2" stroke-linecap="square" stroke-miterlimit="10" stroke-opacity="0.502" cx="381.15" cy="244.567" rx="97" ry="34.567"/>
		</g>
	</g>
	<g transform="matrix(1.3333,0,0,1.3333,44,58.1771)">
		<g>
			<defs>
				<rect id="SVGID_45_" x="-187.61" y="-140.248" width="1236.97" height="772.981"/>
			</defs>
			<clipPath id="SVGID_46_">
				<use xlink:href="#SVGID_45_"  overflow="visible"/>
			</clipPath>
			
				<linearGradient id="SVGID_47_" gradientUnits="userSpaceOnUse" x1="233.981" y1="367.2053" x2="428.981" y2="297.2053" gradientTransform="matrix(1.3333 0 0 -1.3333 -27.869 699.3226)">
				<stop  offset="0" style="stop-color:#FFFFFF"/>
				<stop  offset="1" style="stop-color:#FFFFCC"/>
			</linearGradient>
			<ellipse clip-path="url(#SVGID_46_)" fill="url(#SVGID_47_)" cx="381.15" cy="244.567" rx="97" ry="34.566"/>
		</g>
		<g>
			<defs>
				<rect id="SVGID_48_" x="-187.61" y="-140.248" width="1236.97" height="772.981"/>
			</defs>
			<clipPath id="SVGID_49_">
				<use xlink:href="#SVGID_48_"  overflow="visible"/>
			</clipPath>
			
				<ellipse clip-path="url(#SVGID_49_)" fill="none" stroke="#000000" stroke-width="2" stroke-linecap="square" stroke-miterlimit="10" cx="381.15" cy="244.567" rx="97" ry="34.566"/>
		</g>
		<g>
			<defs>
				<rect id="SVGID_50_" x="-187.61" y="-140.248" width="1236.969" height="772.981"/>
			</defs>
			<clipPath id="SVGID_51_">
				<use xlink:href="#SVGID_50_"  overflow="visible"/>
			</clipPath>
			<path clip-path="url(#SVGID_51_)" d="M313.575,233.363h1.805v5.315c0,0.84,0.138,1.446,0.416,1.819
				c0.277,0.373,0.724,0.56,1.342,0.56c0.59,0,1.016-0.178,1.28-0.533c0.264-0.356,0.396-0.928,0.396-1.717v-5.444h1.57v5.326
				c0,0.801-0.076,1.411-0.229,1.831c-0.153,0.42-0.43,0.784-0.833,1.093c-0.551,0.426-1.291,0.639-2.22,0.639
				c-0.996,0-1.797-0.227-2.402-0.68c-0.418-0.313-0.71-0.683-0.876-1.11c-0.166-0.428-0.249-1.025-0.249-1.79V233.363z
				 M329.459,241.69c-0.839,0.375-1.841,0.563-3.006,0.563c-1.422,0-2.529-0.401-3.322-1.201c-0.792-0.801-1.189-1.918-1.189-3.352
				c0-1.461,0.4-2.585,1.198-3.372c0.799-0.787,1.939-1.181,3.419-1.181c0.946,0,1.885,0.111,2.818,0.334v1.412
				c-1.058-0.371-1.945-0.557-2.66-0.557c-0.914,0-1.619,0.29-2.115,0.87c-0.496,0.58-0.744,1.403-0.744,2.47
				c0,1.047,0.267,1.863,0.8,2.449c0.533,0.586,1.274,0.879,2.224,0.879c0.852,0,1.711-0.215,2.578-0.645V241.69z M331.633,242.036
				v-1.014h1.734v-6.399l-1.734,0.434v-1.043l3.475-0.867v7.875h1.734v1.014H331.633z M338.406,242.036v-1.881h1.881v1.881H338.406z
				 M342.514,242.036v-1.014h1.734v-6.399l-1.734,0.434v-1.043l3.475-0.867v7.875h1.734v1.014H342.514z M352.662,242.252
				c-0.984,0-1.784-0.422-2.399-1.266c-0.615-0.844-0.922-1.94-0.922-3.287c0-1.363,0.308-2.463,0.926-3.299
				c0.617-0.836,1.429-1.254,2.437-1.254c1.001,0,1.81,0.417,2.429,1.251c0.62,0.834,0.929,1.927,0.929,3.278
				c0,1.387-0.309,2.496-0.929,3.328C354.513,241.836,353.69,242.252,352.662,242.252z M352.68,241.168
				c1.028,0,1.541-1.157,1.541-3.469c0-2.313-0.505-3.469-1.518-3.469c-1.012,0-1.518,1.154-1.518,3.463
				C351.185,240.01,351.683,241.168,352.68,241.168z M357.203,242.036v-1.881h1.881v1.881H357.203z M360.807,241.971v-1.301
				c0.859,0.332,1.568,0.498,2.127,0.498c0.519,0,0.937-0.133,1.251-0.398c0.314-0.266,0.472-0.619,0.472-1.061
				c0-1.145-0.838-1.717-2.514-1.717h-0.533v-1.037l0.451-0.006c1.57,0,2.356-0.514,2.356-1.541c0-0.785-0.484-1.178-1.453-1.178
				c-0.637,0-1.316,0.162-2.039,0.486v-1.184c0.762-0.262,1.564-0.393,2.408-0.393c0.894,0,1.595,0.183,2.101,0.551
				c0.506,0.367,0.759,0.875,0.759,1.523c0,1.024-0.639,1.746-1.916,2.168c1.461,0.336,2.191,1.117,2.191,2.344
				c0,0.777-0.293,1.392-0.879,1.846c-0.586,0.453-1.383,0.68-2.391,0.68C362.342,242.252,361.545,242.159,360.807,241.971z
				 M372.578,242.036v-8.672h2.391l2.085,6.1l2.15-6.1h2.098v8.672h-1.664v-6.545l-2.115,5.965h-1.453l-2.074-6.053v6.633H372.578z
				 M386.172,242.182c-1.003,0-1.802-0.304-2.394-0.911c-0.592-0.608-0.888-1.425-0.888-2.452c0-1.039,0.298-1.859,0.894-2.461
				c0.596-0.602,1.406-0.902,2.429-0.902c1.028,0,1.839,0.301,2.435,0.902c0.596,0.602,0.894,1.418,0.894,2.449
				c0,1.055-0.299,1.881-0.897,2.479C388.047,241.883,387.223,242.182,386.172,242.182z M386.201,241.098
				c0.996,0,1.494-0.764,1.494-2.291c0-0.699-0.132-1.252-0.396-1.658c-0.264-0.406-0.626-0.609-1.087-0.609
				c-0.457,0-0.817,0.203-1.081,0.609c-0.264,0.406-0.396,0.963-0.396,1.67c0,0.699,0.131,1.254,0.393,1.664
				C385.391,240.893,385.748,241.098,386.201,241.098z M395.184,242.036v-1.213c-0.445,0.906-1.146,1.359-2.104,1.359
				c-0.773,0-1.381-0.283-1.822-0.849c-0.442-0.567-0.662-1.346-0.662-2.338c0-1.078,0.249-1.938,0.747-2.578
				c0.498-0.641,1.167-0.961,2.007-0.961c0.672,0,1.283,0.266,1.834,0.797v-3.469h1.74v9.252H395.184z M395.184,237.284
				c-0.418-0.469-0.865-0.703-1.342-0.703c-0.426,0-0.765,0.205-1.02,0.615c-0.254,0.41-0.381,0.961-0.381,1.652
				c0,1.316,0.422,1.975,1.266,1.975c0.516,0,1.008-0.33,1.477-0.99V237.284z M399.086,242.036v-6.434h1.734v6.434H399.086z
				 M399.086,234.518v-1.447h1.734v1.447H399.086z M403.17,242.036v-5.35h-0.885v-1.084h0.885v-0.463
				c0-1.668,0.791-2.502,2.373-2.502c0.511,0,1.039,0.074,1.582,0.223v1.172c-0.492-0.207-0.934-0.311-1.324-0.311
				c-0.598,0-0.896,0.451-0.896,1.354v0.527h1.629v1.084h-1.629v5.35H403.17z M407.963,242.036v-6.434h1.734v6.434H407.963z
				 M407.963,234.518v-1.447h1.734v1.447H407.963z M416.611,241.895c-0.719,0.191-1.384,0.287-1.998,0.287
				c-1.027,0-1.838-0.301-2.435-0.905c-0.595-0.604-0.894-1.425-0.894-2.464c0-1.051,0.307-1.873,0.92-2.467
				c0.614-0.594,1.461-0.891,2.543-0.891c0.524,0,1.127,0.084,1.811,0.252v1.254c-0.711-0.231-1.279-0.346-1.705-0.346
				c-0.519,0-0.938,0.199-1.254,0.598c-0.316,0.398-0.475,0.928-0.475,1.588c0,0.676,0.171,1.217,0.513,1.623
				c0.342,0.406,0.798,0.609,1.368,0.609c0.52,0,1.055-0.114,1.605-0.34V241.895z M421.404,241.344
				c-0.578,0.558-1.198,0.838-1.857,0.838c-0.563,0-1.02-0.172-1.371-0.515c-0.352-0.344-0.527-0.789-0.527-1.336
				c0-0.711,0.284-1.259,0.853-1.644c0.568-0.385,1.382-0.577,2.44-0.577h0.463v-0.586c0-0.668-0.381-1.002-1.143-1.002
				c-0.676,0-1.359,0.192-2.051,0.574v-1.195c0.785-0.297,1.562-0.445,2.332-0.445c1.684,0,2.525,0.67,2.525,2.01v2.848
				c0,0.504,0.162,0.756,0.486,0.756c0.059,0,0.135-0.008,0.229-0.023l0.041,0.973c-0.367,0.109-0.691,0.164-0.973,0.164
				c-0.711,0-1.168-0.279-1.371-0.838H421.404z M421.404,240.413v-1.307h-0.41c-1.121,0-1.682,0.352-1.682,1.055
				c0,0.238,0.081,0.438,0.243,0.601c0.162,0.162,0.363,0.243,0.601,0.243C420.563,241.004,420.979,240.807,421.404,240.413z"/>
		</g>
	</g>
	<g transform="matrix(1.3333,0,0,1.3333,44,58.1771) translate(312.5606,230.4336)">
		<g>
			<defs>
				<rect id="SVGID_52_" x="-500.17" y="-370.682" width="1236.969" height="772.981"/>
			</defs>
			<clipPath id="SVGID_53_">
				<use xlink:href="#SVGID_52_"  overflow="visible"/>
			</clipPath>
			<path clip-path="url(#SVGID_53_)" d="M1.084,25.735v-6.434h1.734v1.213c0.449-0.907,1.132-1.359,2.051-1.359
				c0.109,0,0.217,0.012,0.322,0.035v1.547c-0.246-0.09-0.475-0.135-0.686-0.135c-0.691,0-1.254,0.349-1.688,1.049v4.084H1.084z
				 M6.539,25.735v-6.434h1.734v6.434H6.539z M6.539,18.217V16.77h1.734v1.447H6.539z M15.187,25.595
				c-0.719,0.19-1.384,0.287-1.998,0.287c-1.027,0-1.838-0.302-2.435-0.905c-0.595-0.604-0.894-1.425-0.894-2.464
				c0-1.052,0.307-1.874,0.92-2.467c0.614-0.594,1.461-0.891,2.543-0.891c0.524,0,1.127,0.083,1.811,0.252v1.254
				c-0.71-0.231-1.279-0.346-1.705-0.346c-0.519,0-0.938,0.199-1.254,0.598c-0.316,0.398-0.475,0.927-0.475,1.588
				c0,0.675,0.171,1.216,0.513,1.623c0.342,0.406,0.798,0.609,1.368,0.609c0.52,0,1.055-0.114,1.606-0.34V25.595z M16.828,25.735
				v-9.252h1.734v4.031c0.566-0.907,1.297-1.359,2.191-1.359c0.574,0,1.028,0.182,1.359,0.545c0.332,0.363,0.498,0.859,0.498,1.488
				v4.547h-1.734v-4.119c0-0.731-0.242-1.096-0.727-1.096c-0.551,0-1.08,0.388-1.588,1.166v4.049H16.828z M24.709,25.735v-6.434
				h1.734v6.434H24.709z M24.709,18.217V16.77h1.734v1.447H24.709z M33.85,25.518c-0.825,0.242-1.605,0.363-2.344,0.363
				c-1.074,0-1.922-0.305-2.543-0.914c-0.621-0.609-0.932-1.441-0.932-2.496c0-0.996,0.284-1.798,0.853-2.405
				c0.568-0.608,1.319-0.911,2.253-0.911c0.941,0,1.629,0.297,2.063,0.891c0.434,0.593,0.65,1.532,0.65,2.818h-3.99
				c0.117,1.226,0.791,1.84,2.022,1.84c0.582,0,1.238-0.135,1.969-0.404V25.518z M29.836,21.885h2.309
				c0-1.098-0.354-1.647-1.061-1.647C30.365,20.239,29.949,20.788,29.836,21.885z M35.473,25.53v-1.272
				c0.859,0.359,1.594,0.539,2.203,0.539c0.71,0,1.066-0.243,1.066-0.727c0-0.313-0.293-0.586-0.878-0.82l-0.587-0.234
				c-0.636-0.258-1.091-0.536-1.365-0.832c-0.274-0.297-0.41-0.664-0.41-1.102c0-0.609,0.232-1.083,0.697-1.421
				c0.464-0.338,1.115-0.507,1.95-0.507c0.524,0,1.147,0.076,1.869,0.229v1.219c-0.695-0.242-1.272-0.363-1.729-0.363
				c-0.719,0-1.077,0.223-1.077,0.668c0,0.293,0.265,0.541,0.797,0.744l0.504,0.193c0.754,0.285,1.278,0.574,1.573,0.867
				c0.295,0.293,0.442,0.669,0.442,1.131c0,0.605-0.25,1.096-0.753,1.473c-0.502,0.377-1.155,0.566-1.96,0.566
				C37.043,25.882,36.262,25.764,35.473,25.53z M45.744,25.699c-0.414,0.121-0.74,0.182-0.979,0.182
				c-1.504,0-2.256-0.703-2.256-2.109v-3.387h-0.721v-1.084h0.721v-1.084l1.734-0.199v1.283h1.377v1.084h-1.377v3.158
				c0,0.788,0.322,1.184,0.967,1.184c0.149,0,0.326-0.028,0.533-0.082V25.699z M50.443,25.044c-0.578,0.558-1.198,0.838-1.857,0.838
				c-0.562,0-1.02-0.173-1.371-0.516c-0.352-0.344-0.527-0.789-0.527-1.335c0-0.712,0.284-1.26,0.853-1.644
				c0.568-0.385,1.382-0.577,2.44-0.577h0.463v-0.586c0-0.668-0.381-1.002-1.143-1.002c-0.676,0-1.359,0.191-2.051,0.574V19.6
				c0.785-0.297,1.562-0.445,2.332-0.445c1.684,0,2.525,0.669,2.525,2.01v2.848c0,0.504,0.162,0.756,0.486,0.756
				c0.059,0,0.135-0.009,0.229-0.024l0.041,0.973c-0.367,0.108-0.691,0.164-0.973,0.164c-0.711,0-1.168-0.28-1.371-0.838H50.443z
				 M50.443,24.112v-1.307h-0.41c-1.121,0-1.682,0.352-1.682,1.055c0,0.237,0.081,0.438,0.243,0.601
				c0.162,0.161,0.363,0.243,0.601,0.243C49.602,24.704,50.018,24.506,50.443,24.112z"/>
		</g>
	</g>
	<g transform="matrix(1.3333,0,0,1.3333,44,58.1771) translate(5,5)">
		<g>
			<defs>
				<rect id="SVGID_54_" x="-192.61" y="-145.248" width="1236.97" height="772.981"/>
			</defs>
			<clipPath id="SVGID_55_">
				<use xlink:href="#SVGID_54_"  overflow="visible"/>
			</clipPath>
			
				<rect x="221.3" y="0.5" clip-path="url(#SVGID_55_)" fill="none" stroke="#C0C0C0" stroke-linecap="square" stroke-miterlimit="10" stroke-opacity="0.502" width="320.7" height="478.5"/>
		</g>
	</g>
	<g transform="matrix(1.3333,0,0,1.3333,44,58.1771)">
		<g>
			<defs>
				<rect id="SVGID_56_" x="-187.61" y="-140.248" width="1236.97" height="772.981"/>
			</defs>
			<clipPath id="SVGID_57_">
				<use xlink:href="#SVGID_56_"  overflow="visible"/>
			</clipPath>
			
				<rect x="221.3" y="0.5" clip-path="url(#SVGID_57_)" fill="none" stroke="#000000" stroke-linecap="square" stroke-miterlimit="10" width="320.7" height="478.5"/>
		</g>
		<g>
			<defs>
				<rect id="SVGID_58_" x="-187.61" y="-140.248" width="1236.969" height="772.981"/>
			</defs>
			<clipPath id="SVGID_59_">
				<use xlink:href="#SVGID_58_"  overflow="visible"/>
			</clipPath>
			<path clip-path="url(#SVGID_59_)" d="M231.985,22.102V13.43h2.25c0.867,0,1.532,0.164,1.995,0.492
				c0.463,0.328,0.694,0.801,0.694,1.418c0,1.051-0.594,1.799-1.781,2.244c1.418,0.434,2.127,1.217,2.127,2.349
				c0,0.703-0.234,1.24-0.703,1.611c-0.469,0.371-1.145,0.557-2.027,0.557H231.985z M233.204,21.182h0.252
				c0.902,0,1.486-0.057,1.752-0.17c0.508-0.215,0.762-0.613,0.762-1.195c0-0.515-0.231-0.944-0.691-1.286
				c-0.461-0.342-1.037-0.513-1.729-0.513h-0.346V21.182z M233.204,17.239h0.393c0.656,0,1.165-0.141,1.526-0.422
				c0.361-0.281,0.542-0.678,0.542-1.19c0-0.852-0.66-1.277-1.981-1.277h-0.48V17.239z M238.888,22.102V13.43h2.883
				c0.859,0,1.553,0.096,2.083,0.287c0.529,0.191,0.987,0.516,1.374,0.973c0.613,0.727,0.92,1.684,0.92,2.871
				c0,1.442-0.381,2.559-1.143,3.352c-0.762,0.793-1.834,1.189-3.217,1.189H238.888z M240.118,21.182h1.576
				c1.125,0,1.922-0.303,2.391-0.908c0.504-0.645,0.756-1.51,0.756-2.596c0-1.019-0.248-1.82-0.744-2.402
				c-0.301-0.356-0.661-0.599-1.078-0.729c-0.418-0.131-1.047-0.196-1.887-0.196h-1.014V21.182z M249.575,22.319
				c-0.582,0-1.326-0.127-2.232-0.381v-1.218c0.976,0.453,1.779,0.679,2.408,0.679c0.484,0,0.874-0.127,1.168-0.381
				c0.295-0.254,0.442-0.588,0.442-1.002c0-0.34-0.097-0.629-0.289-0.867c-0.194-0.238-0.55-0.504-1.07-0.797l-0.597-0.346
				c-0.738-0.422-1.259-0.82-1.562-1.192c-0.303-0.373-0.454-0.808-0.454-1.304c0-0.668,0.242-1.218,0.727-1.649
				c0.484-0.432,1.102-0.648,1.852-0.648c0.667,0,1.373,0.111,2.115,0.334v1.125c-0.914-0.36-1.595-0.539-2.044-0.539
				c-0.426,0-0.778,0.113-1.055,0.34c-0.278,0.226-0.416,0.512-0.416,0.855c0,0.289,0.101,0.545,0.305,0.768
				c0.203,0.223,0.574,0.488,1.113,0.797l0.621,0.351c0.75,0.426,1.274,0.828,1.57,1.207c0.297,0.379,0.445,0.834,0.445,1.365
				c0,0.754-0.278,1.359-0.835,1.816S250.493,22.319,249.575,22.319z M254.338,22.102V13.43h1.705l2.402,6.709l2.473-6.709h1.523
				v8.672h-1.148v-7.055l-2.391,6.474h-1.189l-2.32-6.492v7.072H254.338z M272.866,18.786l-1.477-3.738l-1.482,3.738H272.866z
				 M274.167,22.102l-0.943-2.402h-3.674l-0.955,2.402h-1.143l3.44-8.672h1.219l3.387,8.672H274.167z M276.786,24.416v-8.678h1.154
				v1.195c0.472-0.891,1.181-1.336,2.127-1.336c0.765,0,1.367,0.279,1.807,0.838c0.439,0.558,0.659,1.322,0.659,2.291
				c0,1.054-0.249,1.905-0.747,2.551c-0.498,0.646-1.153,0.97-1.965,0.97c-0.754,0-1.381-0.289-1.881-0.867v3.035H276.786z
				 M277.941,20.584c0.593,0.531,1.159,0.797,1.699,0.797c1.11,0,1.664-0.846,1.664-2.537c0-1.492-0.492-2.238-1.477-2.238
				c-0.645,0-1.273,0.349-1.886,1.049V20.584z M284.338,24.416v-8.678h1.154v1.195c0.473-0.891,1.182-1.336,2.127-1.336
				c0.765,0,1.368,0.279,1.808,0.838c0.439,0.558,0.659,1.322,0.659,2.291c0,1.054-0.249,1.905-0.747,2.551
				c-0.498,0.646-1.153,0.97-1.966,0.97c-0.754,0-1.381-0.289-1.881-0.867v3.035H284.338z M285.493,20.584
				c0.594,0.531,1.16,0.797,1.699,0.797c1.11,0,1.664-0.846,1.664-2.537c0-1.492-0.492-2.238-1.477-2.238
				c-0.645,0-1.273,0.349-1.887,1.049V20.584z M295.401,19.067v-0.867h5.203v0.867H295.401z M312.909,21.867
				c-1.05,0.301-1.967,0.451-2.748,0.451c-1.378,0-2.436-0.393-3.172-1.178c-0.737-0.785-1.105-1.91-1.105-3.375
				c0-1.437,0.373-2.555,1.119-3.354c0.746-0.799,1.792-1.198,3.14-1.198c0.883,0,1.801,0.131,2.754,0.393v1.137
				c-1.195-0.406-2.111-0.609-2.748-0.609c-0.937,0-1.665,0.318-2.182,0.955c-0.518,0.636-0.776,1.533-0.776,2.689
				c0,1.145,0.277,2.034,0.831,2.669c0.555,0.635,1.332,0.952,2.332,0.952c0.41,0,0.854-0.072,1.33-0.217v-2.824h1.225V21.867z
				 M319.764,21.897c-0.773,0.234-1.436,0.352-1.986,0.352c-0.938,0-1.702-0.312-2.294-0.935c-0.592-0.623-0.888-1.43-0.888-2.423
				c0-0.965,0.261-1.756,0.782-2.373c0.522-0.617,1.189-0.926,2.001-0.926c0.77,0,1.365,0.273,1.784,0.82
				c0.42,0.547,0.63,1.324,0.63,2.332l-0.006,0.358h-4.014c0.168,1.511,0.908,2.267,2.221,2.267c0.48,0,1.07-0.129,1.77-0.387
				V21.897z M315.827,18.235h2.807c0-1.184-0.441-1.775-1.324-1.775C316.423,16.459,315.929,17.051,315.827,18.235z M323.473,22.248
				c-0.527,0-1.168-0.123-1.922-0.369v-1.061c0.754,0.375,1.41,0.562,1.969,0.562c0.332,0,0.607-0.09,0.826-0.27
				c0.219-0.179,0.328-0.404,0.328-0.674c0-0.394-0.307-0.721-0.92-0.979l-0.674-0.287c-0.996-0.414-1.494-1.01-1.494-1.787
				c0-0.555,0.196-0.991,0.589-1.31c0.393-0.319,0.931-0.478,1.614-0.478c0.355,0,0.795,0.049,1.318,0.146l0.24,0.047v0.961
				c-0.645-0.192-1.156-0.287-1.535-0.287c-0.742,0-1.113,0.27-1.113,0.808c0,0.348,0.281,0.641,0.844,0.879l0.557,0.234
				c0.629,0.266,1.074,0.546,1.336,0.841c0.262,0.295,0.393,0.663,0.393,1.104c0,0.559-0.22,1.018-0.662,1.377
				S324.161,22.248,323.473,22.248z M329.813,22.248c-0.586,0-1.043-0.168-1.371-0.504s-0.492-0.803-0.492-1.4v-3.738h-0.797v-0.867
				h0.797v-1.154l1.154-0.111v1.266h1.664v0.867h-1.664v3.527c0,0.832,0.359,1.248,1.078,1.248c0.152,0,0.338-0.025,0.557-0.076
				v0.797C330.383,22.2,330.075,22.248,329.813,22.248z M332.392,22.102v-6.363h1.154v6.363H332.392z M332.392,14.584V13.43h1.154
				v1.154H332.392z M338.351,22.248c-0.91,0-1.637-0.302-2.18-0.905c-0.543-0.604-0.815-1.411-0.815-2.423
				c0-1.023,0.272-1.833,0.817-2.428c0.545-0.596,1.284-0.894,2.218-0.894c0.933,0,1.672,0.298,2.217,0.894
				c0.545,0.595,0.817,1.401,0.817,2.417c0,1.039-0.273,1.856-0.82,2.449C340.06,21.951,339.307,22.248,338.351,22.248z
				 M338.368,21.381c1.222,0,1.833-0.824,1.833-2.473c0-1.629-0.604-2.443-1.81-2.443c-1.203,0-1.805,0.818-1.805,2.455
				C336.587,20.561,337.18,21.381,338.368,21.381z M343.231,22.102v-6.363h1.154v1.195c0.609-0.891,1.356-1.336,2.238-1.336
				c0.551,0,0.99,0.175,1.318,0.524c0.328,0.349,0.492,0.819,0.492,1.409v4.57h-1.154v-4.195c0-0.472-0.069-0.809-0.208-1.01
				c-0.138-0.201-0.368-0.302-0.688-0.302c-0.707,0-1.373,0.463-1.998,1.388v4.119H343.231z M355.343,21.897
				c-0.773,0.234-1.436,0.352-1.986,0.352c-0.938,0-1.702-0.312-2.294-0.935c-0.592-0.623-0.888-1.43-0.888-2.423
				c0-0.965,0.261-1.756,0.782-2.373c0.521-0.617,1.189-0.926,2.001-0.926c0.77,0,1.365,0.273,1.784,0.82
				c0.42,0.547,0.63,1.324,0.63,2.332l-0.006,0.358h-4.014c0.168,1.511,0.908,2.267,2.221,2.267c0.48,0,1.07-0.129,1.77-0.387
				V21.897z M351.405,18.235h2.807c0-1.184-0.442-1.775-1.324-1.775C352.001,16.459,351.507,17.051,351.405,18.235z M361.161,22.102
				v-6.363h1.154v1.195c0.457-0.891,1.121-1.336,1.992-1.336c0.117,0,0.24,0.01,0.368,0.029v1.078c-0.198-0.067-0.374-0.1-0.527-0.1
				c-0.731,0-1.342,0.434-1.834,1.3v4.195H361.161z M366.071,22.102v-6.363h1.154v6.363H366.071z M366.071,14.584V13.43h1.154v1.154
				H366.071z M372.024,22.248c-0.859,0-1.572-0.318-2.139-0.955c-0.566-0.636-0.85-1.439-0.85-2.408c0-1.035,0.281-1.842,0.841-2.42
				c0.561-0.578,1.343-0.867,2.347-0.867c0.497,0,1.051,0.068,1.664,0.205v0.967c-0.652-0.192-1.184-0.287-1.594-0.287
				c-0.59,0-1.064,0.222-1.421,0.665c-0.357,0.443-0.536,1.034-0.536,1.772c0,0.715,0.184,1.293,0.551,1.734
				c0.368,0.442,0.848,0.662,1.441,0.662c0.527,0,1.071-0.135,1.629-0.404v0.996C373.212,22.135,372.567,22.248,372.024,22.248z
				 M375.686,22.102V12.85h1.154v4.084c0.609-0.891,1.356-1.336,2.238-1.336c0.551,0,0.99,0.175,1.318,0.524
				c0.328,0.349,0.492,0.819,0.492,1.409v4.57h-1.154v-4.195c0-0.472-0.07-0.809-0.208-1.01c-0.138-0.201-0.368-0.302-0.689-0.302
				c-0.707,0-1.373,0.463-1.998,1.388v4.119H375.686z M383.134,22.102v-6.363h1.154v6.363H383.134z M383.134,14.584V13.43h1.154
				v1.154H383.134z M391.267,21.897c-0.773,0.234-1.436,0.352-1.986,0.352c-0.938,0-1.702-0.312-2.294-0.935
				s-0.888-1.43-0.888-2.423c0-0.965,0.261-1.756,0.782-2.373c0.522-0.617,1.188-0.926,2.001-0.926c0.769,0,1.364,0.273,1.784,0.82
				c0.42,0.547,0.63,1.324,0.63,2.332l-0.006,0.358h-4.014c0.168,1.511,0.908,2.267,2.221,2.267c0.48,0,1.07-0.129,1.77-0.387
				V21.897z M387.329,18.235h2.807c0-1.184-0.442-1.775-1.324-1.775C387.925,16.459,387.43,17.051,387.329,18.235z M394.976,22.248
				c-0.527,0-1.168-0.123-1.922-0.369v-1.061c0.754,0.375,1.41,0.562,1.969,0.562c0.332,0,0.607-0.09,0.826-0.27
				c0.218-0.179,0.327-0.404,0.327-0.674c0-0.394-0.306-0.721-0.919-0.979l-0.674-0.287c-0.996-0.414-1.494-1.01-1.494-1.787
				c0-0.555,0.196-0.991,0.589-1.31c0.393-0.319,0.93-0.478,1.614-0.478c0.355,0,0.795,0.049,1.318,0.146l0.241,0.047v0.961
				c-0.645-0.192-1.157-0.287-1.535-0.287c-0.743,0-1.113,0.27-1.113,0.808c0,0.348,0.281,0.641,0.844,0.879l0.557,0.234
				c0.628,0.266,1.074,0.546,1.336,0.841c0.262,0.295,0.392,0.663,0.392,1.104c0,0.559-0.22,1.018-0.662,1.377
				C396.227,22.068,395.663,22.248,394.976,22.248z M401.315,22.248c-0.586,0-1.043-0.168-1.371-0.504s-0.492-0.803-0.492-1.4
				v-3.738h-0.796v-0.867h0.796v-1.154l1.154-0.111v1.266h1.664v0.867h-1.664v3.527c0,0.832,0.36,1.248,1.078,1.248
				c0.152,0,0.338-0.025,0.557-0.076v0.797C401.886,22.2,401.577,22.248,401.315,22.248z M408.557,21.897
				c-0.773,0.234-1.436,0.352-1.986,0.352c-0.938,0-1.702-0.312-2.294-0.935s-0.888-1.43-0.888-2.423
				c0-0.965,0.261-1.756,0.782-2.373c0.522-0.617,1.189-0.926,2.001-0.926c0.77,0,1.365,0.273,1.784,0.82
				c0.42,0.547,0.63,1.324,0.63,2.332l-0.006,0.358h-4.014c0.168,1.511,0.908,2.267,2.221,2.267c0.48,0,1.07-0.129,1.77-0.387
				V21.897z M404.62,18.235h2.807c0-1.184-0.442-1.775-1.324-1.775C405.215,16.459,404.722,17.051,404.62,18.235z M414.341,22.102
				V13.43h2.625c0.832,0,1.47,0.183,1.913,0.551c0.443,0.367,0.665,0.9,0.665,1.6c0,1.156-0.585,1.977-1.752,2.461l2.895,4.06
				h-1.512l-2.467-3.668h-1.148v3.668H414.341z M415.56,17.514h0.398c1.547,0,2.32-0.608,2.32-1.822
				c0-0.895-0.649-1.342-1.945-1.342h-0.773V17.514z M426.627,21.897c-0.773,0.234-1.436,0.352-1.986,0.352
				c-0.938,0-1.703-0.312-2.294-0.935c-0.592-0.623-0.888-1.43-0.888-2.423c0-0.965,0.261-1.756,0.782-2.373
				c0.521-0.617,1.188-0.926,2.001-0.926c0.769,0,1.364,0.273,1.783,0.82c0.42,0.547,0.63,1.324,0.63,2.332l-0.006,0.358h-4.013
				c0.168,1.511,0.908,2.267,2.221,2.267c0.48,0,1.07-0.129,1.769-0.387V21.897z M422.691,18.235h2.807
				c0-1.184-0.442-1.775-1.325-1.775C423.286,16.459,422.792,17.051,422.691,18.235z M431.133,22.248
				c-0.859,0-1.572-0.318-2.139-0.955c-0.566-0.636-0.85-1.439-0.85-2.408c0-1.035,0.281-1.842,0.841-2.42
				c0.561-0.578,1.343-0.867,2.347-0.867c0.497,0,1.051,0.068,1.664,0.205v0.967c-0.652-0.192-1.184-0.287-1.594-0.287
				c-0.59,0-1.064,0.222-1.421,0.665c-0.357,0.443-0.536,1.034-0.536,1.772c0,0.715,0.184,1.293,0.551,1.734
				c0.368,0.442,0.848,0.662,1.441,0.662c0.527,0,1.071-0.135,1.629-0.404v0.996C432.321,22.135,431.677,22.248,431.133,22.248z
				 M434.796,22.102v-6.363h1.154v6.363H434.796z M434.796,14.584V13.43h1.154v1.154H434.796z M438.264,24.416v-8.678h1.154v1.195
				c0.472-0.891,1.181-1.336,2.127-1.336c0.765,0,1.368,0.279,1.808,0.838c0.439,0.558,0.659,1.322,0.659,2.291
				c0,1.054-0.249,1.905-0.747,2.551c-0.498,0.646-1.154,0.97-1.966,0.97c-0.754,0-1.381-0.289-1.881-0.867v3.035H438.264z
				 M439.419,20.584c0.594,0.531,1.16,0.797,1.699,0.797c1.11,0,1.664-0.846,1.664-2.537c0-1.492-0.492-2.238-1.477-2.238
				c-0.645,0-1.274,0.349-1.887,1.049V20.584z M450.482,21.897c-0.773,0.234-1.436,0.352-1.986,0.352
				c-0.938,0-1.702-0.312-2.294-0.935c-0.592-0.623-0.888-1.43-0.888-2.423c0-0.965,0.261-1.756,0.782-2.373
				c0.521-0.617,1.188-0.926,2.001-0.926c0.769,0,1.364,0.273,1.784,0.82c0.42,0.547,0.63,1.324,0.63,2.332l-0.006,0.358h-4.014
				c0.168,1.511,0.908,2.267,2.221,2.267c0.48,0,1.07-0.129,1.77-0.387V21.897z M446.544,18.235h2.807
				c0-1.184-0.442-1.775-1.324-1.775C447.139,16.459,446.645,17.051,446.544,18.235z"/>
		</g>
	</g>
	<g transform="matrix(1.3333,0,0,1.3333,44,58.1771) translate(5,5)">
		<g>
			<defs>
				<rect id="SVGID_60_" x="-192.61" y="-145.248" width="1236.97" height="772.981"/>
			</defs>
			<clipPath id="SVGID_61_">
				<use xlink:href="#SVGID_60_"  overflow="visible"/>
			</clipPath>
			
				<line clip-path="url(#SVGID_61_)" fill="none" stroke="#C0C0C0" stroke-linecap="square" stroke-miterlimit="10" stroke-opacity="0.502" x1="130" y1="182" x2="131" y2="182"/>
		</g>
	</g>
	<g transform="matrix(1.3333,0,0,1.3333,44,58.1771)">
		<g>
			<defs>
				<rect id="SVGID_62_" x="-187.61" y="-140.248" width="1236.97" height="772.981"/>
			</defs>
			<clipPath id="SVGID_63_">
				<use xlink:href="#SVGID_62_"  overflow="visible"/>
			</clipPath>
			
				<line clip-path="url(#SVGID_63_)" fill="none" stroke="#000000" stroke-linecap="square" stroke-miterlimit="10" x1="130" y1="182" x2="131" y2="182"/>
		</g>
	</g>
	<g transform="matrix(1.3333,0,0,1.3333,44,58.1771) translate(5,5)">
		<g>
			<defs>
				<rect id="SVGID_64_" x="-192.61" y="-145.248" width="1236.97" height="772.981"/>
			</defs>
			<clipPath id="SVGID_65_">
				<use xlink:href="#SVGID_64_"  overflow="visible"/>
			</clipPath>
			<ellipse clip-path="url(#SVGID_65_)" fill="#C0C0C0" fill-opacity="0.502" cx="381.15" cy="330.566" rx="97" ry="34.566"/>
		</g>
		<g>
			<defs>
				<rect id="SVGID_66_" x="-192.61" y="-145.248" width="1236.97" height="772.981"/>
			</defs>
			<clipPath id="SVGID_67_">
				<use xlink:href="#SVGID_66_"  overflow="visible"/>
			</clipPath>
			
				<ellipse clip-path="url(#SVGID_67_)" fill="none" stroke="#C0C0C0" stroke-width="2" stroke-linecap="square" stroke-miterlimit="10" stroke-opacity="0.502" cx="381.15" cy="330.566" rx="97" ry="34.566"/>
		</g>
	</g>
	<g transform="matrix(1.3333,0,0,1.3333,44,58.1771)">
		<g>
			<defs>
				<rect id="SVGID_68_" x="-187.61" y="-140.248" width="1236.97" height="772.981"/>
			</defs>
			<clipPath id="SVGID_69_">
				<use xlink:href="#SVGID_68_"  overflow="visible"/>
			</clipPath>
			
				<linearGradient id="SVGID_70_" gradientUnits="userSpaceOnUse" x1="233.9803" y1="302.7036" x2="428.9803" y2="232.7036" gradientTransform="matrix(1.3333 0 0 -1.3333 -27.869 699.3226)">
				<stop  offset="0" style="stop-color:#FFFFFF"/>
				<stop  offset="1" style="stop-color:#FFFFCC"/>
			</linearGradient>
			<ellipse clip-path="url(#SVGID_69_)" fill="url(#SVGID_70_)" cx="381.15" cy="330.567" rx="97" ry="34.566"/>
		</g>
		<g>
			<defs>
				<rect id="SVGID_71_" x="-187.61" y="-140.248" width="1236.97" height="772.981"/>
			</defs>
			<clipPath id="SVGID_72_">
				<use xlink:href="#SVGID_71_"  overflow="visible"/>
			</clipPath>
			
				<ellipse clip-path="url(#SVGID_72_)" fill="none" stroke="#000000" stroke-width="2" stroke-linecap="square" stroke-miterlimit="10" cx="381.15" cy="330.567" rx="97" ry="34.566"/>
		</g>
		<g>
			<defs>
				<rect id="SVGID_73_" x="-187.61" y="-140.248" width="1236.969" height="772.981"/>
			</defs>
			<clipPath id="SVGID_74_">
				<use xlink:href="#SVGID_73_"  overflow="visible"/>
			</clipPath>
			<path clip-path="url(#SVGID_74_)" d="M313.575,319.364h1.805v5.315c0,0.839,0.138,1.446,0.416,1.819
				c0.277,0.373,0.724,0.559,1.342,0.559c0.59,0,1.016-0.177,1.28-0.532c0.264-0.356,0.396-0.928,0.396-1.717v-5.443h1.57v5.326
				c0,0.801-0.076,1.411-0.229,1.831c-0.153,0.42-0.43,0.784-0.833,1.093c-0.551,0.426-1.291,0.639-2.22,0.639
				c-0.996,0-1.797-0.227-2.402-0.68c-0.418-0.313-0.71-0.683-0.876-1.11c-0.166-0.428-0.249-1.025-0.249-1.79V319.364z
				 M329.459,327.69c-0.839,0.375-1.841,0.563-3.006,0.563c-1.422,0-2.529-0.401-3.322-1.201c-0.792-0.801-1.189-1.918-1.189-3.352
				c0-1.461,0.4-2.586,1.198-3.372c0.799-0.787,1.939-1.181,3.419-1.181c0.946,0,1.885,0.111,2.818,0.334v1.412
				c-1.058-0.371-1.945-0.557-2.66-0.557c-0.914,0-1.619,0.29-2.115,0.87c-0.496,0.58-0.744,1.403-0.744,2.47
				c0,1.047,0.267,1.863,0.8,2.449c0.533,0.586,1.274,0.879,2.224,0.879c0.852,0,1.711-0.215,2.578-0.645V327.69z M331.633,328.036
				v-1.014h1.734v-6.399l-1.734,0.434v-1.043l3.475-0.867v7.875h1.734v1.014H331.633z M338.406,328.036v-1.881h1.881v1.881H338.406z
				 M342.514,328.036v-1.014h1.734v-6.399l-1.734,0.434v-1.043l3.475-0.867v7.875h1.734v1.014H342.514z M352.662,328.253
				c-0.984,0-1.784-0.422-2.399-1.266c-0.615-0.844-0.922-1.94-0.922-3.287c0-1.364,0.308-2.463,0.926-3.299
				c0.617-0.836,1.429-1.254,2.437-1.254c1.001,0,1.81,0.417,2.429,1.251c0.62,0.834,0.929,1.926,0.929,3.278
				c0,1.386-0.309,2.496-0.929,3.328C354.513,327.837,353.69,328.253,352.662,328.253z M352.68,327.169
				c1.028,0,1.541-1.156,1.541-3.469c0-2.313-0.505-3.469-1.518-3.469c-1.012,0-1.518,1.154-1.518,3.463
				C351.185,326.01,351.683,327.169,352.68,327.169z M357.203,328.036v-1.881h1.881v1.881H357.203z M361.111,328.001v-1.26
				c0.738,0.285,1.354,0.428,1.846,0.428c0.496,0,0.89-0.148,1.181-0.442c0.291-0.295,0.437-0.694,0.437-1.198
				c0-1.242-0.893-1.863-2.678-1.863c-0.211,0-0.422,0.018-0.633,0.053v-4.354h4.981v1.371h-3.715l-0.088,1.869
				c1.25,0,2.226,0.256,2.927,0.768c0.701,0.511,1.052,1.226,1.052,2.145c0,0.847-0.307,1.515-0.92,2.003
				c-0.613,0.489-1.453,0.733-2.52,0.733C362.527,328.253,361.905,328.168,361.111,328.001z M372.578,328.036v-8.672h3.246
				c1.762,0,2.642,0.716,2.642,2.15c0,0.535-0.149,1.022-0.448,1.462c-0.298,0.439-0.71,0.776-1.233,1.011l2.835,4.049h-2.197
				l-2.15-3.545h-0.996v3.545H372.578z M374.278,323.301h0.416c1.308,0,1.963-0.53,1.963-1.588c0-0.773-0.584-1.16-1.752-1.16
				h-0.627V323.301z M386.096,327.819c-0.824,0.242-1.605,0.363-2.344,0.363c-1.074,0-1.922-0.305-2.543-0.913
				c-0.621-0.609-0.932-1.441-0.932-2.496c0-0.996,0.284-1.798,0.853-2.405c0.568-0.608,1.32-0.911,2.253-0.911
				c0.942,0,1.629,0.297,2.063,0.891c0.434,0.593,0.65,1.533,0.65,2.818h-3.99c0.117,1.226,0.791,1.84,2.022,1.84
				c0.582,0,1.239-0.135,1.969-0.404V327.819z M382.082,324.186h2.309c0-1.098-0.353-1.647-1.061-1.647
				C382.611,322.54,382.195,323.088,382.082,324.186z M387.719,327.831v-1.272c0.86,0.359,1.594,0.539,2.203,0.539
				c0.711,0,1.066-0.242,1.066-0.727c0-0.313-0.293-0.586-0.879-0.82l-0.586-0.234c-0.637-0.258-1.091-0.535-1.365-0.832
				c-0.273-0.297-0.41-0.664-0.41-1.102c0-0.609,0.233-1.083,0.697-1.421c0.465-0.338,1.116-0.507,1.951-0.507
				c0.524,0,1.146,0.076,1.869,0.229v1.219c-0.695-0.242-1.272-0.363-1.729-0.363c-0.719,0-1.078,0.223-1.078,0.668
				c0,0.293,0.266,0.541,0.797,0.744l0.504,0.193c0.754,0.285,1.278,0.574,1.573,0.867c0.295,0.293,0.442,0.669,0.442,1.131
				c0,0.605-0.251,1.096-0.753,1.474c-0.502,0.376-1.155,0.565-1.96,0.565C389.289,328.182,388.508,328.064,387.719,327.831z
				 M394.674,330.35v-8.748h1.734v1.213c0.445-0.907,1.146-1.359,2.104-1.359c0.773,0,1.381,0.283,1.825,0.85
				c0.443,0.566,0.665,1.346,0.665,2.338c0,1.078-0.25,1.937-0.75,2.578c-0.5,0.64-1.17,0.96-2.01,0.96
				c-0.676,0-1.287-0.265-1.834-0.796v2.964H394.674z M396.408,326.354c0.422,0.469,0.871,0.702,1.348,0.702
				c0.426,0,0.765-0.206,1.02-0.617c0.253-0.412,0.381-0.962,0.381-1.649c0-1.317-0.424-1.975-1.272-1.975
				c-0.512,0-1.004,0.33-1.477,0.99V326.354z M402.625,328.036v-6.434h1.734v6.434H402.625z M402.625,320.518v-1.447h1.734v1.447
				H402.625z M406.528,328.036v-6.434h1.734v1.213c0.566-0.907,1.296-1.359,2.191-1.359c0.574,0,1.028,0.182,1.359,0.545
				c0.333,0.363,0.498,0.859,0.498,1.488v4.547h-1.734v-4.119c0-0.731-0.242-1.096-0.726-1.096c-0.551,0-1.08,0.388-1.588,1.166
				v4.049H406.528z M417.725,328.001c-0.414,0.121-0.74,0.181-0.979,0.181c-1.504,0-2.256-0.702-2.256-2.109v-3.387h-0.721v-1.084
				h0.721v-1.084l1.734-0.199v1.283h1.377v1.084h-1.377v3.158c0,0.789,0.322,1.184,0.967,1.184c0.149,0,0.326-0.028,0.533-0.082
				V328.001z M422.424,327.344c-0.578,0.558-1.198,0.837-1.857,0.837c-0.562,0-1.02-0.171-1.371-0.515
				c-0.352-0.344-0.527-0.79-0.527-1.336c0-0.711,0.284-1.259,0.853-1.644c0.568-0.385,1.382-0.577,2.44-0.577h0.463v-0.586
				c0-0.668-0.381-1.002-1.143-1.002c-0.676,0-1.359,0.191-2.051,0.574v-1.195c0.785-0.297,1.562-0.445,2.332-0.445
				c1.684,0,2.525,0.669,2.525,2.01v2.848c0,0.504,0.162,0.756,0.486,0.756c0.059,0,0.135-0.008,0.229-0.023l0.041,0.973
				c-0.367,0.109-0.691,0.163-0.973,0.163c-0.711,0-1.168-0.279-1.371-0.837H422.424z M422.424,326.413v-1.307h-0.41
				c-1.121,0-1.682,0.352-1.682,1.055c0,0.238,0.081,0.438,0.243,0.601c0.162,0.162,0.363,0.243,0.601,0.243
				C421.582,327.005,421.998,326.807,422.424,326.413z"/>
		</g>
	</g>
	<g transform="matrix(1.3333,0,0,1.3333,44,58.1771) translate(312.5606,316.4336)">
		<g>
			<defs>
				<rect id="SVGID_75_" x="-500.17" y="-456.682" width="1236.969" height="772.981"/>
			</defs>
			<clipPath id="SVGID_76_">
				<use xlink:href="#SVGID_75_"  overflow="visible"/>
			</clipPath>
			<path clip-path="url(#SVGID_76_)" d="M1.084,25.735v-6.434h1.734v1.213c0.449-0.906,1.132-1.359,2.051-1.359
				c0.109,0,0.217,0.012,0.322,0.035v1.547c-0.246-0.089-0.475-0.135-0.686-0.135c-0.691,0-1.254,0.35-1.688,1.049v4.084H1.084z
				 M6.539,25.735v-6.434h1.734v6.434H6.539z M6.539,18.217V16.77h1.734v1.447H6.539z M15.187,25.594
				c-0.719,0.191-1.384,0.287-1.998,0.287c-1.027,0-1.838-0.302-2.435-0.905c-0.595-0.604-0.894-1.425-0.894-2.464
				c0-1.051,0.307-1.873,0.92-2.467c0.614-0.593,1.461-0.891,2.543-0.891c0.524,0,1.127,0.084,1.811,0.252v1.254
				c-0.71-0.23-1.279-0.346-1.705-0.346c-0.519,0-0.938,0.199-1.254,0.598c-0.316,0.398-0.475,0.928-0.475,1.588
				c0,0.676,0.171,1.217,0.513,1.623c0.342,0.407,0.798,0.609,1.368,0.609c0.52,0,1.055-0.114,1.606-0.34V25.594z M16.828,25.735
				v-9.252h1.734v4.031c0.566-0.906,1.297-1.359,2.191-1.359c0.574,0,1.028,0.182,1.359,0.545c0.332,0.363,0.498,0.859,0.498,1.488
				v4.547h-1.734v-4.119c0-0.73-0.242-1.096-0.727-1.096c-0.551,0-1.08,0.389-1.588,1.166v4.049H16.828z M24.709,25.735v-6.434
				h1.734v6.434H24.709z M24.709,18.217V16.77h1.734v1.447H24.709z M33.85,25.518c-0.825,0.242-1.605,0.363-2.344,0.363
				c-1.074,0-1.922-0.305-2.543-0.914s-0.932-1.441-0.932-2.496c0-0.996,0.284-1.797,0.853-2.405
				c0.568-0.607,1.319-0.911,2.253-0.911c0.941,0,1.629,0.297,2.063,0.891c0.434,0.594,0.65,1.533,0.65,2.818h-3.99
				c0.117,1.227,0.791,1.84,2.022,1.84c0.582,0,1.238-0.135,1.969-0.404V25.518z M29.836,21.885h2.309
				c0-1.097-0.354-1.647-1.061-1.647C30.365,20.238,29.949,20.788,29.836,21.885z M35.473,25.53v-1.272
				c0.859,0.36,1.594,0.539,2.203,0.539c0.71,0,1.066-0.242,1.066-0.727c0-0.313-0.293-0.586-0.878-0.82l-0.587-0.234
				c-0.636-0.258-1.091-0.535-1.365-0.832c-0.274-0.297-0.41-0.664-0.41-1.102c0-0.609,0.232-1.083,0.697-1.421
				c0.464-0.338,1.115-0.507,1.95-0.507c0.524,0,1.147,0.076,1.869,0.229v1.219c-0.695-0.242-1.272-0.363-1.729-0.363
				c-0.719,0-1.077,0.223-1.077,0.668c0,0.293,0.265,0.541,0.797,0.744l0.504,0.193c0.754,0.285,1.278,0.574,1.573,0.867
				c0.295,0.293,0.442,0.67,0.442,1.131c0,0.606-0.25,1.096-0.753,1.474c-0.502,0.377-1.155,0.565-1.96,0.565
				C37.043,25.881,36.262,25.764,35.473,25.53z M45.744,25.699c-0.414,0.121-0.74,0.182-0.979,0.182
				c-1.504,0-2.256-0.703-2.256-2.109v-3.387h-0.721v-1.084h0.721v-1.084l1.734-0.199v1.283h1.377v1.084h-1.377v3.158
				c0,0.789,0.322,1.184,0.967,1.184c0.149,0,0.326-0.027,0.533-0.082V25.699z M50.443,25.043c-0.578,0.559-1.198,0.838-1.857,0.838
				c-0.562,0-1.02-0.172-1.371-0.516c-0.352-0.344-0.527-0.789-0.527-1.336c0-0.711,0.284-1.259,0.853-1.644s1.382-0.577,2.44-0.577
				h0.463v-0.586c0-0.668-0.381-1.002-1.143-1.002c-0.676,0-1.359,0.191-2.051,0.574V19.6c0.785-0.297,1.562-0.445,2.332-0.445
				c1.684,0,2.525,0.67,2.525,2.01v2.848c0,0.504,0.162,0.756,0.486,0.756c0.059,0,0.135-0.008,0.229-0.023l0.041,0.973
				c-0.367,0.109-0.691,0.164-0.973,0.164c-0.711,0-1.168-0.279-1.371-0.838H50.443z M50.443,24.112v-1.307h-0.41
				c-1.121,0-1.682,0.352-1.682,1.055c0,0.238,0.081,0.439,0.243,0.601c0.162,0.162,0.363,0.243,0.601,0.243
				C49.602,24.703,50.018,24.506,50.443,24.112z"/>
		</g>
	</g>
	<g transform="matrix(1.3333,0,0,1.3333,44,58.1771) translate(5,5)">
		<g>
			<defs>
				<rect id="SVGID_77_" x="-192.61" y="-145.248" width="1236.97" height="772.981"/>
			</defs>
			<clipPath id="SVGID_78_">
				<use xlink:href="#SVGID_77_"  overflow="visible"/>
			</clipPath>
			<ellipse clip-path="url(#SVGID_78_)" fill="#C0C0C0" fill-opacity="0.502" cx="381" cy="416.567" rx="97" ry="34.566"/>
		</g>
		<g>
			<defs>
				<rect id="SVGID_79_" x="-192.61" y="-145.248" width="1236.97" height="772.981"/>
			</defs>
			<clipPath id="SVGID_80_">
				<use xlink:href="#SVGID_79_"  overflow="visible"/>
			</clipPath>
			
				<ellipse clip-path="url(#SVGID_80_)" fill="none" stroke="#C0C0C0" stroke-width="2" stroke-linecap="square" stroke-miterlimit="10" stroke-opacity="0.502" cx="381" cy="416.567" rx="97" ry="34.566"/>
		</g>
	</g>
	<g transform="matrix(1.3333,0,0,1.3333,44,58.1771)">
		<g>
			<defs>
				<rect id="SVGID_81_" x="-187.61" y="-140.248" width="1236.97" height="772.981"/>
			</defs>
			<clipPath id="SVGID_82_">
				<use xlink:href="#SVGID_81_"  overflow="visible"/>
			</clipPath>
			
				<linearGradient id="SVGID_83_" gradientUnits="userSpaceOnUse" x1="234.011" y1="238.2855" x2="428.011" y2="168.2855" gradientTransform="matrix(1.3333 0 0 -1.3333 -27.869 699.3226)">
				<stop  offset="0" style="stop-color:#FFFFFF"/>
				<stop  offset="1" style="stop-color:#FFFFCC"/>
			</linearGradient>
			<ellipse clip-path="url(#SVGID_82_)" fill="url(#SVGID_83_)" cx="381" cy="416.567" rx="97" ry="34.566"/>
		</g>
		<g>
			<defs>
				<rect id="SVGID_84_" x="-187.61" y="-140.248" width="1236.97" height="772.981"/>
			</defs>
			<clipPath id="SVGID_85_">
				<use xlink:href="#SVGID_84_"  overflow="visible"/>
			</clipPath>
			
				<ellipse clip-path="url(#SVGID_85_)" fill="none" stroke="#000000" stroke-width="2" stroke-linecap="square" stroke-miterlimit="10" cx="381" cy="416.567" rx="97" ry="34.566"/>
		</g>
		<g>
			<defs>
				<rect id="SVGID_86_" x="-187.61" y="-140.248" width="1236.97" height="772.981"/>
			</defs>
			<clipPath id="SVGID_87_">
				<use xlink:href="#SVGID_86_"  overflow="visible"/>
			</clipPath>
			<path clip-path="url(#SVGID_87_)" d="M313.424,405.364h1.805v5.314c0,0.84,0.138,1.447,0.416,1.819
				c0.278,0.374,0.724,0.56,1.342,0.56c0.59,0,1.017-0.177,1.28-0.533c0.264-0.355,0.396-0.927,0.396-1.717v-5.443h1.57v5.326
				c0,0.801-0.076,1.411-0.229,1.831c-0.152,0.42-0.43,0.784-0.832,1.093c-0.551,0.426-1.291,0.639-2.221,0.639
				c-0.996,0-1.797-0.226-2.402-0.68c-0.418-0.312-0.71-0.683-0.876-1.11c-0.166-0.428-0.249-1.024-0.249-1.79V405.364z
				 M329.309,413.69c-0.839,0.375-1.841,0.562-3.005,0.562c-1.422,0-2.53-0.4-3.322-1.201c-0.793-0.801-1.189-1.918-1.189-3.352
				c0-1.46,0.399-2.585,1.198-3.371c0.798-0.787,1.938-1.181,3.418-1.181c0.946,0,1.885,0.111,2.818,0.334v1.412
				c-1.058-0.371-1.945-0.557-2.66-0.557c-0.913,0-1.619,0.29-2.115,0.871c-0.497,0.579-0.744,1.403-0.744,2.469
				c0,1.047,0.267,1.863,0.8,2.449c0.533,0.586,1.274,0.879,2.223,0.879c0.852,0,1.711-0.215,2.578-0.645V413.69z M331.483,414.035
				v-1.014h1.734v-6.398l-1.734,0.433v-1.042l3.475-0.867v7.874h1.734v1.014H331.483z M338.256,414.035v-1.881h1.881v1.881H338.256z
				 M342.364,414.035v-1.014h1.734v-6.398l-1.734,0.433v-1.042l3.475-0.867v7.874h1.734v1.014H342.364z M352.513,414.252
				c-0.984,0-1.784-0.422-2.399-1.266c-0.615-0.844-0.923-1.94-0.923-3.287c0-1.363,0.308-2.462,0.926-3.298
				c0.617-0.836,1.43-1.254,2.438-1.254c1,0,1.809,0.417,2.428,1.251c0.62,0.833,0.929,1.926,0.929,3.278
				c0,1.387-0.309,2.496-0.929,3.328C354.363,413.836,353.539,414.252,352.513,414.252z M352.53,413.168
				c1.027,0,1.541-1.156,1.541-3.469c0-2.312-0.506-3.468-1.518-3.468c-1.012,0-1.518,1.154-1.518,3.462
				C351.036,412.01,351.534,413.168,352.53,413.168z M357.053,414.035v-1.881h1.881v1.881H357.053z M360.961,414v-1.26
				c0.738,0.286,1.354,0.428,1.846,0.428c0.497,0,0.89-0.147,1.181-0.442c0.292-0.294,0.437-0.694,0.437-1.198
				c0-1.242-0.892-1.863-2.678-1.863c-0.211,0-0.422,0.018-0.633,0.053v-4.353h4.981v1.371h-3.715l-0.088,1.868
				c1.25,0,2.226,0.256,2.927,0.768c0.702,0.512,1.052,1.227,1.052,2.145c0,0.848-0.306,1.516-0.92,2.004
				c-0.613,0.489-1.453,0.732-2.52,0.732C362.378,414.252,361.754,414.169,360.961,414z M372.428,414.035v-8.671h3.246
				c1.762,0,2.643,0.716,2.643,2.15c0,0.535-0.149,1.022-0.448,1.462c-0.299,0.439-0.71,0.776-1.233,1.011l2.836,4.049h-2.197
				l-2.15-3.545h-0.996v3.545H372.428z M374.128,409.301h0.416c1.308,0,1.963-0.529,1.963-1.588c0-0.773-0.584-1.16-1.752-1.16
				h-0.627V409.301z M385.946,413.818c-0.825,0.242-1.605,0.363-2.344,0.363c-1.074,0-1.922-0.305-2.543-0.914
				s-0.932-1.441-0.932-2.496c0-0.996,0.284-1.797,0.853-2.405c0.568-0.607,1.319-0.911,2.253-0.911
				c0.941,0,1.629,0.297,2.063,0.891c0.434,0.594,0.65,1.534,0.65,2.818h-3.99c0.117,1.227,0.791,1.84,2.022,1.84
				c0.582,0,1.238-0.135,1.969-0.404V413.818z M381.932,410.186h2.309c0-1.097-0.354-1.647-1.061-1.647
				C382.461,408.539,382.045,409.088,381.932,410.186z M387.569,413.83v-1.272c0.86,0.36,1.594,0.539,2.203,0.539
				c0.711,0,1.066-0.242,1.066-0.727c0-0.312-0.293-0.586-0.879-0.82l-0.586-0.234c-0.637-0.258-1.091-0.535-1.365-0.832
				c-0.273-0.297-0.41-0.664-0.41-1.102c0-0.609,0.233-1.083,0.697-1.421c0.465-0.338,1.116-0.507,1.951-0.507
				c0.524,0,1.147,0.076,1.869,0.229v1.219c-0.695-0.242-1.272-0.363-1.729-0.363c-0.719,0-1.078,0.223-1.078,0.668
				c0,0.293,0.266,0.541,0.797,0.744l0.504,0.193c0.754,0.286,1.279,0.574,1.573,0.867c0.295,0.293,0.442,0.67,0.442,1.131
				c0,0.606-0.251,1.097-0.753,1.474c-0.502,0.377-1.155,0.565-1.96,0.565C389.139,414.182,388.358,414.065,387.569,413.83z
				 M394.524,416.35v-8.748h1.734v1.213c0.445-0.906,1.146-1.359,2.104-1.359c0.773,0,1.382,0.283,1.825,0.85
				c0.443,0.567,0.665,1.346,0.665,2.338c0,1.078-0.25,1.938-0.75,2.578c-0.5,0.641-1.17,0.961-2.01,0.961
				c-0.676,0-1.287-0.265-1.834-0.797v2.965H394.524z M396.258,412.354c0.422,0.469,0.871,0.703,1.348,0.703
				c0.426,0,0.765-0.206,1.02-0.618c0.254-0.412,0.381-0.962,0.381-1.649c0-1.316-0.424-1.975-1.272-1.975
				c-0.512,0-1.004,0.33-1.477,0.99V412.354z M402.475,414.035v-6.434h1.734v6.434H402.475z M402.475,406.518v-1.447h1.734v1.447
				H402.475z M406.378,414.035v-6.434h1.734v1.213c0.566-0.906,1.296-1.359,2.191-1.359c0.574,0,1.027,0.182,1.359,0.545
				c0.332,0.363,0.498,0.86,0.498,1.488v4.547h-1.734v-4.119c0-0.73-0.242-1.096-0.727-1.096c-0.551,0-1.08,0.389-1.588,1.166v4.049
				H406.378z M417.574,414c-0.414,0.122-0.74,0.182-0.979,0.182c-1.504,0-2.256-0.703-2.256-2.109v-3.387h-0.721v-1.084h0.721
				v-1.083l1.734-0.199v1.282h1.377v1.084h-1.377v3.158c0,0.79,0.322,1.184,0.967,1.184c0.149,0,0.327-0.027,0.533-0.082V414z
				 M422.274,413.344c-0.578,0.559-1.197,0.838-1.857,0.838c-0.562,0-1.02-0.171-1.371-0.516c-0.352-0.344-0.527-0.789-0.527-1.336
				c0-0.71,0.284-1.258,0.853-1.644c0.568-0.385,1.382-0.577,2.44-0.577h0.463v-0.586c0-0.668-0.381-1.002-1.143-1.002
				c-0.675,0-1.359,0.192-2.051,0.574V407.9c0.785-0.297,1.563-0.445,2.332-0.445c1.684,0,2.525,0.67,2.525,2.01v2.848
				c0,0.504,0.162,0.756,0.486,0.756c0.059,0,0.135-0.007,0.229-0.023l0.041,0.973c-0.367,0.11-0.691,0.164-0.973,0.164
				c-0.71,0-1.168-0.279-1.371-0.838H422.274z M422.274,412.412v-1.307h-0.41c-1.121,0-1.682,0.352-1.682,1.055
				c0,0.239,0.081,0.439,0.243,0.601c0.163,0.163,0.363,0.243,0.601,0.243C421.432,413.004,421.848,412.807,422.274,412.412z"/>
		</g>
	</g>
	<g transform="matrix(1.3333,0,0,1.3333,44,58.1771) translate(312.4106,402.4336)">
		<g>
			<defs>
				<rect id="SVGID_88_" x="-500.02" y="-542.682" width="1236.97" height="772.981"/>
			</defs>
			<clipPath id="SVGID_89_">
				<use xlink:href="#SVGID_88_"  overflow="visible"/>
			</clipPath>
			<path clip-path="url(#SVGID_89_)" d="M1.084,25.735v-6.434h1.734v1.213c0.449-0.906,1.132-1.359,2.051-1.359
				c0.109,0,0.217,0.012,0.322,0.035v1.547c-0.246-0.09-0.475-0.135-0.686-0.135c-0.691,0-1.254,0.349-1.688,1.049v4.084H1.084z
				 M6.539,25.735v-6.434h1.734v6.434H6.539z M6.539,18.217V16.77h1.734v1.447H6.539z M15.187,25.594
				c-0.719,0.191-1.384,0.287-1.997,0.287c-1.028,0-1.839-0.302-2.435-0.905c-0.596-0.604-0.894-1.425-0.894-2.464
				c0-1.051,0.306-1.873,0.92-2.467c0.613-0.594,1.46-0.891,2.543-0.891c0.523,0,1.126,0.084,1.811,0.252v1.254
				c-0.711-0.231-1.28-0.346-1.705-0.346c-0.52,0-0.938,0.199-1.254,0.598c-0.316,0.398-0.475,0.928-0.475,1.588
				c0,0.676,0.171,1.217,0.513,1.623c0.341,0.406,0.798,0.609,1.367,0.609c0.52,0,1.055-0.114,1.606-0.34V25.594z M16.828,25.735
				v-9.252h1.734v4.031c0.567-0.906,1.297-1.359,2.191-1.359c0.574,0,1.028,0.182,1.359,0.545c0.333,0.363,0.498,0.859,0.498,1.488
				v4.547h-1.734v-4.119c0-0.73-0.242-1.096-0.727-1.096c-0.551,0-1.08,0.389-1.588,1.166v4.049H16.828z M24.709,25.735v-6.434
				h1.734v6.434H24.709z M24.709,18.217V16.77h1.734v1.447H24.709z M33.85,25.518c-0.824,0.242-1.606,0.363-2.344,0.363
				c-1.074,0-1.922-0.305-2.543-0.914s-0.932-1.441-0.932-2.496c0-0.996,0.284-1.798,0.853-2.405s1.319-0.911,2.253-0.911
				c0.941,0,1.629,0.297,2.063,0.891c0.434,0.594,0.65,1.533,0.65,2.818h-3.99c0.117,1.226,0.791,1.84,2.022,1.84
				c0.582,0,1.239-0.135,1.969-0.404V25.518z M29.836,21.885h2.309c0-1.098-0.354-1.647-1.061-1.647
				C30.366,20.239,29.95,20.787,29.836,21.885z M35.473,25.53v-1.272c0.859,0.359,1.594,0.539,2.203,0.539
				c0.71,0,1.066-0.242,1.066-0.727c0-0.313-0.293-0.586-0.879-0.82l-0.586-0.234c-0.637-0.258-1.092-0.535-1.365-0.832
				c-0.274-0.297-0.41-0.664-0.41-1.102c0-0.609,0.232-1.083,0.697-1.421c0.464-0.338,1.115-0.507,1.951-0.507
				c0.523,0,1.146,0.076,1.869,0.229v1.219c-0.696-0.242-1.272-0.363-1.729-0.363c-0.719,0-1.078,0.223-1.078,0.668
				c0,0.293,0.265,0.541,0.797,0.744l0.504,0.193c0.754,0.285,1.278,0.574,1.573,0.867c0.294,0.293,0.442,0.67,0.442,1.131
				c0,0.605-0.251,1.096-0.753,1.474c-0.502,0.376-1.156,0.565-1.96,0.565C37.043,25.881,36.262,25.764,35.473,25.53z M45.744,25.7
				c-0.414,0.121-0.74,0.182-0.979,0.182c-1.504,0-2.255-0.703-2.255-2.109v-3.387h-0.721v-1.084h0.721v-1.084l1.734-0.199v1.283
				h1.377v1.084h-1.377v3.158c0,0.789,0.322,1.184,0.967,1.184c0.149,0,0.327-0.028,0.533-0.082V25.7z M50.443,25.043
				c-0.578,0.558-1.197,0.838-1.857,0.838c-0.563,0-1.02-0.172-1.371-0.516c-0.352-0.344-0.527-0.79-0.527-1.336
				c0-0.711,0.284-1.259,0.853-1.644c0.568-0.385,1.382-0.577,2.44-0.577h0.463v-0.586c0-0.668-0.381-1.002-1.143-1.002
				c-0.675,0-1.359,0.191-2.051,0.574V19.6c0.785-0.297,1.563-0.445,2.332-0.445c1.684,0,2.525,0.67,2.525,2.01v2.848
				c0,0.504,0.163,0.756,0.486,0.756c0.059,0,0.135-0.008,0.229-0.023l0.041,0.973c-0.367,0.109-0.691,0.164-0.973,0.164
				c-0.71,0-1.168-0.28-1.371-0.838H50.443z M50.443,24.112v-1.307h-0.41c-1.121,0-1.682,0.352-1.682,1.055
				c0,0.238,0.081,0.438,0.243,0.601c0.163,0.162,0.363,0.243,0.601,0.243C49.602,24.704,50.018,24.506,50.443,24.112z"/>
		</g>
	</g>
	<g transform="matrix(1.3333,0,0,1.3333,44,58.1771) translate(5,5)">
		<g>
			<defs>
				<rect id="SVGID_90_" x="-192.61" y="-145.248" width="1236.97" height="772.981"/>
			</defs>
			<clipPath id="SVGID_91_">
				<use xlink:href="#SVGID_90_"  overflow="visible"/>
			</clipPath>
			<circle clip-path="url(#SVGID_91_)" fill="#C0C0C0" fill-opacity="0.502" cx="119" cy="219" r="9"/>
		</g>
		<g>
			<defs>
				<rect id="SVGID_92_" x="-192.61" y="-145.248" width="1236.97" height="772.981"/>
			</defs>
			<clipPath id="SVGID_93_">
				<use xlink:href="#SVGID_92_"  overflow="visible"/>
			</clipPath>
			
				<circle clip-path="url(#SVGID_93_)" fill="none" stroke="#C0C0C0" stroke-width="2" stroke-linecap="square" stroke-miterlimit="10" stroke-opacity="0.502" cx="119" cy="219" r="9"/>
		</g>
	</g>
	<g transform="matrix(1.3333,0,0,1.3333,44,58.1771)">
		<g>
			<defs>
				<rect id="SVGID_94_" x="-187.61" y="-140.248" width="1236.97" height="772.981"/>
			</defs>
			<clipPath id="SVGID_95_">
				<use xlink:href="#SVGID_94_"  overflow="visible"/>
			</clipPath>
			
				<linearGradient id="SVGID_96_" gradientUnits="userSpaceOnUse" x1="103.4041" y1="367.0009" x2="121.4035" y2="349.0015" gradientTransform="matrix(1.3333 0 0 -1.3333 -27.869 699.3226)">
				<stop  offset="0" style="stop-color:#FFFFFF"/>
				<stop  offset="1" style="stop-color:#FFFFCC"/>
			</linearGradient>
			<circle clip-path="url(#SVGID_95_)" fill="url(#SVGID_96_)" cx="119" cy="219" r="9"/>
		</g>
		<g>
			<defs>
				<rect id="SVGID_97_" x="-187.61" y="-140.248" width="1236.97" height="772.981"/>
			</defs>
			<clipPath id="SVGID_98_">
				<use xlink:href="#SVGID_97_"  overflow="visible"/>
			</clipPath>
			
				<circle clip-path="url(#SVGID_98_)" fill="none" stroke="#000000" stroke-width="2" stroke-linecap="square" stroke-miterlimit="10" cx="119" cy="219" r="9"/>
		</g>
	</g>
	<g transform="matrix(1.3333,0,0,1.3333,44,58.1771) translate(5,5)">
		<g>
			<defs>
				<rect id="SVGID_99_" x="-192.61" y="-145.248" width="1236.97" height="772.981"/>
			</defs>
			<clipPath id="SVGID_100_">
				<use xlink:href="#SVGID_99_"  overflow="visible"/>
			</clipPath>
			
				<line clip-path="url(#SVGID_100_)" fill="none" stroke="#C0C0C0" stroke-width="2" stroke-linecap="square" stroke-miterlimit="10" stroke-opacity="0.502" x1="119.5" y1="228" x2="119.5" y2="246.001"/>
		</g>
	</g>
	<g transform="matrix(1.3333,0,0,1.3333,44,58.1771)">
		<g>
			<defs>
				<rect id="SVGID_101_" x="-187.61" y="-140.248" width="1236.97" height="772.981"/>
			</defs>
			<clipPath id="SVGID_102_">
				<use xlink:href="#SVGID_101_"  overflow="visible"/>
			</clipPath>
			
				<line clip-path="url(#SVGID_102_)" fill="none" stroke="#000000" stroke-width="2" stroke-linecap="square" stroke-miterlimit="10" x1="119.5" y1="228" x2="119.5" y2="246"/>
		</g>
	</g>
	<g transform="matrix(1.3333,0,0,1.3333,44,58.1771) translate(5,5)">
		<g>
			<defs>
				<rect id="SVGID_103_" x="-192.61" y="-145.248" width="1236.97" height="772.981"/>
			</defs>
			<clipPath id="SVGID_104_">
				<use xlink:href="#SVGID_103_"  overflow="visible"/>
			</clipPath>
			
				<line clip-path="url(#SVGID_104_)" fill="none" stroke="#C0C0C0" stroke-width="2" stroke-linecap="square" stroke-miterlimit="10" stroke-opacity="0.502" x1="105.5" y1="234.75" x2="133.5" y2="234.75"/>
		</g>
	</g>
	<g transform="matrix(1.3333,0,0,1.3333,44,58.1771)">
		<g>
			<defs>
				<rect id="SVGID_105_" x="-187.61" y="-140.248" width="1236.97" height="772.981"/>
			</defs>
			<clipPath id="SVGID_106_">
				<use xlink:href="#SVGID_105_"  overflow="visible"/>
			</clipPath>
			
				<line clip-path="url(#SVGID_106_)" fill="none" stroke="#000000" stroke-width="2" stroke-linecap="square" stroke-miterlimit="10" x1="105.5" y1="234.75" x2="133.5" y2="234.75"/>
		</g>
	</g>
	<g transform="matrix(1.3333,0,0,1.3333,44,58.1771) translate(5,5)">
		<g>
			<defs>
				<rect id="SVGID_107_" x="-192.61" y="-145.248" width="1236.97" height="772.981"/>
			</defs>
			<clipPath id="SVGID_108_">
				<use xlink:href="#SVGID_107_"  overflow="visible"/>
			</clipPath>
			
				<line clip-path="url(#SVGID_108_)" fill="none" stroke="#C0C0C0" stroke-width="2" stroke-linecap="square" stroke-miterlimit="10" stroke-opacity="0.502" x1="119.5" y1="246.001" x2="105.5" y2="265"/>
		</g>
	</g>
	<g transform="matrix(1.3333,0,0,1.3333,44,58.1771)">
		<g>
			<defs>
				<rect id="SVGID_109_" x="-187.61" y="-140.248" width="1236.97" height="772.981"/>
			</defs>
			<clipPath id="SVGID_110_">
				<use xlink:href="#SVGID_109_"  overflow="visible"/>
			</clipPath>
			
				<line clip-path="url(#SVGID_110_)" fill="none" stroke="#000000" stroke-width="2" stroke-linecap="square" stroke-miterlimit="10" x1="119.5" y1="246" x2="105.5" y2="265.001"/>
		</g>
	</g>
	<g transform="matrix(1.3333,0,0,1.3333,44,58.1771) translate(5,5)">
		<g>
			<defs>
				<rect id="SVGID_111_" x="-192.61" y="-145.248" width="1236.97" height="772.981"/>
			</defs>
			<clipPath id="SVGID_112_">
				<use xlink:href="#SVGID_111_"  overflow="visible"/>
			</clipPath>
			
				<line clip-path="url(#SVGID_112_)" fill="none" stroke="#C0C0C0" stroke-width="2" stroke-linecap="square" stroke-miterlimit="10" stroke-opacity="0.502" x1="119.5" y1="246.001" x2="133.5" y2="265"/>
		</g>
	</g>
	<g transform="matrix(1.3333,0,0,1.3333,44,58.1771)">
		<g>
			<defs>
				<rect id="SVGID_113_" x="-187.61" y="-140.248" width="1236.97" height="772.981"/>
			</defs>
			<clipPath id="SVGID_114_">
				<use xlink:href="#SVGID_113_"  overflow="visible"/>
			</clipPath>
			
				<line clip-path="url(#SVGID_114_)" fill="none" stroke="#000000" stroke-width="2" stroke-linecap="square" stroke-miterlimit="10" x1="119.5" y1="246" x2="133.5" y2="265.001"/>
		</g>
	</g>
	<g transform="matrix(1.3333,0,0,1.3333,44,58.1771) translate(62,277)">
		<g>
			<defs>
				<rect id="SVGID_115_" x="-249.61" y="-417.248" width="1236.969" height="772.981"/>
			</defs>
			<clipPath id="SVGID_116_">
				<use xlink:href="#SVGID_115_"  overflow="visible"/>
			</clipPath>
			<path clip-path="url(#SVGID_116_)" d="M1.014-8.671h1.805v5.314c0,0.84,0.139,1.447,0.416,1.819
				c0.277,0.374,0.725,0.56,1.342,0.56c0.59,0,1.017-0.177,1.28-0.533C6.12-1.867,6.252-2.439,6.252-3.228v-5.443h1.57v5.326
				c0,0.801-0.076,1.411-0.229,1.831c-0.152,0.42-0.43,0.784-0.832,1.093C6.211,0.004,5.471,0.217,4.541,0.217
				c-0.996,0-1.797-0.226-2.402-0.68c-0.418-0.312-0.71-0.683-0.876-1.11s-0.249-1.024-0.249-1.79V-8.671z M13.236-0.035
				c-0.414,0.122-0.74,0.182-0.979,0.182c-1.504,0-2.256-0.703-2.256-2.109v-3.386H9.281v-1.084h0.721v-1.084l1.734-0.199v1.283
				h1.377v1.084h-1.377v3.158c0,0.79,0.322,1.184,0.967,1.184c0.149,0,0.326-0.027,0.533-0.082V-0.035z M20.022-0.217
				c-0.824,0.242-1.606,0.363-2.344,0.363c-1.074,0-1.922-0.305-2.543-0.914c-0.621-0.609-0.932-1.441-0.932-2.496
				c0-0.996,0.284-1.797,0.853-2.405c0.568-0.608,1.319-0.911,2.253-0.911c0.941,0,1.629,0.296,2.063,0.891
				c0.434,0.593,0.65,1.533,0.65,2.818h-3.99c0.117,1.227,0.791,1.84,2.022,1.84c0.582,0,1.238-0.135,1.969-0.404V-0.217z
				 M16.008-3.85h2.309c0-1.098-0.353-1.646-1.061-1.646C16.537-5.495,16.121-4.948,16.008-3.85z M21.815,0v-6.433h1.734v1.213
				c0.567-0.907,1.297-1.359,2.191-1.359c0.574,0,1.028,0.182,1.359,0.545c0.332,0.363,0.498,0.859,0.498,1.488V0h-1.734v-4.119
				c0-0.73-0.242-1.095-0.727-1.095c-0.551,0-1.08,0.388-1.588,1.165V0H21.815z M33.012-0.035c-0.414,0.122-0.74,0.182-0.979,0.182
				c-1.504,0-2.256-0.703-2.256-2.109v-3.386h-0.721v-1.084h0.721v-1.084l1.734-0.199v1.283h1.377v1.084h-1.377v3.158
				c0,0.79,0.322,1.184,0.967,1.184c0.148,0,0.326-0.027,0.533-0.082V-0.035z M39.797-0.217c-0.824,0.242-1.606,0.363-2.344,0.363
				c-1.074,0-1.922-0.305-2.543-0.914c-0.621-0.609-0.932-1.441-0.932-2.496c0-0.996,0.284-1.797,0.853-2.405
				c0.568-0.608,1.319-0.911,2.253-0.911c0.941,0,1.629,0.296,2.062,0.891c0.434,0.593,0.65,1.533,0.65,2.818h-3.99
				c0.117,1.227,0.791,1.84,2.021,1.84c0.582,0,1.239-0.135,1.969-0.404V-0.217z M35.783-3.85h2.308
				c0-1.098-0.353-1.646-1.061-1.646C36.313-5.495,35.897-4.948,35.783-3.85z M48.697-0.691C48.119-0.132,47.5,0.147,46.84,0.147
				c-0.563,0-1.02-0.171-1.371-0.516c-0.352-0.344-0.527-0.789-0.527-1.336c0-0.71,0.284-1.258,0.853-1.644
				c0.568-0.385,1.382-0.577,2.44-0.577h0.463v-0.586c0-0.667-0.381-1.001-1.143-1.001c-0.676,0-1.359,0.19-2.051,0.574v-1.195
				c0.785-0.297,1.562-0.445,2.332-0.445c1.684,0,2.525,0.669,2.525,2.009v2.848c0,0.504,0.162,0.756,0.486,0.756
				c0.059,0,0.135-0.007,0.229-0.023l0.041,0.973c-0.367,0.11-0.691,0.164-0.973,0.164c-0.711,0-1.168-0.279-1.371-0.838H48.697z
				 M48.697-1.623V-2.93h-0.41c-1.121,0-1.682,0.352-1.682,1.055c0,0.239,0.081,0.439,0.243,0.601
				c0.162,0.163,0.362,0.243,0.601,0.243C47.855-1.031,48.271-1.228,48.697-1.623z M56.578,0v-1.213
				c-0.563,0.907-1.293,1.359-2.191,1.359c-0.574,0-1.027-0.182-1.359-0.545c-0.332-0.363-0.498-0.859-0.498-1.488v-4.546h1.734
				v4.118c0,0.731,0.244,1.096,0.732,1.096c0.547,0,1.074-0.388,1.582-1.166v-4.048h1.734V0H56.578z M63.797-0.035
				c-0.414,0.122-0.74,0.182-0.979,0.182c-1.504,0-2.256-0.703-2.256-2.109v-3.386h-0.721v-1.084h0.721v-1.084l1.734-0.199v1.283
				h1.377v1.084h-1.377v3.158c0,0.79,0.322,1.184,0.967,1.184c0.148,0,0.326-0.027,0.533-0.082V-0.035z M70.582-0.217
				c-0.824,0.242-1.606,0.363-2.344,0.363c-1.074,0-1.922-0.305-2.543-0.914c-0.621-0.609-0.932-1.441-0.932-2.496
				c0-0.996,0.284-1.797,0.853-2.405c0.568-0.608,1.319-0.911,2.253-0.911c0.942,0,1.629,0.296,2.063,0.891
				c0.434,0.593,0.65,1.533,0.65,2.818h-3.99c0.117,1.227,0.791,1.84,2.021,1.84c0.582,0,1.239-0.135,1.969-0.404V-0.217z
				 M66.569-3.85h2.308c0-1.098-0.353-1.646-1.061-1.646C67.098-5.495,66.682-4.948,66.569-3.85z M72.375,0v-6.433h1.734v1.213
				c0.567-0.907,1.297-1.359,2.191-1.359c0.574,0,1.027,0.182,1.359,0.545c0.332,0.363,0.498,0.859,0.498,1.488V0h-1.734v-4.119
				c0-0.73-0.242-1.095-0.727-1.095c-0.551,0-1.08,0.388-1.588,1.165V0H72.375z M83.573-0.035c-0.414,0.122-0.741,0.182-0.979,0.182
				c-1.504,0-2.256-0.703-2.256-2.109v-3.386h-0.721v-1.084h0.721v-1.084l1.734-0.199v1.283h1.377v1.084h-1.377v3.158
				c0,0.79,0.322,1.184,0.967,1.184c0.148,0,0.326-0.027,0.533-0.082V-0.035z M85.119,0v-6.433h1.734V0H85.119z M85.119-7.517
				v-1.447h1.734v1.447H85.119z M93.768-0.141c-0.719,0.192-1.385,0.287-1.998,0.287c-1.027,0-1.839-0.302-2.435-0.905
				c-0.596-0.604-0.894-1.425-0.894-2.464c0-1.05,0.307-1.873,0.92-2.466c0.613-0.595,1.461-0.891,2.543-0.891
				c0.523,0,1.127,0.083,1.811,0.252v1.254c-0.711-0.231-1.28-0.346-1.705-0.346c-0.52,0-0.938,0.199-1.254,0.597
				c-0.316,0.398-0.475,0.928-0.475,1.588c0,0.676,0.171,1.217,0.513,1.623c0.342,0.406,0.798,0.609,1.368,0.609
				c0.519,0,1.055-0.113,1.606-0.34V-0.141z M98.56-0.691c-0.578,0.559-1.197,0.838-1.857,0.838c-0.562,0-1.019-0.171-1.371-0.516
				c-0.351-0.344-0.527-0.789-0.527-1.336c0-0.71,0.284-1.258,0.852-1.644c0.569-0.385,1.382-0.577,2.44-0.577h0.463v-0.586
				c0-0.667-0.381-1.001-1.143-1.001c-0.676,0-1.359,0.19-2.05,0.574v-1.195c0.785-0.297,1.562-0.445,2.332-0.445
				c1.684,0,2.525,0.669,2.525,2.009v2.848c0,0.504,0.162,0.756,0.486,0.756c0.059,0,0.135-0.007,0.229-0.023l0.041,0.973
				c-0.367,0.11-0.691,0.164-0.973,0.164c-0.711,0-1.168-0.279-1.371-0.838H98.56z M98.56-1.623V-2.93h-0.41
				c-1.121,0-1.681,0.352-1.681,1.055c0,0.239,0.081,0.439,0.243,0.601c0.162,0.163,0.363,0.243,0.601,0.243
				C97.719-1.031,98.135-1.228,98.56-1.623z M105.779-0.035c-0.414,0.122-0.74,0.182-0.979,0.182c-1.504,0-2.256-0.703-2.256-2.109
				v-3.386h-0.721v-1.084h0.721v-1.084l1.734-0.199v1.283h1.377v1.084h-1.377v3.158c0,0.79,0.322,1.184,0.967,1.184
				c0.148,0,0.326-0.027,0.533-0.082V-0.035z M110.028,0.147c-1.004,0-1.802-0.303-2.394-0.911
				c-0.592-0.607-0.888-1.425-0.888-2.452c0-1.039,0.298-1.86,0.894-2.46c0.595-0.602,1.405-0.902,2.429-0.902
				c1.027,0,1.839,0.3,2.434,0.902c0.596,0.601,0.894,1.417,0.894,2.449c0,1.055-0.299,1.881-0.897,2.479
				C111.902-0.152,111.078,0.147,110.028,0.147z M110.057-0.937c0.996,0,1.494-0.763,1.494-2.291c0-0.699-0.132-1.252-0.396-1.658
				c-0.264-0.406-0.626-0.609-1.087-0.609c-0.457,0-0.817,0.203-1.081,0.609c-0.264,0.406-0.396,0.962-0.396,1.669
				c0,0.699,0.131,1.254,0.393,1.664C109.246-1.143,109.603-0.937,110.057-0.937z"/>
		</g>
	</g>
	<g transform="matrix(1.3333,0,0,1.3333,44,58.1771) translate(5,5)">
		<g>
			<defs>
				<rect id="SVGID_117_" x="-192.61" y="-145.248" width="1236.97" height="772.981"/>
			</defs>
			<clipPath id="SVGID_118_">
				<use xlink:href="#SVGID_117_"  overflow="visible"/>
			</clipPath>
			
				<line clip-path="url(#SVGID_118_)" fill="none" stroke="#C0C0C0" stroke-linecap="square" stroke-miterlimit="10" stroke-opacity="0.502" x1="139.5" y1="231.865" x2="326.723" y2="112.961"/>
		</g>
	</g>
	<g transform="matrix(1.3333,0,0,1.3333,44,58.1771)">
		<g>
			<defs>
				<rect id="SVGID_119_" x="-187.61" y="-140.248" width="1236.97" height="772.981"/>
			</defs>
			<clipPath id="SVGID_120_">
				<use xlink:href="#SVGID_119_"  overflow="visible"/>
			</clipPath>
			
				<line clip-path="url(#SVGID_120_)" fill="none" stroke="#000000" stroke-linecap="square" stroke-miterlimit="10" x1="139.5" y1="231.865" x2="326.723" y2="112.961"/>
		</g>
	</g>
	<g transform="matrix(1.3333,0,0,1.3333,44,58.1771) translate(5,5)">
		<g>
			<defs>
				<rect id="SVGID_121_" x="-192.61" y="-145.248" width="1236.97" height="772.981"/>
			</defs>
			<clipPath id="SVGID_122_">
				<use xlink:href="#SVGID_121_"  overflow="visible"/>
			</clipPath>
			
				<line clip-path="url(#SVGID_122_)" fill="none" stroke="#C0C0C0" stroke-linecap="square" stroke-miterlimit="10" stroke-opacity="0.502" x1="139.5" y1="237.98" x2="284.15" y2="190.34"/>
		</g>
	</g>
	<g transform="matrix(1.3333,0,0,1.3333,44,58.1771)">
		<g>
			<defs>
				<rect id="SVGID_123_" x="-187.61" y="-140.248" width="1236.97" height="772.981"/>
			</defs>
			<clipPath id="SVGID_124_">
				<use xlink:href="#SVGID_123_"  overflow="visible"/>
			</clipPath>
			
				<line clip-path="url(#SVGID_124_)" fill="none" stroke="#000000" stroke-linecap="square" stroke-miterlimit="10" x1="139.5" y1="237.98" x2="284.15" y2="190.34"/>
		</g>
	</g>
	<g transform="matrix(1.3333,0,0,1.3333,44,58.1771) translate(5,5)">
		<g>
			<defs>
				<rect id="SVGID_125_" x="-192.61" y="-145.248" width="1236.97" height="772.981"/>
			</defs>
			<clipPath id="SVGID_126_">
				<use xlink:href="#SVGID_125_"  overflow="visible"/>
			</clipPath>
			
				<line clip-path="url(#SVGID_126_)" fill="none" stroke="#C0C0C0" stroke-linecap="square" stroke-miterlimit="10" stroke-opacity="0.502" x1="139.5" y1="244.567" x2="284.15" y2="244.567"/>
		</g>
	</g>
	<g transform="matrix(1.3333,0,0,1.3333,44,58.1771)">
		<g>
			<defs>
				<rect id="SVGID_127_" x="-187.61" y="-140.248" width="1236.97" height="772.981"/>
			</defs>
			<clipPath id="SVGID_128_">
				<use xlink:href="#SVGID_127_"  overflow="visible"/>
			</clipPath>
			
				<line clip-path="url(#SVGID_128_)" fill="none" stroke="#000000" stroke-linecap="square" stroke-miterlimit="10" x1="139.5" y1="244.567" x2="284.15" y2="244.567"/>
		</g>
	</g>
	<g transform="matrix(1.3333,0,0,1.3333,44,58.1771) translate(5,5)">
		<g>
			<defs>
				<rect id="SVGID_129_" x="-192.61" y="-145.248" width="1236.97" height="772.981"/>
			</defs>
			<clipPath id="SVGID_130_">
				<use xlink:href="#SVGID_129_"  overflow="visible"/>
			</clipPath>
			
				<line clip-path="url(#SVGID_130_)" fill="none" stroke="#C0C0C0" stroke-linecap="square" stroke-miterlimit="10" stroke-opacity="0.502" x1="139.5" y1="251.14" x2="284.15" y2="298.684"/>
		</g>
	</g>
	<g transform="matrix(1.3333,0,0,1.3333,44,58.1771)">
		<g>
			<defs>
				<rect id="SVGID_131_" x="-187.61" y="-140.248" width="1236.97" height="772.981"/>
			</defs>
			<clipPath id="SVGID_132_">
				<use xlink:href="#SVGID_131_"  overflow="visible"/>
			</clipPath>
			
				<line clip-path="url(#SVGID_132_)" fill="none" stroke="#000000" stroke-linecap="square" stroke-miterlimit="10" x1="139.5" y1="251.141" x2="284.15" y2="298.685"/>
		</g>
	</g>
	<g transform="matrix(1.3333,0,0,1.3333,44,58.1771) translate(5,5)">
		<g>
			<defs>
				<rect id="SVGID_133_" x="-192.61" y="-145.248" width="1236.97" height="772.981"/>
			</defs>
			<clipPath id="SVGID_134_">
				<use xlink:href="#SVGID_133_"  overflow="visible"/>
			</clipPath>
			
				<line clip-path="url(#SVGID_134_)" fill="none" stroke="#C0C0C0" stroke-linecap="square" stroke-miterlimit="10" stroke-opacity="0.502" x1="139.5" y1="257.721" x2="328.447" y2="382"/>
		</g>
	</g>
	<g transform="matrix(1.3333,0,0,1.3333,44,58.1771)">
		<g>
			<defs>
				<rect id="SVGID_135_" x="-187.61" y="-140.248" width="1236.97" height="772.981"/>
			</defs>
			<clipPath id="SVGID_136_">
				<use xlink:href="#SVGID_135_"  overflow="visible"/>
			</clipPath>
			
				<line clip-path="url(#SVGID_136_)" fill="none" stroke="#000000" stroke-linecap="square" stroke-miterlimit="10" x1="139.5" y1="257.722" x2="328.447" y2="382.001"/>
		</g>
	</g>
</g>
</svg>
