<?xml version="1.0" encoding="utf-8"?>
<!-- Generator: Adobe Illustrator 16.0.0, SVG Export Plug-In . SVG Version: 6.00 Build 0)  -->
<!DOCTYPE svg PUBLIC "-//W3C//DTD SVG 1.1//EN" "http://www.w3.org/Graphics/SVG/1.1/DTD/svg11.dtd">
<svg version="1.1" id="Layer_1" xmlns="http://www.w3.org/2000/svg" xmlns:xlink="http://www.w3.org/1999/xlink" x="0px" y="0px"
	 width="1086px" height="593px" viewBox="0 0 1086 593" enable-background="new 0 0 1086 593" xml:space="preserve">
<g>
	<g>
		<g>
			<defs>
				<rect id="SVGID_1_" width="1086" height="593"/>
			</defs>
			<clipPath id="SVGID_2_">
				<use xlink:href="#SVGID_1_"  overflow="visible"/>
			</clipPath>
			<rect clip-path="url(#SVGID_2_)" fill="#FFFFFF" width="1086" height="593"/>
		</g>
	</g>
	<g transform="scale(1.3333,1.3333) translate(38,53.6328)">
		<g>
			<defs>
				<rect id="SVGID_3_" x="-173.736" y="-127.75" width="1085.973" height="592.985"/>
			</defs>
			<clipPath id="SVGID_4_">
				<use xlink:href="#SVGID_3_"  overflow="visible"/>
			</clipPath>
			
				<rect x="-23" y="-38.633" clip-path="url(#SVGID_4_)" fill="none" stroke="#C0C0C0" stroke-linecap="square" stroke-miterlimit="10" stroke-opacity="0.502" width="795" height="425"/>
		</g>
	</g>
	<g transform="matrix(1.3333,0,0,1.3333,44,64.8438)">
		<g>
			<defs>
				<rect id="SVGID_5_" x="-168.736" y="-122.75" width="1085.973" height="592.985"/>
			</defs>
			<clipPath id="SVGID_6_">
				<use xlink:href="#SVGID_5_"  overflow="visible"/>
			</clipPath>
			
				<rect x="-23" y="-38.633" clip-path="url(#SVGID_6_)" fill="none" stroke="#000000" stroke-linecap="square" stroke-miterlimit="10" width="795" height="425"/>
		</g>
		<g>
			<defs>
				<rect id="SVGID_7_" x="-168.736" y="-122.75" width="1085.973" height="592.985"/>
			</defs>
			<clipPath id="SVGID_8_">
				<use xlink:href="#SVGID_7_"  overflow="visible"/>
			</clipPath>
			
				<line clip-path="url(#SVGID_8_)" fill="none" stroke="#000000" stroke-linecap="square" stroke-miterlimit="10" x1="18" y1="-37.633" x2="18" y2="-24.5"/>
		</g>
		<g>
			<defs>
				<rect id="SVGID_9_" x="-168.736" y="-122.75" width="1085.973" height="592.985"/>
			</defs>
			<clipPath id="SVGID_10_">
				<use xlink:href="#SVGID_9_"  overflow="visible"/>
			</clipPath>
			
				<line clip-path="url(#SVGID_10_)" fill="none" stroke="#000000" stroke-linecap="square" stroke-miterlimit="10" x1="18" y1="-24.5" x2="8" y2="-14.5"/>
		</g>
		<g>
			<defs>
				<rect id="SVGID_11_" x="-168.736" y="-122.75" width="1085.973" height="592.985"/>
			</defs>
			<clipPath id="SVGID_12_">
				<use xlink:href="#SVGID_11_"  overflow="visible"/>
			</clipPath>
			
				<line clip-path="url(#SVGID_12_)" fill="none" stroke="#000000" stroke-linecap="square" stroke-miterlimit="10" x1="8" y1="-14.5" x2="-23" y2="-14.5"/>
		</g>
	</g>
	<g transform="matrix(1.3333,0,0,1.3333,44,64.8438) translate(-13,-21.6328)">
		<g>
			<defs>
				<rect id="SVGID_13_" x="-155.736" y="-101.117" width="1085.973" height="592.985"/>
			</defs>
			<clipPath id="SVGID_14_">
				<use xlink:href="#SVGID_13_"  overflow="visible"/>
			</clipPath>
			<path clip-path="url(#SVGID_14_)" d="M5.063,0v-1.213C4.5-0.307,3.769,0.147,2.871,0.147c-0.574,0-1.027-0.182-1.359-0.545
				C1.18-0.762,1.014-1.258,1.014-1.887v-4.547h1.734v4.119c0,0.73,0.244,1.096,0.732,1.096c0.547,0,1.074-0.389,1.582-1.166v-4.049
				h1.734V0H5.063z M13.711-0.141c-0.719,0.191-1.385,0.287-1.998,0.287c-1.027,0-1.839-0.302-2.434-0.905
				C8.683-1.362,8.385-2.184,8.385-3.223c0-1.051,0.307-1.873,0.92-2.467c0.613-0.594,1.461-0.891,2.543-0.891
				c0.523,0,1.127,0.084,1.81,0.252v1.254c-0.711-0.23-1.279-0.346-1.705-0.346c-0.519,0-0.938,0.199-1.254,0.598
				c-0.316,0.398-0.475,0.928-0.475,1.588c0,0.676,0.171,1.217,0.513,1.623c0.342,0.406,0.798,0.609,1.368,0.609
				c0.52,0,1.055-0.114,1.606-0.34V-0.141z"/>
		</g>
	</g>
	<g transform="matrix(1.3333,0,0,1.3333,44,64.8438) translate(5,5)">
		<g>
			<defs>
				<rect id="SVGID_15_" x="-173.736" y="-127.75" width="1085.973" height="592.985"/>
			</defs>
			<clipPath id="SVGID_16_">
				<use xlink:href="#SVGID_15_"  overflow="visible"/>
			</clipPath>
			<ellipse clip-path="url(#SVGID_16_)" fill="#C0C0C0" fill-opacity="0.502" cx="381.65" cy="86.48" rx="97" ry="34.566"/>
		</g>
		<g>
			<defs>
				<rect id="SVGID_17_" x="-173.736" y="-127.75" width="1085.973" height="592.985"/>
			</defs>
			<clipPath id="SVGID_18_">
				<use xlink:href="#SVGID_17_"  overflow="visible"/>
			</clipPath>
			
				<ellipse clip-path="url(#SVGID_18_)" fill="none" stroke="#C0C0C0" stroke-width="2" stroke-linecap="square" stroke-miterlimit="10" stroke-opacity="0.502" cx="381.65" cy="86.48" rx="97" ry="34.566"/>
		</g>
	</g>
	<g transform="matrix(1.3333,0,0,1.3333,44,64.8438)">
		<g>
			<defs>
				<rect id="SVGID_19_" x="-168.736" y="-122.75" width="1085.973" height="592.985"/>
			</defs>
			<clipPath id="SVGID_20_">
				<use xlink:href="#SVGID_19_"  overflow="visible"/>
			</clipPath>
			
				<linearGradient id="SVGID_21_" gradientUnits="userSpaceOnUse" x1="219.7694" y1="363.1731" x2="414.7694" y2="292.1731" gradientTransform="matrix(1.3333 0 0 -1.3333 -8.9954 535.1531)">
				<stop  offset="0" style="stop-color:#FFFFFF"/>
				<stop  offset="1" style="stop-color:#FFFFCC"/>
			</linearGradient>
			<ellipse clip-path="url(#SVGID_20_)" fill="url(#SVGID_21_)" cx="381.65" cy="86.48" rx="97" ry="34.566"/>
		</g>
		<g>
			<defs>
				<rect id="SVGID_22_" x="-168.736" y="-122.75" width="1085.973" height="592.985"/>
			</defs>
			<clipPath id="SVGID_23_">
				<use xlink:href="#SVGID_22_"  overflow="visible"/>
			</clipPath>
			
				<ellipse clip-path="url(#SVGID_23_)" fill="none" stroke="#000000" stroke-width="2" stroke-linecap="square" stroke-miterlimit="10" cx="381.65" cy="86.48" rx="97" ry="34.566"/>
		</g>
		<g>
			<defs>
				<rect id="SVGID_24_" x="-168.736" y="-122.751" width="1085.973" height="592.986"/>
			</defs>
			<clipPath id="SVGID_25_">
				<use xlink:href="#SVGID_24_"  overflow="visible"/>
			</clipPath>
			<path clip-path="url(#SVGID_25_)" d="M314.074,68.211h1.805v5.315c0,0.84,0.139,1.446,0.416,1.819
				c0.278,0.373,0.725,0.559,1.342,0.559c0.59,0,1.017-0.178,1.28-0.533c0.264-0.356,0.396-0.928,0.396-1.717v-5.444h1.57v5.326
				c0,0.801-0.076,1.411-0.229,1.831c-0.152,0.42-0.43,0.784-0.832,1.093c-0.551,0.426-1.291,0.639-2.221,0.639
				c-0.996,0-1.797-0.227-2.402-0.68c-0.418-0.313-0.71-0.683-0.876-1.11c-0.166-0.428-0.249-1.025-0.249-1.79V68.211z
				 M329.959,76.537c-0.84,0.375-1.842,0.563-3.006,0.563c-1.422,0-2.529-0.401-3.322-1.201c-0.793-0.801-1.189-1.918-1.189-3.352
				c0-1.461,0.399-2.585,1.198-3.372c0.799-0.787,1.939-1.181,3.419-1.181c0.946,0,1.885,0.111,2.818,0.334v1.412
				c-1.058-0.371-1.945-0.557-2.66-0.557c-0.914,0-1.619,0.29-2.115,0.87s-0.744,1.403-0.744,2.47c0,1.047,0.267,1.863,0.8,2.449
				c0.533,0.586,1.274,0.879,2.224,0.879c0.852,0,1.711-0.215,2.578-0.645V76.537z M332.133,76.883v-1.014h1.734V69.47l-1.734,0.434
				v-1.043l3.475-0.867v7.875h1.734v1.014H332.133z M338.907,76.883v-1.881h1.88v1.881H338.907z M343.013,76.883v-1.014h1.734V69.47
				l-1.734,0.434v-1.043l3.475-0.867v7.875h1.734v1.014H343.013z M350.93,76.883v-1.014h1.734V69.47l-1.734,0.434v-1.043
				l3.475-0.867v7.875h1.734v1.014H350.93z M357.703,76.883v-1.881h1.881v1.881H357.703z M361.811,76.883v-1.014h1.734V69.47
				l-1.734,0.434v-1.043l3.475-0.867v7.875h1.734v1.014H361.811z"/>
		</g>
	</g>
	<g transform="matrix(1.3333,0,0,1.3333,44,64.8438) translate(313.0606,65.281)">
		<g>
			<defs>
				<rect id="SVGID_26_" x="-481.797" y="-188.032" width="1085.973" height="592.986"/>
			</defs>
			<clipPath id="SVGID_27_">
				<use xlink:href="#SVGID_26_"  overflow="visible"/>
			</clipPath>
			<path clip-path="url(#SVGID_27_)" d="M3.351,25.734l-3.205-8.672h1.928l2.484,6.709l2.402-6.709h1.301l-3.1,8.672H3.351z
				 M9.469,25.734v-6.433h1.734v6.433H9.469z M9.469,18.217v-1.447h1.734v1.447H9.469z M13.201,25.529v-1.272
				c0.859,0.36,1.594,0.539,2.203,0.539c0.711,0,1.066-0.242,1.066-0.727c0-0.313-0.293-0.586-0.879-0.82l-0.586-0.234
				c-0.636-0.258-1.092-0.535-1.365-0.832c-0.273-0.297-0.41-0.664-0.41-1.102c0-0.609,0.232-1.083,0.697-1.421
				c0.465-0.338,1.116-0.507,1.951-0.507c0.524,0,1.146,0.076,1.869,0.229v1.219c-0.695-0.242-1.272-0.363-1.729-0.363
				c-0.719,0-1.078,0.223-1.078,0.668c0,0.293,0.266,0.541,0.797,0.744l0.504,0.193c0.754,0.285,1.278,0.574,1.573,0.867
				c0.294,0.293,0.442,0.67,0.442,1.131c0,0.605-0.251,1.096-0.753,1.473c-0.502,0.377-1.155,0.566-1.96,0.566
				C14.772,25.881,13.99,25.764,13.201,25.529z M24.135,25.734v-1.213c-0.563,0.906-1.293,1.359-2.191,1.359
				c-0.574,0-1.028-0.182-1.359-0.545c-0.333-0.363-0.498-0.859-0.498-1.488v-4.547h1.734v4.119c0,0.73,0.244,1.095,0.732,1.095
				c0.546,0,1.074-0.389,1.582-1.166v-4.049h1.734v6.433H24.135z M31.189,25.043c-0.578,0.558-1.197,0.838-1.857,0.838
				c-0.563,0-1.02-0.172-1.371-0.516c-0.352-0.344-0.527-0.789-0.527-1.336c0-0.711,0.284-1.259,0.853-1.644
				c0.568-0.385,1.382-0.577,2.44-0.577h0.463v-0.586c0-0.668-0.381-1.002-1.143-1.002c-0.675,0-1.359,0.192-2.051,0.574V19.6
				c0.785-0.297,1.563-0.445,2.332-0.445c1.684,0,2.525,0.67,2.525,2.01v2.847c0,0.504,0.163,0.756,0.486,0.756
				c0.059,0,0.135-0.008,0.229-0.024l0.041,0.973c-0.367,0.109-0.691,0.164-0.973,0.164c-0.71,0-1.168-0.279-1.371-0.838H31.189z
				 M31.189,24.111v-1.306h-0.41c-1.121,0-1.682,0.352-1.682,1.055c0,0.238,0.081,0.438,0.243,0.601
				c0.163,0.162,0.363,0.243,0.601,0.243C30.348,24.703,30.764,24.506,31.189,24.111z M35.092,25.734v-9.252h1.734v9.252H35.092z
				 M38.994,25.734v-6.433h1.734v6.433H38.994z M38.994,18.217v-1.447h1.734v1.447H38.994z M42.533,25.734V24.58l3.598-4.195h-3.434
				v-1.084h5.485v1.084l-3.598,4.195h3.668v1.154H42.533z M49.623,25.734V24.58l3.598-4.195h-3.434v-1.084h5.485v1.084l-3.598,4.195
				h3.668v1.154H49.623z M60.228,25.043c-0.578,0.558-1.197,0.838-1.857,0.838c-0.563,0-1.02-0.172-1.371-0.516
				c-0.351-0.344-0.527-0.789-0.527-1.336c0-0.711,0.284-1.259,0.852-1.644c0.568-0.385,1.382-0.577,2.44-0.577h0.463v-0.586
				c0-0.668-0.381-1.002-1.143-1.002c-0.675,0-1.359,0.192-2.05,0.574V19.6c0.784-0.297,1.562-0.445,2.331-0.445
				c1.684,0,2.525,0.67,2.525,2.01v2.847c0,0.504,0.163,0.756,0.486,0.756c0.059,0,0.135-0.008,0.229-0.024l0.041,0.973
				c-0.367,0.109-0.691,0.164-0.973,0.164c-0.71,0-1.168-0.279-1.371-0.838H60.228z M60.228,24.111v-1.306h-0.41
				c-1.121,0-1.682,0.352-1.682,1.055c0,0.238,0.081,0.438,0.243,0.601c0.163,0.162,0.363,0.243,0.601,0.243
				C59.387,24.703,59.803,24.506,60.228,24.111z M63.767,25.734V24.58l3.598-4.195h-3.434v-1.084h5.485v1.084l-3.598,4.195h3.668
				v1.154H63.767z M71.221,25.734v-6.433h1.734v6.433H71.221z M71.221,18.217v-1.447h1.734v1.447H71.221z M77.824,25.881
				c-1.004,0-1.802-0.304-2.394-0.911c-0.592-0.607-0.888-1.425-0.888-2.452c0-1.039,0.298-1.859,0.894-2.461
				c0.595-0.602,1.405-0.902,2.429-0.902c1.027,0,1.838,0.301,2.435,0.902c0.595,0.602,0.894,1.418,0.894,2.449
				c0,1.055-0.299,1.881-0.897,2.479C79.699,25.582,78.875,25.881,77.824,25.881z M77.854,24.797c0.996,0,1.494-0.764,1.494-2.291
				c0-0.699-0.132-1.252-0.396-1.658c-0.264-0.406-0.626-0.609-1.087-0.609c-0.457,0-0.817,0.203-1.081,0.609
				c-0.264,0.406-0.396,0.963-0.396,1.67c0,0.699,0.13,1.254,0.393,1.664C77.043,24.592,77.4,24.797,77.854,24.797z M82.787,25.734
				v-6.433h1.734v1.213c0.566-0.906,1.296-1.359,2.191-1.359c0.574,0,1.028,0.182,1.359,0.545c0.333,0.363,0.498,0.86,0.498,1.488
				v4.547h-1.734v-4.119c0-0.731-0.242-1.096-0.727-1.096c-0.551,0-1.08,0.389-1.587,1.166v4.049H82.787z M95.906,25.517
				c-0.824,0.242-1.605,0.364-2.344,0.364c-1.074,0-1.922-0.305-2.543-0.914c-0.621-0.609-0.932-1.441-0.932-2.496
				c0-0.996,0.284-1.798,0.853-2.405c0.568-0.608,1.32-0.911,2.253-0.911c0.942,0,1.629,0.297,2.063,0.891
				c0.434,0.594,0.65,1.533,0.65,2.818h-3.99c0.117,1.226,0.791,1.84,2.022,1.84c0.582,0,1.239-0.135,1.969-0.404V25.517z
				 M91.892,21.885h2.309c0-1.098-0.353-1.647-1.061-1.647C92.422,20.238,92.006,20.787,91.892,21.885z M103.922,25.734
				l-3.205-8.672h1.928l2.484,6.709l2.402-6.709h1.301l-3.1,8.672H103.922z M110.039,25.734v-6.433h1.734v6.433H110.039z
				 M110.039,18.217v-1.447h1.734v1.447H110.039z M119.179,25.517c-0.824,0.242-1.606,0.364-2.344,0.364
				c-1.074,0-1.921-0.305-2.542-0.914c-0.621-0.609-0.932-1.441-0.932-2.496c0-0.996,0.284-1.798,0.853-2.405
				c0.568-0.608,1.319-0.911,2.252-0.911c0.942,0,1.629,0.297,2.063,0.891c0.434,0.594,0.65,1.533,0.65,2.818h-3.99
				c0.116,1.226,0.79,1.84,2.021,1.84c0.582,0,1.239-0.135,1.969-0.404V25.517z M115.166,21.885h2.309
				c0-1.098-0.353-1.647-1.06-1.647C115.695,20.238,115.279,20.787,115.166,21.885z M122.109,25.734l-1.787-6.433h1.611l1.266,4.506
				l1.348-4.506h1.5l1.213,4.529l1.365-4.529h1.207l-1.91,6.433h-1.664l-1.172-4.412l-1.313,4.412H122.109z"/>
		</g>
	</g>
	<g transform="matrix(1.3333,0,0,1.3333,44,64.8438) translate(313.0606,65.281)">
		<g>
			<defs>
				<rect id="SVGID_28_" x="-481.797" y="-188.032" width="1085.973" height="592.986"/>
			</defs>
			<clipPath id="SVGID_29_">
				<use xlink:href="#SVGID_28_"  overflow="visible"/>
			</clipPath>
			<path clip-path="url(#SVGID_29_)" d="M1.084,42.181v-8.748h1.734v1.213c0.445-0.906,1.147-1.359,2.104-1.359
				c0.773,0,1.382,0.283,1.825,0.85c0.443,0.566,0.665,1.345,0.665,2.338c0,1.078-0.25,1.937-0.75,2.578
				c-0.5,0.641-1.17,0.961-2.01,0.961c-0.675,0-1.287-0.266-1.834-0.797v2.965H1.084z M2.818,38.186
				c0.422,0.469,0.872,0.703,1.348,0.703c0.426,0,0.766-0.206,1.02-0.618c0.254-0.412,0.381-0.962,0.381-1.649
				c0-1.317-0.423-1.975-1.272-1.975c-0.511,0-1.003,0.33-1.477,0.99V38.186z M9.035,39.867v-6.434h1.734v1.213
				c0.449-0.906,1.133-1.359,2.051-1.359c0.109,0,0.217,0.012,0.322,0.035v1.547c-0.246-0.09-0.475-0.135-0.686-0.135
				c-0.691,0-1.254,0.349-1.688,1.049v4.084H9.035z M19.729,39.651c-0.825,0.242-1.606,0.363-2.344,0.363
				c-1.074,0-1.922-0.305-2.543-0.914c-0.621-0.609-0.932-1.441-0.932-2.496c0-0.996,0.284-1.798,0.853-2.405
				c0.568-0.608,1.319-0.911,2.253-0.911c0.941,0,1.629,0.297,2.063,0.891c0.434,0.594,0.65,1.533,0.65,2.818h-3.99
				c0.117,1.226,0.791,1.84,2.022,1.84c0.582,0,1.238-0.135,1.969-0.404V39.651z M15.715,36.018h2.309
				c0-1.098-0.354-1.647-1.061-1.647C16.244,34.371,15.828,34.92,15.715,36.018z M21.703,39.867v-5.35h-0.885v-1.084h0.885v-0.463
				c0-1.668,0.791-2.502,2.373-2.502c0.511,0,1.039,0.074,1.582,0.223v1.172c-0.492-0.207-0.934-0.311-1.324-0.311
				c-0.598,0-0.896,0.451-0.896,1.354v0.527h1.629v1.084h-1.629v5.35H21.703z M31.734,39.651c-0.824,0.242-1.606,0.363-2.344,0.363
				c-1.074,0-1.922-0.305-2.542-0.914c-0.621-0.609-0.932-1.441-0.932-2.496c0-0.996,0.285-1.798,0.853-2.405
				c0.568-0.608,1.319-0.911,2.252-0.911c0.942,0,1.629,0.297,2.063,0.891c0.434,0.594,0.65,1.533,0.65,2.818h-3.99
				c0.117,1.226,0.791,1.84,2.022,1.84c0.582,0,1.239-0.135,1.969-0.404V39.651z M27.72,36.018h2.309
				c0-1.098-0.353-1.647-1.061-1.647C28.25,34.371,27.834,34.92,27.72,36.018z M33.527,39.867v-6.434h1.734v1.213
				c0.45-0.906,1.133-1.359,2.051-1.359c0.11,0,0.217,0.012,0.322,0.035v1.547c-0.246-0.09-0.475-0.135-0.686-0.135
				c-0.691,0-1.254,0.349-1.688,1.049v4.084H33.527z M38.982,39.867v-6.434h1.734v6.434H38.982z M38.982,32.35v-1.447h1.734v1.447
				H38.982z M46.201,39.832c-0.414,0.121-0.74,0.182-0.979,0.182c-1.504,0-2.256-0.703-2.256-2.109v-3.387h-0.721v-1.084h0.721
				V32.35l1.734-0.199v1.283h1.377v1.084h-1.377v3.158c0,0.789,0.322,1.184,0.967,1.184c0.148,0,0.326-0.027,0.533-0.082V39.832z
				 M52.987,39.651c-0.825,0.242-1.605,0.363-2.344,0.363c-1.074,0-1.922-0.305-2.543-0.914c-0.621-0.609-0.932-1.441-0.932-2.496
				c0-0.996,0.284-1.798,0.853-2.405c0.568-0.608,1.319-0.911,2.253-0.911c0.941,0,1.629,0.297,2.063,0.891
				c0.434,0.594,0.65,1.533,0.65,2.818h-3.99c0.117,1.226,0.791,1.84,2.022,1.84c0.582,0,1.238-0.135,1.969-0.404V39.651z
				 M48.973,36.018h2.309c0-1.098-0.354-1.647-1.061-1.647C49.502,34.371,49.086,34.92,48.973,36.018z"/>
		</g>
	</g>
	<g transform="matrix(1.3333,0,0,1.3333,44,64.8438) translate(5,5)">
		<g>
			<defs>
				<rect id="SVGID_30_" x="-173.736" y="-127.75" width="1085.973" height="592.985"/>
			</defs>
			<clipPath id="SVGID_31_">
				<use xlink:href="#SVGID_30_"  overflow="visible"/>
			</clipPath>
			<ellipse clip-path="url(#SVGID_31_)" fill="#C0C0C0" fill-opacity="0.502" cx="381.65" cy="192.48" rx="97" ry="34.566"/>
		</g>
		<g>
			<defs>
				<rect id="SVGID_32_" x="-173.736" y="-127.75" width="1085.973" height="592.985"/>
			</defs>
			<clipPath id="SVGID_33_">
				<use xlink:href="#SVGID_32_"  overflow="visible"/>
			</clipPath>
			
				<ellipse clip-path="url(#SVGID_33_)" fill="none" stroke="#C0C0C0" stroke-width="2" stroke-linecap="square" stroke-miterlimit="10" stroke-opacity="0.502" cx="381.65" cy="192.48" rx="97" ry="34.566"/>
		</g>
	</g>
	<g transform="matrix(1.3333,0,0,1.3333,44,64.8438)">
		<g>
			<defs>
				<rect id="SVGID_34_" x="-168.736" y="-122.75" width="1085.973" height="592.985"/>
			</defs>
			<clipPath id="SVGID_35_">
				<use xlink:href="#SVGID_34_"  overflow="visible"/>
			</clipPath>
			
				<linearGradient id="SVGID_36_" gradientUnits="userSpaceOnUse" x1="219.7698" y1="283.6704" x2="414.7698" y2="212.6704" gradientTransform="matrix(1.3333 0 0 -1.3333 -8.9954 535.1531)">
				<stop  offset="0" style="stop-color:#FFFFFF"/>
				<stop  offset="1" style="stop-color:#FFFFCC"/>
			</linearGradient>
			<ellipse clip-path="url(#SVGID_35_)" fill="url(#SVGID_36_)" cx="381.65" cy="192.48" rx="97" ry="34.566"/>
		</g>
		<g>
			<defs>
				<rect id="SVGID_37_" x="-168.736" y="-122.75" width="1085.973" height="592.985"/>
			</defs>
			<clipPath id="SVGID_38_">
				<use xlink:href="#SVGID_37_"  overflow="visible"/>
			</clipPath>
			
				<ellipse clip-path="url(#SVGID_38_)" fill="none" stroke="#000000" stroke-width="2" stroke-linecap="square" stroke-miterlimit="10" cx="381.65" cy="192.48" rx="97" ry="34.566"/>
		</g>
		<g>
			<defs>
				<rect id="SVGID_39_" x="-168.736" y="-122.75" width="1085.973" height="592.985"/>
			</defs>
			<clipPath id="SVGID_40_">
				<use xlink:href="#SVGID_39_"  overflow="visible"/>
			</clipPath>
			<path clip-path="url(#SVGID_40_)" d="M314.074,181.277h1.805v5.315c0,0.839,0.139,1.446,0.416,1.819
				c0.278,0.372,0.725,0.559,1.342,0.559c0.59,0,1.017-0.178,1.28-0.533s0.396-0.928,0.396-1.716v-5.444h1.57v5.326
				c0,0.8-0.076,1.411-0.229,1.83s-0.43,0.784-0.832,1.093c-0.551,0.426-1.291,0.639-2.221,0.639c-0.996,0-1.797-0.227-2.402-0.68
				c-0.418-0.313-0.71-0.683-0.876-1.111c-0.166-0.427-0.249-1.025-0.249-1.789V181.277z M329.959,189.604
				c-0.84,0.375-1.842,0.563-3.006,0.563c-1.422,0-2.529-0.401-3.322-1.201c-0.793-0.801-1.189-1.919-1.189-3.352
				c0-1.462,0.399-2.586,1.198-3.372c0.799-0.787,1.939-1.181,3.419-1.181c0.946,0,1.885,0.111,2.818,0.334v1.412
				c-1.058-0.371-1.945-0.557-2.66-0.557c-0.914,0-1.619,0.29-2.115,0.87c-0.496,0.58-0.744,1.403-0.744,2.47
				c0,1.046,0.267,1.863,0.8,2.449c0.533,0.585,1.274,0.878,2.224,0.878c0.852,0,1.711-0.215,2.578-0.644V189.604z M332.133,189.95
				v-1.014h1.734v-6.399l-1.734,0.434v-1.043l3.475-0.867v7.875h1.734v1.014H332.133z M338.907,189.95v-1.881h1.88v1.881H338.907z
				 M343.013,189.95v-1.014h1.734v-6.399l-1.734,0.434v-1.043l3.475-0.867v7.875h1.734v1.014H343.013z M350.93,189.95v-1.014h1.734
				v-6.399l-1.734,0.434v-1.043l3.475-0.867v7.875h1.734v1.014H350.93z M357.703,189.95v-1.881h1.881v1.881H357.703z
				 M360.985,189.95v-1.371l0.094-0.129c0.464-0.621,0.941-1.146,1.43-1.571l0.709-0.626c1.168-1.031,1.752-1.937,1.752-2.713
				c0-0.907-0.516-1.359-1.547-1.359c-0.637,0-1.375,0.215-2.215,0.645v-1.272c0.883-0.328,1.736-0.492,2.561-0.492
				c0.921,0,1.66,0.218,2.215,0.653c0.554,0.435,0.832,1.018,0.832,1.749c0,0.504-0.135,0.962-0.404,1.377
				c-0.27,0.414-0.744,0.894-1.424,1.441l-0.586,0.469c-0.817,0.656-1.301,1.266-1.453,1.828h3.832v1.371H360.985z M372.129,189.95
				l3.375-8.672h1.805l3.375,8.672h-1.852l-0.902-2.315h-3.586l-0.902,2.315H372.129z M374.789,186.481h2.695l-1.348-3.457
				L374.789,186.481z M381.961,191.947l0.141-1.26c0.715,0.328,1.397,0.492,2.045,0.492c0.641,0,1.104-0.137,1.389-0.41
				c0.285-0.273,0.428-0.717,0.428-1.33v-0.878c-0.422,0.926-1.119,1.389-2.092,1.389c-0.765,0-1.373-0.287-1.822-0.858
				c-0.449-0.573-0.674-1.348-0.674-2.323c0-1.028,0.252-1.852,0.756-2.47c0.504-0.62,1.174-0.929,2.01-0.929
				c0.656,0,1.263,0.265,1.822,0.797l0.182-0.65h1.559v4.91c0,0.981-0.059,1.688-0.179,2.121c-0.119,0.434-0.351,0.803-0.694,1.107
				c-0.578,0.5-1.392,0.75-2.443,0.75C383.64,192.404,382.832,192.252,381.961,191.947z M385.963,187.553v-2.373
				c-0.418-0.473-0.855-0.709-1.313-0.709c-0.437,0-0.785,0.199-1.043,0.598c-0.258,0.398-0.387,0.933-0.387,1.606
				c0,1.257,0.404,1.887,1.213,1.887C384.993,188.561,385.502,188.224,385.963,187.553z M389.877,191.947l0.141-1.26
				c0.715,0.328,1.396,0.492,2.045,0.492c0.64,0,1.103-0.137,1.389-0.41c0.285-0.273,0.428-0.717,0.428-1.33v-0.878
				c-0.422,0.926-1.119,1.389-2.092,1.389c-0.766,0-1.373-0.287-1.822-0.858c-0.449-0.573-0.674-1.348-0.674-2.323
				c0-1.028,0.252-1.852,0.756-2.47c0.504-0.62,1.173-0.929,2.01-0.929c0.656,0,1.263,0.265,1.822,0.797l0.182-0.65h1.559v4.91
				c0,0.981-0.06,1.688-0.179,2.121c-0.119,0.434-0.351,0.803-0.694,1.107c-0.579,0.5-1.393,0.75-2.443,0.75
				C391.557,192.404,390.748,192.252,389.877,191.947z M393.879,187.553v-2.373c-0.418-0.473-0.855-0.709-1.313-0.709
				c-0.438,0-0.785,0.199-1.043,0.598c-0.258,0.398-0.387,0.933-0.387,1.606c0,1.257,0.404,1.887,1.213,1.887
				C392.908,188.561,393.418,188.224,393.879,187.553z M397.746,189.95v-6.434h1.734v6.434H397.746z M397.746,182.432v-1.447h1.734
				v1.447H397.746z M405.627,189.95v-1.213c-0.563,0.905-1.293,1.359-2.191,1.359c-0.574,0-1.027-0.182-1.359-0.545
				c-0.332-0.363-0.498-0.859-0.498-1.488v-4.546h1.734v4.119c0,0.73,0.245,1.095,0.732,1.095c0.547,0,1.074-0.389,1.582-1.165
				v-4.049h1.734v6.434H405.627z M409.529,189.95v-6.434h1.734v1.213c0.566-0.907,1.297-1.359,2.191-1.359
				c0.574,0,1.028,0.182,1.359,0.545c0.332,0.363,0.498,0.858,0.498,1.488v4.547h-1.734v-4.119c0-0.731-0.242-1.096-0.727-1.096
				c-0.551,0-1.08,0.388-1.588,1.166v4.049H409.529z M420.727,189.914c-0.415,0.121-0.741,0.182-0.979,0.182
				c-1.504,0-2.256-0.703-2.256-2.109V184.6h-0.721v-1.084h0.721v-1.084l1.734-0.199v1.283h1.377v1.084h-1.377v3.158
				c0,0.788,0.322,1.184,0.967,1.184c0.148,0,0.326-0.028,0.533-0.083V189.914z M425.426,189.258
				c-0.579,0.558-1.198,0.837-1.857,0.837c-0.562,0-1.02-0.172-1.371-0.516c-0.352-0.344-0.527-0.789-0.527-1.335
				c0-0.712,0.284-1.26,0.853-1.644c0.568-0.385,1.381-0.577,2.44-0.577h0.463v-0.586c0-0.668-0.381-1.002-1.143-1.002
				c-0.676,0-1.359,0.191-2.051,0.574v-1.195c0.785-0.297,1.562-0.445,2.332-0.445c1.683,0,2.525,0.669,2.525,2.01v2.848
				c0,0.504,0.162,0.756,0.486,0.756c0.059,0,0.135-0.009,0.228-0.024l0.042,0.973c-0.368,0.109-0.691,0.164-0.973,0.164
				c-0.711,0-1.168-0.279-1.371-0.837H425.426z M425.426,188.326v-1.306h-0.41c-1.121,0-1.682,0.352-1.682,1.055
				c0,0.237,0.081,0.438,0.243,0.6c0.162,0.162,0.362,0.243,0.601,0.243C424.584,188.918,425,188.72,425.426,188.326z"/>
		</g>
	</g>
	<g transform="matrix(1.3333,0,0,1.3333,44,64.8438) translate(313.0606,178.3474)">
		<g>
			<defs>
				<rect id="SVGID_41_" x="-481.797" y="-301.098" width="1085.973" height="592.985"/>
			</defs>
			<clipPath id="SVGID_42_">
				<use xlink:href="#SVGID_41_"  overflow="visible"/>
			</clipPath>
			<path clip-path="url(#SVGID_42_)" d="M3.351,25.735l-3.205-8.672h1.928l2.484,6.709l2.402-6.709h1.301l-3.1,8.672H3.351z
				 M9.469,25.735v-6.434h1.734v6.434H9.469z M9.469,18.217V16.77h1.734v1.447H9.469z M18.61,25.518
				c-0.825,0.242-1.606,0.363-2.344,0.363c-1.074,0-1.922-0.305-2.543-0.914c-0.621-0.609-0.932-1.441-0.932-2.496
				c0-0.996,0.284-1.798,0.853-2.405c0.568-0.607,1.319-0.911,2.253-0.911c0.941,0,1.629,0.297,2.063,0.891
				c0.434,0.594,0.65,1.533,0.65,2.818h-3.99c0.117,1.227,0.791,1.84,2.022,1.84c0.582,0,1.239-0.135,1.969-0.404V25.518z
				 M14.596,21.885h2.309c0-1.098-0.354-1.647-1.061-1.647C15.125,20.238,14.709,20.787,14.596,21.885z M21.539,25.735l-1.787-6.434
				h1.611l1.266,4.506l1.348-4.506h1.5l1.213,4.529l1.365-4.529h1.207l-1.909,6.434h-1.664l-1.172-4.412l-1.313,4.412H21.539z
				 M34.711,25.735v-6.434h1.734v1.213c0.566-0.906,1.297-1.359,2.191-1.359c0.574,0,1.028,0.182,1.359,0.545
				c0.332,0.363,0.498,0.859,0.498,1.488v4.547H38.76v-4.119c0-0.73-0.242-1.096-0.727-1.096c-0.551,0-1.08,0.389-1.588,1.166v4.049
				H34.711z M47.83,25.518c-0.825,0.242-1.606,0.363-2.344,0.363c-1.074,0-1.922-0.305-2.543-0.914
				c-0.621-0.609-0.932-1.441-0.932-2.496c0-0.996,0.284-1.798,0.853-2.405c0.568-0.607,1.319-0.911,2.253-0.911
				c0.941,0,1.629,0.297,2.063,0.891c0.434,0.594,0.65,1.533,0.65,2.818h-3.99c0.117,1.227,0.791,1.84,2.022,1.84
				c0.582,0,1.238-0.135,1.969-0.404V25.518z M43.816,21.885h2.309c0-1.098-0.354-1.647-1.061-1.647
				C44.346,20.238,43.93,20.787,43.816,21.885z M49.623,25.735v-9.252h1.734v9.252H49.623z M53.526,25.735v-9.252h1.734v9.252
				H53.526z M62.666,25.518c-0.824,0.242-1.605,0.363-2.344,0.363c-1.074,0-1.922-0.305-2.543-0.914
				c-0.62-0.609-0.931-1.441-0.931-2.496c0-0.996,0.284-1.798,0.852-2.405c0.568-0.607,1.32-0.911,2.253-0.911
				c0.942,0,1.629,0.297,2.063,0.891c0.434,0.594,0.65,1.533,0.65,2.818h-3.99c0.117,1.227,0.791,1.84,2.022,1.84
				c0.582,0,1.239-0.135,1.969-0.404V25.518z M58.652,21.885h2.309c0-1.098-0.353-1.647-1.061-1.647
				C59.182,20.238,58.766,20.787,58.652,21.885z M68.414,28.048v-8.748h1.734v1.213c0.445-0.906,1.146-1.359,2.104-1.359
				c0.773,0,1.382,0.283,1.825,0.85c0.443,0.566,0.665,1.345,0.665,2.338c0,1.078-0.25,1.937-0.75,2.578
				c-0.5,0.641-1.17,0.961-2.01,0.961c-0.676,0-1.287-0.266-1.834-0.797v2.964H68.414z M70.148,24.053
				c0.422,0.469,0.871,0.703,1.348,0.703c0.426,0,0.765-0.206,1.02-0.618c0.254-0.412,0.381-0.962,0.381-1.649
				c0-1.316-0.424-1.975-1.272-1.975c-0.512,0-1.004,0.33-1.477,0.99V24.053z M76.365,25.735v-6.434H78.1v1.213
				c0.449-0.906,1.132-1.359,2.051-1.359c0.109,0,0.217,0.012,0.322,0.035v1.547c-0.246-0.09-0.475-0.135-0.686-0.135
				c-0.691,0-1.254,0.349-1.688,1.049v4.084H76.365z M87.058,25.518c-0.824,0.242-1.605,0.363-2.344,0.363
				c-1.074,0-1.921-0.305-2.542-0.914c-0.621-0.609-0.932-1.441-0.932-2.496c0-0.996,0.284-1.798,0.853-2.405
				c0.568-0.607,1.319-0.911,2.252-0.911c0.942,0,1.629,0.297,2.063,0.891c0.434,0.594,0.65,1.533,0.65,2.818h-3.99
				c0.117,1.227,0.79,1.84,2.021,1.84c0.582,0,1.239-0.135,1.969-0.404V25.518z M83.045,21.885h2.308
				c0-1.098-0.353-1.647-1.06-1.647C83.574,20.238,83.158,20.787,83.045,21.885z M89.033,25.735v-5.35h-0.885v-1.084h0.885v-0.463
				c0-1.668,0.791-2.502,2.373-2.502c0.512,0,1.039,0.074,1.582,0.223v1.172c-0.492-0.207-0.933-0.311-1.324-0.311
				c-0.598,0-0.897,0.451-0.897,1.354v0.527h1.629v1.084h-1.629v5.35H89.033z M99.064,25.518c-0.824,0.242-1.605,0.363-2.344,0.363
				c-1.074,0-1.922-0.305-2.543-0.914c-0.621-0.609-0.932-1.441-0.932-2.496c0-0.996,0.284-1.798,0.853-2.405
				c0.568-0.607,1.32-0.911,2.253-0.911c0.941,0,1.629,0.297,2.063,0.891c0.434,0.594,0.65,1.533,0.65,2.818h-3.99
				c0.117,1.227,0.791,1.84,2.022,1.84c0.582,0,1.239-0.135,1.969-0.404V25.518z M95.051,21.885h2.309
				c0-1.098-0.354-1.647-1.061-1.647C95.58,20.238,95.164,20.787,95.051,21.885z M100.857,25.735v-6.434h1.734v1.213
				c0.449-0.906,1.132-1.359,2.051-1.359c0.109,0,0.217,0.012,0.322,0.035v1.547c-0.246-0.09-0.475-0.135-0.686-0.135
				c-0.691,0-1.254,0.349-1.688,1.049v4.084H100.857z M106.313,25.735v-6.434h1.734v6.434H106.313z M106.313,18.217V16.77h1.734
				v1.447H106.313z M113.531,25.699c-0.414,0.122-0.74,0.182-0.978,0.182c-1.504,0-2.256-0.703-2.256-2.109v-3.387h-0.721v-1.084
				h0.721v-1.084l1.734-0.199v1.283h1.377v1.084h-1.377v3.158c0,0.789,0.322,1.184,0.967,1.184c0.148,0,0.326-0.027,0.533-0.082
				V25.699z M120.316,25.518c-0.824,0.242-1.605,0.363-2.344,0.363c-1.074,0-1.922-0.305-2.542-0.914
				c-0.622-0.609-0.932-1.441-0.932-2.496c0-0.996,0.284-1.798,0.853-2.405c0.568-0.607,1.319-0.911,2.252-0.911
				c0.942,0,1.629,0.297,2.063,0.891c0.434,0.594,0.65,1.533,0.65,2.818h-3.99c0.117,1.227,0.79,1.84,2.021,1.84
				c0.582,0,1.239-0.135,1.969-0.404V25.518z M116.302,21.885h2.309c0-1.098-0.353-1.647-1.061-1.647
				C116.832,20.238,116.416,20.787,116.302,21.885z"/>
		</g>
	</g>
	<g transform="matrix(1.3333,0,0,1.3333,44,64.8438) translate(5,5)">
		<g>
			<defs>
				<rect id="SVGID_43_" x="-173.736" y="-127.75" width="1085.973" height="592.985"/>
			</defs>
			<clipPath id="SVGID_44_">
				<use xlink:href="#SVGID_43_"  overflow="visible"/>
			</clipPath>
			<ellipse clip-path="url(#SVGID_44_)" fill="#C0C0C0" fill-opacity="0.502" cx="381.65" cy="297.653" rx="97" ry="34.566"/>
		</g>
		<g>
			<defs>
				<rect id="SVGID_45_" x="-173.736" y="-127.75" width="1085.973" height="592.985"/>
			</defs>
			<clipPath id="SVGID_46_">
				<use xlink:href="#SVGID_45_"  overflow="visible"/>
			</clipPath>
			
				<ellipse clip-path="url(#SVGID_46_)" fill="none" stroke="#C0C0C0" stroke-width="2" stroke-linecap="square" stroke-miterlimit="10" stroke-opacity="0.502" cx="381.65" cy="297.653" rx="97" ry="34.566"/>
		</g>
	</g>
	<g transform="matrix(1.3333,0,0,1.3333,44,64.8438)">
		<g>
			<defs>
				<rect id="SVGID_47_" x="-168.736" y="-122.75" width="1085.973" height="592.985"/>
			</defs>
			<clipPath id="SVGID_48_">
				<use xlink:href="#SVGID_47_"  overflow="visible"/>
			</clipPath>
			
				<linearGradient id="SVGID_49_" gradientUnits="userSpaceOnUse" x1="219.8478" y1="204.3859" x2="414.8478" y2="134.3859" gradientTransform="matrix(1.3333 0 0 -1.3333 -8.9954 535.1531)">
				<stop  offset="0" style="stop-color:#FFFFFF"/>
				<stop  offset="1" style="stop-color:#FFFFCC"/>
			</linearGradient>
			<ellipse clip-path="url(#SVGID_48_)" fill="url(#SVGID_49_)" cx="381.65" cy="297.653" rx="97" ry="34.566"/>
		</g>
		<g>
			<defs>
				<rect id="SVGID_50_" x="-168.736" y="-122.75" width="1085.973" height="592.985"/>
			</defs>
			<clipPath id="SVGID_51_">
				<use xlink:href="#SVGID_50_"  overflow="visible"/>
			</clipPath>
			
				<ellipse clip-path="url(#SVGID_51_)" fill="none" stroke="#000000" stroke-width="2" stroke-linecap="square" stroke-miterlimit="10" cx="381.65" cy="297.653" rx="97" ry="34.566"/>
		</g>
		<g>
			<defs>
				<rect id="SVGID_52_" x="-168.736" y="-122.75" width="1085.973" height="592.985"/>
			</defs>
			<clipPath id="SVGID_53_">
				<use xlink:href="#SVGID_52_"  overflow="visible"/>
			</clipPath>
			<path clip-path="url(#SVGID_53_)" d="M314.074,286.449h1.805v5.315c0,0.84,0.139,1.447,0.416,1.819
				c0.278,0.373,0.725,0.56,1.342,0.56c0.59,0,1.017-0.178,1.28-0.533c0.264-0.355,0.396-0.928,0.396-1.717v-5.443h1.57v5.326
				c0,0.801-0.076,1.411-0.229,1.831c-0.152,0.42-0.43,0.784-0.832,1.093c-0.551,0.426-1.291,0.639-2.221,0.639
				c-0.996,0-1.797-0.226-2.402-0.68c-0.418-0.313-0.71-0.683-0.876-1.11c-0.166-0.428-0.249-1.025-0.249-1.79V286.449z
				 M329.959,294.776c-0.84,0.375-1.842,0.563-3.006,0.563c-1.422,0-2.529-0.401-3.322-1.201c-0.793-0.801-1.189-1.918-1.189-3.352
				c0-1.46,0.399-2.585,1.198-3.372c0.799-0.787,1.939-1.181,3.419-1.181c0.946,0,1.885,0.111,2.818,0.334v1.412
				c-1.058-0.371-1.945-0.557-2.66-0.557c-0.914,0-1.619,0.29-2.115,0.87c-0.496,0.58-0.744,1.403-0.744,2.47
				c0,1.047,0.267,1.863,0.8,2.449c0.533,0.586,1.274,0.879,2.224,0.879c0.852,0,1.711-0.215,2.578-0.645V294.776z M332.133,295.121
				v-1.014h1.734v-6.399l-1.734,0.434V287.1l3.475-0.867v7.875h1.734v1.014H332.133z M338.907,295.121v-1.881h1.88v1.881H338.907z
				 M343.013,295.121v-1.014h1.734v-6.399l-1.734,0.434V287.1l3.475-0.867v7.875h1.734v1.014H343.013z M350.93,295.121v-1.014h1.734
				v-6.399l-1.734,0.434V287.1l3.475-0.867v7.875h1.734v1.014H350.93z M357.703,295.121v-1.881h1.881v1.881H357.703z
				 M361.307,295.057v-1.301c0.859,0.332,1.568,0.498,2.127,0.498c0.519,0,0.936-0.133,1.251-0.398
				c0.314-0.266,0.472-0.619,0.472-1.061c0-1.145-0.838-1.717-2.514-1.717h-0.533v-1.037l0.451-0.006
				c1.57,0,2.356-0.513,2.356-1.541c0-0.785-0.485-1.178-1.453-1.178c-0.637,0-1.317,0.163-2.039,0.486v-1.184
				c0.762-0.261,1.564-0.393,2.408-0.393c0.894,0,1.594,0.184,2.101,0.551c0.505,0.368,0.759,0.875,0.759,1.523
				c0,1.024-0.639,1.746-1.916,2.168c1.461,0.336,2.191,1.117,2.191,2.344c0,0.777-0.293,1.392-0.879,1.846
				c-0.586,0.453-1.383,0.68-2.391,0.68C362.842,295.338,362.045,295.244,361.307,295.057z M373.078,295.121v-8.672h3.246
				c1.762,0,2.643,0.717,2.643,2.15c0,0.535-0.149,1.022-0.448,1.462c-0.299,0.439-0.71,0.776-1.233,1.011l2.836,4.049h-2.197
				l-2.15-3.545h-0.996v3.545H373.078z M374.777,290.387h0.416c1.309,0,1.963-0.529,1.963-1.588c0-0.773-0.584-1.16-1.752-1.16
				h-0.627V290.387z M381.357,295.121v-6.434h1.734v6.434H381.357z M381.357,287.604v-1.447h1.734v1.447H381.357z M385.26,295.121
				v-6.434h1.664v1.213c0.508-0.906,1.231-1.359,2.168-1.359c0.484,0,0.883,0.119,1.195,0.357c0.312,0.239,0.504,0.573,0.574,1.002
				c0.601-0.906,1.328-1.359,2.18-1.359c1.176,0,1.764,0.649,1.764,1.945v4.635h-1.664v-4.066c0-0.762-0.254-1.143-0.762-1.143
				c-0.52,0-1.025,0.375-1.518,1.125v4.084h-1.664v-4.066c0-0.765-0.256-1.148-0.768-1.148c-0.512,0-1.014,0.377-1.506,1.131v4.084
				H385.26z M399.597,295.268c-1.003,0-1.802-0.304-2.393-0.911c-0.592-0.607-0.888-1.425-0.888-2.452
				c0-1.039,0.297-1.859,0.893-2.461c0.596-0.601,1.406-0.902,2.429-0.902c1.028,0,1.839,0.301,2.435,0.902
				c0.596,0.602,0.894,1.418,0.894,2.449c0,1.055-0.299,1.881-0.897,2.479C401.472,294.969,400.648,295.268,399.597,295.268z
				 M399.627,294.184c0.996,0,1.494-0.764,1.494-2.291c0-0.699-0.132-1.252-0.396-1.658c-0.264-0.406-0.626-0.609-1.087-0.609
				c-0.457,0-0.817,0.204-1.081,0.609c-0.263,0.407-0.395,0.963-0.395,1.67c0,0.699,0.13,1.254,0.392,1.664
				C398.817,293.979,399.174,294.184,399.627,294.184z M404.197,295.121v-1.154l3.598-4.195h-3.434v-1.084h5.484v1.084l-3.598,4.195
				h3.668v1.154H404.197z M411.65,295.121v-6.434h1.734v6.434H411.65z M411.65,287.604v-1.447h1.734v1.447H411.65z M418.254,295.268
				c-1.004,0-1.802-0.304-2.394-0.911c-0.592-0.607-0.888-1.425-0.888-2.452c0-1.039,0.298-1.859,0.894-2.461
				c0.595-0.601,1.405-0.902,2.429-0.902c1.027,0,1.838,0.301,2.435,0.902c0.595,0.602,0.894,1.418,0.894,2.449
				c0,1.055-0.299,1.881-0.897,2.479C420.129,294.969,419.304,295.268,418.254,295.268z M418.283,294.184
				c0.996,0,1.494-0.764,1.494-2.291c0-0.699-0.132-1.252-0.396-1.658c-0.264-0.406-0.626-0.609-1.087-0.609
				c-0.457,0-0.817,0.204-1.081,0.609c-0.264,0.407-0.396,0.963-0.396,1.67c0,0.699,0.13,1.254,0.393,1.664
				C417.473,293.979,417.83,294.184,418.283,294.184z M423.217,295.121v-6.434h1.734v1.213c0.566-0.906,1.296-1.359,2.191-1.359
				c0.574,0,1.027,0.182,1.359,0.545c0.333,0.363,0.499,0.86,0.499,1.488v4.547h-1.734v-4.119c0-0.73-0.242-1.096-0.727-1.096
				c-0.551,0-1.08,0.389-1.588,1.166v4.049H423.217z M436.336,294.905c-0.824,0.242-1.605,0.363-2.344,0.363
				c-1.074,0-1.922-0.305-2.543-0.914c-0.621-0.609-0.932-1.441-0.932-2.496c0-0.996,0.284-1.797,0.853-2.405
				c0.568-0.607,1.32-0.911,2.253-0.911c0.942,0,1.629,0.297,2.063,0.891c0.434,0.594,0.65,1.533,0.65,2.818h-3.99
				c0.117,1.227,0.791,1.84,2.022,1.84c0.582,0,1.239-0.135,1.969-0.404V294.905z M432.322,291.272h2.309
				c0-1.097-0.353-1.647-1.061-1.647C432.852,289.625,432.436,290.174,432.322,291.272z"/>
		</g>
	</g>
	<g transform="matrix(1.3333,0,0,1.3333,44,64.8438) translate(313.0606,283.5198)">
		<g>
			<defs>
				<rect id="SVGID_54_" x="-481.797" y="-406.27" width="1085.973" height="592.985"/>
			</defs>
			<clipPath id="SVGID_55_">
				<use xlink:href="#SVGID_54_"  overflow="visible"/>
			</clipPath>
			<path clip-path="url(#SVGID_55_)" d="M3.351,25.735l-3.205-8.672h1.928l2.484,6.709l2.402-6.709h1.301l-3.1,8.672H3.351z
				 M9.469,25.735v-6.434h1.734v6.434H9.469z M9.469,18.217V16.77h1.734v1.447H9.469z M18.61,25.518
				c-0.825,0.242-1.606,0.363-2.344,0.363c-1.074,0-1.922-0.305-2.543-0.914s-0.932-1.441-0.932-2.496
				c0-0.996,0.284-1.798,0.853-2.405c0.568-0.608,1.319-0.911,2.253-0.911c0.941,0,1.629,0.297,2.063,0.891
				c0.434,0.593,0.65,1.533,0.65,2.818h-3.99c0.117,1.226,0.791,1.84,2.022,1.84c0.582,0,1.239-0.135,1.969-0.404V25.518z
				 M14.596,21.885h2.309c0-1.098-0.354-1.647-1.061-1.647C15.125,20.238,14.709,20.787,14.596,21.885z M21.539,25.735l-1.787-6.434
				h1.611l1.266,4.506l1.348-4.506h1.5l1.213,4.529l1.365-4.529h1.207l-1.909,6.434h-1.664l-1.172-4.412l-1.313,4.412H21.539z
				 M38.76,25.735v-1.213c-0.445,0.906-1.146,1.359-2.104,1.359c-0.773,0-1.381-0.283-1.822-0.85
				c-0.441-0.566-0.662-1.345-0.662-2.337c0-1.078,0.249-1.938,0.747-2.578c0.498-0.641,1.168-0.961,2.007-0.961
				c0.672,0,1.283,0.265,1.834,0.797v-3.469h1.74v9.252H38.76z M38.76,20.983c-0.418-0.469-0.865-0.703-1.342-0.703
				c-0.426,0-0.765,0.205-1.02,0.615c-0.253,0.41-0.381,0.961-0.381,1.652c0,1.316,0.422,1.975,1.266,1.975
				c0.516,0,1.008-0.33,1.477-0.99V20.983z M45.815,25.043c-0.578,0.558-1.198,0.838-1.857,0.838c-0.563,0-1.02-0.172-1.371-0.516
				c-0.352-0.344-0.527-0.79-0.527-1.336c0-0.711,0.284-1.259,0.853-1.644c0.568-0.385,1.382-0.577,2.44-0.577h0.463v-0.586
				c0-0.668-0.381-1.002-1.143-1.002c-0.676,0-1.359,0.191-2.051,0.574V19.6c0.785-0.297,1.562-0.445,2.332-0.445
				c1.683,0,2.525,0.669,2.525,2.01v2.848c0,0.504,0.162,0.756,0.486,0.756c0.059,0,0.135-0.008,0.229-0.023l0.041,0.973
				c-0.368,0.109-0.691,0.164-0.973,0.164c-0.711,0-1.168-0.28-1.371-0.838H45.815z M45.815,24.112v-1.307h-0.41
				c-1.121,0-1.682,0.352-1.682,1.055c0,0.238,0.081,0.438,0.243,0.601c0.162,0.162,0.363,0.243,0.601,0.243
				C44.973,24.703,45.389,24.506,45.815,24.112z M49.717,25.735v-9.252h1.734v9.252H49.717z M53.619,25.735v-9.252h1.734v9.252
				H53.619z M62.76,25.518c-0.824,0.242-1.605,0.363-2.344,0.363c-1.074,0-1.922-0.305-2.543-0.914s-0.932-1.441-0.932-2.496
				c0-0.996,0.284-1.798,0.853-2.405c0.568-0.608,1.32-0.911,2.253-0.911c0.942,0,1.629,0.297,2.063,0.891
				c0.434,0.593,0.65,1.533,0.65,2.818h-3.99c0.117,1.226,0.791,1.84,2.022,1.84c0.582,0,1.239-0.135,1.969-0.404V25.518z
				 M58.746,21.885h2.309c0-1.098-0.353-1.647-1.061-1.647C59.275,20.238,58.859,20.787,58.746,21.885z M68.508,28.048v-8.748h1.734
				v1.213c0.445-0.907,1.146-1.359,2.104-1.359c0.773,0,1.382,0.283,1.825,0.85c0.443,0.566,0.665,1.345,0.665,2.338
				c0,1.078-0.25,1.937-0.75,2.578c-0.5,0.64-1.17,0.961-2.01,0.961c-0.676,0-1.287-0.266-1.834-0.797v2.964H68.508z M70.242,24.053
				c0.422,0.469,0.871,0.703,1.348,0.703c0.426,0,0.765-0.207,1.02-0.618c0.254-0.412,0.381-0.962,0.381-1.649
				c0-1.317-0.424-1.975-1.272-1.975c-0.512,0-1.004,0.33-1.477,0.99V24.053z M76.459,25.735v-6.434h1.734v1.213
				c0.449-0.907,1.132-1.359,2.051-1.359c0.109,0,0.217,0.012,0.322,0.035v1.547c-0.246-0.09-0.475-0.135-0.686-0.135
				c-0.691,0-1.254,0.349-1.688,1.049v4.084H76.459z M87.152,25.518c-0.824,0.242-1.605,0.363-2.344,0.363
				c-1.074,0-1.921-0.305-2.542-0.914s-0.932-1.441-0.932-2.496c0-0.996,0.284-1.798,0.853-2.405
				c0.568-0.608,1.319-0.911,2.253-0.911c0.941,0,1.628,0.297,2.062,0.891c0.434,0.593,0.65,1.533,0.65,2.818h-3.99
				c0.117,1.226,0.791,1.84,2.021,1.84c0.582,0,1.239-0.135,1.969-0.404V25.518z M83.139,21.885h2.309
				c0-1.098-0.354-1.647-1.061-1.647C83.668,20.238,83.252,20.787,83.139,21.885z M89.127,25.735v-5.35h-0.885v-1.084h0.885v-0.463
				c0-1.668,0.791-2.502,2.373-2.502c0.512,0,1.039,0.074,1.582,0.223v1.172c-0.492-0.207-0.933-0.311-1.324-0.311
				c-0.598,0-0.897,0.451-0.897,1.354v0.527h1.629v1.084h-1.629v5.35H89.127z M99.158,25.518c-0.824,0.242-1.605,0.363-2.344,0.363
				c-1.074,0-1.922-0.305-2.543-0.914c-0.621-0.609-0.932-1.441-0.932-2.496c0-0.996,0.284-1.798,0.853-2.405
				c0.568-0.608,1.319-0.911,2.253-0.911c0.941,0,1.629,0.297,2.063,0.891c0.434,0.593,0.65,1.533,0.65,2.818h-3.99
				c0.117,1.226,0.791,1.84,2.022,1.84c0.582,0,1.239-0.135,1.969-0.404V25.518z M95.144,21.885h2.309
				c0-1.098-0.354-1.647-1.061-1.647C95.674,20.238,95.258,20.787,95.144,21.885z M100.951,25.735v-6.434h1.734v1.213
				c0.449-0.907,1.132-1.359,2.051-1.359c0.109,0,0.217,0.012,0.322,0.035v1.547c-0.246-0.09-0.475-0.135-0.686-0.135
				c-0.691,0-1.254,0.349-1.688,1.049v4.084H100.951z M106.406,25.735v-6.434h1.734v6.434H106.406z M106.406,18.217V16.77h1.734
				v1.447H106.406z M113.625,25.7c-0.415,0.121-0.741,0.182-0.979,0.182c-1.504,0-2.256-0.703-2.256-2.109v-3.387h-0.721v-1.084
				h0.721v-1.084l1.734-0.199v1.283h1.377v1.084h-1.377v3.158c0,0.789,0.322,1.184,0.967,1.184c0.148,0,0.326-0.028,0.533-0.082
				V25.7z M120.41,25.518c-0.824,0.242-1.606,0.363-2.344,0.363c-1.074,0-1.922-0.305-2.543-0.914
				c-0.62-0.609-0.931-1.441-0.931-2.496c0-0.996,0.284-1.798,0.852-2.405c0.568-0.608,1.32-0.911,2.253-0.911
				c0.942,0,1.629,0.297,2.063,0.891c0.434,0.593,0.65,1.533,0.65,2.818h-3.99c0.117,1.226,0.791,1.84,2.022,1.84
				c0.582,0,1.239-0.135,1.969-0.404V25.518z M116.396,21.885h2.309c0-1.098-0.353-1.647-1.061-1.647
				C116.926,20.238,116.51,20.787,116.396,21.885z"/>
		</g>
	</g>
	<g transform="matrix(1.3333,0,0,1.3333,44,64.8438) translate(5,5)">
		<g>
			<defs>
				<rect id="SVGID_56_" x="-173.736" y="-127.75" width="1085.973" height="592.985"/>
			</defs>
			<clipPath id="SVGID_57_">
				<use xlink:href="#SVGID_56_"  overflow="visible"/>
			</clipPath>
			
				<rect x="221.3" y="0.5" clip-path="url(#SVGID_57_)" fill="none" stroke="#C0C0C0" stroke-linecap="square" stroke-miterlimit="10" stroke-opacity="0.502" width="534.7" height="355.867"/>
		</g>
	</g>
	<g transform="matrix(1.3333,0,0,1.3333,44,64.8438)">
		<g>
			<defs>
				<rect id="SVGID_58_" x="-168.736" y="-122.75" width="1085.973" height="592.985"/>
			</defs>
			<clipPath id="SVGID_59_">
				<use xlink:href="#SVGID_58_"  overflow="visible"/>
			</clipPath>
			
				<rect x="221.3" y="0.5" clip-path="url(#SVGID_59_)" fill="none" stroke="#000000" stroke-linecap="square" stroke-miterlimit="10" width="534.7" height="355.867"/>
		</g>
		<g>
			<defs>
				<rect id="SVGID_60_" x="-168.736" y="-122.75" width="1085.973" height="592.984"/>
			</defs>
			<clipPath id="SVGID_61_">
				<use xlink:href="#SVGID_60_"  overflow="visible"/>
			</clipPath>
			<path clip-path="url(#SVGID_61_)" d="M231.985,22.102V13.43h2.25c0.867,0,1.532,0.164,1.995,0.492
				c0.463,0.328,0.694,0.801,0.694,1.418c0,1.051-0.594,1.799-1.781,2.244c1.418,0.434,2.127,1.217,2.127,2.35
				c0,0.703-0.234,1.24-0.703,1.611c-0.469,0.371-1.145,0.557-2.027,0.557H231.985z M233.204,21.181h0.252
				c0.902,0,1.486-0.056,1.752-0.17c0.508-0.215,0.762-0.613,0.762-1.195c0-0.516-0.231-0.944-0.691-1.286
				c-0.461-0.342-1.037-0.513-1.729-0.513h-0.346V21.181z M233.204,17.238h0.393c0.656,0,1.165-0.141,1.526-0.422
				c0.361-0.281,0.542-0.678,0.542-1.189c0-0.851-0.66-1.277-1.98-1.277h-0.48V17.238z M238.888,22.102V13.43h2.883
				c0.859,0,1.554,0.096,2.083,0.287c0.529,0.192,0.987,0.516,1.374,0.973c0.613,0.727,0.92,1.684,0.92,2.871
				c0,1.441-0.381,2.559-1.143,3.352c-0.762,0.793-1.834,1.189-3.217,1.189H238.888z M240.118,21.181h1.576
				c1.125,0,1.922-0.302,2.391-0.908c0.504-0.645,0.756-1.51,0.756-2.596c0-1.02-0.248-1.82-0.744-2.402
				c-0.301-0.356-0.661-0.599-1.078-0.73c-0.418-0.131-1.047-0.196-1.887-0.196h-1.014V21.181z M249.575,22.319
				c-0.582,0-1.326-0.127-2.232-0.381v-1.219c0.976,0.453,1.779,0.679,2.408,0.679c0.484,0,0.874-0.127,1.168-0.38
				c0.295-0.254,0.442-0.588,0.442-1.002c0-0.34-0.097-0.629-0.289-0.867c-0.194-0.238-0.55-0.504-1.07-0.797l-0.597-0.346
				c-0.738-0.422-1.259-0.819-1.562-1.192c-0.303-0.373-0.454-0.807-0.454-1.304c0-0.668,0.242-1.218,0.727-1.649
				c0.484-0.431,1.102-0.647,1.852-0.647c0.667,0,1.373,0.111,2.115,0.334v1.125c-0.914-0.359-1.595-0.539-2.044-0.539
				c-0.426,0-0.778,0.113-1.055,0.34c-0.278,0.227-0.416,0.512-0.416,0.855c0,0.289,0.101,0.545,0.305,0.768
				c0.203,0.223,0.574,0.488,1.113,0.797l0.621,0.352c0.75,0.426,1.274,0.828,1.57,1.207c0.297,0.379,0.445,0.834,0.445,1.365
				c0,0.754-0.278,1.359-0.835,1.816C251.23,22.09,250.493,22.319,249.575,22.319z M254.338,22.102V13.43h1.705l2.402,6.709
				l2.473-6.709h1.523v8.672h-1.148v-7.055l-2.391,6.475h-1.189l-2.32-6.492v7.072H254.338z M272.866,18.785l-1.477-3.738
				l-1.482,3.738H272.866z M274.167,22.102l-0.943-2.402h-3.674l-0.955,2.402h-1.143l3.44-8.672h1.219l3.387,8.672H274.167z
				 M276.786,24.416v-8.678h1.154v1.195c0.472-0.891,1.181-1.336,2.127-1.336c0.765,0,1.367,0.279,1.807,0.838
				s0.659,1.322,0.659,2.291c0,1.055-0.249,1.905-0.747,2.552c-0.498,0.646-1.153,0.969-1.965,0.969
				c-0.754,0-1.381-0.289-1.881-0.867v3.035H276.786z M277.941,20.584c0.593,0.531,1.159,0.797,1.699,0.797
				c1.11,0,1.664-0.846,1.664-2.537c0-1.492-0.492-2.238-1.477-2.238c-0.645,0-1.273,0.35-1.886,1.049V20.584z M284.338,24.416
				v-8.678h1.154v1.195c0.473-0.891,1.182-1.336,2.127-1.336c0.765,0,1.368,0.279,1.808,0.838s0.659,1.322,0.659,2.291
				c0,1.055-0.249,1.905-0.747,2.552c-0.498,0.646-1.153,0.969-1.966,0.969c-0.754,0-1.381-0.289-1.881-0.867v3.035H284.338z
				 M285.493,20.584c0.594,0.531,1.16,0.797,1.699,0.797c1.11,0,1.664-0.846,1.664-2.537c0-1.492-0.492-2.238-1.477-2.238
				c-0.645,0-1.273,0.35-1.887,1.049V20.584z M295.401,19.066v-0.867h5.203v0.867H295.401z M312.909,21.867
				c-1.05,0.301-1.967,0.451-2.748,0.451c-1.378,0-2.436-0.393-3.172-1.178c-0.737-0.785-1.105-1.91-1.105-3.375
				c0-1.437,0.373-2.556,1.119-3.355c0.746-0.799,1.792-1.198,3.14-1.198c0.883,0,1.801,0.131,2.754,0.393v1.137
				c-1.195-0.406-2.111-0.609-2.748-0.609c-0.937,0-1.665,0.318-2.182,0.955c-0.518,0.637-0.776,1.533-0.776,2.69
				c0,1.144,0.277,2.034,0.831,2.669c0.555,0.635,1.332,0.952,2.332,0.952c0.41,0,0.854-0.072,1.33-0.217v-2.824h1.225V21.867z
				 M319.764,21.897c-0.773,0.234-1.436,0.351-1.986,0.351c-0.938,0-1.702-0.311-2.294-0.934c-0.592-0.623-0.888-1.431-0.888-2.423
				c0-0.965,0.261-1.756,0.782-2.373c0.521-0.617,1.189-0.926,2.001-0.926c0.77,0,1.365,0.274,1.784,0.82
				c0.42,0.547,0.63,1.324,0.63,2.332l-0.006,0.357h-4.014c0.168,1.512,0.908,2.267,2.221,2.267c0.48,0,1.07-0.129,1.77-0.386
				V21.897z M315.827,18.234h2.807c0-1.184-0.441-1.775-1.324-1.775C316.423,16.459,315.929,17.051,315.827,18.234z M323.473,22.248
				c-0.527,0-1.168-0.123-1.922-0.369v-1.061c0.754,0.375,1.41,0.562,1.969,0.562c0.332,0,0.607-0.09,0.826-0.27
				c0.219-0.18,0.328-0.404,0.328-0.674c0-0.395-0.307-0.721-0.92-0.979l-0.674-0.287c-0.996-0.414-1.494-1.01-1.494-1.787
				c0-0.555,0.196-0.991,0.589-1.31c0.393-0.318,0.931-0.478,1.614-0.478c0.355,0,0.795,0.049,1.318,0.146l0.24,0.047v0.961
				c-0.645-0.192-1.157-0.287-1.535-0.287c-0.742,0-1.113,0.27-1.113,0.809c0,0.348,0.281,0.641,0.844,0.879l0.557,0.234
				c0.629,0.266,1.074,0.546,1.336,0.841c0.261,0.295,0.393,0.663,0.393,1.105c0,0.559-0.22,1.017-0.662,1.377
				C324.725,22.068,324.161,22.248,323.473,22.248z M329.813,22.248c-0.586,0-1.043-0.168-1.371-0.504
				c-0.328-0.336-0.492-0.802-0.492-1.4v-3.738h-0.797v-0.867h0.797v-1.154l1.154-0.111v1.266h1.664v0.867h-1.664v3.527
				c0,0.832,0.359,1.248,1.078,1.248c0.152,0,0.338-0.026,0.557-0.076v0.797C330.383,22.199,330.075,22.248,329.813,22.248z
				 M332.392,22.102v-6.363h1.154v6.363H332.392z M332.392,14.584V13.43h1.154v1.154H332.392z M338.351,22.248
				c-0.91,0-1.637-0.302-2.18-0.905c-0.543-0.604-0.814-1.411-0.814-2.423c0-1.024,0.272-1.833,0.817-2.429
				c0.545-0.596,1.284-0.894,2.218-0.894c0.933,0,1.672,0.298,2.217,0.894c0.545,0.596,0.817,1.402,0.817,2.417
				c0,1.039-0.273,1.855-0.82,2.449C340.06,21.951,339.307,22.248,338.351,22.248z M338.368,21.381c1.222,0,1.833-0.824,1.833-2.473
				c0-1.629-0.604-2.443-1.81-2.443c-1.203,0-1.805,0.819-1.805,2.455C336.587,20.561,337.18,21.381,338.368,21.381z
				 M343.231,22.102v-6.363h1.154v1.195c0.609-0.891,1.356-1.336,2.238-1.336c0.551,0,0.99,0.175,1.318,0.524
				c0.328,0.35,0.492,0.819,0.492,1.409v4.57h-1.154v-4.195c0-0.473-0.069-0.81-0.208-1.011c-0.138-0.201-0.368-0.302-0.689-0.302
				c-0.707,0-1.373,0.463-1.998,1.389v4.119H343.231z M355.343,21.897c-0.773,0.234-1.436,0.351-1.986,0.351
				c-0.938,0-1.702-0.311-2.294-0.934c-0.592-0.623-0.888-1.431-0.888-2.423c0-0.965,0.261-1.756,0.782-2.373
				c0.522-0.617,1.189-0.926,2.001-0.926c0.77,0,1.365,0.274,1.784,0.82s0.63,1.324,0.63,2.332l-0.006,0.357h-4.014
				c0.168,1.512,0.908,2.267,2.221,2.267c0.48,0,1.07-0.129,1.77-0.386V21.897z M351.405,18.234h2.807
				c0-1.184-0.442-1.775-1.324-1.775C352.001,16.459,351.507,17.051,351.405,18.234z M365.245,22.102v-1.196
				c-0.469,0.895-1.176,1.342-2.121,1.342c-0.766,0-1.368-0.279-1.808-0.838c-0.439-0.559-0.659-1.322-0.659-2.291
				c0-1.059,0.249-1.91,0.747-2.555c0.498-0.645,1.153-0.967,1.966-0.967c0.754,0,1.378,0.289,1.875,0.867V12.85h1.16v9.252H365.245
				z M365.245,17.256c-0.598-0.527-1.165-0.791-1.699-0.791c-1.106,0-1.658,0.846-1.658,2.537c0,1.488,0.492,2.232,1.477,2.232
				c0.64,0,1.267-0.35,1.881-1.049V17.256z M373.378,21.897c-0.773,0.234-1.436,0.351-1.986,0.351c-0.938,0-1.702-0.311-2.294-0.934
				c-0.592-0.623-0.888-1.431-0.888-2.423c0-0.965,0.261-1.756,0.782-2.373c0.521-0.617,1.189-0.926,2.001-0.926
				c0.77,0,1.365,0.274,1.784,0.82c0.42,0.547,0.63,1.324,0.63,2.332l-0.006,0.357h-4.014c0.168,1.512,0.908,2.267,2.221,2.267
				c0.48,0,1.071-0.129,1.77-0.386V21.897z M369.44,18.234h2.807c0-1.184-0.441-1.775-1.324-1.775
				C370.036,16.459,369.542,17.051,369.44,18.234z M375.399,22.102v-6.363h1.154v6.363H375.399z M375.399,14.584V13.43h1.154v1.154
				H375.399z M382.665,24.416v-8.678h1.154v1.195c0.472-0.891,1.181-1.336,2.127-1.336c0.765,0,1.368,0.279,1.808,0.838
				s0.659,1.322,0.659,2.291c0,1.055-0.249,1.905-0.747,2.552c-0.498,0.646-1.154,0.969-1.966,0.969
				c-0.754,0-1.381-0.289-1.881-0.867v3.035H382.665z M383.819,20.584c0.594,0.531,1.16,0.797,1.699,0.797
				c1.109,0,1.664-0.846,1.664-2.537c0-1.492-0.492-2.238-1.477-2.238c-0.645,0-1.274,0.35-1.887,1.049V20.584z M390.218,22.102
				v-6.363h1.154v1.195c0.457-0.891,1.121-1.336,1.992-1.336c0.117,0,0.24,0.01,0.369,0.029v1.078c-0.199-0.066-0.375-0.1-0.527-0.1
				c-0.731,0-1.342,0.434-1.834,1.301v4.195H390.218z M399.792,21.897c-0.773,0.234-1.436,0.351-1.986,0.351
				c-0.938,0-1.702-0.311-2.294-0.934c-0.592-0.623-0.888-1.431-0.888-2.423c0-0.965,0.261-1.756,0.782-2.373
				c0.521-0.617,1.188-0.926,2-0.926c0.77,0,1.365,0.274,1.784,0.82c0.42,0.547,0.63,1.324,0.63,2.332l-0.006,0.357h-4.013
				c0.168,1.512,0.908,2.267,2.22,2.267c0.48,0,1.071-0.129,1.77-0.386V21.897z M395.855,18.234h2.806
				c0-1.184-0.441-1.775-1.324-1.775C396.45,16.459,395.956,17.051,395.855,18.234z M403.19,16.605v5.496h-1.16v-5.496h-0.902
				v-0.867h0.902v-0.762c0-1.516,0.691-2.273,2.074-2.273c0.387,0,0.826,0.064,1.318,0.193v0.914c-0.519-0.16-0.935-0.24-1.248-0.24
				c-0.379,0-0.638,0.091-0.776,0.272s-0.208,0.519-0.208,1.011v0.885h1.588v0.867H403.19z M410.889,21.897
				c-0.773,0.234-1.436,0.351-1.986,0.351c-0.938,0-1.702-0.311-2.294-0.934c-0.592-0.623-0.888-1.431-0.888-2.423
				c0-0.965,0.261-1.756,0.782-2.373c0.522-0.617,1.189-0.926,2.001-0.926c0.77,0,1.365,0.274,1.784,0.82
				c0.42,0.547,0.63,1.324,0.63,2.332l-0.006,0.357h-4.014c0.168,1.512,0.908,2.267,2.221,2.267c0.48,0,1.07-0.129,1.77-0.386
				V21.897z M406.952,18.234h2.807c0-1.184-0.442-1.775-1.324-1.775C407.547,16.459,407.054,17.051,406.952,18.234z M412.911,22.102
				v-6.363h1.154v1.195c0.457-0.891,1.121-1.336,1.992-1.336c0.117,0,0.24,0.01,0.369,0.029v1.078c-0.199-0.066-0.375-0.1-0.527-0.1
				c-0.73,0-1.342,0.434-1.834,1.301v4.195H412.911z M417.821,22.102v-6.363h1.154v6.363H417.821z M417.821,14.584V13.43h1.154
				v1.154H417.821z M423.2,22.248c-0.586,0-1.043-0.168-1.371-0.504c-0.328-0.336-0.492-0.802-0.492-1.4v-3.738h-0.797v-0.867h0.797
				v-1.154l1.154-0.111v1.266h1.664v0.867h-1.664v3.527c0,0.832,0.359,1.248,1.077,1.248c0.152,0,0.338-0.026,0.557-0.076v0.797
				C423.77,22.199,423.462,22.248,423.2,22.248z M425.778,22.102v-6.363h1.154v6.363H425.778z M425.778,14.584V13.43h1.154v1.154
				H425.778z"/>
		</g>
	</g>
	<g transform="matrix(1.3333,0,0,1.3333,44,64.8438) translate(5,5)">
		<g>
			<defs>
				<rect id="SVGID_62_" x="-173.736" y="-127.75" width="1085.973" height="592.985"/>
			</defs>
			<clipPath id="SVGID_63_">
				<use xlink:href="#SVGID_62_"  overflow="visible"/>
			</clipPath>
			
				<line clip-path="url(#SVGID_63_)" fill="none" stroke="#C0C0C0" stroke-linecap="square" stroke-miterlimit="10" stroke-opacity="0.502" x1="130" y1="182" x2="131" y2="182"/>
		</g>
	</g>
	<g transform="matrix(1.3333,0,0,1.3333,44,64.8438)">
		<g>
			<defs>
				<rect id="SVGID_64_" x="-168.736" y="-122.75" width="1085.973" height="592.985"/>
			</defs>
			<clipPath id="SVGID_65_">
				<use xlink:href="#SVGID_64_"  overflow="visible"/>
			</clipPath>
			
				<line clip-path="url(#SVGID_65_)" fill="none" stroke="#000000" stroke-linecap="square" stroke-miterlimit="10" x1="130" y1="182" x2="131" y2="182"/>
		</g>
	</g>
	<g transform="matrix(1.3333,0,0,1.3333,44,64.8438) translate(5,5)">
		<g>
			<defs>
				<rect id="SVGID_66_" x="-173.736" y="-127.75" width="1085.973" height="592.985"/>
			</defs>
			<clipPath id="SVGID_67_">
				<use xlink:href="#SVGID_66_"  overflow="visible"/>
			</clipPath>
			<circle clip-path="url(#SVGID_67_)" fill="#C0C0C0" fill-opacity="0.502" cx="111" cy="167" r="9"/>
		</g>
		<g>
			<defs>
				<rect id="SVGID_68_" x="-173.736" y="-127.75" width="1085.973" height="592.985"/>
			</defs>
			<clipPath id="SVGID_69_">
				<use xlink:href="#SVGID_68_"  overflow="visible"/>
			</clipPath>
			
				<circle clip-path="url(#SVGID_69_)" fill="none" stroke="#C0C0C0" stroke-width="2" stroke-linecap="square" stroke-miterlimit="10" stroke-opacity="0.502" cx="111" cy="167" r="9"/>
		</g>
	</g>
	<g transform="matrix(1.3333,0,0,1.3333,44,64.8438)">
		<g>
			<defs>
				<rect id="SVGID_70_" x="-168.736" y="-122.75" width="1085.973" height="592.985"/>
			</defs>
			<clipPath id="SVGID_71_">
				<use xlink:href="#SVGID_70_"  overflow="visible"/>
			</clipPath>
			
				<linearGradient id="SVGID_72_" gradientUnits="userSpaceOnUse" x1="83.2481" y1="282.872" x2="101.2475" y2="264.8726" gradientTransform="matrix(1.3333 0 0 -1.3333 -8.9954 535.1531)">
				<stop  offset="0" style="stop-color:#FFFFFF"/>
				<stop  offset="1" style="stop-color:#FFFFCC"/>
			</linearGradient>
			<circle clip-path="url(#SVGID_71_)" fill="url(#SVGID_72_)" cx="111" cy="167" r="9"/>
		</g>
		<g>
			<defs>
				<rect id="SVGID_73_" x="-168.736" y="-122.75" width="1085.973" height="592.985"/>
			</defs>
			<clipPath id="SVGID_74_">
				<use xlink:href="#SVGID_73_"  overflow="visible"/>
			</clipPath>
			
				<circle clip-path="url(#SVGID_74_)" fill="none" stroke="#000000" stroke-width="2" stroke-linecap="square" stroke-miterlimit="10" cx="111" cy="167" r="9"/>
		</g>
	</g>
	<g transform="matrix(1.3333,0,0,1.3333,44,64.8438) translate(5,5)">
		<g>
			<defs>
				<rect id="SVGID_75_" x="-173.736" y="-127.75" width="1085.973" height="592.985"/>
			</defs>
			<clipPath id="SVGID_76_">
				<use xlink:href="#SVGID_75_"  overflow="visible"/>
			</clipPath>
			
				<line clip-path="url(#SVGID_76_)" fill="none" stroke="#C0C0C0" stroke-width="2" stroke-linecap="square" stroke-miterlimit="10" stroke-opacity="0.502" x1="111.5" y1="176" x2="111.5" y2="194"/>
		</g>
	</g>
	<g transform="matrix(1.3333,0,0,1.3333,44,64.8438)">
		<g>
			<defs>
				<rect id="SVGID_77_" x="-168.736" y="-122.75" width="1085.973" height="592.985"/>
			</defs>
			<clipPath id="SVGID_78_">
				<use xlink:href="#SVGID_77_"  overflow="visible"/>
			</clipPath>
			
				<line clip-path="url(#SVGID_78_)" fill="none" stroke="#000000" stroke-width="2" stroke-linecap="square" stroke-miterlimit="10" x1="111.5" y1="176" x2="111.5" y2="194"/>
		</g>
	</g>
	<g transform="matrix(1.3333,0,0,1.3333,44,64.8438) translate(5,5)">
		<g>
			<defs>
				<rect id="SVGID_79_" x="-173.736" y="-127.75" width="1085.973" height="592.985"/>
			</defs>
			<clipPath id="SVGID_80_">
				<use xlink:href="#SVGID_79_"  overflow="visible"/>
			</clipPath>
			
				<line clip-path="url(#SVGID_80_)" fill="none" stroke="#C0C0C0" stroke-width="2" stroke-linecap="square" stroke-miterlimit="10" stroke-opacity="0.502" x1="97.5" y1="182.75" x2="125.5" y2="182.75"/>
		</g>
	</g>
	<g transform="matrix(1.3333,0,0,1.3333,44,64.8438)">
		<g>
			<defs>
				<rect id="SVGID_81_" x="-168.736" y="-122.75" width="1085.973" height="592.985"/>
			</defs>
			<clipPath id="SVGID_82_">
				<use xlink:href="#SVGID_81_"  overflow="visible"/>
			</clipPath>
			
				<line clip-path="url(#SVGID_82_)" fill="none" stroke="#000000" stroke-width="2" stroke-linecap="square" stroke-miterlimit="10" x1="97.5" y1="182.75" x2="125.5" y2="182.75"/>
		</g>
	</g>
	<g transform="matrix(1.3333,0,0,1.3333,44,64.8438) translate(5,5)">
		<g>
			<defs>
				<rect id="SVGID_83_" x="-173.736" y="-127.75" width="1085.973" height="592.985"/>
			</defs>
			<clipPath id="SVGID_84_">
				<use xlink:href="#SVGID_83_"  overflow="visible"/>
			</clipPath>
			
				<line clip-path="url(#SVGID_84_)" fill="none" stroke="#C0C0C0" stroke-width="2" stroke-linecap="square" stroke-miterlimit="10" stroke-opacity="0.502" x1="111.5" y1="194" x2="97.5" y2="213.001"/>
		</g>
	</g>
	<g transform="matrix(1.3333,0,0,1.3333,44,64.8438)">
		<g>
			<defs>
				<rect id="SVGID_85_" x="-168.736" y="-122.75" width="1085.973" height="592.985"/>
			</defs>
			<clipPath id="SVGID_86_">
				<use xlink:href="#SVGID_85_"  overflow="visible"/>
			</clipPath>
			
				<line clip-path="url(#SVGID_86_)" fill="none" stroke="#000000" stroke-width="2" stroke-linecap="square" stroke-miterlimit="10" x1="111.5" y1="194" x2="97.5" y2="213"/>
		</g>
	</g>
	<g transform="matrix(1.3333,0,0,1.3333,44,64.8438) translate(5,5)">
		<g>
			<defs>
				<rect id="SVGID_87_" x="-173.736" y="-127.75" width="1085.973" height="592.985"/>
			</defs>
			<clipPath id="SVGID_88_">
				<use xlink:href="#SVGID_87_"  overflow="visible"/>
			</clipPath>
			
				<line clip-path="url(#SVGID_88_)" fill="none" stroke="#C0C0C0" stroke-width="2" stroke-linecap="square" stroke-miterlimit="10" stroke-opacity="0.502" x1="111.5" y1="194" x2="125.5" y2="213.001"/>
		</g>
	</g>
	<g transform="matrix(1.3333,0,0,1.3333,44,64.8438)">
		<g>
			<defs>
				<rect id="SVGID_89_" x="-168.736" y="-122.75" width="1085.973" height="592.985"/>
			</defs>
			<clipPath id="SVGID_90_">
				<use xlink:href="#SVGID_89_"  overflow="visible"/>
			</clipPath>
			
				<line clip-path="url(#SVGID_90_)" fill="none" stroke="#000000" stroke-width="2" stroke-linecap="square" stroke-miterlimit="10" x1="111.5" y1="194" x2="125.5" y2="213"/>
		</g>
	</g>
	<g transform="matrix(1.3333,0,0,1.3333,44,64.8438) translate(54,225)">
		<g>
			<defs>
				<rect id="SVGID_91_" x="-222.736" y="-347.75" width="1085.973" height="592.985"/>
			</defs>
			<clipPath id="SVGID_92_">
				<use xlink:href="#SVGID_91_"  overflow="visible"/>
			</clipPath>
			<path clip-path="url(#SVGID_92_)" d="M1.014-8.672h1.805v5.315c0,0.84,0.139,1.447,0.416,1.819
				c0.277,0.374,0.725,0.56,1.342,0.56c0.59,0,1.017-0.177,1.28-0.533C6.12-1.867,6.252-2.439,6.252-3.229v-5.443h1.57v5.326
				c0,0.801-0.076,1.411-0.229,1.831c-0.152,0.42-0.43,0.784-0.832,1.093C6.211,0.004,5.471,0.217,4.541,0.217
				c-0.996,0-1.797-0.226-2.402-0.68c-0.418-0.312-0.71-0.683-0.876-1.11c-0.166-0.428-0.249-1.024-0.249-1.79V-8.672z
				 M13.236-0.035c-0.414,0.122-0.74,0.182-0.979,0.182c-1.504,0-2.256-0.703-2.256-2.109V-5.35H9.281v-1.084h0.721v-1.084
				l1.734-0.199v1.283h1.377v1.084h-1.377v3.158c0,0.79,0.322,1.184,0.967,1.184c0.149,0,0.326-0.027,0.533-0.082V-0.035z
				 M20.022-0.217c-0.824,0.242-1.606,0.363-2.344,0.363c-1.074,0-1.922-0.305-2.543-0.914s-0.932-1.441-0.932-2.496
				c0-0.996,0.284-1.797,0.853-2.405c0.568-0.607,1.319-0.911,2.253-0.911c0.942,0,1.629,0.297,2.063,0.891
				c0.434,0.594,0.65,1.534,0.65,2.818h-3.99c0.117,1.227,0.791,1.84,2.022,1.84c0.582,0,1.238-0.135,1.969-0.404V-0.217z
				 M16.008-3.85h2.309c0-1.097-0.353-1.647-1.061-1.647C16.537-5.497,16.121-4.947,16.008-3.85z M21.815,0v-6.434h1.734v1.213
				c0.566-0.906,1.297-1.359,2.191-1.359c0.575,0,1.028,0.182,1.359,0.545c0.332,0.363,0.498,0.86,0.498,1.488V0h-1.734V-4.12
				c0-0.73-0.242-1.096-0.727-1.096c-0.551,0-1.08,0.389-1.588,1.166V0H21.815z M33.012-0.035c-0.414,0.122-0.74,0.182-0.979,0.182
				c-1.504,0-2.256-0.703-2.256-2.109V-5.35h-0.721v-1.084h0.721v-1.084l1.734-0.199v1.283h1.377v1.084h-1.377v3.158
				c0,0.79,0.322,1.184,0.967,1.184c0.148,0,0.326-0.027,0.533-0.082V-0.035z M39.797-0.217c-0.824,0.242-1.606,0.363-2.344,0.363
				c-1.074,0-1.922-0.305-2.543-0.914s-0.932-1.441-0.932-2.496c0-0.996,0.284-1.797,0.853-2.405
				c0.568-0.607,1.319-0.911,2.253-0.911c0.941,0,1.629,0.297,2.063,0.891c0.434,0.594,0.65,1.534,0.65,2.818h-3.99
				c0.117,1.227,0.791,1.84,2.022,1.84c0.582,0,1.238-0.135,1.969-0.404V-0.217z M35.783-3.85h2.309
				c0-1.097-0.354-1.647-1.061-1.647C36.312-5.497,35.896-4.947,35.783-3.85z M48.697-0.692C48.119-0.133,47.5,0.146,46.84,0.146
				c-0.563,0-1.02-0.171-1.371-0.516c-0.352-0.344-0.527-0.789-0.527-1.336c0-0.71,0.284-1.258,0.853-1.644
				c0.568-0.385,1.382-0.577,2.44-0.577h0.463v-0.586c0-0.668-0.381-1.002-1.143-1.002c-0.676,0-1.359,0.192-2.051,0.574v-1.195
				c0.785-0.297,1.563-0.445,2.332-0.445c1.684,0,2.525,0.67,2.525,2.01v2.848c0,0.504,0.162,0.756,0.486,0.756
				c0.059,0,0.135-0.007,0.229-0.023l0.041,0.973c-0.367,0.11-0.691,0.164-0.973,0.164c-0.711,0-1.168-0.279-1.371-0.838H48.697z
				 M48.697-1.623V-2.93h-0.41c-1.121,0-1.682,0.352-1.682,1.055c0,0.239,0.081,0.439,0.243,0.601
				c0.162,0.163,0.362,0.243,0.601,0.243C47.855-1.032,48.271-1.229,48.697-1.623z M56.578,0v-1.213
				c-0.563,0.907-1.293,1.359-2.191,1.359c-0.574,0-1.028-0.182-1.359-0.545c-0.332-0.363-0.498-0.859-0.498-1.488v-4.547h1.734
				v4.119c0,0.731,0.244,1.096,0.732,1.096c0.547,0,1.074-0.388,1.582-1.166v-4.049h1.734V0H56.578z M63.797-0.035
				c-0.414,0.122-0.74,0.182-0.979,0.182c-1.504,0-2.256-0.703-2.256-2.109V-5.35h-0.721v-1.084h0.721v-1.084l1.734-0.199v1.283
				h1.377v1.084h-1.377v3.158c0,0.79,0.322,1.184,0.967,1.184c0.148,0,0.326-0.027,0.533-0.082V-0.035z M70.582-0.217
				c-0.824,0.242-1.605,0.363-2.343,0.363c-1.074,0-1.922-0.305-2.543-0.914s-0.932-1.441-0.932-2.496
				c0-0.996,0.284-1.797,0.853-2.405c0.568-0.607,1.319-0.911,2.253-0.911c0.941,0,1.629,0.297,2.062,0.891
				c0.434,0.594,0.65,1.534,0.65,2.818h-3.99c0.117,1.227,0.791,1.84,2.022,1.84c0.582,0,1.238-0.135,1.968-0.404V-0.217z
				 M66.568-3.85h2.309c0-1.097-0.354-1.647-1.061-1.647C67.098-5.497,66.682-4.947,66.568-3.85z M72.375,0v-6.434h1.734v1.213
				c0.567-0.906,1.297-1.359,2.191-1.359c0.574,0,1.027,0.182,1.359,0.545c0.332,0.363,0.498,0.86,0.498,1.488V0h-1.734V-4.12
				c0-0.73-0.242-1.096-0.727-1.096c-0.551,0-1.08,0.389-1.588,1.166V0H72.375z M83.572-0.035c-0.414,0.122-0.74,0.182-0.979,0.182
				c-1.504,0-2.256-0.703-2.256-2.109V-5.35h-0.721v-1.084h0.721v-1.084l1.734-0.199v1.283h1.377v1.084h-1.377v3.158
				c0,0.79,0.322,1.184,0.967,1.184c0.148,0,0.326-0.027,0.533-0.082V-0.035z M85.119,0v-6.434h1.734V0H85.119z M85.119-7.518
				v-1.447h1.734v1.447H85.119z M93.768-0.141c-0.719,0.192-1.385,0.287-1.998,0.287c-1.027,0-1.839-0.302-2.435-0.905
				c-0.595-0.604-0.894-1.425-0.894-2.464c0-1.05,0.307-1.873,0.92-2.467c0.613-0.593,1.461-0.891,2.543-0.891
				c0.523,0,1.127,0.084,1.811,0.252v1.254c-0.711-0.23-1.279-0.346-1.705-0.346c-0.519,0-0.938,0.199-1.254,0.598
				c-0.316,0.398-0.475,0.928-0.475,1.588c0,0.676,0.171,1.217,0.513,1.623c0.342,0.406,0.798,0.609,1.368,0.609
				c0.52,0,1.055-0.113,1.606-0.34V-0.141z M98.56-0.692c-0.578,0.559-1.197,0.838-1.857,0.838c-0.563,0-1.02-0.171-1.371-0.516
				c-0.352-0.344-0.527-0.789-0.527-1.336c0-0.71,0.284-1.258,0.853-1.644c0.568-0.385,1.382-0.577,2.44-0.577h0.463v-0.586
				c0-0.668-0.381-1.002-1.142-1.002c-0.676,0-1.359,0.192-2.051,0.574v-1.195c0.785-0.297,1.562-0.445,2.332-0.445
				c1.684,0,2.525,0.67,2.525,2.01v2.848c0,0.504,0.162,0.756,0.486,0.756c0.059,0,0.135-0.007,0.229-0.023l0.041,0.973
				c-0.367,0.11-0.691,0.164-0.973,0.164c-0.711,0-1.168-0.279-1.371-0.838H98.56z M98.56-1.623V-2.93h-0.41
				c-1.121,0-1.682,0.352-1.682,1.055c0,0.239,0.081,0.439,0.243,0.601c0.162,0.163,0.362,0.243,0.601,0.243
				C97.719-1.032,98.135-1.229,98.56-1.623z M105.779-0.035c-0.414,0.122-0.74,0.182-0.979,0.182c-1.504,0-2.256-0.703-2.256-2.109
				V-5.35h-0.721v-1.084h0.721v-1.084l1.734-0.199v1.283h1.377v1.084h-1.377v3.158c0,0.79,0.322,1.184,0.967,1.184
				c0.149,0,0.326-0.027,0.533-0.082V-0.035z M110.027,0.146c-1.004,0-1.802-0.303-2.394-0.911
				c-0.592-0.607-0.888-1.425-0.888-2.452c0-1.039,0.298-1.859,0.894-2.461c0.596-0.601,1.405-0.902,2.429-0.902
				c1.027,0,1.839,0.301,2.435,0.902c0.595,0.602,0.894,1.418,0.894,2.449c0,1.055-0.299,1.881-0.897,2.479
				S111.078,0.146,110.027,0.146z M110.057-0.938c0.996,0,1.494-0.763,1.494-2.291c0-0.699-0.132-1.252-0.396-1.658
				c-0.264-0.406-0.626-0.609-1.087-0.609c-0.457,0-0.817,0.204-1.081,0.609c-0.264,0.407-0.396,0.963-0.396,1.67
				c0,0.699,0.131,1.254,0.393,1.664C109.246-1.143,109.604-0.938,110.057-0.938z"/>
		</g>
	</g>
	<g transform="matrix(1.3333,0,0,1.3333,44,64.8438) translate(5,5)">
		<g>
			<defs>
				<rect id="SVGID_93_" x="-173.736" y="-127.75" width="1085.973" height="592.985"/>
			</defs>
			<clipPath id="SVGID_94_">
				<use xlink:href="#SVGID_93_"  overflow="visible"/>
			</clipPath>
			
				<line clip-path="url(#SVGID_94_)" fill="none" stroke="#C0C0C0" stroke-linecap="square" stroke-miterlimit="10" stroke-opacity="0.502" x1="131.5" y1="184.712" x2="293.626" y2="121.047"/>
		</g>
	</g>
	<g transform="matrix(1.3333,0,0,1.3333,44,64.8438)">
		<g>
			<defs>
				<rect id="SVGID_95_" x="-168.736" y="-122.75" width="1085.973" height="592.985"/>
			</defs>
			<clipPath id="SVGID_96_">
				<use xlink:href="#SVGID_95_"  overflow="visible"/>
			</clipPath>
			
				<line clip-path="url(#SVGID_96_)" fill="none" stroke="#000000" stroke-linecap="square" stroke-miterlimit="10" x1="131.5" y1="184.713" x2="293.626" y2="121.047"/>
		</g>
	</g>
	<g transform="matrix(1.3333,0,0,1.3333,44,64.8438) translate(5,5)">
		<g>
			<defs>
				<rect id="SVGID_97_" x="-173.736" y="-127.75" width="1085.973" height="592.985"/>
			</defs>
			<clipPath id="SVGID_98_">
				<use xlink:href="#SVGID_97_"  overflow="visible"/>
			</clipPath>
			
				<line clip-path="url(#SVGID_98_)" fill="none" stroke="#C0C0C0" stroke-linecap="square" stroke-miterlimit="10" stroke-opacity="0.502" x1="131.5" y1="192.56" x2="284.65" y2="192.511"/>
		</g>
	</g>
	<g transform="matrix(1.3333,0,0,1.3333,44,64.8438)">
		<g>
			<defs>
				<rect id="SVGID_99_" x="-168.736" y="-122.75" width="1085.973" height="592.985"/>
			</defs>
			<clipPath id="SVGID_100_">
				<use xlink:href="#SVGID_99_"  overflow="visible"/>
			</clipPath>
			
				<line clip-path="url(#SVGID_100_)" fill="none" stroke="#000000" stroke-linecap="square" stroke-miterlimit="10" x1="131.5" y1="192.56" x2="284.65" y2="192.512"/>
		</g>
	</g>
	<g transform="matrix(1.3333,0,0,1.3333,44,64.8438) translate(5,5)">
		<g>
			<defs>
				<rect id="SVGID_101_" x="-173.736" y="-127.75" width="1085.973" height="592.985"/>
			</defs>
			<clipPath id="SVGID_102_">
				<use xlink:href="#SVGID_101_"  overflow="visible"/>
			</clipPath>
			
				<line clip-path="url(#SVGID_102_)" fill="none" stroke="#C0C0C0" stroke-linecap="square" stroke-miterlimit="10" stroke-opacity="0.502" x1="131.5" y1="200.346" x2="292.788" y2="263.086"/>
		</g>
	</g>
	<g transform="matrix(1.3333,0,0,1.3333,44,64.8438)">
		<g>
			<defs>
				<rect id="SVGID_103_" x="-168.736" y="-122.75" width="1085.973" height="592.985"/>
			</defs>
			<clipPath id="SVGID_104_">
				<use xlink:href="#SVGID_103_"  overflow="visible"/>
			</clipPath>
			
				<line clip-path="url(#SVGID_104_)" fill="none" stroke="#000000" stroke-linecap="square" stroke-miterlimit="10" x1="131.5" y1="200.346" x2="292.789" y2="263.087"/>
		</g>
	</g>
	<g transform="matrix(1.3333,0,0,1.3333,44,64.8438) translate(5,5)">
		<g>
			<defs>
				<rect id="SVGID_105_" x="-173.736" y="-127.75" width="1085.973" height="592.985"/>
			</defs>
			<clipPath id="SVGID_106_">
				<use xlink:href="#SVGID_105_"  overflow="visible"/>
			</clipPath>
			<ellipse clip-path="url(#SVGID_106_)" fill="#C0C0C0" fill-opacity="0.502" cx="637" cy="86.934" rx="97" ry="34.566"/>
		</g>
		<g>
			<defs>
				<rect id="SVGID_107_" x="-173.736" y="-127.75" width="1085.973" height="592.985"/>
			</defs>
			<clipPath id="SVGID_108_">
				<use xlink:href="#SVGID_107_"  overflow="visible"/>
			</clipPath>
			
				<ellipse clip-path="url(#SVGID_108_)" fill="none" stroke="#C0C0C0" stroke-width="2" stroke-linecap="square" stroke-miterlimit="10" stroke-opacity="0.502" cx="637" cy="86.934" rx="97" ry="34.566"/>
		</g>
	</g>
	<g transform="matrix(1.3333,0,0,1.3333,44,64.8438)">
		<g>
			<defs>
				<rect id="SVGID_109_" x="-168.736" y="-122.75" width="1085.973" height="592.985"/>
			</defs>
			<clipPath id="SVGID_110_">
				<use xlink:href="#SVGID_109_"  overflow="visible"/>
			</clipPath>
			
				<linearGradient id="SVGID_111_" gradientUnits="userSpaceOnUse" x1="411.7728" y1="362.4187" x2="605.7738" y2="292.4183" gradientTransform="matrix(1.3333 0 0 -1.3333 -8.9954 535.1531)">
				<stop  offset="0" style="stop-color:#FFFFFF"/>
				<stop  offset="1" style="stop-color:#FFFFCC"/>
			</linearGradient>
			<ellipse clip-path="url(#SVGID_110_)" fill="url(#SVGID_111_)" cx="637" cy="86.934" rx="97" ry="34.566"/>
		</g>
		<g>
			<defs>
				<rect id="SVGID_112_" x="-168.736" y="-122.75" width="1085.973" height="592.985"/>
			</defs>
			<clipPath id="SVGID_113_">
				<use xlink:href="#SVGID_112_"  overflow="visible"/>
			</clipPath>
			
				<ellipse clip-path="url(#SVGID_113_)" fill="none" stroke="#000000" stroke-width="2" stroke-linecap="square" stroke-miterlimit="10" cx="637" cy="86.934" rx="97" ry="34.566"/>
		</g>
		<g>
			<defs>
				<rect id="SVGID_114_" x="-168.736" y="-122.75" width="1085.973" height="592.985"/>
			</defs>
			<clipPath id="SVGID_115_">
				<use xlink:href="#SVGID_114_"  overflow="visible"/>
			</clipPath>
			<path clip-path="url(#SVGID_115_)" d="M569.424,75.731h1.805v5.314c0,0.84,0.139,1.446,0.416,1.819
				c0.278,0.373,0.725,0.56,1.342,0.56c0.59,0,1.017-0.178,1.28-0.533c0.264-0.356,0.396-0.928,0.396-1.717v-5.443h1.57v5.326
				c0,0.801-0.076,1.411-0.229,1.831c-0.152,0.42-0.429,0.784-0.832,1.093c-0.551,0.426-1.291,0.639-2.221,0.639
				c-0.996,0-1.797-0.227-2.402-0.68c-0.417-0.312-0.71-0.683-0.876-1.11c-0.166-0.428-0.249-1.024-0.249-1.79V75.731z
				 M585.309,84.057c-0.84,0.375-1.842,0.563-3.006,0.563c-1.422,0-2.529-0.4-3.322-1.201c-0.792-0.801-1.189-1.918-1.189-3.352
				c0-1.461,0.4-2.585,1.198-3.372c0.799-0.787,1.939-1.181,3.419-1.181c0.946,0,1.885,0.111,2.818,0.334v1.412
				c-1.058-0.371-1.945-0.557-2.66-0.557c-0.914,0-1.62,0.29-2.115,0.87c-0.496,0.58-0.744,1.403-0.744,2.469
				c0,1.047,0.267,1.863,0.8,2.449c0.533,0.586,1.274,0.879,2.224,0.879c0.852,0,1.711-0.215,2.578-0.645V84.057z M587.483,84.402
				v-1.014h1.734V76.99l-1.734,0.433v-1.043l3.475-0.867v7.875h1.734v1.014H587.483z M594.257,84.402v-1.881h1.881v1.881H594.257z
				 M598.363,84.402v-1.014h1.734V76.99l-1.734,0.433v-1.043l3.475-0.867v7.875h1.734v1.014H598.363z M606.28,84.402v-1.014h1.734
				V76.99l-1.734,0.433v-1.043l3.475-0.867v7.875h1.734v1.014H606.28z M613.053,84.402v-1.881h1.881v1.881H613.053z M620.085,84.402
				v-2.315h-4.049v-1.301l3.979-5.056h1.588v5.056h1.014v1.301h-1.014v2.315H620.085z M617.424,80.787h2.695v-3.398L617.424,80.787z
				 M628.428,84.402v-8.672h5.42v1.189h-3.615v2.42h2.965v1.16h-2.965v2.672h3.891v1.23H628.428z M635.635,84.402v-9.252h1.734
				v9.252H635.635z M644.776,84.186c-0.824,0.242-1.606,0.363-2.344,0.363c-1.074,0-1.922-0.305-2.543-0.914
				c-0.621-0.609-0.932-1.441-0.932-2.496c0-0.996,0.284-1.798,0.853-2.405c0.568-0.607,1.319-0.911,2.253-0.911
				c0.941,0,1.629,0.297,2.062,0.891c0.434,0.594,0.65,1.533,0.65,2.818h-3.99c0.117,1.226,0.791,1.84,2.021,1.84
				c0.582,0,1.239-0.135,1.969-0.404V84.186z M640.762,80.553h2.309c0-1.098-0.354-1.647-1.061-1.647
				C641.292,78.906,640.876,79.455,640.762,80.553z M646.569,84.402v-6.433h1.734v1.213c0.566-0.906,1.296-1.359,2.192-1.359
				c0.574,0,1.027,0.182,1.359,0.545c0.332,0.363,0.498,0.859,0.498,1.488v4.547h-1.734v-4.119c0-0.73-0.242-1.096-0.727-1.096
				c-0.551,0-1.08,0.389-1.588,1.166v4.049H646.569z M659.195,84.262c-0.719,0.192-1.384,0.287-1.998,0.287
				c-1.027,0-1.838-0.302-2.434-0.905c-0.596-0.604-0.894-1.425-0.894-2.464c0-1.051,0.306-1.873,0.92-2.466
				c0.613-0.594,1.461-0.891,2.543-0.891c0.523,0,1.127,0.084,1.81,0.252v1.254c-0.71-0.23-1.279-0.346-1.705-0.346
				c-0.519,0-0.938,0.199-1.254,0.598c-0.316,0.399-0.474,0.928-0.474,1.588c0,0.676,0.171,1.217,0.513,1.623
				c0.341,0.406,0.798,0.609,1.368,0.609c0.519,0,1.054-0.113,1.605-0.34V84.262z M663.537,84.549c-1.003,0-1.802-0.304-2.394-0.911
				c-0.592-0.608-0.888-1.425-0.888-2.452c0-1.039,0.298-1.859,0.894-2.461c0.596-0.601,1.406-0.902,2.429-0.902
				c1.028,0,1.839,0.301,2.435,0.902c0.595,0.602,0.894,1.418,0.894,2.449c0,1.055-0.299,1.881-0.896,2.479
				C665.412,84.25,664.588,84.549,663.537,84.549z M663.567,83.465c0.996,0,1.494-0.764,1.494-2.291
				c0-0.699-0.132-1.252-0.396-1.658c-0.264-0.406-0.625-0.609-1.087-0.609c-0.457,0-0.817,0.203-1.081,0.609
				c-0.264,0.406-0.396,0.963-0.396,1.67c0,0.699,0.131,1.254,0.393,1.664C662.757,83.26,663.114,83.465,663.567,83.465z
				 M674.723,84.402l-3.205-8.672h1.928l2.484,6.709l2.402-6.709h1.301l-3.1,8.672H674.723z M680.841,84.402v-6.433h1.734v6.433
				H680.841z M680.841,76.885v-1.447h1.734v1.447H680.841z M689.981,84.186c-0.824,0.242-1.605,0.363-2.344,0.363
				c-1.074,0-1.922-0.305-2.543-0.914c-0.62-0.609-0.931-1.441-0.931-2.496c0-0.996,0.284-1.798,0.852-2.405
				c0.568-0.607,1.32-0.911,2.253-0.911c0.942,0,1.629,0.297,2.063,0.891c0.434,0.594,0.65,1.533,0.65,2.818h-3.99
				c0.117,1.226,0.791,1.84,2.022,1.84c0.582,0,1.239-0.135,1.969-0.404V84.186z M685.967,80.553h2.309
				c0-1.098-0.353-1.647-1.061-1.647C686.496,78.906,686.08,79.455,685.967,80.553z M692.91,84.402l-1.787-6.433h1.611L694,82.475
				l1.348-4.506h1.5l1.213,4.529l1.365-4.529h1.207l-1.91,6.433h-1.664l-1.172-4.412l-1.313,4.412H692.91z"/>
		</g>
	</g>
	<g transform="matrix(1.3333,0,0,1.3333,44,64.8438) translate(568.4106,72.8008)">
		<g>
			<defs>
				<rect id="SVGID_116_" x="-737.147" y="-195.551" width="1085.973" height="592.985"/>
			</defs>
			<clipPath id="SVGID_117_">
				<use xlink:href="#SVGID_116_"  overflow="visible"/>
			</clipPath>
			<path clip-path="url(#SVGID_117_)" d="M1.084,28.049v-8.748h1.734v1.213c0.445-0.906,1.147-1.359,2.104-1.359
				c0.773,0,1.382,0.283,1.825,0.849c0.444,0.567,0.665,1.346,0.665,2.338c0,1.078-0.25,1.938-0.75,2.578
				c-0.5,0.641-1.17,0.961-2.01,0.961c-0.675,0-1.287-0.266-1.834-0.797v2.965H1.084z M2.818,24.053
				c0.422,0.469,0.872,0.703,1.348,0.703c0.426,0,0.766-0.206,1.02-0.618c0.254-0.412,0.381-0.962,0.381-1.649
				c0-1.316-0.423-1.975-1.272-1.975c-0.511,0-1.003,0.33-1.477,0.99V24.053z M9.035,25.734v-6.433h1.734v1.213
				c0.45-0.906,1.133-1.359,2.051-1.359c0.109,0,0.217,0.012,0.322,0.035v1.547c-0.246-0.09-0.475-0.134-0.686-0.134
				c-0.691,0-1.254,0.349-1.688,1.048v4.084H9.035z M19.729,25.518c-0.825,0.242-1.605,0.363-2.344,0.363
				c-1.074,0-1.922-0.305-2.543-0.914c-0.621-0.609-0.932-1.441-0.932-2.496c0-0.996,0.284-1.798,0.853-2.405
				c0.568-0.607,1.319-0.911,2.253-0.911c0.941,0,1.629,0.297,2.063,0.89c0.434,0.594,0.65,1.533,0.65,2.818h-3.99
				c0.117,1.227,0.791,1.84,2.022,1.84c0.582,0,1.238-0.135,1.969-0.404V25.518z M15.715,21.885h2.309
				c0-1.098-0.354-1.647-1.061-1.647C16.244,20.238,15.828,20.787,15.715,21.885z M21.703,25.734v-5.349h-0.885v-1.084h0.885v-0.463
				c0-1.668,0.791-2.502,2.373-2.502c0.511,0,1.039,0.074,1.582,0.223v1.172c-0.492-0.207-0.934-0.311-1.324-0.311
				c-0.598,0-0.897,0.451-0.897,1.353v0.528h1.629v1.084h-1.629v5.349H21.703z M31.734,25.518c-0.824,0.242-1.605,0.363-2.344,0.363
				c-1.074,0-1.921-0.305-2.542-0.914c-0.621-0.609-0.932-1.441-0.932-2.496c0-0.996,0.284-1.798,0.853-2.405
				c0.568-0.607,1.319-0.911,2.253-0.911c0.941,0,1.628,0.297,2.062,0.89c0.434,0.594,0.65,1.533,0.65,2.818h-3.99
				c0.117,1.227,0.791,1.84,2.021,1.84c0.582,0,1.239-0.135,1.969-0.404V25.518z M27.721,21.885h2.309
				c0-1.098-0.354-1.647-1.061-1.647C28.25,20.238,27.834,20.787,27.721,21.885z M33.527,25.734v-6.433h1.734v1.213
				c0.45-0.906,1.133-1.359,2.051-1.359c0.11,0,0.217,0.012,0.322,0.035v1.547c-0.246-0.09-0.475-0.134-0.686-0.134
				c-0.691,0-1.254,0.349-1.688,1.048v4.084H33.527z M38.982,25.734v-6.433h1.734v6.433H38.982z M38.982,18.217V16.77h1.734v1.447
				H38.982z M46.201,25.699c-0.414,0.121-0.74,0.182-0.979,0.182c-1.504,0-2.256-0.703-2.256-2.109v-3.386h-0.721v-1.084h0.721
				v-1.084l1.734-0.199v1.283h1.377v1.084h-1.377v3.158c0,0.789,0.322,1.184,0.967,1.184c0.149,0,0.326-0.027,0.533-0.082V25.699z
				 M52.987,25.518c-0.825,0.242-1.606,0.363-2.344,0.363c-1.074,0-1.922-0.305-2.543-0.914c-0.621-0.609-0.932-1.441-0.932-2.496
				c0-0.996,0.284-1.798,0.853-2.405c0.568-0.607,1.319-0.911,2.253-0.911c0.941,0,1.629,0.297,2.063,0.89
				c0.434,0.594,0.65,1.533,0.65,2.818h-3.99c0.117,1.227,0.791,1.84,2.022,1.84c0.582,0,1.238-0.135,1.969-0.404V25.518z
				 M48.973,21.885h2.309c0-1.098-0.354-1.647-1.061-1.647C49.502,20.238,49.086,20.787,48.973,21.885z M60.322,25.734l-2.454-6.433
				h1.827l1.799,4.64l1.787-4.64h1.254l-2.479,6.433H60.322z M69.832,25.734v-1.213c-0.562,0.906-1.293,1.359-2.191,1.359
				c-0.574,0-1.027-0.182-1.359-0.545c-0.332-0.363-0.498-0.859-0.498-1.488v-4.547h1.734v4.119c0,0.731,0.245,1.096,0.732,1.096
				c0.547,0,1.074-0.389,1.582-1.166v-4.049h1.734v6.433H69.832z M76.436,25.881c-1.004,0-1.802-0.304-2.394-0.911
				c-0.592-0.607-0.888-1.425-0.888-2.452c0-1.039,0.298-1.859,0.894-2.461c0.595-0.601,1.406-0.902,2.429-0.902
				c1.028,0,1.838,0.301,2.435,0.902c0.595,0.602,0.894,1.418,0.894,2.449c0,1.055-0.299,1.881-0.897,2.479
				C78.311,25.582,77.486,25.881,76.436,25.881z M76.465,24.797c0.996,0,1.494-0.764,1.494-2.291c0-0.699-0.132-1.252-0.396-1.658
				c-0.264-0.406-0.626-0.61-1.087-0.61c-0.457,0-0.817,0.203-1.081,0.61C75.132,21.254,75,21.811,75,22.517
				c0,0.699,0.131,1.254,0.393,1.664S76.012,24.797,76.465,24.797z M84.715,25.699c-0.415,0.121-0.741,0.182-0.979,0.182
				c-1.504,0-2.256-0.703-2.256-2.109v-3.386H80.76v-1.084h0.721v-1.084l1.734-0.199v1.283h1.377v1.084h-1.377v3.158
				c0,0.789,0.322,1.184,0.967,1.184c0.148,0,0.326-0.027,0.533-0.082V25.699z M88.963,25.881c-1.004,0-1.802-0.304-2.394-0.911
				c-0.592-0.607-0.888-1.425-0.888-2.452c0-1.039,0.297-1.859,0.894-2.461c0.595-0.601,1.405-0.902,2.428-0.902
				c1.028,0,1.839,0.301,2.435,0.902c0.596,0.602,0.894,1.418,0.894,2.449c0,1.055-0.299,1.881-0.896,2.479
				C90.838,25.582,90.014,25.881,88.963,25.881z M88.993,24.797c0.995,0,1.493-0.764,1.493-2.291c0-0.699-0.132-1.252-0.396-1.658
				c-0.264-0.406-0.626-0.61-1.087-0.61c-0.456,0-0.817,0.203-1.08,0.61c-0.264,0.406-0.396,0.963-0.396,1.67
				c0,0.699,0.131,1.254,0.393,1.664C88.182,24.592,88.539,24.797,88.993,24.797z"/>
		</g>
	</g>
	<g transform="matrix(1.3333,0,0,1.3333,44,64.8438) translate(5,5)">
		<g>
			<defs>
				<rect id="SVGID_118_" x="-173.736" y="-127.75" width="1085.973" height="592.985"/>
			</defs>
			<clipPath id="SVGID_119_">
				<use xlink:href="#SVGID_118_"  overflow="visible"/>
			</clipPath>
			
				<line clip-path="url(#SVGID_119_)" fill="none" stroke="#C0C0C0" stroke-linecap="square" stroke-miterlimit="10" stroke-opacity="0.502" x1="478.65" y1="86.652" x2="540" y2="86.762"/>
		</g>
		<g>
			<defs>
				<rect id="SVGID_120_" x="-173.736" y="-127.75" width="1085.973" height="592.985"/>
			</defs>
			<clipPath id="SVGID_121_">
				<use xlink:href="#SVGID_120_"  overflow="visible"/>
			</clipPath>
			
				<line clip-path="url(#SVGID_121_)" fill="none" stroke="#C0C0C0" stroke-linecap="square" stroke-miterlimit="10" stroke-opacity="0.502" x1="478.65" y1="86.652" x2="489.053" y2="80.671"/>
		</g>
		<g>
			<defs>
				<rect id="SVGID_122_" x="-173.736" y="-127.75" width="1085.973" height="592.985"/>
			</defs>
			<clipPath id="SVGID_123_">
				<use xlink:href="#SVGID_122_"  overflow="visible"/>
			</clipPath>
			
				<line clip-path="url(#SVGID_123_)" fill="none" stroke="#C0C0C0" stroke-linecap="square" stroke-miterlimit="10" stroke-opacity="0.502" x1="478.65" y1="86.652" x2="489.032" y2="92.671"/>
		</g>
	</g>
	<g transform="matrix(1.3333,0,0,1.3333,44,64.8438)">
		<g>
			<defs>
				<rect id="SVGID_124_" x="-168.736" y="-122.75" width="1085.973" height="592.985"/>
			</defs>
			<clipPath id="SVGID_125_">
				<use xlink:href="#SVGID_124_"  overflow="visible"/>
			</clipPath>
			
				<line clip-path="url(#SVGID_125_)" fill="none" stroke="#000000" stroke-miterlimit="10" stroke-dasharray="5,5" x1="478.65" y1="86.652" x2="540" y2="86.762"/>
		</g>
		<g>
			<defs>
				<rect id="SVGID_126_" x="-168.736" y="-122.75" width="1085.973" height="592.985"/>
			</defs>
			<clipPath id="SVGID_127_">
				<use xlink:href="#SVGID_126_"  overflow="visible"/>
			</clipPath>
			
				<line clip-path="url(#SVGID_127_)" fill="none" stroke="#000000" stroke-linecap="square" stroke-miterlimit="10" x1="478.65" y1="86.652" x2="489.053" y2="80.671"/>
		</g>
		<g>
			<defs>
				<rect id="SVGID_128_" x="-168.736" y="-122.75" width="1085.973" height="592.985"/>
			</defs>
			<clipPath id="SVGID_129_">
				<use xlink:href="#SVGID_128_"  overflow="visible"/>
			</clipPath>
			
				<line clip-path="url(#SVGID_129_)" fill="none" stroke="#000000" stroke-linecap="square" stroke-miterlimit="10" x1="478.65" y1="86.652" x2="489.031" y2="92.671"/>
		</g>
	</g>
	<g transform="matrix(1.3333,0,0,1.3333,44,64.8438) translate(470.325,118.5741)">
		<g>
			<defs>
				<rect id="SVGID_130_" x="-639.062" y="-241.324" width="1085.973" height="592.985"/>
			</defs>
			<clipPath id="SVGID_131_">
				<use xlink:href="#SVGID_130_"  overflow="visible"/>
			</clipPath>
			<path clip-path="url(#SVGID_131_)" d="M8.238,0L1.301-3.469l6.938-3.468v0.967L3.24-3.469l4.998,2.496V0z M17.778,0L10.84-3.469
				l6.938-3.468v0.967l-4.998,2.502l4.998,2.496V0z M24.897-0.205c-0.773,0.234-1.436,0.352-1.986,0.352
				c-0.938,0-1.702-0.311-2.294-0.935c-0.592-0.623-0.888-1.43-0.888-2.423c0-0.965,0.261-1.756,0.782-2.373
				c0.521-0.617,1.188-0.926,2.001-0.926c0.769,0,1.364,0.273,1.784,0.82c0.42,0.547,0.63,1.324,0.63,2.332L24.92-3h-4.014
				c0.168,1.511,0.908,2.267,2.221,2.267c0.48,0,1.07-0.129,1.77-0.387V-0.205z M20.959-3.867h2.807
				c0-1.184-0.442-1.775-1.324-1.775C21.555-5.643,21.06-5.051,20.959-3.867z M26.28,0l2.419-3.287l-2.35-3.076h1.371l1.857,2.449
				l1.682-2.449h1.125l-2.203,3.228L32.578,0h-1.371l-1.916-2.519L27.44,0H26.28z M36.187,0.146c-0.586,0-1.043-0.168-1.371-0.504
				c-0.328-0.336-0.492-0.803-0.492-1.4v-3.738h-0.797v-0.867h0.797v-1.154l1.154-0.111v1.266h1.664v0.867h-1.664v3.527
				c0,0.832,0.36,1.248,1.078,1.248c0.152,0,0.338-0.025,0.557-0.076V0C36.758,0.098,36.449,0.146,36.187,0.146z M43.43-0.205
				c-0.773,0.234-1.436,0.352-1.986,0.352c-0.938,0-1.702-0.311-2.294-0.935c-0.592-0.623-0.888-1.43-0.888-2.423
				c0-0.965,0.261-1.756,0.782-2.373c0.521-0.617,1.189-0.926,2.001-0.926c0.77,0,1.365,0.273,1.784,0.82
				c0.42,0.547,0.63,1.324,0.63,2.332L43.453-3h-4.014c0.168,1.511,0.908,2.267,2.221,2.267c0.48,0,1.07-0.129,1.77-0.387V-0.205z
				 M39.492-3.867h2.807c0-1.184-0.442-1.775-1.324-1.775C40.088-5.643,39.594-5.051,39.492-3.867z M45.451,0v-6.363h1.154v1.195
				c0.609-0.891,1.355-1.336,2.238-1.336c0.551,0,0.99,0.175,1.318,0.524c0.328,0.349,0.492,0.819,0.492,1.409V0H49.5v-4.195
				c0-0.473-0.07-0.81-0.208-1.011c-0.139-0.201-0.368-0.302-0.688-0.302c-0.708,0-1.373,0.463-1.998,1.389V0H45.451z M56.982,0
				v-1.195c-0.469,0.895-1.176,1.342-2.121,1.342c-0.765,0-1.367-0.279-1.807-0.838c-0.439-0.558-0.659-1.322-0.659-2.291
				c0-1.059,0.249-1.91,0.747-2.555c0.498-0.645,1.153-0.967,1.965-0.967c0.754,0,1.379,0.289,1.875,0.867v-3.615h1.16V0H56.982z
				 M56.982-4.846c-0.598-0.527-1.164-0.791-1.699-0.791c-1.105,0-1.658,0.846-1.658,2.537c0,1.488,0.492,2.232,1.477,2.232
				c0.64,0,1.267-0.349,1.88-1.049V-4.846z M60.597,0l6.938-3.469l-6.938-3.468v0.967l4.998,2.502l-4.998,2.496V0z M70.137,0
				l6.938-3.469l-6.938-3.468v0.967l4.998,2.502l-4.998,2.496V0z"/>
		</g>
	</g>
</g>
</svg>
